<svg width="60" height="76" viewBox="0 0 60 76" fill="none" xmlns="http://www.w3.org/2000/svg">
<path d="M58.5 52.9012C58.5 53.2397 58.2303 53.926 56.8286 54.8314C55.4934 55.6938 53.4621 56.5273 50.8179 57.2497C45.551 58.6886 38.1902 59.5972 30 59.5972C21.8098 59.5972 14.449 58.6886 9.18211 57.2497C6.53793 56.5273 4.50657 55.6938 3.17142 54.8314C1.76971 53.926 1.5 53.2397 1.5 52.9012C1.5 52.5626 1.76971 51.8763 3.17142 50.9709C4.50657 50.1085 6.53793 49.275 9.18211 48.5526C14.449 47.1137 21.8098 46.2051 30 46.2051C38.1902 46.2051 45.551 47.1137 50.8179 48.5526C53.4621 49.275 55.4934 50.1085 56.8286 50.9709C58.2303 51.8763 58.5 52.5626 58.5 52.9012Z" fill="white" stroke="#CF0A0A" stroke-width="3"/>
<path fill-rule="evenodd" clip-rule="evenodd" d="M37 7C37 10.866 33.866 14 30 14C26.134 14 23 10.866 23 7C23 3.13401 26.134 0 30 0C33.866 0 37 3.13401 37 7ZM29.9996 15.4618H34.4817H34.5414L34.6005 15.4707C35.8107 15.6537 37.614 16.1965 39.1373 17.2561C40.6755 18.326 41.9992 19.9821 41.9992 22.3559V22.3797V22.4035V22.4274V22.4512V22.4751V22.4989V22.5228V22.5467V22.5706V22.5945V22.6184V22.6423V22.6662V22.6901V22.7141V22.738V22.7619V22.7859V22.8098V22.8338V22.8577V22.8817V22.9056V22.9296V22.9536V22.9776V23.0016V23.0255V23.0495V23.0735V23.0975V23.1215V23.1455V23.1696V23.1936V23.2176V23.2416V23.2656V23.2897V23.3137V23.3377V23.3617V23.3858V23.4098V23.4338V23.4579V23.4819V23.506V23.53V23.5541V23.5781V23.6021V23.6262V23.6502V23.6743V23.6983V23.7224V23.7464V23.7705V23.7945V23.8186V23.8426V23.8667V23.8907V23.9147V23.9388V23.9628V23.9869V24.0109V24.0349V24.059V24.083V24.107V24.1311V24.1551V24.1791V24.2031V24.2272V24.2512V24.2752V24.2992V24.3232V24.3472V24.3712V24.3952V24.4192V24.4432V24.4672V24.4911V24.5151V24.5391V24.5631V24.587V24.611V24.6349V24.6589V24.6828V24.7068V24.7307V24.7546V24.7785V24.8024V24.8263V24.8502V24.8741V24.898V24.9219V24.9458V24.9696V24.9935V25.0173V25.0412V25.065V25.0889V25.1127V25.1365V25.1603V25.1841V25.2079V25.2317V25.2554V25.2792V25.303V25.3267V25.3504V25.3742V25.3979V25.4216V25.4453V25.469V25.4927V25.5163V25.54V25.5636V25.5873V25.6109V25.6345V25.6581V25.6817V25.7053V25.7289V25.7524V25.776V25.7995V25.823V25.8465V25.87V25.8935V25.917V25.9405V25.9639V25.9874V26.0108V26.0342V26.0576V26.081V26.1043V26.1277V26.151V26.1744V26.1977V26.221V26.2443V26.2676V26.2908V26.3141V26.3373V26.3605V26.3837V26.4069V26.43V26.4532V26.4763V26.4995V26.5226V26.5456V26.5687V26.5918V26.6148V26.6378V26.6608V26.6838V26.7068V26.7298V26.7527V26.7756V26.7985V26.8214V26.8443V26.8671V26.8899V26.9128V26.9356V26.9583V26.9811V27.0038V27.0265V27.0492V27.0719V27.0946V27.1172V27.1398V27.1625V27.185V27.2076V27.2301V27.2527V27.2752V27.2976V27.3201V27.3425V27.365V27.3874V27.4097V27.4321V27.4544V27.4767V27.499V27.5213V27.5435V27.5658V27.588V27.6101V27.6323V27.6544V27.6765V27.6986V27.7207V27.7427V27.7647V27.7867V27.8087V27.8306V27.8526V27.8745V27.8963V27.9182V27.94V27.9618V27.9836V28.0053V28.0271V28.0488V28.0704V28.0921V28.1137V28.1353V28.1569V28.1784V28.1999V28.2214V28.2429V28.2643V28.2857V28.3071V28.3285V28.3498V28.3711V28.3924V28.4136V28.4349V28.4561V28.4772V28.4984V28.5195V28.5406V28.5616V28.5826V28.6036V28.6246V28.6455V28.6664V28.6873V28.7082V28.729V28.7498V28.7705V28.7913V28.812V28.8326V28.8533V28.8739V28.8945V28.915V28.9355V28.956V28.9765V28.9969V29.0173V29.0376V29.058V29.0783V29.0985V29.1187V29.1389V29.1591V29.1792V29.1993V29.2194V29.2394V29.2595V29.2794V29.2994V29.3193V29.3391V29.359V29.3788V29.3985V29.4183V29.438V29.4576V29.4772V29.4968V29.5164V29.5359V29.5554V29.5749V29.5943V29.6137V29.633V29.6523V29.6716V29.6908V29.71V29.7292V29.7483V29.7674V29.7865V29.8055V29.8245V29.8434V29.8623V29.8812V29.9V29.9188V29.9376V29.9563V29.975V29.9936V30.0122V30.0308V30.0493V30.0678V30.0862V30.1047V30.123V30.1414V30.1596V30.1779V30.1961V30.2143V30.2324V30.2505V30.2685V30.2866V30.3045V30.3225V30.3403V30.3582V30.376V30.3938V30.4115V30.4292V30.4468V30.4644V30.482V30.4995V30.5169V30.5344V30.5517V30.5691V30.5864V30.6036V30.6209V30.638V30.6552V30.6722V30.6893V30.7063V30.7232V30.7401V30.757V30.7738V30.7906V30.8073V30.824V30.8407V30.8573V30.8738V30.8903V30.9068V30.9232V30.9396V30.9559V30.9722V30.9884V31.0046V31.0207V31.0368V31.0529V31.0689V31.0848V31.1007V31.1166V31.1324V31.1481V31.1639V31.1795V31.1951V31.2107V31.2262V31.2417V31.2571V31.2725V31.2879V31.3031V31.3184V31.3335V31.3487V31.3638V31.3788V31.3938V31.4087V31.4236V31.4384V31.4532V31.468V31.4826V31.4973V31.5119V31.5264V31.5409V31.5553V31.5697V31.584V31.5983V31.6125V31.6267V31.6408V31.6549V31.6689V31.6829V31.6968V31.7106V31.7244V31.7382V31.7519V31.7655V31.7791V31.7927V31.8061V31.8196V31.833V31.8463V31.8596V31.8728V31.8859V31.899V31.9121V31.9251V31.938V31.9509V31.9637V31.9765V31.9892V32.0019V32.0145V32.0271V32.0396V32.052V32.0644V32.0767V32.089V32.1012V32.1134V32.1255V32.1375V32.1495V32.1614V32.1733V32.1851V32.1969V32.2086V32.2202V32.2318V32.2433V32.2548V32.2662V32.2776V32.2888V32.3001V32.3112V32.3224V32.3334V32.3444V32.3553V32.3662V32.377V32.3878V32.3985V32.4091V32.4197V32.4302V32.4406V32.451V32.4613V32.4716V32.4818V32.492V32.5021V32.5121V32.522C41.9992 33.3436 41.7347 34.5442 40.9307 35.5574C40.2129 36.4618 39.1054 37.1645 37.5171 37.3403V46.7547V46.827L37.504 46.8982C37.2968 48.0263 36.6868 49.6855 35.5086 51.0797C34.3123 52.4954 32.5152 53.6487 29.9996 53.6487C27.484 53.6487 25.6869 52.4954 24.4906 51.0797C23.3125 49.6855 22.7024 48.0263 22.4952 46.8982L22.4821 46.827V46.7547V37.3403C20.8938 37.1645 19.7863 36.4618 19.0685 35.5574C18.2645 34.5442 18 33.3436 18 32.522V32.5121V32.5021V32.492V32.4818V32.4716V32.4613V32.451V32.4406V32.4302V32.4197V32.4091V32.3985V32.3878V32.377V32.3662V32.3553V32.3444V32.3334V32.3224V32.3112V32.3001V32.2888V32.2776V32.2662V32.2548V32.2433V32.2318V32.2202V32.2086V32.1969V32.1851V32.1733V32.1614V32.1495V32.1375V32.1255V32.1134V32.1012V32.089V32.0767V32.0644V32.052V32.0396V32.0271V32.0145V32.0019V31.9892V31.9765V31.9637V31.9509V31.938V31.9251V31.9121V31.899V31.8859V31.8728V31.8596V31.8463V31.833V31.8196V31.8061V31.7927V31.7791V31.7655V31.7519V31.7382V31.7244V31.7106V31.6968V31.6829V31.6689V31.6549V31.6408V31.6267V31.6125V31.5983V31.584V31.5697V31.5553V31.5409V31.5264V31.5119V31.4973V31.4826V31.468V31.4532V31.4384V31.4236V31.4087V31.3938V31.3788V31.3638V31.3487V31.3335V31.3184V31.3031V31.2879V31.2725V31.2571V31.2417V31.2262V31.2107V31.1951V31.1795V31.1639V31.1481V31.1324V31.1166V31.1007V31.0848V31.0689V31.0529V31.0368V31.0207V31.0046V30.9884V30.9722V30.9559V30.9396V30.9232V30.9068V30.8903V30.8738V30.8573V30.8407V30.824V30.8073V30.7906V30.7738V30.757V30.7401V30.7232V30.7063V30.6893V30.6722V30.6552V30.638V30.6209V30.6036V30.5864V30.5691V30.5517V30.5344V30.5169V30.4995V30.482V30.4644V30.4468V30.4292V30.4115V30.3938V30.376V30.3582V30.3403V30.3225V30.3045V30.2866V30.2685V30.2505V30.2324V30.2143V30.1961V30.1779V30.1596V30.1414V30.123V30.1047V30.0862V30.0678V30.0493V30.0308V30.0122V29.9936V29.975V29.9563V29.9376V29.9188V29.9V29.8812V29.8623V29.8434V29.8245V29.8055V29.7865V29.7674V29.7483V29.7292V29.71V29.6908V29.6716V29.6523V29.633V29.6137V29.5943V29.5749V29.5554V29.5359V29.5164V29.4968V29.4772V29.4576V29.438V29.4183V29.3985V29.3788V29.359V29.3391V29.3193V29.2994V29.2794V29.2595V29.2394V29.2194V29.1993V29.1792V29.1591V29.1389V29.1187V29.0985V29.0783V29.058V29.0376V29.0173V28.9969V28.9765V28.956V28.9355V28.915V28.8945V28.8739V28.8533V28.8326V28.812V28.7913V28.7705V28.7498V28.729V28.7082V28.6873V28.6664V28.6455V28.6246V28.6036V28.5826V28.5616V28.5406V28.5195V28.4984V28.4772V28.4561V28.4349V28.4136V28.3924V28.3711V28.3498V28.3285V28.3071V28.2857V28.2643V28.2429V28.2214V28.1999V28.1784V28.1569V28.1353V28.1137V28.0921V28.0704V28.0488V28.0271V28.0053V27.9836V27.9618V27.94V27.9182V27.8963V27.8745V27.8526V27.8306V27.8087V27.7867V27.7647V27.7427V27.7207V27.6986V27.6765V27.6544V27.6323V27.6101V27.588V27.5658V27.5435V27.5213V27.499V27.4767V27.4544V27.4321V27.4097V27.3874V27.365V27.3425V27.3201V27.2976V27.2752V27.2527V27.2301V27.2076V27.185V27.1625V27.1398V27.1172V27.0946V27.0719V27.0492V27.0265V27.0038V26.9811V26.9583V26.9356V26.9128V26.8899V26.8671V26.8443V26.8214V26.7985V26.7756V26.7527V26.7298V26.7068V26.6838V26.6608V26.6378V26.6148V26.5918V26.5687V26.5456V26.5226V26.4995V26.4763V26.4532V26.43V26.4069V26.3837V26.3605V26.3373V26.3141V26.2908V26.2676V26.2443V26.221V26.1977V26.1744V26.151V26.1277V26.1043V26.081V26.0576V26.0342V26.0108V25.9874V25.9639V25.9405V25.917V25.8935V25.87V25.8465V25.823V25.7995V25.776V25.7524V25.7289V25.7053V25.6817V25.6581V25.6345V25.6109V25.5873V25.5636V25.54V25.5163V25.4927V25.469V25.4453V25.4216V25.3979V25.3742V25.3504V25.3267V25.303V25.2792V25.2554V25.2317V25.2079V25.1841V25.1603V25.1365V25.1127V25.0889V25.065V25.0412V25.0173V24.9935V24.9696V24.9458V24.9219V24.898V24.8741V24.8502V24.8263V24.8024V24.7785V24.7546V24.7307V24.7068V24.6828V24.6589V24.6349V24.611V24.587V24.5631V24.5391V24.5151V24.4911V24.4672V24.4432V24.4192V24.3952V24.3712V24.3472V24.3232V24.2992V24.2752V24.2512V24.2272V24.2031V24.1791V24.1551V24.1311V24.107V24.083V24.059V24.0349V24.0109V23.9869V23.9628V23.9388V23.9147V23.8907V23.8667V23.8426V23.8186V23.7945V23.7705V23.7464V23.7224V23.6983V23.6743V23.6502V23.6262V23.6021V23.5781V23.5541V23.53V23.506V23.4819V23.4579V23.4338V23.4098V23.3858V23.3617V23.3377V23.3137V23.2897V23.2656V23.2416V23.2176V23.1936V23.1696V23.1455V23.1215V23.0975V23.0735V23.0495V23.0255V23.0016V22.9776V22.9536V22.9296V22.9056V22.8817V22.8577V22.8338V22.8098V22.7859V22.7619V22.738V22.7141V22.6901V22.6662V22.6423V22.6184V22.5945V22.5706V22.5467V22.5228V22.4989V22.4751V22.4512V22.4274V22.4035V22.3797V22.3559C18 19.9821 19.3237 18.326 20.8619 17.2561C22.3852 16.1965 24.1885 15.6537 25.3987 15.4707L25.4578 15.4618H25.5175H29.9996Z" fill="#CF0A0A"/>
<path d="M0 65.6831H2.69178C3.84342 65.6831 4.71505 65.8325 5.30665 66.1312C5.89824 66.4299 6.19404 66.9545 6.19404 67.7049C6.19404 68.0073 6.1408 68.2805 6.03431 68.5246C5.93177 68.7686 5.7819 68.969 5.5847 69.1256C5.3875 69.2823 5.14691 69.3843 4.86295 69.4316V69.4863C5.15086 69.5409 5.41116 69.6356 5.64386 69.7704C5.87655 69.9016 6.06192 70.0946 6.19996 70.3496C6.34194 70.601 6.41294 70.9361 6.41294 71.3551C6.41294 71.8396 6.28476 72.2549 6.0284 72.6009C5.77204 72.947 5.40525 73.2129 4.92802 73.3987C4.45474 73.5809 3.89075 73.6719 3.23605 73.6719H0V65.6831ZM1.83396 68.8469H2.89884C3.43128 68.8469 3.80004 68.7704 4.00513 68.6174C4.21022 68.4608 4.31276 68.2313 4.31276 67.9289C4.31276 67.6229 4.1905 67.4044 3.94597 67.2732C3.70538 67.1384 3.32282 67.071 2.79826 67.071H1.83396V68.8469ZM1.83396 70.1912V72.2731H3.02899C3.58115 72.2731 3.96569 72.1747 4.18261 71.978C4.39953 71.7813 4.50799 71.5172 4.50799 71.1857C4.50799 70.989 4.46066 70.8159 4.366 70.6666C4.27135 70.5172 4.11162 70.4006 3.88681 70.3168C3.66594 70.2331 3.36028 70.1912 2.96983 70.1912H1.83396Z" fill="#CF0A0A"/>
<path d="M8.14041 73.6719V65.6831H9.97436V68.7486H10.566C11.3666 68.7486 12.0233 68.8524 12.536 69.0601C13.0527 69.2677 13.4352 69.5555 13.6837 69.9234C13.9322 70.2877 14.0564 70.7048 14.0564 71.1747C14.0564 71.9652 13.7724 72.5791 13.2045 73.0162C12.6405 73.4534 11.7413 73.6719 10.5068 73.6719H8.14041ZM9.97436 72.284H10.4536C10.9939 72.284 11.4198 72.202 11.7314 72.0381C12.043 71.8705 12.1988 71.5827 12.1988 71.1747C12.1988 70.8906 12.1278 70.6738 11.9858 70.5245C11.8438 70.3751 11.6368 70.2731 11.3646 70.2185C11.0925 70.1638 10.7612 70.1365 10.3707 70.1365H9.97436V72.284ZM15.1094 73.6719V65.6831H16.9375V73.6719H15.1094Z" fill="#CF0A0A"/>
<path d="M28.243 67.5519C28.243 68.0874 28.0359 68.5191 27.6218 68.8469C27.2077 69.1748 26.6831 69.3806 26.0481 69.4644V69.4972C26.8369 69.5701 27.4443 69.7722 27.8702 70.1037C28.2962 70.4352 28.5092 70.8669 28.5092 71.3988C28.5092 71.8651 28.3711 72.2785 28.0951 72.6392C27.819 72.9962 27.4108 73.2767 26.8704 73.4807C26.3301 73.681 25.6616 73.7812 24.8649 73.7812C24.2102 73.7812 23.6285 73.7448 23.1197 73.6719C22.6149 73.5954 22.1771 73.488 21.8064 73.3495V71.9288C22.0588 72.0381 22.3408 72.1328 22.6523 72.213C22.9679 72.2895 23.2873 72.3496 23.6107 72.3933C23.9341 72.4334 24.2339 72.4534 24.51 72.4534C25.2751 72.4534 25.8292 72.3514 26.1724 72.1474C26.5194 71.9434 26.693 71.6538 26.693 71.2786C26.693 70.8961 26.4425 70.6174 25.9416 70.4425C25.4407 70.2677 24.7663 70.1802 23.9184 70.1802H23.1079V68.8579H23.8355C24.5218 68.8579 25.0542 68.8178 25.4329 68.7377C25.8154 68.6539 26.0816 68.5355 26.2315 68.3825C26.3853 68.2258 26.4622 68.0382 26.4622 67.8197C26.4622 67.5464 26.3301 67.3297 26.0659 67.1694C25.8016 67.0055 25.4092 66.9235 24.8886 66.9235C24.439 66.9235 24.0189 66.9836 23.6285 67.1038C23.238 67.2204 22.8732 67.377 22.534 67.5738L21.7354 66.4426C22.0312 66.2641 22.3467 66.1093 22.6819 65.9782C23.0211 65.847 23.3918 65.7469 23.7941 65.6776C24.1964 65.6048 24.646 65.5684 25.143 65.5684C25.7937 65.5684 26.3498 65.654 26.8113 65.8252C27.2727 65.9964 27.6257 66.2314 27.8702 66.5301C28.1187 66.8252 28.243 67.1658 28.243 67.5519Z" fill="#CF0A0A"/>
<path d="M36.898 65.6831V72.2621H38.0517V75.9997H36.2828V73.6719H30.8637V75.9997H29.0949V72.2621H29.7634C29.9882 71.8469 30.2051 71.4079 30.4141 70.9452C30.6232 70.4826 30.8184 69.9853 30.9998 69.4535C31.1812 68.9216 31.3449 68.3442 31.4908 67.7213C31.6368 67.0984 31.759 66.419 31.8576 65.6831H36.898ZM35.07 67.0929H33.313C33.2538 67.479 33.1729 67.8907 33.0704 68.3278C32.9679 68.765 32.8456 69.2112 32.7036 69.6666C32.5656 70.1183 32.4098 70.5646 32.2362 71.0054C32.0667 71.4461 31.8852 71.8651 31.692 72.2621H35.07V67.0929Z" fill="#CF0A0A"/>
<path d="M44.3699 73.6719H39.3887V65.6831H44.3699V67.071H41.2226V68.8251H44.1511V70.213H41.2226V72.2731H44.3699V73.6719Z" fill="#CF0A0A"/>
<path d="M49.8541 66.9782C49.5031 66.9782 49.1915 67.0419 48.9193 67.1694C48.6512 67.2933 48.4244 67.4736 48.239 67.7104C48.0576 67.9472 47.9195 68.2331 47.8249 68.5683C47.7302 68.9034 47.6829 69.2804 47.6829 69.6994C47.6829 70.264 47.7578 70.7467 47.9077 71.1474C48.0615 71.5445 48.2982 71.8487 48.6176 72.06C48.9371 72.2676 49.3492 72.3714 49.8541 72.3714C50.2051 72.3714 50.5561 72.335 50.9071 72.2621C51.2621 72.1893 51.6466 72.0855 52.0607 71.9507V73.3714C51.6782 73.5171 51.3015 73.6209 50.9308 73.6829C50.56 73.7484 50.144 73.7812 49.6825 73.7812C48.7912 73.7812 48.0576 73.6118 47.4818 73.273C46.9099 72.9306 46.4859 72.4534 46.2098 71.8414C45.9337 71.2257 45.7957 70.5081 45.7957 69.6885C45.7957 69.0837 45.8844 68.53 46.0619 68.0273C46.2394 67.5246 46.4997 67.0893 46.8428 66.7213C47.186 66.3534 47.6099 66.0693 48.1148 65.8689C48.6196 65.6685 49.1994 65.5684 49.8541 65.5684C50.284 65.5684 50.7139 65.6194 51.1438 65.7214C51.5776 65.8197 51.9917 65.9563 52.3861 66.1312L51.7945 67.5082C51.4711 67.3661 51.1457 67.2423 50.8184 67.1366C50.491 67.031 50.1696 66.9782 49.8541 66.9782Z" fill="#CF0A0A"/>
<path d="M53.9065 73.6719V65.6831H55.7405V68.7486H56.4622C57.2747 68.7486 57.9412 68.8524 58.4618 69.0601C58.9864 69.2677 59.3729 69.5555 59.6214 69.9234C59.8738 70.2877 60 70.7048 60 71.1747C60 71.9652 59.7141 72.5791 59.1422 73.0162C58.5742 73.4534 57.6691 73.6719 56.4267 73.6719H53.9065ZM55.7405 72.284H56.3557C56.9118 72.284 57.3496 72.202 57.6691 72.0381C57.9886 71.8705 58.1483 71.5827 58.1483 71.1747C58.1483 70.8906 58.0694 70.6738 57.9117 70.5245C57.7578 70.3751 57.535 70.2731 57.2431 70.2185C56.9552 70.1638 56.6101 70.1365 56.2078 70.1365H55.7405V72.284Z" fill="#CF0A0A"/>
</svg>
