<svg width="257" height="121" viewBox="0 0 257 121" fill="none" xmlns="http://www.w3.org/2000/svg">
<path d="M122.622 96.2883C122.623 95.07 122.344 93.8678 121.805 92.7751C121.266 91.6824 120.482 90.7286 119.515 89.988C118.548 89.2473 117.423 88.7397 116.227 88.5045C115.032 88.2693 113.798 88.313 112.622 88.632C111.447 88.9511 110.36 89.537 109.448 90.3442C108.535 91.1513 107.821 92.1581 107.361 93.2861C106.9 94.4142 106.706 95.6332 106.794 96.8483C106.881 98.0635 107.248 99.2422 107.865 100.293L107.887 100.321C108.192 100.834 108.573 101.201 108.959 101.731L113.556 107.833C113.689 108.01 113.861 108.154 114.059 108.253C114.258 108.352 114.476 108.403 114.698 108.403C114.919 108.403 115.138 108.352 115.336 108.253C115.534 108.154 115.706 108.01 115.84 107.833L120.352 101.838C120.764 101.352 121.148 100.843 121.502 100.312L121.519 100.293C122.237 99.0802 122.618 97.6976 122.622 96.2883ZM114.684 99.7372C113.993 99.7372 113.319 99.5325 112.745 99.1491C112.171 98.7657 111.724 98.2207 111.46 97.5831C111.197 96.9456 111.128 96.244 111.262 95.5673C111.397 94.8905 111.73 94.269 112.218 93.7812C112.706 93.2935 113.328 92.9615 114.005 92.8272C114.682 92.6929 115.383 92.7624 116.02 93.0269C116.658 93.2913 117.202 93.7389 117.585 94.3129C117.968 94.8869 118.172 95.5616 118.172 96.2517C118.172 96.7096 118.082 97.1631 117.906 97.5862C117.731 98.0092 117.474 98.3936 117.15 98.7173C116.826 99.041 116.441 99.2977 116.018 99.4727C115.595 99.6477 115.141 99.7376 114.684 99.7372Z" fill="#E0E0E0"/>
<path d="M186.86 110.458C186.86 110.498 159.853 110.531 126.546 110.531C93.2392 110.531 66.2266 110.498 66.2266 110.458C66.2266 110.419 93.228 110.385 126.546 110.385C159.864 110.385 186.86 110.419 186.86 110.458Z" fill="#263238"/>
<path d="M181.097 3.9668H71.997C69.9988 3.9668 68.3789 5.58665 68.3789 7.58484V81.415C68.3789 83.4132 69.9988 85.033 71.997 85.033H181.097C183.095 85.033 184.715 83.4132 184.715 81.415V7.58484C184.715 5.58665 183.095 3.9668 181.097 3.9668Z" fill="#263238"/>
<path d="M184.718 7.5852L184.701 7.3314C184.696 7.22725 184.684 7.12358 184.664 7.0212C184.643 6.87702 184.611 6.73466 184.568 6.59538C184.433 6.12404 184.203 5.68529 183.892 5.30607C183.581 4.92686 183.196 4.61517 182.76 4.39015C182.457 4.23476 182.133 4.12184 181.799 4.05457C181.426 3.99323 181.048 3.97055 180.671 3.98689H178.051H171.517L129.88 4.01227H101.116H72.4481C72.0937 3.99825 71.7387 4.01713 71.3878 4.06867C71.0387 4.12787 70.7009 4.24108 70.3867 4.40425C69.7517 4.73013 69.2291 5.23898 68.8864 5.865C68.7201 6.18028 68.5986 6.51723 68.5255 6.8661C68.4673 7.22205 68.4447 7.5829 68.4578 7.94333V14.5788C68.4578 17.5548 68.4578 20.5628 68.4578 23.6027V42.2147C68.4578 54.8623 68.4578 67.9555 68.4578 81.3674C68.4554 82.1928 68.742 82.993 69.2679 83.6292C69.7938 84.2653 70.5259 84.6973 71.337 84.8501C71.7448 84.9106 72.1575 84.9314 72.5693 84.9121H105.473H141.947H174.941H180.679C180.99 84.9222 181.301 84.9081 181.61 84.8698C182.363 84.7654 183.063 84.421 183.605 83.8876C184.147 83.3542 184.502 82.6603 184.619 81.9089C184.654 81.6085 184.666 81.3059 184.655 81.0036C184.655 80.6991 184.655 80.3973 184.655 80.0928V78.2852C184.655 73.4893 184.655 68.8899 184.655 64.487C184.655 46.91 184.675 32.6831 184.681 22.8498C184.681 17.9374 184.681 14.1078 184.695 11.5304C184.695 10.2388 184.695 9.25181 184.695 8.58629C184.695 7.92078 184.695 7.5852 184.695 7.5852C184.695 7.5852 184.695 7.9236 184.695 8.58629C184.695 9.24899 184.695 10.2388 184.695 11.5304C184.695 14.1191 184.695 17.9374 184.695 22.8498C184.695 32.6831 184.712 46.91 184.723 64.487C184.723 68.8824 184.723 73.4818 184.723 78.2852C184.723 78.8858 184.723 79.4865 184.723 80.0928V81.0036C184.732 81.3116 184.719 81.6198 184.684 81.9258C184.595 82.5515 184.347 83.144 183.964 83.6466C183.581 84.1492 183.075 84.5452 182.495 84.7965C182.202 84.9203 181.894 85.0065 181.579 85.0531C181.265 85.092 180.948 85.1071 180.631 85.0983H174.952H141.958H105.484H72.575C72.1537 85.1173 71.7316 85.0955 71.3144 85.0334C70.4657 84.8734 69.6997 84.4216 69.1491 83.7562C68.5985 83.0907 68.2981 82.2537 68.2999 81.39C68.2999 67.9781 68.2999 54.8821 68.2999 42.2372C68.2999 35.9148 68.2999 29.7108 68.2999 23.6253V7.97154C68.2878 7.60154 68.3123 7.23125 68.3732 6.8661C68.4493 6.50262 68.5756 6.15147 68.7483 5.8227C69.1082 5.171 69.6527 4.64022 70.3134 4.29709C70.6412 4.12841 70.9932 4.01141 71.3567 3.95023C71.716 3.89695 72.0795 3.87713 72.4424 3.89101H85.1014H101.119H129.883L171.52 3.91639H178.054H180.671C181.048 3.90363 181.426 3.92819 181.799 3.98971C182.137 4.05757 182.464 4.17343 182.769 4.33375C183.207 4.56182 183.594 4.87749 183.906 5.26118C184.217 5.64488 184.446 6.08843 184.579 6.56436C184.621 6.70371 184.651 6.84609 184.67 6.99018C184.689 7.09354 184.7 7.19817 184.703 7.3032C184.718 7.49778 184.718 7.5852 184.718 7.5852Z" fill="#263238"/>
<path d="M178.872 41.3887C179.485 41.3887 180.085 41.5706 180.595 41.9115C181.105 42.2523 181.503 42.7368 181.737 43.3036C181.972 43.8704 182.034 44.4941 181.914 45.0958C181.794 45.6976 181.499 46.2503 181.065 46.6841C180.631 47.1179 180.078 47.4134 179.477 47.533C178.875 47.6527 178.251 47.5913 177.684 47.3565C177.118 47.1217 176.633 46.7242 176.292 46.214C175.951 45.7039 175.77 45.1042 175.77 44.4907C175.77 43.668 176.096 42.879 176.678 42.2972C177.26 41.7155 178.049 41.3887 178.872 41.3887Z" fill="#455A64"/>
<path d="M74.5283 36.1946V52.7564C74.5287 52.9081 74.4991 53.0584 74.4413 53.1987C74.3835 53.3389 74.2986 53.4664 74.1915 53.5738C74.0844 53.6812 73.9571 53.7664 73.817 53.8245C73.6769 53.8827 73.5266 53.9126 73.3749 53.9126C73.2231 53.9126 73.0728 53.8827 72.9325 53.8246C72.7922 53.7665 72.6648 53.6813 72.5574 53.574C72.45 53.4666 72.3649 53.3391 72.3068 53.1989C72.2487 53.0586 72.2188 52.9082 72.2188 52.7564V36.2031C72.2188 35.8964 72.3406 35.6023 72.5574 35.3855C72.7742 35.1687 73.0683 35.0469 73.3749 35.0469C73.6799 35.0469 73.9724 35.1676 74.1885 35.3827C74.4047 35.5978 74.5268 35.8897 74.5283 36.1946Z" fill="#455A64"/>
<path d="M173.834 6.5918H76.6797V82.5454H173.834V6.5918Z" fill="#EBEBEB"/>
<path d="M139.32 61.4211L146.833 74.6609L165.304 74.3874L164.257 60.0195L139.32 61.4211Z" fill="#E0E0E0"/>
<path d="M114.904 16.7098L112.191 37.6369L117.795 38.9736L128.75 37.8851L126.74 15.0234L114.904 16.7098Z" fill="#E0E0E0"/>
<path d="M97.8869 59.5409H84.9375V43.9492L99.0093 44.0902L97.8869 59.5409Z" fill="#F5F5F5"/>
<path d="M151.195 60.0205C151.195 59.5778 153.477 44.0904 153.477 44.0904C153.477 44.0904 162.405 41.6455 162.439 41.9952C162.472 42.3448 164.215 59.6088 164.215 59.6088L151.195 60.0205Z" fill="#F5F5F5"/>
<path d="M86.4258 20.3553C86.4512 20.7332 92.61 33.1185 92.61 33.1185L99.7418 31.2292V16.9797L92.3872 16.8105L86.4258 20.3553Z" fill="#E0E0E0"/>
<path d="M129.979 46.1953H120.117V50.8483H129.979V46.1953Z" fill="#E0E0E0"/>
<path d="M130.027 52.3926L120.095 52.8945L119.59 62.3246L130.932 61.4222L130.027 52.3926Z" fill="#E0E0E0"/>
<path d="M169.809 34.9058L168.43 15.7637H173.81L173.836 34.5251L169.809 34.9058Z" fill="#E0E0E0"/>
<path d="M147.773 12.627L150.015 36.4812L161.778 35.4266L159.725 15.0803L150.413 12.627H147.773Z" fill="#E0E0E0"/>
<path d="M93.7281 16.8945L76.7461 16.6379L76.763 15.5099L92.8088 15.7524L94.6615 6.60156L95.7697 6.82434L93.7281 16.8945Z" fill="white"/>
<path d="M84.8537 35.3216L76.625 16.8676L76.8816 16.752L85.0145 34.986L99.7066 31.0916L99.7771 31.3651L84.8537 35.3216Z" fill="white"/>
<path d="M99.0143 43.8086H76.7617V44.3726H99.0143V43.8086Z" fill="white"/>
<path d="M85.0789 35.1543H84.7969V59.5444H85.0789V35.1543Z" fill="white"/>
<path d="M97.9652 59.418H76.7617V59.7H97.9652V59.418Z" fill="white"/>
<path d="M96.8658 81.6064L76.6719 77.1508L76.9144 76.0482L95.8365 80.2246L99.0823 35.0624L99.5702 16.2785L100.329 6.66797L101.451 6.75539L100.695 16.3518L100.21 35.1188L96.8658 81.6064Z" fill="white"/>
<path d="M100.084 17.5785L93.2148 16.8848L93.3305 15.7624L99.4019 16.3772L100.406 14.234L109.455 16.4279L150.148 11.7891L164.324 15.472L173.793 15.1984L173.827 16.3236L164.197 16.6056L150.066 12.934L109.385 17.57L101.037 15.5481L100.084 17.5785Z" fill="white"/>
<path d="M147.397 60.8963L146.277 60.7497L149.447 36.4752L147.011 12.6491V6.5918H148.139V12.6209L150.583 36.4893L147.397 60.8963Z" fill="white"/>
<path d="M97.4075 64.2353L97.3398 63.1101L163.855 59.0662L172.907 40.6348L173.919 41.1311L164.58 60.1519L164.253 60.1716L97.4075 64.2353Z" fill="white"/>
<path d="M130.714 62.101L126.462 15.0494L126.23 6.722L126.794 6.70508L127.026 15.0184L131.275 62.0502L130.714 62.101Z" fill="white"/>
<path d="M121.786 82.2441L116.868 62.1601V39.4423L111.332 38.0661L113.735 16.5017L113.512 6.6035L114.64 6.57812L114.865 16.5524L114.863 16.5891L112.562 37.2089L117.996 38.5624V62.0219L122.883 81.9762L121.786 82.2441Z" fill="white"/>
<path d="M117.428 43.9492H99.0078V44.2312H117.428V43.9492Z" fill="white"/>
<path d="M99.6662 34.964L99.6094 35.2402L111.912 37.7723L111.969 37.4961L99.6662 34.964Z" fill="white"/>
<path d="M117.4 53.4268L113.023 52.4596V44.0898H113.305V52.234L117.462 53.1505L117.4 53.4268Z" fill="white"/>
<path d="M110.565 82.2321L108.106 74.3389H96.8516V73.2109H108.935L111.642 81.8965L110.565 82.2321Z" fill="white"/>
<path d="M146.751 74.8038L139.199 61.4878L139.445 61.3496L146.915 74.519L173.772 74.1185L173.778 74.4005L146.751 74.8038Z" fill="white"/>
<path d="M159.966 74.6621H159.684V82.2648H159.966V74.6621Z" fill="white"/>
<path d="M165.165 74.3989L164.118 60.031L158.727 6.60632L159.009 6.57812L164.4 60.0056L165.447 74.3763L165.165 74.3989Z" fill="white"/>
<path d="M173.824 34.3786L117.418 38.8574L117.44 39.1385L173.846 34.6597L173.824 34.3786Z" fill="white"/>
<path d="M168.706 16.2269L168.145 16.2773L169.82 34.9355L170.381 34.8851L168.706 16.2269Z" fill="white"/>
<path d="M169.35 26.7087L161.086 28.7539L161.154 29.0276L169.418 26.9825L169.35 26.7087Z" fill="white"/>
<path d="M165.718 27.6494L164.255 19.353L160.129 18.9159L160.157 18.6367L164.494 19.0964L165.994 27.5986L165.718 27.6494Z" fill="white"/>
<path d="M137.785 14.0612L137.223 14.1094L139.181 36.9577L139.743 36.9095L137.785 14.0612Z" fill="white"/>
<path d="M148.741 26.5546L138.746 28.7539L138.807 29.0293L148.801 26.83L148.741 26.5546Z" fill="white"/>
<path d="M146.558 74.6281L145.531 82.5879L146.091 82.66L147.117 74.7003L146.558 74.6281Z" fill="white"/>
<path d="M100.13 44.5684L99.0078 62.0748L116.506 61.2232V54.3537L111.923 53.3413V45.3213L100.13 44.5684Z" fill="#E0E0E0"/>
<path d="M95.3117 48.8338C95.3121 48.2226 95.1715 47.6195 94.9009 47.0715C94.6304 46.5235 94.2371 46.0452 93.7517 45.6738C93.2663 45.3024 92.7018 45.0479 92.1021 44.9301C91.5023 44.8122 90.8835 44.8342 90.2937 44.9944C89.7038 45.1545 89.1589 45.4485 88.7011 45.8535C88.2433 46.2584 87.885 46.7635 87.6541 47.3294C87.4232 47.8952 87.3258 48.5068 87.3696 49.1164C87.4133 49.726 87.5971 50.3173 87.9065 50.8444V50.8585C88.0587 51.1151 88.2477 51.2984 88.4423 51.5692L90.749 54.626C90.816 54.7148 90.9028 54.7868 91.0023 54.8364C91.1019 54.886 91.2116 54.9118 91.3229 54.9118C91.4341 54.9118 91.5438 54.886 91.6434 54.8364C91.743 54.7868 91.8297 54.7148 91.8967 54.626L94.1527 51.6199C94.3591 51.3759 94.5521 51.1207 94.7308 50.8557C95.1038 50.2467 95.3045 49.5479 95.3117 48.8338ZM91.3356 50.5652C90.989 50.5658 90.65 50.4635 90.3616 50.2713C90.0732 50.0791 89.8483 49.8056 89.7154 49.4855C89.5825 49.1654 89.5476 48.813 89.615 48.4731C89.6825 48.1331 89.8494 47.8208 90.0944 47.5757C90.3395 47.3307 90.6518 47.1638 90.9918 47.0963C91.3318 47.0289 91.6841 47.0638 92.0042 47.1967C92.3243 47.3296 92.5978 47.5545 92.79 47.8429C92.9822 48.1313 93.0845 48.4703 93.084 48.8169C93.0832 49.2803 92.8988 49.7246 92.571 50.0523C92.2433 50.3801 91.799 50.5645 91.3356 50.5652Z" fill="url(#paint0_linear_1123_14702)"/>
<path d="M132.73 34.8433C132.731 34.2316 132.592 33.6277 132.322 33.0788C132.052 32.5298 131.659 32.0506 131.173 31.6783C130.688 31.3061 130.123 31.0509 129.523 30.9325C128.922 30.8142 128.303 30.8359 127.713 30.9961C127.122 31.1562 126.577 31.4504 126.119 31.8558C125.66 32.2612 125.302 32.7669 125.071 33.3334C124.84 33.8999 124.743 34.5121 124.788 35.1222C124.832 35.7324 125.017 36.324 125.327 36.8512V36.8681C125.48 37.1247 125.671 37.308 125.866 37.5787L128.178 40.6299C128.245 40.7187 128.332 40.7907 128.432 40.8403C128.531 40.8899 128.641 40.9157 128.752 40.9157C128.863 40.9157 128.973 40.8899 129.073 40.8403C129.172 40.7907 129.259 40.7187 129.326 40.6299L131.602 37.6267C131.804 37.3828 131.992 37.1276 132.166 36.8624C132.532 36.2525 132.727 35.5549 132.73 34.8433ZM128.754 36.5748C128.407 36.5748 128.069 36.4721 127.781 36.2797C127.493 36.0872 127.268 35.8137 127.136 35.4938C127.003 35.1738 126.968 34.8216 127.036 34.4819C127.104 34.1422 127.27 33.8302 127.515 33.5853C127.76 33.3404 128.072 33.1736 128.412 33.106C128.752 33.0385 129.104 33.0731 129.424 33.2057C129.744 33.3382 130.017 33.5627 130.21 33.8507C130.402 34.1387 130.505 34.4772 130.505 34.8236C130.505 35.0538 130.459 35.2817 130.371 35.4944C130.283 35.7071 130.154 35.9002 129.991 36.0629C129.828 36.2255 129.635 36.3545 129.422 36.4423C129.209 36.5301 128.981 36.5752 128.751 36.5748H128.754Z" fill="url(#paint1_linear_1123_14702)"/>
<path d="M116.219 69.2865C116.221 68.8668 116.125 68.4525 115.94 68.0757C115.755 67.699 115.486 67.3701 115.153 67.1145C114.82 66.859 114.433 66.6837 114.021 66.6024C113.609 66.5211 113.184 66.536 112.779 66.6458C112.374 66.7556 112 66.9574 111.685 67.2356C111.371 67.5137 111.125 67.8607 110.967 68.2494C110.809 68.6381 110.742 69.0581 110.773 69.4767C110.804 69.8952 110.93 70.3011 111.143 70.6626C111.248 70.8375 111.38 70.9644 111.513 71.1477L113.095 73.2458C113.141 73.306 113.2 73.3548 113.268 73.3884C113.336 73.422 113.411 73.4394 113.487 73.4394C113.563 73.4394 113.638 73.422 113.706 73.3884C113.773 73.3548 113.833 73.306 113.879 73.2458L115.436 71.1843C115.577 71.0166 115.71 70.8415 115.833 70.6598C116.082 70.2447 116.216 69.7705 116.219 69.2865ZM113.493 70.4737C113.255 70.4743 113.022 70.4043 112.824 70.2726C112.626 70.1409 112.472 69.9535 112.381 69.7341C112.289 69.5146 112.265 69.273 112.311 69.0398C112.357 68.8065 112.471 68.5922 112.639 68.4239C112.807 68.2556 113.021 68.1409 113.254 68.0944C113.487 68.0478 113.729 68.0714 113.949 68.1622C114.168 68.2531 114.356 68.4071 114.488 68.6047C114.621 68.8023 114.691 69.0347 114.691 69.2724C114.691 69.43 114.661 69.5862 114.601 69.7319C114.541 69.8776 114.452 70.0101 114.341 70.1217C114.23 70.2333 114.097 70.3218 113.952 70.3822C113.806 70.4426 113.65 70.4737 113.493 70.4737Z" fill="url(#paint2_linear_1123_14702)"/>
<path d="M165.687 19.7895C165.684 19.1102 165.428 18.4565 164.968 17.9562C164.508 17.456 163.879 17.1453 163.202 17.085C162.525 17.0247 161.851 17.2191 161.31 17.6301C160.769 18.0411 160.401 18.6392 160.278 19.3073C160.162 19.9466 160.28 20.6065 160.611 21.1657C160.715 21.3405 160.848 21.4674 160.98 21.6535L162.562 23.7488C162.608 23.809 162.668 23.8578 162.736 23.8914C162.804 23.925 162.878 23.9424 162.954 23.9424C163.03 23.9424 163.105 23.925 163.173 23.8914C163.241 23.8578 163.3 23.809 163.346 23.7488L164.903 21.6874C165.045 21.5196 165.177 21.3446 165.3 21.1628C165.549 20.7477 165.683 20.2736 165.687 19.7895ZM162.96 20.9767C162.722 20.9773 162.489 20.9072 162.291 20.7754C162.093 20.6436 161.939 20.4561 161.848 20.2364C161.756 20.0168 161.732 19.775 161.779 19.5417C161.825 19.3084 161.939 19.0941 162.108 18.9259C162.276 18.7578 162.49 18.6433 162.723 18.597C162.957 18.5508 163.198 18.5748 163.418 18.6661C163.638 18.7573 163.825 18.9118 163.957 19.1097C164.089 19.3077 164.159 19.5404 164.158 19.7782C164.158 20.0961 164.032 20.4009 163.807 20.6257C163.583 20.8504 163.278 20.9767 162.96 20.9767Z" fill="url(#paint3_linear_1123_14702)"/>
<path d="M107.632 21.087C107.633 20.3438 107.462 19.6105 107.133 18.944C106.805 18.2775 106.327 17.6957 105.737 17.2439C105.147 16.7921 104.461 16.4825 103.731 16.339C103.002 16.1955 102.25 16.2221 101.533 16.4167C100.816 16.6113 100.153 16.9686 99.5962 17.4609C99.0395 17.9532 98.6039 18.5673 98.3231 19.2553C98.0423 19.9434 97.924 20.6869 97.9773 21.4281C98.0306 22.1693 98.2541 22.8883 98.6304 23.5291L98.6445 23.546C98.8278 23.859 99.0618 24.0818 99.2959 24.4089L102.102 28.1285C102.183 28.236 102.289 28.3232 102.409 28.3832C102.53 28.4432 102.663 28.4744 102.798 28.4744C102.933 28.4744 103.066 28.4432 103.187 28.3832C103.308 28.3232 103.413 28.236 103.495 28.1285L106.256 24.4625C106.507 24.1658 106.742 23.8551 106.958 23.5319C107.396 22.7916 107.629 21.9475 107.632 21.087ZM102.795 23.1907C102.374 23.1907 101.963 23.0657 101.612 22.8317C101.262 22.5976 100.989 22.2649 100.828 21.8757C100.667 21.4865 100.625 21.0583 100.708 20.6452C100.79 20.2321 100.993 19.8527 101.291 19.5551C101.589 19.2574 101.969 19.0549 102.382 18.9731C102.795 18.8912 103.223 18.9338 103.612 19.0954C104.001 19.2569 104.334 19.5303 104.567 19.8808C104.801 20.2313 104.925 20.6432 104.925 21.0644C104.924 21.6286 104.699 22.1694 104.3 22.5681C103.901 22.9667 103.36 23.1907 102.795 23.1907Z" fill="url(#paint4_linear_1123_14702)"/>
<path d="M81.6871 98.3184C81.6871 98.3184 75.3365 91.0288 72.9452 83.7363C70.5538 76.4438 71.6931 77.2898 71.6931 77.2898C71.6931 77.2898 74.9192 84.3651 77.3697 87.7858C79.8203 91.2064 84.1828 96.2288 84.1828 96.2288L81.6871 98.3184Z" fill="#455A64"/>
<path d="M82.9382 78.418C82.8961 78.3425 82.8288 78.2842 82.7481 78.2531C82.6674 78.2221 82.5784 78.2204 82.4965 78.2482C82.4147 78.276 82.3452 78.3317 82.3002 78.4055C82.2551 78.4793 82.2374 78.5666 82.2501 78.6521C82.6364 81.2154 83.4711 87.2248 83.4373 91.1221C83.395 96.1981 83.4373 98.1439 83.4373 98.1439H86.074C86.074 98.1439 85.6059 87.6761 85.0109 84.4838C84.5963 82.2476 83.708 79.7632 82.9382 78.418Z" fill="#455A64"/>
<path d="M84.3711 97.2916C85.4773 94.7888 86.2089 92.1369 86.5425 89.421C86.7596 87.557 86.3733 85.0359 85.7952 81.6745C85.5731 80.4452 85.4617 79.1984 85.4624 77.9493C85.4663 77.8109 85.5157 77.6777 85.6029 77.5703C85.6902 77.4628 85.8104 77.3872 85.9451 77.3551C86.0797 77.3229 86.2211 77.3361 86.3475 77.3926C86.4739 77.449 86.5781 77.5456 86.644 77.6673C86.9627 78.2313 87.882 80.1742 88.116 81.3925C88.7562 84.7116 89.4781 86.3697 88.9254 89.5197C88.3727 92.6696 86.331 97.52 86.331 97.52L84.3711 97.2916Z" fill="#455A64"/>
<path d="M86.7617 97.5058C86.7617 97.5058 93.7158 82.5598 94.198 80.3405C94.6802 78.1211 96.3187 73.0085 96.5132 73.2905C96.7078 73.5725 96.9955 76.2797 95.7406 79.3648C94.4857 82.4498 89.1361 97.9485 89.1361 97.9485H86.7617" fill="#455A64"/>
<path d="M83.6112 96.8386C83.5429 96.7986 83.4778 96.7534 83.4166 96.7032C83.2925 96.6102 83.1064 96.4776 82.878 96.2915C82.4155 95.9277 81.7669 95.375 81.0084 94.6418C79.0497 92.7103 77.3535 90.5296 75.9634 88.1559C74.577 85.7884 73.423 83.2924 72.5174 80.7026C72.1677 79.71 71.9139 78.8978 71.7475 78.3338C71.6629 78.0518 71.6037 77.8319 71.5614 77.6824C71.5384 77.6066 71.5205 77.5294 71.5078 77.4512C71.542 77.523 71.5703 77.5975 71.5924 77.6739C71.6432 77.8319 71.7137 78.0462 71.8039 78.3169C71.9844 78.8809 72.2551 79.6818 72.6161 80.6688C73.5476 83.2418 74.7104 85.7251 76.0903 88.0882C77.4772 90.4498 79.154 92.6287 81.0817 94.5741C81.8262 95.313 82.4635 95.877 82.9147 96.2661C83.1374 96.4607 83.3179 96.5989 83.4364 96.7004C83.4989 96.7408 83.5575 96.787 83.6112 96.8386Z" fill="#263238"/>
<path d="M84.3721 89.6665C84.3402 89.5217 84.3195 89.3746 84.31 89.2266C84.2762 88.9164 84.2339 88.5132 84.1831 88.0281C84.0732 87.0186 83.9011 85.6227 83.653 84.0801C83.4048 82.5376 83.1341 81.1699 82.9198 80.1745C82.8183 79.6979 82.7337 79.3002 82.666 78.9957C82.6266 78.8528 82.6011 78.7064 82.5898 78.5586C82.6446 78.6961 82.6889 78.8375 82.7224 78.9816C82.8013 79.2636 82.9057 79.6556 83.0241 80.1519C83.2638 81.1417 83.5543 82.5207 83.7996 84.0548C84.045 85.5888 84.2029 86.9932 84.2875 88.0027C84.3298 88.5103 84.3552 88.9221 84.3693 89.2069C84.3847 89.3597 84.3856 89.5136 84.3721 89.6665Z" fill="#263238"/>
<path d="M86.0012 77.5352C86.0349 77.5961 86.0623 77.6604 86.083 77.7269L86.2917 78.2909C86.3847 78.5306 86.4891 78.8267 86.5906 79.1792C86.6921 79.5317 86.8275 79.9265 86.929 80.3777C86.9826 80.6005 87.0418 80.8345 87.101 81.0799C87.1602 81.3252 87.1997 81.5847 87.2533 81.8497C87.3661 82.3799 87.4366 82.9552 87.5353 83.5587C87.685 84.8737 87.7406 86.1978 87.7017 87.5207C87.6468 88.8458 87.4969 90.1651 87.2533 91.4687C87.1264 92.0666 87.0136 92.6362 86.8641 93.1607C86.7908 93.4202 86.7316 93.6768 86.6555 93.9165C86.5793 94.1562 86.5032 94.3846 86.4327 94.6046C86.3001 95.0473 86.1507 95.4308 86.0097 95.7748C85.8687 96.1189 85.7587 96.4065 85.6487 96.6406L85.4006 97.1792C85.376 97.2439 85.3438 97.3054 85.3047 97.3625C85.3223 97.296 85.3449 97.231 85.3724 97.1679L85.5951 96.618C85.6967 96.3812 85.8151 96.0907 85.9335 95.7438C86.052 95.397 86.2155 95.0135 86.334 94.5735L86.5455 93.8826C86.6188 93.6429 86.6752 93.3891 86.7429 93.1297C86.8895 92.608 86.9939 92.0412 87.1179 91.4377C87.3517 90.1424 87.4977 88.8329 87.555 87.5179C87.5921 86.1999 87.5403 84.8809 87.3999 83.5699C87.321 82.9693 87.2533 82.394 87.1461 81.8779C87.0954 81.6129 87.0587 81.3534 87.0023 81.1109L86.8416 80.4087C86.7457 79.9575 86.6216 79.5627 86.5257 79.2102C86.4299 78.8577 86.334 78.5588 86.2437 78.3135C86.1535 78.0681 86.1056 77.8933 86.0604 77.7495C86.0325 77.6806 86.0126 77.6086 86.0012 77.5352Z" fill="#263238"/>
<path d="M96.425 73.6016C96.4262 73.6241 96.4262 73.6467 96.425 73.6692C96.425 73.7228 96.4053 73.7849 96.394 73.8638C96.363 74.033 96.3235 74.2868 96.2558 74.6083C96.1204 75.2512 95.8977 76.1762 95.5508 77.2986C95.2039 78.4209 94.7274 79.7379 94.1634 81.1845C93.5994 82.6312 92.9508 84.2075 92.3332 85.8854C91.7156 87.5633 91.2249 89.1989 90.7709 90.6794C90.3169 92.1599 89.8939 93.4994 89.4794 94.5992C89.1615 95.4706 88.7953 96.3235 88.3824 97.1541C88.2414 97.4502 88.1004 97.6702 88.0299 97.8224L87.9312 97.9945C87.9208 98.0144 87.9085 98.0333 87.8945 98.0509C87.8945 98.0509 87.8945 98.0283 87.9199 97.986L88.0017 97.8084C88.0778 97.6533 88.1963 97.4277 88.3316 97.1287C88.6136 96.5365 88.9887 95.6652 89.3835 94.5625C89.7783 93.4599 90.1956 92.1261 90.6384 90.6399C91.0811 89.1538 91.5662 87.5126 92.195 85.8319C92.8239 84.1511 93.4697 82.5748 94.0365 81.1309C94.6033 79.6871 95.0911 78.3786 95.4465 77.2647C95.8018 76.1508 96.0443 75.2287 96.1966 74.5914C96.2727 74.2727 96.3207 74.0274 96.3601 73.8554C96.3799 73.7792 96.394 73.7144 96.4053 73.6636C96.4086 73.642 96.4152 73.6211 96.425 73.6016Z" fill="#263238"/>
<path d="M74.9702 70.2988C74.8738 70.2078 74.7501 70.1512 74.6182 70.1378C74.4864 70.1245 74.3538 70.1551 74.2412 70.2249C74.1285 70.2948 74.0422 70.3999 73.9955 70.5239C73.9488 70.648 73.9445 70.784 73.9832 70.9107C74.2207 71.6825 74.5129 72.4364 74.8574 73.1667C75.8134 75.1971 78.6221 82.4896 79.9334 86.494C81.2447 90.4984 83.0946 97.9601 83.0946 97.9601L85.9146 97.5061C85.9146 97.5061 83.3456 85.2307 80.8386 80.8089C78.8166 77.2557 76.8004 72.1177 74.9702 70.2988Z" fill="#455A64"/>
<path d="M80.707 88.9902C80.7651 89.0985 80.8132 89.2117 80.8509 89.3286C80.9355 89.5486 81.0483 89.8701 81.1752 90.2705C81.4346 91.0714 81.7391 92.1909 82.0691 93.4317C82.399 94.6725 82.6528 95.8062 82.8361 96.6268L83.0476 97.5997C83.0755 97.7181 83.0915 97.839 83.0956 97.9606C83.044 97.8498 83.0052 97.7334 82.9799 97.6138C82.9123 97.3571 82.8248 97.0357 82.7233 96.6521C82.509 95.8062 82.227 94.6979 81.914 93.4684C81.601 92.2389 81.2964 91.1081 81.068 90.3015L80.786 89.3456C80.7462 89.2305 80.7197 89.1113 80.707 88.9902Z" fill="#263238"/>
<path d="M84.5061 97.7347C84.497 97.7102 84.4913 97.6846 84.4892 97.6586C84.4892 97.5994 84.4694 97.526 84.4582 97.4386C84.4271 97.244 84.4018 96.9536 84.3425 96.5926C84.241 95.8538 84.0605 94.7935 83.7532 93.4906C83.3949 91.9729 82.9563 90.4752 82.439 89.004C81.875 87.3402 81.1418 85.5439 80.324 83.6827C78.6715 79.966 77.0218 76.6722 75.9361 74.2329C75.3891 73.0175 74.9632 72.0249 74.6841 71.334C74.5431 70.9899 74.4416 70.7192 74.3682 70.5359L74.2921 70.3272C74.2815 70.3038 74.274 70.2792 74.2695 70.2539C74.2695 70.2539 74.2695 70.2737 74.3062 70.3216L74.3964 70.5246L74.7376 71.3114C75.045 71.9967 75.4821 72.9808 76.0461 74.1878C77.1544 76.613 78.8182 79.8983 80.4735 83.6207C81.2941 85.4847 82.0132 87.2866 82.5829 88.9561C83.0959 90.435 83.5261 91.9413 83.8716 93.4681C84.1035 94.4924 84.2842 95.5277 84.413 96.5701C84.4638 96.9395 84.4807 97.2299 84.5005 97.416C84.5005 97.5091 84.5005 97.5824 84.5202 97.6388C84.5211 97.6714 84.5163 97.7038 84.5061 97.7347Z" fill="#263238"/>
<path d="M85.9175 97.5074C85.8753 97.3519 85.8442 97.1936 85.8245 97.0336C85.7681 96.7065 85.6948 96.2694 85.6045 95.7449C85.4128 94.6564 85.1167 93.159 84.6908 91.5149C84.265 89.8709 83.7969 88.4327 83.4331 87.3893L82.9932 86.1541C82.932 86.0058 82.882 85.8531 82.8438 85.6973C82.9239 85.8368 82.9918 85.9831 83.0468 86.1344C83.168 86.4164 83.3288 86.8337 83.5318 87.3526C84.0391 88.7037 84.474 90.0809 84.8347 91.4782C85.1972 92.8726 85.489 94.2844 85.7089 95.7082C85.7878 96.2553 85.8499 96.698 85.8809 97.0082C85.9083 97.1732 85.9206 97.3402 85.9175 97.5074Z" fill="#263238"/>
<path d="M91.6772 97.1016H80.7188V110.454H91.6772V97.1016Z" fill="url(#paint5_linear_1123_14702)"/>
<g opacity="0.3">
<path d="M91.6772 97.1016H80.7188V110.454H91.6772V97.1016Z" fill="black"/>
</g>
<path d="M88.1804 97.1016H78.457V110.454H88.1804V97.1016Z" fill="url(#paint6_linear_1123_14702)"/>
<path d="M130.416 68.9727C130.416 68.9727 130.416 78.8877 130.292 79.4461C130.168 80.0045 129.878 82.9767 130.602 84.3557C131.327 85.7347 133.05 88.5293 134.55 88.9184C136.051 89.3076 136.899 88.9184 136.899 88.9184C136.899 88.9184 137.822 82.4607 137.52 80.6079C137.218 78.7552 136.533 74.7113 136.533 74.7113L131.885 69.438L130.416 68.9727Z" fill="#FFA8A7"/>
<path d="M142.098 55.3647L146.477 54.0195L154.759 53.4668L159.771 54.4171L154.328 63.1394L146.477 62.5472L142.098 55.3647Z" fill="#FFA8A7"/>
<path d="M159.434 37.3613C159.48 39.4583 159.082 41.5414 158.265 43.4734C157.449 45.4055 156.232 47.1427 154.696 48.5708C153.989 46.5272 153.283 44.4818 152.578 42.4345" fill="#263238"/>
<path d="M143.47 25.1583C145.289 24.1656 147.486 24.0303 149.516 24.4307C151.547 24.8311 153.442 25.7561 155.235 26.7939C156.239 27.3748 157.243 28.0149 157.968 28.9258C159.287 30.5867 160.59 33.3137 160.72 35.4315C160.822 37.1432 160.156 41.4296 159.443 42.9862C158.777 44.4131 155.669 45.4988 154.135 45.8513L140.066 29.4785C140.319 28.5687 140.75 27.7183 141.334 26.9766C141.919 26.2349 142.645 25.6168 143.47 25.1583Z" fill="#263238"/>
<path d="M141.038 27.375L144.422 26.7715C142.578 31.165 142.079 41.2098 141.021 45.8572C139.778 44.0524 136.89 38.5562 137.045 36.3679C137.2 34.1796 137.028 26.9943 141.038 27.375Z" fill="#263238"/>
<path d="M157.043 34.6822C156.982 33.45 156.529 32.2696 155.748 31.3144C154.967 30.3591 153.901 29.6794 152.706 29.375L144.934 27.401C141.575 27.0401 139.33 31.1713 139.11 34.544C138.868 38.289 138.716 42.2398 139.153 45.0372C140.032 50.6575 144.339 51.385 144.339 51.385C144.339 51.385 144.339 54.0584 144.339 55.6996L151.281 61.2014L155.32 54.8875L157.057 34.7612C157.062 34.654 157.051 34.8091 157.043 34.6822Z" fill="#FFA8A7"/>
<path d="M140.801 38.776C140.798 38.9641 140.87 39.1457 140.999 39.2822C141.129 39.4186 141.307 39.499 141.495 39.5064C141.586 39.5137 141.678 39.5026 141.766 39.4738C141.853 39.4449 141.934 39.399 142.003 39.3386C142.072 39.2782 142.129 39.2045 142.17 39.122C142.21 39.0394 142.234 38.9496 142.239 38.8578C142.241 38.6696 142.17 38.488 142.041 38.3516C141.911 38.2152 141.733 38.1347 141.545 38.1274C141.454 38.1197 141.361 38.1305 141.274 38.1592C141.186 38.1879 141.105 38.2338 141.036 38.2943C140.967 38.3548 140.91 38.4286 140.87 38.5113C140.829 38.594 140.806 38.6841 140.801 38.776Z" fill="#263238"/>
<path d="M139.952 36.7315C140.042 36.8274 140.589 36.4241 141.362 36.427C142.135 36.4298 142.704 36.8218 142.789 36.7259C142.831 36.6836 142.741 36.5144 142.493 36.3339C142.158 36.1002 141.759 35.9761 141.351 35.9786C140.946 35.9751 140.551 36.1005 140.223 36.3367C139.992 36.52 139.91 36.6808 139.952 36.7315Z" fill="#263238"/>
<path d="M147.563 38.7749C147.561 38.9599 147.63 39.1385 147.757 39.2735C147.884 39.4085 148.057 39.4895 148.242 39.4996C148.334 39.5073 148.426 39.4965 148.514 39.4679C148.601 39.4392 148.682 39.3933 148.752 39.3328C148.821 39.2723 148.878 39.1985 148.918 39.1157C148.958 39.033 148.982 38.943 148.987 38.851C148.99 38.6632 148.919 38.4816 148.79 38.3451C148.661 38.2086 148.483 38.128 148.296 38.1207C148.204 38.1146 148.113 38.1267 148.026 38.1565C147.94 38.1862 147.86 38.2329 147.792 38.2938C147.723 38.3547 147.668 38.4287 147.629 38.5113C147.589 38.5939 147.567 38.6835 147.563 38.7749Z" fill="#263238"/>
<path d="M147.319 36.7315C147.41 36.8274 147.957 36.4241 148.729 36.427C149.502 36.4298 150.074 36.8218 150.156 36.7259C150.198 36.6836 150.108 36.5144 149.86 36.3339C149.525 36.1002 149.126 35.976 148.718 35.9786C148.314 35.9755 147.919 36.1009 147.59 36.3367C147.359 36.52 147.277 36.6807 147.319 36.7315Z" fill="#263238"/>
<path d="M144.9 42.8252C144.9 42.7801 144.421 42.6955 143.64 42.5939C143.442 42.5742 143.253 42.5319 143.222 42.3994C143.205 42.194 143.251 41.9882 143.355 41.81L143.944 40.3041C144.762 38.1581 145.354 36.3956 145.27 36.3561C145.185 36.3167 144.449 38.0481 143.631 40.1829L143.067 41.7C142.944 41.9387 142.907 42.2127 142.963 42.4755C142.993 42.5441 143.037 42.6051 143.094 42.654C143.151 42.7028 143.218 42.7382 143.29 42.7575C143.399 42.7881 143.512 42.8042 143.626 42.8054C144.409 42.8647 144.897 42.8675 144.9 42.8252Z" fill="#263238"/>
<path d="M151.797 49.3711C151.797 49.3711 149.967 53.2317 144.344 52.693V51.3733C146.966 51.4087 149.546 50.7156 151.797 49.3711Z" fill="#F28F8F"/>
<path d="M147.567 33.9282C147.643 34.1397 148.413 34.041 149.326 34.1538C150.24 34.2666 150.97 34.5148 151.092 34.3258C151.148 34.2356 151.018 34.0438 150.722 33.8323C150.329 33.5777 149.88 33.4202 149.414 33.3727C148.949 33.3138 148.477 33.368 148.038 33.5306C147.702 33.6632 147.533 33.8295 147.567 33.9282Z" fill="#263238"/>
<path d="M140.207 34.3604C140.342 34.5381 140.878 34.3604 141.521 34.3604C142.164 34.3604 142.708 34.4817 142.833 34.2956C142.889 34.2081 142.801 34.0305 142.565 33.8641C142.246 33.6625 141.875 33.5605 141.498 33.5711C141.121 33.5816 140.756 33.7043 140.45 33.9233C140.221 34.0925 140.148 34.273 140.207 34.3604Z" fill="#263238"/>
<path d="M140.626 29.3967C140.97 28.5507 141.898 28.0431 142.808 27.9867C143.727 27.9852 144.626 28.2475 145.4 28.7425C148.747 30.677 150.476 35.3497 153.775 37.3519C154.59 37.8454 155.648 37.3942 156.339 38.0456C157.03 38.697 157.481 39.7376 157.097 40.609C157.571 40.0208 157.958 39.3674 158.245 38.6688C158.387 38.3181 158.452 37.9411 158.436 37.5632C158.42 37.1852 158.323 36.8151 158.152 36.4777C157.87 35.9814 157.36 35.6035 157.221 35.048C157.1 34.5601 157.292 34.0497 157.272 33.5449C157.215 33.0334 157.038 32.5426 156.756 32.1124C155.462 29.8197 153.679 27.7498 151.384 26.4724C149.887 25.6053 148.182 25.1636 146.452 25.1949C144.715 25.2359 143.051 25.8971 141.759 27.0589C141.018 27.747 140.242 28.4689 140.631 29.3967" fill="#263238"/>
<path d="M156.273 38.7528C156.333 38.5921 159.263 37.5346 159.302 40.6507C159.339 43.6765 156.285 43.0815 156.279 42.9941C156.273 42.9067 156.273 38.7528 156.273 38.7528Z" fill="#FFA8A7"/>
<path d="M157.201 41.8382C157.215 41.8382 157.255 41.8748 157.345 41.9143C157.472 41.9649 157.613 41.9649 157.74 41.9143C158.058 41.7931 158.324 41.2826 158.332 40.7384C158.338 40.478 158.285 40.2195 158.177 39.9826C158.148 39.8884 158.096 39.8028 158.026 39.733C157.956 39.6633 157.871 39.6115 157.776 39.5822C157.715 39.5693 157.652 39.577 157.596 39.6041C157.54 39.6311 157.494 39.676 157.466 39.7317C157.427 39.8163 157.446 39.8755 157.432 39.8811C157.418 39.8868 157.365 39.8303 157.39 39.7063C157.405 39.6307 157.446 39.5628 157.506 39.5145C157.586 39.4538 157.687 39.4256 157.788 39.4356C157.914 39.4575 158.032 39.5116 158.13 39.5927C158.229 39.6737 158.306 39.7789 158.352 39.898C158.484 40.1599 158.55 40.4505 158.543 40.744C158.543 41.3531 158.222 41.9284 157.785 42.0581C157.704 42.0824 157.619 42.0881 157.535 42.075C157.452 42.0618 157.372 42.03 157.303 41.982C157.21 41.9115 157.193 41.8438 157.201 41.8382Z" fill="#F28F8F"/>
<path d="M157.476 37.1963C157.412 37.1687 157.351 37.1347 157.293 37.0948C157.177 37.0215 156.997 36.9228 156.786 36.7733C156.19 36.3353 155.642 35.8363 155.15 35.2843C154.436 34.4566 153.77 33.5895 153.153 32.6871C152.407 31.5861 151.572 30.5486 150.655 29.5851C150.165 29.1044 149.624 28.678 149.042 28.3133C148.495 27.9792 147.91 27.7131 147.299 27.5209C146.265 27.1884 145.177 27.0554 144.093 27.1289C143.361 27.1727 142.638 27.314 141.944 27.5491C141.696 27.6253 141.512 27.707 141.38 27.7578C141.315 27.7866 141.248 27.8092 141.18 27.8255C141.24 27.7898 141.303 27.7587 141.369 27.7324C141.551 27.6422 141.74 27.564 141.933 27.4984C142.627 27.2408 143.354 27.0832 144.093 27.0302C145.19 26.9442 146.294 27.0696 147.344 27.3997C147.966 27.5918 148.561 27.8589 149.118 28.1949C149.709 28.5656 150.258 28.9986 150.756 29.4865C151.68 30.4576 152.518 31.5068 153.261 32.6223C153.872 33.525 154.531 34.3948 155.235 35.2279C155.715 35.7818 156.249 36.2871 156.828 36.7366C157.036 36.8946 157.209 36.9989 157.318 37.0807C157.374 37.1149 157.427 37.1536 157.476 37.1963Z" fill="#455A64"/>
<path d="M157.548 42.3741C157.697 42.3482 157.85 42.3797 157.976 42.4623C158.102 42.5449 158.192 42.6724 158.228 42.8189C158.264 42.9655 158.243 43.1202 158.169 43.2518C158.095 43.3833 157.974 43.4819 157.83 43.5275C157.685 43.5782 157.525 43.5705 157.385 43.506C157.245 43.4415 157.136 43.3251 157.08 43.1815C157.024 43.0379 157.026 42.8781 157.085 42.7359C157.145 42.5937 157.257 42.4802 157.399 42.4192" fill="white"/>
<path d="M157.404 42.4208C157.27 42.5237 157.171 42.6655 157.122 42.8268C157.1 42.9098 157.099 42.997 157.12 43.0803C157.141 43.1636 157.182 43.2403 157.24 43.3034C157.308 43.3826 157.398 43.4401 157.498 43.4685C157.599 43.4969 157.705 43.495 157.805 43.4631C157.904 43.4311 157.992 43.3706 158.057 43.289C158.122 43.2074 158.162 43.1085 158.171 43.0045C158.181 42.92 158.17 42.8343 158.139 42.755C158.108 42.6758 158.058 42.6055 157.993 42.5505C157.861 42.447 157.701 42.3861 157.534 42.3756C157.534 42.3756 157.581 42.3446 157.677 42.3418C157.764 42.3431 157.849 42.362 157.927 42.3974C158.006 42.4328 158.076 42.4839 158.134 42.5475C158.193 42.6112 158.237 42.6861 158.265 42.7676C158.293 42.8491 158.304 42.9355 158.298 43.0214C158.288 43.1514 158.24 43.2756 158.16 43.378C158.079 43.4804 157.97 43.5562 157.845 43.5957C157.721 43.6351 157.588 43.6364 157.463 43.5994C157.338 43.5624 157.227 43.4888 157.144 43.388C157.076 43.3087 157.029 43.213 157.008 43.1103C156.987 43.0075 156.994 42.9011 157.026 42.8015C157.066 42.6706 157.147 42.556 157.257 42.4743C157.35 42.4208 157.401 42.4123 157.404 42.4208Z" fill="#263238"/>
<path d="M156.715 38.0544C156.763 38.8806 156.799 39.7464 156.419 40.488C156.038 41.2297 155.071 41.7232 154.354 41.3115C153.768 40.9787 153.59 40.2258 153.491 39.5574C153.209 37.6314 153.074 35.68 152.77 33.7539L156.715 38.0544Z" fill="#263238"/>
<path d="M141.383 27.9584C141.383 27.9754 141.651 27.9077 142.136 27.8908C142.821 27.8797 143.501 28.0043 144.138 28.2574C144.578 28.428 144.998 28.6445 145.393 28.9031C145.844 29.2077 146.277 29.5381 146.69 29.893C147.642 30.6993 148.494 31.6166 149.228 32.6255C149.614 33.1641 149.956 33.7197 150.322 34.2357C150.672 34.7365 151.08 35.1937 151.538 35.5978C152.321 36.2658 153.179 36.8402 154.095 37.3095C154.871 37.7212 155.505 38.0061 155.965 38.2063L156.481 38.4262C156.54 38.455 156.603 38.4768 156.667 38.4911C156.614 38.4517 156.556 38.4194 156.495 38.3952L155.993 38.1442C155.553 37.9299 154.916 37.6254 154.152 37.2052C153.255 36.7233 152.414 36.1456 151.642 35.4822C151.197 35.0817 150.8 34.6302 150.46 34.137C150.097 33.6294 149.755 33.0739 149.369 32.5268C148.628 31.5056 147.763 30.5802 146.794 29.7717C146.376 29.4161 145.936 29.0865 145.477 28.7847C145.072 28.5243 144.639 28.3096 144.186 28.1446C143.533 27.8961 142.836 27.7875 142.139 27.8259C141.949 27.8359 141.76 27.8614 141.575 27.902C141.509 27.913 141.444 27.932 141.383 27.9584Z" fill="#455A64"/>
<path d="M156.801 36.1848C156.887 36.2559 156.982 36.3165 157.083 36.3653L157.85 36.8164L158.109 36.9631C158.21 37.0231 158.323 37.0606 158.439 37.0731C158.511 37.0801 158.584 37.0633 158.645 37.0251C158.677 37.0015 158.703 36.9715 158.723 36.937C158.742 36.9025 158.754 36.8643 158.758 36.8249C158.75 36.6854 158.7 36.5515 158.614 36.4414C158.332 36.0043 158.05 35.5249 157.726 35.0173L157.604 35.1301C158.198 35.5672 158.925 35.7836 159.66 35.742C159.756 35.7416 159.852 35.7254 159.942 35.6941C159.994 35.6794 160.041 35.6536 160.082 35.6185C160.122 35.5834 160.154 35.5399 160.176 35.4911C160.194 35.4396 160.198 35.3846 160.189 35.331C160.181 35.2774 160.159 35.2268 160.126 35.1837C160.074 35.1157 160.016 35.0525 159.954 34.9947C159.554 34.6081 159.207 34.1711 158.921 33.6947C158.67 33.2456 158.452 32.7792 158.267 32.2988C158.28 32.4389 158.312 32.5765 158.363 32.7077C158.48 33.0705 158.632 33.421 158.817 33.7539C159.095 34.2505 159.44 34.706 159.844 35.1075C159.956 35.2147 160.069 35.336 160.024 35.4318C159.979 35.5277 159.818 35.5757 159.657 35.5757C158.961 35.6094 158.273 35.4044 157.709 34.9947L157.348 34.7297L157.59 35.1075L158.498 36.5175C158.566 36.5979 158.61 36.6955 158.625 36.7995C158.624 36.8198 158.618 36.8394 158.608 36.8572C158.598 36.875 158.585 36.8904 158.568 36.9024C158.552 36.9145 158.533 36.9229 158.513 36.927C158.494 36.9311 158.473 36.9309 158.453 36.9264C158.259 36.8892 158.074 36.8135 157.909 36.7037L157.117 36.2976C157.017 36.2466 156.91 36.2087 156.801 36.1848Z" fill="#455A64"/>
<path d="M147.846 44.2541C147.789 44.0237 147.653 43.8206 147.462 43.6799C147.271 43.5393 147.037 43.4701 146.8 43.4842C146.627 43.5069 146.463 43.5714 146.321 43.6722C146.178 43.7729 146.063 43.9069 145.985 44.0623C145.911 44.2197 145.868 44.3902 145.861 44.564C145.853 44.7378 145.88 44.9114 145.94 45.0747L145.957 45.148C146.117 45.3229 146.328 45.4439 146.561 45.4944C146.793 45.5448 147.035 45.5224 147.254 45.43C147.468 45.3267 147.643 45.1554 147.75 44.9427C147.857 44.7301 147.891 44.488 147.846 44.2541Z" fill="#F28F8F"/>
<path d="M145.395 45.1651C145.395 45.0466 146.179 45.0833 146.771 44.4403C147.363 43.7974 147.315 42.957 147.425 42.957C147.476 42.957 147.569 43.1516 147.56 43.5041C147.544 43.9638 147.366 44.4032 147.058 44.7449C146.764 45.0765 146.351 45.279 145.908 45.3089C145.578 45.3145 145.389 45.2187 145.395 45.1651Z" fill="#263238"/>
<path d="M136.539 87.2754L136.905 89.4101L136.561 90.572C136.561 90.572 133.017 95.0839 131.88 98.4059C130.744 101.728 130.656 110.478 130.656 110.478L171.039 110.453C171.039 110.453 169.629 97.4556 164.553 93.3637V92.4303L165.807 90.572C165.807 90.572 166.23 89.1338 164.397 89.3481C163.67 89.4327 136.539 87.2754 136.539 87.2754Z" fill="#455A64"/>
<path d="M164.777 92.1157H164.495L163.675 92.096C162.964 92.0791 161.935 92.065 160.66 92.0734C159.386 92.0819 157.871 92.1101 156.188 92.1439C154.504 92.1778 152.654 92.2116 150.708 92.1806C148.879 92.1557 147.052 92.039 145.235 91.8309C143.75 91.6599 142.279 91.3914 140.83 91.0272C139.853 90.7838 138.892 90.4825 137.951 90.1248C137.615 90.0036 137.364 89.8851 137.189 89.8146L136.995 89.7272C136.95 89.7075 136.927 89.6962 136.93 89.6934L137 89.7131L137.201 89.7864C137.378 89.8485 137.632 89.9584 137.97 90.0684C138.917 90.4 139.88 90.6824 140.855 90.9144C142.303 91.262 143.772 91.5182 145.252 91.6815C146.921 91.876 148.768 91.9832 150.711 92.0199C152.654 92.0565 154.501 92.0199 156.185 91.9945C157.868 91.9691 159.386 91.9465 160.66 91.955C161.935 91.9635 162.967 91.9888 163.678 92.0255C164.033 92.0396 164.309 92.0593 164.495 92.0734L164.71 92.0904C164.755 92.1073 164.78 92.1129 164.777 92.1157Z" fill="#263238"/>
<path d="M164.78 93.9888C164.757 93.9932 164.733 93.9932 164.71 93.9888H164.495L163.675 93.969C162.964 93.9521 161.935 93.938 160.66 93.9465C159.385 93.9549 157.871 93.9831 156.188 94.017C154.504 94.0508 152.654 94.0847 150.708 94.0536C148.763 94.0226 146.91 93.9042 145.235 93.704C143.75 93.533 142.279 93.2645 140.83 92.9003C139.853 92.6561 138.892 92.3539 137.951 91.995C137.615 91.8738 137.364 91.7582 137.189 91.6877L136.995 91.6002C136.95 91.5805 136.927 91.5692 136.93 91.5664L137 91.5861L137.201 91.6595C137.378 91.7215 137.632 91.8287 137.97 91.9415C138.917 92.2733 139.88 92.5557 140.855 92.7875C142.303 93.1351 143.772 93.3912 145.252 93.5545C146.921 93.7491 148.768 93.8562 150.711 93.8929C152.654 93.9296 154.501 93.8929 156.185 93.8675C157.868 93.8421 159.385 93.8196 160.66 93.828C161.935 93.8365 162.967 93.8619 163.678 93.8985C164.033 93.9126 164.309 93.9324 164.495 93.9465L164.71 93.9634C164.758 93.9831 164.783 93.986 164.78 93.9888Z" fill="#263238"/>
<path d="M138.266 96.1832C138.288 95.9835 138.341 95.7885 138.424 95.6051C138.591 95.151 138.804 94.7154 139.061 94.3051C139.315 93.8938 139.609 93.5092 139.941 93.1574C140.069 93.0028 140.22 92.8687 140.389 92.7598C140.423 92.7908 139.769 93.4309 139.185 94.3813C138.601 95.3316 138.308 96.1832 138.266 96.1832Z" fill="#263238"/>
<path d="M139.706 98.7799C139.688 98.7023 139.683 98.6222 139.692 98.543C139.694 98.3272 139.708 98.1116 139.734 97.8973C139.82 97.1897 139.973 96.492 140.191 95.8133C140.404 95.1356 140.67 94.4756 140.986 93.8393C141.104 93.569 141.251 93.3119 141.423 93.0723C141.325 93.3488 141.21 93.6191 141.079 93.8816C140.795 94.5261 140.546 95.185 140.332 95.8556C140.117 96.5278 139.952 97.2149 139.838 97.9114C139.751 98.4387 139.728 98.7827 139.706 98.7799Z" fill="#263238"/>
<path d="M140.657 88.5684C140.7 88.6964 140.727 88.8289 140.739 88.9632C140.805 89.2774 140.894 89.5865 141.004 89.8881C141.255 90.5987 141.591 91.1205 141.568 91.143C141.25 90.7996 141.014 90.3876 140.88 89.9389C140.763 89.6295 140.686 89.3063 140.652 88.9773C140.619 88.8426 140.621 88.702 140.657 88.5684Z" fill="#263238"/>
<path d="M141.855 89.4141C142 89.7082 142.1 90.0216 142.154 90.3447C142.257 90.6561 142.311 90.9813 142.315 91.3091C142.067 90.7043 141.912 90.0653 141.855 89.4141Z" fill="#263238"/>
<path d="M149.069 89.1309C149.167 90.0872 149.167 91.0509 149.069 92.0073C148.972 91.0509 148.972 90.0872 149.069 89.1309Z" fill="#263238"/>
<path d="M149.971 89.8672C150.182 90.5883 150.162 91.3574 149.914 92.0668C149.872 92.0668 149.954 91.5705 149.968 90.967C149.982 90.3635 149.931 89.8728 149.971 89.8672Z" fill="#263238"/>
<path d="M152.416 96.5248C152.312 96.1183 152.232 95.7058 152.179 95.2896C152.076 94.8815 152.001 94.467 151.953 94.0488C152.144 94.4294 152.268 94.8393 152.323 95.2614C152.426 95.674 152.458 96.1014 152.416 96.5248Z" fill="#263238"/>
<path d="M128.22 68.408C128.141 68.1514 131.108 59.666 132.868 58.3801C134.627 57.0942 142.571 55.2527 142.571 55.2527C142.571 55.2527 145.916 58.5521 150.4 57.8669C154.883 57.1816 158.327 54.0176 158.327 54.0176C158.327 54.0176 166.812 55.1287 168.253 56.1551C169.694 57.1816 173.611 66.4847 173.611 66.4847L166.696 72.246L166.084 77.463C166.084 77.463 166.406 88.3284 165.684 89.4423C164.962 90.5562 136.706 87.7221 136.706 87.7221C136.706 87.7221 135.265 87.4655 136.384 84.9021C137.504 82.3387 138.307 80.6242 138.307 80.6242C138.307 80.6242 136.305 78.3992 135.984 74.4625C135.662 70.5258 134.875 70.1028 134.875 70.1028L128.22 68.408Z" fill="url(#paint7_linear_1123_14702)"/>
<path d="M166.046 77.2623C166.004 77.2623 166.429 73.7204 166.996 69.3663C167.563 65.0122 168.051 61.4703 168.09 61.4844C168.13 61.4985 167.698 65.0235 167.134 69.3917C166.57 73.7598 166.085 77.2679 166.046 77.2623Z" fill="#263238"/>
<path d="M135.761 71.547C135.724 71.5611 135.197 70.2921 134.579 68.71C133.962 67.128 133.497 65.8365 133.533 65.8224C133.57 65.8083 134.097 67.0773 134.718 68.6565C135.338 70.2357 135.801 71.5329 135.761 71.547Z" fill="#263238"/>
<g opacity="0.3">
<path d="M144.722 76.0658C144.594 75.331 144.288 74.6388 143.83 74.0495C143.168 73.2994 142.119 72.9808 141.12 72.9864C140.119 73.0398 139.131 73.2344 138.185 73.5645L136.383 76.3845C136.442 76.5548 136.538 76.7097 136.665 76.8377C136.792 76.9656 136.946 77.0632 137.116 77.1233C137.455 77.2414 137.811 77.3052 138.171 77.3123C140.036 77.4476 141.901 77.5256 143.766 77.5463C144.006 77.5713 144.249 77.5262 144.465 77.4166C144.86 77.1402 144.832 76.5396 144.722 76.0658Z" fill="black"/>
</g>
<path d="M132.402 63.1387C132.462 63.2315 132.512 63.3308 132.549 63.4348C132.636 63.6265 132.755 63.9085 132.896 64.261C133.178 64.9632 133.556 65.953 133.936 67.0331C134.317 68.1131 134.633 69.1227 134.844 69.8531C134.952 70.214 135.036 70.5101 135.087 70.716C135.123 70.8198 135.146 70.9278 135.155 71.0375C135.104 70.9404 135.063 70.8384 135.033 70.7329L134.751 69.8869C134.515 69.1678 134.187 68.1752 133.804 67.0867C133.42 65.9981 133.065 65.014 132.806 64.3033C132.684 63.9706 132.583 63.6886 132.501 63.4573C132.456 63.3554 132.423 63.2484 132.402 63.1387Z" fill="#263238"/>
<path d="M132.391 64.0341L135.552 75.5651C135.607 75.7537 135.723 75.919 135.881 76.0352C136.04 76.1515 136.232 76.2122 136.429 76.208H143.284C143.416 76.2125 143.548 76.1869 143.668 76.1333C143.789 76.0796 143.896 75.9992 143.981 75.8981C144.066 75.7971 144.127 75.6781 144.159 75.55C144.191 75.4219 144.194 75.2882 144.167 75.159L141.395 63.6337C141.344 63.4393 141.23 63.2677 141.07 63.1464C140.909 63.0252 140.713 62.9614 140.512 62.9653H133.265C133.131 62.9608 132.999 62.9872 132.877 63.0424C132.755 63.0976 132.648 63.1801 132.563 63.2835C132.479 63.3869 132.419 63.5084 132.389 63.6386C132.359 63.7688 132.36 63.9041 132.391 64.0341Z" fill="#263238"/>
<path d="M134.77 66.1886C134.77 66.1886 133.952 65.7994 133.307 66.1886C132.661 66.5777 131.615 68.2979 131.615 68.2979L130.969 71.0333L131.411 74.7501L131.586 76.4731L135.76 76.9468V75.5679L140.54 71.9949C140.54 71.9949 142.218 71.5296 142.088 71.0305C141.958 70.5314 141.744 70.1845 141.27 70.2747C140.796 70.365 135.675 71.6847 135.675 71.6847C135.675 71.6847 134.858 71.8568 134.9 71.6396C134.942 71.4225 137.311 70.3058 137.697 70.0463C138.084 69.7869 139.894 69.3583 139.671 68.5405C139.644 68.393 139.584 68.2535 139.496 68.1325C139.407 68.0115 139.293 67.9122 139.16 67.8419C139.028 67.7716 138.881 67.7323 138.731 67.7267C138.581 67.7212 138.432 67.7497 138.295 67.8101L134.161 69.316L133.473 69.488L133.56 68.4107L134.291 67.4209C134.356 67.4416 134.425 67.4489 134.493 67.4424C134.561 67.4359 134.628 67.4158 134.688 67.3831C134.748 67.3505 134.801 67.3061 134.844 67.2525C134.887 67.1989 134.918 67.1373 134.936 67.0712C134.994 66.9233 135.01 66.7621 134.98 66.606C134.951 66.4499 134.878 66.3053 134.77 66.1886Z" fill="#FFA8A7"/>
<path d="M134.218 69.2969C133.901 69.4788 133.56 69.6173 133.206 69.7086C132.868 69.8508 132.512 69.9457 132.148 69.9906C132.467 69.8102 132.807 69.6718 133.161 69.5789C133.499 69.4383 133.855 69.3434 134.218 69.2969Z" fill="#F28F8F"/>
<path d="M135.158 71.7812C134.862 71.9447 134.544 72.0652 134.214 72.1394C133.897 72.2603 133.565 72.3344 133.227 72.3593C133.839 72.0768 134.49 71.8868 135.158 71.7953V71.7812Z" fill="#F28F8F"/>
<path d="M140.279 72.0371C140.206 72.0954 140.126 72.1437 140.04 72.1809C139.879 72.2655 139.645 72.3811 139.349 72.5165C138.582 72.8629 137.798 73.1698 137 73.4358C136.201 73.7041 135.389 73.9291 134.566 74.1098C134.25 74.1803 134.002 74.2282 133.813 74.2564C133.721 74.2779 133.626 74.2883 133.531 74.2875C133.861 74.1738 134.197 74.0797 134.538 74.0055C135.161 73.8447 136.018 73.605 136.949 73.2948C137.88 72.9846 138.709 72.6603 139.307 72.4178C139.623 72.2727 139.948 72.1456 140.279 72.0371Z" fill="#F28F8F"/>
<path d="M132.706 74.059C132.692 74.0957 132.424 73.9547 132.339 73.6276C132.255 73.3004 132.396 73.0438 132.427 73.0636C132.458 73.0833 132.401 73.3117 132.48 73.5824C132.559 73.8532 132.728 74.0252 132.706 74.059Z" fill="#F28F8F"/>
<path d="M131.886 71.8847C131.886 71.9016 131.81 71.8847 131.714 71.8367C131.594 71.7544 131.504 71.6355 131.458 71.4977C131.411 71.36 131.41 71.2108 131.455 71.0725C131.494 70.9682 131.545 70.9202 131.562 70.9287C131.579 70.9371 131.5 71.1797 131.599 71.4504C131.697 71.7211 131.886 71.8452 131.886 71.8847Z" fill="#F28F8F"/>
<path d="M131.41 69.2227C131.413 69.2682 131.408 69.3139 131.396 69.358C131.377 69.4624 131.351 69.5864 131.323 69.7415C131.252 70.0969 131.154 70.5875 131.041 71.1684V71.1515C131.224 72.46 131.475 74.355 131.749 76.4813V76.4982V76.518C131.695 76.6618 131.636 76.8141 131.58 76.9692C130.964 78.7088 130.677 80.5476 130.734 82.392C130.749 82.9506 130.795 83.5079 130.872 84.0614C130.897 84.2447 130.917 84.3942 130.934 84.5126C130.945 84.5654 130.95 84.6194 130.948 84.6734C130.929 84.6231 130.915 84.5712 130.906 84.5183C130.883 84.4168 130.846 84.2673 130.813 84.0699C130.717 83.5159 130.655 82.9564 130.629 82.3948C130.541 80.5339 130.817 78.6737 131.441 76.9184C131.498 76.7633 131.557 76.6082 131.611 76.4644V76.501C131.329 74.372 131.103 72.4769 130.951 71.1628L131.286 69.7528C131.326 69.6005 131.357 69.4708 131.382 69.3749C131.388 69.3235 131.397 69.2726 131.41 69.2227Z" fill="#F28F8F"/>
<path d="M136.449 75.1654C136.178 75.4448 135.853 75.6656 135.493 75.814C135.154 76.0045 134.778 76.1226 134.391 76.1609C134.391 76.1214 134.864 75.9578 135.428 75.6814C135.992 75.4051 136.424 75.1287 136.449 75.1654Z" fill="#F28F8F"/>
<path d="M162.906 81.0236C162.906 81.0236 163.998 81.3056 164.105 82.0163C164.212 82.7269 163.341 94.9882 163.341 94.9882H164.378C164.378 94.9882 164.793 82.8425 164.776 81.974C164.759 81.1054 164.347 81.049 164.192 80.987C163.77 80.8654 163.321 80.8782 162.906 81.0236Z" fill="#263238"/>
<path d="M162.357 81.004L167.351 81.1957L166.355 75.1666L166.697 72.2479L173.315 66.7207C173.315 66.7207 175.63 80.1495 175.839 81.7005C176.087 83.5617 175.726 86.0292 174.824 86.9118C174.054 87.6619 168.507 86.9118 166.364 86.9118C165.179 86.9118 162.348 86.9316 162.348 86.9316L161.355 82.3011L162.357 81.004Z" fill="#FFA8A7"/>
<path d="M174.82 81.211C174.8 81.2363 174.461 80.929 173.81 80.647C172.966 80.2655 172.041 80.0989 171.117 80.1619C170.611 80.1958 170.112 80.3022 169.636 80.4778C169.199 80.6357 168.821 80.8444 168.486 80.9741C168.221 81.0867 167.942 81.1608 167.657 81.194C167.553 81.2135 167.447 81.2135 167.344 81.194C167.724 81.1517 168.095 81.0489 168.444 80.8895C168.771 80.7485 169.14 80.5342 169.588 80.3621C170.075 80.174 170.588 80.0608 171.108 80.0266C172.055 79.9611 173.002 80.1459 173.855 80.5623C174.11 80.6891 174.354 80.8382 174.583 81.0079C174.669 81.0661 174.749 81.1343 174.82 81.211Z" fill="#F28F8F"/>
<path d="M157.207 92.1211C157.023 92.3552 154.914 110.527 154.914 110.527L176.834 110.454L173.36 92.1775L157.207 92.1211Z" fill="url(#paint8_linear_1123_14702)"/>
<path d="M160.841 110.48C160.802 110.48 160.573 106.396 160.334 101.354C160.094 96.3121 159.933 92.2344 159.976 92.2344C160.018 92.2344 160.241 96.3177 160.48 101.36C160.72 106.402 160.881 110.477 160.841 110.48Z" fill="#263238"/>
<path d="M151.907 81.3081C152.513 81.2202 153.112 81.093 153.701 80.9274C153.977 80.7932 154.244 80.6406 154.499 80.4706L157.319 80.2422L162.353 81.0036C162.353 81.0036 163.199 81.6127 163.077 83.4824C162.974 84.7345 162.705 85.9673 162.277 87.1483C162.277 87.1483 160.021 88.9842 159.417 89.097C158.814 89.2098 155.373 89.018 155.032 88.7501C154.83 88.5974 154.662 88.4056 154.536 88.1861C154.352 88.0923 154.204 87.9409 154.114 87.755C154.025 87.5691 153.998 87.359 154.039 87.1568C154.039 87.1568 152.858 85.6312 152.706 84.9826C152.553 84.334 152.742 84.1817 152.742 84.1817C152.742 84.1817 152.401 83.3047 152.666 83.0001C152.733 82.9258 152.814 82.8657 152.904 82.8235C152.995 82.7812 153.093 82.7577 153.193 82.7542C153.292 82.7508 153.392 82.7676 153.485 82.8035C153.578 82.8395 153.663 82.8939 153.735 82.9635C154.003 83.268 155.681 83.0396 155.681 83.0396L157.167 82.047C156.402 82.2412 155.625 82.3816 154.84 82.4672C154.042 82.4897 151.64 83.0255 151.907 81.3081Z" fill="#FFA8A7"/>
<path d="M157.743 84.904C157.743 84.9266 157.436 84.9802 156.956 85.1465C156.717 85.2283 156.432 85.3355 156.11 85.4285C155.757 85.5471 155.389 85.6136 155.016 85.6259C154.635 85.6379 154.258 85.5401 153.931 85.3439C153.672 85.1801 153.442 84.9742 153.251 84.7348C153.123 84.5771 153.005 84.4113 152.899 84.2385C152.822 84.1173 152.786 84.0467 152.794 84.0411C152.803 84.0355 152.994 84.2893 153.33 84.6671C153.522 84.8888 153.748 85.079 153.998 85.2311C154.307 85.4067 154.659 85.4926 155.013 85.4793C155.775 85.4596 156.423 85.1691 156.928 85.0394C157.19 84.9474 157.466 84.9016 157.743 84.904Z" fill="#F28F8F"/>
<path d="M158.769 83.5605C158.783 83.5605 158.836 83.5944 158.876 83.6987C158.924 83.8347 158.924 83.983 158.876 84.1189C158.83 84.2562 158.737 84.373 158.614 84.4489C158.518 84.5053 158.45 84.5052 158.442 84.4883C158.433 84.4714 158.648 84.3389 158.738 84.071C158.828 83.8031 158.732 83.5775 158.769 83.5605Z" fill="#F28F8F"/>
<path d="M158.656 86.8958C158.425 86.9625 158.188 87.005 157.948 87.0227C157.508 87.0847 156.899 87.158 156.228 87.2285C155.91 87.2712 155.59 87.2957 155.269 87.3019C155.002 87.3072 154.737 87.2651 154.485 87.1778C154.244 87.1128 154.035 86.9612 153.898 86.752C154.087 86.8933 154.296 87.0037 154.519 87.0791C154.762 87.1491 155.016 87.1787 155.269 87.1665C155.551 87.1665 155.875 87.1185 156.211 87.0847C156.885 87.0114 157.494 86.955 157.937 86.9212C158.175 86.8886 158.416 86.8801 158.656 86.8958Z" fill="#F28F8F"/>
<path d="M159.961 85.6895C159.978 85.6895 160.032 85.7459 160.069 85.8728C160.117 86.0385 160.117 86.2146 160.069 86.3803C160.022 86.5466 159.93 86.6967 159.804 86.8146C159.705 86.8992 159.626 86.9246 159.617 86.9105C159.609 86.8964 159.835 86.6849 159.928 86.3465C159.966 86.1297 159.977 85.909 159.961 85.6895Z" fill="#F28F8F"/>
<path d="M159.148 88.4333C158.93 88.4973 158.704 88.5314 158.477 88.5348C157.386 88.6217 156.288 88.5533 155.217 88.3317C154.991 88.3011 154.771 88.2394 154.562 88.1484C154.788 88.1555 155.013 88.1829 155.234 88.2302C155.645 88.2923 156.215 88.3628 156.847 88.4022C157.478 88.4417 158.054 88.4417 158.471 88.4333C158.696 88.4119 158.923 88.4119 159.148 88.4333Z" fill="#F28F8F"/>
<path d="M163.922 80.9213C163.922 80.9213 164.909 81.6601 165.092 82.1085C165.275 82.5569 167.247 92.1194 167.247 92.1194H168.093C168.093 92.1194 166.082 81.7588 165.591 81.3584C165.415 81.2158 165.226 81.0894 165.027 80.9805C164.861 80.8928 164.679 80.8417 164.491 80.8305C164.304 80.8193 164.117 80.8483 163.942 80.9156L163.922 80.9213Z" fill="#263238"/>
<path d="M144.661 82.7985C144.381 82.8356 144.096 82.8356 143.815 82.7985C142.474 82.6726 141.181 82.2341 140.039 81.5182C139.797 81.3803 139.572 81.2126 139.371 81.0191C139.385 80.9993 139.653 81.1798 140.093 81.4279C140.67 81.7557 141.277 82.0277 141.906 82.2401C142.535 82.4509 143.182 82.6038 143.838 82.6969C144.346 82.759 144.661 82.7759 144.661 82.7985Z" fill="#263238"/>
<g opacity="0.3">
<path d="M149.603 82.6463C149.086 82.6012 148.565 82.6211 148.052 82.7055C145.415 82.9875 142.694 82.9875 140.277 81.6367C140.624 82.3617 141.218 82.9395 141.952 83.2667C142.788 83.5524 143.666 83.6963 144.55 83.6925C146.671 83.7791 148.795 83.6848 150.9 83.4105C150.754 83.1951 150.562 83.0148 150.338 82.8826C150.113 82.7505 149.862 82.6698 149.603 82.6463Z" fill="black"/>
</g>
<path d="M141.555 55.5778C141.555 54.5771 141.158 53.6174 140.45 52.9098C139.743 52.2022 138.783 51.8047 137.782 51.8047H114.811C113.828 51.8316 112.895 52.2407 112.21 52.9451C111.524 53.6495 111.141 54.5936 111.141 55.5764C111.141 56.5593 111.524 57.5033 112.21 58.2077C112.895 58.9121 113.828 59.3213 114.811 59.3482H128.541C129.83 60.5918 132.032 62.2697 132.032 62.2697V59.21L138.059 59.3312C140.12 59.2692 141.555 57.5518 141.555 55.5778Z" fill="white"/>
<path d="M141.557 55.5773C141.557 55.5773 141.557 55.6449 141.557 55.7831C141.551 55.9858 141.529 56.1877 141.489 56.3866C141.427 56.711 141.325 57.0265 141.185 57.3256C140.986 57.7337 140.717 58.1033 140.389 58.417C139.974 58.8073 139.47 59.0901 138.92 59.2404C138.767 59.2812 138.611 59.3141 138.455 59.3391C138.291 59.3581 138.126 59.3684 137.961 59.3701L136.921 59.3532L132.036 59.2658L132.09 59.2122C132.09 60.1767 132.09 61.2003 132.09 62.2663V62.3875L131.997 62.3142C130.869 61.4428 129.665 60.4953 128.495 59.3927L128.54 59.4124H120.221H115.695C115.305 59.4124 114.925 59.4265 114.524 59.3983C113.756 59.3376 113.023 59.0484 112.42 58.5681C111.817 58.0877 111.371 57.438 111.14 56.7024C111.048 56.3943 110.993 56.0762 110.977 55.7549C110.963 55.4356 110.985 55.1158 111.044 54.8018C111.111 54.4907 111.214 54.1887 111.352 53.9022C111.622 53.3385 112.026 52.8497 112.529 52.4786C113.032 52.1074 113.618 51.8652 114.237 51.7731C114.537 51.732 114.839 51.716 115.142 51.7251H121.171L132.899 51.7421H137.411C137.733 51.7315 138.054 51.7485 138.373 51.7928C138.669 51.8395 138.958 51.9199 139.236 52.0325C139.72 52.2345 140.156 52.534 140.519 52.9124C140.81 53.2116 141.046 53.5589 141.218 53.9388C141.288 54.0903 141.349 54.2457 141.402 54.4041C141.441 54.5508 141.475 54.6861 141.5 54.8046C141.535 54.9906 141.555 55.1793 141.56 55.3686C141.56 55.4955 141.56 55.5603 141.56 55.5603C141.56 55.5603 141.56 55.4955 141.543 55.3686C141.531 55.1792 141.506 54.9907 141.469 54.8046C141.441 54.6861 141.404 54.5536 141.362 54.4098C141.311 54.2534 141.248 54.1008 141.176 53.9529C141.002 53.579 140.765 53.2383 140.474 52.9462C140.114 52.5811 139.683 52.2932 139.208 52.1002C138.935 51.9919 138.652 51.9153 138.362 51.8718C138.047 51.8292 137.729 51.8141 137.411 51.8267H132.899H121.171H115.142C114.847 51.8161 114.552 51.8312 114.259 51.8718C113.512 51.9893 112.818 52.3311 112.27 52.8518C111.722 53.3725 111.344 54.0477 111.188 54.7877C111.071 55.3961 111.102 56.0238 111.279 56.6178C111.374 56.9144 111.505 57.1984 111.668 57.4638C111.972 57.9622 112.391 58.3806 112.89 58.6842C113.389 58.9878 113.953 59.1679 114.536 59.2094C114.913 59.2376 115.311 59.2094 115.695 59.2235H120.224H128.543H128.568L128.588 59.2404C129.747 60.3374 130.948 61.2877 132.07 62.1619L131.974 62.2071C131.974 61.1411 131.974 60.1174 131.974 59.153V59.0994H132.031L136.912 59.2094C137.629 59.2094 138.305 59.2968 138.886 59.1107C139.426 58.9842 139.927 58.7298 140.347 58.369C140.672 58.0637 140.941 57.7027 141.139 57.3031C141.371 56.8266 141.507 56.3092 141.54 55.7803C141.548 55.6421 141.557 55.5773 141.557 55.5773Z" fill="#263238"/>
<path d="M136.597 56.7531C136.537 56.7573 136.476 56.7573 136.416 56.7531C136.145 56.7169 135.891 56.6012 135.685 56.4205C135.48 56.2399 135.332 56.0024 135.262 55.7381C135.191 55.4738 135.2 55.1945 135.288 54.9355C135.376 54.6765 135.539 54.4493 135.756 54.2826C135.973 54.116 136.234 54.0174 136.507 53.9992C136.78 53.981 137.053 54.044 137.29 54.1804C137.527 54.3168 137.718 54.5204 137.84 54.7655C137.961 55.0105 138.008 55.2861 137.973 55.5575C137.926 55.8891 137.761 56.1927 137.508 56.4123C137.255 56.632 136.932 56.753 136.597 56.7531ZM136.597 54.2631C136.329 54.263 136.07 54.3607 135.869 54.5377C135.668 54.7148 135.539 54.959 135.505 55.2247C135.468 55.5147 135.548 55.8075 135.726 56.0393C135.904 56.2712 136.166 56.4234 136.456 56.4627C136.746 56.5003 137.04 56.421 137.272 56.2423C137.504 56.0635 137.656 55.8 137.694 55.5095C137.713 55.3658 137.703 55.2198 137.666 55.0797C137.628 54.9397 137.563 54.8085 137.475 54.6935C137.387 54.5785 137.277 54.482 137.151 54.4096C137.026 54.3372 136.887 54.2903 136.743 54.2715C136.694 54.2658 136.644 54.263 136.594 54.2631H136.597Z" fill="#263238"/>
<path d="M138.48 57.0784C138.447 57.0778 138.415 57.0659 138.39 57.0446L137.485 56.2888C137.47 56.277 137.458 56.2624 137.45 56.246C137.441 56.2296 137.436 56.2117 137.434 56.1932C137.432 56.1747 137.434 56.1561 137.44 56.1384C137.445 56.1207 137.454 56.1043 137.466 56.09C137.478 56.0757 137.493 56.064 137.509 56.0553C137.525 56.0467 137.543 56.0414 137.562 56.0397C137.58 56.038 137.599 56.0399 137.617 56.0454C137.634 56.0509 137.651 56.0598 137.665 56.0717L138.57 56.8274C138.599 56.8516 138.617 56.8861 138.621 56.9235C138.625 56.9609 138.614 56.9983 138.59 57.0277C138.577 57.0438 138.56 57.0567 138.541 57.0654C138.522 57.0742 138.501 57.0787 138.48 57.0784Z" fill="#263238"/>
<path d="M115.947 55.3909V56.0761H116.066V56.4999H115.905V56.2109H115.339V56.4999H115.178V56.0761H115.245C115.286 56.0159 115.321 55.9487 115.349 55.8746C115.377 55.8005 115.399 55.7225 115.414 55.6405C115.43 55.558 115.44 55.4748 115.444 55.3909H115.947ZM115.775 55.5242H115.593C115.587 55.5909 115.577 55.6573 115.563 55.7235C115.548 55.7892 115.53 55.8521 115.507 55.9124C115.485 55.9722 115.458 56.0267 115.427 56.0761H115.775V55.5242ZM116.545 55.3753C116.618 55.3753 116.681 55.3904 116.733 55.4205C116.786 55.4506 116.826 55.4933 116.854 55.5487C116.882 55.604 116.896 55.6701 116.896 55.7472V55.8405H116.349C116.351 55.92 116.372 55.9813 116.413 56.0243C116.454 56.0672 116.511 56.0887 116.584 56.0887C116.637 56.0887 116.684 56.0838 116.725 56.0739C116.767 56.0635 116.81 56.0485 116.855 56.0287V56.1702C116.814 56.1895 116.772 56.2035 116.73 56.2124C116.687 56.2213 116.636 56.2258 116.577 56.2258C116.496 56.2258 116.426 56.2102 116.364 56.1791C116.304 56.1475 116.256 56.1006 116.221 56.0383C116.187 55.9761 116.17 55.8988 116.17 55.8065C116.17 55.7146 116.186 55.6366 116.217 55.5724C116.248 55.5082 116.292 55.4593 116.348 55.4257C116.404 55.3921 116.47 55.3753 116.545 55.3753ZM116.545 55.5064C116.49 55.5064 116.446 55.5242 116.412 55.5598C116.378 55.5953 116.358 55.6474 116.353 55.7161H116.726C116.725 55.6751 116.718 55.6388 116.705 55.6072C116.692 55.5756 116.673 55.5509 116.646 55.5331C116.62 55.5153 116.586 55.5064 116.545 55.5064ZM117.712 55.5279H117.442V56.2109H117.269V55.5279H117.001V55.3909H117.712V55.5279ZM118.201 56.2258C118.123 56.2258 118.056 56.2107 117.999 56.1806C117.943 56.1504 117.899 56.1043 117.868 56.042C117.838 55.9798 117.822 55.9008 117.822 55.805C117.822 55.7052 117.839 55.6237 117.873 55.5605C117.906 55.4973 117.953 55.4506 118.012 55.4205C118.072 55.3904 118.14 55.3753 118.217 55.3753C118.266 55.3753 118.31 55.3802 118.35 55.3901C118.39 55.3995 118.424 55.4111 118.451 55.4249L118.399 55.5642C118.369 55.5519 118.338 55.5415 118.307 55.5331C118.275 55.5247 118.245 55.5205 118.216 55.5205C118.168 55.5205 118.128 55.5311 118.096 55.5524C118.064 55.5736 118.04 55.6052 118.025 55.6472C118.009 55.6892 118.002 55.7413 118.002 55.8035C118.002 55.8637 118.009 55.9146 118.025 55.9561C118.041 55.9971 118.065 56.0282 118.096 56.0494C118.127 56.0702 118.165 56.0806 118.21 56.0806C118.255 56.0806 118.296 56.0751 118.331 56.0643C118.367 56.0534 118.4 56.0393 118.432 56.022V56.1732C118.401 56.1909 118.368 56.204 118.332 56.2124C118.296 56.2213 118.253 56.2258 118.201 56.2258ZM119.133 55.3909H119.325L118.985 55.785L119.354 56.2109H119.153L118.799 55.7946V56.2109H118.625V55.3909H118.799V55.7887L119.133 55.3909ZM119.654 55.3909V55.8094C119.654 55.8228 119.654 55.8398 119.653 55.8605C119.652 55.8808 119.651 55.902 119.65 55.9242C119.648 55.946 119.647 55.966 119.645 55.9843C119.644 56.0025 119.643 56.0161 119.642 56.025L120.054 55.3909H120.266V56.2109H120.1V55.7968C120.1 55.7751 120.1 55.7499 120.101 55.7213C120.102 55.6926 120.104 55.665 120.105 55.6383C120.107 55.6116 120.109 55.5914 120.109 55.5775L119.698 56.2109H119.487V55.3909H119.654ZM120.684 55.3909V55.8094C120.684 55.8228 120.684 55.8398 120.683 55.8605C120.682 55.8808 120.681 55.902 120.68 55.9242C120.678 55.946 120.677 55.966 120.675 55.9843C120.674 56.0025 120.672 56.0161 120.671 56.025L121.084 55.3909H121.296V56.2109H121.129V55.7968C121.129 55.7751 121.13 55.7499 121.131 55.7213C121.132 55.6926 121.134 55.665 121.135 55.6383C121.137 55.6116 121.138 55.5914 121.139 55.5775L120.728 56.2109H120.517V55.3909H120.684ZM121.234 55.0457C121.229 55.0965 121.216 55.1405 121.193 55.1775C121.171 55.2141 121.137 55.2422 121.091 55.262C121.046 55.2817 120.986 55.2916 120.912 55.2916C120.836 55.2916 120.775 55.2822 120.731 55.2634C120.686 55.2442 120.654 55.2163 120.634 55.1797C120.615 55.1427 120.603 55.098 120.599 55.0457H120.757C120.762 55.1005 120.777 55.1375 120.8 55.1568C120.824 55.1755 120.862 55.1849 120.915 55.1849C120.961 55.1849 120.997 55.1748 121.024 55.1545C121.052 55.1343 121.068 55.098 121.074 55.0457H121.234ZM122.666 55.799C122.666 55.8672 122.658 55.9277 122.64 55.9805C122.622 56.0334 122.596 56.0781 122.562 56.1146C122.528 56.1507 122.487 56.1783 122.439 56.1976C122.391 56.2164 122.337 56.2258 122.277 56.2258C122.22 56.2258 122.169 56.2164 122.122 56.1976C122.075 56.1783 122.034 56.1507 122 56.1146C121.966 56.0781 121.939 56.0334 121.92 55.9805C121.902 55.9277 121.892 55.8672 121.892 55.799C121.892 55.7087 121.908 55.6321 121.939 55.5694C121.971 55.5062 122.015 55.458 122.074 55.4249C122.132 55.3919 122.201 55.3753 122.282 55.3753C122.357 55.3753 122.424 55.3919 122.482 55.4249C122.54 55.458 122.585 55.5062 122.618 55.5694C122.65 55.6326 122.666 55.7092 122.666 55.799ZM122.072 55.799C122.072 55.8588 122.079 55.9099 122.093 55.9524C122.108 55.9949 122.131 56.0275 122.161 56.0502C122.192 56.0724 122.231 56.0835 122.28 56.0835C122.328 56.0835 122.368 56.0724 122.398 56.0502C122.429 56.0275 122.451 55.9949 122.466 55.9524C122.48 55.9099 122.487 55.8588 122.487 55.799C122.487 55.7393 122.48 55.6887 122.466 55.6472C122.451 55.6052 122.429 55.5734 122.398 55.5516C122.368 55.5294 122.328 55.5183 122.279 55.5183C122.207 55.5183 122.154 55.5425 122.121 55.5909C122.088 55.6393 122.072 55.7087 122.072 55.799ZM123.486 55.5279H123.216V56.2109H123.043V55.5279H122.775V55.3909H123.486V55.5279ZM124.314 55.3909V56.0761H124.432V56.4999H124.272V56.2109H123.706V56.4999H123.545V56.0761H123.612C123.653 56.0159 123.688 55.9487 123.715 55.8746C123.744 55.8005 123.765 55.7225 123.781 55.6405C123.796 55.558 123.806 55.4748 123.81 55.3909H124.314ZM124.141 55.5242H123.96C123.954 55.5909 123.944 55.6573 123.929 55.7235C123.915 55.7892 123.897 55.8521 123.874 55.9124C123.852 55.9722 123.825 56.0267 123.794 56.0761H124.141V55.5242ZM124.912 55.3753C124.985 55.3753 125.048 55.3904 125.1 55.4205C125.152 55.4506 125.193 55.4933 125.221 55.5487C125.249 55.604 125.263 55.6701 125.263 55.7472V55.8405H124.715C124.717 55.92 124.739 55.9813 124.779 56.0243C124.82 56.0672 124.877 56.0887 124.951 56.0887C125.003 56.0887 125.05 56.0838 125.092 56.0739C125.134 56.0635 125.177 56.0485 125.221 56.0287V56.1702C125.18 56.1895 125.139 56.2035 125.096 56.2124C125.054 56.2213 125.003 56.2258 124.944 56.2258C124.863 56.2258 124.792 56.2102 124.731 56.1791C124.67 56.1475 124.623 56.1006 124.588 56.0383C124.554 55.9761 124.537 55.8988 124.537 55.8065C124.537 55.7146 124.552 55.6366 124.584 55.5724C124.615 55.5082 124.658 55.4593 124.715 55.4257C124.771 55.3921 124.837 55.3753 124.912 55.3753ZM124.912 55.5064C124.857 55.5064 124.813 55.5242 124.778 55.5598C124.745 55.5953 124.725 55.6474 124.719 55.7161H125.093C125.092 55.6751 125.085 55.6388 125.072 55.6072C125.059 55.5756 125.039 55.5509 125.013 55.5331C124.986 55.5153 124.953 55.5064 124.912 55.5064ZM126.134 56.2109H125.959V55.5272H125.731C125.721 55.6516 125.709 55.7581 125.694 55.8465C125.679 55.9349 125.661 56.007 125.639 56.0628C125.616 56.1181 125.589 56.1586 125.556 56.1843C125.524 56.2099 125.484 56.2228 125.438 56.2228C125.418 56.2228 125.4 56.2213 125.384 56.2183C125.367 56.2159 125.353 56.2119 125.34 56.2065V56.0694C125.348 56.0724 125.357 56.0749 125.367 56.0769C125.377 56.0788 125.387 56.0798 125.398 56.0798C125.416 56.0798 125.433 56.0724 125.448 56.0576C125.464 56.0423 125.478 56.0183 125.492 55.9857C125.505 55.9531 125.517 55.9102 125.528 55.8568C125.539 55.803 125.549 55.7378 125.558 55.6613C125.567 55.5842 125.575 55.4941 125.581 55.3909H126.134V56.2109Z" fill="black"/>
<path d="M1 112.201H256" stroke="#263238" stroke-linecap="round" stroke-linejoin="round"/>
<defs>
<linearGradient id="paint0_linear_1123_14702" x1="95.3117" y1="54.9118" x2="85.0167" y2="50.9629" gradientUnits="userSpaceOnUse">
<stop offset="0.431134" stop-color="#008954"/>
<stop offset="0.809708" stop-color="#09B975"/>
</linearGradient>
<linearGradient id="paint1_linear_1123_14702" x1="132.73" y1="40.9157" x2="122.434" y2="36.9674" gradientUnits="userSpaceOnUse">
<stop offset="0.431134" stop-color="#008954"/>
<stop offset="0.809708" stop-color="#09B975"/>
</linearGradient>
<linearGradient id="paint2_linear_1123_14702" x1="116.219" y1="73.4394" x2="109.161" y2="70.7288" gradientUnits="userSpaceOnUse">
<stop offset="0.431134" stop-color="#008954"/>
<stop offset="0.809708" stop-color="#09B975"/>
</linearGradient>
<linearGradient id="paint3_linear_1123_14702" x1="165.687" y1="23.9424" x2="158.635" y2="21.2271" gradientUnits="userSpaceOnUse">
<stop offset="0.431134" stop-color="#008954"/>
<stop offset="0.809708" stop-color="#09B975"/>
</linearGradient>
<linearGradient id="paint4_linear_1123_14702" x1="107.632" y1="28.4744" x2="95.1166" y2="23.6746" gradientUnits="userSpaceOnUse">
<stop offset="0.431134" stop-color="#008954"/>
<stop offset="0.809708" stop-color="#09B975"/>
</linearGradient>
<linearGradient id="paint5_linear_1123_14702" x1="91.6772" y1="110.454" x2="77.6294" y2="104.862" gradientUnits="userSpaceOnUse">
<stop offset="0.431134" stop-color="#008954"/>
<stop offset="0.809708" stop-color="#09B975"/>
</linearGradient>
<linearGradient id="paint6_linear_1123_14702" x1="88.1804" y1="110.454" x2="75.3423" y2="105.92" gradientUnits="userSpaceOnUse">
<stop offset="0.431134" stop-color="#008954"/>
<stop offset="0.809708" stop-color="#09B975"/>
</linearGradient>
<linearGradient id="paint7_linear_1123_14702" x1="173.611" y1="89.7017" x2="124.788" y2="59.5772" gradientUnits="userSpaceOnUse">
<stop offset="0.431134" stop-color="#008954"/>
<stop offset="0.809708" stop-color="#09B975"/>
</linearGradient>
<linearGradient id="paint8_linear_1123_14702" x1="176.834" y1="110.527" x2="152.426" y2="96.4279" gradientUnits="userSpaceOnUse">
<stop offset="0.431134" stop-color="#008954"/>
<stop offset="0.809708" stop-color="#09B975"/>
</linearGradient>
</defs>
</svg>
