<svg width="255" height="112" viewBox="0 0 255 112" fill="none" xmlns="http://www.w3.org/2000/svg">
<g clip-path="url(#clip0_390_6280)">
<path d="M77.3477 54.9426C77.3477 54.9426 76.1264 39.5971 64.4468 25.4967C52.7671 11.3963 42 11.9833 42 11.9833C42 11.9833 54.118 7.45212 66.7908 22.5486C79.4635 37.6451 77.3477 54.9426 77.3477 54.9426Z" fill="#455A64"/>
<path d="M74.5783 0.00425074C74.3234 -0.440417 75.3343 34.1503 75.3343 34.1503L78.0183 58.9449C78.0183 58.9449 80.1073 40.6157 79.6734 31.211C79.2395 21.8063 76.8731 3.81505 74.5783 0.00425074Z" fill="#455A64"/>
<path d="M87.5194 0.106445C87.5194 0.106445 82.2499 3.36141 80.5143 28.6719C79.1723 48.0683 78.3045 55.4942 78.0227 57.9177C77.9677 58.2624 77.9677 58.6135 78.0227 58.9582C78.0227 58.9582 84.4194 40.9892 86.3116 31.2687C88.2038 21.5483 85.6406 7.49682 87.5194 0.106445Z" fill="#455A64"/>
<path d="M79.177 64.1651C79.1502 64.7965 81.3018 55.8632 92.4939 44.9421C102.908 34.777 107.564 34.408 107.564 34.408C107.564 34.408 96.8061 35.822 89.5863 43.4525C83.2119 50.1892 79.4901 57.7397 79.177 64.1651Z" fill="#455A64"/>
<path d="M77.9111 74.1929C76.7212 69.7863 75.3971 65.3352 72.8653 61.5288C70.3334 57.7225 66.4059 54.5964 61.8477 54.0762C69.1659 59.4744 74.4935 65.6775 77.9111 74.1929Z" fill="#455A64"/>
<path d="M78.0333 56.8019C78.0333 56.8019 76.0874 39.6555 63.7546 34.235C56.8792 31.2112 46.6221 33.0388 46.6221 33.0388C46.6221 33.0388 59.4961 34.733 64.2646 37.7612C69.0331 40.7894 78.0333 56.8019 78.0333 56.8019Z" fill="#455A64"/>
<path d="M77.6215 106.827C77.6017 106.756 77.5942 106.682 77.5991 106.609C77.5991 106.44 77.5991 106.231 77.5991 105.977C77.5991 105.386 77.5991 104.577 77.5723 103.554C77.5723 101.402 77.5723 98.3645 77.5723 94.6293C77.6081 87.07 77.6573 76.6692 77.7109 65.1923C77.7109 63.7546 77.7214 62.3361 77.7422 60.9369C77.7422 60.2343 77.7422 59.5406 77.7422 58.8514C77.7422 58.4912 77.7422 58.1755 77.778 57.7886C77.8138 57.4018 77.9435 57.1216 78.0017 56.7837C78.2746 55.4497 78.449 54.1468 78.7129 52.8573C78.9769 51.5677 79.2453 50.3315 79.5047 49.1131C80.0012 46.6719 80.547 44.3686 80.9361 42.1897L82.041 36.1244C82.4213 34.279 82.6136 32.5671 82.8418 31.1086C83.0699 29.6501 83.2443 28.3694 83.3964 27.3111C83.5485 26.2528 83.6738 25.5013 83.7632 24.9143C83.799 24.6609 83.8259 24.4697 83.8527 24.2874C83.8575 24.2159 83.8726 24.1456 83.8974 24.0784C83.9092 24.1505 83.9092 24.2241 83.8974 24.2963C83.8974 24.4652 83.8974 24.6698 83.8572 24.9232C83.8124 25.4791 83.7051 26.2884 83.5798 27.3333C83.4546 28.3783 83.2891 29.6723 83.1012 31.1441C82.9133 32.616 82.7299 34.328 82.3721 36.1778C82.0142 38.0276 81.6877 40.0731 81.303 42.2519C80.9183 44.4308 80.4083 46.7475 79.9118 49.1932C79.6613 50.4116 79.4033 51.6596 79.1379 52.9373C78.8785 54.2046 78.7129 55.5253 78.4401 56.8681C78.3819 57.1972 78.2746 57.5574 78.2209 57.8553C78.1935 58.1866 78.1845 58.5191 78.194 58.8514V60.9324C78.194 62.3346 78.1836 63.7531 78.1627 65.1879C78.0554 76.6647 77.9614 87.0522 77.8899 94.6249C77.8317 98.3601 77.787 101.397 77.7512 103.545C77.7288 104.568 77.7065 105.377 77.693 105.968C77.693 106.226 77.6707 106.413 77.6617 106.6C77.6555 106.676 77.642 106.752 77.6215 106.827Z" fill="#263238"/>
<path d="M80.6073 58.9629C80.6744 58.9852 80.4508 59.8256 80.1153 61.1863C79.7798 62.547 79.3548 64.4279 78.997 66.5223C78.6391 68.6167 78.3976 70.5465 78.2365 71.9383C78.0755 73.3302 77.9771 74.1884 77.91 74.1884C77.8429 74.1884 77.8294 73.299 77.91 71.9072C78.0089 70.0788 78.2105 68.2572 78.5139 66.4511C78.8224 64.6477 79.2452 62.8655 79.7798 61.1151C80.2137 59.75 80.5492 58.9451 80.6073 58.9629Z" fill="#263238"/>
<path d="M85.0359 112.452C87.6841 110.095 88.1225 106.031 87.1965 102.62C86.2705 99.2095 84.2442 96.2169 82.5533 93.1087L72.9089 93.042C71.1778 96.128 69.1022 99.0895 68.1315 102.487C67.1608 105.884 67.541 109.957 70.1579 112.349L85.0359 112.452Z" fill="url(#paint0_linear_390_6280)"/>
<path d="M76.6731 14.207C76.7244 14.3498 76.7516 14.5001 76.7536 14.6517C76.7894 14.9896 76.8342 15.3987 76.8878 15.8923C76.9952 16.9684 77.1205 18.5292 77.2546 20.4591C77.523 24.3188 77.787 29.6592 77.9704 35.5777C78.1538 41.4963 78.1896 46.8278 78.1135 50.6964C78.0822 52.6352 78.0196 54.2004 77.957 55.281C77.9212 55.7745 77.8943 56.1703 77.8675 56.5216C77.8656 56.6718 77.8446 56.8213 77.8049 56.9663C77.7716 56.8205 77.761 56.6705 77.7735 56.5216V55.2454C77.7735 54.0937 77.7735 52.5463 77.7735 50.6698C77.7735 46.8056 77.6662 41.4651 77.4917 35.5511C77.3173 29.637 77.0981 24.3188 76.9147 20.4324C76.8297 18.5603 76.7536 17.0129 76.7 15.8612C76.7 15.3632 76.6642 14.9719 76.6552 14.6161C76.6406 14.4796 76.6466 14.3417 76.6731 14.207Z" fill="#263238"/>
<path d="M68.912 28.7117C69.1366 28.9533 69.3318 29.2205 69.4935 29.5076C69.8469 30.0323 70.3211 30.8149 70.8802 31.7977C73.7786 36.9417 75.9307 42.4673 77.2725 48.2103C77.5275 49.3087 77.7198 50.2069 77.8003 50.8294C77.8815 51.149 77.9177 51.4782 77.9077 51.8077C77.8361 51.8077 77.5364 50.4737 76.9504 48.2904C75.4408 42.6295 73.306 37.152 70.585 31.9577C69.5696 29.9612 68.8494 28.7517 68.912 28.7117Z" fill="#263238"/>
<path d="M63.6104 35.4661C63.9435 35.5575 64.2572 35.7082 64.5363 35.9107C65.3376 36.3739 66.1031 36.8956 66.8266 37.4715C67.9018 38.3183 68.9194 39.2349 69.8729 40.2151C71.0351 41.4338 72.0445 42.7881 72.8789 44.2482C74.408 46.8655 75.7633 49.5793 76.9362 52.3723C77.3835 53.4395 77.7324 54.3155 77.9561 54.9247C78.0963 55.2326 78.197 55.5568 78.2558 55.8897C78.0647 55.6126 77.907 55.3141 77.7861 55.0003C77.473 54.32 77.0838 53.4884 76.632 52.5102C75.6389 50.4202 74.2791 47.521 72.4763 44.5062C71.6583 43.0758 70.6798 41.7422 69.5598 40.5308C68.6316 39.5476 67.6474 38.6182 66.6119 37.7472C65.9173 37.1551 65.1916 36.6 64.4379 36.0842C64.1493 35.8956 63.8729 35.6891 63.6104 35.4661Z" fill="#263238"/>
<path d="M114.701 112.249L122.195 95.6096H126.813L116.009 112.249H114.701Z" fill="#263238"/>
<path d="M189.405 59.1818C188.352 53.8936 185.453 52.4526 181.5 50.6174C177.548 48.7822 179.262 44.5952 179.262 44.5952H176.956C176.956 44.5952 178.67 48.7867 174.717 50.6174C170.765 52.4481 167.88 53.8936 166.813 59.1818C165.746 64.4699 168.527 71.557 168.527 71.557L178.1 71.4392L187.673 71.557C187.673 71.557 190.467 64.4699 189.405 59.1818Z" fill="url(#paint1_linear_390_6280)"/>
<path d="M160.42 45.7641H196.505L187.388 24.9197H168.297L160.42 45.7641Z" fill="#E0E0E0"/>
<path d="M210 96H117.115H108V71H210V96Z" fill="#455A64"/>
<path d="M208.9 94.9358C208.9 94.9358 208.9 94.7926 208.9 94.5259C208.9 94.2592 208.9 93.8542 208.9 93.3406C208.9 92.2935 208.9 90.7674 208.878 88.8067C208.878 84.8557 208.851 79.2008 208.833 72.1877L208.919 72.2815L160.122 72.3161L160.24 72.1877C160.24 80.1688 160.24 87.8585 160.24 94.9358L160.127 94.8123L195.118 94.8716L205.261 94.9062H207.977H208.683H208.928H208.683H207.991H205.298L195.182 94.9407L160.113 95H160V94.8765C160 87.7992 160 80.1095 160 72.1284V72H160.122L208.919 72.0395H209V72.1284C209 79.1613 208.968 84.8557 208.955 88.8018C208.955 90.7773 208.955 92.259 208.955 93.3159C208.955 93.8097 208.955 94.2147 208.955 94.4864C208.955 94.758 208.9 94.9358 208.9 94.9358Z" fill="#263238"/>
<path d="M185.972 83.6371C185.971 83.9407 185.879 84.2373 185.709 84.4893C185.539 84.7413 185.297 84.9375 185.014 85.0531C184.732 85.1687 184.421 85.1984 184.122 85.1387C183.822 85.0789 183.548 84.9322 183.332 84.7172C183.116 84.5022 182.969 84.2285 182.91 83.9306C182.851 83.6327 182.882 83.3241 182.999 83.0437C183.116 82.7633 183.314 82.5236 183.568 82.355C183.822 82.1864 184.121 82.0964 184.426 82.0964C184.629 82.0964 184.831 82.1363 185.019 82.2138C185.206 82.2913 185.377 82.4048 185.52 82.548C185.664 82.6911 185.778 82.861 185.855 83.0479C185.933 83.2348 185.972 83.435 185.972 83.6371Z" fill="#E0E0E0"/>
<path d="M158.805 94.1371C158.805 94.1371 158.805 94.0057 158.805 93.761C158.805 93.5163 158.805 93.1447 158.805 92.6734C158.805 91.7128 158.805 90.3126 158.805 88.5136C158.805 84.8885 158.777 79.7 158.759 73.2655L158.841 73.3516L109.696 73.3833L109.815 73.2655C109.815 80.5882 109.815 87.6436 109.815 94.1371L109.705 94.0238L144.947 94.0782L155.162 94.1099H157.897H158.608H158.85H158.622H157.925H155.19L145.001 94.1416L109.682 94.196H109.568V94.0827C109.568 87.5892 109.568 80.5338 109.568 73.2111V73.0933H109.687L158.832 73.1295H158.918V73.2111C158.918 79.6638 158.882 84.8885 158.873 88.5091C158.873 90.3216 158.873 91.681 158.85 92.6508C158.85 93.1039 158.85 93.4755 158.85 93.7247C158.85 93.9739 158.805 94.1371 158.805 94.1371Z" fill="#263238"/>
<path d="M136.012 83.6371C136.012 83.942 135.921 84.2401 135.75 84.4935C135.58 84.747 135.338 84.9445 135.054 85.0609C134.771 85.1774 134.459 85.2077 134.158 85.1478C133.857 85.088 133.581 84.9409 133.364 84.7249C133.148 84.509 133.001 84.2341 132.941 83.9349C132.882 83.6357 132.913 83.3258 133.031 83.0444C133.149 82.7629 133.349 82.5226 133.604 82.3539C133.86 82.1851 134.16 82.0955 134.467 82.0964C134.67 82.0964 134.871 82.1363 135.059 82.2138C135.247 82.2913 135.417 82.4049 135.561 82.548C135.704 82.6911 135.818 82.861 135.896 83.0479C135.973 83.2348 136.012 83.435 136.012 83.6371Z" fill="#E0E0E0"/>
<path d="M123.967 70.1972V67.1611H128.329V70.4555L123.967 70.1972Z" fill="#E0E0E0"/>
<path d="M131.125 55.8828V70.8047H139.066V55.8828H131.125Z" fill="#E0E0E0"/>
<path d="M147.009 60.7407H141.598V70.1116H147.009V60.7407Z" fill="#E0E0E0"/>
<path d="M118.466 69.7627L119.952 71.8426H152.331L153.552 69.7627H118.466Z" fill="#263238"/>
<path d="M195.802 95.8901L205.648 112.357H206.779L199.376 95.8901H195.802Z" fill="#263238"/>
<path d="M29.2974 87.645L16.8008 111.317H18.7357L34.3423 89.6951L29.2974 87.645Z" fill="#263238"/>
<path d="M48.7999 89.3425L44.6045 111.222H46.5394L54.3592 89.3425H48.7999Z" fill="#263238"/>
<path d="M45.7656 74.9692L90.2117 67.3365C91.0786 67.1838 91.9716 67.3604 92.7137 67.8314C93.4558 68.3023 93.9928 69.0332 94.2183 69.8792L46.5773 78.0794L45.7656 74.9692Z" fill="#263238"/>
<path d="M64.4873 79.8574H93.6949C94.7725 79.8574 95.806 80.283 96.568 81.0405C97.33 81.798 97.7581 82.8253 97.7581 83.8966V85.6792C97.7581 86.7505 97.33 87.7779 96.568 88.5353C95.806 89.2928 94.7725 89.7184 93.6949 89.7184H64.4873V79.8668V79.8574Z" fill="url(#paint2_linear_390_6280)"/>
<path d="M80.209 72.3045L95.3673 111.486H98.1469L85.8344 71.3381L80.209 72.3045Z" fill="#263238"/>
<path d="M7.93052 34.4321C7.14788 34.8496 6.54455 35.5356 6.23287 36.3624C5.9212 37.1891 5.92242 38.1003 6.2363 38.9263C9.61058 47.7739 19.8703 74.4999 23.9477 85.1208C24.4478 86.4235 25.3314 87.546 26.483 88.3419C27.6347 89.1378 29.0011 89.57 30.4037 89.5822C38.7615 89.6666 55.9726 89.8073 64.3022 89.6338C65.5916 89.608 66.8195 89.0806 67.7221 88.1649C68.6248 87.2492 69.1302 86.0182 69.13 84.7361C69.1294 84.0611 68.9885 83.3934 68.7163 82.775C68.444 82.1566 68.0462 81.6008 67.5478 81.1423C67.0494 80.6838 66.4611 80.3326 65.8197 80.1107C65.1784 79.8888 64.4979 79.8009 63.8208 79.8526L36.4821 82.0762C35.13 82.1855 33.7782 81.8626 32.6236 81.1546C31.4691 80.4466 30.5723 79.3905 30.0639 78.1403L13.0462 36.196C12.8451 35.7335 12.5496 35.3175 12.1784 34.9744C11.8072 34.6313 11.3684 34.3685 10.8897 34.2027C10.4111 34.0369 9.90303 33.9717 9.39771 34.0112C8.8924 34.0507 8.40082 34.194 7.95411 34.4321H7.93052Z" fill="url(#paint3_linear_390_6280)"/>
<path d="M9.16797 34.0002H37.6393C38.3215 34.0009 38.9891 34.1968 39.5624 34.5645C40.1356 34.9322 40.5902 35.4562 40.872 36.0738L60.9006 80.0963L37.5874 85.2191L28.3612 82.1088L9.16797 34.0002Z" fill="url(#paint4_linear_390_6280)"/>
<g opacity="0.3">
<path opacity="0.3" d="M7.93052 34.4321C7.14788 34.8496 6.54455 35.5356 6.23287 36.3624C5.9212 37.1891 5.92242 38.1003 6.2363 38.9263C9.61058 47.7739 19.8703 74.4999 23.9477 85.1208C24.4478 86.4235 25.3314 87.546 26.483 88.3419C27.6347 89.1378 29.0011 89.57 30.4037 89.5822C38.7615 89.6666 55.9726 89.8073 64.3022 89.6338C65.5916 89.608 66.8195 89.0806 67.7221 88.1649C68.6248 87.2492 69.1302 86.0182 69.13 84.7361C69.1294 84.0611 68.9885 83.3934 68.7163 82.775C68.444 82.1566 68.0462 81.6008 67.5478 81.1423C67.0494 80.6838 66.4611 80.3326 65.8197 80.1107C65.1784 79.8888 64.4979 79.8009 63.8208 79.8526L36.4821 82.0762C35.13 82.1855 33.7782 81.8626 32.6236 81.1546C31.4691 80.4466 30.5723 79.3905 30.0639 78.1403L13.0462 36.196C12.8451 35.7335 12.5496 35.3175 12.1784 34.9744C11.8072 34.6313 11.3684 34.3685 10.8897 34.2027C10.4111 34.0369 9.90303 33.9717 9.39771 34.0112C8.8924 34.0507 8.40082 34.194 7.95411 34.4321H7.93052Z" fill="black"/>
</g>
<path d="M17.6768 74.9693L62.1275 67.3366C62.9955 67.1884 63.8877 67.3693 64.6279 67.8436C65.3681 68.3179 65.9023 69.0511 66.1248 69.8981L18.4885 78.0796L17.6768 74.9693Z" fill="#263238"/>
<path d="M52.1182 72.3045L67.2765 111.486H70.0561L57.7435 71.3381L52.1182 72.3045Z" fill="#263238"/>
<path d="M243.806 71.3184H231.85H221.058V0.111084H243.806V71.3184Z" fill="#EBEBEB"/>
<path d="M243.808 71.318C243.808 71.318 243.808 71.1959 243.808 70.9632C243.808 70.7304 243.808 70.3794 243.808 69.9254C243.808 69.0136 243.808 67.6706 243.808 65.9309C243.808 62.4476 243.808 57.3848 243.781 51.0515C243.781 38.3773 243.755 20.5869 243.736 0.12209L243.831 0.217471H221.059L221.158 0.118271C221.158 28.7553 221.132 54.3936 221.124 71.3256L221.059 71.2607L237.784 71.2913L242.255 71.3103H243.397H243.777H243.397H242.255H237.788L221.044 71.3447H220.98V71.2798C220.98 54.3478 220.957 28.7096 220.945 0.0724902V0H243.888V0.0953806C243.888 20.5869 243.857 38.4002 243.846 51.0935C243.846 57.4267 243.823 62.4819 243.819 65.9728C243.819 67.705 243.819 69.025 243.819 69.9483C243.819 70.3985 243.819 70.7419 243.819 70.9746C243.819 71.2073 243.808 71.318 243.808 71.318Z" fill="#263238"/>
<path d="M233.282 71.3181H231.849V78.1588H233.282V71.3181Z" fill="#455A64"/>
<path d="M216 112L231.161 77.0525H232.432L216.651 112H216Z" fill="#455A64"/>
<path d="M249 112L233.839 77.0525H232.568L248.349 112H249Z" fill="#455A64"/>
<path d="M231.849 75.9956V112H232.567L233.282 75.5874L231.849 75.9956Z" fill="#455A64"/>
<path d="M243.748 69.8097L232.237 34L221 71.3053" fill="#E0E0E0"/>
<path d="M221.196 71.5239C221.196 71.5239 221.196 71.4591 221.242 71.3332L221.402 70.7723L222.026 68.632C222.581 66.7663 223.377 64.0804 224.362 60.765C226.356 54.1227 229.108 44.9585 232.144 34.8215C232.209 34.6002 232.277 34.3789 232.338 34.1729L232.43 33.8677L232.529 34.1729C235.706 44.0925 238.572 53.0468 240.649 59.5289C241.673 62.7642 242.502 65.3776 243.081 67.1975C243.359 68.094 243.579 68.796 243.732 69.2806C243.8 69.5133 243.857 69.6964 243.895 69.8261C243.933 69.9559 243.945 70.0131 243.945 70.0131C243.945 70.0131 243.918 69.952 243.876 69.83L243.694 69.292C243.534 68.8113 243.313 68.1131 243.009 67.2204C242.415 65.4081 241.566 62.7985 240.516 59.5708L232.338 34.2492H232.529L232.335 34.8978L224.496 60.8108C223.487 64.1186 222.669 66.7969 222.098 68.6587C221.817 69.5782 221.592 70.2916 221.44 70.7876C221.364 71.0241 221.303 71.2073 221.261 71.3408C221.219 71.4743 221.196 71.5239 221.196 71.5239Z" fill="#263238"/>
<path d="M243.806 0.111084C243.793 0.17174 243.776 0.231607 243.757 0.2904C243.719 0.416302 243.665 0.587988 243.593 0.809271C243.445 1.27473 243.212 1.95384 242.95 2.80464C242.379 4.54056 241.557 7.03953 240.541 10.1222L232.527 34.2497C232.146 34.2497 232.42 34.2497 232.333 34.2497V34.223V34.1696L232.295 34.0589L232.223 33.8377L232.074 33.3989C231.979 33.1051 231.88 32.8152 231.785 32.5214L231.206 30.7893C230.826 29.6447 230.445 28.5002 230.065 27.4014L227.919 20.9842C226.564 16.9019 225.346 13.224 224.323 10.1337C223.299 7.04335 222.485 4.55201 221.914 2.81608C221.636 1.95766 221.419 1.28999 221.271 0.820716C221.198 0.599433 221.145 0.439193 221.107 0.301845C221.087 0.243052 221.071 0.183191 221.058 0.122535C221.058 0.122535 221.084 0.179762 221.126 0.294219C221.168 0.408676 221.229 0.587988 221.309 0.809271C221.465 1.27091 221.689 1.93476 221.986 2.78937C222.572 4.52148 223.413 7.01283 224.456 10.0879L228.09 20.9231C228.771 22.9643 229.49 25.1199 230.232 27.3251L231.374 30.713L231.941 32.4298C232.036 32.7198 232.135 33.0098 232.234 33.3035L232.379 33.7423L232.451 33.9636L232.489 34.0742V34.1276V34.1581C232.405 34.1581 232.679 34.1581 232.302 34.1581C235.453 24.7498 238.307 16.2266 240.374 10.0536C241.412 6.97468 242.276 4.48334 242.843 2.75122C243.136 1.90043 243.365 1.22513 243.521 0.771122C243.601 0.549839 243.661 0.389597 243.703 0.256064C243.745 0.122532 243.806 0.111084 243.806 0.111084Z" fill="#263238"/>
<path d="M1 112H255" stroke="#263238" stroke-linecap="round" stroke-linejoin="round"/>
</g>
<defs>
<linearGradient id="paint0_linear_390_6280" x1="87.6391" y1="112.452" x2="63.8777" y2="100.578" gradientUnits="userSpaceOnUse">
<stop offset="0.431134" stop-color="#008954"/>
<stop offset="0.809708" stop-color="#09B975"/>
</linearGradient>
<linearGradient id="paint1_linear_390_6280" x1="189.646" y1="71.557" x2="160.414" y2="59.4213" gradientUnits="userSpaceOnUse">
<stop offset="0.431134" stop-color="#008954"/>
<stop offset="0.809708" stop-color="#09B975"/>
</linearGradient>
<linearGradient id="paint2_linear_390_6280" x1="97.7581" y1="89.7184" x2="84.3259" y2="67.7355" gradientUnits="userSpaceOnUse">
<stop offset="0.431134" stop-color="#008954"/>
<stop offset="0.809708" stop-color="#09B975"/>
</linearGradient>
<linearGradient id="paint3_linear_390_6280" x1="69.13" y1="89.7164" x2="-2.87261" y2="50.1437" gradientUnits="userSpaceOnUse">
<stop offset="0.431134" stop-color="#008954"/>
<stop offset="0.809708" stop-color="#09B975"/>
</linearGradient>
<linearGradient id="paint4_linear_390_6280" x1="60.9006" y1="85.2191" x2="-1.05455" y2="54.8657" gradientUnits="userSpaceOnUse">
<stop offset="0.431134" stop-color="#008954"/>
<stop offset="0.809708" stop-color="#09B975"/>
</linearGradient>
<clipPath id="clip0_390_6280">
<rect width="255" height="112" fill="white"/>
</clipPath>
</defs>
</svg>
