<svg width="319" height="295" viewBox="0 0 319 295" fill="none" xmlns="http://www.w3.org/2000/svg">
<path d="M303.242 276.941C303.242 277.041 236.619 277.127 154.436 277.127C72.2528 277.127 5.61523 277.041 5.61523 276.941C5.61523 276.841 72.2385 276.755 154.436 276.755C236.633 276.755 303.242 276.833 303.242 276.941Z" fill="#263238"/>
<path d="M253.646 12.1169H151.67V18.9225H246.841V256.76H151.67V263.566H253.646V12.1169Z" fill="#455A64"/>
<path d="M151.67 18.9225V25.7281V249.955V256.76H246.841V18.9225H151.67Z" fill="white"/>
<path d="M51.2704 256.76V18.9225H151.671V12.1169H44.4648V263.566H151.671V256.76H51.2704Z" fill="#263238"/>
<path d="M51.2705 18.9225V256.76H151.671V249.955V25.7281V18.9225H51.2705Z" fill="#F5F5F5"/>
<path d="M224.261 26.2224C226.073 26.8241 227.843 27.4904 229.605 28.1853V18.9225H172.402H173.391C188.449 19.4598 207.842 20.7134 224.261 26.2224Z" fill="#F5F5F5"/>
<path d="M239.004 18.9225V32.2973C241.604 33.5295 244.205 34.8261 246.841 36.1442V22.2035C244.398 21.0716 241.898 19.9684 239.326 18.9225H239.004Z" fill="#F5F5F5"/>
<path d="M80.5987 225.347C85.6462 223.582 90.4922 221.286 95.0553 218.499L64.251 196.291C59.5945 198.49 54.716 200.775 51.2988 203.204V221.966C58.6345 227.375 70.6769 228.743 80.5987 225.347Z" fill="#F5F5F5"/>
<path d="M133.761 169.455C133.016 164.952 132.968 160.362 133.617 155.844L118.609 152.262C111.446 150.55 103.709 153.466 102.011 158.509C97.8487 170.902 86.795 183.038 73.5563 191.463C71.6483 192.636 69.6777 193.705 67.6533 194.665L82.3033 205.224L134.692 173.403C134.305 172.106 133.994 170.788 133.761 169.455Z" fill="#F5F5F5"/>
<path d="M144.929 190.417C140.953 186.457 137.83 181.725 135.752 176.512L85.1689 207.244L98.1354 216.593C103.035 213.477 107.678 210.103 112.578 206.893C122.76 200.293 133.602 194.771 144.929 190.417Z" fill="#F5F5F5"/>
<path d="M196.331 170.852L137.659 156.775C137.122 160.878 137.199 165.038 137.888 169.119C139.297 176.717 143.038 183.688 148.591 189.063C163.84 183.51 179.644 179.621 195.729 177.464C200.751 176.748 201.188 171.963 196.331 170.852Z" fill="#F5F5F5"/>
<path d="M77.2758 148.071L79.4894 134.94L79.7115 133.73C79.3605 133.013 78.9951 132.347 78.6727 131.659C75.4777 132.512 71.9316 132.426 68.5575 132.827C65.1833 133.228 61.5799 134.367 60.448 136.574C59.7317 137.927 60.1257 139.439 60.5125 140.829C61.1 143.007 61.6898 145.182 62.282 147.355C62.7691 149.175 63.2992 151.052 64.8036 152.585C65.712 153.452 66.8059 154.101 68.0023 154.484C69.1988 154.866 70.4665 154.971 71.7095 154.791C72.5729 154.657 73.3997 154.348 74.139 153.882C74.8782 153.416 75.5142 152.804 76.0078 152.083C76.7031 150.848 77.1348 149.482 77.2758 148.071Z" fill="#F5F5F5"/>
<path d="M202.483 121.35L239.327 132.297L246.842 127.046V111.823L222.227 104.515L202.483 121.35Z" fill="#E6E6E6"/>
<path d="M226.532 100.848L246.842 106.88V91.198L238.94 90.2667L226.532 100.848Z" fill="#E6E6E6"/>
<path d="M238.77 32.0152V18.6404H229.371V75.9507L109.256 52.475L115.768 18.6404H106.541L100.222 51.4434L51.0358 49.416V55.67L99.0332 57.683L87.0554 119.865L54.2309 123.941L51.0358 112.529V133.197C51.3347 138.81 52.2133 144.377 53.6578 149.809C54.2675 152.634 55.4634 155.299 57.168 157.632C60.4705 161.809 66.746 164.796 73.5946 165.512C71.1612 168.994 68.1808 172.059 64.7688 174.589C60.8001 177.54 56.0935 179.947 51.0358 182.233V189.647L53.6005 188.544L63.988 196.03L94.7923 218.238L104.105 224.936C95.0716 229.951 86.1169 233.934 76.6822 235.008C74.4399 235.259 71.7678 235.395 68.9095 235.538C62.9057 235.729 56.9219 236.33 51 237.337V243.784C51.4728 243.677 51.9385 243.576 52.4328 243.483C58.0207 242.493 63.6738 241.916 69.3465 241.757C72.3911 241.599 75.2709 241.456 77.943 241.155C94.4197 239.278 108.239 230.861 122.846 221.949C138.062 212.636 155.312 202.127 177.641 198.96C201.339 195.593 227.752 201.389 246.579 214.09V205.565C235.416 199.504 223.304 195.386 210.76 193.387C217.572 188.687 222.415 182.641 224.256 176.158C224.364 175.778 224.457 175.398 224.55 175.019C224.861 173.66 225.02 172.272 225.023 170.878C225.023 170.16 224.98 169.442 224.894 168.729L246.607 162.274V155.462L223.053 162.489C221.679 159.72 219.818 157.22 217.558 155.111L246.607 141.499V138.061L214.943 152.89C209.908 149.138 204.145 146.479 198.022 145.081L170.671 138.426L235.862 83.5515L246.607 84.6619V78.3506L238.77 77.5411V32.0152ZM108.052 58.7361L141.959 65.3698L140.11 130.997L96.1677 120.316L108.052 58.7361ZM60.8359 156.285C59.1237 154.136 58.3429 151.543 57.7483 149.301C56.0847 143.045 55.1922 136.61 55.0905 130.138L85.8089 126.326L83.8746 136.356C81.9977 146.099 79.8987 155.075 75.3569 162.754C69.3393 162.418 63.7014 159.925 60.8359 156.285ZM67.4194 194.34L57.1322 186.925C62.1924 184.701 67.0103 181.961 71.5099 178.751C86.0023 168.005 89.7919 153.542 92.944 137.201L94.9713 126.663L138.62 137.28C136.094 143.118 134.334 149.258 133.384 155.548C132.734 160.065 132.782 164.656 133.527 169.159C133.762 170.477 134.073 171.781 134.458 173.063L82.0694 204.899L67.4194 194.34ZM116.986 217.264C113.726 219.255 110.538 221.211 107.307 223.073L97.9013 216.289L84.9349 206.941L135.518 176.208C137.596 181.421 140.719 186.153 144.695 190.113C147.751 193.173 151.203 195.809 154.961 197.95C140.304 203.058 128.133 210.48 116.986 217.285V217.264ZM194.949 150.956C209.162 154.409 217.823 164.123 215.538 174.037C215.466 174.345 215.387 174.653 215.302 174.954C213.36 181.753 207.357 188.021 199.061 192.018C185.584 191.073 172.048 192.63 159.137 196.61C155.182 194.536 151.559 191.88 148.392 188.73C142.844 183.363 139.104 176.403 137.689 168.815C137 164.735 136.922 160.575 137.46 156.472C138.341 150.174 140.068 144.025 142.596 138.19L194.949 150.956ZM187.069 114.528L161.358 136.17L144.222 132L146.071 66.1793L187.062 74.1956L187.069 114.528ZM191.768 110.573V75.1125L225.947 81.8035L191.768 110.573Z" fill="#E0E0E0"/>
<path d="M91.6171 63.0156L62.002 62.0771V94.5005H86.366L91.6171 63.0156Z" fill="#EBEBEB"/>
<path d="M85.5062 100.604H57.3096V113.828H85.5062V100.604Z" fill="#EBEBEB"/>
<path d="M159.122 54.627L223.345 65.9744V32.4479H182.619V47.7068H159.122V54.627Z" fill="#EBEBEB"/>
<path d="M143.461 52.1124V24.3097H123.703L120.25 47.6923L143.461 52.1124Z" fill="#EBEBEB"/>
<path d="M173.219 23.2925H152.853V37.5341H173.219V23.2925Z" fill="#E0E0E0"/>
<path d="M185.878 135.506L219.584 146.073L234.348 135.764L198.178 125.025L185.878 135.506Z" fill="#E6E6E6"/>
<path d="M134.062 70.0864H115.265V111.794H134.062V70.0864Z" fill="#EBEBEB"/>
<path d="M107.435 109.759H102.735V117.898H107.435V109.759Z" fill="#E0E0E0"/>
<path d="M181.049 79.6141L152.853 73.7542V95.0306V98.5695H181.049V79.6141Z" fill="#EBEBEB"/>
<path d="M155.99 110.777H149.722V122.984H155.99V110.777Z" fill="#EBEBEB"/>
<path d="M165.39 110.777H159.122V122.984H165.39V110.777Z" fill="#EBEBEB"/>
<path d="M174.788 110.777H168.52V122.984H174.788V110.777Z" fill="#EBEBEB"/>
<path d="M60.4402 18.9225H51.2705V44.1605L60.4402 44.4901V18.9225Z" fill="#E6E6E6"/>
<path d="M93.1852 45.5933L97.5408 18.9225H68.2695V44.705L93.1852 45.5933Z" fill="#E6E6E6"/>
<path d="M246.842 199.987V187.386L241.032 197.294L246.842 199.987Z" fill="#F0F0F0"/>
<path d="M106.274 223.449C121.117 216.285 130.789 201.886 145.195 194.006C148.875 191.872 152.974 190.562 157.209 190.166C160.97 189.908 164.58 190.223 168.262 189.17C173.413 187.737 176.544 184.392 178.807 179.592C181.594 173.675 183.693 165.902 181.021 159.627C178.471 153.696 173.835 148.907 167.99 146.166C164.795 144.661 161.364 143.766 158.097 142.426C155.948 141.552 153.412 140.6 151.65 139.038C150.317 137.841 150.847 137.075 151.7 135.513C152.846 133.572 154.154 131.732 155.611 130.011C158.255 126.702 161.421 123.485 163.362 119.674C164.723 117.009 164.967 114 165.01 111.078C165.153 101.521 165.511 91.986 165.726 82.4224C165.726 81.3693 164.158 81.3836 164.093 82.4224C163.57 90.9186 163.069 99.4865 163.248 108.004C163.312 111.113 163.491 114.53 162.438 117.518C161.048 121.465 157.703 124.76 155.11 127.941C153.024 130.333 151.192 132.936 149.644 135.707C148.992 136.982 148.598 137.856 149.379 139.138C151.119 142.004 155.912 143.436 158.871 144.575C162.603 146.008 166.407 147.011 169.889 149.081C173.162 151.098 175.908 153.865 177.898 157.155C180.892 161.897 181.236 166.382 179.961 171.791C178.313 178.79 175.226 185.796 167.868 187.966C164.286 189.027 160.798 188.747 157.158 189.005C154.058 189.265 151.023 190.037 148.175 191.29C131.842 198.261 121.311 214.336 105.909 222.947C105.551 223.148 105.866 223.664 106.224 223.492L106.274 223.449Z" fill="#263238"/>
<path d="M116.217 180.043C117.342 170.351 104.869 167.292 100.098 174.413C95.7356 180.932 107.678 200.095 107.678 200.095L116.217 180.043ZM109.827 183.776C109.062 184.306 108.156 184.597 107.225 184.613C106.295 184.629 105.38 184.368 104.597 183.864C103.815 183.36 103.199 182.635 102.829 181.781C102.458 180.927 102.349 179.982 102.515 179.066C102.682 178.15 103.116 177.304 103.763 176.635C104.41 175.966 105.242 175.503 106.152 175.307C107.061 175.11 108.009 175.188 108.875 175.529C109.741 175.871 110.486 176.463 111.016 177.228C111.723 178.256 111.993 179.523 111.768 180.751C111.542 181.978 110.839 183.066 109.812 183.776H109.827Z" fill="url(#paint0_linear_473_9200)"/>
<path d="M247.758 98.7559C244.413 93.8416 242.149 91.3987 237.342 89.6579C235.5 88.9974 233.567 88.6276 231.611 88.5619C227.012 89.9946 223.838 89.9946 219.232 88.5619C216.875 88.8556 214.862 87.1291 202.827 94.6009C197.862 97.6814 194.452 99.7159 188.557 102.753C186.945 103.47 185.806 103.935 185.555 103.785C184.466 103.133 172.596 81.4124 172.596 81.4124C172.596 81.4124 169.952 73.9048 168.842 73.9549C167.731 74.005 159.851 74.2414 159.729 75.4736C159.608 76.7058 160.095 82.1288 160.954 82.8666C161.814 83.6045 164.916 85.5817 164.916 85.5817C164.916 85.5817 178.083 119.624 182.947 119.137C186.529 118.786 200.226 113.084 207.347 110.053L208.923 109.487L209.862 129.224L209.482 154.096L240.523 152.334L240.021 126.738C240.258 120.362 240.093 118.306 240.738 113.019L250.051 116.558L251.705 106.056C250.582 103.523 249.263 101.082 247.758 98.7559Z" fill="#FFA8A7"/>
<path d="M237.342 89.658C242.149 91.3988 244.413 93.8416 247.758 98.756C249.263 101.082 250.582 103.523 251.705 106.056L250.051 116.558L240.738 113.019C240.093 118.306 240.258 120.362 240.021 126.738L240.523 152.334L209.482 154.096L209.862 129.224L208.923 109.487L207.347 110.053C200.226 113.084 186.529 118.786 182.947 119.137C178.083 119.624 166 89.1404 166 89.1404L175 84.6404C175 84.6404 184.466 103.133 185.555 103.785C185.806 103.935 186.945 103.47 188.557 102.753C194.452 99.7159 197.862 97.6814 202.827 94.601C214.862 87.1291 216.875 88.8556 219.232 88.5619C223.838 89.9947 227.012 89.9947 231.611 88.5619C233.567 88.6277 235.5 88.9974 237.342 89.658Z" fill="#455A64"/>
<path d="M204.492 104.13C204.406 104.18 204.005 103.671 203.597 102.983C203.188 102.296 202.931 101.694 203.017 101.644C203.102 101.594 203.511 102.102 203.919 102.79C204.327 103.478 204.571 104.08 204.492 104.13Z" fill="white"/>
<path d="M204.492 104.13C204.406 104.18 204.005 103.671 203.597 102.983C203.188 102.296 202.931 101.694 203.017 101.644C203.102 101.594 203.511 102.102 203.919 102.79C204.327 103.478 204.571 104.08 204.492 104.13Z" fill="white"/>
<path d="M204.492 104.13C204.406 104.18 204.005 103.671 203.597 102.983C203.188 102.296 202.931 101.694 203.017 101.644C203.102 101.594 203.511 102.102 203.919 102.79C204.327 103.478 204.571 104.08 204.492 104.13Z" fill="white"/>
<path d="M204.492 104.13C204.406 104.18 204.005 103.671 203.597 102.983C203.188 102.296 202.931 101.694 203.017 101.644C203.102 101.594 203.511 102.102 203.919 102.79C204.327 103.478 204.571 104.08 204.492 104.13Z" fill="white"/>
<path d="M197.834 102.33C197.735 102.335 197.614 101.699 197.57 100.9C197.526 100.101 197.576 99.4486 197.675 99.4439C197.775 99.4392 197.901 100.079 197.945 100.878C197.989 101.676 197.927 102.322 197.834 102.33Z" fill="white"/>
<path d="M206.492 97.1297C206.406 97.1798 206.005 96.6712 205.597 95.9835C205.188 95.2958 204.931 94.694 205.017 94.6439C205.102 94.5937 205.511 95.1023 205.919 95.7901C206.327 96.4778 206.571 97.0795 206.492 97.1297Z" fill="white"/>
<path d="M216.492 97.1297C216.406 97.1798 216.005 96.6712 215.597 95.9835C215.188 95.2958 214.931 94.694 215.017 94.6439C215.102 94.5937 215.511 95.1023 215.919 95.7901C216.327 96.4778 216.571 97.0795 216.492 97.1297Z" fill="white"/>
<path d="M200.492 111.13C200.406 111.18 200.005 110.671 199.597 109.983C199.188 109.296 198.931 108.694 199.017 108.644C199.102 108.594 199.511 109.102 199.919 109.79C200.327 110.478 200.571 111.08 200.492 111.13Z" fill="white"/>
<path d="M174.492 104.13C174.406 104.18 174.005 103.671 173.597 102.983C173.188 102.296 172.931 101.694 173.017 101.644C173.102 101.594 173.511 102.102 173.919 102.79C174.327 103.478 174.571 104.08 174.492 104.13Z" fill="white"/>
<path d="M185.492 115.13C185.406 115.18 185.005 114.671 184.597 113.983C184.188 113.296 183.931 112.694 184.017 112.644C184.102 112.594 184.511 113.102 184.919 113.79C185.327 114.478 185.571 115.08 185.492 115.13Z" fill="white"/>
<path d="M190.253 107.243C190.16 107.208 190.303 106.576 190.58 105.826C190.857 105.076 191.163 104.496 191.256 104.532C191.349 104.567 191.211 105.204 190.933 105.955C190.656 106.705 190.342 107.273 190.253 107.243Z" fill="white"/>
<path d="M179.046 103.148C178.96 103.098 179.2 102.497 179.592 101.799C179.984 101.102 180.376 100.578 180.462 100.627C180.549 100.677 180.312 101.285 179.92 101.982C179.529 102.679 179.129 103.191 179.046 103.148Z" fill="white"/>
<path d="M173.978 95.315C173.88 95.3297 173.696 94.7085 173.572 93.9184C173.448 93.1283 173.431 92.4738 173.53 92.4591C173.628 92.4444 173.819 93.0682 173.943 93.8583C174.067 94.6485 174.07 95.2976 173.978 95.315Z" fill="white"/>
<path d="M163.67 68.5105C161.893 64.2123 154.758 65.0074 154.156 69.535C153.318 75.8749 165.561 80.8896 165.561 80.8896V80.4597C165.561 80.4597 165.045 71.8417 163.67 68.5105ZM161.764 72.1498C161.561 72.6237 161.222 73.0268 160.789 73.3079C160.357 73.5891 159.851 73.7357 159.335 73.7292C158.819 73.7228 158.317 73.5635 157.892 73.2716C157.467 72.9797 157.138 72.5683 156.946 72.0894C156.755 71.6105 156.71 71.0855 156.817 70.581C156.924 70.0765 157.178 69.615 157.547 69.2549C157.917 68.8948 158.384 68.6523 158.891 68.5581C159.398 68.4639 159.922 68.5221 160.396 68.7255C161.032 68.9981 161.533 69.5121 161.789 70.1542C162.046 70.7964 162.037 71.5142 161.764 72.1498Z" fill="url(#paint1_linear_473_9200)"/>
<path d="M162.166 79.3134C162.591 79.495 162.989 79.7362 163.348 80.0298L164.573 80.9038C164.802 81.0757 165.038 81.2405 165.289 81.4411C165.436 81.5525 165.56 81.6924 165.652 81.8523C165.744 82.0123 165.803 82.1891 165.826 82.3724C165.833 82.5457 165.787 82.717 165.693 82.8631C165.6 83.0092 165.464 83.123 165.303 83.189C165.028 83.3037 164.72 83.3164 164.436 83.2248C164.004 83.0635 163.587 82.8645 163.19 82.6302C162.474 82.2577 161.965 81.964 161.757 81.8207L161.822 81.7563C161.857 81.8566 161.865 81.9067 161.857 81.9139C161.85 81.921 161.807 81.9139 161.743 81.7993L161.664 81.699L161.8 81.7348C162.044 81.8136 162.581 82.0357 163.319 82.3724C163.712 82.5679 164.116 82.7401 164.53 82.8881C164.931 83.0243 165.49 82.8237 165.454 82.3938C165.418 81.964 164.78 81.5413 164.365 81.176L163.19 80.2447C162.812 79.9768 162.468 79.6641 162.166 79.3134Z" fill="#F28F8F"/>
<path d="M163.398 77.5513C163.871 77.6497 164.323 77.8343 164.73 78.0957C165.198 78.3466 165.622 78.6734 165.984 79.0628C166.204 79.2962 166.388 79.5619 166.528 79.8509C166.624 80.0135 166.686 80.1934 166.712 80.3803C166.738 80.5672 166.726 80.7573 166.679 80.9398C166.64 81.0416 166.58 81.1343 166.504 81.212C166.427 81.2897 166.336 81.3506 166.234 81.3911C166.057 81.4596 165.865 81.4842 165.676 81.4627C165.355 81.4183 165.043 81.324 164.752 81.1833C164.266 80.9727 163.81 80.6981 163.398 80.3666C162.681 79.8007 162.402 79.3207 162.438 79.2921C162.473 79.2634 162.846 79.6646 163.555 80.1589C163.974 80.4414 164.421 80.6814 164.888 80.8753C165.148 80.9897 165.423 81.0669 165.704 81.1045C165.991 81.1045 166.249 81.0472 166.328 80.818C166.388 80.5438 166.342 80.2569 166.199 80.0156C166.078 79.7544 165.918 79.5129 165.726 79.2992C165.399 78.9223 165.017 78.5964 164.594 78.3321C164.173 78.1082 163.772 77.8469 163.398 77.5513Z" fill="#F28F8F"/>
<path d="M168.821 74.3276L162.639 76.1472C162.353 76.1957 162.096 76.3521 161.922 76.5842C161.693 77.014 162.102 77.5226 162.524 77.7662C163.444 78.2648 164.494 78.4674 165.533 78.3465C166.564 78.2077 167.579 77.9677 168.563 77.6301" fill="#FFA8A7"/>
<path d="M168.555 77.6587C168.387 77.765 168.203 77.8447 168.011 77.8952C167.502 78.0751 166.983 78.2257 166.456 78.3465C165.663 78.5322 164.843 78.5759 164.035 78.4754C163.552 78.406 163.083 78.2609 162.645 78.0456C162.395 77.9354 162.171 77.7744 161.986 77.5728C161.874 77.464 161.788 77.3318 161.733 77.1856C161.679 77.0394 161.657 76.8829 161.671 76.7274C161.71 76.5714 161.788 76.4281 161.898 76.3113C162.009 76.1946 162.148 76.1084 162.301 76.0612C162.559 75.9681 162.796 75.9108 163.018 75.8391L164.364 75.4523L166.664 74.8219C167.365 74.5955 168.084 74.4301 168.813 74.3276C168.146 74.621 167.456 74.8606 166.75 75.044L164.472 75.7603L163.125 76.1687C162.674 76.3191 162.079 76.4051 162.036 76.7704C162.035 76.8693 162.054 76.9675 162.092 77.0587C162.13 77.15 162.187 77.2323 162.258 77.3006C162.412 77.467 162.597 77.601 162.803 77.6946C163.203 77.8989 163.634 78.0391 164.078 78.1101C164.849 78.2236 165.633 78.2091 166.399 78.0671C167.724 77.845 168.534 77.5943 168.555 77.6587Z" fill="#F28F8F"/>
<path d="M251.498 191.842C254.095 192.016 256.689 191.449 258.977 190.205C261.264 188.961 263.151 187.093 264.417 184.817C265.683 182.542 266.276 179.954 266.127 177.355C265.978 174.755 265.093 172.252 263.576 170.136C261.634 167.421 258.776 165.515 255.989 163.689L245.96 157.076L249.019 183.002L251.469 191.857" fill="url(#paint2_linear_473_9200)"/>
<path d="M265.74 174.678C265.616 174.935 265.432 175.159 265.203 175.33C264.598 175.831 263.88 176.176 263.111 176.333C261.177 176.791 258.34 176.39 255.703 174.964C253.488 173.708 251.492 172.099 249.793 170.201C249.127 169.484 248.611 168.904 248.26 168.488C248.064 168.284 247.889 168.061 247.737 167.822C247.967 167.987 248.177 168.18 248.361 168.395L249.98 170.014C251.711 171.832 253.697 173.388 255.875 174.635C258.043 175.881 260.559 176.384 263.039 176.068C263.78 175.943 264.483 175.651 265.095 175.215C265.532 174.9 265.718 174.656 265.74 174.678Z" fill="#263238"/>
<path d="M240.044 127.784L240.76 113.005C240.76 113.005 235.681 108.757 237.343 89.658L234.9 88.9416C234.9 88.9416 233.396 112.983 221.203 111.93C209.01 110.877 213.323 89.2711 213.323 89.2711C211.981 89.3435 210.705 89.8717 209.705 90.7683C209.612 90.8113 209.168 98.6485 208.924 105.318C207.586 107.678 206.917 110.358 206.99 113.069C207.116 115.135 207.911 117.104 209.254 118.678C209.583 123.199 209.913 129.202 209.913 129.202L205.163 141.495L206.302 145.829L241.14 145.442L242.171 140.807L240.044 127.784Z" fill="#455A64"/>
<path d="M234.793 111.199C234.679 111.72 234.451 112.209 234.127 112.632C233.668 113.349 233.224 113.929 233.138 113.879C233.052 113.829 233.346 113.162 233.804 112.446C234.263 111.73 234.707 111.142 234.793 111.199Z" fill="white"/>
<path d="M236.253 123.629C236.174 123.7 235.536 123.142 234.756 122.375C234.256 121.951 233.838 121.439 233.523 120.863C233.602 120.785 234.24 121.351 235.021 122.11C235.522 122.536 235.939 123.051 236.253 123.629Z" fill="white"/>
<path d="M216.123 114.294C215.074 115.268 213.861 116.048 212.541 116.601C213.59 115.628 214.803 114.847 216.123 114.294Z" fill="white"/>
<path d="M229.727 106.444C228.678 107.417 227.466 108.198 226.146 108.75C227.195 107.777 228.407 106.996 229.727 106.444Z" fill="white"/>
<path d="M210.636 113.413C210.06 113.293 209.518 113.049 209.046 112.697C208.215 112.217 207.613 111.758 207.613 111.672C208.189 111.793 208.731 112.038 209.204 112.389C210.056 112.869 210.687 113.327 210.636 113.413Z" fill="white"/>
<path d="M210.758 98.491C210.909 99.1412 210.943 99.8132 210.858 100.475C210.887 101.141 210.795 101.806 210.586 102.438C210.425 101.792 210.391 101.12 210.486 100.461C210.45 99.793 210.542 99.1242 210.758 98.491Z" fill="white"/>
<path d="M217.758 101.491C217.909 102.141 217.943 102.813 217.858 103.475C217.887 104.141 217.795 104.806 217.586 105.438C217.425 104.792 217.391 104.12 217.486 103.461C217.45 102.793 217.542 102.124 217.758 101.491Z" fill="white"/>
<path d="M231.361 93.6404C231.512 94.2907 231.546 94.9626 231.462 95.6248C231.49 96.2902 231.398 96.9553 231.189 97.5877C231.029 96.9412 230.995 96.2699 231.089 95.6105C231.053 94.9424 231.146 94.2737 231.361 93.6404Z" fill="white"/>
<path d="M239.139 97.6431C239.232 97.6933 239.046 98.2449 238.731 98.8824C238.415 99.52 238.079 100 238.014 99.957C237.95 99.914 238.107 99.3553 238.423 98.7177C238.738 98.0801 239.046 97.6001 239.139 97.6431Z" fill="white"/>
<path d="M223.323 120.548C222.912 119.544 222.738 118.458 222.815 117.375C223.224 118.38 223.399 119.465 223.323 120.548Z" fill="white"/>
<path d="M231.239 110.82C231.282 110.913 230.952 111.164 230.522 111.371C230.092 111.579 229.67 111.687 229.627 111.594C229.584 111.5 229.913 111.25 230.343 111.035C230.773 110.82 231.196 110.727 231.239 110.82Z" fill="white"/>
<path d="M239.8 116.379C239.836 116.472 239.47 116.68 238.99 116.83C238.51 116.981 238.095 117.031 238.059 116.938C238.023 116.845 238.396 116.63 238.876 116.479C239.356 116.329 239.771 116.279 239.8 116.379Z" fill="white"/>
<path d="M213.889 110.641C213.803 110.691 213.402 110.182 212.993 109.495C212.585 108.807 212.327 108.205 212.413 108.155C212.499 108.105 212.907 108.613 213.316 109.301C213.724 109.989 213.968 110.591 213.889 110.641Z" fill="white"/>
<path d="M227.492 102.79C227.406 102.84 227.005 102.332 226.597 101.644C226.188 100.956 225.931 100.355 226.017 100.304C226.102 100.254 226.511 100.763 226.919 101.451C227.327 102.138 227.571 102.74 227.492 102.79Z" fill="white"/>
<path d="M220.889 113.641C220.803 113.691 220.402 113.182 219.993 112.495C219.585 111.807 219.327 111.205 219.413 111.155C219.499 111.105 219.907 111.613 220.316 112.301C220.724 112.989 220.968 113.591 220.889 113.641Z" fill="white"/>
<path d="M234.492 105.79C234.406 105.84 234.005 105.332 233.597 104.644C233.188 103.956 232.931 103.355 233.017 103.304C233.102 103.254 233.511 103.763 233.919 104.451C234.327 105.138 234.571 105.74 234.492 105.79Z" fill="white"/>
<path d="M214.383 121.315C214.29 121.358 214.111 121.136 213.889 120.899C213.667 120.663 213.466 120.448 213.517 120.355C213.567 120.262 213.896 120.355 214.161 120.648C214.426 120.942 214.484 121.286 214.383 121.315Z" fill="white"/>
<path d="M209.926 138.357C209.858 137.841 209.912 137.316 210.084 136.824C210.277 136.001 210.514 135.356 210.614 135.392C210.682 135.908 210.626 136.434 210.449 136.925C210.263 137.734 210.027 138.379 209.926 138.357Z" fill="white"/>
<path d="M217.405 138.622C217.333 138.687 216.781 138.221 216.18 137.569C215.578 136.918 215.155 136.33 215.234 136.266C215.313 136.201 215.857 136.667 216.459 137.319C217.061 137.971 217.469 138.551 217.405 138.622Z" fill="white"/>
<path d="M213.996 142.613C213.996 142.713 213.358 142.613 212.642 142.333C211.925 142.054 211.381 141.796 211.417 141.696C211.453 141.596 212.054 141.696 212.771 141.982C213.487 142.269 214.031 142.498 213.996 142.613Z" fill="white"/>
<path d="M223.767 137.519C223.714 138.052 223.537 138.564 223.251 139.016C222.872 139.797 222.485 140.392 222.392 140.349C222.449 139.817 222.628 139.304 222.915 138.852C223.294 138.071 223.674 137.483 223.767 137.519Z" fill="white"/>
<path d="M232.163 139.418C231.896 140.132 231.39 140.732 230.73 141.115C230.141 141.591 229.403 141.845 228.646 141.832C228.646 141.724 229.555 141.452 230.522 140.779C231.49 140.105 232.07 139.36 232.163 139.418Z" fill="white"/>
<path d="M239.011 141.782C238.232 141.392 237.509 140.898 236.862 140.313C236.136 139.82 235.482 139.226 234.921 138.551C235.7 138.926 236.424 139.409 237.07 139.984C237.803 140.483 238.457 141.089 239.011 141.782Z" fill="white"/>
<path d="M228.265 129.962C227.792 130.596 227.225 131.154 226.582 131.616C226.021 132.174 225.372 132.636 224.662 132.985C225.135 132.35 225.703 131.792 226.346 131.33C226.907 130.772 227.555 130.31 228.265 129.962Z" fill="white"/>
<path d="M217.871 130.32C217.269 129.937 216.738 129.452 216.303 128.887C215.775 128.419 215.336 127.861 215.006 127.239C215.605 127.609 216.136 128.079 216.575 128.629C217.101 129.114 217.54 129.686 217.871 130.32Z" fill="white"/>
<path d="M227.729 125.305C227.169 125.655 226.55 125.898 225.902 126.021C225.285 126.26 224.629 126.383 223.968 126.387C225.141 125.788 226.417 125.418 227.729 125.298V125.305Z" fill="white"/>
<path d="M236.813 131.752C236.357 131.255 235.997 130.677 235.753 130.047C235.403 129.473 235.16 128.839 235.036 128.178C235.492 128.675 235.852 129.253 236.096 129.883C236.446 130.457 236.689 131.091 236.813 131.752Z" fill="white"/>
<path d="M211.223 127.977C211.341 128.604 211.341 129.248 211.223 129.876C211.221 130.514 211.097 131.146 210.858 131.738C210.731 131.112 210.731 130.466 210.858 129.84C210.856 129.201 210.98 128.568 211.223 127.977Z" fill="white"/>
<path d="M212.341 74.4779C210.573 74.7483 208.769 74.6532 207.04 74.1985C206.186 73.9601 205.394 73.5377 204.721 72.961C204.048 72.3843 203.509 71.6673 203.142 70.8602C202.796 70.0375 202.736 69.1226 202.971 68.2616C203.206 67.4006 203.723 66.6432 204.439 66.1106C205.156 65.6521 206.094 65.3942 206.423 64.6134C206.753 63.8325 206.158 62.8224 205.743 61.9699C205.194 60.8328 205.024 59.5498 205.257 58.3088C205.49 57.0678 206.114 55.9342 207.039 55.0739C207.963 54.2137 209.139 53.6721 210.393 53.5285C211.648 53.3849 212.915 53.6469 214.01 54.276C214.178 52.3097 215.069 50.4757 216.512 49.1286C217.954 47.7815 219.844 47.017 221.817 46.9832C223.791 46.9493 225.706 47.6484 227.194 48.9452C228.681 50.242 229.635 52.0444 229.871 54.0038C230.007 55.1428 229.914 56.3678 230.494 57.3636C231.153 58.4955 232.507 59.0113 233.424 59.9497C235.208 61.7765 234.964 64.771 234.14 67.1923C233.316 69.6137 232.034 71.9777 232.113 74.5352" fill="#263238"/>
<path d="M219.154 88.698C218.982 86.1692 218.788 83.8624 218.788 83.8624C218.788 83.8624 213.53 83.4398 213.057 78.2388C212.585 73.0379 212.642 61.0458 212.642 61.0458L222.084 56.1385L231.619 63.8611L231.791 88.218C231.804 89.8284 231.203 91.3833 230.11 92.5664C229.018 93.7495 227.516 94.4719 225.909 94.5866C224.233 94.7007 222.579 94.1446 221.313 93.0404C220.046 91.9363 219.269 90.3744 219.154 88.698Z" fill="#FFA8A7"/>
<path d="M221.845 76.5264L217.421 77.0449C217.414 77.3902 217.468 77.7284 217.578 78.0396C217.688 78.3507 217.852 78.6283 218.061 78.8557C218.269 79.083 218.518 79.2556 218.793 79.363C219.067 79.4704 219.361 79.5104 219.657 79.4806C220.258 79.3831 220.819 79.0224 221.226 78.4727C221.633 77.923 221.855 77.2264 221.845 76.5264Z" fill="#B16668"/>
<path d="M218.692 79.3097C218.888 78.63 219.272 78.0431 219.767 77.6695C220.261 77.296 220.828 77.1642 221.351 77.3013C221.481 77.3425 221.606 77.3979 221.726 77.467C221.542 77.997 221.249 78.4663 220.882 78.8211C220.515 79.1759 220.089 79.402 219.652 79.4734C219.318 79.517 218.989 79.461 218.692 79.3097Z" fill="#F28F8F"/>
<path d="M219.642 68.703L221.225 74.8922L217.501 74.6563L219.642 68.703Z" fill="#F28F8F"/>
<path d="M213.924 69.757C213.934 69.8868 213.981 70.0109 214.061 70.1139C214.14 70.2169 214.248 70.2944 214.371 70.3367C214.494 70.3791 214.627 70.3845 214.753 70.3522C214.879 70.3199 214.993 70.2514 215.081 70.1552C215.168 70.0589 215.226 69.9391 215.246 69.8105C215.266 69.6819 215.249 69.5502 215.195 69.4317C215.141 69.3132 215.054 69.2129 214.944 69.1435C214.834 69.074 214.706 69.0382 214.576 69.0406C214.485 69.0423 214.396 69.0625 214.313 69.0999C214.23 69.1374 214.156 69.1913 214.095 69.2584C214.034 69.3254 213.988 69.4042 213.958 69.49C213.929 69.5757 213.917 69.6666 213.924 69.757Z" fill="#263238"/>
<path d="M213.265 69.0478C213.351 69.1337 213.831 68.7039 214.547 68.6466C215.263 68.5893 215.815 68.926 215.887 68.8257C215.958 68.7254 215.829 68.6251 215.586 68.4675C215.263 68.2723 214.886 68.1845 214.511 68.2167C214.135 68.2489 213.779 68.3994 213.494 68.6466C213.286 68.84 213.222 69.012 213.265 69.0478Z" fill="#263238"/>
<path d="M221.647 69.5707C221.648 69.6585 221.666 69.7452 221.701 69.8258C221.736 69.9063 221.787 69.9791 221.85 70.0398C221.913 70.1005 221.988 70.148 222.07 70.1794C222.152 70.2108 222.24 70.2255 222.327 70.2226C222.504 70.2226 222.674 70.1524 222.799 70.0275C222.923 69.9025 222.994 69.7331 222.994 69.5564C222.994 69.3797 222.923 69.2102 222.799 69.0853C222.674 68.9603 222.504 68.8901 222.327 68.8901C222.237 68.8871 222.147 68.9027 222.063 68.9358C221.98 68.969 221.903 69.019 221.84 69.0828C221.776 69.1466 221.726 69.2228 221.693 69.3068C221.659 69.3907 221.644 69.4805 221.647 69.5707Z" fill="#263238"/>
<path d="M221.209 68.8544C221.302 68.9403 221.782 68.5105 222.499 68.4532C223.215 68.3959 223.759 68.7326 223.831 68.6323C223.903 68.532 223.774 68.4317 223.537 68.2741C223.224 68.0743 222.856 67.9767 222.484 67.9947C222.107 68.0206 221.749 68.1719 221.467 68.4246C221.238 68.6466 221.166 68.8186 221.209 68.8544Z" fill="#263238"/>
<path d="M218.788 83.8625C221.26 83.7012 223.634 82.8362 225.63 81.3695C225.63 81.3695 224.161 85.2308 218.939 85.1377L218.788 83.8625Z" fill="#F28F8F"/>
<path d="M210.306 62.6075C211.939 64.1262 214.504 64.3411 216.595 63.5674C218.675 62.6881 220.467 61.2438 221.768 59.3981C222.677 60.286 223.793 60.9326 225.015 61.2792C226.238 61.6257 227.527 61.6612 228.767 61.3825C229.139 66.1177 229.963 69.0119 231.74 73.7615C231.74 73.7615 231.324 75.8318 231.955 75.5453C232.564 72.2643 233.144 68.7683 233.753 65.516C233.968 64.3268 234.183 63.0516 233.71 61.9341C233.237 60.8165 232.019 60.007 230.973 59.2405C229.677 58.2877 228.487 57.1845 227.169 56.2675C225.881 55.2848 224.351 54.6663 222.742 54.4766C221.097 54.4685 219.467 54.7926 217.949 55.4294C216.146 55.932 214.447 56.7546 212.935 57.8579C211.502 59.0471 210.485 60.9383 210.857 62.7651" fill="#263238"/>
<path d="M231.647 68.8042C232.171 68.5593 232.734 68.4089 233.309 68.36C233.6 68.3415 233.891 68.3975 234.155 68.5229C234.418 68.6483 234.645 68.8388 234.814 69.0764C235.027 69.4555 235.081 69.9039 234.964 70.3229C234.882 70.661 234.725 70.9765 234.506 71.2465C234.286 71.5165 234.009 71.7342 233.695 71.8838C233.381 72.0333 233.037 72.111 232.689 72.1112C232.341 72.1113 231.998 72.0339 231.683 71.8846" fill="#FFA8A7"/>
<path d="M224.232 67.5363C224.311 67.5363 224.368 67.8944 224.082 68.1953C223.795 68.4962 223.423 68.4532 223.43 68.3673C223.437 68.2813 223.666 68.1953 223.86 67.9804C224.053 67.7655 224.139 67.5363 224.232 67.5363Z" fill="#263238"/>
<path d="M205.664 150.378L196.652 286.261C195.986 286.383 187.532 287.988 187.754 289.22C187.976 290.452 209.41 289.736 209.41 289.736L222.019 171.655L241.64 148.494L205.664 150.378Z" fill="#FFA8A7"/>
<path d="M194.36 288.933C194.252 288.933 194.081 288.116 193.472 287.307C192.863 286.497 192.132 286.075 192.182 285.974C192.814 286.165 193.367 286.558 193.755 287.092C194.143 287.626 194.345 288.273 194.331 288.933H194.36Z" fill="#263238"/>
<path d="M209.59 285.158C205.812 285.034 202.108 286.224 199.109 288.525C199.454 288.084 199.871 287.704 200.342 287.4C201.432 286.609 202.641 285.995 203.923 285.58C205.212 285.162 206.559 284.954 207.914 284.964C208.479 284.936 209.046 285.001 209.59 285.158Z" fill="#263238"/>
<path d="M209.662 283.675C207.455 283.798 205.242 283.798 203.035 283.675C200.824 283.679 198.614 283.559 196.416 283.317C198.623 283.191 200.835 283.191 203.043 283.317C205.254 283.315 207.464 283.434 209.662 283.675Z" fill="#263238"/>
<path d="M187.068 288.689C186.978 289.042 186.977 289.438 187.066 289.792C187.154 290.146 187.325 290.431 187.542 290.587C187.998 290.845 188.494 290.845 188.949 290.587C189.401 290.343 189.872 290.195 190.348 290.146C191.334 290.146 192.236 291.37 193.215 291.162C193.804 291.052 194.323 290.44 194.904 290.293C195.937 290.048 196.907 291.272 197.962 291.26C199.017 291.248 199.973 290.036 201.02 290.134C202.068 290.232 202.786 291.493 203.742 291.517C204.507 291.517 205.179 290.795 205.928 290.746C206.953 290.685 207.916 291.897 208.925 291.591C209.128 291.532 209.319 291.402 209.486 291.209C209.653 291.016 209.79 290.766 209.889 290.477C209.983 290.182 210.018 289.848 209.991 289.52C209.964 289.192 209.875 288.885 209.736 288.64" fill="#263238"/>
<path d="M251.635 281.411L251.449 281.461L245.56 233.915L239.994 150.815L223.768 166.167C223.367 166.919 228.861 233.17 230.029 237.805C231.132 242.161 238.002 279.849 238.833 284.406C237.866 284.893 230.617 288.568 231.154 289.657C231.691 290.746 252.122 284.212 252.122 284.212L251.635 281.411Z" fill="#FFA8A7"/>
<path d="M241.111 142.842L206.274 143.236L192.298 250.144C192.298 250.144 189.583 261.606 203.173 262.158C216.763 262.709 223.16 256.763 234.5 261.14C241.865 264.006 252.539 258.683 252.016 257.473C245.719 242.98 248.791 162.234 241.111 142.842Z" fill="#263238"/>
<path d="M250.117 203.614C250.117 203.614 250.06 203.413 249.974 203.034C249.888 202.654 249.766 202.081 249.572 201.365C248.986 199.351 248.253 197.383 247.38 195.476C246.01 192.65 244.814 189.744 243.798 186.772C242.746 183.072 242.138 179.261 241.986 175.417C241.75 171.334 241.735 167.444 241.499 163.955C241.339 160.817 240.895 157.7 240.174 154.642C239.682 152.592 238.976 150.599 238.067 148.696C237.745 148.023 237.473 147.514 237.272 147.178C237.162 147.009 237.071 146.829 237 146.64C237.122 146.798 237.234 146.963 237.337 147.135C237.651 147.618 237.938 148.117 238.196 148.632C239.169 150.516 239.922 152.507 240.439 154.564C241.201 157.617 241.68 160.735 241.871 163.877C242.129 167.415 242.151 171.305 242.387 175.339C242.534 179.16 243.125 182.951 244.149 186.636C245.144 189.597 246.304 192.501 247.624 195.333C248.492 197.265 249.199 199.266 249.737 201.314C249.909 202.031 250.031 202.611 250.081 203.005C250.113 203.206 250.125 203.41 250.117 203.614Z" fill="#455A64"/>
<path d="M219.225 162.191C219.225 162.191 219.175 162.249 219.039 162.299C218.839 162.371 218.625 162.393 218.415 162.363C218.028 162.293 217.668 162.117 217.373 161.856C217.079 161.594 216.862 161.257 216.746 160.88C216.492 159.784 216.424 158.653 216.546 157.535C216.582 156.274 216.625 154.906 216.668 153.473C216.768 150.608 216.875 147.986 216.968 146.094C217.026 145.213 217.069 144.468 217.104 143.859C217.111 143.584 217.144 143.311 217.205 143.043C217.255 143.314 217.27 143.591 217.248 143.866C217.248 144.475 217.248 145.22 217.248 146.102C217.248 147.993 217.155 150.6 217.054 153.487C217.004 154.92 216.954 156.288 216.904 157.542C216.771 158.625 216.807 159.722 217.011 160.794C217.102 161.139 217.283 161.453 217.534 161.704C217.786 161.956 218.1 162.136 218.444 162.227C218.704 162.263 218.969 162.251 219.225 162.191Z" fill="#455A64"/>
<path d="M219.154 144.862C219.111 144.862 219.44 144.576 219.963 144.805C220.112 144.87 220.243 144.969 220.347 145.093C220.452 145.217 220.526 145.364 220.565 145.521C220.597 145.732 220.557 145.948 220.452 146.134C220.347 146.32 220.182 146.465 219.985 146.546C219.795 146.646 219.576 146.678 219.366 146.635C219.155 146.592 218.966 146.477 218.831 146.309C218.744 146.163 218.697 145.996 218.697 145.826C218.697 145.655 218.744 145.488 218.831 145.342C218.879 145.244 218.947 145.158 219.031 145.089C219.115 145.019 219.213 144.969 219.319 144.941C219.469 144.905 219.548 144.941 219.548 144.941C219.548 144.941 219.218 145.02 219.075 145.435C219.033 145.54 219.017 145.652 219.027 145.764C219.037 145.876 219.073 145.985 219.132 146.08C219.223 146.174 219.343 146.235 219.473 146.253C219.603 146.272 219.735 146.246 219.849 146.18C219.974 146.134 220.081 146.048 220.153 145.936C220.226 145.823 220.26 145.69 220.25 145.557C220.23 145.441 220.185 145.332 220.118 145.235C220.051 145.139 219.964 145.058 219.863 144.998C219.469 144.805 219.168 144.919 219.154 144.862Z" fill="#455A64"/>
<path d="M241.92 152.141C241.72 152.201 241.513 152.232 241.304 152.234C240.734 152.268 240.162 152.268 239.592 152.234C237.685 152.176 235.831 151.593 234.233 150.55C233.445 150.003 232.782 149.295 232.288 148.473C231.793 147.65 231.48 146.732 231.368 145.779C231.306 145.202 231.355 144.619 231.511 144.06C231.552 143.852 231.635 143.654 231.755 143.48C231.595 144.225 231.551 144.991 231.626 145.75C231.772 146.651 232.098 147.512 232.584 148.284C233.07 149.056 233.706 149.722 234.455 150.242C236.003 151.246 237.78 151.84 239.62 151.969C241.032 152.119 241.92 152.076 241.92 152.141Z" fill="#263238"/>
<path d="M209.152 142.914C209.152 142.914 209.231 143.093 209.303 143.429C209.384 143.903 209.432 144.382 209.446 144.862C209.488 146.495 209.203 148.119 208.608 149.64C208.085 151.206 207.107 152.58 205.8 153.588C205.381 153.871 204.903 154.054 204.403 154.125C204.224 154.169 204.037 154.169 203.858 154.125C204.502 154.024 205.114 153.779 205.649 153.409C206.85 152.375 207.753 151.04 208.264 149.54C208.835 148.057 209.145 146.487 209.181 144.898C209.217 143.68 209.088 142.921 209.152 142.914Z" fill="#263238"/>
<path d="M253.697 194.794C253.157 195.381 252.54 195.892 251.863 196.313C250.015 197.472 247.933 198.206 245.767 198.462C242.56 198.818 239.318 198.663 236.16 198.003C232.578 197.401 228.71 196.413 224.555 196.377C220.4 196.341 216.56 197.609 213.093 198.526C211.445 198.982 209.77 199.334 208.078 199.579C206.586 199.767 205.077 199.796 203.579 199.665C201.395 199.516 199.288 198.797 197.468 197.581C197.187 197.388 196.919 197.178 196.666 196.95C196.475 196.788 196.296 196.614 196.129 196.427C195.985 196.281 195.851 196.125 195.728 195.961C196.301 196.502 196.912 197.002 197.554 197.459C199.374 198.611 201.457 199.282 203.608 199.407C205.087 199.516 206.573 199.471 208.042 199.271C209.734 199.014 211.408 198.655 213.057 198.197C216.538 197.294 220.392 195.99 224.633 196.047C228.874 196.105 232.75 197.093 236.296 197.709C239.421 198.379 242.63 198.557 245.81 198.24C247.95 198.009 250.017 197.322 251.87 196.227C253.081 195.367 253.661 194.729 253.697 194.794Z" fill="#263238"/>
<path d="M240.208 144.002C240.115 144.06 239.914 143.902 239.757 143.659C239.599 143.415 239.542 143.164 239.628 143.107C239.714 143.05 239.914 143.2 240.072 143.451C240.23 143.702 240.294 143.931 240.208 144.002Z" fill="#455A64"/>
<path d="M242.156 148C242.063 148.043 241.791 147.613 241.547 147.054C241.304 146.496 241.182 146.008 241.268 145.958C241.354 145.908 241.64 146.338 241.884 146.911C242.127 147.484 242.256 147.964 242.156 148Z" fill="#455A64"/>
<path d="M243.46 152.262C243.36 152.262 243.152 151.825 242.994 151.231C242.837 150.636 242.787 150.142 242.887 150.106C242.987 150.07 243.195 150.536 243.352 151.138C243.51 151.739 243.56 152.234 243.46 152.262Z" fill="#455A64"/>
<path d="M244.263 156.639C244.163 156.639 244.005 156.174 243.905 155.565C243.805 154.956 243.819 154.462 243.905 154.44C243.991 154.419 244.163 154.899 244.263 155.508C244.363 156.117 244.363 156.625 244.263 156.639Z" fill="#455A64"/>
<path d="M243.081 163.898C242.981 163.898 242.852 163.418 242.802 162.809C242.752 162.2 242.802 161.692 242.895 161.677C242.988 161.663 243.117 162.157 243.175 162.773C243.232 163.389 243.21 163.891 243.081 163.898Z" fill="#455A64"/>
<path d="M243.36 168.347C243.253 168.347 243.152 167.86 243.117 167.243C243.081 166.627 243.117 166.126 243.246 166.119C243.375 166.112 243.461 166.613 243.489 167.229C243.518 167.845 243.461 168.347 243.36 168.347Z" fill="#455A64"/>
<path d="M243.584 172.795C243.484 172.795 243.369 172.308 243.34 171.692C243.312 171.076 243.34 170.575 243.462 170.575C243.584 170.575 243.677 171.062 243.713 171.678C243.749 172.294 243.684 172.788 243.584 172.795Z" fill="#455A64"/>
<path d="M243.942 177.237C243.834 177.237 243.705 176.757 243.648 176.148C243.591 175.539 243.648 175.023 243.734 175.016C243.82 175.009 243.963 175.503 244.021 176.112C244.078 176.721 244.042 177.223 243.942 177.237Z" fill="#455A64"/>
<path d="M244.586 181.643C244.486 181.643 244.321 181.184 244.221 180.575C244.12 179.966 244.113 179.458 244.221 179.443C244.328 179.429 244.493 179.909 244.593 180.511C244.693 181.113 244.686 181.621 244.586 181.643Z" fill="#455A64"/>
<path d="M245.689 185.955C245.596 185.991 245.374 185.533 245.202 184.938C245.03 184.344 244.972 183.842 245.073 183.821C245.173 183.799 245.388 184.25 245.56 184.838C245.732 185.425 245.789 185.927 245.689 185.955Z" fill="#455A64"/>
<path d="M248.991 187.236C248.905 187.286 248.597 186.878 248.339 186.312C248.081 185.746 247.959 185.252 248.053 185.216C248.146 185.18 248.425 185.595 248.676 186.154C248.927 186.713 249.106 187.186 248.991 187.236Z" fill="#455A64"/>
<path d="M251.139 191.147C251.046 191.198 250.731 190.803 250.423 190.266C250.115 189.729 249.957 189.249 250.05 189.199C250.143 189.149 250.451 189.55 250.766 190.087C251.082 190.624 251.232 191.104 251.139 191.147Z" fill="#455A64"/>
<path d="M252.96 195.209C252.859 195.245 252.601 194.808 252.379 194.242C252.157 193.676 252.05 193.182 252.143 193.139C252.236 193.096 252.494 193.533 252.723 194.106C252.952 194.679 253.06 195.181 252.96 195.209Z" fill="#455A64"/>
<path d="M253.568 198.455C253.461 198.455 253.361 198.225 253.332 197.939C253.303 197.652 253.368 197.401 253.468 197.387C253.568 197.373 253.676 197.602 253.705 197.903C253.733 198.204 253.669 198.455 253.568 198.455Z" fill="#455A64"/>
<path d="M214.697 88.8915C214.697 88.8915 234.527 152.764 247.278 162.313L246.275 156.704C238.603 143.293 229.405 117.303 219.146 88.562C218.293 87.8957 215.077 88.1393 214.697 88.8915Z" fill="url(#paint3_linear_473_9200)"/>
<path d="M240.337 112.539L247.207 127.827C237.257 127.769 226.368 125.477 221.797 124.245C221.446 123.908 221.081 123.528 220.644 123.091C220.161 122.577 219.766 121.987 219.476 121.343C219.085 120.559 218.803 119.725 218.638 118.865C218.566 118.07 217.578 117.754 217.205 118.37C216.833 118.987 216.99 121.2 218.258 123.457C219.526 125.713 215.794 124.173 214.426 123.672C213.057 123.17 208.737 121.702 208.25 121.995C207.534 122.432 207.878 123.299 209.26 123.793C210.643 124.288 214.691 126.079 214.39 126.795C214.089 127.511 207.154 124.703 207.154 124.703C207.154 124.703 205.722 123.865 205.392 124.703C204.726 126.179 212.312 128.6 213.043 128.808C213.544 128.959 213.251 129.747 212.721 129.56C212.19 129.374 205.85 126.609 205.156 128.128C204.625 129.274 211.381 130.176 212.398 131.48C213.415 132.784 207.326 130.27 206.868 131.387C206.696 131.803 206.624 132.103 210.314 133.078C213.31 133.692 216.338 134.144 219.383 134.432C225.236 136.144 239.635 139.446 250.108 139.138C250.108 139.138 264.959 139.396 262.387 130.413C259.622 120.785 251.713 106.092 251.713 106.092L240.337 112.539Z" fill="#FFA8A7"/>
<path d="M247.207 127.827L240.337 112.539L251.713 106.092C251.713 106.092 259.622 120.785 262.387 130.413C264.959 139.396 250.109 139.138 250.109 139.138C239.635 139.446 230.353 137.853 224.5 136.14L226 124.64C230.57 125.873 237.257 127.769 247.207 127.827Z" fill="#455A64"/>
<path d="M232.514 71.5766C232.375 71.5582 232.235 71.5953 232.124 71.6798C232.012 71.7644 231.939 71.8895 231.919 72.0279C231.917 72.0962 231.929 72.1642 231.954 72.228C231.978 72.2918 232.015 72.35 232.063 72.3994C232.11 72.4487 232.167 72.4881 232.229 72.5153C232.292 72.5426 232.359 72.5571 232.428 72.558C232.497 72.5512 232.563 72.5302 232.624 72.4964C232.684 72.4625 232.737 72.4166 232.778 72.3614C232.82 72.3062 232.85 72.243 232.866 72.1758C232.882 72.1085 232.884 72.0387 232.872 71.9706C232.851 71.9054 232.818 71.8452 232.772 71.794C232.727 71.7428 232.672 71.7016 232.609 71.6733C232.547 71.6449 232.48 71.6299 232.412 71.6293C232.343 71.6287 232.275 71.6424 232.213 71.6697" fill="url(#paint4_linear_473_9200)"/>
<path d="M247.17 104.056C247.056 104.577 246.828 105.066 246.504 105.489C246.045 106.205 245.601 106.785 245.515 106.735C245.429 106.685 245.723 106.019 246.181 105.302C246.64 104.586 247.084 103.999 247.17 104.056Z" fill="white"/>
<path d="M257.861 127.091C257.371 127.3 256.84 127.399 256.308 127.38C255.458 127.423 254.728 127.398 254.719 127.299C254.71 127.2 255.423 127.052 256.272 127.01C257.122 126.967 257.858 126.987 257.861 127.091Z" fill="white"/>
<path d="M241.25 133.814C240.793 133.54 240.402 133.168 240.105 132.725C239.573 132.062 239.165 131.456 239.24 131.39C239.315 131.325 239.852 131.816 240.385 132.479C240.917 133.143 241.332 133.751 241.25 133.814Z" fill="white"/>
<path d="M248.631 116.485C248.552 116.557 247.914 115.998 247.134 115.232C246.634 114.807 246.216 114.295 245.901 113.72C245.98 113.641 246.618 114.207 247.399 114.966C247.9 115.392 248.317 115.907 248.631 116.485Z" fill="white"/>
<path d="M248.589 135.497C248.485 135.475 248.57 134.631 248.741 133.551C248.796 132.897 248.97 132.26 249.256 131.67C249.366 131.688 249.275 132.536 249.11 133.612C249.055 134.268 248.878 134.907 248.589 135.497Z" fill="white"/>
<path d="M229.006 131.229C228.963 131.131 229.696 130.706 230.672 130.21C231.234 129.872 231.852 129.64 232.498 129.526C232.547 129.625 231.808 130.049 230.839 130.546C230.275 130.885 229.654 131.116 229.006 131.229Z" fill="white"/>
<path d="M243.616 103.676C243.659 103.77 243.329 104.02 242.899 104.228C242.469 104.436 242.047 104.543 242.004 104.45C241.961 104.357 242.29 104.106 242.72 103.891C243.15 103.676 243.573 103.583 243.616 103.676Z" fill="white"/>
<path d="M256.106 123.977C256.055 124.066 255.66 123.943 255.241 123.714C254.822 123.484 254.489 123.203 254.54 123.114C254.591 123.025 254.987 123.147 255.411 123.372C255.836 123.598 256.157 123.888 256.106 123.977Z" fill="white"/>
<path d="M242.746 130.568C242.644 130.579 242.511 130.187 242.452 129.713C242.392 129.239 242.425 128.804 242.527 128.793C242.629 128.782 242.762 129.175 242.828 129.651C242.894 130.127 242.848 130.557 242.746 130.568Z" fill="white"/>
<path d="M252.178 109.235C252.214 109.329 251.848 109.536 251.368 109.687C250.888 109.837 250.473 109.887 250.437 109.794C250.401 109.701 250.774 109.486 251.254 109.336C251.734 109.185 252.149 109.135 252.178 109.235Z" fill="white"/>
<path d="M256.552 134.175C256.497 134.259 256.115 134.082 255.714 133.778C255.313 133.475 255.031 133.166 255.086 133.083C255.141 132.999 255.532 133.178 255.934 133.481C256.335 133.785 256.617 134.094 256.552 134.175Z" fill="white"/>
<path d="M234.743 136.906C234.644 136.91 234.564 136.498 234.574 135.995C234.585 135.492 234.67 135.082 234.77 135.078C234.87 135.074 234.954 135.495 234.944 135.998C234.933 136.501 234.848 136.911 234.743 136.906Z" fill="white"/>
<path d="M301.451 69.0048C301.451 69.0048 301.451 68.84 301.494 68.532C301.537 68.2239 301.573 67.7583 301.638 67.1708C301.638 66.87 301.731 66.5333 301.738 66.1607C301.745 65.7882 301.738 65.3799 301.738 64.9429C301.738 64.5059 301.738 64.0259 301.738 63.5101C301.738 62.9943 301.652 62.4714 301.602 61.8983C301.314 59.1271 300.588 56.419 299.453 53.8748C297.952 50.5118 295.755 47.5059 293.005 45.0562L291.83 44.0389C291.415 43.7237 290.978 43.4229 290.548 43.1148C289.657 42.483 288.726 41.9087 287.761 41.3955C285.698 40.3238 283.501 39.5335 281.228 39.0458C280.048 38.7792 278.851 38.5925 277.646 38.487C277.03 38.4154 276.4 38.444 275.769 38.4225H274.824C274.508 38.4225 274.193 38.4727 273.871 38.4942C271.236 38.6374 268.641 39.2009 266.184 40.1633C260.877 42.2031 256.38 45.9179 253.375 50.7443C250.185 55.9491 248.89 62.0955 249.707 68.1451C249.765 68.5463 249.829 68.9403 249.901 69.3271V69.4059L249.858 69.4704L241.419 81.1904L241.247 80.9038L253.698 78.9768H253.805L253.869 79.0699C257.455 84.4385 262.909 88.2816 269.171 89.8514C270.112 90.0996 271.07 90.2768 272.037 90.3815L273.47 90.5606C273.942 90.6179 274.415 90.5964 274.902 90.6179C278.452 90.7181 281.985 90.0891 285.283 88.7697C288.096 87.6371 290.698 86.0361 292.977 84.0344L294.445 82.6518L295.706 81.219C296.101 80.7652 296.467 80.2866 296.802 79.7863C297.124 79.3063 297.518 78.8765 297.755 78.4037C298.729 76.8448 299.543 75.1911 300.183 73.4678L300.828 71.5766C300.957 71.0178 301.072 70.545 301.158 70.1438L301.373 69.2842C301.423 69.0836 301.451 68.9904 301.451 68.9904C301.441 69.0893 301.424 69.1875 301.401 69.2842C301.358 69.4919 301.301 69.7856 301.222 70.1581C301.143 70.5307 301.036 71.025 300.914 71.5909L300.291 73.4965C299.672 75.2464 298.873 76.9271 297.905 78.5111C297.64 78.9911 297.275 79.4281 296.952 79.9439C296.618 80.4442 296.252 80.9228 295.856 81.3766L294.596 82.8094L293.127 84.2421C290.838 86.2753 288.219 87.9033 285.383 89.0562C282.062 90.3835 278.506 91.0174 274.931 90.9188C274.458 90.9188 273.971 90.9188 273.498 90.8686L272.065 90.6896C271.077 90.5859 270.098 90.4087 269.135 90.1594C267.138 89.664 265.203 88.943 263.369 88.0103C259.447 85.9565 256.097 82.9607 253.619 79.292L253.791 79.3636L241.34 81.305L240.91 81.3695L241.168 81.0113C243.897 77.2145 246.72 73.2959 249.593 69.2913V69.4346C249.521 69.0406 249.449 68.6394 249.392 68.2382C248.574 62.0986 249.897 55.8645 253.139 50.5867C256.183 45.6836 260.746 41.91 266.134 39.841C268.614 38.8673 271.232 38.2942 273.892 38.1432C274.215 38.1432 274.537 38.0858 274.859 38.0787H275.819C276.457 38.0787 277.087 38.0787 277.711 38.1432C278.94 38.2539 280.161 38.4478 281.364 38.7234C284.731 39.4717 287.91 40.9003 290.706 42.9214C291.143 43.2366 291.58 43.5446 292.002 43.8599L293.177 44.8986C298.102 49.2738 301.175 55.3598 301.774 61.9198C301.817 62.4929 301.86 63.0373 301.896 63.546C301.931 64.0546 301.896 64.5346 301.896 64.9787C301.896 65.4229 301.896 65.8312 301.896 66.2037C301.896 66.5762 301.81 66.9201 301.781 67.2138C301.702 67.8012 301.638 68.2597 301.595 68.5749C301.552 68.8901 301.451 69.0048 301.451 69.0048Z" fill="#263238"/>
<path d="M284.121 54.4622L287.259 78.2818H263.97L267.358 54.4622H284.121Z" fill="url(#paint5_linear_473_9200)"/>
<path d="M269.257 57.9151C269.562 58.7107 269.959 59.468 270.439 60.1717C270.98 60.9053 271.671 61.5158 272.466 61.9627C273.457 62.4849 274.563 62.7509 275.683 62.7364C276.8 62.7641 277.906 62.5182 278.906 62.02C279.711 61.5911 280.397 60.9712 280.905 60.2147C281.36 59.4955 281.719 58.72 281.973 57.908C282 58.1508 281.968 58.3965 281.879 58.6243C281.718 59.2439 281.465 59.8356 281.127 60.3795C280.622 61.1992 279.914 61.8752 279.071 62.3423C278.025 62.8886 276.856 63.1574 275.676 63.1232C274.497 63.1381 273.334 62.8469 272.301 62.2779C271.47 61.7978 270.759 61.1337 270.224 60.3365C269.865 59.8057 269.583 59.2269 269.386 58.6172C269.292 58.3953 269.248 58.1557 269.257 57.9151Z" fill="white"/>
<path d="M139.915 0.218018V57.1487L125.401 42.6348H19.7207V0.218018H139.915Z" fill="url(#paint6_linear_473_9200)"/>
<path d="M111.018 38.6769C119.865 38.6769 127.036 31.5052 127.036 22.6586C127.036 13.812 119.865 6.64038 111.018 6.64038C102.172 6.64038 95 13.812 95 22.6586C95 31.5052 102.172 38.6769 111.018 38.6769Z" fill="#85FFA9"/>
<path opacity="0.2" d="M111.018 38.6769C119.865 38.6769 127.036 31.5052 127.036 22.6586C127.036 13.812 119.865 6.64038 111.018 6.64038C102.172 6.64038 95 13.812 95 22.6586C95 31.5052 102.172 38.6769 111.018 38.6769Z" fill="black"/>
<path d="M30.832 17.6976C30.832 17.5686 43.2254 17.4612 58.5129 17.4612C73.8004 17.4612 86.1938 17.5686 86.1938 17.6976C86.1938 17.8265 73.8076 17.934 58.5129 17.934C43.2182 17.934 30.832 17.848 30.832 17.6976Z" fill="white"/>
<path d="M30.832 23.7941C30.832 23.6651 43.2254 23.5577 58.5129 23.5577C73.8004 23.5577 86.1938 23.6651 86.1938 23.7941C86.1938 23.923 73.8076 24.0233 58.5129 24.0233C43.2182 24.0233 30.832 23.923 30.832 23.7941Z" fill="white"/>
<path d="M57.4238 29.7901C57.4238 29.6611 63.8712 29.5536 71.8087 29.5536C79.7462 29.5536 86.1936 29.6611 86.1936 29.7901C86.1936 29.919 79.7462 30.0193 71.8087 30.0193C63.8712 30.0193 57.4238 29.919 57.4238 29.7901Z" fill="white"/>
<path d="M56.3213 11.4006C56.3213 11.2716 63.0123 11.1642 71.2578 11.1642C79.5033 11.1642 86.1943 11.2716 86.1943 11.4006C86.1943 11.5295 79.5105 11.637 71.2578 11.637C63.0051 11.637 56.3213 11.5582 56.3213 11.4006Z" fill="white"/>
<path d="M112.162 22.6262C112.867 22.2997 113.461 21.7733 113.87 21.1124C114.279 20.4515 114.484 19.685 114.462 18.9082C114.486 18.3997 114.405 17.8916 114.225 17.4152C114.046 16.9388 113.77 16.5043 113.417 16.1383C113.063 15.7723 112.638 15.4825 112.167 15.2869C111.697 15.0913 111.192 14.9939 110.683 15.0008C110.174 15.0076 109.672 15.1186 109.207 15.3268C108.743 15.535 108.325 15.836 107.981 16.2114C107.638 16.5868 107.374 17.0286 107.207 17.5097C107.04 17.9907 106.974 18.5008 107.011 19.0085C107.01 19.7929 107.242 20.5599 107.677 21.2127C108.112 21.8655 108.73 22.3748 109.454 22.6764C103.723 23.6435 104.11 29.8402 104.11 29.8402L117.671 29.6539C117.671 29.6539 117.843 23.3784 112.162 22.6262Z" fill="white"/>
<path d="M116.274 81.4482V104.802L110.321 98.849H66.9658V81.4482H116.274Z" fill="url(#paint7_linear_473_9200)"/>
<path d="M88.457 87.0288C88.457 86.9213 93.2639 86.8425 99.2027 86.8425C105.141 86.8425 109.948 86.9213 109.948 87.0288C109.948 87.1363 105.141 87.215 99.2027 87.215C93.2639 87.215 88.457 87.1291 88.457 87.0288Z" fill="white"/>
<path d="M102.965 91.8786C103.958 91.691 104.972 91.6285 105.981 91.6924C106.992 91.6284 108.008 91.691 109.004 91.8786C108.007 92.0622 106.992 92.1247 105.981 92.0649C104.972 92.1245 103.959 92.0619 102.965 91.8786Z" fill="white"/>
<path d="M101.538 93.2184C101.438 93.2184 101.266 92.9103 101.065 92.502C100.865 92.0936 100.7 91.7856 100.786 91.6996C100.872 91.6137 101.18 91.9002 101.395 92.3372C101.61 92.7742 101.639 93.1969 101.538 93.2184Z" fill="white"/>
<path d="M90.3848 91.7068C91.7616 91.5227 93.152 91.4604 94.5398 91.5205C95.9252 91.4603 97.3132 91.5226 98.6876 91.7068C97.3136 91.8952 95.9252 91.9576 94.5398 91.893C93.152 91.9574 91.7612 91.895 90.3848 91.7068Z" fill="white"/>
<path d="M89.3813 93.1323C89.2882 93.1824 89.0303 92.8672 88.7939 92.4159C88.5575 91.9646 88.45 91.5849 88.5432 91.5347C88.6363 91.4846 88.8942 91.807 89.1306 92.2511C89.367 92.6953 89.4744 93.0678 89.3813 93.1323Z" fill="white"/>
<path d="M77.3105 91.6351C78.7542 91.4466 80.2116 91.3843 81.6661 91.4488C83.123 91.3844 84.5828 91.4467 86.0289 91.6351C84.5824 91.8191 83.123 91.8814 81.6661 91.8213C80.2116 91.8816 78.7546 91.8193 77.3105 91.6351Z" fill="white"/>
<path d="M76.2296 92.3515C76.1436 92.4088 75.8786 92.1437 75.635 91.764C75.3914 91.3844 75.2697 91.0477 75.3556 90.9832C75.4416 90.9187 75.7066 91.1838 75.9502 91.5634C76.1938 91.9431 76.3442 92.3515 76.2296 92.3515Z" fill="white"/>
<path d="M71.3291 91.2912C71.3291 91.1838 71.9094 91.105 72.6257 91.105C73.3421 91.105 73.9296 91.1838 73.9296 91.2912C73.9296 91.3987 73.3421 91.4775 72.6257 91.4775C71.9094 91.4775 71.3291 91.3915 71.3291 91.2912Z" fill="white"/>
<path d="M232.56 69.2437C232.79 69.1628 233.317 69.0553 233.585 69.2722C233.919 69.5432 234 70.1404 233.541 70.8414C233.164 71.4173 232.849 71.3659 232.507 71.3564" stroke="#F28F8F" stroke-width="0.3" stroke-linecap="round"/>
<path d="M208.512 291.507C207.064 292.773 199.781 292.117 194.412 292.539C189.23 292.961 179.239 291.929 179.239 291.929C179.239 291.929 178.959 290.992 179.005 290.101C179.052 289.632 179.145 289.163 179.425 288.835C180.266 287.803 195.813 281.098 196.466 280.723C197.073 280.301 198.521 281.567 200.201 282.786C201.882 284.052 210.5 282.14 210.5 282.14C210.5 282.14 211.5 286.64 212 289.14C212.14 290.359 209.025 291.085 208.512 291.507Z" fill="#263238"/>
<path d="M212 289.64C209.5 293.14 207.5 292.64 194.412 292.535C189.23 292.973 179.239 291.902 179.239 291.902C179.239 291.902 178.959 290.928 179.005 290.003C182.46 289.857 204.917 288.831 211.5 286.64C212 287.64 212.5 288.64 212 289.64Z" fill="#455A64"/>
<path d="M189 284.307L190.826 286.64L192 286.265L190.478 283.64L189 284.307Z" fill="white"/>
<path d="M192 282.349L193.694 285.64L195 285.185L193.5 281.64L192 282.349Z" fill="white"/>
<path d="M184.993 290.64H184.766C184.902 288.429 182.5 287.14 182.5 287.14L183.5 286.64C183.5 286.64 185.129 288.287 184.993 290.64Z" fill="#455A64"/>
<path d="M250.825 288.944C249.588 290.416 242.29 290.879 237.048 292.116C231.991 293.324 221.959 293.83 221.959 293.83C221.959 293.83 221.539 292.946 221.449 292.059C221.424 291.588 221.445 291.111 221.671 290.743C222.345 289.596 236.686 280.596 237.274 280.125C237.81 279.616 239.433 280.646 241.28 281.594C243.135 282.589 251.36 279.383 251.36 279.383C251.36 279.383 253.035 283.678 253.911 286.072C254.235 287.256 251.268 288.449 250.825 288.944Z" fill="#263238"/>
<path d="M253.987 286.567C252.051 290.407 249.998 290.218 237.047 292.112C231.993 293.336 221.955 293.803 221.955 293.803C221.955 293.803 221.53 292.884 221.435 291.962C224.827 291.291 246.864 286.848 253.035 283.678C253.682 284.59 254.329 285.502 253.987 286.567Z" fill="#455A64"/>
<path d="M230.443 284.807L232.603 286.834L233.706 286.284L231.802 283.923L230.443 284.807Z" fill="white"/>
<path d="M233.108 282.414L235.284 285.408L236.506 284.758L234.482 281.485L233.108 282.414Z" fill="white"/>
<path d="M227.449 291.678L227.226 291.712C227.022 289.506 224.451 288.599 224.451 288.599L225.363 287.953C225.363 287.953 227.224 289.332 227.449 291.678Z" fill="#455A64"/>
<defs>
<linearGradient id="paint0_linear_473_9200" x1="116.288" y1="200.095" x2="92.6872" y2="193.459" gradientUnits="userSpaceOnUse">
<stop offset="0.431134" stop-color="#008954"/>
<stop offset="0.809708" stop-color="#09B975"/>
</linearGradient>
<linearGradient id="paint1_linear_473_9200" x1="165.561" y1="80.8896" x2="150.561" y2="75.4149" gradientUnits="userSpaceOnUse">
<stop offset="0.431134" stop-color="#008954"/>
<stop offset="0.809708" stop-color="#09B975"/>
</linearGradient>
<linearGradient id="paint2_linear_473_9200" x1="266.149" y1="191.873" x2="238.367" y2="184.054" gradientUnits="userSpaceOnUse">
<stop offset="0.431134" stop-color="#008954"/>
<stop offset="0.809708" stop-color="#09B975"/>
</linearGradient>
<linearGradient id="paint3_linear_473_9200" x1="247.278" y1="162.313" x2="200.997" y2="152.448" gradientUnits="userSpaceOnUse">
<stop offset="0.431134" stop-color="#008954"/>
<stop offset="0.809708" stop-color="#09B975"/>
</linearGradient>
<linearGradient id="paint4_linear_473_9200" x1="232.88" y1="72.558" x2="231.713" y2="72.0067" gradientUnits="userSpaceOnUse">
<stop offset="0.431134" stop-color="#008954"/>
<stop offset="0.809708" stop-color="#09B975"/>
</linearGradient>
<linearGradient id="paint5_linear_473_9200" x1="287.259" y1="78.2818" x2="259.024" y2="64.8908" gradientUnits="userSpaceOnUse">
<stop offset="0.431134" stop-color="#008954"/>
<stop offset="0.809708" stop-color="#09B975"/>
</linearGradient>
<linearGradient id="paint6_linear_473_9200" x1="139.915" y1="57.1487" x2="52.7899" y2="-32.0737" gradientUnits="userSpaceOnUse">
<stop offset="0.431134" stop-color="#008954"/>
<stop offset="0.809708" stop-color="#09B975"/>
</linearGradient>
<linearGradient id="paint7_linear_473_9200" x1="116.274" y1="104.802" x2="80.5341" y2="68.1996" gradientUnits="userSpaceOnUse">
<stop offset="0.431134" stop-color="#008954"/>
<stop offset="0.809708" stop-color="#09B975"/>
</linearGradient>
</defs>
</svg>
