<svg width="847" height="400" viewBox="0 0 847 400" fill="none" xmlns="http://www.w3.org/2000/svg">
<rect width="847" height="400" rx="10" fill="url(#paint0_linear_492_5906)"/>
<path d="M242.251 123.556C241.896 123.771 235.302 147.385 235.302 147.385H241.501V196.444H266.771V174.301L278.616 196.444H310.203L285.92 158.331L306.294 123.735H277.787L266.85 145.268L266.613 123.735L242.251 123.556Z" fill="white"/>
<path d="M320.433 146.38H314.312L320.433 123.556H344.32V154.814L365.681 123.556H390.399L389.727 174.804H396.519L390.241 195.798H365.366L365.208 166.406L344.794 195.798L320.275 196.444L320.433 146.38Z" fill="white"/>
<path fill-rule="evenodd" clip-rule="evenodd" d="M410.93 123.556L403.31 145.34L403.744 146.991H410.061V196.444H435.766L435.41 180.295H443.307C449.373 180.061 455.216 178.145 460.048 174.804C472.17 166.478 471.657 149.251 471.657 149.251C471.015 143.089 468.226 137.273 463.695 132.651C459.164 128.029 453.128 124.843 446.466 123.556H410.93ZM435.49 158.331V146.847H441.373C442.729 146.819 444.045 147.269 445.045 148.103C446.122 149.087 446.863 150.334 447.177 151.692C447.435 153.141 447.088 154.625 446.204 155.853C445.32 157.082 443.963 157.965 442.399 158.331C442.046 158.384 441.686 158.384 441.333 158.331H435.49Z" fill="white"/>
<path d="M477.738 145.017L484.884 123.556H537.438L532.463 146.237H508.772V196.444H484.569V146.847H477.738V145.017Z" fill="white"/>
<path d="M586.988 123.556H611.192L579.367 195.511L553.031 196.444L564.798 177.424L542.41 123.556H568.786L576.801 149.539L586.988 123.556Z" fill="white"/>
<path d="M214.47 246.4H222.39V267.12H211.67C213.79 263.12 214.47 258.2 214.47 252.76V246.4ZM210.31 242.52V250.92C210.31 257.68 209.31 263.28 206.83 267.12H204.35V277.4H208.55V271H225.83V277.4H230.07V267.12H226.71V242.52H210.31ZM250.442 260.84C250.442 257.44 249.962 254.88 248.042 252.88C246.722 251.52 244.722 250.48 241.962 250.48C239.202 250.48 237.242 251.52 235.922 252.88C234.002 254.88 233.522 257.44 233.522 260.84C233.522 264.28 234.002 266.84 235.922 268.84C237.242 270.2 239.202 271.24 241.962 271.24C244.722 271.24 246.722 270.2 248.042 268.84C249.962 266.84 250.442 264.28 250.442 260.84ZM246.362 260.84C246.362 263.04 246.202 265.16 244.962 266.4C244.202 267.16 243.162 267.6 241.962 267.6C240.762 267.6 239.762 267.16 239.002 266.4C237.762 265.16 237.602 263.04 237.602 260.84C237.602 258.64 237.762 256.52 239.002 255.28C239.762 254.52 240.762 254.12 241.962 254.12C243.162 254.12 244.202 254.52 244.962 255.28C246.202 256.52 246.362 258.64 246.362 260.84ZM276.127 271V250.72H272.127L266.087 262.8L260.007 250.72H255.967V271H260.047V258L264.807 267.28H267.367L272.047 258V271H276.127ZM287.166 273.4V266.36H282.526V277.2L287.166 273.4ZM319.314 265.28C319.314 262.96 318.194 261.44 316.154 260.52C318.034 259.64 318.994 258.2 318.994 256.16C318.994 252.88 316.594 250.72 312.874 250.72H303.154V271H313.194C316.994 271 319.314 268.8 319.314 265.28ZM314.994 256.44C314.994 258.12 313.954 259.04 311.994 259.04H307.194V253.92H311.994C313.914 253.92 314.994 254.84 314.994 256.44ZM315.314 265C315.314 266.72 314.154 267.8 312.234 267.8H307.194V262.2H312.234C314.154 262.2 315.314 263.24 315.314 265ZM338.76 271V250.72H334.64V271H338.76ZM352 271L343.32 260.24L351.4 250.72H346.52L338.8 260.44L347 271H352ZM370.403 260.84C370.403 257.44 369.923 254.88 368.003 252.88C366.683 251.52 364.683 250.48 361.923 250.48C359.163 250.48 357.203 251.52 355.883 252.88C353.963 254.88 353.483 257.44 353.483 260.84C353.483 264.28 353.963 266.84 355.883 268.84C357.203 270.2 359.163 271.24 361.923 271.24C364.683 271.24 366.683 270.2 368.003 268.84C369.923 266.84 370.403 264.28 370.403 260.84ZM366.323 260.84C366.323 263.04 366.163 265.16 364.923 266.4C364.163 267.16 363.123 267.6 361.923 267.6C360.723 267.6 359.723 267.16 358.963 266.4C357.723 265.16 357.563 263.04 357.563 260.84C357.563 258.64 357.723 256.52 358.963 255.28C359.723 254.52 360.723 254.12 361.923 254.12C363.123 254.12 364.163 254.52 364.923 255.28C366.163 256.52 366.323 258.64 366.323 260.84ZM389.652 254.28V250.72H372.932V254.28H379.372V271H383.452V254.28H389.652ZM409.309 260.84C409.309 257.44 408.829 254.88 406.909 252.88C405.589 251.52 403.589 250.48 400.829 250.48C398.069 250.48 396.109 251.52 394.789 252.88C392.869 254.88 392.389 257.44 392.389 260.84C392.389 264.28 392.869 266.84 394.789 268.84C396.109 270.2 398.069 271.24 400.829 271.24C403.589 271.24 405.589 270.2 406.909 268.84C408.829 266.84 409.309 264.28 409.309 260.84ZM405.229 260.84C405.229 263.04 405.069 265.16 403.829 266.4C403.069 267.16 402.029 267.6 400.829 267.6C399.629 267.6 398.629 267.16 397.869 266.4C396.629 265.16 396.469 263.04 396.469 260.84C396.469 258.64 396.629 256.52 397.869 255.28C398.629 254.52 399.629 254.12 400.829 254.12C402.029 254.12 403.069 254.52 403.829 255.28C405.069 256.52 405.229 258.64 405.229 260.84ZM431.434 260.84C431.434 257.52 431.114 254.28 429.154 252.28C428.034 251.16 426.274 250.48 424.194 250.48C422.034 250.48 420.354 251.04 418.834 252.88V250.72H414.834V279.2H418.914V268.92C420.394 270.72 422.074 271.24 424.234 271.24C426.314 271.24 428.034 270.56 429.154 269.44C431.114 267.44 431.434 264.16 431.434 260.84ZM427.354 260.84C427.354 264.44 426.834 267.6 423.154 267.6C419.434 267.6 418.914 264.44 418.914 260.84C418.914 257.24 419.434 254.12 423.154 254.12C426.834 254.12 427.354 257.24 427.354 260.84ZM452.903 260.84C452.903 257.44 452.423 254.88 450.503 252.88C449.183 251.52 447.183 250.48 444.423 250.48C441.663 250.48 439.703 251.52 438.383 252.88C436.463 254.88 435.983 257.44 435.983 260.84C435.983 264.28 436.463 266.84 438.383 268.84C439.703 270.2 441.663 271.24 444.423 271.24C447.183 271.24 449.183 270.2 450.503 268.84C452.423 266.84 452.903 264.28 452.903 260.84ZM448.823 260.84C448.823 263.04 448.663 265.16 447.423 266.4C446.663 267.16 445.623 267.6 444.423 267.6C443.223 267.6 442.223 267.16 441.463 266.4C440.223 265.16 440.063 263.04 440.063 260.84C440.063 258.64 440.223 256.52 441.463 255.28C442.223 254.52 443.223 254.12 444.423 254.12C445.623 254.12 446.663 254.52 447.423 255.28C448.663 256.52 448.823 258.64 448.823 260.84ZM478.588 271V250.72H474.588L468.548 262.8L462.468 250.72H458.428V271H462.508V258L467.268 267.28H469.828L474.508 258V271H478.588ZM510.877 262.04V260.32C510.877 254.4 507.717 250.48 502.277 250.48C497.077 250.48 493.677 254.24 493.677 260.84C493.677 268.56 497.717 271.24 502.797 271.24C506.357 271.24 508.317 270.16 510.397 268.08L507.797 265.64C506.357 267.08 505.157 267.72 502.877 267.72C499.517 267.72 497.717 265.56 497.717 262.04H510.877ZM506.837 259.2H497.717C497.757 257.96 497.837 257.32 498.237 256.44C498.917 254.92 500.317 253.88 502.277 253.88C504.197 253.88 505.597 254.92 506.277 256.44C506.677 257.32 506.757 257.96 506.837 259.2ZM530.959 268.36L528.159 265.68C526.879 267.08 525.879 267.6 524.279 267.6C522.719 267.6 521.399 266.96 520.519 265.8C519.639 264.68 519.319 263.2 519.319 260.84C519.319 258.48 519.639 257.04 520.519 255.92C521.399 254.76 522.719 254.12 524.279 254.12C525.879 254.12 526.879 254.64 528.159 256.04L530.959 253.32C529.039 251.28 527.079 250.48 524.279 250.48C519.719 250.48 515.239 253.24 515.239 260.84C515.239 268.44 519.719 271.24 524.279 271.24C527.079 271.24 529.039 270.4 530.959 268.36ZM549.808 254.28V250.72H533.088V254.28H539.528V271H543.608V254.28H549.808ZM569.506 264.68C569.506 260.92 566.866 258.36 562.946 258.36H557.586V250.72H553.506V271H562.946C566.866 271 569.506 268.44 569.506 264.68ZM565.466 264.68C565.466 266.56 564.306 267.68 562.266 267.68H557.586V261.72H562.266C564.306 261.72 565.466 262.84 565.466 264.68ZM599.978 265.28C599.978 262.96 598.858 261.44 596.818 260.52C598.698 259.64 599.658 258.2 599.658 256.16C599.658 252.88 597.258 250.72 593.538 250.72H583.818V271H593.858C597.658 271 599.978 268.8 599.978 265.28ZM595.658 256.44C595.658 258.12 594.618 259.04 592.658 259.04H587.858V253.92H592.658C594.578 253.92 595.658 254.84 595.658 256.44ZM595.978 265C595.978 266.72 594.818 267.8 592.898 267.8H587.858V262.2H592.898C594.818 262.2 595.978 263.24 595.978 265ZM620.1 268.36L617.3 265.68C616.02 267.08 615.02 267.6 613.42 267.6C611.86 267.6 610.54 266.96 609.66 265.8C608.78 264.68 608.46 263.2 608.46 260.84C608.46 258.48 608.78 257.04 609.66 255.92C610.54 254.76 611.86 254.12 613.42 254.12C615.02 254.12 616.02 254.64 617.3 256.04L620.1 253.32C618.18 251.28 616.22 250.48 613.42 250.48C608.86 250.48 604.38 253.24 604.38 260.84C604.38 268.44 608.86 271.24 613.42 271.24C616.22 271.24 618.18 270.4 620.1 268.36ZM640.408 262.04V260.32C640.408 254.4 637.248 250.48 631.808 250.48C626.608 250.48 623.208 254.24 623.208 260.84C623.208 268.56 627.248 271.24 632.328 271.24C635.888 271.24 637.848 270.16 639.928 268.08L637.328 265.64C635.888 267.08 634.688 267.72 632.408 267.72C629.048 267.72 627.248 265.56 627.248 262.04H640.408ZM636.368 259.2H627.248C627.288 257.96 627.368 257.32 627.768 256.44C628.448 254.92 629.848 253.88 631.808 253.88C633.728 253.88 635.128 254.92 635.808 256.44C636.208 257.32 636.288 257.96 636.368 259.2ZM638.048 246.84V242.52H634.368V246.84H638.048ZM629.408 246.84V242.52H625.728V246.84H629.408Z" fill="white"/>
<defs>
<linearGradient id="paint0_linear_492_5906" x1="847" y1="400" x2="234.898" y2="-228.698" gradientUnits="userSpaceOnUse">
<stop offset="0.48178" stop-color="#008954"/>
<stop offset="0.904513" stop-color="#09B975"/>
</linearGradient>
</defs>
</svg>
