<svg width="321" height="278" viewBox="0 0 321 278" fill="none" xmlns="http://www.w3.org/2000/svg">
<path d="M314.387 277.807C314.387 277.911 244.165 278 157.565 278C70.9652 278 0.728516 277.919 0.728516 277.807C0.728516 277.696 70.9355 277.614 157.565 277.614C244.194 277.614 314.387 277.703 314.387 277.807Z" fill="#263238"/>
<path d="M304.565 150.774L279.739 174.969L256.863 218.659L231.139 268.067L199.533 253.218L165.368 235.712L187.22 193.93L200.801 147.158C191.203 153.528 173.357 162.207 152.068 157.678C128.97 152.778 140.059 65.6194 140.059 65.6194L165.442 64.9661L167.994 126.415L196.662 113.735L196.707 113.839C198.435 113.096 199.948 112.354 200.75 111.946C216.616 103.282 227.03 102.235 244.053 108.315L268.613 116.482C274.925 119.451 298.194 130.922 304.565 150.774Z" fill="url(#paint0_linear_504_5872)"/>
<path d="M217.691 106.489C217.691 106.489 217.12 106.816 216.156 107.506C214.804 108.49 213.604 109.669 212.595 111.003C211.114 112.994 209.934 115.193 209.094 117.529C208.072 120.4 207.198 123.321 206.476 126.282L202.114 142.34C201.543 144.352 201.083 146 200.742 147.188C200.586 147.73 200.453 148.168 200.357 148.502C200.32 148.659 200.266 148.811 200.193 148.955C200.203 148.796 200.233 148.639 200.282 148.487C200.364 148.138 200.468 147.7 200.601 147.151C200.905 145.948 201.343 144.292 201.847 142.266C202.945 138.108 204.444 132.444 206.105 126.178C206.832 123.207 207.719 120.278 208.761 117.402C209.628 115.044 210.849 112.831 212.38 110.84C213.425 109.497 214.677 108.329 216.089 107.38C216.469 107.122 216.866 106.889 217.276 106.682C217.41 106.608 217.548 106.543 217.691 106.489Z" fill="#263238"/>
<g opacity="0.3">
<path opacity="0.3" d="M208.426 118.806C201.327 138.041 188.562 148.791 170.485 158.428C181.158 157.245 191.385 153.495 200.296 147.5" fill="black"/>
</g>
<g opacity="0.3">
<path opacity="0.3" d="M231.043 105.116C234.05 153.313 237.056 201.507 240.063 249.699L231.162 268.067L231.043 105.116Z" fill="black"/>
</g>
<path d="M258.993 155.117C258.889 155.161 257.984 152.89 256.715 150.15C255.447 147.411 254.319 145.235 254.416 145.183C254.766 145.592 255.062 146.044 255.299 146.527C255.796 147.388 256.433 148.606 257.064 149.987C257.694 151.368 258.214 152.637 258.547 153.573C258.766 154.064 258.915 154.584 258.993 155.117Z" fill="#FAFAFA"/>
<path d="M279.198 144.953C277.669 146.144 276.057 147.225 274.377 148.19C272.767 149.271 271.087 150.243 269.348 151.1C270.886 149.919 272.499 148.838 274.176 147.863C275.784 146.783 277.462 145.811 279.198 144.953Z" fill="#FAFAFA"/>
<path d="M270.431 137.633C270.173 136.335 270.039 135.015 270.03 133.691C269.905 132.37 269.905 131.04 270.03 129.719C270.296 131.019 270.43 132.342 270.431 133.669C270.56 134.987 270.56 136.315 270.431 137.633Z" fill="#FAFAFA"/>
<path d="M290.598 136.222C288.109 134.987 285.74 133.523 283.521 131.85C284.795 132.409 286.014 133.085 287.163 133.869C288.379 134.544 289.529 135.332 290.598 136.222Z" fill="#FAFAFA"/>
<path d="M259.764 176.268C260.312 174.511 260.981 172.794 261.766 171.13C262.438 169.418 263.226 167.754 264.125 166.149C263.58 167.907 262.91 169.623 262.122 171.286C261.452 172.999 260.664 174.664 259.764 176.268Z" fill="#FAFAFA"/>
<path d="M250.782 185.37C250.069 184.372 249.463 183.302 248.972 182.177C248.363 181.108 247.866 179.979 247.488 178.807C248.202 179.806 248.811 180.876 249.306 181.999C249.916 183.067 250.41 184.197 250.782 185.37Z" fill="#FAFAFA"/>
<path d="M258.295 197.627C257.083 198.152 255.796 198.481 254.482 198.6C253.187 198.851 251.859 198.891 250.551 198.719C250.551 198.608 252.294 198.526 254.43 198.221C256.566 197.917 258.265 197.508 258.295 197.627Z" fill="#FAFAFA"/>
<path d="M267.931 184.219C268.253 182.979 268.695 181.773 269.251 180.618C269.689 179.414 270.249 178.258 270.92 177.166C270.602 178.407 270.163 179.613 269.607 180.767C269.172 181.974 268.61 183.131 267.931 184.219Z" fill="#FAFAFA"/>
<path d="M244.498 212.535C244.402 212.594 243.311 211.087 241.813 209.357C240.315 207.627 238.98 206.328 239.061 206.246C241.288 207.944 243.14 210.085 244.498 212.535Z" fill="#FAFAFA"/>
<path d="M240.248 182.088C239.723 183.385 239.075 184.628 238.312 185.8C237.664 187.046 236.902 188.229 236.035 189.334C236.571 188.041 237.221 186.799 237.979 185.622C238.625 184.377 239.385 183.194 240.248 182.088Z" fill="#FAFAFA"/>
<path d="M243.274 171.643C241.869 171.473 240.482 171.18 239.128 170.767C237.743 170.475 236.388 170.057 235.078 169.519C236.484 169.685 237.872 169.978 239.225 170.395C240.61 170.685 241.966 171.102 243.274 171.643Z" fill="#FAFAFA"/>
<path d="M243.097 150.113C243.912 151.066 244.656 152.079 245.322 153.142C246.086 154.128 246.775 155.171 247.384 156.26C246.471 155.399 245.673 154.423 245.01 153.357C244.231 152.366 243.588 151.275 243.097 150.113Z" fill="#FAFAFA"/>
<path d="M236.236 149.036C234.616 150.792 232.811 152.365 230.851 153.728C231.612 152.805 232.473 151.969 233.417 151.234C234.276 150.404 235.221 149.667 236.236 149.036Z" fill="#FAFAFA"/>
<path d="M241.657 137.774C239.152 135.797 237.065 133.342 235.516 130.55C235.612 130.491 236.829 132.228 238.527 134.218C240.226 136.208 241.739 137.692 241.657 137.774Z" fill="#FAFAFA"/>
<path d="M260.631 134.307C259.29 134.923 257.898 135.42 256.47 135.792C255.081 136.285 253.651 136.652 252.197 136.891C253.54 136.28 254.932 135.783 256.359 135.406C257.748 134.914 259.177 134.547 260.631 134.307Z" fill="#FAFAFA"/>
<path d="M233.922 116.222C233.81 116.222 233.862 114.522 233.595 112.458C233.328 110.394 232.854 108.746 232.987 108.746C233.994 111.109 234.318 113.707 233.922 116.244V116.222Z" fill="#FAFAFA"/>
<path d="M217.039 170.054C216.492 170.529 215.909 170.961 215.296 171.346C214.198 172.088 212.7 173.194 211.097 174.456C209.495 175.719 208.086 176.914 207.077 177.79C206.555 178.295 205.997 178.761 205.408 179.186C205.845 178.602 206.342 178.067 206.892 177.589C208.154 176.375 209.479 175.228 210.86 174.152C212.235 173.069 213.664 172.056 215.14 171.116C215.738 170.703 216.374 170.347 217.039 170.054Z" fill="#FAFAFA"/>
<path d="M216.067 164.1C215.971 164.152 214.724 162.214 212.996 159.95C211.268 157.685 209.74 155.963 209.821 155.881C210.243 156.168 210.621 156.516 210.942 156.913C211.777 157.806 212.567 158.74 213.308 159.712C214.168 160.855 214.888 161.939 215.37 162.741C215.664 163.159 215.899 163.617 216.067 164.1Z" fill="#FAFAFA"/>
<path d="M220.585 140.632C218.291 142.193 215.857 143.538 213.315 144.649C214.428 143.817 215.615 143.088 216.861 142.474C218.042 141.744 219.288 141.127 220.585 140.632Z" fill="#FAFAFA"/>
<path d="M216.111 130.387C215.644 130.114 215.217 129.776 214.843 129.385C213.882 128.507 212.987 127.559 212.165 126.549C211.335 125.541 210.579 124.474 209.903 123.357C209.59 122.913 209.34 122.428 209.161 121.916C209.265 121.857 210.533 123.965 212.455 126.304C214.376 128.642 216.208 130.298 216.111 130.387Z" fill="#FAFAFA"/>
<path d="M223.811 130.172C224.148 129.045 224.606 127.957 225.175 126.927C225.633 125.841 226.208 124.808 226.889 123.846C226.555 124.975 226.097 126.063 225.524 127.091C225.069 128.179 224.495 129.212 223.811 130.172Z" fill="#FAFAFA"/>
<path d="M221.757 118.449C221.638 118.449 221.757 116.14 221.326 113.356C220.896 110.572 220.073 108.419 220.184 108.375C220.464 108.8 220.677 109.266 220.815 109.756C221.224 110.905 221.525 112.091 221.712 113.297C221.897 114.503 221.974 115.723 221.942 116.942C221.961 117.451 221.899 117.96 221.757 118.449Z" fill="#FAFAFA"/>
<path d="M223.625 177.582C223.576 176.858 223.576 176.131 223.625 175.407C223.677 174.07 223.714 172.222 223.663 170.21C223.611 168.198 223.477 166.327 223.366 165.013C223.265 164.295 223.22 163.57 223.232 162.845C223.438 163.543 223.574 164.259 223.64 164.983C223.871 166.722 224.008 168.471 224.048 170.225C224.095 171.976 224.046 173.728 223.9 175.474C223.882 176.184 223.79 176.891 223.625 177.582Z" fill="#FAFAFA"/>
<path d="M222.528 196.061C221.492 195.106 220.394 194.221 219.242 193.41C218.025 192.706 216.764 192.081 215.467 191.539C216.889 191.781 218.247 192.305 219.463 193.082C220.678 193.859 221.726 194.871 222.543 196.061H222.528Z" fill="#FAFAFA"/>
<path d="M231.785 207.494C230.151 208.559 228.449 209.513 226.689 210.352C224.99 211.307 223.228 212.146 221.415 212.861C223.051 211.802 224.753 210.85 226.511 210.01C228.211 209.055 229.973 208.214 231.785 207.494Z" fill="#FAFAFA"/>
<path d="M205.69 212.564C204.337 211.056 203.083 209.462 201.937 207.791C200.685 206.195 199.535 204.521 198.495 202.779C199.845 204.293 201.099 205.889 202.248 207.56C203.498 209.156 204.647 210.827 205.69 212.564Z" fill="#FAFAFA"/>
<path d="M197.664 191.45C197.536 190.953 197.479 190.441 197.494 189.928C197.456 188.985 197.442 187.701 197.494 186.216C197.545 184.731 197.694 183.477 197.82 182.504C197.855 181.998 197.958 181.499 198.124 181.019C198.235 181.019 198.013 183.35 197.879 186.216C197.746 189.082 197.738 191.45 197.664 191.45Z" fill="#FAFAFA"/>
<path d="M188.927 227.494C187.407 226.477 185.96 225.355 184.595 224.138C183.149 223.018 181.783 221.797 180.508 220.486C182.028 221.502 183.475 222.624 184.84 223.841C186.286 224.962 187.652 226.182 188.927 227.494Z" fill="#FAFAFA"/>
<path d="M194.148 226.388C193.908 224.457 193.797 222.513 193.814 220.567C193.707 218.625 193.727 216.679 193.873 214.739C194.114 216.67 194.225 218.615 194.208 220.56C194.315 222.502 194.295 224.449 194.148 226.388Z" fill="#FAFAFA"/>
<path d="M204.459 248.742C204.459 248.801 203.532 248.437 202.041 247.955C198.158 246.704 194.085 246.149 190.009 246.314C188.444 246.373 187.48 246.485 187.473 246.418C187.687 246.334 187.911 246.282 188.14 246.262C188.57 246.18 189.208 246.106 189.995 246.039C194.107 245.728 198.238 246.295 202.115 247.702C202.705 247.916 203.282 248.164 203.843 248.445C204.062 248.511 204.27 248.612 204.459 248.742Z" fill="#FAFAFA"/>
<path d="M212.951 252.825C213.554 253.14 214.117 253.526 214.628 253.976C217.194 256.01 219.516 258.334 221.548 260.902C221.997 261.414 222.383 261.977 222.698 262.58C222.207 262.119 221.751 261.623 221.333 261.095C220.517 260.153 219.36 258.868 218.017 257.524C216.675 256.181 215.392 255.03 214.45 254.206C213.917 253.783 213.416 253.322 212.951 252.825Z" fill="#FAFAFA"/>
<path d="M216.653 214.146C215.9 212.756 215.258 211.308 214.732 209.817C214.092 208.377 213.568 206.887 213.167 205.363C213.92 206.753 214.563 208.2 215.088 209.691C215.729 211.131 216.252 212.621 216.653 214.146Z" fill="#FAFAFA"/>
<path d="M186.857 138.903C186.541 139.369 186.159 139.787 185.722 140.142C184.733 141.063 183.671 141.902 182.547 142.652C181.422 143.407 180.236 144.067 179.001 144.626C178.505 144.891 177.973 145.084 177.422 145.198C177.377 145.087 179.728 144.077 182.332 142.332C184.935 140.588 186.775 138.813 186.857 138.903Z" fill="#FAFAFA"/>
<path d="M188.763 131.033C188.609 128.826 188.714 126.608 189.075 124.426C189.229 126.633 189.124 128.85 188.763 131.033Z" fill="#FAFAFA"/>
<path d="M173.966 137.64C172.637 137.245 171.348 136.725 170.116 136.089C168.824 135.568 167.582 134.93 166.407 134.181C167.735 134.581 169.023 135.1 170.257 135.732C171.549 136.253 172.791 136.892 173.966 137.64Z" fill="#FAFAFA"/>
<path d="M200.364 127.573C200.278 126.204 200.32 124.829 200.49 123.468C200.525 122.096 200.694 120.731 200.994 119.392C201.081 120.761 201.041 122.136 200.875 123.498C200.834 124.869 200.663 126.234 200.364 127.573Z" fill="#FAFAFA"/>
<path d="M166.102 153.38C164.6 153 163.171 152.373 161.874 151.523C160.51 150.783 159.283 149.814 158.247 148.658C158.321 148.569 159.901 149.898 162.067 151.197C164.233 152.496 166.147 153.268 166.102 153.38Z" fill="#FAFAFA"/>
<path d="M155.103 138.271C154.147 139.589 153.091 140.83 151.943 141.984C150.887 143.233 149.736 144.4 148.501 145.473C150.509 142.891 152.717 140.471 155.103 138.234V138.271Z" fill="#FAFAFA"/>
<path d="M154.16 124.737C152.896 124.31 151.722 123.653 150.696 122.8C149.597 122.049 148.64 121.109 147.87 120.023C147.952 119.941 149.198 121.196 150.934 122.488C152.669 123.78 154.212 124.641 154.16 124.737Z" fill="#FAFAFA"/>
<path d="M147.225 127.573C146.805 128.368 146.273 129.098 145.645 129.741C145.112 130.467 144.481 131.114 143.769 131.664C144.719 130.142 145.883 128.764 147.225 127.573Z" fill="#FAFAFA"/>
<path d="M162.06 102.45C161.197 103.807 160.227 105.093 159.16 106.296C158.195 107.584 157.126 108.791 155.963 109.904C156.827 108.546 157.797 107.257 158.863 106.051C159.832 104.768 160.901 103.564 162.06 102.45Z" fill="#FAFAFA"/>
<path d="M149.354 105.309C148.21 104.292 147.153 103.182 146.194 101.99C145.143 100.884 144.185 99.6918 143.331 98.4265C144.476 99.4386 145.533 100.546 146.491 101.738C147.543 102.846 148.501 104.041 149.354 105.309Z" fill="#FAFAFA"/>
<path d="M155.718 89.1835C154.867 88.0832 154.122 86.905 153.493 85.6645C152.758 84.4857 152.13 83.2434 151.616 81.9525C152.466 83.0561 153.211 84.2367 153.841 85.4789C154.577 86.6547 155.205 87.8946 155.718 89.1835Z" fill="#FAFAFA"/>
<path d="M155.384 78.7823C155.295 78.7081 156.408 77.2975 157.29 75.3005C158.173 73.3034 158.492 71.5439 158.611 71.5884C158.426 74.3012 157.282 76.8594 155.384 78.8046V78.7823Z" fill="#FAFAFA"/>
<path d="M143.153 78.1662C143.038 76.5968 143.353 75.0257 144.065 73.6227C144.526 72.6158 145.136 71.6847 145.875 70.8609C146.158 70.4981 146.508 70.1932 146.906 69.9626C145.943 71.143 145.108 72.4222 144.414 73.7786C143.838 75.1916 143.415 76.6626 143.153 78.1662Z" fill="#FAFAFA"/>
<path d="M250.099 60.5043C249.758 57.427 249.72 54.3236 249.987 51.239C250.264 48.1357 251.451 45.1835 253.399 42.7533C255.424 40.4073 258.54 38.9002 261.603 39.2937C263.502 39.5387 265.312 40.4741 267.203 40.4222C269.429 40.3553 271.335 38.9893 273.345 38.0762C276.514 36.6363 280.064 36.2638 283.463 37.0145C285.254 37.3525 286.913 38.1916 288.247 39.4348C288.904 40.062 289.391 40.8463 289.663 41.7138C289.934 42.5813 289.98 43.5037 289.797 44.394C292.038 44.2956 294.283 44.4928 296.473 44.9805C298.666 45.4751 300.58 46.807 301.806 48.6926C302.911 50.6303 302.837 53.3252 301.25 54.8917C302.295 54.7515 303.355 55.003 304.226 55.5978C305.096 56.1926 305.717 57.0887 305.967 58.1137C306.164 59.151 306.059 60.2232 305.665 61.2024C305.27 62.1817 304.603 63.0268 303.742 63.6373C301.668 64.9084 299.211 65.4029 296.807 65.033C294.745 64.6395 292.356 64.0604 290.702 62.8057" fill="#263238"/>
<path d="M248.489 130.439C252.581 131.491 256.923 130.881 260.568 128.742C264.212 126.603 266.864 123.109 267.945 119.021C269.199 114.262 270.222 110.275 270.222 110.275C270.222 110.275 282.617 112.406 286.719 100.624C290.821 88.842 297.845 61.1205 297.845 61.1205C292.113 55.9902 285.117 52.4838 277.579 50.9634C270.041 49.443 262.234 49.9636 254.965 52.4714L252.739 53.2138L236.992 110.624C236.422 112.681 236.268 114.831 236.54 116.949C236.811 119.066 237.503 121.107 238.574 122.953C239.645 124.799 241.074 126.412 242.777 127.698C244.479 128.983 246.421 129.915 248.489 130.439Z" fill="#FFA8A7"/>
<path d="M266.599 90.0097L276.335 93.8814C276.14 94.6697 275.813 95.4058 275.373 96.0458C274.934 96.6858 274.392 97.2165 273.779 97.606C273.166 97.9956 272.495 98.2361 271.806 98.3131C271.118 98.39 270.425 98.302 269.771 98.0541C268.465 97.467 267.409 96.3052 266.819 94.8085C266.229 93.3117 266.15 91.5941 266.599 90.0097Z" fill="#B16668"/>
<path d="M272.066 98.2529C272.035 96.5893 271.519 95.0216 270.623 93.8718C269.727 92.7221 268.519 92.0775 267.247 92.0705C266.927 92.0853 266.609 92.1348 266.294 92.2185C266.391 93.5354 266.77 94.7798 267.387 95.8094C268.005 96.8389 268.836 97.6122 269.786 98.0407C270.518 98.3431 271.299 98.4157 272.066 98.2529Z" fill="#F28F8F"/>
<path d="M277.49 73L271 84.2352L278.411 85.8159L277.49 73Z" fill="#F28F8F"/>
<path d="M270.296 110.112C264.824 108.386 259.988 105.071 256.403 100.587C256.403 100.587 257.19 110.29 269.302 113.208L270.296 110.112Z" fill="#F28F8F"/>
<path d="M250.135 65.9685C249.965 65.8126 242.844 60.8533 240.404 69.0049C237.963 77.1565 246.634 77.9138 246.716 77.6985C246.797 77.4832 250.135 65.9685 250.135 65.9685Z" fill="#FFA8A7"/>
<path d="M245.136 73.8602C245.136 73.8602 244.965 73.9196 244.691 73.9567C244.318 73.9877 243.947 73.8763 243.653 73.6449C242.911 73.0733 242.577 71.4845 242.978 70.0071C243.164 69.3016 243.506 68.6469 243.979 68.0917C244.135 67.8655 244.343 67.6801 244.586 67.5509C244.829 67.4218 245.099 67.3526 245.373 67.3493C245.553 67.3475 245.728 67.4113 245.864 67.5288C246.001 67.6463 246.09 67.8094 246.115 67.9878C246.16 68.2476 246.056 68.3961 246.115 68.4258C246.175 68.4555 246.33 68.3367 246.36 67.9804C246.376 67.7671 246.318 67.5549 246.197 67.379C246.109 67.2587 245.999 67.1572 245.871 67.0806C245.744 67.0041 245.602 66.9541 245.455 66.9336C245.101 66.8979 244.743 66.9543 244.417 67.0973C244.091 67.2404 243.807 67.4653 243.593 67.7502C243.034 68.3503 242.631 69.0798 242.421 69.8735C241.976 71.5291 242.355 73.3183 243.43 74.0161C243.63 74.1447 243.857 74.2268 244.093 74.2564C244.329 74.2859 244.569 74.2622 244.795 74.1869C245.084 74.0533 245.181 73.8899 245.136 73.8602Z" fill="#F28F8F"/>
<path d="M287.869 78.1364C287.724 78.5829 287.409 78.9543 286.992 79.1697C286.576 79.3852 286.091 79.4274 285.643 79.2872C285.424 79.232 285.218 79.1334 285.037 78.9973C284.856 78.8612 284.704 78.6903 284.59 78.4945C284.476 78.2988 284.402 78.0822 284.373 77.8575C284.343 77.6328 284.359 77.4046 284.42 77.1861C284.563 76.7467 284.871 76.3802 285.28 76.1641C285.688 75.948 286.164 75.8992 286.608 76.028C286.831 76.0799 287.041 76.1762 287.227 76.3113C287.412 76.4464 287.568 76.6174 287.685 76.8142C287.803 77.011 287.88 77.2295 287.912 77.4567C287.943 77.6838 287.928 77.915 287.869 78.1364Z" fill="#263238"/>
<path d="M290.065 76.9932C289.783 77.1417 288.826 75.7757 287.016 75.1669C285.206 74.5581 283.567 75.0258 283.448 74.7363C283.382 74.6101 283.73 74.2834 284.45 74.0533C285.422 73.7662 286.46 73.7922 287.417 74.1275C288.36 74.44 289.179 75.0461 289.753 75.8573C290.147 76.4735 290.198 76.9338 290.065 76.9932Z" fill="#263238"/>
<path d="M270.067 72.1601C269.924 72.5996 269.615 72.9661 269.207 73.1822C268.799 73.3983 268.322 73.4471 267.879 73.3183C267.659 73.2631 267.453 73.1646 267.272 73.0285C267.091 72.8924 266.939 72.7214 266.825 72.5257C266.711 72.3299 266.637 72.1134 266.608 71.8887C266.579 71.664 266.595 71.4357 266.655 71.2173C266.797 70.7767 267.105 70.4091 267.514 70.1927C267.922 69.9763 268.399 69.9284 268.843 70.0591C269.063 70.1143 269.269 70.2128 269.45 70.349C269.631 70.4851 269.783 70.656 269.897 70.8518C270.011 71.0475 270.085 71.2641 270.114 71.4888C270.143 71.7135 270.127 71.9417 270.067 72.1601Z" fill="#263238"/>
<path d="M272.159 71.3508C271.877 71.5067 270.913 70.1333 269.103 69.5245C267.293 68.9157 265.661 69.3834 265.535 69.0939C265.476 68.9677 265.817 68.641 266.544 68.4183C267.516 68.1308 268.553 68.1542 269.511 68.4851C270.455 68.7999 271.275 69.4054 271.855 70.2149C272.233 70.8311 272.292 71.2914 272.159 71.3508Z" fill="#263238"/>
<path d="M290.465 73.5855C290.013 73.8899 288.907 73.0436 287.417 72.5165C285.926 71.9893 284.553 71.8631 284.405 71.336C284.346 71.0836 284.687 70.7347 285.369 70.5342C286.272 70.3171 287.218 70.3733 288.089 70.6959C288.959 71.0184 289.714 71.5927 290.257 72.3457C290.643 72.9471 290.673 73.4296 290.465 73.5855Z" fill="#263238"/>
<path d="M271.995 63.9936C271.72 64.1421 271.253 63.8971 270.727 63.5779C270.045 63.1705 269.33 62.8203 268.59 62.5311C267.841 62.2609 267.069 62.0572 266.283 61.9223C265.653 61.7961 265.163 61.6996 265.052 61.4026C264.941 61.1056 265.297 60.6602 266.098 60.3632C267.164 60.0262 268.312 60.055 269.36 60.445C270.408 60.835 271.296 61.5639 271.884 62.5162C272.292 63.2957 272.255 63.8748 271.995 63.9936Z" fill="#263238"/>
<path d="M297.229 64.9736C291.035 64.6128 285.116 62.2853 280.332 58.329C275.007 53.9637 268.338 50.905 266.521 51.7662C264.704 52.6274 262.975 58.7448 256.611 59.1902C256.611 59.1902 254.341 71.1059 249.728 69.5839C245.114 68.062 252.212 50.4521 252.212 50.4521L265.008 47.4379L278.114 47.9205L289.886 50.5932L300.07 56.4508L297.229 64.9736Z" fill="#263238"/>
<path d="M231.14 18.2391H64.5938V277.814H231.14V18.2391Z" fill="#FAFAFA"/>
<path d="M231.139 277.807C231.139 276.211 231.065 170.789 230.961 18.2316L231.139 18.4098H64.6157L64.816 18.2168C64.816 116.422 64.816 206.848 64.7715 277.792L64.6157 277.636L231.162 277.792L64.6157 277.941H64.4674V277.807C64.4674 206.862 64.4674 116.437 64.4229 18.2316V18.0386H64.638H231.162H231.34V18.2168C231.214 170.796 231.139 276.218 231.139 277.807Z" fill="#263238"/>
<path d="M109.233 76.0429H87.9223C87.2153 76.0429 86.5373 75.7624 86.0367 75.2627C85.5361 74.7631 85.2539 74.0852 85.252 73.3777V43.8521C85.2539 43.1446 85.5361 42.4667 86.0367 41.9671C86.5373 41.4675 87.2153 41.1869 87.9223 41.1869H101.437L111.896 51.9741V73.3777C111.896 74.0845 111.615 74.7625 111.116 75.2623C110.616 75.7621 109.939 76.0429 109.233 76.0429Z" fill="url(#paint1_linear_504_5872)"/>
<path d="M101.437 41.1869V49.4944C101.438 50.1515 101.7 50.781 102.164 51.2456C102.629 51.7102 103.258 51.9721 103.914 51.9741H111.895L101.437 41.1869Z" fill="url(#paint2_linear_504_5872)"/>
<g opacity="0.2">
<path opacity="0.2" d="M101.548 50.222C101.551 50.8508 101.769 51.4595 102.166 51.947C102.563 52.4346 103.114 52.7716 103.729 52.9021L103.996 52.9615C105.034 53.1471 111.895 54.3646 111.895 54.2087V51.9815H103.914C103.914 51.9815 101.926 51.9072 101.548 50.222Z" fill="black"/>
</g>
<g opacity="0.3">
<path opacity="0.3" d="M101.437 41.1869V49.4944C101.438 50.1515 101.7 50.781 102.164 51.2456C102.629 51.7102 103.258 51.9721 103.914 51.9741H111.895L101.437 41.1869Z" fill="white"/>
</g>
<path d="M99.6489 49.1457C98.0121 49.3367 96.363 49.4013 94.7163 49.3389C93.072 49.4014 91.4254 49.3368 89.791 49.1457C91.4254 48.9545 93.072 48.8899 94.7163 48.9525C96.363 48.8901 98.0121 48.9547 99.6489 49.1457Z" fill="#FAFAFA"/>
<path d="M106.013 53.8525C106.013 53.9565 102.386 54.0457 97.9058 54.0457C93.4256 54.0457 89.791 53.9565 89.791 53.8525C89.791 53.7485 93.4256 53.6593 97.9058 53.6593C102.386 53.6593 106.013 53.741 106.013 53.8525Z" fill="#FAFAFA"/>
<path d="M107.474 57.7724C107.474 57.8839 103.521 57.9656 98.6327 57.9656C93.7446 57.9656 89.791 57.8839 89.791 57.7724C89.791 57.661 93.752 57.5792 98.6327 57.5792C103.513 57.5792 107.474 57.6684 107.474 57.7724Z" fill="#FAFAFA"/>
<path d="M107.474 61.4771C107.474 61.5811 103.521 61.6702 98.6327 61.6702C93.7446 61.6702 89.791 61.5811 89.791 61.4771C89.791 61.373 93.752 61.2839 98.6327 61.2839C103.513 61.2839 107.474 61.3656 107.474 61.4771Z" fill="#FAFAFA"/>
<path d="M107.474 65.1742C107.474 65.2857 103.521 65.3674 98.6327 65.3674C93.7446 65.3674 89.791 65.2857 89.791 65.1742C89.791 65.0627 93.752 64.981 98.6327 64.981C103.513 64.981 107.474 65.0702 107.474 65.1742Z" fill="#FAFAFA"/>
<path d="M107.474 68.8788C107.474 68.9828 103.521 69.072 98.6327 69.072C93.7446 69.072 89.791 68.9828 89.791 68.8788C89.791 68.7748 93.752 68.6856 98.6327 68.6856C103.513 68.6856 107.474 68.7673 107.474 68.8788Z" fill="#FAFAFA"/>
<path d="M120.668 65.7168V69.3994H121.216V71.1836H120.539V70H117.709V71.1836H117.032V69.3994H117.363C117.492 69.1631 117.614 68.9053 117.729 68.626C117.845 68.3447 117.95 68.0479 118.046 67.7354C118.142 67.4229 118.223 67.0977 118.289 66.7598C118.357 66.4199 118.408 66.0723 118.441 65.7168H120.668ZM119.968 66.3174H119.021C118.998 66.542 118.958 66.7881 118.901 67.0557C118.847 67.3213 118.778 67.5928 118.696 67.8701C118.614 68.1475 118.522 68.417 118.421 68.6787C118.321 68.9404 118.216 69.1807 118.104 69.3994H119.968V66.3174ZM124.711 68.3711C124.711 68.6406 124.676 68.8799 124.605 69.0889C124.535 69.2979 124.433 69.4746 124.298 69.6191C124.163 69.7617 124.001 69.8711 123.812 69.9473C123.622 70.0215 123.408 70.0586 123.17 70.0586C122.947 70.0586 122.743 70.0215 122.558 69.9473C122.372 69.8711 122.211 69.7617 122.074 69.6191C121.939 69.4746 121.835 69.2979 121.761 69.0889C121.687 68.8799 121.649 68.6406 121.649 68.3711C121.649 68.0137 121.711 67.7109 121.834 67.4629C121.959 67.2129 122.137 67.0225 122.367 66.8916C122.598 66.7607 122.872 66.6953 123.19 66.6953C123.489 66.6953 123.753 66.7607 123.981 66.8916C124.21 67.0225 124.389 67.2129 124.518 67.4629C124.646 67.7129 124.711 68.0156 124.711 68.3711ZM122.358 68.3711C122.358 68.6074 122.387 68.8096 122.443 68.9775C122.502 69.1455 122.592 69.2744 122.713 69.3643C122.834 69.4521 122.99 69.4961 123.182 69.4961C123.373 69.4961 123.529 69.4521 123.65 69.3643C123.771 69.2744 123.86 69.1455 123.917 68.9775C123.974 68.8096 124.002 68.6074 124.002 68.3711C124.002 68.1348 123.974 67.9346 123.917 67.7705C123.86 67.6045 123.771 67.4785 123.65 67.3926C123.529 67.3047 123.372 67.2607 123.179 67.2607C122.894 67.2607 122.686 67.3564 122.555 67.5479C122.424 67.7393 122.358 68.0137 122.358 68.3711ZM125.317 68.0547C125.317 67.584 125.369 67.1836 125.473 66.8535C125.576 66.5234 125.739 66.2588 125.962 66.0596C126.185 65.8604 126.474 65.7246 126.829 65.6523C127.06 65.5996 127.294 65.5547 127.532 65.5176C127.771 65.4805 128.009 65.4443 128.247 65.4092L128.341 66.0156C128.229 66.0293 128.11 66.0459 127.983 66.0654C127.856 66.083 127.729 66.1016 127.6 66.1211C127.473 66.1406 127.351 66.1611 127.233 66.1826C127.118 66.2021 127.015 66.2217 126.923 66.2412C126.739 66.2803 126.584 66.3447 126.457 66.4346C126.332 66.5225 126.234 66.6514 126.164 66.8213C126.094 66.9912 126.052 67.2178 126.038 67.501H126.076C126.129 67.4209 126.202 67.3408 126.296 67.2607C126.39 67.1807 126.503 67.1143 126.636 67.0615C126.771 67.0068 126.924 66.9795 127.096 66.9795C127.365 66.9795 127.594 67.0361 127.781 67.1494C127.971 67.2627 128.114 67.4268 128.212 67.6416C128.312 67.8564 128.361 68.1152 128.361 68.418C128.361 68.7793 128.297 69.082 128.168 69.3262C128.041 69.5684 127.863 69.751 127.635 69.874C127.406 69.9971 127.14 70.0586 126.835 70.0586C126.601 70.0586 126.39 70.0146 126.202 69.9268C126.017 69.8389 125.857 69.71 125.725 69.54C125.594 69.3682 125.493 69.1582 125.423 68.9102C125.353 68.6602 125.317 68.375 125.317 68.0547ZM126.882 69.4932C127.038 69.4932 127.173 69.46 127.286 69.3936C127.401 69.3271 127.49 69.2197 127.553 69.0713C127.617 68.9229 127.649 68.7266 127.649 68.4824C127.649 68.1816 127.595 67.9453 127.485 67.7734C127.378 67.5996 127.2 67.5127 126.952 67.5127C126.8 67.5127 126.66 67.5469 126.533 67.6152C126.406 67.6836 126.299 67.7637 126.211 67.8555C126.123 67.9453 126.061 68.0244 126.023 68.0928C126.023 68.2705 126.036 68.4424 126.062 68.6084C126.089 68.7744 126.134 68.9248 126.196 69.0596C126.261 69.1924 126.349 69.2979 126.46 69.376C126.571 69.4541 126.712 69.4932 126.882 69.4932ZM130.816 66.6953C131.201 66.6953 131.51 66.8359 131.742 67.1172C131.977 67.3984 132.094 67.8164 132.094 68.3711C132.094 68.7383 132.039 69.0479 131.93 69.2998C131.822 69.5498 131.671 69.7393 131.476 69.8682C131.282 69.9951 131.057 70.0586 130.799 70.0586C130.635 70.0586 130.492 70.0371 130.371 69.9941C130.25 69.9512 130.146 69.8955 130.061 69.8271C129.975 69.7568 129.902 69.6807 129.844 69.5986H129.803C129.812 69.6768 129.821 69.7637 129.829 69.8594C129.839 69.9531 129.844 70.0391 129.844 70.1172V71.4385H129.152V66.7568H129.715L129.812 67.2051H129.844C129.904 67.1133 129.978 67.0283 130.063 66.9502C130.151 66.8721 130.257 66.8105 130.38 66.7656C130.505 66.7188 130.65 66.6953 130.816 66.6953ZM130.632 67.2578C130.442 67.2578 130.29 67.2959 130.175 67.3721C130.062 67.4463 129.979 67.5586 129.926 67.709C129.875 67.8594 129.848 68.0479 129.844 68.2744V68.3711C129.844 68.6113 129.868 68.8154 129.917 68.9834C129.968 69.1494 130.051 69.2764 130.166 69.3643C130.283 69.4502 130.441 69.4932 130.641 69.4932C130.809 69.4932 130.947 69.4473 131.057 69.3555C131.168 69.2637 131.251 69.1328 131.306 68.9629C131.36 68.793 131.388 68.5928 131.388 68.3623C131.388 68.0127 131.325 67.7412 131.2 67.5479C131.077 67.3545 130.888 67.2578 130.632 67.2578ZM135.762 68.3711C135.762 68.6406 135.727 68.8799 135.656 69.0889C135.586 69.2979 135.483 69.4746 135.349 69.6191C135.214 69.7617 135.052 69.8711 134.862 69.9473C134.673 70.0215 134.459 70.0586 134.221 70.0586C133.998 70.0586 133.794 70.0215 133.608 69.9473C133.423 69.8711 133.262 69.7617 133.125 69.6191C132.99 69.4746 132.886 69.2979 132.812 69.0889C132.737 68.8799 132.7 68.6406 132.7 68.3711C132.7 68.0137 132.762 67.7109 132.885 67.4629C133.01 67.2129 133.188 67.0225 133.418 66.8916C133.648 66.7607 133.923 66.6953 134.241 66.6953C134.54 66.6953 134.804 66.7607 135.032 66.8916C135.261 67.0225 135.439 67.2129 135.568 67.4629C135.697 67.7129 135.762 68.0156 135.762 68.3711ZM133.409 68.3711C133.409 68.6074 133.438 68.8096 133.494 68.9775C133.553 69.1455 133.643 69.2744 133.764 69.3643C133.885 69.4521 134.041 69.4961 134.232 69.4961C134.424 69.4961 134.58 69.4521 134.701 69.3643C134.822 69.2744 134.911 69.1455 134.968 68.9775C135.024 68.8096 135.053 68.6074 135.053 68.3711C135.053 68.1348 135.024 67.9346 134.968 67.7705C134.911 67.6045 134.822 67.4785 134.701 67.3926C134.58 67.3047 134.423 67.2607 134.229 67.2607C133.944 67.2607 133.736 67.3564 133.605 67.5479C133.475 67.7393 133.409 68.0137 133.409 68.3711ZM140.944 66.7568V70H140.25V67.3018H138.803V70H138.111V66.7568H140.944ZM144.803 68.3711C144.803 68.6406 144.768 68.8799 144.697 69.0889C144.627 69.2979 144.524 69.4746 144.39 69.6191C144.255 69.7617 144.093 69.8711 143.903 69.9473C143.714 70.0215 143.5 70.0586 143.262 70.0586C143.039 70.0586 142.835 70.0215 142.649 69.9473C142.464 69.8711 142.303 69.7617 142.166 69.6191C142.031 69.4746 141.927 69.2979 141.853 69.0889C141.778 68.8799 141.741 68.6406 141.741 68.3711C141.741 68.0137 141.803 67.7109 141.926 67.4629C142.051 67.2129 142.229 67.0225 142.459 66.8916C142.689 66.7607 142.964 66.6953 143.282 66.6953C143.581 66.6953 143.845 66.7607 144.073 66.8916C144.302 67.0225 144.48 67.2129 144.609 67.4629C144.738 67.7129 144.803 68.0156 144.803 68.3711ZM142.45 68.3711C142.45 68.6074 142.479 68.8096 142.535 68.9775C142.594 69.1455 142.684 69.2744 142.805 69.3643C142.926 69.4521 143.082 69.4961 143.273 69.4961C143.465 69.4961 143.621 69.4521 143.742 69.3643C143.863 69.2744 143.952 69.1455 144.009 68.9775C144.065 68.8096 144.094 68.6074 144.094 68.3711C144.094 68.1348 144.065 67.9346 144.009 67.7705C143.952 67.6045 143.863 67.4785 143.742 67.3926C143.621 67.3047 143.464 67.2607 143.271 67.2607C142.985 67.2607 142.777 67.3564 142.646 67.5479C142.516 67.7393 142.45 68.0137 142.45 68.3711ZM149.801 66.7568L148.529 68.3213L149.915 70H149.159L147.832 68.3535V70H147.19V68.3535L145.863 70H145.107L146.493 68.3213L145.222 66.7568H145.951L147.19 68.3301V66.7568H147.832V68.3301L149.074 66.7568H149.801ZM151.693 66.6953C152.104 66.6953 152.413 66.7861 152.622 66.9678C152.833 67.1494 152.938 67.4326 152.938 67.8174V70H152.449L152.317 69.54H152.294C152.202 69.6572 152.107 69.7539 152.01 69.8301C151.912 69.9062 151.799 69.9629 151.67 70C151.543 70.0391 151.388 70.0586 151.204 70.0586C151.011 70.0586 150.838 70.0234 150.686 69.9531C150.533 69.8809 150.413 69.7715 150.325 69.625C150.237 69.4785 150.193 69.293 150.193 69.0684C150.193 68.7344 150.317 68.4834 150.565 68.3154C150.815 68.1475 151.192 68.0547 151.696 68.0371L152.259 68.0166V67.8467C152.259 67.6221 152.206 67.4619 152.101 67.3662C151.997 67.2705 151.851 67.2227 151.661 67.2227C151.499 67.2227 151.342 67.2461 151.189 67.293C151.037 67.3398 150.889 67.3975 150.744 67.4658L150.521 66.9795C150.68 66.8955 150.859 66.8271 151.061 66.7744C151.264 66.7217 151.475 66.6953 151.693 66.6953ZM152.256 68.4502L151.837 68.4648C151.493 68.4766 151.252 68.5352 151.113 68.6406C150.975 68.7461 150.905 68.8906 150.905 69.0742C150.905 69.2344 150.953 69.3516 151.049 69.4258C151.145 69.498 151.271 69.5342 151.427 69.5342C151.665 69.5342 151.862 69.4668 152.019 69.332C152.177 69.1953 152.256 68.9951 152.256 68.7314V68.4502ZM156.571 70H155.877V67.2959H154.978C154.938 67.7881 154.89 68.209 154.831 68.5586C154.772 68.9082 154.699 69.1934 154.611 69.4141C154.523 69.6328 154.415 69.793 154.286 69.8945C154.157 69.9961 154.002 70.0469 153.82 70.0469C153.74 70.0469 153.668 70.041 153.604 70.0293C153.539 70.0195 153.481 70.0039 153.431 69.9824V69.4404C153.464 69.4521 153.5 69.4619 153.539 69.4697C153.578 69.4775 153.618 69.4814 153.659 69.4814C153.731 69.4814 153.798 69.4521 153.858 69.3936C153.921 69.333 153.979 69.2383 154.031 69.1094C154.084 68.9805 154.132 68.8105 154.175 68.5996C154.218 68.3867 154.257 68.1289 154.292 67.8262C154.327 67.5215 154.358 67.165 154.386 66.7568H156.571V70ZM160.43 68.3711C160.43 68.6406 160.395 68.8799 160.324 69.0889C160.254 69.2979 160.151 69.4746 160.017 69.6191C159.882 69.7617 159.72 69.8711 159.53 69.9473C159.341 70.0215 159.127 70.0586 158.889 70.0586C158.666 70.0586 158.462 70.0215 158.276 69.9473C158.091 69.8711 157.93 69.7617 157.793 69.6191C157.658 69.4746 157.554 69.2979 157.479 69.0889C157.405 68.8799 157.368 68.6406 157.368 68.3711C157.368 68.0137 157.43 67.7109 157.553 67.4629C157.678 67.2129 157.855 67.0225 158.086 66.8916C158.316 66.7607 158.591 66.6953 158.909 66.6953C159.208 66.6953 159.472 66.7607 159.7 66.8916C159.929 67.0225 160.107 67.2129 160.236 67.4629C160.365 67.7129 160.43 68.0156 160.43 68.3711ZM158.077 68.3711C158.077 68.6074 158.105 68.8096 158.162 68.9775C158.221 69.1455 158.311 69.2744 158.432 69.3643C158.553 69.4521 158.709 69.4961 158.9 69.4961C159.092 69.4961 159.248 69.4521 159.369 69.3643C159.49 69.2744 159.579 69.1455 159.636 68.9775C159.692 68.8096 159.721 68.6074 159.721 68.3711C159.721 68.1348 159.692 67.9346 159.636 67.7705C159.579 67.6045 159.49 67.4785 159.369 67.3926C159.248 67.3047 159.091 67.2607 158.897 67.2607C158.612 67.2607 158.404 67.3564 158.273 67.5479C158.143 67.7393 158.077 68.0137 158.077 68.3711ZM163.948 67.5889C163.948 67.7764 163.891 67.9297 163.775 68.0488C163.662 68.166 163.506 68.2432 163.307 68.2803V68.3037C163.52 68.3311 163.697 68.4062 163.84 68.5293C163.982 68.6523 164.054 68.8232 164.054 69.042C164.054 69.2275 164.007 69.3926 163.913 69.5371C163.821 69.6797 163.675 69.793 163.474 69.877C163.274 69.959 163.014 70 162.691 70H161.221V66.7568H162.686C162.928 66.7568 163.144 66.7832 163.333 66.8359C163.524 66.8887 163.675 66.9756 163.784 67.0967C163.894 67.2178 163.948 67.3818 163.948 67.5889ZM163.336 69.0186C163.336 68.8584 163.274 68.7432 163.151 68.6729C163.03 68.6025 162.853 68.5674 162.618 68.5674H161.912V69.4932H162.633C162.852 69.4932 163.023 69.457 163.148 69.3848C163.273 69.3105 163.336 69.1885 163.336 69.0186ZM163.248 67.6504C163.248 67.5234 163.2 67.4297 163.104 67.3691C163.009 67.3066 162.858 67.2754 162.653 67.2754H161.912V68.0605H162.56C162.786 68.0605 162.957 68.0283 163.072 67.9639C163.189 67.8975 163.248 67.793 163.248 67.6504ZM166.102 66.6953C166.512 66.6953 166.821 66.7861 167.03 66.9678C167.241 67.1494 167.347 67.4326 167.347 67.8174V70H166.857L166.726 69.54H166.702C166.61 69.6572 166.516 69.7539 166.418 69.8301C166.32 69.9062 166.207 69.9629 166.078 70C165.951 70.0391 165.796 70.0586 165.612 70.0586C165.419 70.0586 165.246 70.0234 165.094 69.9531C164.941 69.8809 164.821 69.7715 164.733 69.625C164.646 69.4785 164.602 69.293 164.602 69.0684C164.602 68.7344 164.726 68.4834 164.974 68.3154C165.224 68.1475 165.601 68.0547 166.104 68.0371L166.667 68.0166V67.8467C166.667 67.6221 166.614 67.4619 166.509 67.3662C166.405 67.2705 166.259 67.2227 166.069 67.2227C165.907 67.2227 165.75 67.2461 165.598 67.293C165.445 67.3398 165.297 67.3975 165.152 67.4658L164.93 66.9795C165.088 66.8955 165.268 66.8271 165.469 66.7744C165.672 66.7217 165.883 66.6953 166.102 66.6953ZM166.664 68.4502L166.245 68.4648C165.901 68.4766 165.66 68.5352 165.521 68.6406C165.383 68.7461 165.313 68.8906 165.313 69.0742C165.313 69.2344 165.361 69.3516 165.457 69.4258C165.553 69.498 165.679 69.5342 165.835 69.5342C166.073 69.5342 166.271 69.4668 166.427 69.332C166.585 69.1953 166.664 68.9951 166.664 68.7314V68.4502ZM170.76 67.2988H169.693V70H169.008V67.2988H167.947V66.7568H170.76V67.2988ZM172.078 68.0518H172.884C173.188 68.0518 173.44 68.0869 173.64 68.1572C173.841 68.2256 173.991 68.3291 174.091 68.4678C174.19 68.6064 174.24 68.7803 174.24 68.9893C174.24 69.1943 174.193 69.373 174.1 69.5254C174.006 69.6758 173.859 69.793 173.66 69.877C173.463 69.959 173.205 70 172.887 70H171.387V66.7568H172.078V68.0518ZM173.549 69.0068C173.549 68.8447 173.488 68.7305 173.367 68.6641C173.246 68.5957 173.073 68.5615 172.849 68.5615H172.078V69.4932H172.854C173.06 69.4932 173.227 69.4561 173.355 69.3818C173.484 69.3057 173.549 69.1807 173.549 69.0068ZM175.597 68.6934H175.078L174.938 65.7168H175.737L175.597 68.6934ZM174.902 69.6367C174.902 69.4766 174.943 69.3643 175.025 69.2998C175.109 69.2334 175.212 69.2002 175.333 69.2002C175.452 69.2002 175.554 69.2334 175.638 69.2998C175.722 69.3643 175.764 69.4766 175.764 69.6367C175.764 69.793 175.722 69.9062 175.638 69.9766C175.554 70.0449 175.452 70.0791 175.333 70.0791C175.212 70.0791 175.109 70.0449 175.025 69.9766C174.943 69.9062 174.902 69.793 174.902 69.6367Z" fill="#E0E0E0"/>
<path d="M220.451 34.2156H219.575C219.031 34.2156 218.589 34.6577 218.589 35.203V251.177C218.589 251.722 219.031 252.164 219.575 252.164H220.451C220.996 252.164 221.437 251.722 221.437 251.177V35.203C221.437 34.6577 220.996 34.2156 220.451 34.2156Z" fill="#E0E0E0"/>
<path d="M220.451 34.2156H219.575C219.031 34.2156 218.589 34.6577 218.589 35.203V145.592C218.589 146.137 219.031 146.579 219.575 146.579H220.451C220.996 146.579 221.437 146.137 221.437 145.592V35.203C221.437 34.6577 220.996 34.2156 220.451 34.2156Z" fill="url(#paint3_linear_504_5872)"/>
<path d="M90.6663 99.2728V104.47H89.9245V99.9261H88.7451V99.2728H90.6663Z" fill="#263238"/>
<path d="M91.7932 104.032C91.7947 103.932 91.8255 103.836 91.8818 103.753C91.9381 103.671 92.0174 103.608 92.1096 103.571C92.2019 103.533 92.3031 103.525 92.4005 103.545C92.4978 103.565 92.587 103.614 92.6568 103.685C92.7266 103.756 92.7739 103.846 92.7928 103.944C92.8116 104.041 92.8012 104.143 92.7628 104.235C92.7244 104.326 92.6598 104.405 92.577 104.46C92.4942 104.515 92.397 104.545 92.2976 104.545C92.2304 104.546 92.1638 104.533 92.1016 104.508C92.0395 104.482 91.9831 104.444 91.936 104.396C91.8888 104.348 91.8519 104.292 91.8273 104.229C91.8028 104.166 91.7912 104.099 91.7932 104.032Z" fill="#263238"/>
<path d="M92.713 184.947V185.593H89.0042V185.088L91.1256 183.031C91.6819 182.497 91.7858 182.17 91.7858 181.836C91.7858 181.301 91.4001 180.975 90.6731 180.975C90.4223 180.96 90.1714 181.003 89.9399 181.101C89.7084 181.199 89.5024 181.349 89.338 181.539L88.8262 181.101C89.0661 180.835 89.3624 180.625 89.6934 180.488C90.0245 180.35 90.382 180.288 90.7399 180.307C91.8303 180.307 92.5275 180.871 92.5275 181.791C92.5193 182.112 92.4382 182.426 92.2904 182.71C92.1425 182.995 91.9319 183.242 91.6745 183.432L90.0723 184.976L92.713 184.947Z" fill="#263238"/>
<path d="M93.3879 185.125C93.3859 185.058 93.3975 184.991 93.4221 184.928C93.4466 184.866 93.4836 184.809 93.5307 184.761C93.5778 184.713 93.6342 184.675 93.6963 184.65C93.7585 184.624 93.8252 184.612 93.8923 184.613C94.0281 184.613 94.1582 184.667 94.2542 184.763C94.3502 184.859 94.4041 184.989 94.4041 185.125C94.4041 185.261 94.3502 185.392 94.2542 185.488C94.1582 185.584 94.0281 185.638 93.8923 185.638C93.8255 185.638 93.7592 185.625 93.6976 185.599C93.6359 185.573 93.5799 185.535 93.533 185.487C93.4861 185.44 93.4491 185.383 93.4242 185.321C93.3993 185.259 93.3869 185.192 93.3879 185.125Z" fill="#263238"/>
<path d="M203.027 116.252C203.027 116.363 177.429 116.445 145.86 116.445C114.291 116.445 88.6855 116.363 88.6855 116.252C88.6855 116.14 114.283 116.059 145.86 116.059C177.436 116.059 203.027 116.148 203.027 116.252Z" fill="#263238"/>
<path d="M203.027 124.916C203.027 125.02 177.429 125.109 145.86 125.109C114.291 125.109 88.6855 125.02 88.6855 124.916C88.6855 124.812 114.283 124.723 145.86 124.723C177.436 124.723 203.027 124.804 203.027 124.916Z" fill="#263238"/>
<path d="M203.027 133.572C203.027 133.684 177.429 133.765 145.86 133.765C114.291 133.765 88.6855 133.684 88.6855 133.572C88.6855 133.461 114.283 133.379 145.86 133.379C177.436 133.379 203.027 133.468 203.027 133.572Z" fill="#263238"/>
<path d="M203.027 142.236C203.027 142.34 177.429 142.429 145.86 142.429C114.291 142.429 88.6855 142.34 88.6855 142.236C88.6855 142.132 114.283 142.043 145.86 142.043C177.436 142.043 203.027 142.125 203.027 142.236Z" fill="#263238"/>
<path d="M203.027 150.893C203.027 151.004 177.429 151.086 145.86 151.086C114.291 151.086 88.6855 151.004 88.6855 150.893C88.6855 150.781 114.283 150.699 145.86 150.699C177.436 150.699 203.027 150.789 203.027 150.893Z" fill="#263238"/>
<path d="M203.027 159.556C203.027 159.66 177.429 159.75 145.86 159.75C114.291 159.75 88.6855 159.66 88.6855 159.556C88.6855 159.452 114.283 159.363 145.86 159.363C177.436 159.363 203.027 159.445 203.027 159.556Z" fill="#263238"/>
<path d="M203.027 192.43C203.027 192.534 177.429 192.623 145.86 192.623C114.291 192.623 88.6855 192.534 88.6855 192.43C88.6855 192.326 114.283 192.237 145.86 192.237C177.436 192.237 203.027 192.341 203.027 192.43Z" fill="#263238"/>
<path d="M203.027 199.854C203.027 199.966 177.429 200.048 145.86 200.048C114.291 200.048 88.6855 199.966 88.6855 199.854C88.6855 199.743 114.283 199.661 145.86 199.661C177.436 199.661 203.027 199.75 203.027 199.854Z" fill="#E0E0E0"/>
<path d="M203.027 207.278C203.027 207.382 177.429 207.472 145.86 207.472C114.291 207.472 88.6855 207.382 88.6855 207.278C88.6855 207.174 114.283 207.085 145.86 207.085C177.436 207.085 203.027 207.16 203.027 207.278Z" fill="#EBEBEB"/>
<path d="M211 229H151V252H211V229Z" fill="url(#paint4_linear_504_5872)"/>
<path d="M84.5 251.5V229.5H143.5V251.5H84.5Z" fill="white" stroke="url(#paint5_linear_504_5872)"/>
<path d="M232.749 246.522L241.384 242.364L236.636 228.318L226.207 225.905C225.236 225.682 224.153 225.423 222.951 225.089C221.538 224.694 220.201 224.064 218.997 223.225C217.464 222.25 216.071 221.068 214.858 219.714C213.872 218.37 211.78 218.875 211.78 220.367C211.78 221.859 214.413 225.623 219.094 228.288C223.774 230.954 215.496 232.238 212.5 232.743C209.503 233.248 200.29 235.319 199.741 236.366C198.94 237.895 200.483 239.068 203.45 238.482C206.417 237.895 215.533 236.737 215.771 238.326V238.37C215.039 239.516 214.683 240.862 214.754 242.22C214.824 243.577 215.317 244.879 216.164 245.943C217.84 248.044 220.355 250.679 222.202 250.278C225.673 249.543 232.749 246.522 232.749 246.522Z" fill="#FFA8A7"/>
<path d="M232.223 221.807L240.315 249.195L303.149 230.085C306.357 229.104 309.336 227.493 311.914 225.346C314.492 223.198 316.616 220.558 318.162 217.579C319.707 214.6 320.644 211.343 320.917 207.997C321.189 204.651 320.793 201.285 319.75 198.095L304.343 150.113L270.883 158.428L289.249 202.824L232.223 221.807Z" fill="url(#paint6_linear_504_5872)"/>
<path d="M304.566 229.603L304.262 229.714L303.357 230.003L299.841 231.095L286.675 235.133L240.938 249.024L240.768 249.068L240.708 248.905C237.912 240.531 235.197 231.325 232.059 221.867L232 221.688L232.185 221.622L233.765 221.102L289.219 202.668L289.13 202.868C284.679 192.104 281.074 183.284 278.552 177.137C277.306 174.078 276.327 171.687 275.66 170.047C275.341 169.237 275.088 168.614 274.918 168.183C274.747 167.753 274.681 167.545 274.681 167.545C274.681 167.545 274.784 167.753 274.962 168.168L275.749 170.009C276.431 171.643 277.432 174.026 278.716 177.07C281.267 183.202 284.932 192.007 289.412 202.757L289.471 202.906L289.315 202.958L233.862 221.466L232.282 221.993L232.401 221.748C235.546 231.214 238.246 240.419 241.035 248.786L240.812 248.668L286.586 234.918L299.804 230.976L303.334 229.944L304.254 229.684L304.566 229.603Z" fill="#263238"/>
<path d="M300.864 210.805C300.805 210.805 300.39 210.114 299.551 209.067C297.351 206.332 294.358 204.346 290.984 203.381C289.694 203.009 288.863 202.906 288.87 202.839C289.066 202.803 289.267 202.803 289.464 202.839C289.999 202.889 290.529 202.978 291.051 203.106C292.784 203.526 294.43 204.244 295.917 205.229C297.405 206.214 298.708 207.453 299.767 208.889C300.087 209.322 300.375 209.779 300.627 210.255C300.739 210.423 300.819 210.609 300.864 210.805Z" fill="#263238"/>
<path d="M285.637 160.759C285.441 159.415 285.377 158.055 285.443 156.698C285.377 155.341 285.441 153.981 285.637 152.637C285.894 155.338 285.894 158.058 285.637 160.759Z" fill="#FAFAFA"/>
<path d="M298.253 161.405C297.676 160.155 297.219 158.852 296.888 157.515C296.432 156.215 296.099 154.875 295.895 153.513C296.926 156.064 297.716 158.706 298.253 161.405Z" fill="#FAFAFA"/>
<path d="M290.428 172.801C287.83 172.781 285.289 172.035 283.092 170.648C283.144 170.544 284.694 171.279 286.719 171.865C288.744 172.452 290.435 172.69 290.428 172.801Z" fill="#FAFAFA"/>
<path d="M304.699 179.067C304.729 177.762 304.888 176.464 305.174 175.191C305.333 173.895 305.618 172.616 306.027 171.375C305.993 172.682 305.834 173.982 305.552 175.258C305.395 176.553 305.11 177.829 304.699 179.067Z" fill="#FAFAFA"/>
<path d="M299.596 189.297C298.251 186.982 297.135 184.54 296.266 182.007C297.607 184.324 298.722 186.766 299.596 189.297Z" fill="#FAFAFA"/>
<path d="M297.503 198.251C296.282 197.877 295.101 197.379 293.98 196.766C292.804 196.269 291.683 195.652 290.635 194.925C291.851 195.307 293.028 195.804 294.151 196.409C295.328 196.907 296.451 197.524 297.503 198.251Z" fill="#FAFAFA"/>
<path d="M313.556 195.867C313.155 197.032 312.682 198.17 312.139 199.275C311.715 200.428 311.219 201.554 310.655 202.646C311.183 200.223 312.168 197.922 313.556 195.867Z" fill="#FAFAFA"/>
<path d="M309.09 217.434C308.554 214.687 308.278 211.896 308.267 209.097C308.589 210.46 308.79 211.849 308.867 213.247C309.069 214.633 309.143 216.035 309.09 217.434Z" fill="#FAFAFA"/>
<path d="M297.757 224.242C296.686 223.53 295.692 222.709 294.79 221.792C293.806 220.973 292.906 220.058 292.104 219.06C293.175 219.773 294.169 220.594 295.072 221.51C296.055 222.329 296.955 223.244 297.757 224.242Z" fill="#FAFAFA"/>
<path d="M278.174 226.195C276.771 228.552 275.147 230.769 273.323 232.817C273.967 231.605 274.728 230.459 275.593 229.395C276.351 228.249 277.216 227.178 278.174 226.195Z" fill="#FAFAFA"/>
<path d="M284.383 217.011C283.257 216.283 282.245 215.392 281.379 214.368C280.421 213.432 279.61 212.356 278.976 211.176C279.065 211.109 280.17 212.505 281.661 214.108C283.152 215.712 284.45 216.93 284.383 217.011Z" fill="#FAFAFA"/>
<path d="M269.615 219.098C268.674 219.477 267.651 219.603 266.648 219.462C265.637 219.449 264.646 219.178 263.77 218.674C263.814 218.563 265.068 218.964 266.67 219.076C268.272 219.187 269.615 218.986 269.615 219.098Z" fill="#FAFAFA"/>
<path d="M260.26 235.341C259.89 234.31 259.641 233.238 259.518 232.149C259.268 231.081 259.145 229.987 259.155 228.89C259.774 230.99 260.145 233.155 260.26 235.341Z" fill="#FAFAFA"/>
<path d="M249.224 240.939C246.665 239.63 244.229 238.092 241.947 236.344C243.257 236.943 244.51 237.659 245.693 238.482C246.94 239.196 248.121 240.018 249.224 240.939Z" fill="#FAFAFA"/>
<path d="M253.162 221.176C253.244 221.25 252.168 222.527 250.974 224.19C249.78 225.853 248.889 227.271 248.793 227.219C249.241 226.043 249.869 224.943 250.655 223.96C251.338 222.905 252.184 221.966 253.162 221.176Z" fill="#FAFAFA"/>
<path d="M244.632 224.925C243.865 224.756 243.131 224.463 242.459 224.057C241.733 223.764 241.061 223.353 240.471 222.839C241.964 223.298 243.37 224.003 244.632 224.925Z" fill="#FAFAFA"/>
<g opacity="0.2">
<path opacity="0.2" d="M288.722 201.688C292.074 202.029 295.435 202.378 298.78 202.802C299.947 202.887 301.095 203.137 302.192 203.544C302.737 203.757 303.234 204.077 303.652 204.487C304.07 204.896 304.401 205.386 304.625 205.927C304.834 206.475 304.857 207.078 304.689 207.64C304.521 208.203 304.173 208.694 303.698 209.038C303.223 209.281 302.693 209.397 302.159 209.374C301.626 209.35 301.108 209.188 300.656 208.904C299.758 208.332 298.919 207.673 298.149 206.937C296.641 205.688 294.887 204.77 293.002 204.242C292.143 204.078 291.313 203.788 290.539 203.381C290.153 203.166 289.842 202.836 289.651 202.437C289.46 202.038 289.397 201.59 289.471 201.153" fill="black"/>
</g>
<path d="M95.9023 240.137C95.9023 240.577 95.8477 240.978 95.7383 241.34C95.6289 241.699 95.4622 242.009 95.2383 242.27C95.0169 242.53 94.7357 242.73 94.3945 242.871C94.0534 243.009 93.6497 243.078 93.1836 243.078C92.7174 243.078 92.3138 243.009 91.9727 242.871C91.6315 242.73 91.349 242.53 91.125 242.27C90.9036 242.009 90.7383 241.698 90.6289 241.336C90.5195 240.974 90.4648 240.572 90.4648 240.129C90.4648 239.538 90.5612 239.023 90.7539 238.586C90.9492 238.146 91.2487 237.805 91.6523 237.562C92.056 237.32 92.569 237.199 93.1914 237.199C93.8112 237.199 94.3203 237.32 94.7188 237.562C95.1198 237.805 95.4167 238.146 95.6094 238.586C95.8047 239.026 95.9023 239.543 95.9023 240.137ZM91.7344 240.137C91.7344 240.535 91.7839 240.879 91.8828 241.168C91.9844 241.454 92.1419 241.676 92.3555 241.832C92.569 241.986 92.8451 242.062 93.1836 242.062C93.5273 242.062 93.806 241.986 94.0195 241.832C94.2331 241.676 94.388 241.454 94.4844 241.168C94.5833 240.879 94.6328 240.535 94.6328 240.137C94.6328 239.538 94.5208 239.066 94.2969 238.723C94.0729 238.379 93.7044 238.207 93.1914 238.207C92.8503 238.207 92.5716 238.285 92.3555 238.441C92.1419 238.595 91.9844 238.816 91.8828 239.105C91.7839 239.392 91.7344 239.736 91.7344 240.137ZM100.605 239.527H99.1758V243H97.9844V239.527H96.5508V238.633H100.605V239.527ZM104.285 238.633H105.598L103.867 240.727L105.75 243H104.398L102.613 240.785V243H101.422V238.633H102.613V240.754L104.285 238.633ZM110.285 243H109.094V239.527H107.996C107.941 240.168 107.876 240.714 107.801 241.164C107.725 241.615 107.629 241.982 107.512 242.266C107.395 242.547 107.249 242.753 107.074 242.883C106.9 243.013 106.685 243.078 106.43 243.078C106.289 243.078 106.163 243.068 106.051 243.047C105.941 243.026 105.841 242.995 105.75 242.953V242C105.807 242.023 105.868 242.043 105.934 242.059C105.999 242.072 106.065 242.078 106.133 242.078C106.208 242.078 106.28 242.048 106.348 241.988C106.415 241.928 106.479 241.826 106.539 241.68C106.599 241.531 106.655 241.327 106.707 241.066C106.762 240.806 106.811 240.477 106.855 240.078C106.9 239.68 106.941 239.198 106.98 238.633H110.285V243ZM115.508 240.809C115.508 241.173 115.458 241.496 115.359 241.777C115.263 242.059 115.121 242.297 114.934 242.492C114.749 242.685 114.525 242.831 114.262 242.93C114.001 243.029 113.707 243.078 113.379 243.078C113.072 243.078 112.789 243.029 112.531 242.93C112.276 242.831 112.053 242.685 111.863 242.492C111.676 242.297 111.53 242.059 111.426 241.777C111.324 241.496 111.273 241.173 111.273 240.809C111.273 240.324 111.359 239.914 111.531 239.578C111.703 239.242 111.948 238.987 112.266 238.812C112.583 238.638 112.962 238.551 113.402 238.551C113.811 238.551 114.173 238.638 114.488 238.812C114.806 238.987 115.055 239.242 115.234 239.578C115.417 239.914 115.508 240.324 115.508 240.809ZM112.488 240.809C112.488 241.095 112.52 241.336 112.582 241.531C112.645 241.727 112.742 241.874 112.875 241.973C113.008 242.072 113.181 242.121 113.395 242.121C113.605 242.121 113.776 242.072 113.906 241.973C114.039 241.874 114.135 241.727 114.195 241.531C114.258 241.336 114.289 241.095 114.289 240.809C114.289 240.52 114.258 240.28 114.195 240.09C114.135 239.897 114.039 239.753 113.906 239.656C113.773 239.56 113.6 239.512 113.387 239.512C113.072 239.512 112.842 239.62 112.699 239.836C112.559 240.052 112.488 240.376 112.488 240.809ZM117.684 238.633V240.312H119.348V238.633H120.539V243H119.348V241.199H117.684V243H116.492V238.633H117.684ZM122.941 238.633V240.359C122.941 240.448 122.938 240.56 122.93 240.695C122.924 240.828 122.917 240.964 122.906 241.102C122.896 241.24 122.885 241.363 122.875 241.473C122.865 241.582 122.857 241.656 122.852 241.695L124.867 238.633H126.301V243H125.148V241.258C125.148 241.115 125.154 240.957 125.164 240.785C125.174 240.611 125.186 240.447 125.199 240.293C125.212 240.139 125.221 240.023 125.227 239.945L123.219 243H121.789V238.633H122.941ZM131.168 239.527H129.738V243H128.547V239.527H127.113V238.633H131.168V239.527ZM133.176 240.32H134.016C134.464 240.32 134.833 240.367 135.125 240.461C135.417 240.555 135.634 240.698 135.777 240.891C135.921 241.081 135.992 241.32 135.992 241.609C135.992 241.891 135.927 242.135 135.797 242.344C135.667 242.552 135.46 242.714 135.176 242.828C134.892 242.943 134.521 243 134.062 243H131.984V238.633H133.176V240.32ZM134.801 241.625C134.801 241.456 134.733 241.333 134.598 241.258C134.462 241.182 134.26 241.145 133.992 241.145H133.176V242.176H134.008C134.24 242.176 134.43 242.134 134.578 242.051C134.727 241.965 134.801 241.823 134.801 241.625Z" fill="url(#paint7_linear_504_5872)"/>
<path d="M163.133 243V237.289H167.652V243H166.445V238.297H164.344V243H163.133ZM171.43 238.551C171.922 238.551 172.319 238.742 172.621 239.125C172.926 239.508 173.078 240.069 173.078 240.809C173.078 241.303 173.007 241.72 172.863 242.059C172.72 242.395 172.522 242.648 172.27 242.82C172.017 242.992 171.727 243.078 171.398 243.078C171.188 243.078 171.007 243.052 170.855 243C170.704 242.945 170.576 242.876 170.469 242.793C170.362 242.707 170.27 242.616 170.191 242.52H170.129C170.15 242.624 170.165 242.73 170.176 242.84C170.186 242.949 170.191 243.056 170.191 243.16V244.922H169V238.633H169.969L170.137 239.199H170.191C170.27 239.082 170.365 238.974 170.477 238.875C170.589 238.776 170.723 238.698 170.879 238.641C171.038 238.581 171.221 238.551 171.43 238.551ZM171.047 239.504C170.839 239.504 170.673 239.547 170.551 239.633C170.428 239.719 170.339 239.848 170.281 240.02C170.227 240.191 170.197 240.409 170.191 240.672V240.801C170.191 241.082 170.217 241.32 170.27 241.516C170.324 241.711 170.414 241.859 170.539 241.961C170.667 242.062 170.841 242.113 171.062 242.113C171.245 242.113 171.395 242.062 171.512 241.961C171.629 241.859 171.716 241.711 171.773 241.516C171.833 241.318 171.863 241.077 171.863 240.793C171.863 240.366 171.797 240.044 171.664 239.828C171.531 239.612 171.326 239.504 171.047 239.504ZM175.215 238.633V240.359C175.215 240.448 175.211 240.56 175.203 240.695C175.198 240.828 175.19 240.964 175.18 241.102C175.169 241.24 175.159 241.363 175.148 241.473C175.138 241.582 175.13 241.656 175.125 241.695L177.141 238.633H178.574V243H177.422V241.258C177.422 241.115 177.427 240.957 177.438 240.785C177.448 240.611 177.46 240.447 177.473 240.293C177.486 240.139 177.495 240.023 177.5 239.945L175.492 243H174.062V238.633H175.215ZM181.02 238.633V240.312H182.684V238.633H183.875V243H182.684V241.199H181.02V243H179.828V238.633H181.02ZM185.789 243H184.5L185.676 241.273C185.527 241.211 185.388 241.125 185.258 241.016C185.128 240.904 185.022 240.763 184.941 240.594C184.861 240.424 184.82 240.221 184.82 239.984C184.82 239.549 184.984 239.216 185.312 238.984C185.643 238.75 186.069 238.633 186.59 238.633H188.621V243H187.43V241.375H186.773L185.789 243ZM185.988 239.992C185.988 240.174 186.06 240.318 186.203 240.422C186.349 240.523 186.536 240.574 186.766 240.574H187.43V239.473H186.613C186.4 239.473 186.242 239.525 186.141 239.629C186.039 239.73 185.988 239.852 185.988 239.992ZM193.48 239.527H192.051V243H190.859V239.527H189.426V238.633H193.48V239.527ZM195.488 240.32H196.328C196.776 240.32 197.146 240.367 197.438 240.461C197.729 240.555 197.947 240.698 198.09 240.891C198.233 241.081 198.305 241.32 198.305 241.609C198.305 241.891 198.24 242.135 198.109 242.344C197.979 242.552 197.772 242.714 197.488 242.828C197.204 242.943 196.833 243 196.375 243H194.297V238.633H195.488V240.32ZM197.113 241.625C197.113 241.456 197.046 241.333 196.91 241.258C196.775 241.182 196.573 241.145 196.305 241.145H195.488V242.176H196.32C196.552 242.176 196.742 242.134 196.891 242.051C197.039 241.965 197.113 241.823 197.113 241.625Z" fill="#FAFAFA"/>
<path d="M100.101 99.7168L98.7061 102.822C98.585 103.096 98.4619 103.324 98.3369 103.508C98.2119 103.691 98.0635 103.829 97.8916 103.921C97.7197 104.013 97.502 104.059 97.2383 104.059C97.125 104.059 97.0195 104.05 96.9219 104.032C96.8262 104.017 96.7402 103.996 96.6641 103.971V103.476C96.7422 103.513 96.8262 103.542 96.916 103.563C97.0078 103.583 97.1045 103.593 97.2061 103.593C97.3564 103.593 97.4854 103.57 97.5928 103.525C97.7002 103.479 97.7949 103.405 97.877 103.306C97.959 103.204 98.0371 103.07 98.1113 102.904L96.459 99.7168H97.0039L98.2227 102.11C98.2383 102.14 98.2549 102.174 98.2725 102.213C98.29 102.25 98.3076 102.289 98.3252 102.33C98.3428 102.369 98.3584 102.408 98.3721 102.447H98.3926C98.4043 102.418 98.417 102.384 98.4307 102.345C98.4463 102.306 98.4619 102.267 98.4775 102.228C98.4932 102.188 98.5068 102.155 98.5186 102.128L99.5703 99.7168H100.101ZM101.902 104.059C101.613 104.059 101.358 103.999 101.138 103.88C100.917 103.761 100.745 103.579 100.622 103.335C100.499 103.091 100.438 102.783 100.438 102.412C100.438 102.023 100.502 101.706 100.631 101.46C100.762 101.212 100.941 101.028 101.17 100.909C101.398 100.79 101.658 100.73 101.949 100.73C102.109 100.73 102.264 100.747 102.412 100.78C102.562 100.812 102.686 100.852 102.781 100.9L102.635 101.308C102.537 101.269 102.424 101.233 102.295 101.202C102.168 101.171 102.049 101.155 101.938 101.155C101.715 101.155 101.529 101.203 101.381 101.299C101.234 101.395 101.124 101.535 101.05 101.721C100.978 101.906 100.941 102.135 100.941 102.406C100.941 102.666 100.977 102.888 101.047 103.071C101.119 103.255 101.226 103.396 101.366 103.493C101.509 103.589 101.687 103.637 101.899 103.637C102.069 103.637 102.223 103.619 102.359 103.584C102.496 103.547 102.62 103.504 102.731 103.455V103.889C102.624 103.943 102.504 103.985 102.371 104.015C102.24 104.044 102.084 104.059 101.902 104.059ZM105.901 104H105.406V101.196H104.431C104.392 101.702 104.342 102.136 104.281 102.497C104.223 102.856 104.148 103.15 104.059 103.379C103.971 103.605 103.863 103.772 103.736 103.88C103.611 103.985 103.462 104.038 103.288 104.038C103.235 104.038 103.186 104.035 103.139 104.029C103.092 104.023 103.052 104.014 103.019 104V103.631C103.044 103.639 103.07 103.645 103.098 103.648C103.127 103.652 103.157 103.654 103.188 103.654C103.276 103.654 103.356 103.618 103.429 103.546C103.503 103.472 103.569 103.36 103.628 103.212C103.688 103.063 103.742 102.876 103.789 102.649C103.836 102.421 103.877 102.152 103.912 101.844C103.949 101.533 103.981 101.182 104.009 100.789H105.901V104ZM109.695 102.389C109.695 102.652 109.661 102.888 109.593 103.095C109.524 103.302 109.426 103.477 109.297 103.619C109.168 103.762 109.012 103.871 108.828 103.947C108.646 104.021 108.44 104.059 108.21 104.059C107.995 104.059 107.798 104.021 107.618 103.947C107.44 103.871 107.286 103.762 107.155 103.619C107.026 103.477 106.926 103.302 106.854 103.095C106.783 102.888 106.748 102.652 106.748 102.389C106.748 102.037 106.808 101.738 106.927 101.492C107.046 101.244 107.216 101.056 107.437 100.927C107.659 100.796 107.924 100.73 108.23 100.73C108.523 100.73 108.779 100.796 108.998 100.927C109.219 101.058 109.39 101.247 109.511 101.495C109.634 101.741 109.695 102.039 109.695 102.389ZM107.252 102.389C107.252 102.646 107.286 102.87 107.354 103.06C107.423 103.249 107.528 103.396 107.671 103.499C107.813 103.603 107.997 103.654 108.222 103.654C108.444 103.654 108.627 103.603 108.77 103.499C108.914 103.396 109.021 103.249 109.089 103.06C109.157 102.87 109.191 102.646 109.191 102.389C109.191 102.133 109.157 101.912 109.089 101.727C109.021 101.539 108.915 101.395 108.772 101.293C108.63 101.191 108.445 101.141 108.219 101.141C107.885 101.141 107.64 101.251 107.483 101.472C107.329 101.692 107.252 101.998 107.252 102.389ZM113.088 101.595C113.088 101.796 113.029 101.953 112.912 102.066C112.795 102.178 112.644 102.253 112.458 102.292V102.315C112.659 102.343 112.832 102.415 112.977 102.532C113.123 102.647 113.196 102.824 113.196 103.062C113.196 103.246 113.152 103.408 113.064 103.549C112.977 103.689 112.839 103.8 112.651 103.88C112.464 103.96 112.22 104 111.919 104H110.536V100.789H111.907C112.138 100.789 112.341 100.815 112.517 100.868C112.694 100.919 112.834 101.003 112.936 101.12C113.037 101.237 113.088 101.396 113.088 101.595ZM112.689 103.062C112.689 102.873 112.617 102.736 112.473 102.652C112.33 102.568 112.122 102.526 111.849 102.526H111.025V103.604H111.86C112.13 103.604 112.335 103.563 112.476 103.481C112.618 103.397 112.689 103.258 112.689 103.062ZM112.593 101.65C112.593 101.498 112.537 101.385 112.426 101.311C112.314 101.234 112.132 101.196 111.878 101.196H111.025V102.119H111.793C112.057 102.119 112.256 102.081 112.391 102.005C112.525 101.929 112.593 101.811 112.593 101.65ZM114.444 100.789V102.808C114.444 102.847 114.443 102.897 114.441 102.96C114.439 103.021 114.437 103.086 114.433 103.156C114.429 103.225 114.425 103.291 114.421 103.355C114.419 103.418 114.416 103.47 114.412 103.511L116.164 100.789H116.762V104H116.308V102.031C116.308 101.969 116.309 101.889 116.311 101.791C116.312 101.693 116.315 101.598 116.319 101.504C116.323 101.408 116.326 101.334 116.328 101.281L114.582 104H113.981V100.789H114.444ZM117.951 104H117.383L118.309 102.646C118.174 102.617 118.049 102.567 117.934 102.497C117.818 102.425 117.725 102.326 117.652 102.201C117.582 102.076 117.547 101.921 117.547 101.735C117.547 101.427 117.649 101.192 117.854 101.032C118.062 100.87 118.334 100.789 118.672 100.789H120.093V104H119.606V102.711H118.792L117.951 104ZM118.019 101.738C118.019 101.93 118.087 102.072 118.224 102.166C118.36 102.258 118.556 102.304 118.81 102.304H119.606V101.196H118.725C118.475 101.196 118.294 101.247 118.183 101.349C118.073 101.448 118.019 101.578 118.019 101.738Z" fill="#263238"/>
<path d="M122.125 54.2891L120.309 58.3789C120.15 58.7435 119.983 59.0521 119.809 59.3047C119.637 59.5573 119.424 59.75 119.172 59.8828C118.919 60.013 118.592 60.0781 118.191 60.0781C118.046 60.0781 117.9 60.0677 117.754 60.0469C117.608 60.026 117.474 59.9974 117.352 59.9609V59.1094C117.469 59.1589 117.595 59.1966 117.73 59.2227C117.868 59.2461 118.005 59.2578 118.141 59.2578C118.331 59.2578 118.488 59.2279 118.613 59.168C118.741 59.1081 118.848 59.0195 118.934 58.9023C119.022 58.7826 119.102 58.6367 119.172 58.4648L117.082 54.2891H118.086L119.434 57.1211C119.454 57.1654 119.48 57.2227 119.512 57.293C119.543 57.3607 119.573 57.431 119.602 57.5039C119.633 57.5742 119.659 57.6393 119.68 57.6992H119.715C119.733 57.6471 119.755 57.5859 119.781 57.5156C119.81 57.4427 119.839 57.3685 119.867 57.293C119.898 57.2174 119.926 57.151 119.949 57.0938L121.145 54.2891H122.125ZM124.523 60.0781C124.115 60.0781 123.76 59.9987 123.461 59.8398C123.161 59.681 122.931 59.4375 122.77 59.1094C122.608 58.7812 122.527 58.3646 122.527 57.8594C122.527 57.3333 122.616 56.9036 122.793 56.5703C122.97 56.237 123.215 55.9909 123.527 55.832C123.842 55.6732 124.203 55.5938 124.609 55.5938C124.867 55.5938 125.1 55.6198 125.309 55.6719C125.52 55.7214 125.698 55.7826 125.844 55.8555L125.57 56.5898C125.411 56.5247 125.249 56.4701 125.082 56.4258C124.915 56.3815 124.755 56.3594 124.602 56.3594C124.349 56.3594 124.138 56.4154 123.969 56.5273C123.802 56.6393 123.677 56.806 123.594 57.0273C123.513 57.2487 123.473 57.5234 123.473 57.8516C123.473 58.1693 123.514 58.4375 123.598 58.6562C123.681 58.8724 123.805 59.0365 123.969 59.1484C124.133 59.2578 124.335 59.3125 124.574 59.3125C124.811 59.3125 125.023 59.2839 125.211 59.2266C125.398 59.1693 125.576 59.0951 125.742 59.0039V59.8008C125.578 59.8945 125.402 59.9635 125.215 60.0078C125.027 60.0547 124.797 60.0781 124.523 60.0781ZM130.316 60H129.391V56.3945H128.191C128.139 57.0508 128.074 57.612 127.996 58.0781C127.918 58.5443 127.82 58.9245 127.703 59.2188C127.586 59.5104 127.441 59.724 127.27 59.8594C127.098 59.9948 126.891 60.0625 126.648 60.0625C126.542 60.0625 126.445 60.0547 126.359 60.0391C126.273 60.026 126.197 60.0052 126.129 59.9766V59.2539C126.173 59.2695 126.221 59.2826 126.273 59.293C126.326 59.3034 126.379 59.3086 126.434 59.3086C126.53 59.3086 126.618 59.2695 126.699 59.1914C126.783 59.1107 126.859 58.9844 126.93 58.8125C127 58.6406 127.064 58.4141 127.121 58.1328C127.178 57.849 127.23 57.5052 127.277 57.1016C127.324 56.6953 127.366 56.2201 127.402 55.6758H130.316V60ZM135.461 57.8281C135.461 58.1875 135.414 58.5065 135.32 58.7852C135.227 59.0638 135.09 59.2995 134.91 59.4922C134.73 59.6823 134.514 59.8281 134.262 59.9297C134.009 60.0286 133.724 60.0781 133.406 60.0781C133.109 60.0781 132.837 60.0286 132.59 59.9297C132.342 59.8281 132.128 59.6823 131.945 59.4922C131.766 59.2995 131.626 59.0638 131.527 58.7852C131.428 58.5065 131.379 58.1875 131.379 57.8281C131.379 57.3516 131.461 56.9479 131.625 56.6172C131.792 56.2839 132.029 56.0299 132.336 55.8555C132.643 55.681 133.009 55.5938 133.434 55.5938C133.832 55.5938 134.184 55.681 134.488 55.8555C134.793 56.0299 135.031 56.2839 135.203 56.6172C135.375 56.9505 135.461 57.3542 135.461 57.8281ZM132.324 57.8281C132.324 58.1432 132.362 58.4128 132.438 58.6367C132.516 58.8607 132.635 59.0326 132.797 59.1523C132.958 59.2695 133.167 59.3281 133.422 59.3281C133.677 59.3281 133.885 59.2695 134.047 59.1523C134.208 59.0326 134.327 58.8607 134.402 58.6367C134.478 58.4128 134.516 58.1432 134.516 57.8281C134.516 57.513 134.478 57.2461 134.402 57.0273C134.327 56.806 134.208 56.638 134.047 56.5234C133.885 56.4062 133.676 56.3477 133.418 56.3477C133.038 56.3477 132.76 56.4753 132.586 56.7305C132.411 56.9857 132.324 57.3516 132.324 57.8281ZM140.152 56.7852C140.152 57.0352 140.076 57.2396 139.922 57.3984C139.771 57.5547 139.562 57.6576 139.297 57.707V57.7383C139.581 57.7747 139.818 57.875 140.008 58.0391C140.198 58.2031 140.293 58.431 140.293 58.7227C140.293 58.9701 140.23 59.1901 140.105 59.3828C139.983 59.5729 139.788 59.724 139.52 59.8359C139.254 59.9453 138.906 60 138.477 60H136.516V55.6758H138.469C138.792 55.6758 139.079 55.7109 139.332 55.7812C139.587 55.8516 139.788 55.9674 139.934 56.1289C140.079 56.2904 140.152 56.5091 140.152 56.7852ZM139.336 58.6914C139.336 58.4779 139.254 58.3242 139.09 58.2305C138.928 58.1367 138.691 58.0898 138.379 58.0898H137.438V59.3242H138.398C138.69 59.3242 138.919 59.276 139.086 59.1797C139.253 59.0807 139.336 58.918 139.336 58.6914ZM139.219 56.8672C139.219 56.6979 139.155 56.5729 139.027 56.4922C138.9 56.4089 138.699 56.3672 138.426 56.3672H137.438V57.4141H138.301C138.603 57.4141 138.831 57.3711 138.984 57.2852C139.141 57.1966 139.219 57.0573 139.219 56.8672ZM142.211 55.6758V57.8828C142.211 57.9531 142.208 58.043 142.203 58.1523C142.201 58.2591 142.195 58.3711 142.188 58.4883C142.18 58.6029 142.172 58.7083 142.164 58.8047C142.156 58.901 142.15 58.9727 142.145 59.0195L144.32 55.6758H145.438V60H144.559V57.8164C144.559 57.7018 144.561 57.569 144.566 57.418C144.574 57.2669 144.582 57.1211 144.59 56.9805C144.6 56.8398 144.607 56.7331 144.609 56.6602L142.441 60H141.328V55.6758H142.211ZM147.191 60H146.168L147.375 58.2344C147.211 58.1823 147.057 58.1055 146.914 58.0039C146.773 57.8997 146.659 57.7643 146.57 57.5977C146.482 57.4284 146.438 57.2227 146.438 56.9805C146.438 56.5586 146.589 56.2357 146.891 56.0117C147.193 55.7878 147.587 55.6758 148.074 55.6758H150.035V60H149.117V58.3281H148.246L147.191 60ZM147.336 56.9883C147.336 57.207 147.418 57.3737 147.582 57.4883C147.746 57.6003 147.97 57.6562 148.254 57.6562H149.117V56.3672H148.121C147.848 56.3672 147.648 56.4271 147.523 56.5469C147.398 56.6641 147.336 56.8112 147.336 56.9883ZM157.25 57.8281C157.25 58.1875 157.203 58.5065 157.109 58.7852C157.016 59.0638 156.879 59.2995 156.699 59.4922C156.52 59.6823 156.303 59.8281 156.051 59.9297C155.798 60.0286 155.513 60.0781 155.195 60.0781C154.898 60.0781 154.626 60.0286 154.379 59.9297C154.132 59.8281 153.917 59.6823 153.734 59.4922C153.555 59.2995 153.415 59.0638 153.316 58.7852C153.217 58.5065 153.168 58.1875 153.168 57.8281C153.168 57.3516 153.25 56.9479 153.414 56.6172C153.581 56.2839 153.818 56.0299 154.125 55.8555C154.432 55.681 154.798 55.5938 155.223 55.5938C155.621 55.5938 155.973 55.681 156.277 55.8555C156.582 56.0299 156.82 56.2839 156.992 56.6172C157.164 56.9505 157.25 57.3542 157.25 57.8281ZM154.113 57.8281C154.113 58.1432 154.151 58.4128 154.227 58.6367C154.305 58.8607 154.424 59.0326 154.586 59.1523C154.747 59.2695 154.956 59.3281 155.211 59.3281C155.466 59.3281 155.674 59.2695 155.836 59.1523C155.997 59.0326 156.116 58.8607 156.191 58.6367C156.267 58.4128 156.305 58.1432 156.305 57.8281C156.305 57.513 156.267 57.2461 156.191 57.0273C156.116 56.806 155.997 56.638 155.836 56.5234C155.674 56.4062 155.465 56.3477 155.207 56.3477C154.827 56.3477 154.549 56.4753 154.375 56.7305C154.201 56.9857 154.113 57.3516 154.113 57.8281ZM158.059 57.4062C158.059 56.7786 158.128 56.2448 158.266 55.8047C158.404 55.3646 158.621 55.0117 158.918 54.7461C159.215 54.4805 159.6 54.2995 160.074 54.2031C160.382 54.1328 160.694 54.0729 161.012 54.0234C161.329 53.974 161.647 53.9258 161.965 53.8789L162.09 54.6875C161.941 54.7057 161.783 54.7279 161.613 54.7539C161.444 54.7773 161.273 54.8021 161.102 54.8281C160.932 54.8542 160.77 54.8815 160.613 54.9102C160.46 54.9362 160.322 54.9622 160.199 54.9883C159.954 55.0404 159.747 55.1263 159.578 55.2461C159.411 55.3633 159.281 55.5352 159.188 55.7617C159.094 55.9883 159.038 56.2904 159.02 56.668H159.07C159.141 56.5612 159.238 56.4544 159.363 56.3477C159.488 56.2409 159.639 56.1523 159.816 56.082C159.996 56.0091 160.201 55.9727 160.43 55.9727C160.789 55.9727 161.094 56.0482 161.344 56.1992C161.596 56.3503 161.788 56.569 161.918 56.8555C162.051 57.1419 162.117 57.487 162.117 57.8906C162.117 58.3724 162.031 58.776 161.859 59.1016C161.69 59.4245 161.453 59.668 161.148 59.832C160.844 59.9961 160.488 60.0781 160.082 60.0781C159.77 60.0781 159.488 60.0195 159.238 59.9023C158.991 59.7852 158.779 59.6133 158.602 59.3867C158.427 59.1576 158.293 58.8776 158.199 58.5469C158.105 58.2135 158.059 57.8333 158.059 57.4062ZM160.145 59.3242C160.353 59.3242 160.533 59.2799 160.684 59.1914C160.837 59.1029 160.956 58.9596 161.039 58.7617C161.125 58.5638 161.168 58.3021 161.168 57.9766C161.168 57.5755 161.095 57.2604 160.949 57.0312C160.806 56.7995 160.569 56.6836 160.238 56.6836C160.035 56.6836 159.849 56.7292 159.68 56.8203C159.51 56.9115 159.367 57.0182 159.25 57.1406C159.133 57.2604 159.049 57.3659 159 57.457C159 57.694 159.017 57.9232 159.051 58.1445C159.087 58.3659 159.147 58.5664 159.23 58.7461C159.316 58.9232 159.434 59.0638 159.582 59.168C159.73 59.2721 159.918 59.3242 160.145 59.3242ZM164.914 60.0781C164.505 60.0781 164.151 59.9987 163.852 59.8398C163.552 59.681 163.322 59.4375 163.16 59.1094C162.999 58.7812 162.918 58.3646 162.918 57.8594C162.918 57.3333 163.007 56.9036 163.184 56.5703C163.361 56.237 163.605 55.9909 163.918 55.832C164.233 55.6732 164.594 55.5938 165 55.5938C165.258 55.5938 165.491 55.6198 165.699 55.6719C165.91 55.7214 166.089 55.7826 166.234 55.8555L165.961 56.5898C165.802 56.5247 165.639 56.4701 165.473 56.4258C165.306 56.3815 165.146 56.3594 164.992 56.3594C164.74 56.3594 164.529 56.4154 164.359 56.5273C164.193 56.6393 164.068 56.806 163.984 57.0273C163.904 57.2487 163.863 57.5234 163.863 57.8516C163.863 58.1693 163.905 58.4375 163.988 58.6562C164.072 58.8724 164.195 59.0365 164.359 59.1484C164.523 59.2578 164.725 59.3125 164.965 59.3125C165.202 59.3125 165.414 59.2839 165.602 59.2266C165.789 59.1693 165.966 59.0951 166.133 59.0039V59.8008C165.969 59.8945 165.793 59.9635 165.605 60.0078C165.418 60.0547 165.188 60.0781 164.914 60.0781ZM170.707 60H169.781V56.3945H168.582C168.53 57.0508 168.465 57.612 168.387 58.0781C168.309 58.5443 168.211 58.9245 168.094 59.2188C167.977 59.5104 167.832 59.724 167.66 59.8594C167.488 59.9948 167.281 60.0625 167.039 60.0625C166.932 60.0625 166.836 60.0547 166.75 60.0391C166.664 60.026 166.587 60.0052 166.52 59.9766V59.2539C166.564 59.2695 166.612 59.2826 166.664 59.293C166.716 59.3034 166.77 59.3086 166.824 59.3086C166.921 59.3086 167.009 59.2695 167.09 59.1914C167.173 59.1107 167.25 58.9844 167.32 58.8125C167.391 58.6406 167.454 58.4141 167.512 58.1328C167.569 57.849 167.621 57.5052 167.668 57.1016C167.715 56.6953 167.757 56.2201 167.793 55.6758H170.707V60ZM171.371 55.6758H172.371L173.258 58.1445C173.297 58.2565 173.332 58.3672 173.363 58.4766C173.397 58.5833 173.426 58.6888 173.449 58.793C173.475 58.8971 173.496 59.0013 173.512 59.1055H173.535C173.561 58.9701 173.598 58.819 173.645 58.6523C173.694 58.4831 173.749 58.3138 173.809 58.1445L174.66 55.6758H175.648L173.793 60.5938C173.686 60.875 173.555 61.1146 173.398 61.3125C173.245 61.513 173.062 61.6641 172.852 61.7656C172.641 61.8698 172.4 61.9219 172.129 61.9219C171.999 61.9219 171.885 61.9141 171.789 61.8984C171.693 61.8854 171.611 61.8711 171.543 61.8555V61.1211C171.598 61.1341 171.667 61.1458 171.75 61.1562C171.833 61.1667 171.919 61.1719 172.008 61.1719C172.172 61.1719 172.314 61.1393 172.434 61.0742C172.553 61.0091 172.655 60.9167 172.738 60.7969C172.822 60.6797 172.891 60.5456 172.945 60.3945L173.098 59.9883L171.371 55.6758ZM181.914 55.6758L180.219 57.7617L182.066 60H181.059L179.289 57.8047V60H178.434V57.8047L176.664 60H175.656L177.504 57.7617L175.809 55.6758H176.781L178.434 57.7734V55.6758H179.289V57.7734L180.945 55.6758H181.914ZM183.625 55.6758V57.8828C183.625 57.9531 183.622 58.043 183.617 58.1523C183.615 58.2591 183.609 58.3711 183.602 58.4883C183.594 58.6029 183.586 58.7083 183.578 58.8047C183.57 58.901 183.564 58.9727 183.559 59.0195L185.734 55.6758H186.852V60H185.973V57.8164C185.973 57.7018 185.975 57.569 185.98 57.418C185.988 57.2669 185.996 57.1211 186.004 56.9805C186.014 56.8398 186.021 56.7331 186.023 56.6602L183.855 60H182.742V55.6758H183.625ZM191.809 56.7852C191.809 57.0352 191.732 57.2396 191.578 57.3984C191.427 57.5547 191.219 57.6576 190.953 57.707V57.7383C191.237 57.7747 191.474 57.875 191.664 58.0391C191.854 58.2031 191.949 58.431 191.949 58.7227C191.949 58.9701 191.887 59.1901 191.762 59.3828C191.639 59.5729 191.444 59.724 191.176 59.8359C190.91 59.9453 190.562 60 190.133 60H188.172V55.6758H190.125C190.448 55.6758 190.736 55.7109 190.988 55.7812C191.243 55.8516 191.444 55.9674 191.59 56.1289C191.736 56.2904 191.809 56.5091 191.809 56.7852ZM190.992 58.6914C190.992 58.4779 190.91 58.3242 190.746 58.2305C190.585 58.1367 190.348 58.0898 190.035 58.0898H189.094V59.3242H190.055C190.346 59.3242 190.576 59.276 190.742 59.1797C190.909 59.0807 190.992 58.918 190.992 58.6914ZM190.875 56.8672C190.875 56.6979 190.811 56.5729 190.684 56.4922C190.556 56.4089 190.355 56.3672 190.082 56.3672H189.094V57.4141H189.957C190.259 57.4141 190.487 57.3711 190.641 57.2852C190.797 57.1966 190.875 57.0573 190.875 56.8672ZM194.68 55.5938C195.227 55.5938 195.639 55.7148 195.918 55.957C196.199 56.1992 196.34 56.5768 196.34 57.0898V60H195.688L195.512 59.3867H195.48C195.358 59.543 195.232 59.6719 195.102 59.7734C194.971 59.875 194.82 59.9505 194.648 60C194.479 60.0521 194.272 60.0781 194.027 60.0781C193.77 60.0781 193.539 60.0312 193.336 59.9375C193.133 59.8411 192.973 59.6953 192.855 59.5C192.738 59.3047 192.68 59.0573 192.68 58.7578C192.68 58.3125 192.845 57.9779 193.176 57.7539C193.509 57.5299 194.012 57.4062 194.684 57.3828L195.434 57.3555V57.1289C195.434 56.8294 195.363 56.6159 195.223 56.4883C195.085 56.3607 194.889 56.2969 194.637 56.2969C194.421 56.2969 194.211 56.3281 194.008 56.3906C193.805 56.4531 193.607 56.5299 193.414 56.6211L193.117 55.9727C193.328 55.8607 193.568 55.7695 193.836 55.6992C194.107 55.6289 194.388 55.5938 194.68 55.5938ZM195.43 57.9336L194.871 57.9531C194.413 57.9688 194.091 58.0469 193.906 58.1875C193.721 58.3281 193.629 58.5208 193.629 58.7656C193.629 58.9792 193.693 59.1354 193.82 59.2344C193.948 59.3307 194.116 59.3789 194.324 59.3789C194.642 59.3789 194.905 59.2891 195.113 59.1094C195.324 58.9271 195.43 58.6602 195.43 58.3086V57.9336ZM198.547 55.6758V57.4141H200.57V55.6758H201.492V60H200.57V58.1328H198.547V60H197.625V55.6758H198.547ZM203.688 55.6758V57.8828C203.688 57.9531 203.685 58.043 203.68 58.1523C203.677 58.2591 203.672 58.3711 203.664 58.4883C203.656 58.6029 203.648 58.7083 203.641 58.8047C203.633 58.901 203.626 58.9727 203.621 59.0195L205.797 55.6758H206.914V60H206.035V57.8164C206.035 57.7018 206.038 57.569 206.043 57.418C206.051 57.2669 206.059 57.1211 206.066 56.9805C206.077 56.8398 206.083 56.7331 206.086 56.6602L203.918 60H202.805V55.6758H203.688ZM208.668 60H207.645L208.852 58.2344C208.688 58.1823 208.534 58.1055 208.391 58.0039C208.25 57.8997 208.135 57.7643 208.047 57.5977C207.958 57.4284 207.914 57.2227 207.914 56.9805C207.914 56.5586 208.065 56.2357 208.367 56.0117C208.669 55.7878 209.064 55.6758 209.551 55.6758H211.512V60H210.594V58.3281H209.723L208.668 60ZM208.812 56.9883C208.812 57.207 208.895 57.3737 209.059 57.4883C209.223 57.6003 209.447 57.6562 209.73 57.6562H210.594V56.3672H209.598C209.324 56.3672 209.125 56.4271 209 56.5469C208.875 56.6641 208.812 56.8112 208.812 56.9883Z" fill="#263238"/>
<path d="M100.633 185H100.135V181.156H98.7461C98.7188 181.375 98.6895 181.604 98.6582 181.842C98.627 182.08 98.5947 182.317 98.5615 182.554C98.5283 182.79 98.4951 183.014 98.4619 183.225C98.4287 183.436 98.3955 183.623 98.3623 183.787C98.3115 184.059 98.248 184.29 98.1719 184.481C98.0977 184.671 97.998 184.816 97.873 184.918C97.75 185.018 97.5869 185.067 97.3838 185.067C97.3154 185.067 97.2471 185.061 97.1787 185.047C97.1123 185.033 97.0537 185.017 97.0029 184.997V184.578C97.0479 184.598 97.0977 184.614 97.1523 184.628C97.209 184.642 97.2686 184.648 97.3311 184.648C97.4541 184.648 97.5508 184.6 97.6211 184.502C97.6934 184.402 97.75 184.276 97.791 184.124C97.834 183.972 97.8711 183.815 97.9023 183.655C97.9277 183.522 97.957 183.354 97.9902 183.151C98.0234 182.948 98.0586 182.718 98.0957 182.46C98.1328 182.2 98.1709 181.923 98.21 181.628C98.251 181.333 98.291 181.029 98.3301 180.717H100.633V185ZM102.194 181.789V183.808C102.194 183.847 102.193 183.897 102.191 183.96C102.189 184.021 102.187 184.086 102.183 184.156C102.179 184.225 102.175 184.291 102.171 184.355C102.169 184.418 102.166 184.47 102.162 184.511L103.914 181.789H104.512V185H104.058V183.031C104.058 182.969 104.059 182.889 104.061 182.791C104.062 182.693 104.065 182.598 104.069 182.504C104.073 182.408 104.076 182.334 104.078 182.281L102.332 185H101.731V181.789H102.194ZM108.672 186.11H108.197V185H105.546V181.789H106.035V184.587H107.737V181.789H108.224V184.593H108.672V186.11ZM110.538 181.73C110.812 181.73 111.046 181.791 111.241 181.912C111.437 182.033 111.586 182.203 111.689 182.422C111.793 182.639 111.845 182.893 111.845 183.184V183.485H109.627C109.633 183.862 109.727 184.149 109.908 184.347C110.09 184.544 110.346 184.643 110.676 184.643C110.879 184.643 111.059 184.624 111.215 184.587C111.371 184.55 111.533 184.495 111.701 184.423V184.851C111.539 184.923 111.378 184.976 111.218 185.009C111.06 185.042 110.872 185.059 110.655 185.059C110.347 185.059 110.077 184.996 109.847 184.871C109.618 184.744 109.44 184.559 109.313 184.314C109.187 184.07 109.123 183.771 109.123 183.418C109.123 183.072 109.181 182.773 109.296 182.521C109.413 182.268 109.577 182.072 109.788 181.936C110.001 181.799 110.251 181.73 110.538 181.73ZM110.532 182.129C110.272 182.129 110.065 182.214 109.911 182.384C109.757 182.554 109.665 182.791 109.636 183.096H111.335C111.333 182.904 111.303 182.736 111.244 182.592C111.188 182.445 111.101 182.332 110.983 182.252C110.866 182.17 110.716 182.129 110.532 182.129ZM113.16 181.789V183.137H114.95V181.789H115.437V185H114.95V183.55H113.16V185H112.671V181.789H113.16ZM117.294 181.73C117.534 181.73 117.742 181.764 117.918 181.83C118.094 181.895 118.229 181.989 118.325 182.114C118.421 182.239 118.469 182.392 118.469 182.571C118.469 182.765 118.416 182.919 118.311 183.034C118.205 183.149 118.06 183.232 117.874 183.283V183.307C118.005 183.342 118.123 183.393 118.229 183.459C118.336 183.523 118.421 183.609 118.483 183.717C118.548 183.822 118.58 183.954 118.58 184.112C118.58 184.292 118.531 184.454 118.434 184.599C118.336 184.741 118.188 184.854 117.988 184.936C117.789 185.018 117.537 185.059 117.232 185.059C117.082 185.059 116.939 185.05 116.805 185.032C116.67 185.017 116.548 184.993 116.438 184.962C116.329 184.931 116.233 184.894 116.151 184.851V184.408C116.288 184.475 116.448 184.533 116.632 184.584C116.815 184.635 117.014 184.66 117.227 184.66C117.391 184.66 117.538 184.642 117.669 184.604C117.8 184.565 117.903 184.504 117.979 184.42C118.058 184.334 118.097 184.222 118.097 184.083C118.097 183.956 118.062 183.852 117.994 183.77C117.926 183.686 117.823 183.624 117.687 183.585C117.552 183.544 117.381 183.523 117.174 183.523H116.743V183.125H117.098C117.373 183.125 117.593 183.086 117.757 183.008C117.921 182.93 118.003 182.798 118.003 182.612C118.003 182.452 117.939 182.333 117.812 182.255C117.686 182.175 117.504 182.135 117.268 182.135C117.092 182.135 116.937 182.153 116.802 182.19C116.667 182.226 116.521 182.276 116.365 182.343L116.192 181.953C116.36 181.879 116.536 181.823 116.72 181.786C116.903 181.749 117.095 181.73 117.294 181.73ZM119.831 181.789V183.808C119.831 183.847 119.83 183.897 119.828 183.96C119.826 184.021 119.823 184.086 119.819 184.156C119.815 184.225 119.812 184.291 119.808 184.355C119.806 184.418 119.803 184.47 119.799 184.511L121.551 181.789H122.148V185H121.694V183.031C121.694 182.969 121.695 182.889 121.697 182.791C121.699 182.693 121.702 182.598 121.706 182.504C121.71 182.408 121.713 182.334 121.715 182.281L119.969 185H119.368V181.789H119.831ZM123.338 185H122.77L123.695 183.646C123.561 183.617 123.436 183.567 123.32 183.497C123.205 183.425 123.111 183.326 123.039 183.201C122.969 183.076 122.934 182.921 122.934 182.735C122.934 182.427 123.036 182.192 123.241 182.032C123.448 181.87 123.721 181.789 124.059 181.789H125.479V185H124.993V183.711H124.179L123.338 185ZM123.405 182.738C123.405 182.93 123.474 183.072 123.61 183.166C123.747 183.258 123.942 183.304 124.196 183.304H124.993V182.196H124.111C123.861 182.196 123.681 182.247 123.569 182.349C123.46 182.448 123.405 182.578 123.405 182.738Z" fill="#263238"/>
<defs>
<linearGradient id="paint0_linear_504_5872" x1="304.565" y1="268.067" x2="90.4423" y2="182.58" gradientUnits="userSpaceOnUse">
<stop offset="0.431134" stop-color="#008954"/>
<stop offset="0.809708" stop-color="#09B975"/>
</linearGradient>
<linearGradient id="paint1_linear_504_5872" x1="111.896" y1="76.0429" x2="77.1103" y2="63.1453" gradientUnits="userSpaceOnUse">
<stop offset="0.431134" stop-color="#008954"/>
<stop offset="0.809708" stop-color="#09B975"/>
</linearGradient>
<linearGradient id="paint2_linear_504_5872" x1="111.895" y1="51.9741" x2="99.1765" y2="45.9926" gradientUnits="userSpaceOnUse">
<stop offset="0.431134" stop-color="#008954"/>
<stop offset="0.809708" stop-color="#09B975"/>
</linearGradient>
<linearGradient id="paint3_linear_504_5872" x1="221.437" y1="146.579" x2="217.208" y2="146.527" gradientUnits="userSpaceOnUse">
<stop offset="0.431134" stop-color="#008954"/>
<stop offset="0.809708" stop-color="#09B975"/>
</linearGradient>
<linearGradient id="paint4_linear_504_5872" x1="211" y1="252" x2="176.745" y2="208.654" gradientUnits="userSpaceOnUse">
<stop offset="0.431134" stop-color="#008954"/>
<stop offset="0.809708" stop-color="#09B975"/>
</linearGradient>
<linearGradient id="paint5_linear_504_5872" x1="144" y1="252" x2="109.745" y2="208.654" gradientUnits="userSpaceOnUse">
<stop offset="0.431134" stop-color="#008954"/>
<stop offset="0.809708" stop-color="#09B975"/>
</linearGradient>
<linearGradient id="paint6_linear_504_5872" x1="353" y1="203.5" x2="237.167" y2="268.153" gradientUnits="userSpaceOnUse">
<stop offset="0.431134" stop-color="#008954"/>
<stop offset="0.809708" stop-color="#09B975"/>
</linearGradient>
<linearGradient id="paint7_linear_504_5872" x1="137" y1="245" x2="123.819" y2="217.682" gradientUnits="userSpaceOnUse">
<stop offset="0.431134" stop-color="#008954"/>
<stop offset="0.809708" stop-color="#09B975"/>
</linearGradient>
</defs>
</svg>
