<svg width="230" height="268" viewBox="0 0 230 268" fill="none" xmlns="http://www.w3.org/2000/svg">
<path d="M229.811 253.486C229.811 253.57 178.536 253.642 115.304 253.642C52.0723 253.642 0.785156 253.57 0.785156 253.486C0.785156 253.402 52.0484 253.33 115.304 253.33C178.559 253.33 229.811 253.396 229.811 253.486Z" fill="#263238"/>
<path d="M104.787 245.376L108.368 233.038L93.5839 231.832L92.3584 246.228L96.7763 249.029L104.787 245.376Z" fill="#FFA8A7"/>
<path d="M148.04 231.766L146.325 252.928L136.646 251.518L135.994 230.735L148.04 231.766Z" fill="#FFA8A7"/>
<path d="M136.608 247.338C136.608 247.338 143.107 252.598 146.73 248.736L147.447 250.793L150.293 265.279C150.389 265.737 150.313 266.215 150.079 266.62C149.845 267.026 149.47 267.33 149.025 267.474C148.682 267.581 148.316 267.589 147.968 267.498C147.621 267.407 147.306 267.22 147.058 266.958C144.44 264.127 134.839 253.672 135.036 252.37L135.335 248.885C135.37 248.53 135.51 248.193 135.737 247.917C135.964 247.641 136.267 247.44 136.608 247.338Z" fill="url(#paint0_linear_473_7305)"/>
<g opacity="0.6">
<path opacity="0.6" d="M148.685 267.546L135.121 251.152L135.073 251.914C134.935 252.736 135.282 253.114 135.641 253.648C136.717 255.303 139.748 259.046 146.999 266.952C147.21 267.181 147.473 267.355 147.766 267.459C148.058 267.564 148.372 267.595 148.679 267.552L148.685 267.546Z" fill="white"/>
</g>
<g opacity="0.6">
<path opacity="0.6" d="M137.445 249.054C137.657 249.229 137.797 249.478 137.835 249.751C137.874 250.024 137.809 250.302 137.654 250.53C137.477 250.747 137.225 250.89 136.949 250.93C136.672 250.97 136.391 250.904 136.16 250.746C136.034 250.663 135.927 250.554 135.846 250.427C135.765 250.299 135.712 250.156 135.69 250.007C135.668 249.857 135.678 249.704 135.72 249.559C135.761 249.414 135.833 249.279 135.93 249.163C136.027 249.048 136.147 248.954 136.283 248.889C136.419 248.824 136.567 248.788 136.718 248.785C136.868 248.781 137.018 248.81 137.157 248.868C137.295 248.927 137.42 249.015 137.523 249.126" fill="white"/>
</g>
<path d="M145.028 259.401C145.13 259.455 145.626 258.543 146.738 258.111C147.85 257.679 148.854 257.979 148.884 257.865C148.914 257.751 148.681 257.667 148.256 257.577C147.696 257.472 147.117 257.53 146.589 257.745C146.06 257.948 145.602 258.303 145.273 258.765C145.034 259.119 144.986 259.383 145.028 259.401Z" fill="#263238"/>
<path d="M146.167 261.896C146.251 261.98 146.885 261.44 147.853 261.236C148.822 261.032 149.647 261.236 149.647 261.14C149.647 261.044 148.846 260.606 147.746 260.852C146.646 261.098 146.078 261.842 146.167 261.896Z" fill="#263238"/>
<path d="M142.796 256.138C142.879 256.234 143.842 255.394 145.324 254.938C146.807 254.482 148.086 254.626 148.098 254.506C148.11 254.386 146.783 254.068 145.205 254.56C143.627 255.052 142.718 256.084 142.796 256.138Z" fill="#263238"/>
<path d="M142.797 251.795C142.838 251.909 143.885 251.561 145.188 251.609C146.491 251.657 147.537 252.041 147.579 251.933C147.621 251.825 146.617 251.249 145.188 251.213C143.759 251.177 142.749 251.705 142.797 251.795Z" fill="#263238"/>
<path d="M145.965 251.626C145.998 251.397 145.98 251.163 145.911 250.942C145.776 250.326 145.52 249.743 145.158 249.227C144.919 248.824 144.556 248.511 144.123 248.333C143.976 248.286 143.817 248.284 143.669 248.329C143.52 248.374 143.389 248.464 143.292 248.585C143.125 248.831 143.055 249.13 143.095 249.425C143.216 250.03 143.542 250.575 144.016 250.967C144.491 251.359 145.086 251.575 145.702 251.578C146.309 251.577 146.902 251.396 147.407 251.058C147.913 250.719 148.307 250.239 148.541 249.677C148.597 249.537 148.622 249.387 148.613 249.237C148.605 249.086 148.564 248.94 148.493 248.807C148.405 248.678 148.278 248.58 148.132 248.526C147.985 248.472 147.825 248.466 147.674 248.507C147.237 248.65 146.845 248.906 146.539 249.251C146.088 249.689 145.72 250.205 145.451 250.774C145.337 250.974 145.264 251.194 145.235 251.422C145.638 250.695 146.143 250.03 146.736 249.449C147.018 249.171 147.362 248.966 147.74 248.849C147.822 248.825 147.91 248.828 147.99 248.857C148.071 248.886 148.14 248.94 148.189 249.011C148.232 249.105 148.255 249.207 148.255 249.311C148.255 249.415 148.232 249.517 148.189 249.611C147.972 250.09 147.623 250.497 147.184 250.784C146.744 251.071 146.232 251.226 145.708 251.23C145.187 251.225 144.683 251.045 144.277 250.719C143.87 250.393 143.585 249.939 143.466 249.431C143.43 249.224 143.47 249.011 143.579 248.831C143.63 248.762 143.701 248.71 143.783 248.683C143.864 248.656 143.952 248.656 144.034 248.681C144.4 248.833 144.711 249.095 144.924 249.431C145.401 250.093 145.753 250.837 145.965 251.626Z" fill="#263238"/>
<path d="M150.778 108.796C150.778 109.252 157.725 124.643 157.725 124.643C157.725 124.643 164.522 140.694 162.047 150.166C160.684 155.39 153.164 187.955 153.164 187.955C153.164 187.955 150.772 212.859 149.469 223.608C148.387 232.605 147.881 243.998 147.881 243.998L135.5 243.5L133.143 191.602L132.282 153.861L116.738 201.367C116.738 201.367 113.421 216.044 111.609 222.247C109.798 228.449 106.5 242 106.5 242L91.7158 240.8C91.7158 240.8 94.4218 216.668 95.6294 211.072C96.837 205.475 99.0968 183.984 99.0968 183.984L105.906 134.198L110.384 121.254L115.561 108.004L150.778 108.796Z" fill="#263238"/>
<path d="M92.1254 244.609V245.418C92.1254 245.418 78.3277 250.781 78.1543 253.396L105.409 253.582L105.104 244.483C101.027 246.336 96.7645 246.516 92.1254 244.609Z" fill="url(#paint1_linear_473_7305)"/>
<g opacity="0.6">
<path opacity="0.6" d="M102.312 247.374C102.574 247.455 102.797 247.63 102.937 247.866C103.077 248.103 103.125 248.383 103.072 248.652C102.998 248.917 102.827 249.145 102.593 249.287C102.358 249.43 102.078 249.478 101.81 249.42C101.536 249.328 101.304 249.139 101.158 248.889C101.012 248.638 100.961 248.343 101.015 248.058C101.119 247.79 101.321 247.572 101.581 247.45C101.84 247.328 102.137 247.312 102.408 247.404" fill="white"/>
</g>
<g opacity="0.6">
<path opacity="0.6" d="M105.397 253.583L105.325 251.392L79.2244 251.992C79.2244 251.992 78.0288 252.515 78.1424 253.373L105.397 253.583Z" fill="white"/>
</g>
<path d="M92.0125 245.497C92.0125 245.629 92.6821 245.695 93.3337 246.127C93.9853 246.559 94.3321 247.123 94.4576 247.075C94.5832 247.027 94.3859 246.247 93.5848 245.737C92.7837 245.226 91.9826 245.37 92.0125 245.497Z" fill="#263238"/>
<path d="M89.1484 246.654C89.1484 246.786 89.6925 247.014 90.1408 247.584C90.5892 248.154 90.7387 248.749 90.8463 248.743C90.9539 248.737 91.0675 247.986 90.4995 247.29C89.9316 246.594 89.1544 246.534 89.1484 246.654Z" fill="#263238"/>
<path d="M87.499 250.086C87.6246 250.086 87.8099 249.444 87.499 248.712C87.1881 247.979 86.5425 247.685 86.4827 247.793C86.4229 247.901 86.8115 248.298 87.0805 248.904C87.3496 249.51 87.3675 250.068 87.499 250.086Z" fill="#263238"/>
<path d="M146.995 145C147.002 145.082 147.002 145.165 146.995 145.247C146.995 145.43 146.95 145.67 146.922 145.974C146.849 146.606 146.748 147.561 146.618 148.757C146.348 151.173 145.97 154.677 145.531 159.003C144.653 167.654 143.599 179.627 142.935 192.896C142.614 199.53 142.417 205.855 142.31 211.61C142.203 217.365 142.197 222.551 142.231 226.909C142.265 231.267 142.315 234.783 142.372 237.218C142.372 238.42 142.411 239.362 142.422 240.02V240.753C142.427 240.835 142.427 240.918 142.422 241C142.416 240.918 142.416 240.835 142.422 240.753C142.422 240.576 142.422 240.33 142.389 240.026C142.389 239.394 142.332 238.426 142.287 237.224C142.192 234.789 142.113 231.267 142.051 226.909C141.989 222.551 141.978 217.365 142.051 211.604C142.124 205.842 142.327 199.517 142.653 192.877C143.318 179.595 144.405 167.623 145.334 158.971C145.801 154.651 146.207 151.154 146.517 148.744C146.669 147.549 146.793 146.619 146.877 145.968C146.916 145.664 146.95 145.424 146.973 145.247C146.976 145.164 146.983 145.082 146.995 145Z" fill="#455A64"/>
<path d="M138.987 142C138.996 142.084 138.996 142.169 138.987 142.253C138.987 142.442 138.987 142.689 138.987 143.004C138.953 143.68 138.912 144.653 138.859 145.891C138.744 148.418 138.583 152.031 138.381 156.49C138.004 165.447 137.586 177.815 137.404 191.491C137.223 205.166 137.337 217.54 137.505 226.503C137.613 230.969 137.694 234.589 137.754 237.109C137.754 238.372 137.802 239.32 137.822 239.996C137.822 240.311 137.822 240.564 137.822 240.747C137.829 240.831 137.829 240.916 137.822 241C137.81 240.916 137.81 240.831 137.822 240.747C137.822 240.564 137.822 240.311 137.775 239.996C137.775 239.32 137.701 238.353 137.64 237.115C137.526 234.589 137.404 230.988 137.283 226.51C137.047 217.546 136.899 205.166 137.081 191.484C137.263 177.802 137.754 165.435 138.165 156.484C138.381 152.005 138.583 148.386 138.744 145.885C138.832 144.621 138.892 143.68 138.939 143.004C138.939 142.682 138.987 142.436 139 142.253C138.985 142.169 138.981 142.084 138.987 142Z" fill="#455A64"/>
<path d="M157 145C156.996 145.085 156.984 145.17 156.964 145.252L156.84 145.972C156.716 146.603 156.544 147.549 156.325 148.742C155.863 151.14 155.224 154.623 154.466 158.927C153.708 163.231 152.862 168.393 152.009 174.072C151.157 179.751 150.31 186.093 149.546 192.732C148.783 199.37 148.196 205.706 147.723 211.48C147.249 217.254 146.929 222.46 146.687 226.833C146.444 231.206 146.284 234.746 146.189 237.195C146.136 238.406 146.095 239.353 146.065 240.016C146.065 240.325 146.036 240.571 146.03 240.748C146.028 240.833 146.018 240.917 146 241C146 241 146 240.912 146 240.748C146 240.584 146 240.325 146 240.016C146 239.353 146.036 238.406 146.065 237.195C146.124 234.74 146.255 231.2 146.462 226.821C146.669 222.441 146.989 217.229 147.433 211.455C147.877 205.681 148.475 199.332 149.209 192.688C149.943 186.043 150.837 179.745 151.695 174.021C152.554 168.298 153.442 163.161 154.223 158.877C155.005 154.592 155.68 151.102 156.177 148.704C156.42 147.524 156.615 146.597 156.769 145.953C156.834 145.65 156.882 145.41 156.923 145.233C156.941 145.153 156.967 145.075 157 145Z" fill="#455A64"/>
<path d="M131 143C130.986 143.085 130.964 143.168 130.935 143.249C130.882 143.427 130.816 143.669 130.727 143.976C130.526 144.613 130.248 145.557 129.886 146.743L126.746 156.912C124.098 165.513 120.443 177.366 116.414 190.462C112.385 203.558 108.843 215.461 106.236 224.075C104.944 228.366 103.896 231.847 103.161 234.277C102.8 235.462 102.515 236.393 102.314 237.044C102.219 237.343 102.142 237.579 102.089 237.758C102.066 237.841 102.036 237.922 102 238C102.01 237.915 102.03 237.831 102.059 237.751L102.255 237.024C102.444 236.387 102.711 235.431 103.049 234.238C103.76 231.803 104.773 228.315 106.011 224.037C108.546 215.41 112.095 203.513 116.082 190.392C120.069 177.27 123.784 165.43 126.503 156.867C127.866 152.602 128.968 149.146 129.732 146.736L130.633 143.982L130.87 143.274C130.906 143.179 130.95 143.088 131 143Z" fill="#455A64"/>
<path d="M120 144C119.992 144.084 119.98 144.167 119.964 144.25L119.819 144.96C119.687 145.6 119.494 146.527 119.253 147.704L117.12 157.775C115.313 166.297 112.867 178.044 110.139 191.045C107.41 204.046 104.928 215.786 103.072 224.276L100.843 234.321C100.572 235.492 100.361 236.407 100.241 237.053L100.066 237.757C100.052 237.84 100.03 237.922 100 238C100.003 237.916 100.015 237.832 100.036 237.75L100.181 237.034C100.313 236.394 100.5 235.473 100.747 234.296C101.253 231.896 101.982 228.461 102.88 224.225C104.687 215.696 107.133 203.95 109.861 190.955C112.59 177.961 115.072 166.22 116.928 157.73C117.867 153.501 118.627 150.053 119.157 147.679C119.428 146.508 119.639 145.593 119.759 144.953L119.928 144.243C119.945 144.16 119.969 144.079 120 144Z" fill="#455A64"/>
<path d="M108.995 144C109.002 144.082 109.002 144.165 108.995 144.247C108.995 144.418 108.96 144.652 108.93 144.956C108.866 145.59 108.772 146.508 108.654 147.68C108.39 150.061 108.019 153.475 107.561 157.694C106.62 166.143 105.286 177.816 103.57 190.674C101.853 203.532 100.002 215.129 98.5383 223.49C97.7977 227.677 97.1863 231.053 96.7337 233.383C96.5045 234.536 96.334 235.436 96.2106 236.069C96.146 236.36 96.0989 236.588 96.0637 236.766C96.0494 236.845 96.0297 236.924 96.0049 237C95.9984 236.92 95.9984 236.839 96.0049 236.759C96.0343 236.582 96.0695 236.348 96.1166 236.056C96.2282 235.423 96.3869 234.517 96.5868 233.358L98.2914 223.452C99.708 215.079 101.518 203.481 103.241 190.624C104.963 177.766 106.321 166.105 107.32 157.687C107.82 153.482 108.219 150.087 108.495 147.686C108.642 146.521 108.754 145.609 108.836 144.969C108.872 144.671 108.907 144.443 108.93 144.266C108.945 144.175 108.966 144.086 108.995 144Z" fill="#455A64"/>
<path d="M116.356 33.1165C116.168 33.0561 115.998 32.9481 115.863 32.8031C115.728 32.658 115.633 32.4806 115.586 32.2879C115.539 32.0953 115.543 31.8937 115.596 31.7027C115.649 31.5117 115.75 31.3376 115.89 31.197C115.292 30.8731 115.471 29.9434 115.925 29.4575C116.38 28.9717 117.043 28.6718 117.396 28.1019C117.209 28.1407 117.016 28.1397 116.829 28.0991C116.643 28.0585 116.466 27.9791 116.312 27.8662C116.158 27.7532 116.029 27.609 115.933 27.443C115.838 27.277 115.778 27.0928 115.758 26.9023C115.51 26.9236 115.262 26.861 115.053 26.7247C114.844 26.5883 114.687 26.3859 114.606 26.1496C114.525 25.9132 114.525 25.6565 114.606 25.4201C114.687 25.1838 114.844 24.9813 115.053 24.8449C114.425 24.7909 114.455 23.7532 115.005 23.4053C115.555 23.0574 116.2 23.0814 116.798 22.8055C117.832 21.6529 119.199 20.8537 120.708 20.5201L118.143 18.6067C117.929 18.4715 117.752 18.2836 117.629 18.0609C117.408 17.551 117.809 16.9872 118.227 16.6213C119.128 15.8511 120.237 15.3668 121.413 15.2297C121.784 15.1817 122.262 15.2297 122.382 15.6016C123.211 15.2904 124.105 15.1894 124.982 15.3077C125.478 15.2784 125.967 15.4272 126.363 15.7276C126.132 15.2987 125.826 14.9148 125.461 14.5939C125.281 14.433 125.136 14.2375 125.033 14.0191C124.93 13.8006 124.872 13.5636 124.863 13.3223C124.911 12.8304 125.503 12.4045 125.909 12.6804C125.455 12.4705 125.514 11.7327 125.909 11.4148C126.334 11.1381 126.839 11.0114 127.344 11.0549C127.697 11.0549 128.145 11.1029 128.241 11.4388C128.302 11.2573 128.416 11.0978 128.567 10.9801C128.718 10.8623 128.9 10.7914 129.09 10.7761C129.281 10.7608 129.472 10.8018 129.639 10.894C129.807 10.9861 129.944 11.1255 130.034 11.2949C130.155 11.1823 130.298 11.0962 130.454 11.0419C130.61 10.9875 130.775 10.9662 130.94 10.9791C131.104 10.9921 131.265 11.0391 131.41 11.1172C131.556 11.1952 131.683 11.3027 131.786 11.4328C131.981 11.3258 132.198 11.2622 132.42 11.2461C132.643 11.2301 132.866 11.2622 133.075 11.34C133.284 11.4179 133.474 11.5398 133.632 11.6976C133.79 11.8553 133.913 12.0453 133.992 12.2546L132.629 9.96324C132.371 9.53137 132.33 8.72161 132.826 8.76359C132.108 8.76359 131.702 7.77988 132.049 7.15606C132.252 6.85844 132.537 6.62636 132.869 6.48796C133.201 6.34956 133.566 6.31077 133.92 6.37629L134.518 7.28203C134.759 7.1107 135.049 7.01969 135.345 7.02178C135.641 7.02386 135.929 7.11893 136.168 7.29364C136.408 7.46835 136.586 7.71391 136.68 7.99585C136.773 8.27779 136.776 8.58193 136.688 8.86556C136.77 8.80115 136.865 8.7553 136.966 8.73114C137.068 8.70699 137.173 8.7051 137.275 8.7256C137.377 8.74611 137.474 8.78853 137.558 8.84995C137.643 8.91138 137.713 8.99036 137.764 9.0815C137.954 9.46146 138.026 9.88951 137.973 10.3111C138.154 10.1852 138.366 10.1118 138.586 10.099C138.806 10.0863 139.025 10.1347 139.219 10.2389C139.413 10.3431 139.575 10.4991 139.686 10.6897C139.798 10.8802 139.854 11.098 139.85 11.3188C140.485 10.9922 141.195 10.843 141.907 10.887C141.751 10.6295 141.682 10.3284 141.711 10.0285C141.739 9.72866 141.864 9.44606 142.065 9.22286C142.267 8.99966 142.535 8.84779 142.83 8.78989C143.124 8.73199 143.43 8.77116 143.7 8.90155C143.728 8.7011 143.799 8.50918 143.909 8.33939C144.018 8.1696 144.164 8.0261 144.335 7.91907C144.506 7.81203 144.699 7.74408 144.899 7.72002C145.099 7.69597 145.302 7.7164 145.494 7.77988C145.715 6.94612 146.803 6.32831 147.466 6.88014C148.13 7.43198 147.783 8.55366 147.365 9.33942C146.946 10.1252 146.45 11.0429 145.996 11.9007L150.45 9.50138C150.581 9.41447 150.735 9.36855 150.892 9.36942C151.107 9.36942 151.263 9.59135 151.454 9.69332C151.745 9.76713 152.04 9.81925 152.339 9.84927C153.122 10.0892 153.11 11.2949 152.572 11.9127C152.034 12.5305 151.209 12.8364 150.599 13.3882L152.578 13.7661C152.652 13.4993 152.78 13.2505 152.954 13.0351C153.128 12.8197 153.344 12.6423 153.589 12.5136C153.833 12.385 154.102 12.3079 154.377 12.2871C154.652 12.2662 154.929 12.3021 155.19 12.3925C155.459 11.6607 156.44 11.5648 157.217 11.6008C157.92 11.5479 158.618 11.762 159.172 12.2006C159.454 12.5476 159.609 12.982 159.609 13.4302C159.609 13.8784 159.454 14.3128 159.172 14.6599C158.582 15.3362 157.84 15.8624 157.008 16.1954C157.139 16.7952 157.91 16.9692 158.508 16.8792C159.106 16.7892 159.734 16.5553 160.302 16.7712C161.073 17.0652 161.402 18.0609 162.179 18.3488C162.422 18.3986 162.659 18.4771 162.884 18.5827C163.155 18.8176 163.324 19.1488 163.357 19.5064C163.458 19.9383 163.554 20.3642 163.65 20.7961C163.712 21.0059 163.73 21.2265 163.703 21.4439C163.56 22.1457 162.585 22.2956 161.91 22.0437C161.234 21.7918 160.684 21.2519 159.979 21.144C160.906 21.6118 161.892 22.1217 162.406 23.0274C162.92 23.9331 162.717 25.3307 161.736 25.6786C160.756 26.0265 159.776 25.1808 159.052 24.413C158.329 23.6452 157.301 22.8235 156.344 23.2613" fill="#263238"/>
<path d="M117.785 32.5164C117.592 32.4014 117.371 32.3401 117.146 32.339C116.921 32.3378 116.7 32.3967 116.505 32.5097C116.311 32.6227 116.149 32.7856 116.038 32.9818C115.927 33.178 115.87 33.4004 115.872 33.6261C115.408 33.7548 114.987 34.0086 114.656 34.3599C114.325 34.7113 114.096 35.1468 113.994 35.6194C113.891 36.092 113.92 36.5836 114.076 37.041C114.233 37.4985 114.51 37.9044 114.88 38.2147C115.478 38.7126 116.626 38.7306 116.745 37.9748C116.868 38.2903 117.065 38.5711 117.321 38.7926C117.576 39.0142 117.881 39.17 118.21 39.2464C118.065 39.4831 117.97 39.7476 117.932 40.0231C117.894 40.2985 117.913 40.5789 117.989 40.8463C118.065 41.1138 118.196 41.3624 118.373 41.5765C118.55 41.7905 118.769 41.9653 119.017 42.0896C118.746 42.3136 118.535 42.6013 118.401 42.9271C118.268 43.253 118.217 43.6069 118.253 43.9572C118.29 44.3075 118.411 44.6435 118.608 44.9351C118.805 45.2267 119.071 45.4649 119.382 45.6285C119.294 45.8255 119.246 46.0378 119.24 46.2533C119.235 46.4689 119.271 46.6834 119.348 46.8848C119.425 47.0861 119.541 47.2703 119.688 47.4268C119.836 47.5833 120.013 47.7091 120.21 47.7969C120.406 47.8847 120.618 47.9329 120.832 47.9387C121.047 47.9445 121.261 47.9078 121.462 47.8306C121.662 47.7535 121.846 47.6374 122.002 47.4891C122.158 47.3408 122.283 47.1631 122.371 46.9662C122.567 47.6032 122.943 48.1698 123.453 48.5977C123.583 48.6971 123.732 48.7687 123.891 48.8079C124.05 48.8471 124.216 48.8531 124.377 48.8255C124.539 48.798 124.693 48.7374 124.83 48.6477C124.967 48.5579 125.084 48.4409 125.175 48.3038C125.269 48.6215 125.433 48.9143 125.653 49.1613C125.874 49.4082 126.146 49.6032 126.451 49.7321C126.755 49.8611 127.084 49.9209 127.415 49.9073C127.745 49.8937 128.068 49.807 128.361 49.6534C128.33 50.0167 128.436 50.3785 128.658 50.6674C128.88 50.9563 129.201 51.1512 129.559 51.2137C129.917 51.2762 130.286 51.2018 130.592 51.0051C130.898 50.8084 131.119 50.5037 131.213 50.1512L134.943 50.4391C135.764 50.5407 136.593 50.5648 137.418 50.5111C138.474 50.3946 139.486 50.0265 140.371 49.4374C140.634 49.2208 140.943 49.067 141.274 48.9876C141.666 48.9812 142.053 49.0762 142.398 49.2635C143.365 49.632 144.41 49.7461 145.433 49.5949C146.457 49.4437 147.424 49.0323 148.245 48.3997C148.483 48.1753 148.758 47.9928 149.058 47.8599C149.42 47.7616 149.799 47.7412 150.169 47.7999C151.087 47.8651 152.009 47.8127 152.914 47.644C153.306 47.6087 153.686 47.4938 154.033 47.3061C154.379 47.1184 154.684 46.8619 154.928 46.5523C155.347 45.8805 155.024 44.7528 154.235 44.7048C154.211 44.4485 154.245 44.1901 154.336 43.9491C154.426 43.7081 154.569 43.4907 154.755 43.3132C154.951 43.148 155.201 43.0624 155.457 43.0735C155.713 43.0847 155.955 43.1916 156.136 43.3732C156.21 43.4724 156.258 43.5887 156.275 43.7113C156.292 43.834 156.279 43.959 156.235 44.0749C156.192 44.1909 156.12 44.294 156.026 44.3747C155.933 44.4554 155.82 44.5112 155.699 44.5369C156.494 45.1967 157.869 44.4889 157.983 43.4632C157.992 42.9466 157.805 42.4459 157.46 42.0626C157.115 41.6794 156.637 41.4424 156.124 41.3998C156.392 40.6803 156.478 39.9055 156.375 39.1445C156.619 39.4924 156.987 39.7334 157.403 39.8181C157.818 39.9029 158.25 39.825 158.611 39.6003C158.783 39.9547 159.026 40.27 159.324 40.5269C159.622 40.7837 159.969 40.9767 160.344 41.0939C160.724 41.1968 161.128 41.166 161.488 41.0066C161.848 40.8473 162.143 40.569 162.323 40.2181C162.395 40.0415 162.426 39.8506 162.413 39.6602C162.4 39.4698 162.343 39.285 162.247 39.1202C162.151 38.9555 162.018 38.8151 161.859 38.7101C161.7 38.605 161.52 38.5382 161.331 38.5146C161.462 38.2994 161.536 38.0544 161.546 37.8025C161.557 37.5507 161.504 37.3002 161.391 37.0748C161.279 36.8493 161.111 36.6562 160.904 36.5135C160.697 36.3709 160.457 36.2834 160.207 36.2593C160.319 35.7598 160.262 35.2372 160.046 34.7735C159.829 34.3099 159.465 33.9316 159.011 33.698C159.157 33.8018 159.325 33.8714 159.502 33.9015C159.678 33.9316 159.859 33.9215 160.031 33.872C160.204 33.8225 160.362 33.7348 160.496 33.6154C160.63 33.496 160.736 33.3479 160.805 33.1822C161.211 33.974 162.383 33.89 163.196 33.5061C163.83 33.2062 164.445 32.7503 164.35 31.8386C164.282 31.401 164.059 31.0026 163.722 30.7169C162.987 30.0151 161.959 29.8892 160.984 29.7752C160.497 28.5448 160.22 27.241 160.165 25.9183C160.71 25.9863 161.261 25.856 161.718 25.5512C162.176 25.2464 162.509 24.7871 162.658 24.2568L157.278 20.8858C157.278 20.8858 144.771 18.9484 144.323 18.9484C143.874 18.9484 117.69 32.4744 117.69 32.4744C117.092 33.1102 115.896 32.8223 115.46 32.0665C115.264 31.6723 115.179 31.2315 115.216 30.7924C115.253 30.3533 115.41 29.9329 115.669 29.5773C116.189 28.8625 116.838 28.2521 117.582 27.7778C116.735 27.8179 115.901 27.5519 115.233 27.028C115.035 26.8499 114.895 26.6163 114.831 26.3575C114.767 26.0987 114.782 25.8266 114.874 25.5764C115.173 24.8566 116.01 24.9046 116.542 24.4967C116.831 24.2246 117.065 23.8986 117.23 23.537" fill="#263238"/>
<path d="M149.642 60.7084C149.642 60.9424 145.893 57.8173 145.893 57.8173V56.7316C145.893 54.0204 145.893 52.9047 145.893 52.9287C145.893 52.9527 151.596 51.939 152.726 44.4592C153.288 40.7403 153.061 34.6521 152.726 29.6735C152.415 25.1928 149.42 19.7104 144.955 20.2143L131.079 23.8132C130.424 23.887 129.82 24.2069 129.39 24.7087C128.96 25.2104 128.734 25.857 128.76 26.5184L130.182 56.5876L126.948 58.2012L130.888 65.8009L141.218 67.6004L150.042 68.3142L149.528 63.6296L149.642 60.6844V60.7084Z" fill="#FFA8A7"/>
<path d="M142.092 44.2796L147.263 44.6133C147.291 45.0139 147.25 45.4101 147.141 45.7782C147.032 46.1463 146.858 46.4787 146.629 46.7556C146.401 47.0324 146.122 47.248 145.81 47.3894C145.497 47.5308 145.158 47.5952 144.813 47.5786C144.109 47.5018 143.435 47.1168 142.929 46.503C142.422 45.8892 142.123 45.0934 142.092 44.2796Z" fill="#B16668"/>
<path d="M145.922 47.3214C145.653 46.5437 145.171 45.8852 144.574 45.4813C143.977 45.0774 143.31 44.9588 142.711 45.1497C142.563 45.2055 142.421 45.2775 142.285 45.365C142.532 45.9695 142.901 46.4969 143.348 46.8868C143.796 47.2767 144.305 47.5134 144.817 47.5699C145.208 47.6002 145.586 47.5152 145.922 47.3214Z" fill="#F28F8F"/>
<path d="M150.492 34.2743C150.495 34.5239 150.402 34.765 150.231 34.9465C150.06 35.128 149.826 35.2356 149.577 35.2465C149.456 35.2563 149.334 35.2418 149.219 35.2037C149.103 35.1657 148.997 35.105 148.905 35.0251C148.813 34.9452 148.738 34.8478 148.684 34.7384C148.63 34.6291 148.599 34.5101 148.591 34.3883C148.586 34.1382 148.679 33.8963 148.85 33.7144C149.021 33.5326 149.257 33.4255 149.506 33.4161C149.627 33.4046 149.75 33.4179 149.866 33.4553C149.982 33.4926 150.089 33.5533 150.182 33.6335C150.274 33.7137 150.349 33.8118 150.402 33.922C150.456 34.0321 150.486 34.1519 150.492 34.2743Z" fill="#263238"/>
<path d="M151.424 32.8467C151.305 32.9727 150.576 32.4386 149.547 32.4446C148.519 32.4506 147.754 32.9787 147.658 32.8527C147.563 32.7267 147.724 32.5706 148.053 32.3306C148.493 32.0134 149.023 31.8452 149.565 31.8505C150.098 31.8439 150.62 32.0078 151.054 32.3186C151.371 32.5646 151.478 32.7867 151.424 32.8467Z" fill="#263238"/>
<path d="M141.267 34.8145C141.147 34.9405 140.418 34.4064 139.396 34.4184C138.373 34.4304 137.602 34.9465 137.506 34.8205C137.411 34.6945 137.566 34.5384 137.895 34.2984C138.338 33.9856 138.866 33.8179 139.407 33.8183C139.941 33.8135 140.463 33.9795 140.896 34.2924C141.213 34.5324 141.326 34.7545 141.267 34.8145Z" fill="#263238"/>
<path d="M145.894 52.9108C142.389 52.9892 138.93 52.0901 135.904 50.3135C135.904 50.3135 138.445 55.502 145.894 54.7522V52.9108Z" fill="#F28F8F"/>
<path d="M141.768 31.9173C141.673 32.1993 140.644 32.0733 139.437 32.2293C138.229 32.3854 137.261 32.7154 137.099 32.4694C137.027 32.3494 137.195 32.0853 137.589 31.8092C138.11 31.4743 138.702 31.2686 139.317 31.2091C139.934 31.1319 140.561 31.2018 141.146 31.4132C141.601 31.5572 141.81 31.7792 141.768 31.9173Z" fill="#263238"/>
<path d="M151.024 29.8597C150.844 30.0998 150.133 29.8597 149.284 29.8597C148.435 29.8597 147.712 30.0278 147.544 29.7817C147.472 29.6677 147.586 29.4276 147.897 29.1816C148.315 28.9068 148.808 28.7703 149.308 28.7915C149.808 28.7955 150.294 28.9548 150.701 29.2476C151 29.5177 151.101 29.7457 151.024 29.8597Z" fill="#263238"/>
<path d="M128.725 34.1721C128.625 34.4182 128.605 34.69 128.67 34.9479C128.734 35.2058 128.879 35.4362 129.084 35.6056C129.184 35.6645 129.295 35.7024 129.41 35.717C129.525 35.7316 129.642 35.7227 129.754 35.6907C129.866 35.6588 129.97 35.6045 130.06 35.5311C130.15 35.4577 130.225 35.3668 130.279 35.2638C130.602 35.7016 131.349 35.2638 131.248 34.6639C131.648 34.8919 132.18 34.352 132.049 33.8422C132.515 34.0221 132.796 33.2423 133.041 32.7625C133.188 32.4959 133.35 32.2376 133.525 31.9887C134.045 31.1419 134.312 30.1638 134.297 29.1695C134.894 28.4797 135.062 27.4061 135.187 26.4103L135.42 24.5509L135.767 24.119C135.765 24.3298 135.827 24.5361 135.946 24.71C136.065 24.8838 136.234 25.0168 136.431 25.0907C136.799 25.1898 137.187 25.1898 137.555 25.0907L138.667 24.8808L139.354 25.0847C139.223 25.6901 139.292 26.3219 139.551 26.8842C139.64 27.2869 139.866 27.6458 140.191 27.8979C140.277 27.9371 140.371 27.9523 140.465 27.9417C140.558 27.9312 140.647 27.8954 140.722 27.8381C140.797 27.7809 140.855 27.7043 140.89 27.6166C140.925 27.5289 140.935 27.4333 140.92 27.3401C140.986 27.3972 141.064 27.4392 141.148 27.4631C141.231 27.487 141.319 27.4923 141.405 27.4786C141.491 27.4649 141.573 27.4325 141.645 27.3837C141.717 27.3349 141.778 27.2709 141.823 27.1961C142.024 26.8499 142.112 26.4493 142.074 26.0505C142.055 25.0832 141.749 24.1436 141.195 23.3512L143.114 25.1507C143.236 25.2977 143.402 25.4009 143.587 25.4446C143.579 25.5186 143.587 25.5934 143.611 25.6638C143.635 25.7342 143.674 25.7986 143.725 25.8523C143.776 25.906 143.838 25.9478 143.908 25.9748C143.977 26.0018 144.051 26.0133 144.125 26.0085C144.411 25.9348 144.664 25.7656 144.842 25.5286C145.308 25.0367 145.811 24.197 145.398 23.6392C145.452 23.6147 145.5 23.579 145.539 23.5345C145.578 23.49 145.608 23.4377 145.625 23.381C145.643 23.3244 145.648 23.2646 145.641 23.2057C145.634 23.1468 145.614 23.0901 145.583 23.0393L147.76 24.7188C147.544 24.5929 147.299 24.9288 147.347 25.2107C147.415 25.4764 147.576 25.7085 147.801 25.8645C147.608 26.1743 147.518 26.5377 147.544 26.9022C147.156 26.5483 146.558 27.2021 146.683 27.7659C146.754 28.0216 146.903 28.2481 147.111 28.4121C147.319 28.5762 147.573 28.6692 147.837 28.6777C148.05 28.7145 148.268 28.6694 148.449 28.5515C148.629 28.4336 148.759 28.2516 148.812 28.0419C149.29 28.1498 149.756 27.49 149.589 26.9442C149.936 27.1781 150.24 26.5543 150.264 26.0804C150.302 25.2149 150.176 24.35 149.894 23.5312C149.894 23.6512 150.013 23.7591 150.097 23.6931C150.117 23.673 150.132 23.6488 150.141 23.6222C150.15 23.5956 150.154 23.5672 150.151 23.5391C150.148 23.5111 150.139 23.484 150.125 23.4598C150.11 23.4356 150.09 23.4149 150.067 23.3992L151.263 26.3983C151.638 27.1875 151.863 28.0398 151.926 28.9116C151.926 29.2715 151.974 29.7634 152.273 29.7994C152.357 29.8001 152.439 29.7795 152.512 29.7394C153.415 29.2264 154.113 28.4172 154.491 27.448C154.647 27.1123 154.75 26.754 154.796 26.3864C154.868 25.6186 154.551 24.8688 154.497 24.095C154.499 23.754 154.477 23.4133 154.431 23.0753C154.288 22.5698 154.018 22.1093 153.648 21.7377C152.452 20.3701 151.257 18.9485 149.661 18.3907C148.698 18.0548 147.67 18.0608 146.707 17.7309C146.114 17.4954 145.535 17.225 144.974 16.9211C142.582 15.7935 139.964 15.6435 137.411 15.8534C135.97 15.9279 134.553 16.259 133.226 16.8312C131.75 17.5976 130.416 18.612 129.281 19.8303C127.382 21.6199 125.81 23.7291 124.636 26.0624C123.674 27.9673 123.285 30.112 123.518 32.2346C123.823 34.346 125.126 36.3314 126.89 36.7753L127.583 35.9775" fill="#263238"/>
<path d="M130.763 35.6058C130.661 35.5578 126.614 34.2682 126.656 38.437C126.697 42.6058 130.84 41.712 130.84 41.5921C130.84 41.4721 130.763 35.6058 130.763 35.6058Z" fill="#FFA8A7"/>
<path d="M129.577 40.0263C129.577 40.0263 129.506 40.0743 129.38 40.1342C129.208 40.2056 129.014 40.2056 128.842 40.1342C128.573 39.9659 128.353 39.729 128.205 39.4476C128.057 39.1663 127.986 38.8506 127.999 38.5327C127.982 38.1747 128.048 37.8176 128.19 37.489C128.229 37.359 128.298 37.2401 128.392 37.1421C128.485 37.0441 128.601 36.9698 128.729 36.9252C128.812 36.9014 128.901 36.9082 128.98 36.9445C129.059 36.9808 129.122 37.0441 129.159 37.1231C129.219 37.2371 129.189 37.3211 129.213 37.3271C129.237 37.3331 129.302 37.2551 129.267 37.0871C129.243 36.9825 129.183 36.8893 129.099 36.8232C128.984 36.7383 128.84 36.7017 128.699 36.7212C128.529 36.7571 128.371 36.8361 128.24 36.9505C128.109 37.065 128.01 37.2111 127.951 37.375C127.778 37.7377 127.694 38.1367 127.706 38.5387C127.742 39.3785 128.179 40.1642 128.782 40.3382C128.894 40.3685 129.01 40.3741 129.124 40.3544C129.237 40.3347 129.345 40.2903 129.44 40.2242C129.571 40.1222 129.589 40.0323 129.577 40.0263Z" fill="#F28F8F"/>
<path d="M144.358 34.3162C144.319 33.9128 144.255 33.5121 144.167 33.1166C143.883 32.049 143.252 31.1072 142.373 30.4414C141.725 29.9532 140.966 29.6351 140.164 29.5157C139.362 29.3963 138.544 29.4794 137.782 29.7576C137.343 29.9151 136.93 30.1374 136.557 30.4174C136.166 30.7055 135.823 31.0537 135.54 31.4491C134.925 32.2775 134.593 33.2831 134.593 34.3162C134.593 35.3494 134.925 36.3549 135.54 37.1834C135.823 37.5788 136.166 37.927 136.557 38.2151C136.928 38.4991 137.342 38.7237 137.782 38.8809C138.544 39.161 139.363 39.2446 140.165 39.124C140.968 39.0035 141.727 38.6827 142.373 38.1911C143.254 37.5275 143.886 36.5849 144.167 35.5159C144.256 35.1206 144.32 34.7198 144.358 34.3162C144.366 34.4221 144.366 34.5283 144.358 34.6341C144.361 34.7628 144.351 34.8914 144.328 35.018C144.312 35.1921 144.282 35.3647 144.239 35.5339C143.975 36.6351 143.342 37.6117 142.445 38.2991C141.829 38.777 141.111 39.1036 140.347 39.2528C139.467 39.417 138.559 39.3446 137.716 39.0429C137.261 38.8785 136.832 38.6482 136.443 38.3591C136.036 38.0623 135.678 37.7018 135.385 37.2914C134.748 36.431 134.404 35.3879 134.404 34.3162C134.404 33.2446 134.748 32.2015 135.385 31.3411C135.972 30.5399 136.784 29.9323 137.716 29.5956C138.372 29.3556 139.071 29.2571 139.767 29.3068C140.463 29.3565 141.141 29.5531 141.756 29.8837C142.371 30.2144 142.91 30.6718 143.336 31.2258C143.763 31.7798 144.069 32.418 144.233 33.0986C144.276 33.2698 144.306 33.4444 144.322 33.6204C144.345 33.745 144.355 33.8717 144.352 33.9983C144.362 34.104 144.364 34.2103 144.358 34.3162Z" fill="#455A64"/>
<path d="M156.087 34.3158C156.048 33.9123 155.984 33.5117 155.895 33.1162C155.611 32.0489 154.98 31.1075 154.102 30.441C153.455 29.9523 152.697 29.6338 151.896 29.5144C151.095 29.395 150.277 29.4784 149.517 29.7572C148.616 30.0844 147.834 30.6733 147.269 31.4487C146.659 32.2794 146.33 33.2841 146.33 34.3158C146.33 35.3476 146.659 36.3523 147.269 37.183C147.553 37.5786 147.898 37.9267 148.291 38.2147C148.663 38.4987 149.076 38.7233 149.517 38.8805C150.33 39.1755 151.206 39.25 152.057 39.0964C152.8 38.9584 153.5 38.6482 154.102 38.1907C154.982 37.5261 155.614 36.5839 155.895 35.5155C155.985 35.1201 156.049 34.7194 156.087 34.3158C156.095 34.4216 156.095 34.5279 156.087 34.6337C156.087 34.7623 156.077 34.8906 156.057 35.0176C156.041 35.1917 156.011 35.3642 155.967 35.5335C155.742 36.4614 155.256 37.3051 154.567 37.9643C153.879 38.6235 153.016 39.0705 152.081 39.2524C151.201 39.4166 150.294 39.3442 149.451 39.0424C148.994 38.8805 148.565 38.6499 148.177 38.3586C147.767 38.0636 147.407 37.7029 147.113 37.2909C146.48 36.4291 146.139 35.3865 146.139 34.3158C146.139 33.2451 146.48 32.2026 147.113 31.3407C147.701 30.5375 148.515 29.9295 149.451 29.5952C150.107 29.3584 150.805 29.2629 151.5 29.3152C152.195 29.3675 152.871 29.5662 153.484 29.8985C154.098 30.2308 154.634 30.6891 155.059 31.2436C155.483 31.798 155.787 32.4361 155.949 33.1162C155.993 33.2874 156.023 33.4619 156.039 33.638C156.059 33.763 156.069 33.8893 156.069 34.0159C156.082 34.1153 156.088 34.2155 156.087 34.3158Z" fill="#455A64"/>
<path d="M134.471 34.8201C133.803 35.0873 133.104 35.2648 132.39 35.3482C131.685 35.4979 130.964 35.5543 130.244 35.5162C130.244 35.4562 131.189 35.3662 132.348 35.1741C133.508 34.9821 134.429 34.7661 134.471 34.8201Z" fill="#455A64"/>
<path d="M143.838 33.5545C143.876 33.8648 143.859 34.1794 143.79 34.4842C143.654 35.2302 143.376 35.9429 142.971 36.5836C142.578 37.2357 142.043 37.7895 141.405 38.2031C141.276 38.2989 141.128 38.3661 140.972 38.4002C140.815 38.4343 140.653 38.4346 140.496 38.401C140.793 38.3557 141.078 38.2496 141.333 38.0891C141.926 37.656 142.428 37.1097 142.81 36.4816C143.202 35.8594 143.489 35.1764 143.659 34.4602C143.784 33.9024 143.808 33.5485 143.838 33.5545Z" fill="white"/>
<path d="M154.562 36.7153C154.678 36.4468 154.812 36.1863 154.963 35.9355C155.108 35.661 155.216 35.3686 155.286 35.0658C155.358 34.6954 155.358 34.3145 155.286 33.9441C155.204 33.2503 155.002 32.5762 154.688 31.9527C154.437 31.4848 154.18 31.2629 154.209 31.2329C154.281 31.2694 154.346 31.3181 154.401 31.3769C154.554 31.5306 154.688 31.7017 154.801 31.8867C155.158 32.5099 155.384 33.1999 155.465 33.9141C155.532 34.3124 155.52 34.7202 155.429 35.1138C155.342 35.4274 155.213 35.728 155.046 36.0075C154.919 36.2652 154.756 36.5035 154.562 36.7153Z" fill="white"/>
<path d="M127.851 41.4483C127.851 41.4483 127.743 41.5023 127.582 41.6222C127.354 41.8007 127.186 42.046 127.104 42.324C127.041 42.5232 127.031 42.7352 127.075 42.9393C127.119 43.1434 127.215 43.3324 127.355 43.4877C127.528 43.6749 127.748 43.8112 127.992 43.882C128.237 43.9528 128.496 43.9554 128.742 43.8896C128.983 43.8079 129.199 43.6659 129.371 43.477C129.543 43.2881 129.663 43.0586 129.722 42.8099C129.77 42.6048 129.775 42.3917 129.734 42.1848C129.694 41.978 129.611 41.7821 129.489 41.6103C129.329 41.362 129.111 41.1563 128.855 41.0104C128.676 40.9085 128.562 40.8785 128.568 40.8605C128.681 40.8653 128.791 40.8939 128.891 40.9444C129.176 41.0758 129.42 41.2833 129.596 41.5443C129.739 41.7293 129.838 41.9434 129.889 42.1714C129.94 42.3994 129.94 42.6358 129.889 42.8639C129.824 43.1418 129.689 43.3982 129.496 43.6084C129.303 43.8185 129.06 43.9753 128.789 44.0635C128.51 44.1364 128.216 44.1307 127.94 44.0471C127.664 43.9635 127.416 43.8053 127.223 43.5897C127.056 43.399 126.948 43.1634 126.912 42.9119C126.884 42.6957 126.906 42.4759 126.978 42.2701C127.076 41.9716 127.275 41.7169 127.54 41.5503C127.633 41.4908 127.74 41.4557 127.851 41.4483Z" fill="#455A64"/>
<path d="M145.067 22.3679C145.212 22.2198 145.31 22.0319 145.348 21.8281C145.363 21.7206 145.354 21.6111 145.322 21.5074C145.29 21.4037 145.236 21.3084 145.163 21.2283C145.062 21.1233 144.935 21.0482 144.795 21.0112C144.654 20.9742 144.507 20.9766 144.368 21.0183L144.194 21.0783L144.266 20.9104C144.33 20.753 144.343 20.5796 144.305 20.4142C144.266 20.2488 144.177 20.0994 144.051 19.9866C143.902 19.8701 143.716 19.8098 143.527 19.8164C143.338 19.823 143.157 19.896 143.017 20.0226L142.879 19.8967C142.904 19.8635 142.924 19.8272 142.939 19.7887C142.955 19.7226 142.958 19.654 142.946 19.5869C142.935 19.5199 142.91 19.4558 142.873 19.3988C142.791 19.2857 142.669 19.2084 142.532 19.1829C142.395 19.15 142.251 19.15 142.114 19.1829C141.968 19.252 141.809 19.2869 141.648 19.2848C141.45 19.2489 141.361 19.1049 141.259 19.0389C141.164 18.9558 141.057 18.8871 140.942 18.835C140.731 18.7422 140.503 18.6913 140.273 18.685C139.935 18.6707 139.6 18.7495 139.304 18.9129C139.095 19.0389 138.999 19.1349 138.987 19.1229C139.056 19.012 139.15 18.9194 139.262 18.853C139.561 18.6516 139.913 18.5451 140.273 18.5471C140.523 18.5476 140.77 18.5965 141.002 18.691C141.131 18.7454 141.252 18.8181 141.361 18.9069C141.486 18.9909 141.576 19.1049 141.678 19.1169C141.812 19.1024 141.943 19.0659 142.066 19.0089C142.231 18.9668 142.403 18.9668 142.568 19.0089C142.659 19.0242 142.746 19.0575 142.824 19.1069C142.902 19.1564 142.97 19.2209 143.023 19.2968C143.079 19.3767 143.117 19.4683 143.134 19.5648C143.15 19.6614 143.145 19.7604 143.118 19.8547C143.096 19.9155 143.063 19.9722 143.023 20.0226L142.885 19.8907C143.046 19.7372 143.255 19.6446 143.476 19.6287C143.698 19.6129 143.918 19.6748 144.099 19.8038C144.28 19.9328 144.41 20.121 144.468 20.336C144.526 20.551 144.507 20.7795 144.416 20.9823L144.314 20.8744C144.481 20.8253 144.658 20.8246 144.825 20.8724C144.992 20.9202 145.142 21.0144 145.258 21.1443C145.395 21.3089 145.466 21.5185 145.457 21.7324C145.448 21.9463 145.36 22.1493 145.211 22.302C145.127 22.3499 145.073 22.3739 145.067 22.3679Z" fill="#455A64"/>
<path d="M149.713 23.573C149.871 23.4299 149.992 23.2509 150.066 23.0512C150.144 22.8207 150.129 22.569 150.024 22.3494C149.955 22.2073 149.853 22.0844 149.726 21.9913C149.599 21.8983 149.451 21.8379 149.295 21.8155H149.157L149.247 21.7136C149.379 21.5822 149.477 21.4209 149.533 21.2434C149.589 21.0658 149.602 20.8773 149.57 20.6939C149.546 20.5982 149.5 20.5099 149.434 20.4367C149.368 20.3634 149.286 20.3075 149.193 20.274C149.105 20.228 149.005 20.2103 148.907 20.2231C148.809 20.236 148.717 20.2789 148.643 20.346L148.111 20.9098L148.5 20.238C148.566 20.1137 148.605 19.9766 148.615 19.8359C148.624 19.6953 148.603 19.5542 148.554 19.4222C148.5 19.2836 148.413 19.1606 148.3 19.0643C148.188 18.9679 148.053 18.9013 147.908 18.8704C147.707 18.8259 147.498 18.8469 147.31 18.9304L147.095 19.0383L147.185 18.8104C147.31 18.4925 146.987 18.1206 146.664 18.0786C146.317 18.0474 145.97 18.134 145.678 18.3245L145.499 18.4205L145.553 18.2226C145.584 18.0943 145.577 17.9599 145.533 17.8353C145.49 17.7108 145.411 17.6016 145.307 17.5208C145.124 17.3696 144.903 17.2721 144.668 17.2389C144.273 17.1643 143.867 17.1643 143.472 17.2389C143.125 17.3245 142.789 17.4471 142.468 17.6048C142.468 17.6048 142.54 17.5328 142.701 17.4368C142.936 17.3064 143.187 17.2076 143.448 17.1429C143.852 17.0391 144.273 17.0167 144.686 17.0769C144.951 17.1072 145.202 17.2134 145.409 17.3828C145.526 17.4828 145.613 17.6124 145.663 17.7581C145.712 17.9037 145.721 18.06 145.69 18.2106L145.564 18.1146C145.89 17.9007 146.277 17.8034 146.664 17.8387C146.88 17.8735 147.075 17.9893 147.208 18.1626C147.285 18.2521 147.336 18.3604 147.357 18.4763C147.378 18.5922 147.368 18.7116 147.328 18.8224L147.203 18.7024C147.435 18.5898 147.699 18.5622 147.95 18.6245C148.127 18.6655 148.291 18.7507 148.427 18.8724C148.563 18.994 148.666 19.148 148.727 19.3203C148.787 19.4776 148.812 19.6462 148.799 19.8142C148.787 19.9821 148.738 20.1453 148.655 20.292L148.512 20.184C148.612 20.0914 148.737 20.0315 148.872 20.0122C149.006 19.9929 149.143 20.0152 149.265 20.076C149.379 20.1243 149.48 20.198 149.561 20.2916C149.642 20.3852 149.7 20.4961 149.731 20.6159C149.767 20.825 149.751 21.0397 149.685 21.2414C149.62 21.4431 149.506 21.6257 149.355 21.7735L149.313 21.6536C149.487 21.6802 149.651 21.7487 149.793 21.8532C149.934 21.9576 150.049 22.095 150.126 22.2534C150.177 22.3769 150.204 22.5094 150.204 22.6433C150.204 22.7772 150.177 22.9097 150.126 23.0332C150.066 23.1893 149.967 23.3276 149.839 23.4351C149.773 23.555 149.713 23.579 149.713 23.573Z" fill="#455A64"/>
<path d="M159.721 24.4489C159.718 24.351 159.696 24.2546 159.655 24.1658C159.614 24.077 159.555 23.9977 159.481 23.933C159.316 23.7876 159.103 23.7085 158.884 23.7111C158.577 23.7278 158.275 23.7989 157.993 23.921L157.891 23.957V23.849C157.89 23.6617 157.824 23.4807 157.704 23.3372C157.584 23.1937 157.417 23.0968 157.234 23.0633C156.782 23.0012 156.323 23.0742 155.912 23.2732L155.35 23.5191L155.847 23.1472C155.907 23.0821 155.954 23.0054 155.984 22.9217C156.015 22.8381 156.028 22.7492 156.024 22.6603C156.019 22.5713 155.997 22.4842 155.958 22.404C155.92 22.3239 155.865 22.2523 155.799 22.1935C155.633 22.0716 155.444 21.9843 155.244 21.9369C155.044 21.8895 154.836 21.8829 154.633 21.9176H154.579L154.209 21.9536L154.519 21.7437C154.6 21.6713 154.664 21.5812 154.704 21.4804C154.745 21.3795 154.762 21.2706 154.754 21.1621C154.746 21.0536 154.713 20.9484 154.658 20.8547C154.603 20.7611 154.527 20.6814 154.436 20.622C154.248 20.5188 154.034 20.4745 153.821 20.4948C153.607 20.5151 153.405 20.5991 153.24 20.736L152.858 21.0359L153.115 20.622C153.26 20.3728 153.337 20.0891 153.337 19.8002C153.337 19.5114 153.26 19.2277 153.115 18.9785C152.995 18.7856 152.833 18.6223 152.642 18.5008C152.45 18.3793 152.234 18.3027 152.009 18.2767C151.711 18.2338 151.408 18.271 151.13 18.3846C150.939 18.4686 150.849 18.5406 150.837 18.5286C150.855 18.5067 150.875 18.4866 150.897 18.4686C150.962 18.4181 151.032 18.3739 151.106 18.3367C151.389 18.197 151.706 18.1388 152.021 18.1687C152.263 18.1921 152.496 18.2708 152.704 18.3987C152.911 18.5265 153.086 18.7002 153.216 18.9065C153.382 19.1761 153.472 19.4855 153.477 19.8021C153.482 20.1187 153.403 20.431 153.246 20.706L153.115 20.592C153.308 20.4305 153.546 20.3315 153.797 20.308C154.047 20.2844 154.299 20.3374 154.519 20.46C154.634 20.5361 154.73 20.637 154.801 20.7554C154.871 20.8738 154.914 21.0065 154.926 21.1438C154.944 21.2873 154.924 21.433 154.867 21.5659C154.811 21.6988 154.719 21.814 154.603 21.8996L154.543 21.7257H154.603C154.831 21.6858 155.065 21.6946 155.29 21.7514C155.514 21.8083 155.724 21.9119 155.906 22.0556C156.069 22.2154 156.168 22.4282 156.187 22.6554C156.197 22.7683 156.179 22.8818 156.135 22.9863C156.092 23.0907 156.023 23.183 155.936 23.2552L155.853 23.0993C156.297 22.8929 156.792 22.824 157.275 22.9013C157.493 22.9477 157.686 23.0693 157.823 23.2448C157.96 23.4203 158.03 23.6385 158.023 23.861L157.933 23.7891C158.23 23.6691 158.546 23.6041 158.866 23.5971C159.116 23.5982 159.356 23.6972 159.535 23.873C159.65 23.9805 159.724 24.1247 159.744 24.2809C159.744 24.3949 159.727 24.4489 159.721 24.4489Z" fill="#455A64"/>
<path d="M154.478 14.882C154.478 14.882 154.4 14.936 154.233 14.972C153.992 15.0146 153.747 15.0287 153.503 15.014C153.147 14.9749 152.787 15.0287 152.457 15.17C152.366 15.2128 152.285 15.2762 152.222 15.3553C152.159 15.4344 152.114 15.5271 152.093 15.6261C152.061 15.7265 152.062 15.8347 152.096 15.9343C152.131 16.0339 152.197 16.1195 152.284 16.1783L152.152 16.2683C152.117 16.0282 151.818 15.8722 151.555 15.7161C151.285 15.5434 150.991 15.4138 150.682 15.3321C150.532 15.2932 150.375 15.2854 150.222 15.3091C150.069 15.3329 149.922 15.3876 149.791 15.4701C149.668 15.5388 149.567 15.6401 149.499 15.763C149.43 15.8859 149.397 16.0255 149.402 16.1662V16.3943L149.229 16.2443C148.886 15.9457 148.456 15.7667 148.004 15.7342C147.647 15.7055 147.29 15.7588 146.957 15.8902C146.665 16.0163 146.395 16.1885 146.156 16.4003C146.198 16.325 146.25 16.2562 146.312 16.1963C146.486 16.0262 146.688 15.8881 146.91 15.7882C147.255 15.6338 147.632 15.5659 148.01 15.5901C148.497 15.6119 148.964 15.7956 149.337 16.1122L149.193 16.1903C149.181 16.0156 149.217 15.8409 149.298 15.686C149.38 15.5312 149.503 15.4023 149.654 15.3141C149.805 15.2182 149.974 15.1545 150.151 15.1266C150.328 15.0987 150.508 15.1074 150.682 15.152C151.162 15.2968 151.615 15.522 152.021 15.8182C152.164 15.9168 152.262 16.0676 152.296 16.2383L152.326 16.4183L152.17 16.3343C152.049 16.2565 151.957 16.1408 151.909 16.0051C151.86 15.8694 151.858 15.7214 151.901 15.5841C151.931 15.4636 151.988 15.3516 152.068 15.2568C152.148 15.1621 152.248 15.0872 152.362 15.038C152.716 14.8938 153.102 14.8482 153.48 14.906C153.716 14.9262 153.954 14.9262 154.191 14.906C154.388 14.9 154.472 14.876 154.478 14.882Z" fill="#455A64"/>
<path d="M145.187 11.2768C145.019 11.275 144.852 11.2972 144.691 11.3428C144.515 11.4065 144.355 11.509 144.224 11.6427C144.062 11.8042 143.957 12.015 143.925 12.2425V12.3445H143.83C143.689 12.3158 143.543 12.3388 143.418 12.4092C143.293 12.4797 143.197 12.593 143.148 12.7284C143.039 13.064 143.026 13.4237 143.112 13.7661L143.166 14.132L142.939 13.8321L142.903 13.7841C142.823 13.6927 142.723 13.6208 142.611 13.5741C142.5 13.5273 142.378 13.5068 142.257 13.5142C142.031 13.5228 141.816 13.6196 141.66 13.7841C141.521 13.9313 141.416 14.1066 141.351 14.298C141.286 14.4894 141.263 14.6925 141.283 14.8938C141.306 15.1737 141.377 15.4477 141.492 15.7035C141.543 15.7979 141.582 15.8988 141.606 16.0034C141.533 15.9254 141.472 15.8363 141.426 15.7395C141.284 15.4813 141.19 15.1985 141.151 14.9058C141.12 14.6824 141.139 14.4549 141.205 14.2393C141.271 14.0237 141.383 13.8253 141.534 13.6581C141.633 13.5543 141.752 13.4717 141.883 13.4153C142.015 13.3588 142.156 13.3297 142.299 13.3297C142.442 13.3297 142.584 13.3588 142.715 13.4153C142.847 13.4717 142.966 13.5543 143.065 13.6581L143.106 13.7181L142.939 13.7841C142.845 13.4068 142.866 13.0097 142.999 12.6444C143.069 12.4731 143.198 12.3325 143.362 12.2478C143.527 12.1632 143.716 12.1401 143.895 12.1826L143.788 12.2545C143.826 11.9809 143.957 11.7287 144.159 11.5407C144.309 11.4006 144.492 11.2996 144.691 11.2468C144.819 11.2181 144.951 11.2181 145.079 11.2468C145.151 11.2468 145.187 11.2648 145.187 11.2768Z" fill="#455A64"/>
<path d="M137.003 16.981C137.003 16.981 136.908 16.981 136.758 16.927C136.541 16.8378 136.347 16.7004 136.19 16.5251C135.954 16.2605 135.804 15.9299 135.76 15.5774C135.774 15.3991 135.732 15.2208 135.64 15.0675C135.533 14.9356 135.306 14.8516 135.162 14.6357C135.033 14.4325 134.987 14.1874 135.032 13.9509C135.078 13.7143 135.212 13.5043 135.407 13.364V13.502C135.058 13.1974 134.783 12.8155 134.606 12.3863C134.527 12.2254 134.482 12.0497 134.475 11.8705C134.56 12.0237 134.636 12.182 134.702 12.3443C134.906 12.7364 135.184 13.0848 135.521 13.37L135.61 13.448L135.509 13.508C135.36 13.6265 135.259 13.7958 135.226 13.9837C135.193 14.1716 135.23 14.3652 135.33 14.5277C135.425 14.6897 135.634 14.7676 135.79 14.9476C135.906 15.1248 135.961 15.3357 135.945 15.5474C135.975 15.8668 136.1 16.1698 136.304 16.4172C136.498 16.649 136.736 16.8405 137.003 16.981Z" fill="#455A64"/>
<path d="M134.591 18.6367C134.539 18.6443 134.487 18.6443 134.435 18.6367C134.287 18.6425 134.138 18.6304 133.993 18.6008C133.471 18.4929 132.996 18.222 132.636 17.827H132.755C132.621 17.9957 132.455 18.1357 132.266 18.2387C132.077 18.3417 131.869 18.4057 131.655 18.4268C131.419 18.452 131.18 18.4233 130.956 18.3428C130.704 18.2707 130.489 18.1029 130.358 17.875C130.33 17.7863 130.306 17.6962 130.286 17.605C130.264 17.5368 130.222 17.4765 130.167 17.4311C130.038 17.3375 129.892 17.2721 129.736 17.2392C129.565 17.1999 129.402 17.1331 129.252 17.0412C129.172 16.993 129.105 16.9245 129.059 16.8424C129.012 16.7604 128.989 16.6676 128.989 16.5734L129.103 16.6573C128.734 16.7916 128.33 16.7916 127.961 16.6573C127.674 16.5653 127.415 16.4023 127.208 16.1835C127.076 16.0418 126.97 15.8772 126.897 15.6976C126.855 15.5716 126.843 15.4997 126.855 15.4997C126.962 15.7218 127.106 15.9245 127.279 16.0995C127.485 16.2903 127.733 16.43 128.003 16.5074C128.343 16.6134 128.709 16.5965 129.037 16.4594L129.163 16.4054V16.5434C129.165 16.6074 129.185 16.6694 129.22 16.7232C129.254 16.777 129.303 16.8205 129.36 16.8493C129.492 16.9312 129.638 16.9882 129.79 17.0172C129.972 17.0562 130.143 17.134 130.292 17.2452C130.375 17.3152 130.437 17.4065 130.472 17.5091C130.489 17.5922 130.511 17.6743 130.538 17.755C130.647 17.9377 130.823 18.0709 131.028 18.1269C131.309 18.225 131.612 18.2369 131.9 18.1611C132.187 18.0852 132.446 17.925 132.642 17.701L132.702 17.629L132.761 17.701C133.1 18.0918 133.548 18.3718 134.047 18.5048C134.376 18.6247 134.591 18.6128 134.591 18.6367Z" fill="#455A64"/>
<path d="M119.781 24.4191C119.781 24.4191 119.781 24.4191 119.781 24.3531C119.775 24.2893 119.775 24.225 119.781 24.1612C119.765 23.9079 119.795 23.6537 119.871 23.4114C119.991 23.039 120.16 22.6841 120.373 22.3557C120.495 22.1444 120.635 21.9438 120.791 21.7559C120.886 21.6534 120.997 21.5681 121.12 21.504C121.192 21.4685 121.27 21.4501 121.35 21.4501C121.43 21.4501 121.509 21.4685 121.58 21.504L121.461 21.582C121.442 21.3463 121.488 21.1099 121.593 20.8985C121.698 20.687 121.859 20.5085 122.059 20.3823C122.282 20.2504 122.54 20.1895 122.798 20.2077C123.056 20.2259 123.303 20.3224 123.505 20.4843L123.356 20.5563C123.354 20.4201 123.385 20.2854 123.445 20.1633C123.505 20.0413 123.594 19.9354 123.703 19.8545C123.817 19.7711 123.95 19.718 124.09 19.7001C124.23 19.6823 124.373 19.7003 124.504 19.7525C124.65 19.8124 124.778 19.9096 124.874 20.0344L124.701 20.1004C124.699 20.0157 124.716 19.9316 124.751 19.8547C124.786 19.7777 124.839 19.7099 124.904 19.6565C125.02 19.5522 125.167 19.4889 125.323 19.4766C125.605 19.4784 125.882 19.5506 126.13 19.6865L126.01 19.7225C126.194 19.4247 126.485 19.2097 126.823 19.1227C127.125 19.0447 127.442 19.0447 127.744 19.1227C128.253 19.2763 128.732 19.5157 129.161 19.8305L129.059 19.9144C129.036 19.8608 129.027 19.8018 129.035 19.7437C129.042 19.6856 129.065 19.6306 129.101 19.5845C129.162 19.509 129.24 19.4493 129.328 19.4106C129.486 19.3418 129.659 19.315 129.83 19.3326C130.089 19.3729 130.341 19.4496 130.578 19.5606C130.728 19.6283 130.871 19.7128 131.002 19.8125C131.092 19.8785 131.134 19.9204 131.128 19.9264C130.934 19.8154 130.735 19.7152 130.53 19.6265C130.296 19.5327 130.051 19.4702 129.801 19.4406C129.651 19.4287 129.501 19.4556 129.364 19.5186C129.221 19.5845 129.101 19.7165 129.167 19.8605L129.268 20.0644L129.071 19.9444C128.631 19.6607 128.149 19.45 127.642 19.3206C127.368 19.2518 127.08 19.2518 126.805 19.3206C126.518 19.3912 126.266 19.5665 126.1 19.8125L126.058 19.9204L125.986 19.8845C125.767 19.7665 125.524 19.7028 125.275 19.6985C125.048 19.6985 124.809 19.9025 124.827 20.1184L124.857 20.4483L124.653 20.1844C124.582 20.0853 124.485 20.0084 124.372 19.9624C124.274 19.9267 124.168 19.9151 124.064 19.9286C123.96 19.9422 123.861 19.9805 123.774 20.0404C123.689 20.1031 123.619 20.1852 123.571 20.2801C123.524 20.375 123.499 20.4799 123.499 20.5862V20.7902L123.338 20.6642C123.166 20.5243 122.955 20.4403 122.734 20.4231C122.513 20.406 122.292 20.4566 122.101 20.5683C121.931 20.6771 121.793 20.8296 121.701 21.01C121.61 21.1903 121.568 21.392 121.58 21.594V21.7499L121.449 21.6719C121.246 21.552 121.001 21.7139 120.851 21.8819C120.699 22.0584 120.561 22.247 120.439 22.4457C120.221 22.7617 120.044 23.1044 119.913 23.4654C119.808 23.7718 119.763 24.0957 119.781 24.4191Z" fill="#455A64"/>
<path d="M120.827 29.9314C120.827 29.9314 120.791 29.8954 120.731 29.8174C120.649 29.6945 120.575 29.5662 120.51 29.4335C120.402 29.2201 120.351 28.9827 120.361 28.7437C120.376 28.5927 120.425 28.4471 120.504 28.3179C120.596 28.1626 120.743 28.0488 120.916 28L120.875 28.1019C120.775 27.9543 120.723 27.7799 120.724 27.6017C120.725 27.4236 120.781 27.25 120.882 27.1039C120.984 26.9578 121.127 26.846 121.293 26.7832C121.46 26.7205 121.641 26.7097 121.813 26.7523L121.73 26.8843C121.641 26.7623 121.593 26.6153 121.593 26.4644C121.593 26.3135 121.641 26.1665 121.73 26.0445C121.828 25.9283 121.951 25.835 122.09 25.7708C122.228 25.7066 122.378 25.6731 122.531 25.6726C122.67 25.6817 122.81 25.6817 122.949 25.6726C123.008 25.6596 123.063 25.6319 123.109 25.5921C123.155 25.5523 123.191 25.5017 123.212 25.4447C123.27 25.2972 123.351 25.1596 123.451 25.0368C123.57 24.9129 123.725 24.8291 123.894 24.7969C124.227 24.7615 124.564 24.7615 124.898 24.7969C125.042 24.8137 125.187 24.8011 125.326 24.7599C125.465 24.7187 125.594 24.6496 125.705 24.557C125.799 24.4433 125.885 24.323 125.962 24.1971C126.064 24.0714 126.196 23.9726 126.345 23.9092C126.485 23.8469 126.637 23.8189 126.79 23.8272C126.943 23.8355 127.091 23.8801 127.224 23.9571L127.11 24.0711C127.036 23.9333 127.006 23.7758 127.024 23.6201C127.042 23.4645 127.107 23.3182 127.212 23.2014C127.395 23.0003 127.647 22.876 127.917 22.8535C128.332 22.8264 128.748 22.8794 129.143 23.0094C129.397 23.0829 129.643 23.1814 129.878 23.3033C129.965 23.3403 130.046 23.3909 130.117 23.4533C130.117 23.4533 129.77 23.2733 129.119 23.0994C128.73 22.9908 128.325 22.9542 127.923 22.9914C127.692 23.0119 127.477 23.1216 127.325 23.2973C127.243 23.3889 127.191 23.5036 127.176 23.626C127.161 23.7483 127.184 23.8723 127.241 23.9811L127.439 24.275L127.134 24.0951C127.02 24.0403 126.895 24.0119 126.769 24.0119C126.643 24.0119 126.518 24.0403 126.404 24.0951C126.283 24.1489 126.178 24.2337 126.1 24.341C126.016 24.449 125.95 24.587 125.831 24.7189C125.707 24.8383 125.555 24.9231 125.388 24.9648C125.225 25.0013 125.059 25.0174 124.892 25.0128C124.572 24.9826 124.25 24.9826 123.929 25.0128C123.797 25.0399 123.676 25.1069 123.583 25.2048C123.496 25.3174 123.424 25.4403 123.368 25.5707C123.334 25.6516 123.281 25.723 123.213 25.7784C123.145 25.8339 123.065 25.8717 122.979 25.8886C122.83 25.8973 122.68 25.8973 122.531 25.8886C122.405 25.8866 122.281 25.9118 122.167 25.9625C122.052 26.0133 121.95 26.0883 121.867 26.1825C121.802 26.2673 121.763 26.3699 121.757 26.4769C121.751 26.5838 121.776 26.6903 121.831 26.7823L121.981 26.9743L121.741 26.9143C121.599 26.8765 121.448 26.8833 121.31 26.9337C121.171 26.9841 121.051 27.0758 120.966 27.1965C120.881 27.3172 120.835 27.4611 120.833 27.609C120.832 27.7569 120.875 27.9016 120.958 28.024L121.006 28.1079H120.916C120.789 28.153 120.676 28.2331 120.592 28.3392C120.507 28.4452 120.454 28.5729 120.438 28.7078C120.42 28.9313 120.457 29.1558 120.546 29.3616C120.725 29.7514 120.845 29.9254 120.827 29.9314Z" fill="#455A64"/>
<path d="M121.143 41.4001C121.078 41.3942 121.014 41.3737 120.958 41.3401C120.795 41.2587 120.65 41.1444 120.533 41.0042C120.344 40.78 120.233 40.4999 120.216 40.2065C120.206 40.0138 120.235 39.821 120.301 39.6396C120.367 39.4583 120.468 39.292 120.599 39.1508V39.2528C120.376 38.9761 120.209 38.6582 120.109 38.317C120.066 38.1167 120.083 37.9083 120.157 37.7172C120.193 37.6128 120.251 37.5175 120.328 37.4378C120.404 37.3581 120.497 37.2958 120.599 37.2553V37.4173C120.441 37.3095 120.315 37.1616 120.233 36.9888C120.151 36.8159 120.117 36.6243 120.133 36.4336C120.142 36.2201 120.208 36.013 120.324 35.8338C120.44 35.6557 120.61 35.5193 120.808 35.4439C120.988 35.3659 121.071 35.2819 121.077 35.096C121.083 34.9075 121.125 34.7219 121.203 34.5501C121.354 34.2371 121.585 33.97 121.872 33.7764C122.124 33.5964 122.357 33.4225 122.578 33.2725C122.919 33.0149 123.31 32.8311 123.726 32.7327C123.841 32.7206 123.957 32.7206 124.072 32.7327C124.112 32.7253 124.152 32.7253 124.192 32.7327C124.192 32.7327 124.025 32.7327 123.744 32.8166C123.347 32.9463 122.978 33.1497 122.656 33.4165L121.968 33.9383C121.697 34.1071 121.478 34.3479 121.334 34.6341C121.264 34.7908 121.228 34.9603 121.227 35.132C121.227 35.2451 121.189 35.355 121.119 35.4439C121.05 35.5256 120.961 35.5894 120.862 35.6298C120.709 35.6992 120.577 35.8071 120.478 35.9428C120.379 36.0786 120.316 36.2377 120.297 36.4048C120.277 36.5718 120.3 36.7412 120.365 36.8965C120.429 37.0519 120.533 37.1878 120.665 37.2913L120.826 37.3933L120.647 37.4593C120.496 37.5372 120.376 37.665 120.307 37.8211C120.238 37.9773 120.225 38.1524 120.27 38.317C120.359 38.6384 120.511 38.9384 120.719 39.1988L120.755 39.2528L120.707 39.3007C120.465 39.5516 120.332 39.8878 120.336 40.2365C120.342 40.5063 120.434 40.767 120.599 40.9803C120.753 41.1529 120.937 41.2953 121.143 41.4001Z" fill="#455A64"/>
<path d="M127.021 36.4997C126.933 36.4986 126.845 36.4803 126.764 36.4457C126.527 36.3658 126.303 36.2505 126.1 36.1038C125.788 35.8699 125.533 35.5685 125.353 35.2221C125.221 35.0047 125.177 34.7454 125.228 34.4963C125.248 34.425 125.285 34.3594 125.335 34.3043C125.384 34.2492 125.446 34.2062 125.514 34.1784C125.588 34.1391 125.673 34.1254 125.755 34.1395C125.837 34.1536 125.912 34.1947 125.969 34.2564L125.831 34.3403C125.718 34.1163 125.673 33.8642 125.7 33.6146C125.73 33.4729 125.811 33.3472 125.927 33.2607C125.989 33.2181 126.061 33.1906 126.135 33.1802C126.21 33.1698 126.286 33.1768 126.357 33.2007C126.461 33.2347 126.571 33.249 126.68 33.2427C126.752 33.2427 126.764 33.1347 126.758 32.9907C126.759 32.6958 126.872 32.4125 127.075 32.199C127.23 32.0226 127.433 31.8944 127.658 31.8296C127.884 31.7648 128.123 31.766 128.348 31.8331L128.229 31.941C128.168 31.7658 128.155 31.5779 128.189 31.3958C128.224 31.2138 128.306 31.044 128.426 30.9033C128.494 30.8419 128.575 30.7957 128.663 30.7678C128.75 30.7399 128.843 30.7309 128.934 30.7414C129.025 30.7481 129.113 30.7803 129.187 30.8344C129.261 30.8885 129.318 30.9622 129.353 31.0473L129.191 31.0833C129.168 30.6041 129.28 30.128 129.514 29.7097C129.695 29.3845 129.944 29.1022 130.243 28.8819C130.424 28.7379 130.625 28.6225 130.841 28.54C130.991 28.4861 131.074 28.4681 131.074 28.4801C130.794 28.6033 130.531 28.7626 130.291 28.9539C130.026 29.1816 129.806 29.4586 129.645 29.7697C129.436 30.1698 129.341 30.6203 129.37 31.0713L129.412 31.7551L129.209 31.1013C129.137 30.8794 128.749 30.8434 128.557 31.0293C128.463 31.1497 128.401 31.2921 128.377 31.4433C128.353 31.5944 128.368 31.7492 128.42 31.8931L128.468 32.061L128.3 32.007C128.109 31.9535 127.907 31.9549 127.717 32.0111C127.527 32.0673 127.356 32.1761 127.224 32.3249C127.052 32.5032 126.955 32.7421 126.955 32.9907C126.966 33.0643 126.966 33.1391 126.955 33.2127C126.945 33.2591 126.923 33.3021 126.892 33.3378C126.86 33.3734 126.821 33.4005 126.776 33.4166C126.631 33.4451 126.482 33.4305 126.345 33.3746C126.302 33.3529 126.254 33.3417 126.205 33.3417C126.156 33.3417 126.108 33.3529 126.064 33.3746C125.984 33.4376 125.927 33.5265 125.903 33.6265C125.889 33.833 125.928 34.0396 126.017 34.2264L126.19 34.6822L125.873 34.3103C125.754 34.1604 125.443 34.3103 125.407 34.4903C125.367 34.696 125.403 34.9092 125.508 35.0901C125.671 35.4239 125.904 35.7186 126.19 35.9539C126.439 36.1749 126.719 36.3588 127.021 36.4997Z" fill="#455A64"/>
<path d="M136.424 24.887C136.008 24.788 135.636 24.554 135.366 24.2212C135.281 24.1054 135.22 23.9732 135.188 23.8328C135.156 23.6924 135.154 23.5469 135.181 23.4055C135.199 23.3368 135.225 23.2704 135.258 23.2075L135.3 23.3395C135.184 23.2784 135.083 23.1934 135.003 23.09C134.922 22.9865 134.865 22.8671 134.834 22.7397C134.795 22.5309 134.84 22.3153 134.959 22.1398C135.163 21.8399 135.408 21.8099 135.402 21.8279C135.396 21.8459 135.21 21.9299 135.067 22.2058C135.022 22.2919 134.994 22.3861 134.985 22.4831C134.977 22.58 134.987 22.6777 135.017 22.7704C135.047 22.8632 135.094 22.949 135.157 23.0231C135.22 23.0971 135.297 23.1578 135.384 23.2015L135.468 23.2435L135.42 23.3335C135.398 23.3821 135.38 23.4322 135.366 23.4834C135.343 23.6003 135.344 23.7205 135.369 23.837C135.394 23.9534 135.441 24.0637 135.509 24.1612C135.626 24.3279 135.772 24.4721 135.94 24.5871C136.221 24.7491 136.442 24.857 136.424 24.887Z" fill="#455A64"/>
<path d="M140.794 22.8533C140.911 22.6457 140.957 22.4057 140.926 22.1695C140.907 22.0407 140.857 21.9186 140.78 21.814C140.702 21.7094 140.601 21.6254 140.484 21.5696C140.336 21.5052 140.174 21.4839 140.015 21.5083C139.857 21.5328 139.708 21.6019 139.587 21.7076L139.467 21.8216L139.437 21.6596C139.398 21.4664 139.321 21.2829 139.21 21.1198C139.161 21.0336 139.094 20.9591 139.013 20.9011C138.933 20.8432 138.841 20.8032 138.744 20.7839C138.445 20.7419 138.11 21.0178 138.188 21.2697L138.015 21.3057C137.967 20.9367 137.781 20.5998 137.495 20.364C137.266 20.1797 136.986 20.0726 136.693 20.0581C136.424 20.0541 136.156 20.1009 135.904 20.196C135.956 20.1424 136.02 20.1014 136.09 20.0761C136.277 19.987 136.481 19.9399 136.687 19.9381C137.013 19.939 137.33 20.0464 137.59 20.244C137.917 20.498 138.132 20.8706 138.188 21.2817L138.009 21.3177C137.985 21.2185 137.99 21.1145 138.023 21.0179C138.055 20.9213 138.115 20.836 138.194 20.7719C138.352 20.6392 138.556 20.5745 138.762 20.5919C138.886 20.6155 139.004 20.6658 139.107 20.7393C139.21 20.8128 139.296 20.9078 139.36 21.0178C139.477 21.1997 139.557 21.4038 139.593 21.6176L139.449 21.5696C139.595 21.4412 139.776 21.3585 139.968 21.3318C140.16 21.3052 140.356 21.3357 140.531 21.4197C140.666 21.4879 140.78 21.5892 140.865 21.714C140.95 21.8388 141.002 21.9831 141.016 22.1335C141.037 22.3242 141 22.5169 140.908 22.6853C140.854 22.8173 140.8 22.8593 140.794 22.8533Z" fill="#455A64"/>
<path d="M89.0709 52.5325C89.0709 52.5325 108.01 52.2386 113.749 55.3457C113.749 55.3457 116.092 54.0561 117.372 54.5899C118.651 55.1238 118.508 55.3457 118.508 55.3457C118.508 55.3457 117.312 52.8984 119.787 53.7802C122.262 54.6619 122.358 55.3457 122.358 55.3457L130.129 55.1658L130.225 56.8333C128.79 58.4228 124.791 62.8315 124.791 62.8315L121.467 74.828L109.439 124.056L103.897 149.086C100.487 143.746 98.2773 137.724 97.4225 131.439C95.904 120.769 103.586 74.804 103.586 74.804C103.586 74.804 73.8982 62.4716 72.6069 57.4091C71.6563 53.7802 89.0709 52.5325 89.0709 52.5325Z" fill="#455A64"/>
<path d="M145.894 57.8111C145.894 57.8111 151.31 58.8368 153.067 60.1384C154.825 61.44 158.938 65.5068 158.938 65.5068C158.938 65.5068 161.849 65.2789 161.706 68.23C161.706 68.23 171.307 72.7167 171.929 74.2883C172.55 75.8598 188.482 101.28 188.315 102.672C188.148 104.064 184.895 114.447 180.495 113.085C176.096 111.723 164.659 99.2889 164.659 99.2889C164.659 99.2889 169.627 148.109 163.153 152.109L154.861 141.75L153.342 105.761L145.894 57.8111Z" fill="#455A64"/>
<path d="M145.894 57.811C147.233 64.0971 142.115 66.6584 136.568 65.4407C131.02 64.2231 130.171 56.2454 130.171 56.2454L123.667 58.5308L117.814 71.8469L109.444 124.032L154.46 135.266L151.764 61.248L145.894 57.811Z" fill="#F5F5F5"/>
<path d="M98.6779 53.9603C98.6779 53.9603 89.5671 48.9817 86.835 48.6159C82.19 48.016 72.846 47.1943 70.933 51.9149C69.0199 56.6355 77.9394 63.7374 89.7464 64.0853C91.6021 64.0886 93.4274 64.5588 95.0551 65.4529L98.6779 53.9603Z" fill="#455A64"/>
<path d="M116.846 62.9515C116.567 61.6031 116.193 60.2762 115.728 58.9806C115.162 57.7237 114.511 56.5073 113.779 55.3397C114.098 55.6005 114.37 55.9127 114.586 56.2634C115.164 57.0691 115.644 57.941 116.015 58.8607C116.389 59.7794 116.65 60.7401 116.792 61.7219C116.88 62.1256 116.899 62.5416 116.846 62.9515Z" fill="#263238"/>
<path d="M117.953 62.826C118.326 61.5258 118.568 60.1916 118.676 58.8431C118.678 57.4892 118.542 56.1386 118.27 54.8123C118.477 55.1616 118.619 55.5457 118.688 55.946C119.164 57.8557 119.086 59.8621 118.461 61.7283C118.355 62.1203 118.183 62.4915 117.953 62.826Z" fill="#263238"/>
<path d="M118.776 68.5961C118.817 68.3887 118.883 68.1872 118.974 67.9963C119.117 67.6364 119.332 67.1205 119.607 66.4847C120.157 65.2131 120.934 63.4856 121.813 61.5422C122.692 59.5987 123.439 57.8413 124.33 56.7436C124.667 56.3 125.07 55.9115 125.526 55.5919C125.685 55.4673 125.865 55.3719 126.058 55.31C125.473 55.7613 124.953 56.2899 124.509 56.8815C123.69 57.9792 122.991 59.7667 122.118 61.6801C121.245 63.5936 120.432 65.3331 119.835 66.5807C119.53 67.1805 119.285 67.7084 119.105 68.0503C118.926 68.3922 118.8 68.6081 118.776 68.5961Z" fill="#263238"/>
<path d="M87.3604 48.7421C87.4493 48.7621 87.5355 48.7923 87.6175 48.832L88.3409 49.1379C88.9746 49.4139 89.8892 49.8277 91.0311 50.3976C94.1606 51.9522 97.1771 53.7261 100.058 55.706L100.16 55.778L100.106 55.886L95.1979 65.5072L95.1261 65.6451L94.9886 65.5791L94.6539 65.4232C93.8408 65.0633 93.0816 64.6374 92.2626 64.3435C91.496 64.0198 90.6658 63.8762 89.8354 63.9236C88.2294 64.0404 86.617 64.0404 85.011 63.9236C83.5561 63.7191 82.136 63.3155 80.7904 62.724C79.6067 62.2619 78.4579 61.7147 77.3529 61.0864C75.7432 60.1873 74.2697 59.0623 72.9768 57.7454C72.6292 57.3866 72.2999 57.0102 71.9904 56.6178C71.8793 56.4829 71.7775 56.3406 71.6855 56.1919C71.8146 56.3087 71.9326 56.4372 72.0383 56.5758C72.2595 56.8337 72.6002 57.2056 73.0665 57.6614C74.3796 58.9325 75.8576 60.02 77.4605 60.8945C78.5634 61.5051 79.7081 62.0363 80.886 62.484C82.2141 63.0471 83.6115 63.4284 85.0409 63.6177C86.6341 63.714 88.2321 63.7 89.8235 63.5757C91.6169 63.4198 93.2012 64.3855 94.7734 65.0993L95.1022 65.2552L94.899 65.3272L99.837 55.73L99.8848 55.91C97.0154 53.9175 94.02 52.1143 90.9175 50.5115C89.7876 49.9117 88.8849 49.4858 88.2691 49.1859L87.5637 48.838C87.4933 48.8121 87.4253 48.78 87.3604 48.7421Z" fill="#263238"/>
<path d="M152.123 71.1452C152.011 70.5199 151.961 69.885 151.974 69.2497C151.938 68.0501 151.974 66.4486 151.896 64.6671C151.86 63.7733 151.801 62.9276 151.705 62.1658C151.657 61.4916 151.495 60.8305 151.227 60.2104C151.032 59.8051 150.741 59.4547 150.378 59.1907C150.115 59.0047 149.941 58.9508 149.947 58.9268C150.124 58.9295 150.297 58.9837 150.444 59.0827C150.857 59.3276 151.194 59.6827 151.418 60.1084C151.739 60.7379 151.941 61.421 152.016 62.1238C152.124 62.8976 152.195 63.7553 152.231 64.6551C152.291 66.4546 152.231 68.0741 152.231 69.2497C152.235 69.8832 152.199 70.5162 152.123 71.1452Z" fill="#263238"/>
<path d="M161.926 68.506C160.508 67.9116 159.131 67.2202 157.807 66.4366C156.434 65.7473 155.11 64.9636 153.844 64.0913C155.259 64.6879 156.633 65.3792 157.957 66.1607C159.331 66.8526 160.657 67.6362 161.926 68.506Z" fill="#263238"/>
<path d="M96.3228 53.7084C95.786 53.9374 95.263 54.1978 94.7565 54.4881C93.5883 55.2605 92.6634 56.3507 92.0902 57.6312C91.5335 58.9243 91.233 60.3137 91.2055 61.722C91.1696 62.8077 91.2413 63.4795 91.2055 63.4855C91.1445 63.3367 91.1101 63.1784 91.1038 63.0176C90.8386 61.1484 91.0887 59.2419 91.8272 57.5053C92.4217 56.1695 93.4109 55.0493 94.6609 54.2962C95.0374 54.0784 95.4389 53.9072 95.8565 53.7863C96.0057 53.7314 96.1639 53.7049 96.3228 53.7084Z" fill="#263238"/>
<path d="M94.134 61.5009C93.5853 61.5611 93.0308 61.4676 92.5318 61.2308C91.9988 61.0875 91.5137 60.8037 91.127 60.4086C91.6495 60.5264 92.1569 60.7036 92.6394 60.9367C93.1554 61.0734 93.6562 61.2624 94.134 61.5009Z" fill="#263238"/>
<path d="M94.5405 59.5092C93.9902 59.4634 93.4561 59.2997 92.9742 59.0291C92.4511 58.8481 91.9723 58.5576 91.5693 58.1769C92.6218 58.4815 93.6276 58.9298 94.5584 59.5092H94.5405Z" fill="#263238"/>
<path d="M95.4726 57.674C94.9718 57.5673 94.4965 57.3635 94.0737 57.0738C93.6029 56.8688 93.178 56.5709 92.8242 56.1976C93.3267 56.2989 93.8029 56.5032 94.2231 56.7978C94.9704 57.2059 95.5144 57.5959 95.4726 57.674Z" fill="#263238"/>
<path d="M97.0998 56.3964C97.0281 56.4505 96.5797 55.8683 95.8743 55.3402C95.1688 54.8121 94.4933 54.536 94.5172 54.452C95.0759 54.5319 95.6055 54.7519 96.0569 55.0918C96.5083 55.4317 96.867 55.8804 97.0998 56.3964Z" fill="#263238"/>
<path d="M147.167 59.0765C147.196 59.0765 147.077 59.4664 146.945 60.1742C146.814 60.882 146.706 61.9197 146.395 63.1733C146.226 63.8741 145.928 64.5372 145.517 65.1287C145.023 65.8004 144.369 66.3367 143.615 66.6883C141.909 67.4986 140.007 67.8044 138.133 67.57C136.257 67.354 134.479 66.6119 133.004 65.4287C131.818 64.4544 130.865 63.2242 130.218 61.8297C129.78 60.8957 129.493 59.8974 129.369 58.8726C129.333 58.5962 129.315 58.3177 129.316 58.0388C129.302 57.9433 129.302 57.8464 129.316 57.7509C129.316 57.7509 129.357 58.1468 129.477 58.8606C129.647 59.8579 129.959 60.8255 130.404 61.7337C131.062 63.0804 132.007 64.2658 133.171 65.2067C134.618 66.329 136.342 67.0339 138.158 67.2453C139.975 67.4567 141.814 67.1667 143.478 66.4064C144.183 66.0738 144.798 65.5759 145.271 64.9548C145.673 64.3912 145.968 63.7591 146.144 63.0893C146.479 61.8537 146.611 60.804 146.79 60.0902C146.853 59.8183 146.931 59.55 147.023 59.2865C147.062 59.2106 147.11 59.14 147.167 59.0765Z" fill="#263238"/>
<path d="M80.9343 65.383L185.368 73.8506C187.423 74.0171 189.327 74.9958 190.662 76.5711C191.998 78.1465 192.655 80.1896 192.489 82.251L187.664 142.158C187.498 144.219 186.522 146.13 184.952 147.47C183.382 148.81 181.346 149.469 179.291 149.302L74.8574 140.835C72.9609 140.681 71.203 139.778 69.9704 138.324C68.7378 136.869 68.1314 134.983 68.2847 133.081L73.2063 71.9718C73.3596 70.069 74.2599 68.3052 75.7093 67.0685C77.1586 65.8317 79.0383 65.2233 80.9347 65.3771L80.9343 65.383Z" fill="url(#paint2_linear_473_7305)"/>
<g opacity="0.2">
<path d="M70.1844 109.648L192.612 80.8448L191.859 90.1661L69.1621 122.371L70.1844 109.648Z" fill="#F0F1F0"/>
</g>
<g opacity="0.2">
<path d="M138.899 70.0956L149.475 100.111L159.799 147.749L170.865 148.649L153.068 93.0029L148.817 70.8994L138.899 70.0956Z" fill="#F0F1F0"/>
</g>
<path d="M153.868 141.907C153.868 141.991 137.464 140.779 117.252 139.195C97.0392 137.612 80.623 136.286 80.623 136.178C80.623 136.07 97.0273 137.306 117.252 138.884C137.476 140.461 153.88 141.823 153.868 141.907Z" fill="white"/>
<path opacity="0.9" d="M146.587 92.6312C144.488 93.129 142.282 92.7392 140.232 92.0794C138.181 91.4195 136.22 90.5018 134.152 89.902C129.048 88.4507 123.585 89.0085 118.878 91.4615C118.645 91.5565 118.449 91.7222 118.316 91.9354C118.216 92.2044 118.216 92.5002 118.316 92.7691L123.409 111.31C123.523 111.963 123.836 112.565 124.306 113.031C125.047 113.631 126.099 113.415 127.032 113.175C129.992 112.481 132.872 111.475 135.623 110.176C138.381 108.856 140.754 106.844 142.51 104.334C143.293 103.134 143.891 101.838 144.71 100.675C145.475 99.4587 146.654 98.5617 148.027 98.1496L146.587 92.6312Z" fill="#FAFAFA"/>
<path opacity="0.9" d="M183.752 98.8209C182.413 90.9392 181.068 83.0155 178.467 75.4638C173.248 75.3558 168.304 77.905 164.162 81.0901C160.019 84.2752 156.39 88.12 152.205 91.2451L152.265 96.9015C153.814 96.3748 155.492 96.3643 157.047 96.8715C158.584 97.3709 160.074 98.0031 161.501 98.7609C164.801 100.456 168.339 101.64 171.993 102.27C175.652 102.804 179.526 102.432 182.79 100.686C183.22 100.518 183.569 100.189 183.764 99.7686C183.838 99.4565 183.834 99.131 183.752 98.8209Z" fill="#FAFAFA"/>
<path d="M146.587 92.6311L146.694 92.973C146.766 93.2249 146.862 93.5728 146.993 94.0167L148.129 98.1075V98.1794H148.057C147.093 98.4495 146.228 98.9931 145.564 99.745C144.781 100.661 144.111 101.668 143.568 102.744C142.922 103.99 142.118 105.148 141.176 106.187C140.118 107.342 138.912 108.35 137.589 109.186C134.839 110.986 131.462 112.143 127.863 113.109C126.972 113.325 126.069 113.709 125.017 113.523C124.76 113.474 124.515 113.372 124.299 113.224C124.083 113.075 123.9 112.883 123.762 112.659C123.519 112.219 123.339 111.747 123.23 111.256C122.71 109.366 122.177 107.429 121.633 105.467C120.838 102.576 120.067 99.751 119.314 97.0218C118.943 95.6602 118.573 94.3166 118.214 93.009C118.074 92.6626 118.044 92.2811 118.13 91.9173C118.321 91.5996 118.617 91.3597 118.967 91.2395C119.565 90.9336 120.163 90.6396 120.761 90.4237C123.066 89.5203 125.514 89.0368 127.988 88.9961C130.167 88.9398 132.341 89.2334 134.427 89.8659C136.31 90.4657 137.93 91.1735 139.395 91.6653C140.634 92.1403 141.921 92.4782 143.233 92.673C144.062 92.7928 144.904 92.811 145.738 92.727C146.306 92.6611 146.622 92.5891 146.61 92.6011C146.539 92.6294 146.465 92.6515 146.389 92.6671C146.178 92.718 145.965 92.758 145.75 92.787C144.91 92.8983 144.06 92.8983 143.221 92.787C141.894 92.6125 140.59 92.2885 139.335 91.8213C137.858 91.3174 136.232 90.6216 134.361 90.0218C129.944 88.7262 125.224 88.9371 120.94 90.6216C120.342 90.8616 119.744 91.1255 119.147 91.4254C118.848 91.5754 118.549 91.7193 118.447 91.9593C118.388 92.26 118.421 92.5718 118.543 92.853C118.905 94.1646 119.276 95.5042 119.655 96.8718C120.402 99.595 121.179 102.42 121.98 105.311C122.518 107.279 123.048 109.208 123.57 111.1C123.669 111.564 123.836 112.011 124.067 112.425C124.182 112.613 124.335 112.775 124.516 112.9C124.697 113.025 124.903 113.111 125.119 113.151C126.01 113.313 126.912 112.971 127.827 112.749C131.414 111.795 134.768 110.626 137.488 108.886C138.792 108.073 139.986 107.093 141.039 105.971C141.972 104.947 142.775 103.811 143.43 102.588C143.985 101.507 144.672 100.5 145.475 99.589C146.167 98.8167 147.068 98.2642 148.069 97.9995L148.009 98.0955C147.561 96.338 147.208 94.9704 146.969 94.0287L146.7 92.961C146.61 92.769 146.587 92.6311 146.587 92.6311Z" fill="#263238"/>
<path d="M183.753 98.8213C183.818 99.0329 183.848 99.2537 183.843 99.4751C183.833 99.7551 183.718 100.021 183.52 100.219C183.251 100.472 182.939 100.675 182.599 100.819C180.465 101.905 178.116 102.499 175.724 102.558C172.669 102.708 168.981 102.012 165.125 100.483C164.16 100.083 163.182 99.661 162.19 99.2171C161.191 98.7613 160.193 98.2454 159.153 97.7836C158.102 97.2945 156.993 96.9437 155.853 96.7399C154.675 96.5212 153.46 96.6184 152.332 97.0218L152.128 97.0998V96.8838C152.128 95.0844 152.086 93.1769 152.062 91.2275V91.1495L152.128 91.1015C154.101 89.626 156.038 87.9165 157.993 86.153C161.197 83.2558 164.354 80.4187 167.821 78.4212C171.288 76.4238 174.995 75.2242 178.468 75.3082H178.564L178.594 75.3921C180.385 80.9107 181.758 86.5571 182.701 92.2832C183.066 94.3526 183.329 95.9781 183.508 97.0818C183.592 97.6276 183.657 98.0475 183.699 98.3534C183.699 98.4854 183.735 98.5933 183.747 98.6773C183.752 98.7151 183.752 98.7535 183.747 98.7913C183.747 98.7913 183.747 98.7553 183.717 98.6833L183.651 98.3594C183.596 98.0595 183.518 97.6396 183.418 97.0998C183.215 95.9721 182.916 94.3586 182.539 92.3012C181.55 86.5972 180.151 80.9723 178.355 75.4701L178.474 75.5601C175.055 75.4881 171.384 76.6578 167.983 78.6612C164.581 80.6646 161.406 83.4598 158.214 86.3689C156.253 88.1324 154.31 89.8479 152.32 91.3295L152.385 91.2035C152.385 93.1529 152.421 95.0604 152.439 96.8598L152.236 96.7219C153.414 96.3071 154.679 96.2079 155.906 96.434C157.072 96.6434 158.206 97.0043 159.278 97.5077C160.33 97.9755 161.323 98.4974 162.315 98.9532C163.308 99.4091 164.27 99.841 165.233 100.225C168.548 101.653 172.122 102.376 175.73 102.348C178.102 102.308 180.436 101.749 182.569 100.711C182.905 100.565 183.212 100.362 183.478 100.111C183.667 99.929 183.782 99.6832 183.801 99.4211C183.795 99.2205 183.779 99.0203 183.753 98.8213Z" fill="#263238"/>
<path opacity="0.9" d="M148.858 99.2828C148.858 99.2828 147.429 99.5167 146.287 103.536C145.145 107.554 142.838 126.203 142.838 126.203L160.611 130.971L152.959 99.8466L148.858 99.2828Z" fill="#FAFAFA"/>
<path opacity="0.9" d="M154.21 99.2293L164.666 119.395L173.884 107.531C173.884 107.531 162.191 97.2079 154.754 97.3938L154.21 99.2293Z" fill="#FAFAFA"/>
<path d="M148.857 99.2829C148.945 99.2749 149.033 99.2749 149.12 99.2829L149.904 99.3729L152.976 99.7628H153.024V99.8108C154.453 105.437 157.34 117.068 160.748 130.912L160.808 131.164L160.557 131.098L155.601 129.766L142.795 126.341H142.67V126.215C143.71 118.099 144.685 111.147 145.599 106.259C145.856 104.326 146.451 102.454 147.357 100.728C147.612 100.269 147.951 99.8625 148.355 99.5288C148.464 99.4481 148.582 99.3816 148.708 99.3309C148.792 99.3009 148.839 99.2949 148.839 99.3009L148.714 99.3549C148.598 99.4138 148.49 99.4863 148.391 99.5708C148.005 99.9105 147.683 100.317 147.441 100.77C146.579 102.504 146.019 104.372 145.785 106.295C144.924 111.183 143.991 118.135 142.969 126.251L142.861 126.089L155.679 129.52L160.634 130.852L160.449 131.038C157.054 117.194 154.232 105.545 152.893 99.8947L152.946 99.9427L149.892 99.4928L149.108 99.3669L148.857 99.2829Z" fill="#263238"/>
<path d="M154.21 99.229C154.21 99.229 154.21 99.193 154.21 99.115L154.3 98.7611L154.694 97.3815V97.3455H154.754C156.547 97.2436 159.537 97.9874 162.872 99.7448C166.85 101.884 170.579 104.459 173.992 107.423L174.099 107.519L174.01 107.633L169.783 113.067L164.785 119.491L164.636 119.677L164.528 119.467L157.08 104.969L154.945 100.771L154.383 99.6429C154.312 99.5174 154.254 99.3847 154.21 99.247C154.21 99.247 154.294 99.3789 154.437 99.6369L155.035 100.753C155.561 101.754 156.314 103.152 157.253 104.951C159.136 108.55 161.754 113.559 164.785 119.347H164.534L169.55 112.893L173.783 107.465V107.669C170.392 104.715 166.696 102.133 162.759 99.9668C159.429 98.1973 156.524 97.4175 154.754 97.4715L154.802 97.4355L154.359 98.7851C154.312 98.9231 154.276 99.043 154.24 99.133C154.232 99.1657 154.222 99.1978 154.21 99.229Z" fill="#263238"/>
<path d="M146.844 96.8296C146.844 96.8716 146.037 97.0336 144.734 97.3395C143.431 97.6454 141.643 98.1132 139.706 98.755C137.769 99.3968 136.066 100.111 134.846 100.668C134.202 100.996 133.542 101.291 132.867 101.55C133.013 101.42 133.176 101.311 133.351 101.226C133.674 101.028 134.153 100.77 134.75 100.465C136.322 99.6851 137.946 99.0157 139.611 98.4611C141.271 97.9012 142.966 97.4543 144.686 97.1235C145.35 96.9976 145.882 96.9076 146.258 96.8656C146.45 96.8219 146.648 96.8098 146.844 96.8296Z" fill="#263238"/>
<path d="M146.206 94.8984C145.536 94.9573 144.863 94.9793 144.191 94.9645C142.575 94.9978 140.962 95.124 139.361 95.3425C137.49 95.6066 135.81 95.9727 134.578 96.2487C133.93 96.4236 133.271 96.5579 132.605 96.6508C132.763 96.5615 132.932 96.4949 133.108 96.4528C133.442 96.3388 133.927 96.1947 134.524 96.0327C136.096 95.5993 137.693 95.2666 139.307 95.0365C140.921 94.81 142.55 94.7117 144.179 94.7424C144.777 94.7424 145.309 94.7844 145.656 94.8144C145.842 94.8146 146.028 94.8429 146.206 94.8984Z" fill="#263238"/>
<path d="M171.223 88.2403C171.223 88.2943 170.272 88.2883 168.736 88.4203C166.743 88.5865 164.772 88.9563 162.853 89.524C160.939 90.1073 159.093 90.8956 157.347 91.8753C156.014 92.6371 155.237 93.1949 155.201 93.1469C155.359 92.9855 155.534 92.8408 155.721 92.715C156.207 92.3432 156.714 92.0007 157.24 91.6893C158.969 90.6352 160.825 89.8067 162.764 89.224C164.709 88.6458 166.716 88.3015 168.742 88.1984C169.513 88.1624 170.141 88.1564 170.571 88.1984C170.789 88.1884 171.008 88.2025 171.223 88.2403Z" fill="#263238"/>
<path d="M170.297 93.627C170.123 93.7164 169.938 93.783 169.747 93.825C169.394 93.939 168.874 94.0771 168.222 94.2271C166.527 94.6183 164.804 94.881 163.069 95.0133C161.334 95.1466 159.591 95.1466 157.856 95.0133C157.192 94.9532 156.66 94.8932 156.284 94.8332C156.09 94.8193 155.9 94.781 155.716 94.7192C156.434 94.7065 157.152 94.7306 157.868 94.7912C159.594 94.8612 161.323 94.8311 163.045 94.7012C164.766 94.5635 166.478 94.3331 168.174 94.011C168.875 93.8466 169.583 93.7184 170.297 93.627Z" fill="#263238"/>
<path d="M155.948 95.4983C155.726 94.4177 155.334 93.3792 154.788 92.4212C154.34 91.5755 154.191 90.7357 152.995 90.2859C152.46 90.1347 151.898 90.1102 151.352 90.2143C150.807 90.3184 150.292 90.5482 149.85 90.8857C149.073 90.1599 147.782 90.5738 146.945 91.2276C146.537 91.5755 146.217 92.0146 146.009 92.5094C145.802 93.0043 145.713 93.5411 145.749 94.0768C145.842 95.1423 146.186 96.1705 146.754 97.0759C147.488 98.4612 148.621 99.5921 150.006 100.321C150.635 100.623 151.33 100.76 152.026 100.72C152.722 100.68 153.397 100.465 153.987 100.093C154.744 99.6206 155.337 98.9266 155.688 98.105C156.038 97.2833 156.129 96.3735 155.948 95.4983Z" fill="#E5F0E8"/>
<path d="M155.95 95.4984C155.993 95.6059 156.021 95.7189 156.033 95.8343C156.079 96.156 156.093 96.4815 156.075 96.806C156.012 97.8433 155.579 98.8234 154.856 99.5676C154.133 100.312 153.168 100.771 152.136 100.861C151.163 100.932 150.194 100.679 149.38 100.141C148.487 99.5631 147.722 98.8078 147.132 97.9216C146.461 96.9979 145.98 95.95 145.715 94.8385C145.559 94.205 145.567 93.5421 145.737 92.9124C145.908 92.2827 146.236 91.7069 146.689 91.2396C147.145 90.8334 147.693 90.5451 148.286 90.3998C148.573 90.3159 148.877 90.3054 149.169 90.3693C149.461 90.4332 149.733 90.5695 149.959 90.7657H149.762C150.31 90.308 150.993 90.0426 151.705 90.01C152.342 89.922 152.99 90.0554 153.54 90.3878C154.009 90.7076 154.368 91.1641 154.569 91.6955C154.766 92.1573 154.987 92.5532 155.167 92.9431C155.453 93.5319 155.677 94.149 155.836 94.7846C155.881 94.9521 155.915 95.1224 155.938 95.2944C155.938 95.4084 155.938 95.4684 155.938 95.4684C155.938 95.4684 155.872 95.2344 155.74 94.8086C155.547 94.1886 155.301 93.5866 155.005 93.0091C154.82 92.6432 154.581 92.2293 154.371 91.7734C154.182 91.2836 153.845 90.8646 153.409 90.5738C152.897 90.2796 152.301 90.1675 151.717 90.2559C151.061 90.2898 150.432 90.5336 149.924 90.9517L149.828 91.0477L149.732 90.9577C149.538 90.7963 149.307 90.6855 149.06 90.6353C148.813 90.5851 148.557 90.5969 148.315 90.6698C147.776 90.8055 147.277 91.0711 146.863 91.4435C146.452 91.8741 146.157 92.4015 146.003 92.9771C145.849 93.5527 145.843 94.1578 145.984 94.7366C146.24 95.8063 146.703 96.8151 147.347 97.7057C147.912 98.5585 148.642 99.2888 149.493 99.8531C150.255 100.368 151.165 100.616 152.082 100.561C152.879 100.504 153.643 100.211 154.276 99.7211C154.739 99.3675 155.123 98.9218 155.406 98.4119C155.689 97.902 155.864 97.3389 155.92 96.758C155.957 96.3392 155.967 95.9184 155.95 95.4984Z" fill="#263238"/>
<path d="M149.079 99.7748C149.037 99.7388 149.378 99.3249 149.778 98.5751C150.305 97.6068 150.629 96.541 150.732 95.4428C150.835 94.3445 150.714 93.2368 150.376 92.187C150.119 91.3772 149.856 90.9154 149.904 90.8854C150.211 91.2453 150.442 91.6634 150.585 92.115C150.995 93.1821 151.154 94.3293 151.051 95.468C150.949 96.6087 150.583 97.7095 149.981 98.6831C149.755 99.1029 149.448 99.4739 149.079 99.7748Z" fill="#263238"/>
<path d="M155.202 93.1469C155.242 93.5818 155.206 94.0203 155.095 94.4426C154.896 95.4739 154.524 96.4638 153.995 97.3697C153.468 98.2849 152.782 99.0977 151.968 99.769C151.649 100.065 151.278 100.299 150.874 100.459C151.991 99.5435 152.954 98.4539 153.726 97.2318C154.945 95.1384 155.095 93.099 155.202 93.1469Z" fill="#263238"/>
<path d="M141.301 93.6986C141.014 93.6604 140.73 93.5982 140.452 93.5127L138.157 92.9129C135.647 92.2075 133.089 91.6843 130.505 91.3473C127.918 91.0144 125.296 91.0913 122.733 91.5753C121.96 91.729 121.198 91.9293 120.449 92.1751C120.176 92.2796 119.897 92.3658 119.612 92.433C119.862 92.2791 120.129 92.1543 120.407 92.0611C121.148 91.7674 121.909 91.5307 122.685 91.3533C125.26 90.7998 127.911 90.6903 130.523 91.0294C133.123 91.368 135.69 91.9238 138.199 92.6909C139.161 92.9729 139.932 93.2188 140.464 93.3927C140.752 93.4698 141.032 93.5722 141.301 93.6986Z" fill="white"/>
<path d="M138.301 96.4876C137.529 96.6802 136.743 96.8106 135.951 96.8777C135.174 97.0487 134.384 97.1551 133.59 97.1958C135.086 96.6023 136.697 96.3601 138.301 96.4876Z" fill="white"/>
<path d="M137.146 100.351C137.182 100.429 136.787 100.681 136.267 100.915C135.747 101.149 135.299 101.269 135.263 101.191C135.227 101.113 135.622 100.861 136.142 100.627C136.662 100.393 137.11 100.297 137.146 100.351Z" fill="white"/>
<path d="M147.25 95.9118C147.22 95.9118 147.029 95.6898 146.85 95.234C146.623 94.6276 146.539 93.9768 146.605 93.3325C146.665 92.6948 146.869 92.0793 147.202 91.5331C147.471 91.1192 147.705 90.9332 147.735 90.9332C147.317 91.6869 147.037 92.5097 146.91 93.3625C146.876 94.2256 146.992 95.088 147.25 95.9118Z" fill="white"/>
<path d="M151.394 96.7875C151.376 96.3306 151.398 95.873 151.46 95.4199C151.417 94.9651 151.417 94.5072 151.46 94.0523C151.662 94.4827 151.76 94.9552 151.744 95.4308C151.728 95.9064 151.6 96.3714 151.37 96.7875H151.394Z" fill="white"/>
<path d="M163.949 83.0278C162.596 84.2681 161.178 85.4335 159.699 86.5188C158.281 87.6797 156.8 88.7611 155.263 89.7579C156.613 88.5155 158.033 87.35 159.513 86.2669C160.931 85.1059 162.412 84.0246 163.949 83.0278Z" fill="white"/>
<path d="M160.792 91.0832C159.979 91.7113 159.047 92.1667 158.054 92.4215C158.431 92.0676 158.873 91.7923 159.357 91.6113C159.794 91.3382 160.282 91.1585 160.792 91.0832Z" fill="white"/>
<path d="M147.095 107.177C146.933 106.022 146.994 104.847 147.275 103.716C147.458 102.562 147.864 101.456 148.47 100.459C148.554 100.495 147.968 101.922 147.598 103.776C147.227 105.629 147.185 107.177 147.095 107.177Z" fill="white"/>
<path d="M159.536 106.019C158.582 104.468 157.81 102.811 157.234 101.083C157.755 101.83 158.188 102.635 158.526 103.482C158.956 104.287 159.295 105.138 159.536 106.019Z" fill="white"/>
<path d="M101.852 73.8577C101.852 73.9477 98.1691 73.5876 93.6555 73.0655C89.142 72.5434 85.4833 72.0453 85.4893 71.9612C85.4952 71.8772 89.1718 72.2313 93.6914 72.7534C98.2109 73.2755 101.864 73.7736 101.852 73.8577Z" fill="white"/>
<path d="M194.647 98.8149V96.7515C194.573 96.0821 194.238 95.4693 193.714 95.0476C193.191 94.626 192.522 94.4298 191.855 94.5022L187.802 94.904L185.5 96.3496C185.481 96.5183 185.497 96.6893 185.548 96.8512C185.6 97.013 185.685 97.1621 185.798 97.2886C185.911 97.415 186.049 97.516 186.204 97.5847C186.359 97.6534 186.527 97.6884 186.696 97.6872L183.611 98.8569C183.546 99.0394 183.529 99.2353 183.56 99.4265C183.591 99.6176 183.67 99.7977 183.79 99.9499C183.909 100.102 184.065 100.221 184.243 100.297C184.421 100.372 184.615 100.401 184.807 100.38L183.527 101.07C183.484 101.316 183.501 101.569 183.576 101.807C183.65 102.045 183.781 102.262 183.957 102.438C184.133 102.615 184.349 102.746 184.587 102.821C184.824 102.896 185.076 102.913 185.321 102.87C185.321 102.87 184.388 103.799 186.516 104.291C187.426 104.541 188.357 104.705 189.296 104.783L190.546 106.457L190.426 107.962C190.426 107.962 192.441 108.196 192.818 107.398C193.08 106.626 193.211 105.815 193.206 104.999C193.618 104.951 193.996 104.745 194.261 104.424C194.526 104.104 194.658 103.693 194.629 103.278C195.026 102.888 195.283 102.378 195.359 101.826C195.434 101.274 195.325 100.713 195.047 100.23C194.885 99.7675 194.751 99.2947 194.647 98.8149Z" fill="#FFA8A7"/>
<path d="M192.966 104.609C192.918 104.609 192.697 104.184 192.231 103.548C191.965 103.177 191.635 102.858 191.256 102.606C190.804 102.299 190.272 102.132 189.726 102.126C189.128 102.126 188.53 102.252 188.028 102.294C187.567 102.339 187.109 102.415 186.659 102.522C186.246 102.648 185.824 102.744 185.397 102.81C185.767 102.581 186.171 102.411 186.593 102.306C187.048 102.167 187.514 102.067 187.986 102.006C188.512 101.952 189.074 101.832 189.714 101.814C190.32 101.822 190.911 102.014 191.406 102.366C191.803 102.65 192.142 103.009 192.404 103.422C192.665 103.778 192.856 104.181 192.966 104.609Z" fill="#F28F8F"/>
<path d="M194.282 102.294C193.895 101.889 193.546 101.447 193.242 100.975C192.915 100.478 192.541 100.014 192.124 99.5892C191.877 99.3711 191.571 99.2295 191.245 99.1813C190.879 99.1489 190.51 99.1752 190.151 99.2593C188.633 99.6372 187.246 99.9911 186.242 100.219C185.704 100.373 185.154 100.477 184.598 100.531C185.11 100.304 185.642 100.127 186.188 100.003C187.18 99.7212 188.579 99.3313 190.092 98.9534C190.483 98.8607 190.888 98.8364 191.287 98.8814C191.672 98.9379 192.03 99.1093 192.316 99.3733C192.743 99.8204 193.114 100.318 193.421 100.855C193.748 101.31 194.036 101.791 194.282 102.294Z" fill="#F28F8F"/>
<path d="M194.109 98.4323C194.109 98.4743 193.637 98.2342 193.093 97.6581C192.796 97.3293 192.448 97.0497 192.064 96.8299C191.57 96.6287 191.023 96.5991 190.51 96.7459C189.138 97.1716 187.74 97.5104 186.325 97.7601C186.704 97.5601 187.105 97.4069 187.521 97.304C188.268 97.07 189.314 96.7039 190.462 96.4338C191.041 96.2812 191.654 96.3299 192.202 96.5719C192.612 96.8142 192.973 97.1318 193.266 97.5081C193.75 98.1142 194.127 98.3963 194.109 98.4323Z" fill="#F28F8F"/>
<path d="M94.1886 61.8179L96.9386 62.8016C96.9386 62.8016 98.7739 68.9438 99.7543 69.0637C100.735 69.1837 101.96 70.4193 102.941 69.3097C102.941 69.3097 104.346 70.4193 105.141 69.1897C105.141 69.1897 108.082 69.7415 108.387 68.8838L108.692 68.02C108.692 68.02 113.474 74.0183 114.449 74.0183C115.423 74.0183 115.644 73.4604 115.304 72.7286C114.963 71.9969 110.222 64.2531 109.122 62.9635C108.022 61.6739 103.06 55.6157 98.5587 55.6157C98.5587 55.6157 95.3125 57.0912 94.5174 59.3646C93.7223 61.6379 94.1886 61.8179 94.1886 61.8179Z" fill="#FFA8A7"/>
<path d="M99.3647 55.4296C98.7798 55.6347 98.2069 55.873 97.649 56.1434C96.3278 56.8432 95.2835 57.9736 94.688 59.3484C94.0926 60.7232 93.9814 62.2605 94.3729 63.7071C94.5555 64.3006 94.771 64.8834 95.0186 65.4526C95.0186 65.4526 94.887 65.3267 94.7137 65.0447C94.4816 64.6417 94.297 64.213 94.1637 63.7671C93.7022 62.2735 93.7926 60.663 94.4185 59.2308C95.0443 57.7986 96.1636 56.6408 97.5713 55.9694C97.9876 55.7633 98.4272 55.6082 98.8805 55.5075C99.0368 55.456 99.2002 55.4297 99.3647 55.4296Z" fill="#263238"/>
<path d="M107.687 66.2745C107.93 66.4958 108.144 66.7455 108.327 67.0183C108.698 67.4921 109.206 68.1579 109.756 68.8897L111.155 70.7852C111.367 71.0339 111.552 71.3055 111.705 71.5949C111.621 71.6729 110.605 70.5572 109.505 69.0817C108.405 67.6061 107.598 66.3345 107.687 66.2745Z" fill="#F28F8F"/>
<path d="M104.536 68.3619C104.608 68.3079 104.811 68.4579 104.991 68.698C105.17 68.938 105.266 69.1781 105.2 69.2261C105.134 69.2741 104.925 69.1301 104.746 68.89C104.566 68.65 104.471 68.4099 104.536 68.3619Z" fill="#F28F8F"/>
<path d="M102.312 68.866C102.396 68.866 102.503 68.938 102.593 69.07C102.683 69.202 102.742 69.3401 102.689 69.4061C102.635 69.4721 102.456 69.4061 102.336 69.244C102.216 69.082 102.234 68.89 102.312 68.866Z" fill="#F28F8F"/>
<path d="M109.272 64.2537C109.308 64.2537 109.374 64.3437 109.374 64.5297C109.368 64.653 109.337 64.7737 109.283 64.8843C109.228 64.9948 109.151 65.0928 109.057 65.1719C108.964 65.2509 108.855 65.3094 108.737 65.3435C108.62 65.3776 108.497 65.3866 108.376 65.3699C108.19 65.3399 108.101 65.2559 108.118 65.2199C108.136 65.1839 108.537 65.2199 108.86 64.9318C109.183 64.6437 109.189 64.2597 109.272 64.2537Z" fill="#F28F8F"/>
<path d="M106.245 66.5924C106.287 66.5924 106.293 66.7244 106.215 66.8924C106.103 67.1047 105.927 67.2765 105.713 67.384C105.499 67.4916 105.257 67.5295 105.02 67.4926C104.84 67.4506 104.751 67.3725 104.763 67.3305C104.775 67.2885 105.181 67.3305 105.582 67.1145C105.982 66.8984 106.162 66.5684 106.245 66.5924Z" fill="#F28F8F"/>
<path d="M145 32V41L150 39.3778L145 32Z" fill="#F28F8F"/>
<path d="M146.444 33.1706C146.444 33.2186 145.948 33.0266 145.332 33.0086C144.716 32.9906 144.226 33.1466 144.208 33.0926C144.54 32.8701 144.941 32.7743 145.338 32.8225C145.736 32.801 146.129 32.9246 146.444 33.1706Z" fill="#455A64"/>
<path d="M179.865 51.2789L192.784 48.1118H192.688C196.033 50.2393 199.896 51.4015 203.856 51.4708C206.201 51.4814 208.534 51.1397 210.778 50.4571C213.223 49.6733 215.508 48.4542 217.522 46.8582C222.043 43.3068 224.978 38.1022 225.682 32.3844C226.147 28.4252 225.526 24.4138 223.886 20.7828C222.246 17.1518 219.648 14.0391 216.374 11.7805C215.675 11.3426 214.987 10.8927 214.264 10.5148L213.164 9.98099L212.62 9.71707L212.022 9.50713C209.061 8.36257 205.887 7.87752 202.72 8.08555C198.477 8.35733 194.409 9.88388 191.03 12.4726C187.651 15.0613 185.112 18.5962 183.733 22.6313C182.966 24.8901 182.563 27.2571 182.537 29.6432C182.519 33.6074 183.592 37.4997 185.64 40.8899V40.77C182.053 47.2841 180.224 50.5771 179.823 51.3029L185.843 40.8599L185.879 40.806L185.843 40.746C183.853 37.3807 182.819 33.5325 182.854 29.6192C182.886 27.2709 183.289 24.9425 184.05 22.7213C184.892 20.28 186.175 18.015 187.834 16.0392C190.699 12.6295 194.555 10.2034 198.861 9.09994C203.168 7.99652 207.711 8.27101 211.855 9.88502L212.417 10.089L212.955 10.3469L214.031 10.8687C214.736 11.2406 215.412 11.6845 216.099 12.1104C217.438 13.04 218.669 14.1163 219.77 15.3194C221.752 17.4828 223.267 20.0339 224.219 22.8127C225.172 25.5914 225.542 28.5378 225.305 31.4667C225.069 34.3957 224.232 37.244 222.846 39.8328C221.46 42.4216 219.556 44.695 217.253 46.5103C215.275 48.0799 213.034 49.2824 210.635 50.0612C208.442 50.7463 206.159 51.1 203.862 51.1109C199.954 51.066 196.134 49.9434 192.82 47.8659H192.772H192.724L179.865 51.2789Z" fill="#263238"/>
<path d="M205.977 20.0938L205.296 30.9386C205.26 31.3645 205.074 31.7638 204.772 32.065C204.47 32.3661 204.07 32.5494 203.646 32.5821C203.196 32.6079 202.755 32.46 202.411 32.1687C202.067 31.8775 201.848 31.4652 201.798 31.0166L200.603 20.1178C200.58 19.9237 200.6 19.7272 200.659 19.5412C200.719 19.3553 200.817 19.1842 200.948 19.0395C201.079 18.8947 201.239 18.7796 201.417 18.7018C201.596 18.624 201.789 18.5853 201.984 18.5882L204.62 18.6242C204.807 18.6263 204.991 18.6665 205.162 18.7425C205.333 18.8185 205.487 18.9286 205.614 19.0661C205.741 19.2036 205.838 19.3657 205.901 19.5424C205.963 19.7191 205.989 19.9067 205.977 20.0938Z" fill="url(#paint3_linear_473_7305)"/>
<path d="M200.79 38.6825C200.955 39.1787 201.262 39.6148 201.674 39.9357C202.085 40.2565 202.582 40.4479 203.102 40.4854C203.622 40.523 204.141 40.4051 204.594 40.1466C205.047 39.8882 205.414 39.5008 205.648 39.0334C205.882 38.566 205.972 38.0395 205.908 37.5206C205.843 37.0017 205.627 36.5135 205.286 36.1177C204.946 35.722 204.496 35.4365 203.993 35.2973C203.491 35.158 202.959 35.1713 202.464 35.3355C201.801 35.5587 201.253 36.0358 200.939 36.6629C200.626 37.2899 200.572 38.0159 200.79 38.6825Z" fill="url(#paint4_linear_473_7305)"/>
<defs>
<linearGradient id="paint0_linear_473_7305" x1="150.333" y1="267.561" x2="130.309" y2="260.212" gradientUnits="userSpaceOnUse">
<stop offset="0.431134" stop-color="#008954"/>
<stop offset="0.809708" stop-color="#09B975"/>
</linearGradient>
<linearGradient id="paint1_linear_473_7305" x1="105.409" y1="253.582" x2="92.3981" y2="234.679" gradientUnits="userSpaceOnUse">
<stop offset="0.431134" stop-color="#008954"/>
<stop offset="0.809708" stop-color="#09B975"/>
</linearGradient>
<linearGradient id="paint2_linear_473_7305" x1="187.038" y1="149.93" x2="82.3552" y2="55.3144" gradientUnits="userSpaceOnUse">
<stop offset="0.431134" stop-color="#008954"/>
<stop offset="0.809708" stop-color="#09B975"/>
</linearGradient>
<linearGradient id="paint3_linear_473_7305" x1="205.98" y1="32.585" x2="198.25" y2="31.1422" gradientUnits="userSpaceOnUse">
<stop offset="0.431134" stop-color="#008954"/>
<stop offset="0.809708" stop-color="#09B975"/>
</linearGradient>
<linearGradient id="paint4_linear_473_7305" x1="205.928" y1="40.4922" x2="199.583" y2="37.4268" gradientUnits="userSpaceOnUse">
<stop offset="0.431134" stop-color="#008954"/>
<stop offset="0.809708" stop-color="#09B975"/>
</linearGradient>
</defs>
</svg>
