<svg width="319" height="298" viewBox="0 0 319 298" fill="none" xmlns="http://www.w3.org/2000/svg">
<path d="M72.838 211.089H18.0923V283.3H72.838V211.089Z" fill="#E0E0E0"/>
<path d="M72.8378 211.089H47.1699V283.3H72.8378V211.089Z" fill="#F0F0F0"/>
<path d="M34.4894 220.868H29.5679V232.824H34.4894V220.868Z" fill="#F5F5F5"/>
<path d="M34.4894 267.669H29.5679V279.625H34.4894V267.669Z" fill="#F5F5F5"/>
<path d="M47.1701 237.517C47.1701 237.624 40.6582 237.703 32.6348 237.703C24.6113 237.703 18.0923 237.624 18.0923 237.517C18.0923 237.409 24.597 237.33 32.6348 237.33C40.6726 237.33 47.1701 237.416 47.1701 237.517Z" fill="white"/>
<path d="M34.4894 244.444H29.5679V256.4H34.4894V244.444Z" fill="#F5F5F5"/>
<path d="M47.1701 261.1C47.1701 261.2 40.6582 261.286 32.6348 261.286C24.6113 261.286 18.0923 261.2 18.0923 261.1C18.0923 260.999 24.597 260.913 32.6348 260.913C40.6726 260.913 47.1701 260.999 47.1701 261.1Z" fill="white"/>
<path d="M57.5426 220.868H52.6211V232.824H57.5426V220.868Z" fill="#E0E0E0"/>
<path d="M68.2174 220.868H63.2959V232.824H68.2174V220.868Z" fill="#E0E0E0"/>
<path d="M57.5426 243.563H52.6211V255.519H57.5426V243.563Z" fill="#E0E0E0"/>
<path d="M68.2174 243.563H63.2959V255.519H68.2174V243.563Z" fill="#E0E0E0"/>
<path d="M57.5426 266.251H52.6211V278.207H57.5426V266.251Z" fill="#E0E0E0"/>
<path d="M68.2174 266.251H63.2959V278.207H68.2174V266.251Z" fill="#E0E0E0"/>
<path d="M76.9564 208.575H13.9795V211.175H76.9564V208.575Z" fill="#E0E0E0"/>
<path d="M73.2173 211.426C73.2173 211.526 60.9816 211.612 45.8946 211.612C30.8077 211.612 18.6006 211.526 18.6006 211.426C18.6006 211.326 30.8363 211.24 45.9304 211.24C61.0246 211.24 73.2173 211.326 73.2173 211.426Z" fill="white"/>
<path d="M284.972 230.933H245.593V282.871H284.972V230.933Z" fill="#E0E0E0"/>
<path d="M284.965 230.933H266.504V282.871H284.965V230.933Z" fill="#F0F0F0"/>
<path d="M257.384 237.961H253.845V246.564H257.384V237.961Z" fill="#F5F5F5"/>
<path d="M257.384 271.63H253.845V280.234H257.384V271.63Z" fill="#F5F5F5"/>
<path d="M266.504 249.939C266.504 250.017 261.826 250.075 256.052 250.075C250.278 250.075 245.593 250.017 245.593 249.939C245.593 249.86 250.271 249.81 256.052 249.81C261.833 249.81 266.504 249.867 266.504 249.939Z" fill="white"/>
<path d="M257.384 254.925H253.845V263.528H257.384V254.925Z" fill="#F5F5F5"/>
<path d="M266.504 266.902C266.504 266.974 261.826 267.039 256.052 267.039C250.278 267.039 245.593 266.974 245.593 266.902C245.593 266.831 250.271 266.766 256.052 266.766C261.833 266.766 266.504 266.824 266.504 266.902Z" fill="white"/>
<path d="M273.961 237.961H270.422V246.564H273.961V237.961Z" fill="#E0E0E0"/>
<path d="M281.648 237.961H278.109V246.564H281.648V237.961Z" fill="#E0E0E0"/>
<path d="M273.961 254.287H270.422V262.891H273.961V254.287Z" fill="#E0E0E0"/>
<path d="M281.648 254.287H278.109V262.891H281.648V254.287Z" fill="#E0E0E0"/>
<path d="M273.961 270.606H270.422V279.21H273.961V270.606Z" fill="#E0E0E0"/>
<path d="M281.648 270.606H278.109V279.21H281.648V270.606Z" fill="#E0E0E0"/>
<path d="M287.93 229.121H242.634V230.99H287.93V229.121Z" fill="#E0E0E0"/>
<path d="M285.244 231.169C285.244 231.248 276.439 231.306 265.586 231.306C254.733 231.306 245.929 231.248 245.929 231.169C245.929 231.091 254.726 231.04 265.586 231.04C276.446 231.04 285.244 231.098 285.244 231.169Z" fill="white"/>
<path d="M9.15869 89.3191H49.4837C49.4837 89.3191 49.4837 80.085 44.7269 80.085C43.0199 80.0291 41.347 80.5712 39.9971 81.6176C38.6473 82.664 37.7053 84.149 37.3339 85.816C37.3339 85.816 37.3339 68.5871 28.6657 71.1159C20.456 73.5086 19.5319 84.5409 19.5319 84.5409C19.5319 84.5409 18.0561 78.9889 13.6074 82.1195C9.15869 85.2501 9.15869 89.3191 9.15869 89.3191Z" fill="#E0E0E0"/>
<path d="M222.174 12.33H248.322C248.322 12.33 248.322 6.3411 245.234 6.3411C244.128 6.30443 243.044 6.65513 242.169 7.33264C241.294 8.01015 240.683 8.97195 240.441 10.0519C240.441 10.0519 240.441 -1.11641 234.818 0.524098C229.502 2.07148 228.901 9.22094 228.901 9.22094C228.901 9.22094 227.941 5.63904 225.061 7.65207C222.181 9.66509 222.174 12.33 222.174 12.33Z" fill="#EBEBEB"/>
<path d="M275.236 127.789H301.384C301.384 127.789 301.384 121.807 298.296 121.807C297.19 121.77 296.106 122.121 295.231 122.799C294.356 123.476 293.745 124.438 293.504 125.518C293.504 125.518 293.504 114.35 287.88 115.983C282.564 117.537 281.963 124.687 281.963 124.687C281.963 124.687 281.003 121.105 278.123 123.118C275.243 125.131 275.236 127.789 275.236 127.789Z" fill="#E0E0E0"/>
<path d="M304.242 283.301C304.242 283.401 237.618 283.487 155.435 283.487C73.2523 283.487 6.61475 283.401 6.61475 283.301C6.61475 283.2 73.238 283.114 155.435 283.114C237.633 283.114 304.242 283.193 304.242 283.301Z" fill="#263238"/>
<path d="M254.647 18.4766H152.67V25.2822H247.841V263.12H152.67V269.926H254.647V18.4766Z" fill="#455A64"/>
<path d="M152.67 25.2821V32.0877V256.314V263.12H247.841V25.2821H152.67Z" fill="white"/>
<path d="M52.2704 263.12V25.2822H152.671V18.4766H45.4648V269.926H152.671V263.12H52.2704Z" fill="#263238"/>
<path d="M52.2705 25.2821V263.12H152.671V256.314V32.0877V25.2821H52.2705Z" fill="#F5F5F5"/>
<path d="M225.262 32.582C227.074 33.1838 228.843 33.85 230.606 34.5449V25.2821H173.403H174.391C189.45 25.8194 208.842 27.0731 225.262 32.582Z" fill="#F5F5F5"/>
<path d="M240.004 25.2821V38.6569C242.604 39.8891 245.205 41.1857 247.841 42.5039V28.5631C245.398 27.4313 242.898 26.328 240.326 25.2821H240.004Z" fill="#F5F5F5"/>
<path d="M81.5992 231.707C86.6467 229.942 91.4927 227.646 96.0557 224.858L65.2514 202.65C60.595 204.85 55.7164 207.135 52.2993 209.564V228.325C59.635 233.734 71.6774 235.102 81.5992 231.707Z" fill="#F5F5F5"/>
<path d="M134.761 175.815C134.016 171.312 133.968 166.721 134.617 162.204L119.609 158.622C112.446 156.91 104.709 159.825 103.011 164.869C98.8487 177.262 87.795 189.398 74.5563 197.822C72.6483 198.996 70.6777 200.065 68.6533 201.024L83.3033 211.584L135.692 179.762C135.305 178.466 134.994 177.148 134.761 175.815Z" fill="#F5F5F5"/>
<path d="M145.93 196.776C141.954 192.816 138.831 188.084 136.753 182.871L86.1694 213.604L99.1359 222.953C104.036 219.836 108.678 216.462 113.578 213.253C123.761 206.652 134.603 201.13 145.93 196.776Z" fill="#F5F5F5"/>
<path d="M197.33 177.212L138.659 163.135C138.121 167.238 138.199 171.398 138.888 175.478C140.297 183.077 144.038 190.048 149.591 195.422C164.84 189.87 180.644 185.981 196.728 183.824C201.75 183.108 202.187 178.322 197.33 177.212Z" fill="#F5F5F5"/>
<path d="M78.2758 154.431L80.4894 141.3L80.7115 140.089C80.3605 139.373 79.9951 138.707 79.6727 138.019C76.4777 138.871 72.9316 138.785 69.5575 139.187C66.1833 139.588 62.5799 140.727 61.448 142.933C60.7317 144.287 61.1257 145.799 61.5125 147.188C62.1 149.366 62.6898 151.542 63.282 153.715C63.7691 155.534 64.2992 157.411 65.8036 158.944C66.712 159.812 67.8059 160.461 69.0023 160.843C70.1988 161.226 71.4665 161.331 72.7095 161.151C73.5729 161.017 74.3997 160.707 75.139 160.242C75.8782 159.776 76.5142 159.164 77.0078 158.443C77.7031 157.208 78.1348 155.842 78.2758 154.431Z" fill="#F5F5F5"/>
<path d="M203.484 127.71L240.327 138.656L247.842 133.405V118.182L223.227 110.875L203.484 127.71Z" fill="#E6E6E6"/>
<path d="M227.532 107.207L247.842 113.239V97.5576L239.94 96.6263L227.532 107.207Z" fill="#E6E6E6"/>
<path d="M240.004 38.6569V25.2821H230.606V82.5924L110.49 59.1167L117.002 25.2821H107.775L101.457 58.0851L52.2702 56.0578V62.3118L100.268 64.3248L88.2897 126.506L55.4652 130.583L52.2702 119.171V139.838C52.5691 145.451 53.4477 151.019 54.8921 156.451C55.5019 159.276 56.6978 161.941 58.4024 164.274C61.7049 168.45 67.9804 171.438 74.829 172.154C72.3955 175.636 69.4151 178.701 66.0032 181.231C62.0344 184.182 57.3278 186.589 52.2702 188.874V196.289L54.8348 195.186L65.2223 202.672L96.0266 224.88L105.34 231.578C96.306 236.592 87.3513 240.576 77.9166 241.65C75.6743 241.901 73.0022 242.037 70.1439 242.18C64.14 242.371 58.1563 242.972 52.2344 243.978V250.426C52.7072 250.318 53.1728 250.218 53.6671 250.125C59.2551 249.135 64.9082 248.558 70.5808 248.398C73.6255 248.241 76.5053 248.097 79.1774 247.797C95.6541 245.92 109.473 237.502 124.08 228.59C139.296 219.278 156.546 208.768 178.876 205.602C202.574 202.235 228.987 208.03 247.813 220.732V212.207C236.65 206.146 224.538 202.028 211.994 200.028C218.807 195.329 223.65 189.283 225.491 182.8C225.598 182.42 225.691 182.04 225.784 181.661C226.096 180.302 226.254 178.913 226.257 177.52C226.257 176.802 226.214 176.084 226.128 175.371L247.842 168.916V162.103L224.287 169.131C222.913 166.362 221.052 163.862 218.793 161.752L247.842 148.141V144.703L216.178 159.532C211.142 155.78 205.379 153.12 199.257 151.723L171.905 145.068L237.096 90.1932L247.842 91.3036V84.9923L240.004 84.1828V38.6569ZM109.287 65.3779L143.193 72.0115L141.345 137.639L97.4021 126.958L109.287 65.3779ZM62.0703 162.927C60.3581 160.778 59.5773 158.185 58.9827 155.942C57.3191 149.687 56.4266 143.252 56.3249 136.779L87.0432 132.968L85.109 142.998C83.2321 152.74 81.1331 161.717 76.5913 169.396C70.5737 169.059 64.9358 166.566 62.0703 162.927ZM68.6538 200.981L58.3666 193.567C63.4267 191.342 68.2447 188.603 72.7443 185.393C87.2367 174.647 91.0263 160.183 94.1784 143.843L96.2057 133.305L139.855 143.922C137.328 149.759 135.568 155.9 134.618 162.189C133.968 166.707 134.016 171.298 134.761 175.801C134.996 177.119 135.307 178.422 135.693 179.705L83.3037 211.541L68.6538 200.981ZM118.22 223.905C114.961 225.897 111.773 227.853 108.542 229.715L99.1357 222.931L86.1693 213.582L136.753 182.85C138.83 188.063 141.953 192.795 145.93 196.755C148.985 199.815 152.438 202.451 156.195 204.592C141.538 209.7 129.367 217.121 118.22 223.927V223.905ZM196.184 157.597C210.397 161.05 219.058 170.764 216.772 180.679C216.701 180.987 216.622 181.295 216.536 181.596C214.595 188.394 208.591 194.663 200.296 198.66C186.818 197.715 173.283 199.272 160.372 203.252C156.416 201.178 152.794 198.521 149.626 195.372C144.078 190.005 140.338 183.045 138.923 175.457C138.234 171.377 138.157 167.216 138.694 163.113C139.575 156.816 141.303 150.666 143.831 144.831L196.184 157.597ZM188.303 121.169L162.593 142.811L145.457 138.642L147.305 72.821L188.296 80.8373L188.303 121.169ZM193.003 117.215V81.7543L227.181 88.4453L193.003 117.215Z" fill="#E0E0E0"/>
<path d="M92.6171 69.3752L63.002 68.4368V100.86H87.366L92.6171 69.3752Z" fill="#EBEBEB"/>
<path d="M86.5058 106.964H58.3091V120.188H86.5058V106.964Z" fill="#EBEBEB"/>
<path d="M160.122 60.9866L224.345 72.334V38.8075H183.619V54.0663H160.122V60.9866Z" fill="#EBEBEB"/>
<path d="M144.461 58.472V30.6693H124.703L121.25 54.052L144.461 58.472Z" fill="#EBEBEB"/>
<path d="M174.22 29.6521H153.853V43.8937H174.22V29.6521Z" fill="#E0E0E0"/>
<path d="M186.878 141.866L220.584 152.432L235.348 142.124L199.178 131.385L186.878 141.866Z" fill="#E6E6E6"/>
<path d="M135.062 76.446H116.265V118.154H135.062V76.446Z" fill="#EBEBEB"/>
<path d="M108.435 116.119H103.735V124.257H108.435V116.119Z" fill="#E0E0E0"/>
<path d="M182.05 85.9738L153.853 80.1138V101.39V104.929H182.05V85.9738Z" fill="#EBEBEB"/>
<path d="M156.99 117.136H150.722V129.343H156.99V117.136Z" fill="#EBEBEB"/>
<path d="M166.39 117.136H160.122V129.343H166.39V117.136Z" fill="#EBEBEB"/>
<path d="M175.788 117.136H169.52V129.343H175.788V117.136Z" fill="#EBEBEB"/>
<path d="M61.4402 25.2821H52.2705V50.5202L61.4402 50.8497V25.2821Z" fill="#E6E6E6"/>
<path d="M94.1857 51.9529L98.5413 25.2821H69.27V51.0646L94.1857 51.9529Z" fill="#E6E6E6"/>
<path d="M247.842 206.347V193.746L242.032 203.653L247.842 206.347Z" fill="#F0F0F0"/>
<path d="M107.274 229.808C122.117 222.645 131.789 208.245 146.195 200.365C149.875 198.232 153.974 196.922 158.209 196.525C161.97 196.267 165.58 196.583 169.262 195.53C174.413 194.097 177.544 190.751 179.807 185.952C182.594 180.034 184.693 172.262 182.021 165.986C179.471 160.056 174.835 155.267 168.99 152.525C165.795 151.021 162.364 150.126 159.097 148.786C156.948 147.912 154.412 146.959 152.65 145.397C151.317 144.201 151.847 143.435 152.7 141.873C153.846 139.932 155.154 138.091 156.611 136.371C159.255 133.061 162.421 129.845 164.362 126.034C165.723 123.369 165.967 120.36 166.01 117.437C166.153 107.881 166.511 98.3456 166.726 88.782C166.726 87.7289 165.158 87.7432 165.093 88.782C164.57 97.2782 164.069 105.846 164.248 114.364C164.312 117.473 164.491 120.89 163.438 123.877C162.048 127.825 158.703 131.12 156.11 134.301C154.024 136.693 152.192 139.296 150.644 142.066C149.992 143.341 149.598 144.215 150.379 145.498C152.119 148.363 156.912 149.796 159.871 150.935C163.603 152.368 167.407 153.371 170.889 155.441C174.162 157.457 176.908 160.225 178.898 163.515C181.892 168.257 182.236 172.742 180.961 178.15C179.313 185.149 176.226 192.155 168.868 194.326C165.286 195.386 161.798 195.107 158.158 195.365C155.058 195.625 152.023 196.397 149.175 197.65C132.842 204.62 122.311 220.696 106.909 229.307C106.551 229.507 106.866 230.023 107.224 229.851L107.274 229.808Z" fill="#263238"/>
<path d="M117.217 186.403C118.342 176.71 105.869 173.651 101.098 180.772C96.7356 187.291 108.678 206.454 108.678 206.454L117.217 186.403ZM110.827 190.135C110.062 190.666 109.156 190.957 108.225 190.973C107.295 190.988 106.38 190.728 105.597 190.223C104.815 189.719 104.199 188.994 103.829 188.14C103.458 187.286 103.349 186.342 103.515 185.426C103.682 184.51 104.116 183.664 104.763 182.994C105.41 182.325 106.242 181.863 107.152 181.666C108.061 181.47 109.009 181.547 109.875 181.889C110.741 182.231 111.486 182.822 112.016 183.588C112.723 184.616 112.993 185.883 112.768 187.11C112.542 188.338 111.839 189.426 110.812 190.135H110.827Z" fill="url(#paint0_linear_234_6269)"/>
<path d="M248.758 105.116C245.413 100.201 243.149 97.7583 238.342 96.0175C236.5 95.357 234.567 94.9872 232.611 94.9215C228.012 96.3542 224.838 96.3542 220.232 94.9215C217.875 95.2152 215.862 93.4887 203.827 100.961C198.862 104.041 195.452 106.075 189.557 109.113C187.945 109.829 186.806 110.295 186.555 110.145C185.466 109.493 173.596 87.772 173.596 87.772C173.596 87.772 170.952 80.2644 169.842 80.3145C168.731 80.3646 160.851 80.601 160.729 81.8332C160.608 83.0654 161.095 88.4884 161.954 89.2262C162.814 89.9641 165.916 91.9413 165.916 91.9413C165.916 91.9413 179.083 125.984 183.947 125.497C187.529 125.145 201.226 119.443 208.347 116.413L209.923 115.847L210.862 135.583L210.482 160.456L241.523 158.694L241.021 133.097C241.258 126.722 241.093 124.666 241.738 119.379L251.051 122.918L252.705 112.415C251.582 109.883 250.263 107.442 248.758 105.116Z" fill="#E5BAAB"/>
<path d="M164.67 74.8701C162.893 70.5718 155.758 71.367 155.156 75.8945C154.318 82.2345 166.561 87.2491 166.561 87.2491V86.8193C166.561 86.8193 166.045 78.2013 164.67 74.8701ZM162.764 78.5093C162.561 78.9833 162.222 79.3864 161.789 79.6675C161.357 79.9486 160.851 80.0953 160.335 80.0888C159.819 80.0823 159.317 79.9231 158.892 79.6312C158.467 79.3393 158.138 78.9279 157.946 78.449C157.755 77.97 157.71 77.4451 157.817 76.9406C157.924 76.436 158.178 75.9746 158.547 75.6145C158.917 75.2544 159.384 75.0119 159.891 74.9177C160.398 74.8234 160.922 74.8817 161.396 75.085C162.032 75.3577 162.533 75.8716 162.789 76.5138C163.046 77.156 163.037 77.8738 162.764 78.5093Z" fill="url(#paint1_linear_234_6269)"/>
<path d="M163.166 85.673C163.591 85.8546 163.989 86.0958 164.348 86.3894L165.573 87.2634C165.802 87.4353 166.038 87.6001 166.289 87.8006C166.436 87.9121 166.56 88.052 166.652 88.2119C166.744 88.3719 166.803 88.5487 166.826 88.7319C166.833 88.9053 166.787 89.0766 166.693 89.2227C166.6 89.3688 166.464 89.4826 166.303 89.5486C166.028 89.6633 165.72 89.676 165.436 89.5844C165.004 89.4231 164.587 89.2241 164.19 88.9898C163.474 88.6173 162.965 88.3236 162.757 88.1803L162.822 88.1159C162.857 88.2161 162.865 88.2663 162.857 88.2734C162.85 88.2806 162.807 88.2735 162.743 88.1588L162.664 88.0585L162.8 88.0944C163.044 88.1732 163.581 88.3952 164.319 88.7319C164.712 88.9275 165.116 89.0997 165.53 89.2477C165.931 89.3838 166.49 89.1833 166.454 88.7534C166.418 88.3236 165.78 87.9009 165.365 87.5356L164.19 86.6043C163.812 86.3364 163.468 86.0237 163.166 85.673Z" fill="#D78776"/>
<path d="M164.398 83.9109C164.871 84.0093 165.323 84.1938 165.73 84.4553C166.198 84.7062 166.622 85.033 166.984 85.4224C167.204 85.6558 167.388 85.9215 167.528 86.2104C167.624 86.3731 167.686 86.553 167.712 86.7399C167.738 86.9267 167.726 87.1169 167.679 87.2993C167.64 87.4012 167.58 87.4939 167.504 87.5716C167.427 87.6492 167.336 87.7102 167.234 87.7507C167.057 87.8192 166.865 87.8438 166.676 87.8223C166.355 87.7779 166.043 87.6836 165.752 87.5429C165.266 87.3323 164.81 87.0577 164.398 86.7262C163.681 86.1603 163.402 85.6803 163.438 85.6517C163.473 85.623 163.846 86.0242 164.555 86.5185C164.974 86.801 165.421 87.041 165.888 87.2349C166.148 87.3493 166.423 87.4264 166.704 87.4641C166.991 87.4641 167.249 87.4068 167.328 87.1775C167.388 86.9034 167.342 86.6165 167.199 86.3752C167.078 86.114 166.918 85.8725 166.726 85.6588C166.399 85.2819 166.017 84.956 165.594 84.6917C165.173 84.4678 164.772 84.2065 164.398 83.9109Z" fill="#D78776"/>
<path d="M169.821 80.6871L163.639 82.5068C163.353 82.5553 163.096 82.7117 162.922 82.9437C162.693 83.3736 163.102 83.8822 163.524 84.1258C164.444 84.6243 165.494 84.827 166.533 84.706C167.564 84.5673 168.579 84.3273 169.563 83.9897" fill="#E5BAAB"/>
<path d="M169.556 84.0183C169.387 84.1246 169.204 84.2043 169.011 84.2547C168.502 84.4346 167.983 84.5853 167.457 84.706C166.664 84.8918 165.844 84.9355 165.035 84.835C164.552 84.7655 164.083 84.6205 163.646 84.4052C163.396 84.295 163.171 84.134 162.987 83.9323C162.875 83.8236 162.788 83.6913 162.734 83.5451C162.679 83.399 162.658 83.2425 162.671 83.087C162.71 82.931 162.788 82.7877 162.899 82.6709C163.009 82.5542 163.148 82.468 163.302 82.4208C163.56 82.3277 163.796 82.2703 164.018 82.1987L165.365 81.8119L167.665 81.1815C168.365 80.9551 169.084 80.7897 169.814 80.6871C169.146 80.9806 168.456 81.2202 167.75 81.4035L165.472 82.1199L164.126 82.5282C163.674 82.6787 163.08 82.7647 163.037 83.13C163.035 83.2289 163.054 83.3271 163.092 83.4183C163.13 83.5095 163.187 83.5919 163.259 83.6601C163.412 83.8266 163.597 83.9606 163.803 84.0541C164.204 84.2585 164.634 84.3987 165.078 84.4696C165.849 84.5831 166.633 84.5686 167.399 84.4266C168.725 84.2046 169.534 83.9538 169.556 84.0183Z" fill="#D78776"/>
<path d="M252.498 198.202C255.096 198.376 257.69 197.808 259.977 196.564C262.265 195.321 264.151 193.452 265.417 191.177C266.683 188.902 267.276 186.314 267.127 183.714C266.979 181.115 266.094 178.611 264.576 176.496C262.635 173.781 259.776 171.875 256.99 170.048L246.96 163.436L250.019 189.362L252.469 198.216" fill="url(#paint2_linear_234_6269)"/>
<path d="M266.74 181.037C266.616 181.295 266.432 181.518 266.203 181.689C265.598 182.191 264.88 182.535 264.111 182.692C262.177 183.151 259.34 182.75 256.703 181.324C254.488 180.067 252.492 178.458 250.793 176.56C250.127 175.844 249.611 175.263 249.26 174.848C249.064 174.644 248.889 174.421 248.737 174.182C248.967 174.347 249.177 174.539 249.361 174.755L250.98 176.374C252.711 178.191 254.697 179.748 256.875 180.994C259.043 182.241 261.559 182.744 264.039 182.427C264.78 182.302 265.483 182.011 266.095 181.575C266.532 181.26 266.718 181.016 266.74 181.037Z" fill="#263238"/>
<path d="M241.044 134.143L241.76 119.364C241.76 119.364 236.681 115.116 238.343 96.0175L235.9 95.3012C235.9 95.3012 234.396 119.343 222.203 118.29C210.01 117.237 214.323 95.6307 214.323 95.6307C212.981 95.7031 211.705 96.2313 210.705 97.1279C210.612 97.1709 210.168 105.008 209.924 111.678C208.586 114.037 207.917 116.717 207.99 119.429C208.116 121.495 208.911 123.463 210.254 125.038C210.583 129.558 210.913 135.562 210.913 135.562L206.163 147.855L207.302 152.189L242.14 151.802L243.171 147.167L241.044 134.143Z" fill="#455A64"/>
<path d="M235.792 117.559C235.678 118.08 235.451 118.569 235.126 118.992C234.668 119.708 234.223 120.288 234.137 120.238C234.052 120.188 234.345 119.522 234.804 118.806C235.262 118.089 235.706 117.502 235.792 117.559Z" fill="white"/>
<path d="M237.253 129.988C237.175 130.06 236.537 129.501 235.756 128.735C235.256 128.31 234.839 127.798 234.524 127.223C234.603 127.144 235.24 127.71 236.021 128.47C236.522 128.895 236.94 129.41 237.253 129.988Z" fill="white"/>
<path d="M217.123 120.654C216.074 121.627 214.862 122.408 213.542 122.961C214.591 121.987 215.803 121.206 217.123 120.654Z" fill="white"/>
<path d="M211.636 119.773C211.06 119.653 210.517 119.408 210.046 119.056C209.215 118.576 208.613 118.118 208.613 118.032C209.188 118.153 209.731 118.397 210.203 118.748C211.056 119.228 211.686 119.687 211.636 119.773Z" fill="white"/>
<path d="M211.758 104.851C211.909 105.501 211.943 106.173 211.858 106.835C211.887 107.5 211.795 108.165 211.586 108.798C211.425 108.151 211.391 107.48 211.486 106.821C211.45 106.153 211.542 105.484 211.758 104.851Z" fill="white"/>
<path d="M237.053 107.451C237.146 107.501 236.96 108.053 236.645 108.69C236.329 109.328 235.993 109.808 235.928 109.765C235.864 109.722 236.021 109.163 236.337 108.526C236.652 107.888 236.96 107.408 237.053 107.451Z" fill="white"/>
<path d="M224.323 126.908C223.912 125.903 223.738 124.817 223.815 123.734C224.224 124.739 224.399 125.825 224.323 126.908Z" fill="white"/>
<path d="M232.238 117.179C232.281 117.273 231.952 117.523 231.522 117.731C231.092 117.939 230.669 118.046 230.626 117.953C230.583 117.86 230.913 117.609 231.343 117.394C231.773 117.179 232.195 117.086 232.238 117.179Z" fill="white"/>
<path d="M240.8 122.739C240.836 122.832 240.471 123.039 239.991 123.19C239.511 123.34 239.095 123.39 239.06 123.297C239.024 123.204 239.396 122.989 239.876 122.839C240.356 122.688 240.772 122.638 240.8 122.739Z" fill="white"/>
<path d="M214.888 117C214.802 117.05 214.401 116.542 213.993 115.854C213.584 115.166 213.327 114.565 213.413 114.514C213.498 114.464 213.907 114.973 214.315 115.661C214.723 116.348 214.967 116.95 214.888 117Z" fill="white"/>
<path d="M215.383 127.674C215.29 127.717 215.111 127.495 214.889 127.259C214.667 127.022 214.466 126.807 214.516 126.714C214.566 126.621 214.896 126.714 215.161 127.008C215.426 127.302 215.483 127.646 215.383 127.674Z" fill="white"/>
<path d="M210.926 144.717C210.858 144.201 210.912 143.676 211.084 143.184C211.277 142.36 211.514 141.715 211.614 141.751C211.682 142.268 211.626 142.794 211.449 143.284C211.263 144.094 211.027 144.738 210.926 144.717Z" fill="white"/>
<path d="M218.405 144.982C218.334 145.047 217.782 144.581 217.18 143.929C216.578 143.277 216.156 142.69 216.235 142.625C216.313 142.561 216.858 143.026 217.46 143.678C218.061 144.33 218.47 144.91 218.405 144.982Z" fill="white"/>
<path d="M214.996 148.972C214.996 149.073 214.359 148.972 213.642 148.693C212.926 148.414 212.381 148.156 212.417 148.055C212.453 147.955 213.055 148.055 213.771 148.342C214.488 148.629 215.032 148.858 214.996 148.972Z" fill="white"/>
<path d="M224.767 143.879C224.714 144.411 224.537 144.924 224.251 145.376C223.872 146.157 223.485 146.752 223.392 146.709C223.449 146.176 223.628 145.664 223.915 145.211C224.294 144.43 224.674 143.843 224.767 143.879Z" fill="white"/>
<path d="M233.163 145.777C232.896 146.492 232.39 147.092 231.73 147.475C231.141 147.951 230.403 148.204 229.646 148.191C229.646 148.084 230.555 147.812 231.522 147.138C232.49 146.465 233.07 145.72 233.163 145.777Z" fill="white"/>
<path d="M240.012 148.141C239.232 147.751 238.509 147.257 237.863 146.673C237.136 146.179 236.483 145.586 235.921 144.91C236.701 145.286 237.424 145.768 238.071 146.343C238.803 146.843 239.458 147.449 240.012 148.141Z" fill="white"/>
<path d="M229.266 136.321C228.793 136.956 228.225 137.514 227.582 137.976C227.021 138.534 226.373 138.996 225.663 139.344C226.136 138.71 226.703 138.152 227.346 137.689C227.907 137.132 228.556 136.67 229.266 136.321Z" fill="white"/>
<path d="M218.871 136.679C218.269 136.297 217.738 135.812 217.302 135.246C216.775 134.779 216.336 134.221 216.005 133.599C216.604 133.968 217.135 134.438 217.574 134.989C218.101 135.473 218.539 136.045 218.871 136.679Z" fill="white"/>
<path d="M228.729 131.665C228.169 132.014 227.55 132.257 226.902 132.381C226.285 132.619 225.629 132.743 224.968 132.746C226.141 132.147 227.417 131.778 228.729 131.657V131.665Z" fill="white"/>
<path d="M237.813 138.112C237.357 137.614 236.997 137.036 236.753 136.407C236.403 135.832 236.16 135.199 236.036 134.537C236.492 135.035 236.852 135.613 237.096 136.242C237.446 136.817 237.689 137.451 237.813 138.112Z" fill="white"/>
<path d="M212.223 134.337C212.341 134.964 212.341 135.608 212.223 136.235C212.221 136.874 212.097 137.506 211.858 138.098C211.731 137.471 211.731 136.826 211.858 136.199C211.856 135.56 211.98 134.928 212.223 134.337Z" fill="white"/>
<path d="M213.341 80.8375C211.574 81.1079 209.769 81.0128 208.04 80.5581C207.186 80.3197 206.395 79.8973 205.722 79.3206C205.049 78.7439 204.51 78.0269 204.143 77.2198C203.797 76.3971 203.736 75.4822 203.971 74.6212C204.206 73.7601 204.723 73.0028 205.44 72.4702C206.156 72.0117 207.094 71.7538 207.424 70.9729C207.754 70.1921 207.159 69.182 206.743 68.3295C206.194 67.1924 206.024 65.9094 206.257 64.6684C206.49 63.4274 207.115 62.2937 208.039 61.4335C208.964 60.5733 210.139 60.0317 211.394 59.8881C212.648 59.7445 213.916 60.0065 215.01 60.6356C215.179 58.6693 216.07 56.8352 217.512 55.4881C218.954 54.141 220.845 53.3766 222.818 53.3428C224.791 53.3089 226.707 54.008 228.194 55.3048C229.682 56.6016 230.636 58.404 230.871 60.3634C231.007 61.5024 230.914 62.7274 231.494 63.7232C232.153 64.8551 233.507 65.3709 234.424 66.3093C236.208 68.1361 235.965 71.1306 235.141 73.5519C234.317 75.9733 233.035 78.3373 233.113 80.8948" fill="#263238"/>
<path d="M220.154 95.0576C219.982 92.5287 219.789 90.222 219.789 90.222C219.789 90.222 214.531 89.7993 214.058 84.5984C213.585 79.3975 213.642 67.4053 213.642 67.4053L223.084 62.4981L232.619 70.2207L232.791 94.5776C232.804 96.188 232.204 97.7429 231.111 98.926C230.018 100.109 228.516 100.831 226.91 100.946C225.233 101.06 223.58 100.504 222.313 99.4C221.046 98.2959 220.27 96.734 220.154 95.0576Z" fill="#E5BAAB"/>
<path d="M214.924 76.1166C214.934 76.2464 214.982 76.3704 215.061 76.4734C215.141 76.5765 215.249 76.654 215.372 76.6963C215.495 76.7386 215.628 76.744 215.754 76.7117C215.88 76.6795 215.994 76.611 216.081 76.5147C216.169 76.4184 216.226 76.2986 216.247 76.1701C216.267 76.0415 216.249 75.9098 216.195 75.7913C216.142 75.6727 216.054 75.5725 215.944 75.503C215.834 75.4335 215.706 75.3978 215.576 75.4002C215.486 75.4019 215.396 75.4221 215.314 75.4595C215.231 75.4969 215.157 75.5508 215.096 75.6179C215.035 75.685 214.988 75.7638 214.959 75.8495C214.929 75.9353 214.917 76.0262 214.924 76.1166Z" fill="#263238"/>
<path d="M214.265 75.4074C214.351 75.4933 214.831 75.0635 215.547 75.0062C216.264 74.9489 216.815 75.2856 216.887 75.1853C216.959 75.085 216.83 74.9847 216.586 74.8271C216.263 74.6319 215.887 74.5441 215.511 74.5763C215.135 74.6085 214.779 74.759 214.494 75.0062C214.287 75.1996 214.222 75.3716 214.265 75.4074Z" fill="#263238"/>
<path d="M222.646 75.9303C222.647 76.0181 222.666 76.1048 222.701 76.1853C222.735 76.2659 222.786 76.3387 222.85 76.3994C222.913 76.4601 222.988 76.5076 223.07 76.539C223.152 76.5704 223.239 76.585 223.327 76.5822C223.504 76.5822 223.673 76.512 223.798 76.387C223.923 76.2621 223.993 76.0926 223.993 75.9159C223.993 75.7392 223.923 75.5698 223.798 75.4448C223.673 75.3199 223.504 75.2497 223.327 75.2497C223.237 75.2467 223.147 75.2623 223.063 75.2954C222.979 75.3286 222.903 75.3786 222.839 75.4424C222.775 75.5062 222.725 75.5824 222.692 75.6663C222.659 75.7503 222.643 75.8401 222.646 75.9303Z" fill="#263238"/>
<path d="M222.21 75.2139C222.303 75.2999 222.783 74.8701 223.499 74.8128C224.215 74.7555 224.76 75.0922 224.832 74.9919C224.903 74.8916 224.774 74.7913 224.538 74.6337C224.224 74.4339 223.856 74.3363 223.485 74.3543C223.107 74.3802 222.749 74.5315 222.467 74.7841C222.238 75.0062 222.167 75.1781 222.21 75.2139Z" fill="#263238"/>
<path d="M219.774 81.3318C219.386 81.4173 218.988 81.4486 218.592 81.4249C218.488 81.4422 218.381 81.4422 218.277 81.4249C218.209 81.4072 218.145 81.375 218.091 81.3305C218.037 81.286 217.992 81.2302 217.962 81.167C217.894 80.9154 217.911 80.6482 218.012 80.4077C218.155 79.9349 218.298 79.4334 218.449 78.9033C218.779 77.6014 219.21 76.3272 219.738 75.0921C219.503 76.4164 219.17 77.7214 218.742 78.9964C218.585 79.5194 218.434 80.0137 218.284 80.4937C218.202 80.6728 218.172 80.8714 218.198 81.0667C218.234 81.1957 218.413 81.2172 218.592 81.2244C218.989 81.2133 219.386 81.2493 219.774 81.3318Z" fill="#263238"/>
<path d="M222.252 81.9192C222.303 81.8619 220.182 83.2015 218.721 83.2373C218.991 83.5954 219.375 83.8513 219.809 83.9632C220.244 84.0751 220.704 84.0364 221.113 83.8534C221.512 83.7331 221.85 83.4674 222.061 83.1089C222.272 82.7505 222.34 82.3257 222.252 81.9192Z" fill="white"/>
<path d="M219.789 90.2221C222.26 90.0608 224.634 89.1958 226.63 87.7291C226.63 87.7291 225.161 91.5904 219.939 91.4973L219.789 90.2221Z" fill="#D78776"/>
<path d="M211.306 68.9671C212.939 70.4858 215.504 70.7007 217.596 69.927C219.676 69.0477 221.467 67.6033 222.768 65.7577C223.677 66.6456 224.793 67.2922 226.016 67.6387C227.238 67.9853 228.528 68.0208 229.767 67.742C230.14 72.4773 230.964 75.3715 232.74 80.1211C232.74 80.1211 232.325 82.1914 232.955 81.9049C233.564 78.6238 234.144 75.1279 234.753 71.8756C234.968 70.6864 235.183 69.4112 234.71 68.2937C234.237 67.1761 233.02 66.3666 231.974 65.6001C230.677 64.6473 229.488 63.5441 228.17 62.6271C226.881 61.6444 225.352 61.0259 223.742 60.8362C222.097 60.8281 220.467 61.1522 218.95 61.7889C217.146 62.2916 215.448 63.1142 213.935 64.2175C212.503 65.4067 211.485 67.2979 211.858 69.1247" fill="#263238"/>
<path d="M232.647 75.1638C233.171 74.9189 233.734 74.7685 234.309 74.7196C234.6 74.701 234.891 74.7571 235.155 74.8825C235.418 75.0078 235.645 75.1984 235.814 75.436C236.027 75.8151 236.081 76.2635 235.964 76.6825C235.882 77.0206 235.725 77.3361 235.506 77.6061C235.286 77.8761 235.009 78.0938 234.695 78.2433C234.381 78.3929 234.037 78.4706 233.689 78.4707C233.341 78.4709 232.998 78.3935 232.683 78.2442" fill="#E5BAAB"/>
<path d="M225.233 73.8958C225.311 73.8958 225.369 74.254 225.082 74.5549C224.796 74.8558 224.423 74.8128 224.43 74.7268C224.437 74.6409 224.667 74.5549 224.86 74.34C225.054 74.1251 225.139 73.8958 225.233 73.8958Z" fill="#263238"/>
<path d="M206.664 156.738L197.652 292.621C196.986 292.742 188.532 294.347 188.754 295.579C188.976 296.812 210.41 296.095 210.41 296.095L223.019 178.014L242.64 154.854L206.664 156.738Z" fill="#E5BAAB"/>
<path d="M210.181 295.063C210.181 295.271 205.253 295.4 199.178 295.35C193.103 295.3 188.167 295.092 188.174 294.884C188.181 294.677 193.103 294.555 199.178 294.605C205.253 294.655 210.181 294.856 210.181 295.063Z" fill="#263238"/>
<path d="M195.359 295.293C195.252 295.293 195.08 294.476 194.471 293.667C193.862 292.857 193.131 292.434 193.182 292.334C193.814 292.525 194.366 292.917 194.754 293.452C195.142 293.986 195.345 294.633 195.331 295.293H195.359Z" fill="#263238"/>
<path d="M210.59 291.517C206.812 291.394 203.108 292.584 200.109 294.884C200.454 294.443 200.871 294.063 201.342 293.76C202.432 292.969 203.641 292.355 204.923 291.94C206.212 291.522 207.559 291.314 208.914 291.324C209.479 291.295 210.046 291.361 210.59 291.517Z" fill="#263238"/>
<path d="M210.661 290.034C208.454 290.158 206.242 290.158 204.035 290.034C201.823 290.039 199.614 289.919 197.416 289.676C199.623 289.551 201.835 289.551 204.042 289.676C206.253 289.674 208.463 289.794 210.661 290.034Z" fill="#263238"/>
<path d="M210.798 287.685C208.578 287.927 206.347 288.047 204.114 288.043C201.883 288.173 199.646 288.173 197.416 288.043C199.635 287.805 201.867 287.685 204.099 287.685C206.33 287.563 208.566 287.563 210.798 287.685Z" fill="#263238"/>
<path d="M188.382 294.927C188.297 295.134 188.296 295.365 188.379 295.572C188.462 295.78 188.622 295.947 188.826 296.038C189.253 296.189 189.718 296.189 190.144 296.038C190.568 295.895 191.009 295.808 191.455 295.78C192.379 295.78 193.225 296.496 194.142 296.374C194.693 296.31 195.18 295.952 195.725 295.866C196.692 295.723 197.602 296.439 198.59 296.432C199.579 296.425 200.474 295.715 201.456 295.773C202.437 295.83 203.111 296.568 204.006 296.582C204.723 296.582 205.353 296.16 206.055 296.131C207.015 296.095 207.918 296.804 208.863 296.625C209.053 296.591 209.232 296.514 209.389 296.402C209.545 296.289 209.674 296.142 209.766 295.973C209.854 295.801 209.888 295.606 209.862 295.414C209.836 295.222 209.753 295.042 209.623 294.899" fill="#263238"/>
<path d="M207.352 287.943C207.352 287.978 206.922 287.792 206.421 287.262C206.124 286.945 205.905 286.562 205.783 286.145C205.713 285.89 205.684 285.627 205.697 285.364C205.699 285.206 205.734 285.051 205.799 284.908C205.864 284.765 205.959 284.637 206.077 284.533C206.156 284.477 206.248 284.441 206.345 284.43C206.441 284.419 206.539 284.432 206.629 284.468C206.775 284.531 206.903 284.63 207.001 284.755C207.162 284.973 207.288 285.214 207.374 285.471C207.525 285.878 207.579 286.315 207.531 286.746C207.431 287.463 207.116 287.85 207.087 287.821C207.058 287.792 207.245 287.405 207.266 286.732C207.275 286.342 207.204 285.955 207.058 285.593C206.97 285.387 206.854 285.195 206.715 285.02C206.571 284.848 206.406 284.769 206.292 284.869C206.146 285.019 206.064 285.219 206.063 285.428C206.047 285.649 206.064 285.871 206.113 286.087C206.21 286.464 206.383 286.818 206.621 287.126C207.008 287.627 207.395 287.893 207.352 287.943Z" fill="#263238"/>
<path d="M207.338 287.506C207.295 287.506 207.252 287.133 207.546 286.632C207.724 286.339 207.969 286.094 208.262 285.915C208.44 285.817 208.63 285.742 208.828 285.693C208.968 285.658 209.116 285.676 209.243 285.743C209.317 285.79 209.374 285.859 209.406 285.94C209.438 286.021 209.444 286.11 209.422 286.195C209.375 286.575 209.212 286.932 208.956 287.217C208.7 287.503 208.363 287.703 207.99 287.792C207.417 287.914 207.08 287.742 207.094 287.706C207.109 287.67 207.445 287.706 207.918 287.541C208.217 287.435 208.482 287.248 208.682 287.002C208.883 286.756 209.013 286.459 209.057 286.145C209.057 286.051 209.057 286.059 209.057 286.059C209.005 286.045 208.951 286.045 208.899 286.059C208.447 286.151 208.045 286.406 207.768 286.775C207.452 287.183 207.395 287.513 207.338 287.506Z" fill="#263238"/>
<path d="M252.635 287.771L252.448 287.821L246.56 240.275L240.993 157.175L224.767 172.527C224.366 173.279 229.861 239.53 231.029 244.165C232.132 248.52 239.002 286.209 239.833 290.765C238.866 291.252 231.616 294.927 232.153 296.016C232.691 297.105 253.122 290.572 253.122 290.572L252.635 287.771Z" fill="#E5BAAB"/>
<path d="M253.214 290.701C253.272 290.901 248.565 292.377 242.705 293.996C236.845 295.615 232.052 296.768 231.995 296.568C231.938 296.367 236.652 294.899 242.512 293.273C248.372 291.646 253.164 290.471 253.214 290.701Z" fill="#263238"/>
<path d="M239.03 294.956C238.93 294.999 238.529 294.24 237.726 293.631C236.924 293.022 236.1 292.814 236.122 292.699C236.786 292.705 237.431 292.929 237.957 293.337C238.482 293.745 238.859 294.313 239.03 294.956Z" fill="#263238"/>
<path d="M252.648 287.119C250.851 287.637 249.132 288.398 247.541 289.383C246.019 290.473 244.657 291.77 243.493 293.237C243.702 292.712 244 292.227 244.374 291.804C246.057 289.664 248.378 288.116 251.001 287.384C251.532 287.208 252.089 287.118 252.648 287.119Z" fill="#263238"/>
<path d="M252.298 285.686C250.208 286.413 248.08 287.023 245.922 287.513C243.802 288.113 241.649 288.592 239.475 288.946C241.565 288.223 243.694 287.616 245.85 287.126C247.971 286.526 250.123 286.045 252.298 285.686Z" fill="#263238"/>
<path d="M251.781 283.401C249.712 284.246 247.598 284.976 245.448 285.586C243.335 286.313 241.183 286.92 239.001 287.405C241.07 286.57 243.184 285.853 245.334 285.256C247.448 284.524 249.601 283.904 251.781 283.401Z" fill="#263238"/>
<path d="M232.218 296.511C232.189 296.731 232.248 296.953 232.382 297.13C232.516 297.307 232.714 297.424 232.934 297.456C233.389 297.51 233.848 297.401 234.231 297.148C234.599 296.895 234.999 296.69 235.42 296.539C236.315 296.296 237.318 296.74 238.171 296.374C238.686 296.16 239.052 295.658 239.56 295.45C240.449 295.042 241.516 295.45 242.426 295.214C243.336 294.977 244.038 293.989 245.005 293.781C245.972 293.573 246.817 294.096 247.691 293.86C248.365 293.681 248.866 293.086 249.532 292.871C250.442 292.57 251.51 293 252.398 292.57C252.577 292.49 252.735 292.369 252.859 292.218C252.983 292.066 253.071 291.888 253.114 291.696C253.151 291.506 253.128 291.309 253.05 291.131C252.972 290.953 252.842 290.803 252.677 290.701" fill="#263238"/>
<path d="M248.557 284.597C248.165 284.566 247.788 284.427 247.469 284.196C247.094 283.975 246.779 283.665 246.552 283.293C246.413 283.073 246.314 282.831 246.258 282.577C246.217 282.425 246.207 282.267 246.231 282.111C246.254 281.956 246.31 281.807 246.394 281.674C246.452 281.597 246.53 281.536 246.619 281.499C246.709 281.461 246.806 281.447 246.903 281.459C247.061 281.481 247.212 281.543 247.34 281.638C247.551 281.793 247.737 281.979 247.891 282.19C248.147 282.543 248.318 282.95 248.393 283.379C248.495 283.767 248.446 284.179 248.257 284.533C248.192 284.533 248.3 284.089 248.135 283.429C248.031 283.056 247.856 282.705 247.619 282.398C247.478 282.224 247.314 282.069 247.132 281.939C246.946 281.81 246.767 281.782 246.688 281.904C246.585 282.087 246.56 282.303 246.616 282.505C246.661 282.723 246.738 282.933 246.845 283.129C247.042 283.465 247.305 283.757 247.619 283.988C248.149 284.382 248.557 284.54 248.557 284.597Z" fill="#263238"/>
<path d="M248.4 284.182C248.4 284.182 248.221 283.845 248.4 283.279C248.491 282.953 248.661 282.656 248.895 282.412C249.039 282.266 249.203 282.14 249.382 282.04C249.506 281.969 249.651 281.946 249.79 281.975C249.872 282.001 249.944 282.051 249.996 282.119C250.049 282.187 250.079 282.269 250.084 282.355C250.143 282.734 250.085 283.123 249.918 283.469C249.75 283.815 249.48 284.101 249.145 284.289C248.63 284.561 248.257 284.49 248.264 284.454C248.271 284.418 248.594 284.361 248.981 284.067C249.241 283.884 249.446 283.633 249.572 283.341C249.698 283.048 249.742 282.727 249.697 282.412C249.697 282.319 249.697 282.326 249.697 282.333C249.642 282.329 249.587 282.341 249.539 282.369C249.136 282.587 248.821 282.939 248.651 283.365C248.429 283.838 248.465 284.174 248.4 284.182Z" fill="#263238"/>
<path d="M242.111 149.202L207.273 149.596L196.227 196.547C196.227 196.547 193.512 208.009 207.101 208.561C220.691 209.112 227.088 203.166 238.429 207.544C245.793 210.409 256.467 205.086 255.944 203.876C249.647 189.383 249.79 168.594 242.111 149.202Z" fill="#263238"/>
<path d="M252.728 207.142C252.728 207.142 252.67 206.942 252.584 206.562C252.498 206.182 252.377 205.609 252.183 204.893C251.596 202.879 250.864 200.911 249.991 199.004C248.621 196.179 247.425 193.272 246.409 190.3C245.357 186.601 244.749 182.789 244.597 178.946C244.36 174.862 244.346 170.972 244.11 167.484C243.95 164.346 243.506 161.229 242.784 158.171C242.293 156.12 241.587 154.127 240.678 152.225C240.356 151.551 240.084 151.043 239.883 150.706C239.773 150.537 239.682 150.357 239.611 150.169C239.733 150.327 239.845 150.492 239.948 150.663C240.261 151.146 240.548 151.646 240.807 152.16C241.78 154.045 242.532 156.035 243.049 158.092C243.812 161.146 244.291 164.263 244.482 167.405C244.74 170.944 244.762 174.834 244.998 178.867C245.145 182.688 245.736 186.48 246.76 190.164C247.755 193.126 248.915 196.029 250.235 198.861C251.103 200.793 251.81 202.794 252.348 204.843C252.52 205.559 252.642 206.139 252.692 206.533C252.724 206.735 252.736 206.939 252.728 207.142Z" fill="#455A64"/>
<path d="M220.225 168.551C220.225 168.551 220.175 168.608 220.039 168.658C219.839 168.731 219.625 168.753 219.415 168.723C219.028 168.652 218.668 168.477 218.373 168.215C218.079 167.954 217.862 167.616 217.746 167.24C217.492 166.144 217.424 165.013 217.546 163.895C217.582 162.634 217.625 161.265 217.668 159.833C217.768 156.967 217.875 154.345 217.968 152.454C218.026 151.573 218.069 150.828 218.104 150.219C218.111 149.944 218.144 149.67 218.205 149.402C218.255 149.674 218.27 149.951 218.248 150.226C218.248 150.835 218.248 151.58 218.248 152.461C218.248 154.352 218.155 156.96 218.054 159.847C218.004 161.28 217.954 162.648 217.904 163.902C217.771 164.985 217.807 166.082 218.011 167.154C218.102 167.498 218.283 167.812 218.534 168.064C218.786 168.316 219.1 168.496 219.444 168.587C219.704 168.623 219.969 168.611 220.225 168.551Z" fill="#455A64"/>
<path d="M220.153 151.222C220.11 151.222 220.44 150.935 220.963 151.164C221.111 151.23 221.243 151.328 221.347 151.453C221.451 151.577 221.526 151.723 221.565 151.881C221.597 152.092 221.557 152.308 221.452 152.493C221.346 152.679 221.182 152.824 220.984 152.905C220.795 153.006 220.576 153.038 220.365 152.994C220.155 152.951 219.966 152.836 219.831 152.669C219.743 152.523 219.697 152.356 219.697 152.185C219.697 152.015 219.743 151.848 219.831 151.702C219.879 151.604 219.947 151.517 220.031 151.448C220.115 151.379 220.213 151.329 220.318 151.301C220.469 151.265 220.547 151.301 220.547 151.301C220.547 151.301 220.218 151.379 220.075 151.795C220.033 151.899 220.016 152.012 220.026 152.124C220.036 152.236 220.072 152.344 220.132 152.44C220.223 152.534 220.343 152.595 220.473 152.613C220.603 152.631 220.735 152.605 220.848 152.54C220.974 152.494 221.081 152.408 221.153 152.295C221.225 152.183 221.259 152.05 221.249 151.917C221.229 151.801 221.184 151.691 221.117 151.595C221.051 151.498 220.964 151.417 220.863 151.358C220.469 151.164 220.168 151.279 220.153 151.222Z" fill="#455A64"/>
<path d="M242.92 158.5C242.72 158.56 242.513 158.592 242.304 158.593C241.734 158.628 241.162 158.628 240.592 158.593C238.685 158.536 236.831 157.953 235.233 156.91C234.445 156.363 233.782 155.655 233.288 154.832C232.793 154.01 232.48 153.092 232.368 152.139C232.306 151.562 232.355 150.978 232.511 150.419C232.552 150.211 232.635 150.014 232.755 149.839C232.595 150.585 232.551 151.351 232.626 152.11C232.772 153.01 233.098 153.872 233.584 154.644C234.07 155.415 234.706 156.081 235.455 156.602C237.003 157.606 238.78 158.2 240.62 158.328C242.032 158.479 242.92 158.436 242.92 158.5Z" fill="#263238"/>
<path d="M210.153 149.273C210.153 149.273 210.232 149.452 210.303 149.789C210.385 150.263 210.433 150.741 210.447 151.222C210.488 152.854 210.203 154.479 209.608 156C209.086 157.566 208.108 158.94 206.8 159.947C206.382 160.23 205.904 160.414 205.403 160.484C205.225 160.529 205.038 160.529 204.859 160.484C205.502 160.383 206.114 160.138 206.65 159.768C207.851 158.735 208.754 157.399 209.265 155.9C209.835 154.417 210.146 152.846 210.182 151.258C210.217 150.04 210.088 149.28 210.153 149.273Z" fill="#263238"/>
<path d="M254.697 201.153C254.158 201.741 253.541 202.251 252.864 202.672C251.016 203.831 248.933 204.565 246.767 204.821C243.561 205.177 240.318 205.022 237.16 204.363C233.579 203.761 229.71 202.772 225.555 202.737C221.4 202.701 217.56 203.969 214.093 204.886C212.445 205.342 210.77 205.693 209.078 205.939C207.586 206.126 206.078 206.155 204.58 206.025C202.396 205.875 200.289 205.157 198.469 203.94C198.188 203.748 197.92 203.537 197.666 203.31C197.476 203.148 197.296 202.973 197.129 202.787C196.986 202.64 196.852 202.485 196.728 202.321C197.302 202.862 197.912 203.362 198.555 203.818C200.375 204.971 202.458 205.641 204.608 205.767C206.087 205.876 207.573 205.83 209.043 205.631C210.734 205.373 212.409 205.014 214.057 204.556C217.539 203.653 221.393 202.35 225.634 202.407C229.875 202.464 233.75 203.453 237.297 204.069C240.421 204.738 243.631 204.917 246.81 204.599C248.951 204.368 251.017 203.682 252.871 202.586C254.081 201.726 254.662 201.089 254.697 201.153Z" fill="#263238"/>
<path d="M241.208 150.362C241.114 150.419 240.914 150.262 240.756 150.018C240.599 149.775 240.541 149.524 240.627 149.467C240.713 149.409 240.914 149.56 241.071 149.81C241.229 150.061 241.294 150.29 241.208 150.362Z" fill="#455A64"/>
<path d="M243.157 154.36C243.063 154.403 242.791 153.973 242.548 153.414C242.304 152.855 242.182 152.368 242.268 152.318C242.354 152.268 242.641 152.698 242.884 153.271C243.128 153.844 243.257 154.324 243.157 154.36Z" fill="#455A64"/>
<path d="M244.46 158.622C244.36 158.622 244.152 158.185 243.995 157.59C243.837 156.996 243.787 156.501 243.887 156.466C243.988 156.43 244.195 156.895 244.353 157.497C244.511 158.099 244.561 158.593 244.46 158.622Z" fill="#455A64"/>
<path d="M245.263 162.999C245.163 162.999 245.005 162.533 244.905 161.925C244.805 161.316 244.819 160.821 244.905 160.8C244.991 160.778 245.163 161.258 245.263 161.867C245.363 162.476 245.363 162.985 245.263 162.999Z" fill="#455A64"/>
<path d="M245.692 167.426C245.592 167.426 245.463 166.946 245.413 166.337C245.363 165.728 245.413 165.22 245.506 165.205C245.599 165.191 245.728 165.685 245.785 166.302C245.843 166.918 245.821 167.419 245.692 167.426Z" fill="#455A64"/>
<path d="M245.972 171.875C245.864 171.875 245.764 171.388 245.728 170.772C245.692 170.156 245.728 169.654 245.857 169.647C245.986 169.64 246.072 170.141 246.1 170.757C246.129 171.373 246.072 171.875 245.972 171.875Z" fill="#455A64"/>
<path d="M246.194 176.324C246.094 176.324 245.979 175.837 245.951 175.22C245.922 174.604 245.951 174.103 246.072 174.103C246.194 174.103 246.287 174.59 246.323 175.206C246.359 175.822 246.295 176.317 246.194 176.324Z" fill="#455A64"/>
<path d="M246.552 180.765C246.445 180.765 246.316 180.285 246.258 179.676C246.201 179.067 246.258 178.552 246.344 178.544C246.43 178.537 246.574 179.032 246.631 179.64C246.688 180.249 246.652 180.751 246.552 180.765Z" fill="#455A64"/>
<path d="M247.196 185.171C247.096 185.171 246.931 184.712 246.831 184.104C246.731 183.495 246.723 182.986 246.831 182.972C246.938 182.957 247.103 183.437 247.203 184.039C247.304 184.641 247.297 185.149 247.196 185.171Z" fill="#455A64"/>
<path d="M248.3 189.484C248.207 189.519 247.985 189.061 247.813 188.466C247.641 187.872 247.583 187.37 247.684 187.349C247.784 187.327 247.999 187.779 248.171 188.366C248.343 188.953 248.4 189.455 248.3 189.484Z" fill="#455A64"/>
<path d="M249.991 193.596C249.905 193.646 249.597 193.237 249.339 192.671C249.081 192.105 248.959 191.611 249.053 191.575C249.146 191.54 249.425 191.955 249.676 192.514C249.927 193.073 250.106 193.545 249.991 193.596Z" fill="#455A64"/>
<path d="M252.139 197.507C252.046 197.557 251.731 197.163 251.423 196.626C251.115 196.089 250.957 195.609 251.051 195.558C251.144 195.508 251.452 195.909 251.767 196.447C252.082 196.984 252.233 197.464 252.139 197.507Z" fill="#455A64"/>
<path d="M253.96 201.569C253.859 201.605 253.601 201.168 253.379 200.602C253.157 200.036 253.05 199.542 253.143 199.499C253.236 199.456 253.494 199.893 253.723 200.466C253.952 201.039 254.06 201.54 253.96 201.569Z" fill="#455A64"/>
<path d="M254.568 204.814C254.461 204.814 254.361 204.585 254.332 204.298C254.303 204.012 254.368 203.761 254.468 203.747C254.568 203.732 254.676 203.962 254.705 204.262C254.733 204.563 254.669 204.814 254.568 204.814Z" fill="#455A64"/>
<path d="M215.698 95.2511C215.698 95.2511 235.527 159.123 248.279 168.673L247.276 163.064C239.603 149.653 230.405 123.663 220.146 94.9216C219.294 94.2553 216.077 94.4989 215.698 95.2511Z" fill="url(#paint3_linear_234_6269)"/>
<path d="M241.337 118.899L248.207 134.186C238.257 134.129 227.368 131.837 222.797 130.604C222.446 130.268 222.081 129.888 221.644 129.451C221.161 128.937 220.766 128.346 220.476 127.703C220.085 126.919 219.803 126.085 219.638 125.224C219.566 124.429 218.578 124.114 218.205 124.73C217.833 125.346 217.99 127.56 219.258 129.816C220.526 132.073 216.794 130.533 215.426 130.031C214.057 129.53 209.737 128.061 209.25 128.355C208.534 128.792 208.878 129.659 210.26 130.153C211.643 130.647 215.691 132.438 215.39 133.155C215.089 133.871 208.154 131.063 208.154 131.063C208.154 131.063 206.722 130.225 206.392 131.063C205.726 132.539 213.312 134.96 214.043 135.168C214.544 135.318 214.251 136.106 213.721 135.92C213.19 135.734 206.85 132.968 206.156 134.487C205.625 135.633 212.381 136.536 213.398 137.84C214.415 139.144 208.326 136.629 207.868 137.747C207.696 138.162 207.624 138.463 211.314 139.437C214.31 140.052 217.338 140.504 220.383 140.791C226.236 142.503 240.635 145.806 251.108 145.498C251.108 145.498 265.959 145.756 263.387 136.772C260.622 127.144 252.713 112.451 252.713 112.451L241.337 118.899Z" fill="#E5BAAB"/>
<path d="M233.514 77.9362C233.376 77.9178 233.235 77.9549 233.124 78.0394C233.013 78.124 232.939 78.2491 232.92 78.3875C232.918 78.4558 232.929 78.5238 232.954 78.5876C232.979 78.6514 233.016 78.7096 233.063 78.759C233.11 78.8083 233.167 78.8477 233.23 78.8749C233.292 78.9022 233.36 78.9167 233.428 78.9176C233.497 78.9108 233.564 78.8898 233.624 78.856C233.684 78.8221 233.737 78.7762 233.779 78.721C233.821 78.6658 233.85 78.6026 233.866 78.5354C233.883 78.4681 233.885 78.3983 233.872 78.3302C233.852 78.265 233.818 78.2048 233.773 78.1536C233.728 78.1024 233.672 78.0612 233.61 78.0329C233.548 78.0045 233.48 77.9895 233.412 77.9889C233.344 77.9883 233.276 78.0021 233.213 78.0293" fill="url(#paint4_linear_234_6269)"/>
<path d="M300.767 251.092C299.908 251.159 299.07 251.399 298.306 251.798C297.541 252.197 296.865 252.746 296.319 253.413C295.236 254.76 294.472 256.335 294.084 258.019C293.253 261.243 293.819 265.033 294.757 268.228C298.231 266.953 300.345 263.213 301.305 261.257C302.809 258.163 303.654 251.644 300.767 251.092Z" fill="url(#paint5_linear_234_6269)"/>
<path opacity="0.2" d="M300.767 251.092C299.908 251.159 299.07 251.399 298.306 251.798C297.541 252.197 296.865 252.746 296.319 253.413C295.236 254.76 294.472 256.335 294.084 258.019C293.253 261.243 293.819 265.033 294.757 268.228C298.231 266.953 300.345 263.213 301.305 261.257C302.809 258.163 303.654 251.644 300.767 251.092Z" fill="black"/>
<path d="M289.786 272.168C290.3 271.352 290.59 270.416 290.627 269.452C290.663 268.489 290.445 267.533 289.994 266.68C289.526 265.837 288.896 265.096 288.14 264.498C287.383 263.9 286.516 263.459 285.588 263.199C285.174 263.035 284.73 262.964 284.285 262.99C283.841 263.016 283.408 263.139 283.016 263.349C282.686 263.603 282.43 263.942 282.275 264.328C282.12 264.715 282.072 265.137 282.135 265.549C282.269 266.373 282.62 267.147 283.152 267.791C284.864 270.069 286.942 271.96 289.786 272.168Z" fill="url(#paint6_linear_234_6269)"/>
<path d="M289.757 283.229C289.843 283.01 289.901 282.781 289.929 282.548C290.015 282.111 290.122 281.466 290.237 280.671C290.575 278.594 290.63 276.481 290.402 274.389C290.156 272.272 289.341 270.262 288.045 268.572C287.644 268.07 287.182 267.62 286.669 267.232C286.494 267.076 286.293 266.952 286.075 266.867C286.71 267.443 287.299 268.068 287.837 268.736C289.038 270.432 289.792 272.403 290.029 274.467C290.249 276.531 290.23 278.612 289.972 280.671C289.849 281.519 289.777 282.373 289.757 283.229Z" fill="#263238"/>
<path d="M299.693 255.992C299.491 256.322 299.318 256.67 299.177 257.031C298.869 257.704 298.461 258.686 297.916 259.896C296.877 262.332 295.495 265.728 294.062 269.517C292.629 273.307 291.426 276.767 290.588 279.281C290.172 280.542 289.871 281.567 289.628 282.276C289.495 282.636 289.396 283.008 289.334 283.386C289.503 283.041 289.647 282.685 289.764 282.319C290.043 281.56 290.401 280.571 290.838 279.367C291.734 276.874 292.987 273.429 294.42 269.646C295.853 265.864 297.193 262.482 298.167 259.989C298.633 258.807 299.019 257.84 299.32 257.074C299.473 256.724 299.597 256.362 299.693 255.992Z" fill="#263238"/>
<path d="M293.396 275.334C294.544 273.655 296.075 272.273 297.863 271.303C299.65 270.332 301.643 269.801 303.676 269.754C304.708 269.754 305.933 269.99 306.334 270.936C306.735 271.881 306.062 272.949 305.317 273.665C303.736 275.135 301.756 276.104 299.626 276.449C297.495 276.795 295.31 276.502 293.346 275.606" fill="url(#paint7_linear_234_6269)"/>
<path d="M301.9 272.29C301.677 272.256 301.45 272.256 301.226 272.29C300.964 272.304 300.703 272.337 300.446 272.39C300.103 272.439 299.763 272.508 299.428 272.598C298.549 272.821 297.694 273.133 296.878 273.529C295.879 274.022 294.935 274.62 294.063 275.313C293.208 276.025 292.431 276.825 291.742 277.698C291.189 278.42 290.709 279.195 290.309 280.012C290.15 280.32 290.011 280.639 289.893 280.965C289.79 281.196 289.706 281.436 289.643 281.681C289.562 281.891 289.512 282.11 289.492 282.333C289.564 282.333 289.829 281.438 290.545 280.098C290.97 279.319 291.461 278.578 292.014 277.885C293.373 276.181 295.083 274.791 297.028 273.808C297.821 273.408 298.648 273.079 299.5 272.827C300.954 272.433 301.907 272.361 301.9 272.29Z" fill="#263238"/>
<path d="M20.7497 124.042C30.779 119.615 35.5715 151.171 36.2163 153.629C36.861 156.086 38.566 156.38 41.4817 152.697C44.3973 149.015 46.9118 150.441 46.9118 150.441C52.3993 153.786 44.9561 173.257 45.0278 174.841C45.0994 176.424 43.9245 178.702 49.6269 175.478C55.3293 172.254 60.1147 170.535 60.9457 175.478C61.7051 179.977 55.8809 192.965 55.931 194.82C55.9812 196.676 61.8698 192.012 64.3485 190.465C67.5579 188.473 70.9822 188.609 71.5839 192.614C72.3648 197.865 61.9271 213.224 61.9271 213.224L56.9125 221.047L47.75 218.576C47.75 218.576 29.8405 213.518 27.0395 209.019C24.8903 205.559 27.3905 203.231 31.1157 202.658C33.9812 202.221 41.4817 201.941 40.3426 200.508C39.2036 199.076 26.3374 193.008 23.9805 189.097C21.4016 184.798 26.1297 182.993 32.5771 181.732C39.0245 180.471 36.6389 179.504 35.6575 178.258C34.6761 177.011 16.3654 167.054 18.3641 160.943C18.3641 160.943 19.3456 158.235 23.9519 159.13C28.5582 160.026 29.6829 158.701 28.551 156.408C27.4192 154.116 10.5986 127.037 21.072 123.87" fill="url(#paint8_linear_234_6269)"/>
<path d="M62.2347 235.697C62.0413 235.769 53.4806 212.837 43.1217 184.483C32.7629 156.129 24.4959 133.083 24.6964 133.011C24.897 132.94 33.4506 155.871 43.8166 184.232C54.1826 212.594 62.4281 235.625 62.2347 235.697Z" fill="white"/>
<path d="M38.4368 170.6C38.2506 170.528 39.0171 167.942 40.3782 164.926C41.7393 161.91 43.1434 159.603 43.3225 159.704C43.5016 159.804 42.3984 162.225 41.0588 165.227C39.7191 168.228 38.6589 170.664 38.4368 170.6Z" fill="white"/>
<path d="M26.1083 165.413C26.1513 165.22 29.0598 165.793 32.4268 167.161C35.7937 168.529 38.3011 170.12 38.2008 170.284C38.1005 170.449 35.4785 169.188 32.1545 167.849C28.8305 166.509 26.051 165.621 26.1083 165.413Z" fill="white"/>
<path d="M45.9447 191.518C45.7871 191.382 47.9291 188.652 50.7301 185.35C53.5311 182.047 55.9239 179.54 56.0815 179.669C56.2391 179.798 54.0971 182.534 51.296 185.837C48.495 189.14 46.1023 191.654 45.9447 191.518Z" fill="white"/>
<path d="M29.3462 188.158C29.3462 187.965 33.2648 188.287 37.9857 189.218C42.7067 190.15 46.439 191.31 46.3888 191.504C46.3387 191.697 42.5419 190.866 37.8424 189.949C33.143 189.032 29.296 188.373 29.3462 188.158Z" fill="white"/>
<path d="M34.4757 208.202C34.4757 207.995 38.5878 208.424 43.5952 209.162C48.6027 209.9 52.6359 210.66 52.6001 210.86C52.5643 211.061 48.4953 210.631 43.4878 209.9C38.4803 209.169 34.4471 208.403 34.4757 208.202Z" fill="white"/>
<path d="M53.0517 210.523C52.9156 210.344 55.688 208.116 58.5678 204.85C61.4477 201.583 63.3461 198.581 63.5323 198.696C63.7186 198.811 62.0996 202.027 59.1266 205.344C56.1536 208.661 53.152 210.681 53.0517 210.523Z" fill="white"/>
<path d="M302.451 75.3644C302.451 75.3644 302.451 75.1996 302.494 74.8915C302.537 74.5835 302.573 74.1179 302.637 73.5304C302.637 73.2295 302.73 72.8928 302.737 72.5203C302.745 72.1478 302.737 71.7395 302.737 71.3025C302.737 70.8655 302.737 70.3855 302.737 69.8697C302.737 69.3539 302.651 68.831 302.601 68.2579C302.313 65.4867 301.588 62.7786 300.452 60.2344C298.952 56.8714 296.754 53.8655 294.005 51.4158L292.83 50.3985C292.414 50.0833 291.977 49.7825 291.548 49.4744C290.656 48.8425 289.725 48.2683 288.761 47.7551C286.698 46.6833 284.501 45.8931 282.227 45.4054C281.047 45.1388 279.851 44.9521 278.646 44.8466C278.029 44.775 277.399 44.8036 276.769 44.7821H275.823C275.508 44.7821 275.193 44.8323 274.87 44.8538C272.235 44.997 269.64 45.5605 267.184 46.5229C261.877 48.5627 257.38 52.2775 254.375 57.1038C251.185 62.3087 249.889 68.4551 250.707 74.5047C250.764 74.9059 250.829 75.2999 250.9 75.6867V75.7655L250.857 75.83L242.418 87.55L242.246 87.2634L254.697 85.3363H254.804L254.869 85.4295C258.454 90.7981 263.909 94.6411 270.171 96.211C271.111 96.4591 272.069 96.6364 273.036 96.7411L274.469 96.9202C274.942 96.9775 275.415 96.956 275.902 96.9775C279.452 97.0777 282.985 96.4487 286.282 95.1292C289.096 93.9967 291.697 92.3956 293.976 90.394L295.445 89.0114L296.705 87.5786C297.101 87.1247 297.467 86.6462 297.802 86.1459C298.124 85.6659 298.518 85.2361 298.754 84.7632C299.729 83.2044 300.543 81.5507 301.183 79.8274L301.828 77.9361C301.957 77.3774 302.071 76.9046 302.157 76.5034L302.372 75.6437C302.422 75.4432 302.451 75.35 302.451 75.35C302.441 75.4489 302.424 75.547 302.401 75.6437C302.358 75.8515 302.3 76.1452 302.222 76.5177C302.143 76.8902 302.035 77.3845 301.914 77.9505L301.29 79.856C300.672 81.606 299.872 83.2867 298.905 84.8707C298.64 85.3507 298.274 85.7877 297.952 86.3035C297.617 86.8038 297.251 87.2824 296.856 87.7362L295.595 89.169L294.127 90.6017C291.838 92.6349 289.219 94.2629 286.382 95.4158C283.062 96.7431 279.505 97.377 275.931 97.2784C275.458 97.2784 274.971 97.2784 274.498 97.2282L273.065 97.0491C272.076 96.9455 271.097 96.7683 270.135 96.519C268.137 96.0236 266.203 95.3026 264.368 94.3699C260.446 92.3161 257.096 89.3203 254.618 85.6516L254.79 85.7232L242.339 87.6646L241.91 87.7291L242.168 87.3709C244.897 83.5741 247.719 79.6555 250.592 75.6509V75.7942C250.521 75.4002 250.449 74.999 250.392 74.5978C249.573 68.4582 250.896 62.2241 254.138 56.9462C257.182 52.0432 261.746 48.2696 267.133 46.2006C269.613 45.2268 272.232 44.6538 274.892 44.5027C275.214 44.5027 275.536 44.4454 275.859 44.4383H276.819C277.456 44.4383 278.087 44.4383 278.71 44.5027C279.94 44.6135 281.16 44.8074 282.364 45.083C285.731 45.8313 288.91 47.2599 291.705 49.281C292.142 49.5962 292.579 49.9042 293.002 50.2194L294.177 51.2582C299.101 55.6334 302.175 61.7194 302.773 68.2794C302.816 68.8525 302.859 69.3969 302.895 69.9055C302.931 70.4142 302.895 70.8941 302.895 71.3383C302.895 71.7824 302.895 72.1908 302.895 72.5633C302.895 72.9358 302.809 73.2797 302.78 73.5734C302.702 74.1608 302.637 74.6193 302.594 74.9345C302.551 75.2497 302.451 75.3644 302.451 75.3644Z" fill="#263238"/>
<path d="M285.121 60.8218L288.259 84.6414H264.97L268.358 60.8218H285.121Z" fill="url(#paint9_linear_234_6269)"/>
<path d="M270.257 64.2747C270.562 65.0702 270.959 65.8275 271.439 66.5313C271.98 67.2649 272.671 67.8754 273.466 68.3223C274.457 68.8445 275.563 69.1104 276.683 69.0959C277.8 69.1237 278.906 68.8777 279.906 68.3796C280.711 67.9507 281.397 67.3308 281.905 66.5743C282.36 65.8551 282.719 65.0796 282.973 64.2675C283 64.5104 282.968 64.7561 282.879 64.9839C282.718 65.6034 282.465 66.1951 282.127 66.7391C281.622 67.5588 280.914 68.2348 280.071 68.7019C279.025 69.2482 277.856 69.517 276.676 69.4828C275.497 69.4977 274.334 69.2065 273.301 68.6375C272.47 68.1574 271.759 67.4933 271.224 66.6961C270.865 66.1653 270.583 65.5865 270.386 64.9768C270.292 64.7549 270.248 64.5153 270.257 64.2747Z" fill="white"/>
<path d="M140.914 6.57762V63.5083L126.4 48.9944H20.7202V6.57762H140.914Z" fill="url(#paint10_linear_234_6269)"/>
<path d="M111.758 45.2764C120.605 45.2764 127.776 38.1047 127.776 29.2581C127.776 20.4115 120.605 13.2399 111.758 13.2399C102.911 13.2399 95.7397 20.4115 95.7397 29.2581C95.7397 38.1047 102.911 45.2764 111.758 45.2764Z" fill="url(#paint11_linear_234_6269)"/>
<path opacity="0.2" d="M111.758 45.2764C120.605 45.2764 127.776 38.1047 127.776 29.2581C127.776 20.4115 120.605 13.2399 111.758 13.2399C102.911 13.2399 95.7397 20.4115 95.7397 29.2581C95.7397 38.1047 102.911 45.2764 111.758 45.2764Z" fill="black"/>
<path d="M31.8311 24.0572C31.8311 23.9282 44.2244 23.8208 59.5119 23.8208C74.7995 23.8208 87.1928 23.9282 87.1928 24.0572C87.1928 24.1861 74.8066 24.2936 59.5119 24.2936C44.2172 24.2936 31.8311 24.2076 31.8311 24.0572Z" fill="white"/>
<path d="M31.8311 30.1537C31.8311 30.0247 44.2244 29.9173 59.5119 29.9173C74.7995 29.9173 87.1928 30.0247 87.1928 30.1537C87.1928 30.2826 74.8066 30.3829 59.5119 30.3829C44.2172 30.3829 31.8311 30.2826 31.8311 30.1537Z" fill="white"/>
<path d="M58.4229 36.1497C58.4229 36.0207 64.8703 35.9133 72.8077 35.9133C80.7452 35.9133 87.1926 36.0207 87.1926 36.1497C87.1926 36.2786 80.7452 36.3789 72.8077 36.3789C64.8703 36.3789 58.4229 36.2786 58.4229 36.1497Z" fill="white"/>
<path d="M57.3208 17.7602C57.3208 17.6313 64.0118 17.5238 72.2573 17.5238C80.5028 17.5238 87.1938 17.6313 87.1938 17.7602C87.1938 17.8892 80.51 17.9966 72.2573 17.9966C64.0046 17.9966 57.3208 17.9178 57.3208 17.7602Z" fill="white"/>
<path d="M113.162 28.9859C113.867 28.6594 114.461 28.133 114.869 27.472C115.278 26.8111 115.484 26.0447 115.461 25.2679C115.485 24.7593 115.405 24.2512 115.225 23.7748C115.045 23.2985 114.77 22.8639 114.416 22.4979C114.062 22.1319 113.637 21.8422 113.167 21.6465C112.697 21.4509 112.192 21.3535 111.683 21.3604C111.174 21.3673 110.671 21.4782 110.207 21.6864C109.742 21.8946 109.325 22.1957 108.981 22.5711C108.637 22.9465 108.374 23.3883 108.207 23.8693C108.04 24.3503 107.973 24.8604 108.011 25.3682C108.01 26.1525 108.242 26.9195 108.676 27.5723C109.111 28.2251 109.73 28.7345 110.454 29.036C104.723 30.0031 105.109 36.1998 105.109 36.1998L118.671 36.0135C118.671 36.0135 118.842 29.7381 113.162 28.9859Z" fill="white"/>
<path d="M117.274 87.8078V111.162L111.321 105.209H67.9658V87.8078H117.274Z" fill="url(#paint12_linear_234_6269)"/>
<path d="M89.4565 93.3884C89.4565 93.2809 94.2634 93.2021 100.202 93.2021C106.141 93.2021 110.948 93.2809 110.948 93.3884C110.948 93.4959 106.141 93.5747 100.202 93.5747C94.2634 93.5747 89.4565 93.4887 89.4565 93.3884Z" fill="white"/>
<path d="M103.964 98.2382C104.957 98.0506 105.971 97.9881 106.98 98.0519C107.991 97.988 109.007 98.0506 110.003 98.2382C109.006 98.4218 107.991 98.4843 106.98 98.4245C105.971 98.4841 104.958 98.4215 103.964 98.2382Z" fill="white"/>
<path d="M102.538 99.5779C102.437 99.5779 102.266 99.2699 102.065 98.8616C101.864 98.4532 101.7 98.1452 101.786 98.0592C101.872 97.9732 102.18 98.2598 102.394 98.6968C102.609 99.1338 102.638 99.5565 102.538 99.5779Z" fill="white"/>
<path d="M91.3843 98.0664C92.7611 97.8824 94.1515 97.82 95.5393 97.8801C96.9247 97.8199 98.3127 97.8822 99.6871 98.0664C98.3131 98.2549 96.9247 98.3172 95.5393 98.2527C94.1515 98.317 92.7607 98.2547 91.3843 98.0664Z" fill="white"/>
<path d="M90.3808 99.4919C90.2877 99.542 90.0298 99.2268 89.7934 98.7755C89.557 98.3242 89.4495 97.9445 89.5427 97.8944C89.6358 97.8442 89.8937 98.1666 90.1301 98.6107C90.3665 99.0549 90.474 99.4274 90.3808 99.4919Z" fill="white"/>
<path d="M78.3101 97.9946C79.7538 97.8062 81.2111 97.7439 82.6656 97.8084C84.1225 97.744 85.5823 97.8063 87.0284 97.9946C85.5819 98.1787 84.1225 98.241 82.6656 98.1809C81.2111 98.2412 79.7541 98.1789 78.3101 97.9946Z" fill="white"/>
<path d="M77.2291 98.7111C77.1431 98.7684 76.8781 98.5033 76.6345 98.1236C76.3909 97.744 76.2692 97.4073 76.3551 97.3428C76.4411 97.2783 76.7062 97.5434 76.9497 97.9231C77.1933 98.3027 77.3437 98.7111 77.2291 98.7111Z" fill="white"/>
<path d="M72.3286 97.6508C72.3286 97.5434 72.9089 97.4646 73.6253 97.4646C74.3416 97.4646 74.9291 97.5434 74.9291 97.6508C74.9291 97.7583 74.3416 97.8371 73.6253 97.8371C72.9089 97.8371 72.3286 97.7511 72.3286 97.6508Z" fill="white"/>
<defs>
<linearGradient id="paint0_linear_234_6269" x1="100.14" y1="191.662" x2="117.288" y2="191.662" gradientUnits="userSpaceOnUse">
<stop stop-color="#D4FC79"/>
<stop offset="1" stop-color="#96E6A1"/>
</linearGradient>
<linearGradient id="paint1_linear_234_6269" x1="155.115" y1="79.6434" x2="166.561" y2="79.6434" gradientUnits="userSpaceOnUse">
<stop stop-color="#D4FC79"/>
<stop offset="1" stop-color="#96E6A1"/>
</linearGradient>
<linearGradient id="paint2_linear_234_6269" x1="246.96" y1="180.834" x2="267.15" y2="180.834" gradientUnits="userSpaceOnUse">
<stop stop-color="#D4FC79"/>
<stop offset="1" stop-color="#96E6A1"/>
</linearGradient>
<linearGradient id="paint3_linear_234_6269" x1="215.698" y1="131.603" x2="248.279" y2="131.603" gradientUnits="userSpaceOnUse">
<stop stop-color="#D4FC79"/>
<stop offset="1" stop-color="#96E6A1"/>
</linearGradient>
<linearGradient id="paint4_linear_234_6269" x1="232.919" y1="78.4246" x2="233.88" y2="78.4246" gradientUnits="userSpaceOnUse">
<stop stop-color="#D4FC79"/>
<stop offset="1" stop-color="#96E6A1"/>
</linearGradient>
<linearGradient id="paint5_linear_234_6269" x1="293.68" y1="259.66" x2="302.685" y2="259.66" gradientUnits="userSpaceOnUse">
<stop stop-color="#D4FC79"/>
<stop offset="1" stop-color="#96E6A1"/>
</linearGradient>
<linearGradient id="paint6_linear_234_6269" x1="282.108" y1="267.576" x2="290.631" y2="267.576" gradientUnits="userSpaceOnUse">
<stop stop-color="#D4FC79"/>
<stop offset="1" stop-color="#96E6A1"/>
</linearGradient>
<linearGradient id="paint7_linear_234_6269" x1="293.346" y1="273.172" x2="306.454" y2="273.172" gradientUnits="userSpaceOnUse">
<stop stop-color="#D4FC79"/>
<stop offset="1" stop-color="#96E6A1"/>
</linearGradient>
<linearGradient id="paint8_linear_234_6269" x1="17.6523" y1="172.332" x2="71.6257" y2="172.332" gradientUnits="userSpaceOnUse">
<stop stop-color="#D4FC79"/>
<stop offset="1" stop-color="#96E6A1"/>
</linearGradient>
<linearGradient id="paint9_linear_234_6269" x1="264.97" y1="72.7316" x2="288.259" y2="72.7316" gradientUnits="userSpaceOnUse">
<stop stop-color="#D4FC79"/>
<stop offset="1" stop-color="#96E6A1"/>
</linearGradient>
<linearGradient id="paint10_linear_234_6269" x1="20.7202" y1="35.0429" x2="140.914" y2="35.0429" gradientUnits="userSpaceOnUse">
<stop stop-color="#D4FC79"/>
<stop offset="1" stop-color="#96E6A1"/>
</linearGradient>
<linearGradient id="paint11_linear_234_6269" x1="95.7397" y1="29.2581" x2="127.776" y2="29.2581" gradientUnits="userSpaceOnUse">
<stop stop-color="#D4FC79"/>
<stop offset="1" stop-color="#96E6A1"/>
</linearGradient>
<linearGradient id="paint12_linear_234_6269" x1="67.9658" y1="99.4848" x2="117.274" y2="99.4848" gradientUnits="userSpaceOnUse">
<stop stop-color="#D4FC79"/>
<stop offset="1" stop-color="#96E6A1"/>
</linearGradient>
</defs>
</svg>
