<svg width="316" height="321" viewBox="0 0 316 321" fill="none" xmlns="http://www.w3.org/2000/svg">
<path d="M174.887 320.053C250.203 320.053 311.259 284.843 311.259 241.409C311.259 197.975 250.203 162.765 174.887 162.765C99.5706 162.765 38.5146 197.975 38.5146 241.409C38.5146 284.843 99.5706 320.053 174.887 320.053Z" fill="#F5F5F5"/>
<path d="M284.485 260.497C301.89 260.497 316 252.361 316 242.324C316 232.287 301.89 224.15 284.485 224.15C267.08 224.15 252.971 232.287 252.971 242.324C252.971 252.361 267.08 260.497 284.485 260.497Z" fill="#E0E0E0"/>
<path d="M188.792 192.046L151.665 213.456L198.154 240.327L235.281 218.855L188.792 192.046Z" fill="#E0E0E0"/>
<path d="M46.9439 263.927C53.5143 267.763 53.5143 273.975 46.9439 277.804C40.3735 281.633 29.7078 281.633 23.1512 277.804C16.5945 273.975 16.5807 267.763 23.1512 263.927C29.7216 260.092 40.3735 260.098 46.9439 263.927Z" fill="#E0E0E0"/>
<path d="M160.876 22.712V195.584L56.3145 255.876V83.0172L160.876 22.712Z" fill="url(#paint0_linear_473_7608)"/>
<path opacity="0.25" d="M160.876 22.712V195.584L56.3145 255.876V83.0172L160.876 22.712Z" fill="black"/>
<path opacity="0.15" d="M160.875 22.7118L134.876 37.5729L134.869 180.578L160.875 195.584V22.7118Z" fill="black"/>
<path d="M134.87 180.579L164.399 197.602L56.3145 259.939V135.3L134.87 180.579Z" fill="url(#paint1_linear_473_7608)"/>
<path opacity="0.8" d="M134.87 180.579L164.399 197.602L56.3145 259.939V135.3L134.87 180.579Z" fill="white"/>
<path opacity="0.1" d="M63.9248 231.05L96.4459 249.802L154.987 216.044L122.466 197.292L63.9248 231.05Z" fill="black"/>
<path d="M65.3311 227.993L96.8456 246.166L153.58 213.455L122.066 195.275L65.3311 227.993Z" fill="url(#paint2_linear_473_7608)"/>
<path opacity="0.1" d="M65.3311 227.993L96.8456 246.166L153.58 213.455L122.066 195.275L65.3311 227.993Z" fill="black"/>
<path d="M65.3311 227.993V229.639L96.8456 247.819V246.167L65.3311 227.993Z" fill="url(#paint3_linear_473_7608)"/>
<path opacity="0.35" d="M65.3311 227.993V229.639L96.8456 247.819V246.167L65.3311 227.993Z" fill="black"/>
<path d="M96.8457 246.166L153.58 213.455V215.101L96.8457 247.819V246.166Z" fill="url(#paint4_linear_473_7608)"/>
<path opacity="0.2" d="M96.8457 246.166L153.58 213.455V215.101L96.8457 247.819V246.166Z" fill="black"/>
<path d="M90.2325 231.622L87.5229 229.328C87.4402 229.259 87.4126 229.197 87.4333 229.142C87.4567 229.079 87.5036 229.027 87.5643 228.998L88.8605 228.247C88.9271 228.215 89.0002 228.199 89.0742 228.199C89.1513 228.197 89.2275 228.216 89.2948 228.254C89.3198 228.267 89.343 228.283 89.3637 228.302L94.3347 232.641C94.3733 232.667 94.4037 232.703 94.422 232.746C94.4404 232.789 94.446 232.836 94.4381 232.882C94.4235 232.939 94.396 232.993 94.3578 233.038C94.3196 233.083 94.2716 233.119 94.2175 233.143L93.397 233.619C93.2631 233.697 93.1107 233.737 92.9558 233.736C92.8118 233.739 92.668 233.722 92.5283 233.687L89.5499 232.827L91.046 234.541C91.1016 234.612 91.1309 234.7 91.1287 234.789C91.1287 234.886 91.0529 234.968 90.9219 235.044L90.1015 235.519C89.9623 235.597 89.806 235.64 89.6464 235.643C89.5056 235.655 89.364 235.634 89.2328 235.581L81.7109 232.716L81.6213 232.675C81.5953 232.666 81.5728 232.65 81.5568 232.628C81.5408 232.605 81.5322 232.579 81.5322 232.551C81.5322 232.524 81.5408 232.497 81.5568 232.475C81.5728 232.453 81.5953 232.436 81.6213 232.427L82.9174 231.677C82.9946 231.636 83.0789 231.61 83.1656 231.601C83.2765 231.593 83.3877 231.612 83.4897 231.656L87.4609 233.219L86.2544 231.842C86.2171 231.797 86.1889 231.746 86.1716 231.69C86.1716 231.622 86.1716 231.553 86.3095 231.484L87.2334 230.947C87.3401 230.88 87.4672 230.853 87.5919 230.871C87.6828 230.879 87.7728 230.895 87.8608 230.919L90.2325 231.622Z" fill="#FAFAFA"/>
<path d="M100.342 227.786C100.424 227.741 100.517 227.72 100.611 227.724C100.702 227.721 100.793 227.742 100.873 227.786L101.921 228.392C101.952 228.403 101.98 228.425 101.999 228.452C102.018 228.48 102.029 228.513 102.029 228.547C102.029 228.58 102.018 228.613 101.999 228.641C101.98 228.669 101.952 228.69 101.921 228.702L97.2394 231.408C97.1565 231.451 97.0639 231.472 96.9705 231.47C96.876 231.474 96.7824 231.45 96.7016 231.401L90.3173 227.724C90.2857 227.711 90.2586 227.689 90.239 227.661C90.2195 227.633 90.2084 227.599 90.207 227.565C90.2082 227.533 90.2186 227.501 90.2369 227.475C90.2552 227.448 90.2807 227.427 90.3105 227.414L94.9228 224.756C95.0052 224.711 95.0981 224.69 95.1917 224.694C95.283 224.69 95.3735 224.712 95.4537 224.756L96.5017 225.362C96.5342 225.371 96.5626 225.392 96.5829 225.419C96.6031 225.446 96.614 225.479 96.614 225.513C96.614 225.547 96.6031 225.58 96.5829 225.607C96.5626 225.635 96.5342 225.655 96.5017 225.665L93.4612 227.421L94.5299 228.04L97.3566 226.408C97.4368 226.365 97.5273 226.343 97.6186 226.346C97.7122 226.342 97.8051 226.364 97.8875 226.408L98.9354 227.014C98.9665 227.026 98.9934 227.047 99.013 227.074C99.0326 227.101 99.0439 227.133 99.0457 227.166C99.0457 227.228 99.0113 227.276 98.9354 227.324L96.1087 228.949L97.2187 229.59L100.342 227.786Z" fill="#FAFAFA"/>
<path d="M106.616 224.184C106.7 224.143 106.792 224.122 106.885 224.122C106.978 224.122 107.07 224.143 107.154 224.184L108.202 224.79C108.232 224.804 108.258 224.825 108.278 224.851C108.297 224.878 108.309 224.909 108.312 224.942C108.31 224.976 108.298 225.008 108.278 225.036C108.259 225.064 108.233 225.086 108.202 225.1L103.624 227.738C103.54 227.778 103.448 227.8 103.355 227.8C103.262 227.8 103.17 227.778 103.086 227.738L96.7021 224.053C96.671 224.042 96.6441 224.021 96.6245 223.994C96.6049 223.967 96.5936 223.935 96.5918 223.902C96.5918 223.84 96.6263 223.792 96.7021 223.744L97.9983 223C98.0785 222.956 98.1689 222.935 98.2603 222.938C98.3538 222.934 98.4468 222.955 98.5291 223L103.603 225.927L106.616 224.184Z" fill="#FAFAFA"/>
<path d="M106.491 221.12L106.835 221.333L107.297 221.602L107.773 221.877L108.152 222.077C108.322 222.156 108.497 222.223 108.676 222.277C108.867 222.329 109.064 222.357 109.262 222.359C109.473 222.363 109.684 222.34 109.89 222.29C110.119 222.229 110.339 222.139 110.545 222.022C110.725 221.929 110.887 221.803 111.02 221.65C111.099 221.561 111.156 221.455 111.186 221.34C111.202 221.248 111.187 221.154 111.144 221.071C111.108 220.993 111.059 220.921 111 220.858C110.944 220.806 110.906 220.739 110.889 220.665C110.889 220.617 110.938 220.562 111.048 220.493L112.344 219.749C112.411 219.712 112.488 219.693 112.565 219.694C112.64 219.692 112.714 219.712 112.778 219.749C113.066 219.912 113.305 220.15 113.468 220.438C113.605 220.688 113.647 220.979 113.585 221.257C113.512 221.579 113.355 221.876 113.13 222.118C112.841 222.445 112.498 222.72 112.117 222.931C111.65 223.2 111.149 223.406 110.627 223.544C110.127 223.672 109.613 223.744 109.097 223.757C108.605 223.772 108.114 223.724 107.635 223.613C107.192 223.519 106.763 223.366 106.36 223.158C106.077 223.013 105.781 222.848 105.47 222.669C105.16 222.49 104.871 222.318 104.595 222.146C104.281 221.959 104.011 221.708 103.802 221.409C103.63 221.163 103.543 220.868 103.554 220.569C103.589 220.242 103.721 219.932 103.933 219.68C104.231 219.332 104.591 219.043 104.995 218.826C105.428 218.573 105.891 218.374 106.373 218.234C106.86 218.097 107.359 218.009 107.863 217.973C108.339 217.939 108.818 217.963 109.29 218.041C109.708 218.109 110.111 218.246 110.483 218.448C110.508 218.458 110.529 218.475 110.545 218.497C110.561 218.519 110.57 218.545 110.572 218.572C110.572 218.6 110.563 218.627 110.547 218.65C110.531 218.674 110.509 218.692 110.483 218.702L109.186 219.446C109.099 219.502 109 219.535 108.897 219.543C108.785 219.531 108.674 219.508 108.566 219.474L108.194 219.391C108.04 219.373 107.885 219.373 107.732 219.391C107.545 219.402 107.36 219.434 107.18 219.488C106.958 219.549 106.745 219.64 106.546 219.756C106.366 219.851 106.207 219.979 106.077 220.135C105.995 220.239 105.951 220.368 105.953 220.5C105.963 220.626 106.017 220.746 106.105 220.837C106.221 220.947 106.351 221.042 106.491 221.12Z" fill="#FAFAFA"/>
<path d="M111.565 218.138C111.251 217.947 110.978 217.694 110.765 217.394C110.587 217.152 110.499 216.854 110.517 216.554C110.551 216.232 110.681 215.928 110.889 215.679C111.193 215.326 111.56 215.031 111.972 214.812C112.439 214.537 112.943 214.328 113.468 214.192C113.968 214.059 114.481 213.985 114.998 213.972C115.485 213.957 115.972 214.005 116.446 214.116C116.894 214.215 117.327 214.37 117.735 214.578C118.032 214.736 118.335 214.901 118.646 215.08C118.956 215.259 119.238 215.431 119.494 215.59C119.806 215.783 120.078 216.036 120.293 216.334C120.471 216.577 120.561 216.873 120.548 217.174C120.514 217.499 120.382 217.806 120.169 218.055C119.864 218.405 119.497 218.697 119.087 218.916C118.618 219.19 118.115 219.401 117.591 219.543C117.093 219.674 116.582 219.746 116.067 219.756C115.578 219.768 115.089 219.72 114.612 219.612C114.165 219.513 113.731 219.358 113.323 219.15C113.04 218.999 112.744 218.84 112.434 218.661C112.123 218.482 111.834 218.303 111.565 218.138ZM117.646 216.616L117.267 216.382L116.832 216.113L116.384 215.865L115.984 215.659C115.805 215.575 115.618 215.508 115.426 215.459C115.23 215.41 115.028 215.385 114.826 215.383C114.614 215.384 114.403 215.412 114.199 215.466C113.982 215.524 113.773 215.61 113.578 215.721C113.408 215.812 113.256 215.933 113.13 216.079C113.049 216.184 113.003 216.311 112.999 216.444C112.997 216.569 113.038 216.69 113.116 216.788C113.213 216.914 113.333 217.021 113.468 217.105C113.571 217.181 113.688 217.256 113.826 217.339L114.261 217.601L114.709 217.856L115.129 218.069C115.494 218.242 115.891 218.336 116.295 218.344C116.731 218.348 117.161 218.232 117.536 218.007C117.942 217.766 118.135 217.532 118.115 217.318C118.096 217.173 118.045 217.034 117.963 216.912C117.882 216.79 117.773 216.689 117.646 216.616Z" fill="#FAFAFA"/>
<path d="M124.382 213.737H124.085L121.52 213.331L124.795 215.218C124.825 215.231 124.852 215.252 124.871 215.279C124.89 215.305 124.902 215.337 124.906 215.369C124.903 215.403 124.891 215.436 124.872 215.463C124.852 215.491 124.826 215.513 124.795 215.528L123.499 216.272C123.416 216.315 123.324 216.337 123.23 216.333C123.139 216.337 123.048 216.315 122.968 216.272L116.577 212.587C116.547 212.574 116.521 212.553 116.501 212.526C116.482 212.5 116.47 212.468 116.467 212.436C116.467 212.374 116.501 212.326 116.577 212.277L117.722 211.589C117.844 211.515 117.986 211.479 118.128 211.485H118.418L122.755 212.14L121.624 209.64C121.605 209.587 121.593 209.531 121.589 209.475C121.589 209.392 121.645 209.316 121.776 209.24L122.927 208.552C123.007 208.508 123.098 208.487 123.189 208.49C123.282 208.486 123.375 208.507 123.458 208.552L129.849 212.236C129.918 212.277 129.959 212.326 129.952 212.388C129.945 212.449 129.952 212.498 129.849 212.539L128.553 213.29C128.47 213.333 128.377 213.354 128.284 213.352C128.193 213.355 128.102 213.333 128.022 213.29L124.747 211.403L125.436 212.876C125.444 212.934 125.444 212.991 125.436 213.049C125.436 213.117 125.388 213.173 125.285 213.235L124.657 213.6C124.577 213.666 124.483 213.713 124.382 213.737Z" fill="#FAFAFA"/>
<path d="M134.883 207.877C134.963 207.833 135.054 207.812 135.145 207.815C135.238 207.813 135.331 207.834 135.414 207.877L136.462 208.483C136.493 208.495 136.52 208.516 136.539 208.543C136.559 208.569 136.57 208.601 136.572 208.635C136.569 208.667 136.557 208.699 136.537 208.725C136.518 208.752 136.492 208.773 136.462 208.786L131.774 211.492C131.691 211.537 131.598 211.559 131.505 211.554C131.413 211.558 131.323 211.536 131.243 211.492L124.852 207.808C124.821 207.794 124.794 207.772 124.775 207.744C124.756 207.716 124.744 207.684 124.741 207.65C124.744 207.617 124.755 207.585 124.775 207.558C124.794 207.532 124.821 207.511 124.852 207.498L129.457 204.84C129.54 204.797 129.632 204.776 129.726 204.778C129.819 204.775 129.912 204.796 129.995 204.84L131.043 205.446C131.074 205.458 131.102 205.479 131.121 205.507C131.14 205.534 131.151 205.567 131.151 205.601C131.151 205.635 131.14 205.668 131.121 205.695C131.102 205.723 131.074 205.744 131.043 205.756L127.989 207.512L129.057 208.125L131.884 206.493C131.968 206.452 132.06 206.431 132.153 206.431C132.246 206.431 132.338 206.452 132.422 206.493L133.47 207.099C133.501 207.111 133.529 207.132 133.548 207.159C133.567 207.187 133.577 207.22 133.577 207.254C133.577 207.288 133.567 207.321 133.548 207.348C133.529 207.376 133.501 207.397 133.47 207.409L130.643 209.041L131.746 209.674L134.883 207.877Z" fill="#FAFAFA"/>
<path d="M119.289 128.192C117.91 128.537 114.614 129.191 114.614 129.191C114.614 129.191 116.386 126.939 115.662 126.436C114.938 125.934 114.428 127.49 112.346 128.344C110.264 129.198 109.45 130.279 108.168 130.293L92.3107 130.513C92.3107 130.513 81.2795 117.332 79.4594 115.996C78.7852 115.447 77.9997 115.049 77.1571 114.832C76.3144 114.614 75.4346 114.582 74.5781 114.736L76.805 126.443L85.9333 135.527C88.0568 137.634 88.8841 138.357 91.7177 138.212C94.9375 138.047 103.094 136.773 107.796 136.002C110.884 135.747 111.932 135.871 114.09 135.506C116.414 135.12 118.861 135.113 120.488 132.173C122.37 128.757 121.336 127.697 119.289 128.192Z" fill="#FAFAFA"/>
<path d="M88.6504 64.7954V207.257L134.871 180.579V38.1515L88.6504 64.7954Z" fill="#455A64"/>
<path d="M90.4766 130.741C90.5066 130.171 90.6708 129.616 90.956 129.122C91.2412 128.628 91.6392 128.208 92.1177 127.896C93.0279 127.373 93.7588 127.8 93.7588 128.847C93.7132 129.709 93.3612 130.527 92.7659 131.154V132.531C92.7545 132.724 92.6981 132.912 92.6011 133.079C92.5042 133.247 92.3693 133.389 92.2073 133.495L92.0143 133.605C91.7109 133.784 91.4626 133.605 91.4626 133.282V131.904C90.8834 131.953 90.4766 131.519 90.4766 130.741Z" fill="#263238"/>
<path d="M106.949 61.0631L95.1523 67.867V121.94L106.949 115.136V61.0631Z" fill="url(#paint5_linear_473_7608)"/>
<path opacity="0.3" d="M106.949 61.0631L95.1523 67.867V121.94L106.949 115.136V61.0631Z" fill="black"/>
<path d="M126.495 49.7688L114.691 56.5727V110.646L126.495 103.842V49.7688Z" fill="url(#paint6_linear_473_7608)"/>
<path opacity="0.3" d="M126.495 49.7688L114.691 56.5727V110.646L126.495 103.842V49.7688Z" fill="black"/>
<path d="M106.949 115.136L108.817 116.21L95.1523 124.095V121.94L106.949 115.136Z" fill="#263238"/>
<path d="M126.494 103.842L128.362 104.923L114.698 112.801L112.829 111.72L126.494 103.842Z" fill="#263238"/>
<path d="M126.494 103.842V49.7486L128.37 48.6674L128.363 104.917L126.494 103.842Z" fill="#37474F"/>
<path d="M108.816 116.21L114.698 112.801V56.5727L108.816 59.9815V116.21Z" fill="#455A64"/>
<path d="M108.817 116.21L106.948 115.136V61.0631L108.817 59.9819V116.21Z" fill="#37474F"/>
<path opacity="0.1" d="M108.817 125.183L95.1523 133.061V193.587L108.817 185.702V125.183Z" fill="black"/>
<path d="M107.501 129.536L98.1719 134.914V188.243L107.501 182.865V129.536Z" fill="#455A64"/>
<path d="M95.1523 133.062L98.1726 134.914V188.243L95.1523 193.587V133.062Z" fill="#37474F"/>
<path d="M108.817 125.183L107.5 129.535V182.865L108.817 185.702V125.183Z" fill="#37474F"/>
<path d="M108.817 185.702L107.5 182.865L98.1721 188.243L95.1523 193.587L108.817 185.702Z" fill="#263238"/>
<path opacity="0.1" d="M128.371 113.882L114.699 121.767V182.293L128.371 174.408V113.882Z" fill="black"/>
<path d="M127.054 118.241L117.725 123.62V176.949L127.054 171.571V118.241Z" fill="#455A64"/>
<path d="M114.699 121.767L117.726 123.62V176.949L114.699 182.293V121.767Z" fill="#37474F"/>
<path d="M128.37 113.882L127.053 118.241V171.571L128.37 174.408V113.882Z" fill="#37474F"/>
<path d="M128.371 174.408L127.054 171.571L117.726 176.949L114.699 182.293L128.371 174.408Z" fill="#263238"/>
<path d="M86.6436 206.141L88.6501 207.257V64.7956L86.6436 65.9318V206.141Z" fill="#263238"/>
<path opacity="0.1" d="M134.87 37.573V53.653L56.3145 99.0972V83.0172L134.87 37.573Z" fill="black"/>
<path opacity="0.1" d="M71.8754 237.51C75.5984 238.033 78.7698 239.989 82.3619 240.746C84.7198 241.235 87.2569 241.387 89.4356 240.347C90.125 240.009 91.173 239.279 91.4074 238.529C91.7659 237.393 90.8696 236.463 90.1457 235.774C89.2466 234.94 88.3005 234.159 87.3121 233.433C85.2457 232.046 83.0007 230.946 80.6382 230.162C78.5699 229.397 76.5016 228.695 74.385 228.096C72.422 227.635 70.4214 227.351 68.4075 227.249C63.8554 226.736 59.2479 227.058 54.8116 228.199C50.5233 229.39 46.5383 230.54 43.3875 233.908C42.2573 234.982 41.5071 236.393 41.2502 237.93C41.2115 238.787 41.3577 239.643 41.6789 240.439C42.0001 241.235 42.4887 241.953 43.1117 242.544C44.0693 243.582 45.2323 244.411 46.527 244.978C47.8217 245.544 49.22 245.836 50.6336 245.835C51.6317 245.821 52.6165 245.604 53.5288 245.199C54.4411 244.795 55.2621 244.21 55.9423 243.48C57.2798 241.965 58.3071 240.195 60.079 239.094C63.4848 236.959 68.0076 237 71.8754 237.51Z" fill="black"/>
<path d="M64.368 111.045C64.2508 112.346 64.4439 113.717 62.1684 114.667C62.1684 114.667 63.313 117.987 60.6583 119.088C60.6583 119.088 61.5616 122.201 59.355 123.22C59.5623 123.87 59.557 124.568 59.3401 125.215C59.1231 125.861 58.7057 126.422 58.1483 126.815C58.588 127.417 58.8203 128.145 58.8104 128.89C58.8004 129.635 58.5488 130.357 58.0932 130.947C58.3413 131.138 58.5441 131.382 58.6871 131.66C58.8301 131.939 58.9099 132.246 58.9206 132.558C59.0172 133.715 58.5069 135.1 57.376 135.361C57.5789 135.115 57.6898 134.806 57.6898 134.487C57.6898 134.168 57.5789 133.858 57.376 133.612C56.6451 132.779 56.321 131.732 57.1002 130.968C57.1002 130.968 54.3972 130.148 55.9625 126.994C55.6481 126.698 55.4098 126.331 55.2677 125.923C55.1257 125.516 55.084 125.08 55.1462 124.653C55.2084 124.226 55.3728 123.82 55.6253 123.47C55.8778 123.12 56.2111 122.836 56.5968 122.642C56.5968 122.642 55.1419 119.378 57.8725 118.186C57.8725 118.186 56.2797 116.286 58.3759 114.054C58.3759 114.054 56.3831 110.687 60.5755 107.788L64.368 111.045Z" fill="#263238"/>
<path d="M79.7611 225.657C79.9078 225.385 79.9792 225.078 79.9679 224.769C79.9645 224.433 79.9783 224.098 80.0093 223.763C80.1748 221.215 82.2018 197.023 82.7051 191.466C83.5531 182.134 83.5944 157.185 81.7191 149.148L56.582 151.138C54.7825 155.663 53.4726 161.227 53.7759 169.959C54.0034 176.618 53.9 194.682 53.9 194.682C51.6305 196.915 49.859 199.602 48.7016 202.567C46.7918 207.201 45.3578 218.406 44.3029 222.923C44.103 223.777 43.8755 224.989 43.8755 224.989C43.333 225.746 43.0326 226.648 43.0137 227.579C43.0224 230.346 43.3229 233.104 43.91 235.808C44.0525 236.467 44.3666 237.077 44.8205 237.577C45.2744 238.076 45.8521 238.447 46.4954 238.652C46.8027 238.78 47.1355 238.834 47.4675 238.811C47.6423 238.809 47.8109 238.746 47.9432 238.631C48.1776 238.397 47.9432 237.84 47.9432 237.557C47.8682 237.102 47.8245 236.641 47.8122 236.18C47.8122 235.278 47.8122 234.183 47.8674 233.281C47.9787 231.28 48.2905 229.296 48.7981 227.358L49.2807 226.208C49.2807 226.208 60.0361 204.399 63.0696 199.075C65.4965 194.909 67.9647 178.712 69.6745 169.863L72.6529 190.991C71.9305 193.189 71.3954 195.444 71.0534 197.732C70.6122 201.651 72.8598 216.753 73.7009 222.214C73.8237 223.014 73.8676 223.823 73.8319 224.631C73.7907 224.875 73.7907 225.124 73.8319 225.368C73.9347 225.62 74.1099 225.835 74.3352 225.988C74.79 226.213 75.2687 226.386 75.7623 226.504C76.4364 226.683 77.1388 226.73 77.8307 226.642C78.0927 226.601 78.3409 226.511 78.6028 226.463C78.9005 226.404 79.1768 226.266 79.4026 226.064C79.5471 225.952 79.6688 225.814 79.7611 225.657Z" fill="#FFA8A7"/>
<path d="M51.4185 243.81H51.2255C49.5387 244.024 47.8256 243.866 46.2063 243.349C44.7665 242.88 43.4738 242.044 42.4557 240.925C42.055 240.378 41.7539 239.765 41.5663 239.113C41.3572 238.438 41.2004 237.747 41.0975 237.048C40.67 234.823 41.2699 234.196 40.6011 232.007C40.2958 231.245 40.0447 230.462 39.8496 229.665C39.9593 229.255 40.1543 228.873 40.4218 228.543L43.1796 232.399L45.0067 234.961L45.9788 236.338C46.1925 236.641 46.358 237.027 46.5993 237.316C46.9709 237.655 47.3887 237.941 47.8403 238.163C48.2884 238.445 48.7503 238.714 49.2192 238.962C50.1368 239.458 51.083 239.9 52.0528 240.284C52.4632 240.423 52.8547 240.613 53.218 240.849C53.3992 240.971 53.5518 241.131 53.6649 241.317C53.778 241.504 53.849 241.713 53.8729 241.93C53.8727 242.306 53.7241 242.668 53.4593 242.935C52.9005 243.454 52.1794 243.763 51.4185 243.81Z" fill="#37474F"/>
<path d="M48.6121 227.669L49.074 226.739C49.4532 227.056 48.9224 228.984 48.8534 230.995C48.8281 231.893 48.8858 232.792 49.0258 233.68C49.1499 234.494 49.4614 235.267 49.9358 235.939C50.6348 237.019 51.5085 237.976 52.5213 238.77C52.9939 239.064 53.3887 239.468 53.6726 239.947C53.8293 240.213 53.9204 240.512 53.9383 240.82C53.9563 241.127 53.9007 241.435 53.7761 241.717C53.5455 242.115 53.1853 242.421 52.7557 242.585C52.1743 242.812 51.5593 242.942 50.9355 242.97C48.9335 243.13 46.9263 242.732 45.1373 241.82C44.1673 241.322 43.3305 240.6 42.6967 239.713C42.2448 238.917 41.9543 238.039 41.8418 237.131C41.5108 235.554 41.6211 233.942 41.4281 232.73C41.235 231.518 40.2491 229.776 40.4215 228.598C40.518 227.944 41.3798 226.842 42.1796 225.961C42.9793 225.079 43.717 224.218 43.9928 224.473L43.8825 225.024C44.282 225.991 45.016 226.783 45.9509 227.255C46.7615 227.702 47.704 227.848 48.6121 227.669Z" fill="#455A64"/>
<path d="M50.0828 236.312C50.1331 236.306 50.1806 236.285 50.2188 236.252C50.257 236.219 50.2842 236.175 50.2965 236.125C50.3048 236.094 50.3067 236.061 50.3022 236.028C50.2976 235.996 50.2867 235.965 50.2701 235.936C50.2534 235.908 50.2313 235.884 50.2051 235.864C50.1789 235.844 50.149 235.83 50.1172 235.822C48.7037 235.457 46.1179 235.546 44.9043 236.208C44.8757 236.224 44.8506 236.245 44.8303 236.271C44.81 236.296 44.7949 236.326 44.7859 236.357C44.777 236.389 44.7743 236.421 44.778 236.454C44.7817 236.486 44.7918 236.518 44.8077 236.546C44.8228 236.575 44.8438 236.601 44.8692 236.622C44.8947 236.643 44.9242 236.658 44.9558 236.667C44.9875 236.676 45.0206 236.679 45.0533 236.675C45.0859 236.67 45.1173 236.659 45.1456 236.643C46.2351 236.043 48.6899 235.953 49.9724 236.305L50.0828 236.312Z" fill="#E0E0E0"/>
<path d="M49.3923 234.384C49.4421 234.381 49.4899 234.362 49.5292 234.332C49.5686 234.301 49.5978 234.259 49.6129 234.211C49.6236 234.181 49.6279 234.148 49.6257 234.116C49.6234 234.083 49.6146 234.051 49.5998 234.022C49.585 233.993 49.5645 233.968 49.5395 233.947C49.5145 233.926 49.4855 233.91 49.4543 233.901C47.8681 233.435 46.1732 233.501 44.6275 234.087C44.5932 234.098 44.5615 234.115 44.5346 234.139C44.5078 234.163 44.4864 234.192 44.472 234.225C44.4576 234.258 44.4505 234.294 44.4512 234.33C44.4519 234.365 44.4604 234.401 44.476 234.433C44.4916 234.465 44.5141 234.494 44.5418 234.517C44.5696 234.539 44.6019 234.556 44.6366 234.565C44.6713 234.574 44.7076 234.576 44.7429 234.569C44.7783 234.563 44.8118 234.549 44.8413 234.529C46.2807 234.002 47.8502 233.947 49.3233 234.37C49.3452 234.379 49.3686 234.384 49.3923 234.384Z" fill="#E0E0E0"/>
<path d="M48.9992 232.408C49.0436 232.408 49.0872 232.396 49.1251 232.373C49.1629 232.35 49.1934 232.316 49.213 232.277C49.2288 232.248 49.2389 232.217 49.2427 232.184C49.2464 232.152 49.2437 232.119 49.2348 232.088C49.2258 232.056 49.2107 232.027 49.1904 232.001C49.1701 231.976 49.145 231.955 49.1164 231.939C47.6084 231.348 45.9299 231.365 44.4344 231.987C44.405 232.001 44.3786 232.021 44.3568 232.045C44.3349 232.069 44.3181 232.097 44.3072 232.128C44.2963 232.159 44.2916 232.191 44.2933 232.224C44.295 232.257 44.3031 232.289 44.3172 232.318C44.3467 232.376 44.3981 232.42 44.46 232.441C44.522 232.462 44.5896 232.457 44.6482 232.428C45.9989 231.873 47.5103 231.854 48.8751 232.373C48.9132 232.394 48.9557 232.406 48.9992 232.408Z" fill="#E0E0E0"/>
<path d="M91.1792 236.6C91.2201 237.009 91.1546 237.422 90.9892 237.798C90.8237 238.174 90.5638 238.502 90.2347 238.749C88.3756 239.813 86.1963 240.177 84.0917 239.775C80.5273 238.879 79.8309 237.922 78.5761 236.634C77.018 234.995 77.1972 234.141 75.4392 232.661C74.7711 232.183 74.1375 231.658 73.5432 231.091C73.3977 230.548 73.3419 229.985 73.3777 229.424L91.1792 236.6Z" fill="#37474F"/>
<path d="M79.8994 224.528L80.0097 223.764C80.4923 223.826 80.8715 225.465 81.8988 227.207C82.7917 228.623 83.9284 229.871 85.2564 230.891C87.3247 232.441 89.8757 233.97 91.0408 235.712C92.206 237.454 88.5864 239.086 85.8424 239.024C84.6175 239.002 83.4091 238.737 82.2872 238.246C81.1653 237.754 80.1522 237.045 79.3065 236.159C78.1758 235.009 77.3967 233.591 76.5487 232.675C75.7007 231.759 73.9633 230.822 73.4669 229.721C73.185 228.678 73.1496 227.584 73.3634 226.525C73.5427 225.444 73.4806 223.957 73.8461 224.019C73.8461 224.122 73.8461 224.604 73.8461 224.604C74.9056 225.289 76.149 225.635 77.4105 225.596C78.3415 225.55 79.225 225.171 79.8994 224.528Z" fill="#455A64"/>
<path d="M87.0901 232.069C87.1337 232.043 87.1688 232.006 87.1909 231.96C87.213 231.915 87.2211 231.864 87.2142 231.814C87.2092 231.782 87.1979 231.752 87.1809 231.724C87.1639 231.697 87.1415 231.673 87.1151 231.655C87.0888 231.636 87.0589 231.623 87.0274 231.616C86.9959 231.609 86.9632 231.608 86.9315 231.614C85.4835 231.835 83.1459 232.943 82.2977 234.038C82.2776 234.064 82.2629 234.093 82.2544 234.125C82.246 234.156 82.2439 234.189 82.2484 234.221C82.2529 234.253 82.2639 234.284 82.2807 234.312C82.2974 234.34 82.3197 234.364 82.346 234.383C82.3975 234.422 82.4624 234.44 82.5268 234.432C82.5913 234.425 82.6501 234.392 82.6908 234.341C83.4562 233.357 85.6765 232.31 87.0074 232.103L87.0901 232.069Z" fill="#E0E0E0"/>
<path d="M85.1327 230.719C85.1764 230.696 85.2118 230.659 85.234 230.615C85.2562 230.571 85.2642 230.52 85.2568 230.471C85.2466 230.407 85.2112 230.348 85.1582 230.31C85.1052 230.271 85.039 230.255 84.9741 230.265C83.3431 230.564 81.8542 231.386 80.7334 232.606C80.6931 232.658 80.6753 232.724 80.6837 232.789C80.6921 232.855 80.7261 232.914 80.7782 232.954C80.8303 232.994 80.8963 233.012 80.9616 233.004C81.0269 232.995 81.0862 232.961 81.1264 232.909C82.1698 231.79 83.5449 231.035 85.05 230.754C85.0797 230.748 85.1079 230.736 85.1327 230.719Z" fill="#E0E0E0"/>
<path d="M83.4788 229.314C83.5169 229.291 83.5484 229.259 83.5702 229.22C83.592 229.182 83.6033 229.138 83.603 229.094C83.603 229.028 83.5768 228.965 83.5303 228.918C83.4837 228.872 83.4206 228.846 83.3547 228.846C81.7488 229.051 80.2853 229.87 79.2726 231.132C79.2353 231.186 79.2208 231.252 79.2324 231.317C79.2441 231.381 79.2808 231.439 79.3347 231.476C79.3878 231.514 79.4538 231.53 79.5184 231.52C79.5829 231.509 79.6408 231.474 79.6794 231.421C80.5973 230.288 81.9149 229.549 83.3616 229.355C83.4038 229.353 83.4444 229.338 83.4788 229.314Z" fill="#E0E0E0"/>
<path d="M59.3262 143.563C57.3708 147.358 55.8313 151.352 54.7345 155.477C53.3556 161.344 53.4039 165.201 53.459 175.448C53.5142 185.695 53.659 194.572 53.659 194.572C53.659 194.572 48.5778 197.925 46.8955 209.55C46.8955 209.55 50.9012 213.682 56.2168 212.304C56.2168 212.304 61.9254 202.174 63.8007 199C65.676 195.825 69.6886 169.87 69.6886 169.87L72.1016 191.032C72.1016 191.032 70.2815 196.093 70.5159 199.668C70.7503 203.242 72.1016 221 72.1016 221C75.3226 221.98 78.7928 221.735 81.8435 220.311C81.8435 220.311 83.1879 191.535 83.4154 185.509C83.643 179.483 84.3807 158.19 81.416 144.878L59.3262 143.563Z" fill="#455A64"/>
<path d="M69.6895 169.911L72.0749 160.559C72.0749 160.559 76.6597 161.089 80.2655 158.424C80.2655 158.424 79.5278 161.867 73.1367 162.859L70.3789 172.011L70.4203 176.384L69.6895 169.911Z" fill="#263238"/>
<path d="M81.2925 140.995C81.028 138.423 81.0003 135.832 81.2098 133.254C82.668 131.9 83.5969 130.072 83.8305 128.096C84.0642 126.121 83.5874 124.127 82.4852 122.47C79.0035 116.837 74.5911 114.737 74.5911 114.737L68.7791 114.557C67.9517 114.654 60.8091 115.68 59.899 115.935C59.899 115.935 57.4377 118.001 56.7689 120.404C56.3897 121.781 56.2794 123.159 57.5135 127.559L60.5402 135.265C60.5402 135.265 61.4227 137.572 60.9745 139.191C60.5264 140.809 58.0651 144.831 56.7689 148.735C56.7689 148.735 62.2845 153.673 72.4124 152.53C81.065 151.545 82.3267 148.639 82.3267 148.639C82.3267 148.639 81.3959 142.572 81.2925 140.995Z" fill="#FAFAFA"/>
<path opacity="0.1" d="M65.001 131.705C65.592 132.743 66.4705 133.588 67.5309 134.139C68.5913 134.69 69.7885 134.923 70.9785 134.811C72.1284 134.741 73.2395 134.37 74.1995 133.734C75.1595 133.097 75.9344 132.22 76.4458 131.188C76.4458 131.188 76.4044 135.747 71.0129 135.906C65.6215 136.064 65.001 131.705 65.001 131.705Z" fill="black"/>
<path d="M104.072 131.346C104.094 130.713 103.905 130.091 103.534 129.576C103.482 129.482 103.409 129.401 103.321 129.34C103.232 129.279 103.13 129.24 103.024 129.225C102.76 129.242 102.513 129.36 102.334 129.556C101.59 130.244 100.956 130.933 100.177 131.622C99.4439 132.267 98.5178 132.653 97.5428 132.717C97.5511 132.524 97.624 132.34 97.7497 132.193C98.053 131.773 98.2805 131.47 98.6046 131.016C98.8114 130.791 98.9656 130.523 99.0562 130.231C99.1468 129.939 99.1715 129.631 99.1286 129.329C99.1087 129.247 99.0676 129.172 99.0095 129.112C98.9514 129.051 98.8783 129.007 98.7976 128.984C98.6608 128.972 98.5241 129.009 98.4115 129.087C97.345 129.617 96.3452 130.271 95.4331 131.036C94.4334 131.877 93.8405 133.268 92.11 133.949C90.3795 134.631 88.5318 134.796 85.3396 135.216C82.8507 135.54 78.7554 136.07 75.9977 136.311C72.0471 132.31 67.2141 125.141 64.5804 121.581C63.1779 119.58 61.6146 117.696 59.906 115.948C57.5964 116.637 56.2588 117.814 55.7211 119.467C54.3422 123.275 56.2864 127.628 61.4503 133.364C63.1326 135.244 68.2276 140.836 70.8268 143.446C71.2101 143.836 71.6739 144.138 72.1859 144.33C72.6979 144.523 73.2458 144.602 73.7914 144.561C75.3488 144.393 76.8955 144.137 78.4245 143.797C81.2719 143.108 84.8846 142.075 87.7251 141.387C90.021 140.829 92.4065 140.154 94.3576 139.583C95.6889 139.231 96.9968 138.796 98.2736 138.281C99.354 137.891 100.375 137.354 101.307 136.683C101.921 136.256 102.457 135.727 102.893 135.12C103.27 134.544 103.558 133.915 103.748 133.254C103.959 132.64 104.069 131.996 104.072 131.346Z" fill="#FFA8A7"/>
<path d="M85.3396 135.216C88.5318 134.796 87.0005 135 90.2529 134.367L92.5005 140.5C90.5494 141.072 90.5005 140.5 86.0005 142C83.16 142.689 81.2719 143.108 78.4245 143.797C76.8955 144.137 75.3488 144.393 73.7914 144.561C73.2458 144.602 72.6979 144.523 72.1859 144.33C71.6739 144.138 71.2101 143.836 70.8268 143.446C68.2276 140.836 63.1326 135.244 61.4503 133.364C56.2864 127.628 54.3422 123.275 55.7211 119.467C56.2588 117.814 57.5964 116.637 59.906 115.948C61.6146 117.696 63.1779 119.58 64.5804 121.581C67.2141 125.141 72.0471 132.31 75.9977 136.311C78.7554 136.07 82.8507 135.54 85.3396 135.216Z" fill="#FAFAFA"/>
<path d="M70 141C70 141 71.3333 144.167 73.5 144C75.6667 143.833 80.1 143.4 80.5 143" stroke="#E1E1E1" stroke-linecap="round"/>
<path d="M59.0446 94.8272C57.4451 96.8932 57.1417 99.5927 57.5347 102.251C58.2242 106.72 60.9337 110.198 64.1741 111.665C66.1114 112.546 68.6348 112.918 69.931 111.789C71.951 110.04 73.9987 108.345 76.1773 106.782C77.8044 105.632 79.6246 104.482 80.4174 102.65C81.1069 101.094 81.1069 98.4289 79.6453 97.2788C80.7987 96.378 81.6029 95.1049 81.9204 93.6772C82.0647 93.3031 82.0946 92.8946 82.0062 92.5035C81.9179 92.1124 81.7152 91.7563 81.424 91.4804C81.0104 91.1223 79.7073 91.0603 79.1557 90.9983C77.2248 90.709 75.3203 90.2645 73.4609 89.6692C71.1567 89.1768 68.7845 89.086 66.4493 89.4006C64.6291 89.7519 62.5539 90.4681 61.6231 93.0023C60.5753 93.2883 59.6622 93.9346 59.0446 94.8272Z" fill="#263238"/>
<path d="M75.59 93.5948C76.9689 94.2835 78.7407 97.4375 79.0372 104.283C79.2647 110.081 77.4722 111.631 76.5552 112.106C75.6382 112.581 73.7974 112.436 72.0117 112.257L72.1979 115.157C72.1979 115.157 77.3481 118.868 73.3148 119.64C71.0842 119.946 68.8197 119.403 66.9719 118.118C65.9734 117.482 65.1148 116.651 64.4485 115.673L64.0418 108.477C64.0418 108.477 63.0627 109.551 61.2012 108.119C59.6638 106.934 59.0364 104.82 60.0981 103.594C60.3761 103.302 60.7194 103.08 61.0998 102.947C61.4802 102.813 61.8869 102.772 62.2866 102.825C62.6862 102.879 63.0674 103.027 63.3989 103.256C63.7303 103.486 64.0026 103.79 64.1934 104.145C64.1934 104.145 65.269 104.689 66.1859 102.699C67.9354 102.419 69.6005 101.753 71.0603 100.75C72.2565 99.921 73.2738 98.8605 74.0519 97.6314C74.83 96.4023 75.353 95.0297 75.59 93.5948Z" fill="#FFA8A7"/>
<path d="M71.3919 102.934C71.4173 103.129 71.3641 103.327 71.2438 103.484C71.1236 103.64 70.9462 103.742 70.7506 103.768C70.5515 103.783 70.3544 103.72 70.2021 103.59C70.0498 103.461 69.9545 103.277 69.9369 103.079C69.9159 102.886 69.9724 102.692 70.0939 102.541C70.2155 102.39 70.3922 102.293 70.5851 102.272C70.778 102.251 70.9714 102.307 71.1227 102.429C71.274 102.55 71.3708 102.727 71.3919 102.92V102.934Z" fill="#263238"/>
<path d="M71.5087 107.327L74.2669 108.12C74.2236 108.307 74.1429 108.483 74.0298 108.638C73.9167 108.793 73.7735 108.924 73.6087 109.022C73.4439 109.121 73.2609 109.185 73.0707 109.211C72.8805 109.237 72.6869 109.225 72.5017 109.175C72.131 109.052 71.8213 108.792 71.6366 108.449C71.4518 108.105 71.4061 107.703 71.5087 107.327Z" fill="#B16668"/>
<path d="M73.1708 109.194C73.1393 108.843 72.9745 108.517 72.7103 108.284C72.4461 108.051 72.1026 107.927 71.7503 107.939C71.662 107.946 71.5743 107.96 71.4883 107.981C71.5334 108.258 71.6557 108.517 71.841 108.728C72.0264 108.939 72.2674 109.093 72.5364 109.174C72.7434 109.23 72.9606 109.237 73.1708 109.194Z" fill="#F28F8F"/>
<path d="M77.8446 100.255L76.2793 99.3244C76.3345 99.2212 76.4101 99.1302 76.5016 99.0572C76.5931 98.9841 76.6986 98.9305 76.8115 98.8995C76.9244 98.8685 77.0424 98.8609 77.1584 98.877C77.2744 98.8932 77.3859 98.9328 77.486 98.9935C77.6976 99.1164 77.8531 99.3166 77.92 99.552C77.9869 99.7874 77.9599 100.04 77.8446 100.255Z" fill="#263238"/>
<path d="M70.2059 100.255L68.5717 101C68.517 100.896 68.4842 100.782 68.4752 100.665C68.4662 100.548 68.4812 100.43 68.5193 100.319C68.5574 100.208 68.6178 100.106 68.6967 100.019C68.7757 99.9319 68.8716 99.862 68.9785 99.8135C69.2006 99.7152 69.452 99.7062 69.6806 99.7884C69.9091 99.8706 70.0973 100.038 70.2059 100.255Z" fill="#263238"/>
<path d="M77.5764 102.383C77.5868 102.478 77.5783 102.575 77.5514 102.667C77.5244 102.759 77.4796 102.845 77.4194 102.92C77.3592 102.995 77.2849 103.058 77.2006 103.104C77.1163 103.15 77.0238 103.179 76.9282 103.19C76.8327 103.2 76.736 103.191 76.6438 103.164C76.5515 103.138 76.4655 103.093 76.3906 103.033C76.3157 102.972 76.2534 102.898 76.2072 102.814C76.161 102.729 76.1319 102.637 76.1215 102.541C76.096 102.346 76.1493 102.148 76.2695 101.992C76.3897 101.835 76.5671 101.733 76.7627 101.707C76.9596 101.692 77.1548 101.753 77.3068 101.88C77.4587 102.006 77.5555 102.186 77.5764 102.383Z" fill="#263238"/>
<path d="M74.0469 102.182L74.4399 106.562L76.7085 105.701L74.0469 102.182Z" fill="#F28F8F"/>
<path d="M71.9798 112.257C70.0973 112.126 66.1945 111.265 65.498 109.792C65.7883 110.542 66.3006 111.185 66.9668 111.637C68.1735 112.546 72.0556 113.414 72.0556 113.414L71.9798 112.257Z" fill="#F28F8F"/>
<path d="M64.1611 102.713L64.3473 105.757C64.621 105.742 64.8889 105.673 65.1357 105.553C65.3824 105.434 65.6029 105.267 65.7845 105.062C65.966 104.857 66.105 104.618 66.1933 104.359C66.2816 104.1 66.3174 103.826 66.2987 103.553L66.1195 100.736L64.1611 102.713Z" fill="#263238"/>
<path d="M160.876 195.584L164.4 197.602V20.6804L160.876 22.7119V195.584Z" fill="url(#paint7_linear_473_7608)"/>
<path opacity="0.4" d="M160.876 195.584L164.4 197.602V20.6804L160.876 22.7119V195.584Z" fill="white"/>
<path opacity="0.1" d="M160.876 195.584L164.4 197.602V20.6804L160.876 22.7119V195.584Z" fill="black"/>
<path d="M164.398 197.602L175.188 191.376V2.00378L45.5098 76.7914V266.143L56.3134 259.938V83.0168L164.391 20.68L164.398 197.602Z" fill="url(#paint8_linear_473_7608)"/>
<path opacity="0.7" d="M164.398 197.602L175.188 191.376V2.00378L45.5098 76.7914V266.143L56.3134 259.938V83.0168L164.391 20.68L164.398 197.602Z" fill="white"/>
<path d="M175.188 2.00389L45.5099 76.7915L42.042 74.7807L171.727 -9.15527e-05L175.188 2.00389Z" fill="url(#paint9_linear_473_7608)"/>
<path opacity="0.85" d="M175.188 2.00389L45.5099 76.7915L42.042 74.7807L171.727 -9.15527e-05L175.188 2.00389Z" fill="white"/>
<path d="M45.5104 266.143V76.7916L42.042 74.7808V264.146L45.5104 266.143Z" fill="url(#paint10_linear_473_7608)"/>
<path opacity="0.6" d="M42.042 74.7808V264.146L45.5104 266.143V76.7916" fill="white"/>
<path d="M157.565 213.455L189.376 195.109L229.378 218.172L197.567 236.518L157.565 213.455Z" fill="black"/>
<path d="M189.377 195.109V163.741L156.925 182.458L184.075 198.166L189.377 195.109Z" fill="#37474F"/>
<path d="M189.377 163.741V195.109L202.869 202.884L230.02 187.176L189.377 163.741Z" fill="#263238"/>
<path d="M156.925 182.459V213.084L197.568 236.518V205.942L156.925 182.459Z" fill="#263238"/>
<path d="M197.567 205.943V236.519L230.02 217.801V187.177L197.567 205.943Z" fill="#37474F"/>
<path d="M197.567 205.942L198.202 235.355L221.774 222.559L197.567 236.518V205.942Z" fill="#455A64"/>
<path d="M201.442 226.67C201.326 226.672 201.211 226.641 201.111 226.581C200.968 226.478 200.854 226.339 200.781 226.178C200.709 226.017 200.68 225.84 200.697 225.665V222.958V222.759H200.835L202.959 221.512V224.604C202.956 224.994 202.859 225.376 202.676 225.72C202.494 226.064 202.231 226.359 201.911 226.581C201.765 226.65 201.603 226.68 201.442 226.67ZM201.035 223.158V225.665C201.021 225.781 201.036 225.898 201.079 226.007C201.123 226.115 201.193 226.211 201.283 226.285C201.358 226.317 201.44 226.329 201.521 226.321C201.602 226.312 201.679 226.283 201.745 226.236C202.01 226.042 202.227 225.789 202.379 225.498C202.531 225.207 202.614 224.884 202.621 224.556V224.336H201.835L201.677 223.268L201.035 223.158ZM202.125 223.991H202.621V222.118L201.352 222.869L201.98 222.979L202.125 223.991Z" fill="#E0E0E0"/>
<path d="M201.83 228.846C201.784 228.846 201.74 228.828 201.708 228.796C201.675 228.764 201.657 228.72 201.657 228.674V226.402C201.657 226.356 201.675 226.312 201.708 226.28C201.74 226.248 201.784 226.229 201.83 226.229C201.875 226.229 201.919 226.248 201.951 226.28C201.984 226.312 202.002 226.356 202.002 226.402V228.674C202.002 228.72 201.984 228.764 201.951 228.796C201.919 228.828 201.875 228.846 201.83 228.846Z" fill="#E0E0E0"/>
<path d="M200.836 229.427C200.806 229.425 200.777 229.416 200.752 229.4C200.727 229.385 200.706 229.363 200.691 229.337C200.668 229.298 200.662 229.251 200.674 229.207C200.685 229.163 200.714 229.126 200.753 229.103L202.732 227.965C202.771 227.942 202.818 227.936 202.862 227.948C202.906 227.959 202.943 227.988 202.966 228.027C202.977 228.046 202.985 228.067 202.987 228.089C202.99 228.11 202.989 228.133 202.983 228.154C202.977 228.175 202.967 228.195 202.954 228.212C202.94 228.229 202.923 228.244 202.904 228.255L200.925 229.427C200.896 229.437 200.865 229.437 200.836 229.427Z" fill="#E0E0E0"/>
<path d="M207.896 225.499C207.831 225.498 207.767 225.482 207.71 225.451C207.642 225.407 207.586 225.346 207.55 225.273C207.514 225.2 207.497 225.119 207.503 225.038V224.604C207.503 224.559 207.521 224.515 207.554 224.483C207.586 224.45 207.63 224.432 207.675 224.432C207.721 224.432 207.765 224.45 207.797 224.483C207.83 224.515 207.848 224.559 207.848 224.604V225.073C207.834 225.11 207.834 225.152 207.848 225.19C207.848 225.19 207.903 225.19 207.958 225.155C208.063 225.058 208.146 224.94 208.201 224.808C208.256 224.676 208.281 224.534 208.275 224.391V221.361C208.275 221.315 208.294 221.271 208.326 221.239C208.358 221.207 208.402 221.189 208.448 221.189C208.493 221.189 208.537 221.207 208.57 221.239C208.602 221.271 208.62 221.315 208.62 221.361V224.391C208.628 224.593 208.588 224.794 208.504 224.978C208.42 225.162 208.295 225.324 208.137 225.451C208.062 225.486 207.979 225.503 207.896 225.499Z" fill="#E0E0E0"/>
<path d="M206.097 222.848V222.538C206.139 221.782 206.358 221.046 206.738 220.391C207.118 219.735 207.647 219.178 208.283 218.765C208.511 218.574 208.794 218.458 209.091 218.433C209.388 218.409 209.686 218.476 209.943 218.627C210.201 218.778 210.405 219.004 210.529 219.275C210.652 219.547 210.689 219.849 210.634 220.142V220.245L206.097 222.848ZM209.303 218.813C209 218.825 208.706 218.915 208.448 219.075C207.907 219.43 207.449 219.897 207.105 220.445C206.762 220.993 206.54 221.608 206.455 222.249L210.289 220.039C210.302 219.825 210.261 219.611 210.169 219.417C210.078 219.223 209.939 219.056 209.765 218.93C209.623 218.853 209.464 218.812 209.303 218.813Z" fill="#E0E0E0"/>
<path d="M214.017 222.008C213.971 222.008 213.928 221.99 213.895 221.958C213.863 221.925 213.845 221.881 213.845 221.836V216.044C213.845 215.999 213.863 215.955 213.895 215.922C213.928 215.89 213.971 215.872 214.017 215.872C214.063 215.872 214.107 215.89 214.139 215.922C214.171 215.955 214.19 215.999 214.19 216.044V221.85C214.186 221.893 214.166 221.933 214.134 221.962C214.102 221.992 214.061 222.008 214.017 222.008Z" fill="#E0E0E0"/>
<path d="M213.522 217.368H213.453C213.432 217.359 213.413 217.346 213.397 217.33C213.381 217.314 213.369 217.294 213.361 217.273C213.352 217.252 213.348 217.229 213.349 217.207C213.349 217.184 213.354 217.162 213.363 217.141L213.97 215.762L214.659 216.541C214.691 216.573 214.709 216.616 214.709 216.662C214.709 216.707 214.691 216.75 214.659 216.782C214.644 216.799 214.625 216.812 214.605 216.821C214.584 216.83 214.561 216.834 214.539 216.834C214.516 216.834 214.494 216.83 214.473 216.821C214.452 216.812 214.434 216.799 214.418 216.782L214.094 216.417L213.701 217.32C213.679 217.344 213.65 217.362 213.618 217.37C213.587 217.379 213.553 217.378 213.522 217.368Z" fill="#E0E0E0"/>
<path d="M215.596 221.113C215.55 221.113 215.507 221.095 215.474 221.062C215.442 221.03 215.424 220.986 215.424 220.941V215.142C215.426 215.098 215.445 215.056 215.477 215.025C215.509 214.994 215.552 214.977 215.596 214.977C215.641 214.977 215.684 214.994 215.716 215.025C215.748 215.056 215.767 215.098 215.769 215.142V220.941C215.769 220.986 215.75 221.03 215.718 221.062C215.686 221.095 215.642 221.113 215.596 221.113Z" fill="#E0E0E0"/>
<path d="M215.094 216.466C215.074 216.473 215.052 216.473 215.032 216.466C215.011 216.459 214.991 216.447 214.975 216.431C214.959 216.416 214.946 216.397 214.937 216.376C214.929 216.355 214.925 216.333 214.926 216.31C214.927 216.288 214.932 216.266 214.943 216.246L215.549 214.866L216.239 215.653C216.255 215.668 216.268 215.687 216.277 215.707C216.286 215.728 216.291 215.751 216.291 215.773C216.291 215.796 216.286 215.818 216.277 215.839C216.268 215.86 216.255 215.878 216.239 215.894C216.207 215.923 216.165 215.94 216.122 215.94C216.078 215.94 216.036 215.923 216.004 215.894L215.68 215.522L215.287 216.425C215.264 216.452 215.232 216.47 215.198 216.477C215.163 216.485 215.127 216.481 215.094 216.466Z" fill="#E0E0E0"/>
<path d="M163.875 204.199L172.734 209.309C172.85 209.384 172.947 209.486 173.016 209.606C173.086 209.725 173.126 209.86 173.134 209.998V216.154C173.134 216.657 172.776 216.843 172.341 216.616L163.482 211.52C163.365 211.445 163.268 211.343 163.199 211.223C163.129 211.104 163.089 210.969 163.082 210.831V204.633C163.082 204.151 163.441 203.944 163.875 204.199Z" fill="#FAFAFA"/>
<path d="M163.661 205.156L163.958 205.329V210.755L163.654 210.583L163.661 205.156Z" fill="#455A64"/>
<path d="M164.881 205.859L165.405 206.169V211.595L164.881 211.292V205.859Z" fill="#455A64"/>
<path d="M166.108 206.568L166.412 206.74V212.174L166.108 211.995V206.568Z" fill="#455A64"/>
<path d="M167.039 207.092L167.639 207.45V212.883L167.039 212.525V207.092Z" fill="#455A64"/>
<path d="M168.562 207.987L168.866 208.159V213.586L168.562 213.414V207.987Z" fill="#455A64"/>
<path d="M169.446 208.482L170.094 208.861V214.295L169.446 213.909V208.482Z" fill="#455A64"/>
<path d="M171.019 209.399L171.322 209.571V215.004L171.019 214.825V209.399Z" fill="#455A64"/>
<path d="M171.721 209.798L171.872 209.881V215.314L171.721 215.225V209.798Z" fill="#455A64"/>
<path d="M170.46 209.103L170.612 209.192V214.619L170.46 214.529V209.103Z" fill="#455A64"/>
<path d="M167.991 207.657L168.143 207.746V213.173L167.991 213.083V207.657Z" fill="#455A64"/>
<path d="M166.633 206.878L166.785 206.968V212.394L166.633 212.312V206.878Z" fill="#455A64"/>
<path d="M165.66 206.348L165.812 206.431V211.864L165.66 211.775V206.348Z" fill="#455A64"/>
<path d="M164.344 205.542L164.495 205.632V211.058L164.344 210.976V205.542Z" fill="#455A64"/>
<path d="M172.244 210.108L172.548 210.281V215.707L172.244 215.535V210.108Z" fill="#455A64"/>
<path d="M189.378 163.741L156.926 182.459L197.569 205.942L230.021 187.176L189.378 163.741Z" fill="#455A64"/>
<path opacity="0.1" d="M156.926 182.459L197.569 204.785L230.021 187.176L197.569 205.942L156.926 182.459Z" fill="white"/>
<path d="M170.392 174.684L211.062 198.139L216.06 195.254L175.397 171.798L170.392 174.684Z" fill="url(#paint11_linear_473_7608)"/>
<path d="M216.06 195.247V201.597L215.453 201.252L214.826 202.334L214.198 201.969L213.571 203.064L212.943 202.692L212.316 203.773L211.681 203.415L211.054 204.503V198.14L216.06 195.247Z" fill="url(#paint12_linear_473_7608)"/>
<path opacity="0.25" d="M216.06 195.247V201.597L215.453 201.252L214.826 202.334L214.198 201.969L213.571 203.064L212.943 202.692L212.316 203.773L211.681 203.415L211.054 204.503V198.14L216.06 195.247Z" fill="black"/>
<path opacity="0.1" d="M194.534 167.791L166.232 184.112L194.534 200.489L222.843 184.112L194.534 167.791Z" fill="black"/>
<path d="M170.881 183.754L194.536 170.112L218.198 183.754L194.536 197.403L170.881 183.754Z" fill="black"/>
<path d="M194.535 170.112V143.117L170.321 157.082L193.693 170.601L194.535 170.112Z" fill="#37474F"/>
<path d="M194.535 143.117V170.112L195.383 170.601L218.749 157.082L194.535 143.117Z" fill="#263238"/>
<path d="M170.321 157.083V183.438L194.535 197.403V171.09L170.321 157.083Z" fill="#263238"/>
<path d="M194.535 171.09V197.403L218.749 183.437V157.083L194.535 171.09Z" fill="#37474F"/>
<path d="M194.535 171.09L195.087 196.398L215.37 185.386L194.535 197.403V171.09Z" fill="#455A64"/>
<path d="M197.88 188.933C197.778 188.936 197.678 188.909 197.59 188.857C197.467 188.769 197.368 188.651 197.305 188.513C197.242 188.375 197.217 188.223 197.232 188.072V185.738V185.559H197.349L199.183 184.484V187.087C199.183 187.42 199.104 187.748 198.953 188.045C198.802 188.342 198.583 188.599 198.314 188.795C198.186 188.883 198.035 188.931 197.88 188.933ZM197.528 185.91V188.107C197.516 188.206 197.528 188.307 197.564 188.401C197.601 188.495 197.659 188.578 197.735 188.644C197.8 188.67 197.871 188.68 197.941 188.672C198.011 188.663 198.078 188.637 198.135 188.596C198.363 188.428 198.55 188.211 198.68 187.96C198.81 187.709 198.881 187.432 198.887 187.149V186.957H198.197L198.066 186.048L197.528 185.91ZM198.466 186.633H198.887V185.021L197.797 185.662L198.335 185.758L198.466 186.633Z" fill="#E0E0E0"/>
<path d="M198.202 190.793C198.164 190.793 198.127 190.778 198.1 190.751C198.072 190.724 198.057 190.687 198.057 190.648V188.691C198.052 188.669 198.053 188.646 198.058 188.624C198.063 188.602 198.073 188.582 198.087 188.564C198.102 188.547 198.12 188.532 198.14 188.523C198.16 188.513 198.183 188.508 198.205 188.508C198.228 188.508 198.25 188.513 198.271 188.523C198.291 188.532 198.309 188.547 198.324 188.564C198.338 188.582 198.348 188.602 198.353 188.624C198.358 188.646 198.358 188.669 198.354 188.691V190.648C198.354 190.668 198.35 190.687 198.342 190.705C198.334 190.723 198.323 190.74 198.309 190.753C198.295 190.767 198.278 190.777 198.259 190.784C198.241 190.791 198.222 190.794 198.202 190.793Z" fill="#E0E0E0"/>
<path d="M197.355 191.289C197.329 191.289 197.303 191.281 197.28 191.268C197.257 191.255 197.238 191.236 197.224 191.213C197.207 191.179 197.202 191.14 197.212 191.103C197.223 191.065 197.247 191.034 197.28 191.013L198.983 190.027C199.016 190.016 199.051 190.017 199.084 190.029C199.117 190.041 199.144 190.064 199.162 190.094C199.18 190.123 199.187 190.158 199.182 190.193C199.177 190.227 199.16 190.259 199.134 190.283L197.424 191.269C197.404 191.282 197.38 191.289 197.355 191.289Z" fill="#E0E0E0"/>
<path d="M203.429 187.914C203.371 187.915 203.314 187.9 203.263 187.872C203.206 187.835 203.16 187.782 203.129 187.72C203.099 187.659 203.086 187.59 203.091 187.521V187.115C203.091 187.077 203.106 187.04 203.133 187.013C203.161 186.986 203.197 186.97 203.236 186.97C203.274 186.97 203.311 186.986 203.338 187.013C203.365 187.04 203.381 187.077 203.381 187.115V187.521C203.37 187.553 203.37 187.586 203.381 187.618C203.381 187.618 203.429 187.618 203.477 187.618C203.572 187.531 203.646 187.424 203.694 187.305C203.742 187.186 203.762 187.057 203.753 186.929V184.326C203.753 184.288 203.768 184.251 203.795 184.224C203.823 184.197 203.859 184.181 203.898 184.181C203.936 184.181 203.973 184.197 204 184.224C204.027 184.251 204.043 184.288 204.043 184.326V186.929C204.05 187.103 204.017 187.277 203.945 187.436C203.873 187.595 203.765 187.735 203.629 187.845C203.569 187.884 203.5 187.908 203.429 187.914Z" fill="#E0E0E0"/>
<path d="M201.878 185.634V185.352C201.913 184.701 202.102 184.068 202.43 183.505C202.757 182.941 203.213 182.462 203.76 182.108C203.955 181.945 204.196 181.845 204.45 181.823C204.703 181.801 204.958 181.857 205.178 181.984C205.399 182.111 205.575 182.303 205.683 182.533C205.791 182.764 205.825 183.022 205.781 183.272V183.362L201.878 185.634ZM204.636 182.191C204.377 182.202 204.125 182.28 203.905 182.418C203.436 182.725 203.04 183.131 202.743 183.607C202.447 184.082 202.257 184.617 202.188 185.173L205.484 183.272C205.496 183.088 205.462 182.903 205.383 182.736C205.305 182.568 205.186 182.424 205.036 182.315C204.918 182.231 204.78 182.179 204.636 182.163V182.191Z" fill="#E0E0E0"/>
<path d="M208.697 184.911C208.658 184.911 208.621 184.896 208.594 184.869C208.567 184.842 208.552 184.805 208.552 184.766V179.781C208.552 179.742 208.567 179.705 208.594 179.678C208.621 179.651 208.658 179.636 208.697 179.636C208.735 179.636 208.772 179.651 208.799 179.678C208.826 179.705 208.841 179.742 208.841 179.781V184.766C208.841 184.785 208.838 184.804 208.83 184.822C208.823 184.839 208.812 184.855 208.799 184.869C208.786 184.882 208.77 184.893 208.752 184.9C208.734 184.907 208.716 184.911 208.697 184.911Z" fill="#E0E0E0"/>
<path d="M208.268 180.918H208.206C208.188 180.911 208.172 180.9 208.158 180.886C208.145 180.872 208.134 180.856 208.127 180.838C208.12 180.82 208.117 180.801 208.117 180.781C208.118 180.762 208.122 180.743 208.13 180.725L208.654 179.519L209.233 180.208C209.247 180.222 209.258 180.238 209.265 180.255C209.273 180.273 209.277 180.292 209.277 180.312C209.277 180.331 209.273 180.35 209.265 180.368C209.258 180.385 209.247 180.401 209.233 180.415C209.205 180.441 209.168 180.456 209.13 180.456C209.091 180.456 209.055 180.441 209.026 180.415L208.751 180.098L208.413 180.877C208.395 180.896 208.372 180.911 208.346 180.918C208.321 180.925 208.294 180.925 208.268 180.918Z" fill="#E0E0E0"/>
<path d="M210.034 184.14C209.994 184.14 209.957 184.125 209.929 184.098C209.9 184.071 209.884 184.034 209.882 183.995V179.002C209.889 178.969 209.908 178.938 209.935 178.917C209.962 178.895 209.995 178.883 210.03 178.883C210.065 178.883 210.098 178.895 210.125 178.917C210.152 178.938 210.171 178.969 210.178 179.002V183.975C210.18 183.995 210.178 184.016 210.172 184.035C210.165 184.055 210.155 184.073 210.141 184.088C210.128 184.104 210.111 184.116 210.093 184.125C210.074 184.134 210.054 184.139 210.034 184.14Z" fill="#E0E0E0"/>
<path d="M209.619 180.147H209.564C209.546 180.14 209.53 180.129 209.517 180.115C209.503 180.101 209.493 180.085 209.486 180.067C209.479 180.049 209.475 180.029 209.476 180.01C209.476 179.991 209.48 179.972 209.488 179.954L210.012 178.747L210.592 179.437C210.617 179.466 210.63 179.504 210.628 179.543C210.625 179.582 210.607 179.618 210.578 179.644C210.563 179.657 210.547 179.666 210.528 179.672C210.51 179.679 210.491 179.681 210.472 179.68C210.433 179.677 210.397 179.659 210.371 179.63L210.095 179.313L209.757 180.092C209.741 180.112 209.72 180.128 209.696 180.138C209.671 180.147 209.645 180.151 209.619 180.147Z" fill="#E0E0E0"/>
<path d="M176.306 175.793L183.932 180.187C184.032 180.253 184.115 180.342 184.175 180.446C184.235 180.55 184.269 180.666 184.277 180.786V186.075C184.277 186.515 183.967 186.694 183.587 186.474L175.961 182.074C175.862 182.008 175.78 181.92 175.722 181.818C175.663 181.715 175.629 181.6 175.623 181.481V176.186C175.623 175.752 175.933 175.573 176.306 175.793Z" fill="#FAFAFA"/>
<path d="M176.12 176.613L176.375 176.764V181.433L176.12 181.289V176.613Z" fill="#455A64"/>
<path d="M177.175 177.226L177.623 177.488V182.157L177.175 181.895V177.226Z" fill="#455A64"/>
<path d="M178.229 177.832L178.492 177.983V182.652L178.229 182.501V177.832Z" fill="#455A64"/>
<path d="M179.028 178.279L179.545 178.589V183.258L179.028 182.955V178.279Z" fill="#455A64"/>
<path d="M180.339 179.05L180.601 179.195V183.871L180.339 183.719V179.05Z" fill="#455A64"/>
<path d="M181.104 179.477L181.656 179.808V184.477L181.104 184.146V179.477Z" fill="#455A64"/>
<path d="M182.456 180.269L182.711 180.414V185.09L182.456 184.939V180.269Z" fill="#455A64"/>
<path d="M183.057 180.607L183.188 180.683V185.352L183.057 185.283V180.607Z" fill="#455A64"/>
<path d="M181.974 180.015L182.105 180.084V184.76L181.974 184.684V180.015Z" fill="#455A64"/>
<path d="M179.842 178.768L179.973 178.844V183.513L179.842 183.437V178.768Z" fill="#455A64"/>
<path d="M178.677 178.1L178.808 178.176V182.845L178.677 182.769V178.1Z" fill="#455A64"/>
<path d="M177.844 177.639L177.975 177.714V182.384L177.844 182.308V177.639Z" fill="#455A64"/>
<path d="M176.712 176.951L176.836 177.026V181.695L176.712 181.62V176.951Z" fill="#455A64"/>
<path d="M183.511 180.875L183.766 181.027V185.696L183.511 185.544V180.875Z" fill="#455A64"/>
<path d="M194.536 143.117L170.322 157.083L194.536 171.09L218.749 157.083L194.536 143.117Z" fill="#455A64"/>
<path opacity="0.1" d="M170.322 157.083L194.536 170.091L218.749 157.083L194.536 171.09L170.322 157.083Z" fill="white"/>
<path d="M181.084 150.878L205.318 164.851L209.62 162.365L185.393 148.392L181.084 150.878Z" fill="url(#paint13_linear_473_7608)"/>
<path d="M209.62 162.365V167.826L209.103 167.529L208.558 168.459L208.02 168.142L207.483 169.086L206.938 168.769L206.4 169.699L205.855 169.389L205.317 170.325V164.851L209.62 162.365Z" fill="url(#paint14_linear_473_7608)"/>
<path opacity="0.25" d="M209.62 162.365V167.826L209.103 167.529L208.558 168.459L208.02 168.142L207.483 169.086L206.938 168.769L206.4 169.699L205.855 169.389L205.317 170.325V164.851L209.62 162.365Z" fill="black"/>
<path d="M303.64 236.801C301.847 237.834 299.82 237.813 297.62 236.98L296.158 225.177L303.743 223.427L303.64 236.801Z" fill="#B16668"/>
<path d="M281.738 231.871C280.29 235.245 278.18 234.143 274.974 232.105L274.726 220.473L283 219.909L281.738 231.871Z" fill="#B16668"/>
<path d="M290.748 247.716C290.58 248.383 290.621 249.085 290.865 249.727C291.114 250.092 292.424 251.208 294.899 251.311C297.264 251.407 299.359 251.029 300.718 250.113C301.304 249.782 301.8 249.312 302.161 248.743C302.522 248.175 302.737 247.527 302.786 246.855C302.883 245.478 302.689 244.218 303.303 243.164C303.917 242.111 304.627 241.236 304.82 240.713C305.056 239.768 305.084 238.784 304.903 237.827L290.748 247.716Z" fill="#263238"/>
<path d="M296.761 236.484C296.744 236.993 296.663 237.497 296.519 237.985C296.183 239.036 295.72 240.042 295.141 240.981C294.857 241.474 294.542 241.948 294.196 242.4C293.507 243.267 292.645 243.99 291.914 244.824C291.128 245.615 290.64 246.654 290.535 247.764C290.487 249.617 292.514 250.181 294.072 250.415C295.754 250.657 297.47 250.518 299.091 250.009C299.954 249.77 300.729 249.286 301.32 248.614C301.911 247.943 302.294 247.114 302.421 246.228C302.49 245.712 302.421 245.189 302.49 244.665C302.662 243.479 303.124 242.353 303.834 241.387C304.247 240.829 304.598 240.229 304.882 239.597C305.331 238.44 304.882 237.159 304.565 236.029C304.269 235.052 304.041 233.881 303.697 233.964C303.697 234.163 303.697 234.597 303.697 234.597C303.593 234.811 303.345 234.962 303.276 235.217C303.212 235.48 303.126 235.738 303.021 235.988C302.856 236.371 302.58 236.695 302.228 236.918L302.09 234.852C302.099 234.634 302.036 234.418 301.911 234.239C301.744 234.094 301.532 234.011 301.311 234.005C300.008 233.731 298.671 233.659 297.347 233.791C297.247 233.792 297.148 233.815 297.057 233.858C296.967 233.9 296.887 233.962 296.823 234.039C296.741 234.183 296.714 234.352 296.747 234.514C296.789 235.17 296.793 235.828 296.761 236.484Z" fill="#37474F"/>
<path d="M294.919 241.376C295.609 240.838 297.139 240.789 297.987 240.851C298.849 240.901 299.684 241.166 300.415 241.624C300.521 241.693 300.647 241.724 300.773 241.71C300.899 241.696 301.016 241.639 301.104 241.548C301.157 241.494 301.197 241.429 301.222 241.359C301.247 241.288 301.256 241.212 301.249 241.137C301.241 241.062 301.218 240.99 301.18 240.925C301.142 240.86 301.09 240.805 301.028 240.762C300.216 240.198 299.258 239.88 298.27 239.845C296.202 239.755 295.588 240.134 295.588 240.134C295.588 240.134 294.698 240.769 294.919 241.376Z" fill="#F5F5F5"/>
<path d="M293.396 243.318C294.244 242.78 295.947 242.807 296.795 242.87C297.639 242.931 298.453 243.214 299.153 243.69C299.26 243.757 299.386 243.786 299.511 243.772C299.636 243.758 299.753 243.703 299.843 243.614C299.895 243.56 299.935 243.496 299.96 243.425C299.985 243.354 299.994 243.278 299.987 243.204C299.98 243.129 299.957 243.056 299.918 242.992C299.88 242.927 299.829 242.871 299.767 242.828C298.948 242.241 297.98 241.894 296.974 241.828C294.906 241.746 294.361 242.187 294.361 242.187C294.125 242.291 293.916 242.446 293.749 242.642C293.582 242.838 293.461 243.069 293.396 243.318Z" fill="#F5F5F5"/>
<path d="M299.084 237.834C298.204 237.702 297.305 237.804 296.477 238.131C296.112 238.345 295.891 238.931 296.132 239.069C296.857 238.753 297.648 238.621 298.435 238.682C299.218 238.734 299.985 238.92 300.704 239.234C300.883 239.31 301.097 239.413 301.283 239.51C301.343 239.543 301.41 239.564 301.478 239.57C301.546 239.577 301.615 239.568 301.68 239.546C301.745 239.524 301.805 239.489 301.855 239.442C301.906 239.395 301.946 239.339 301.973 239.275C302.02 239.171 302.027 239.053 301.991 238.945C301.955 238.836 301.88 238.745 301.78 238.689C300.952 238.215 300.033 237.923 299.084 237.834Z" fill="#F5F5F5"/>
<path d="M262.26 239.618C262.1 240.163 262.152 240.748 262.405 241.257C262.646 241.732 265.211 243.075 268.61 242.745C271.113 242.49 273.503 241.572 275.532 240.086C276.8 239.191 278.145 238.991 279.82 238.847C281.496 238.702 282.778 238.158 283.123 237.352C283.292 236.642 283.249 235.897 282.999 235.211L262.26 239.618Z" fill="#263238"/>
<path d="M275.69 229.198C275.386 229.125 275.086 229.033 274.794 228.923C274.637 228.846 274.457 228.831 274.29 228.881C274.192 228.943 274.109 229.026 274.049 229.126C273.99 229.225 273.954 229.337 273.946 229.453C273.882 229.955 273.773 230.45 273.622 230.933C273.38 231.332 273.067 231.682 272.698 231.966C271.872 232.665 270.978 233.279 270.029 233.798C268.94 234.425 267.865 234.921 266.734 235.465C265.603 236.009 264.038 236.394 263.142 237.035C261.839 237.971 261.763 240.23 263.28 241.077C264.61 241.807 268.106 242.537 271.67 241.408C273.622 240.788 275.745 238.653 278.324 238.343C279.964 238.171 282.15 237.965 283.15 236.691C283.522 236.126 283.246 234.514 282.998 232.614C282.777 230.906 282.605 228.248 282.06 228.413C282.06 228.413 281.84 229.033 281.798 229.102C281.66 229.312 281.503 229.51 281.33 229.694C281.182 229.845 281.025 229.988 280.861 230.121C280.673 230.324 280.475 230.517 280.268 230.699C279.998 230.921 279.665 231.051 279.316 231.071C279.15 231.078 278.985 231.038 278.841 230.954C278.565 230.789 278.537 230.424 278.317 230.19C278.062 229.928 277.757 229.72 277.42 229.577C276.948 229.392 276.451 229.279 275.945 229.239C275.869 229.232 275.773 229.212 275.69 229.198Z" fill="#37474F"/>
<path d="M271.54 232.87C271.651 232.641 271.818 232.443 272.025 232.295C272.232 232.147 272.473 232.053 272.726 232.022C273.471 231.864 274.795 232.373 275.65 233.028C275.729 233.089 275.793 233.168 275.835 233.259C275.877 233.35 275.896 233.449 275.89 233.549C275.885 233.649 275.855 233.746 275.804 233.832C275.752 233.918 275.68 233.989 275.595 234.041C275.487 234.102 275.364 234.13 275.241 234.12C275.118 234.11 275.001 234.063 274.905 233.986C273.972 233.189 272.765 232.788 271.54 232.87Z" fill="#F5F5F5"/>
<path d="M269.258 234.246C269.414 234.011 269.625 233.817 269.872 233.68C270.119 233.543 270.396 233.468 270.678 233.461C271.831 233.479 272.948 233.86 273.871 234.55C273.947 234.609 274.007 234.685 274.047 234.772C274.087 234.86 274.105 234.955 274.1 235.051C274.096 235.147 274.068 235.241 274.02 235.324C273.971 235.406 273.904 235.477 273.823 235.528C273.716 235.592 273.593 235.621 273.469 235.611C273.345 235.601 273.228 235.553 273.133 235.473C272.621 234.991 272.007 234.63 271.336 234.417C270.665 234.205 269.954 234.147 269.258 234.246Z" fill="#F5F5F5"/>
<path d="M266.734 235.466C266.917 235.252 267.143 235.08 267.397 234.961C267.652 234.842 267.929 234.779 268.21 234.776C269.322 234.811 270.394 235.197 271.272 235.879C271.347 235.939 271.408 236.016 271.448 236.104C271.487 236.192 271.506 236.288 271.501 236.384C271.496 236.48 271.469 236.574 271.42 236.658C271.372 236.741 271.305 236.812 271.223 236.864C271.116 236.927 270.992 236.955 270.869 236.944C270.745 236.933 270.628 236.884 270.534 236.802C270.048 236.3 269.452 235.917 268.792 235.685C268.133 235.453 267.428 235.378 266.734 235.466Z" fill="#F5F5F5"/>
<path d="M248.974 129.489C247.664 128.284 246.285 125.398 245.216 126.982C244.527 128.049 245.989 128.772 245.906 130.122C245.823 131.472 241.707 128.27 239.99 127.072C238.846 126.273 236.205 128.772 237.267 131.479C238.205 133.882 239.708 135.404 242.404 136.54C245.251 137.746 246.74 138.345 250.311 139.949C251.911 137.684 253.028 135.446 252.635 133.269C249.829 131.637 250.105 130.529 248.974 129.489Z" fill="#FFA8A7"/>
<path opacity="0.1" d="M245.629 131.547C245.629 132.759 245.96 134.688 247.698 135.679C247.263 135.62 246.848 135.458 246.488 135.207C246.128 134.955 245.834 134.621 245.629 134.233C245.405 133.821 245.288 133.359 245.288 132.89C245.288 132.421 245.405 131.96 245.629 131.547Z" fill="black"/>
<path d="M282.804 115.956C281.253 118.022 281.894 117.175 281.426 120.329C281.039 122.87 275.696 147.324 270.856 148.336C268.733 148.784 253.413 141.781 249.697 139.735C251.1 137.798 252.099 135.599 252.634 133.269C257.088 135.011 264.762 136.712 267.519 137.58C268.795 134.026 270.353 130.376 271.815 126.789C274.586 119.964 276.165 115.109 282.804 115.956Z" fill="#455A64"/>
<path d="M302.855 157.324C302.855 162.75 303.227 194.304 303.227 194.304C303.365 195.868 304.868 198.643 304.985 204.269C305.157 212.423 304.833 236.395 304.833 236.395C304.833 236.395 299.731 238.261 296.16 236.774C296.16 236.774 292.361 205.86 291.334 197.789C290.445 190.744 288.631 174.657 288.631 174.657L286.115 196.005C286.486 199.41 286.582 202.839 286.404 206.259C286.142 209.999 282.902 230.913 282.902 230.913C282.902 230.913 277.504 232.042 273.615 230.734C273.615 230.734 273.822 197.073 273.76 193.643C273.684 189.739 275.387 156.139 275.387 156.139L302.855 157.324Z" fill="url(#paint15_linear_473_7608)"/>
<path opacity="0.4" d="M302.855 157.324C302.855 162.75 303.227 194.304 303.227 194.304C303.365 195.868 304.868 198.643 304.985 204.269C305.157 212.423 304.833 236.395 304.833 236.395C304.833 236.395 299.731 238.261 296.16 236.774C296.16 236.774 292.361 205.86 291.334 197.789C290.445 190.744 288.631 174.657 288.631 174.657L286.115 196.005C286.486 199.41 286.582 202.839 286.404 206.259C286.142 209.999 282.902 230.913 282.902 230.913C282.902 230.913 277.504 232.042 273.615 230.734C273.615 230.734 273.822 197.073 273.76 193.643C273.684 189.739 275.387 156.139 275.387 156.139L302.855 157.324Z" fill="black"/>
<path opacity="0.15" d="M288.633 174.657L288.184 171.331C286.578 171.055 282.551 168.404 280.179 166.118C281.841 168.763 284.122 170.966 286.826 172.536L286.488 193.671L288.633 174.657Z" fill="black"/>
<path d="M293.051 115.86C294.257 116.149 297.187 116.507 299.311 117.12C300.883 117.568 301.544 119.489 301.875 120.935C302.923 125.563 303.11 135.266 303.11 135.266L303.172 157.868C299.249 160.719 283.178 162.165 274.904 156.153C274.904 156.153 275.911 129.234 275.911 125.047C275.911 120.86 278.241 115.826 284.674 115.447L293.051 115.86Z" fill="#455A64"/>
<path d="M293.857 116.025C294.07 116.072 294.271 116.165 294.445 116.298C294.618 116.43 294.761 116.6 294.861 116.794C294.962 116.988 295.019 117.201 295.027 117.42C295.036 117.638 294.997 117.855 294.912 118.057C294.049 120.028 292.886 121.854 291.464 123.47C289.12 126.141 284.156 128.29 284.156 128.29C284.156 128.29 281.695 125.535 282.143 122.388C282.591 119.241 283.867 116.611 284.818 115.874C285.069 115.706 285.346 115.583 285.639 115.509V115.109C284.229 114.975 282.806 115.145 281.467 115.605C279.792 116.349 276.821 117.595 275.883 122.746C274.945 127.898 274.152 156.883 274.152 156.883C274.152 156.883 284.101 165.89 303.695 159.3V135.438C303.695 135.438 303.55 124.282 300.606 117.01L293.884 115.633L293.857 116.025Z" fill="url(#paint16_linear_473_7608)"/>
<path opacity="0.1" d="M303.676 146.491C301.242 148.24 297.974 150.492 295.602 152C294.913 152.441 294.292 152.82 293.796 153.109C293.189 153.46 292.251 152.978 291.562 152.84C289.721 152.462 288.549 152.758 286.819 152.84C285.44 152.902 284.709 152.524 284.585 152.84C284.477 153.214 284.514 153.615 284.689 153.962C284.865 154.309 285.165 154.578 285.529 154.714C286.327 155.038 287.16 155.269 288.011 155.402C286.617 156.064 285.125 156.497 283.592 156.683C280.469 157.076 279.159 158.06 281.2 160.457C284.22 161.356 287.363 161.779 290.514 161.71C291.204 161.414 291.976 161.022 292.789 160.636C293.934 160.037 296.292 158.708 298.505 157.51C299.539 156.945 300.573 156.408 301.373 156.001C302.173 155.595 302.89 155.258 303.676 154.886V146.491Z" fill="black"/>
<path opacity="0.1" d="M301.255 118.876C297.98 126.073 302.972 131.96 302.972 131.96L303.627 133.923C303.489 131.017 303 124.31 301.255 118.876Z" fill="black"/>
<path d="M274.538 144.721C276.144 147.607 283.604 149.335 290.044 149.432C296.483 149.528 301.833 147.689 303.674 145.988V143.186C301.833 144.907 296.483 146.76 290.044 146.629C283.604 146.498 276.255 144.776 274.648 141.891L274.538 144.721Z" fill="#FAFAFA"/>
<path d="M303.675 151.167C301.834 152.889 296.484 154.741 290.044 154.611C283.605 154.48 275.959 152.717 274.353 149.831L274.449 147.015C276.055 149.9 283.605 151.684 290.044 151.78C296.484 151.877 301.834 150.038 303.675 148.337V151.167Z" fill="#FAFAFA"/>
<path opacity="0.15" d="M284.156 128.277L283.708 161.091C283.204 160.988 282.729 160.871 282.26 160.754L284.156 128.277Z" fill="black"/>
<path d="M258.634 141.698L281.468 143.234L293.085 168.948L271.264 166.924L258.634 141.698Z" fill="#263238"/>
<path opacity="0.15" d="M279.765 159.486C280.096 160.34 280.649 161.091 281.366 161.662C282.083 162.233 282.939 162.604 283.846 162.737C285.888 162.913 287.94 162.532 289.782 161.635L288.81 159.486H279.765Z" fill="black"/>
<path opacity="0.15" d="M265.748 144.378L265.41 143.579C265.224 143.144 266.492 142.889 268.25 142.986L271.608 143.2C273.366 143.317 274.945 143.758 275.131 144.199L275.469 144.991L265.748 144.378Z" fill="black"/>
<path d="M263.638 141.54C263.521 141.264 264.024 141.092 264.762 141.147L266.092 141.257C266.092 141.257 265.369 139.536 268.306 139.625C271.243 139.715 272.249 141.622 272.249 141.622L273.676 141.746C274.294 141.742 274.892 141.956 275.366 142.352L275.621 142.841L263.859 142.049L263.638 141.54Z" fill="url(#paint17_linear_473_7608)"/>
<path opacity="0.3" d="M263.638 141.54C263.521 141.264 264.024 141.092 264.762 141.147L266.092 141.257C266.092 141.257 265.369 139.536 268.306 139.625C271.243 139.715 272.249 141.622 272.249 141.622L273.676 141.746C274.294 141.742 274.892 141.956 275.366 142.352L275.621 142.841L263.859 142.049L263.638 141.54Z" fill="black"/>
<path d="M275.008 144.301C274.856 143.936 273.74 143.571 272.354 143.392C272.354 143.344 272.319 143.303 272.306 143.261C272.147 142.883 272.271 142.607 273.098 142.669V142.338L264.956 141.856L265.349 142.139C266.418 142.187 266.873 142.242 267.162 142.917L267.224 143.068C265.963 143.068 265.156 143.323 265.28 143.681L265.618 144.48L275.346 145.093L275.008 144.301Z" fill="url(#paint18_linear_473_7608)"/>
<path opacity="0.4" d="M275.008 144.301C274.856 143.936 273.74 143.571 272.354 143.392C272.354 143.344 272.319 143.303 272.306 143.261C272.147 142.883 272.271 142.607 273.098 142.669V142.338L264.956 141.856L265.349 142.139C266.418 142.187 266.873 142.242 267.162 142.917L267.224 143.068C265.963 143.068 265.156 143.323 265.28 143.681L265.618 144.48L275.346 145.093L275.008 144.301Z" fill="black"/>
<path d="M294.359 151.271C293.67 151.718 293.049 152.097 292.553 152.386C291.946 152.731 291.009 152.256 290.319 152.118C288.478 151.739 287.306 152.035 285.576 152.118C284.197 152.187 283.466 151.808 283.342 152.118C283.232 152.492 283.269 152.893 283.444 153.241C283.62 153.588 283.921 153.857 284.287 153.991C285.083 154.319 285.917 154.55 286.769 154.68C285.374 155.342 283.882 155.774 282.349 155.961C278.847 156.401 277.613 157.544 280.846 160.685C282.873 162.647 285.707 162.943 291.546 159.913C292.691 159.314 295.049 157.978 297.262 156.78C297.181 155.712 296.881 154.673 296.382 153.725C295.883 152.778 295.194 151.942 294.359 151.271Z" fill="#FFA8A7"/>
<path d="M309.686 125.184C307.617 117.953 304.818 117.347 300.585 117.01C296.214 124.702 301.73 131.251 301.73 131.251L305.735 143.248C305.115 143.936 298.427 148.674 294.359 151.27C295.531 152.228 297.262 155.161 297.262 156.78C298.296 156.222 299.33 155.685 300.13 155.271C306.301 152.207 314.539 148.95 314.677 145.83C314.815 142.71 311.823 132.801 309.686 125.184Z" fill="#455A64"/>
<path d="M285.763 102.611C285.771 102.785 285.83 102.953 285.932 103.094C286.035 103.234 286.177 103.342 286.34 103.403C286.503 103.464 286.68 103.476 286.85 103.437C287.02 103.398 287.174 103.31 287.294 103.184C287.415 103.059 287.495 102.9 287.527 102.729C287.558 102.557 287.538 102.381 287.469 102.221C287.401 102.061 287.287 101.924 287.142 101.828C286.997 101.732 286.826 101.681 286.652 101.68C286.412 101.688 286.183 101.789 286.017 101.964C285.85 102.138 285.759 102.37 285.763 102.611Z" fill="#263238"/>
<path d="M286.651 99.6016L288.492 100.65C288.626 100.398 288.656 100.105 288.577 99.8317C288.497 99.5585 288.313 99.3274 288.065 99.1879C287.945 99.1203 287.814 99.0774 287.677 99.0616C287.541 99.0459 287.403 99.0577 287.271 99.0962C287.139 99.1348 287.016 99.1994 286.91 99.2862C286.804 99.373 286.716 99.4802 286.651 99.6016Z" fill="#263238"/>
<path d="M285.991 108.037L283.922 108.809C283.965 108.946 284.036 109.073 284.129 109.182C284.223 109.292 284.337 109.381 284.466 109.445C284.594 109.51 284.735 109.547 284.878 109.557C285.021 109.566 285.165 109.546 285.301 109.499C285.585 109.395 285.816 109.183 285.945 108.909C286.074 108.636 286.091 108.322 285.991 108.037Z" fill="#F28F8F"/>
<path d="M278.661 100.34L280.336 99.0507C280.258 98.9371 280.158 98.8407 280.041 98.7673C279.925 98.6938 279.794 98.645 279.658 98.6237C279.522 98.6024 279.383 98.6091 279.249 98.6434C279.116 98.6777 278.991 98.7388 278.881 98.8231C278.655 98.9981 278.506 99.254 278.465 99.537C278.423 99.82 278.494 100.108 278.661 100.34Z" fill="#263238"/>
<path d="M279.04 102.612C279.047 102.781 279.103 102.944 279.203 103.081C279.302 103.219 279.439 103.324 279.597 103.384C279.756 103.443 279.928 103.455 280.093 103.418C280.258 103.38 280.408 103.295 280.525 103.172C280.642 103.05 280.72 102.895 280.75 102.729C280.78 102.562 280.76 102.39 280.693 102.235C280.625 102.08 280.514 101.948 280.372 101.855C280.23 101.763 280.065 101.714 279.895 101.715C279.78 101.718 279.667 101.743 279.562 101.79C279.457 101.836 279.361 101.903 279.282 101.986C279.203 102.07 279.14 102.168 279.099 102.275C279.057 102.382 279.038 102.497 279.04 102.612Z" fill="#263238"/>
<path d="M283.71 101.123L283.413 106.529L280.579 105.565L283.71 101.123Z" fill="#F28F8F"/>
<path d="M285.778 101.337L298.437 100.4C300.884 102.252 305.441 106.15 305.434 107.231V107.982C305.444 108.011 305.444 108.043 305.434 108.072C304.986 108.926 303.366 109.449 300.857 109.49C297.878 109.545 293.273 109.27 292.025 108.223C290.198 106.653 285.82 102.025 285.82 102.025L286.454 101.977L285.778 101.337Z" fill="url(#paint19_linear_473_7608)"/>
<path opacity="0.2" d="M285.778 101.337L298.437 100.4C300.884 102.252 305.441 106.15 305.434 107.231V107.982C305.444 108.011 305.444 108.043 305.434 108.072C304.986 108.926 303.366 109.449 300.857 109.49C297.878 109.545 293.273 109.27 292.025 108.223C290.198 106.653 285.82 102.025 285.82 102.025L286.454 101.977L285.778 101.337Z" fill="black"/>
<path d="M298.434 101.144C300.992 103.079 305.86 107.245 305.405 108.099C304.95 108.953 303.336 109.476 300.827 109.518C297.848 109.573 293.243 109.297 291.995 108.251C290.168 106.68 285.79 102.053 285.79 102.053L298.434 101.144Z" fill="url(#paint20_linear_473_7608)"/>
<path opacity="0.4" d="M298.434 101.144C300.992 103.079 305.86 107.245 305.405 108.099C304.95 108.953 303.336 109.476 300.827 109.518C297.848 109.573 293.243 109.297 291.995 108.251C290.168 106.68 285.79 102.053 285.79 102.053L298.434 101.144Z" fill="black"/>
<path d="M298.435 101.144C298.476 101.509 297.187 102.274 297.187 102.274L297.545 100.049L298.435 101.144Z" fill="url(#paint21_linear_473_7608)"/>
<path opacity="0.3" d="M298.435 101.144C298.476 101.509 297.187 102.274 297.187 102.274L297.545 100.049L298.435 101.144Z" fill="black"/>
<path d="M295.112 93.7613C295.112 93.7613 297.091 94.0368 297.815 95.5242C298.442 96.8189 298.215 99.9454 297.373 103.354C296.894 105.558 296.182 107.705 295.25 109.759C294.92 110.339 294.379 110.771 293.74 110.964L293.836 106.921L293.981 104.105C293.981 104.105 292.174 101.633 291.974 99.608C291.719 97.0048 292.264 95.9374 292.264 95.9374L295.112 93.7613Z" fill="#263238"/>
<path d="M291.913 97.6656C291.9 99.6663 291.095 101.581 289.674 102.991C288.254 104.401 286.332 105.193 284.329 105.193C282.429 105.035 280.658 104.168 279.368 102.764C278.079 101.361 277.367 99.5238 277.373 97.6192C277.379 95.7146 278.103 93.8822 279.401 92.4869C280.699 91.0917 282.476 90.236 284.377 90.0904C286.38 90.1031 288.297 90.9068 289.709 92.3261C291.12 93.7453 291.913 95.6648 291.913 97.6656Z" fill="#263238"/>
<path d="M293.877 103.65C294.567 104.236 295.112 102.714 295.684 102.114C296.256 101.515 298.117 100.737 299.041 102.672C299.965 104.607 298.228 107.493 296.794 108.023C296.363 108.188 295.89 108.204 295.449 108.069C295.008 107.935 294.625 107.657 294.36 107.279V116.232C292.209 120.102 288.41 119.985 286.383 119.765C284.356 119.544 283.908 117.444 285.39 115.743V112.988C284.264 113.163 283.122 113.216 281.984 113.147C280.123 112.857 279.151 111.459 278.599 109.449C277.703 106.219 277.344 100.785 278.599 94.5186C280.668 92.9072 287.893 93.1413 292.257 95.9373C291.947 101.495 293.195 103.058 293.877 103.65Z" fill="#FFA8A7"/>
<path d="M279.385 91.7708C280.235 90.8495 281.272 90.1194 282.426 89.6291C283.359 89.23 284.361 89.0171 285.377 89.0024C286.693 89.0024 288.01 88.8096 289.327 88.8509C291.616 88.9198 294.374 89.8494 295.408 92.0738C295.884 93.093 295.96 94.1398 295.029 94.8284C294.194 95.3918 293.237 95.7483 292.237 95.8683C290.547 96.1644 288.865 96.5569 287.155 96.7635C285.327 97.0743 283.458 97.0486 281.64 96.6878C280.789 96.4895 279.979 96.1446 279.247 95.6686C278.877 95.4141 278.531 95.1259 278.213 94.8077C278.096 94.6838 277.772 94.429 277.731 94.2568C277.689 94.0847 277.917 93.7541 277.999 93.5682C278.376 92.9083 278.843 92.3034 279.385 91.7708Z" fill="#263238"/>
<path d="M285.411 112.981C285.411 112.981 289.548 112.155 291.01 111.391C291.867 110.954 292.569 110.267 293.024 109.421C292.802 110.266 292.413 111.057 291.879 111.749C290.81 113.126 285.404 114.083 285.404 114.083L285.411 112.981Z" fill="#F28F8F"/>
<path d="M286.163 102.274C286.159 102.385 286.178 102.496 286.217 102.6C286.257 102.704 286.318 102.799 286.395 102.879C286.472 102.96 286.564 103.024 286.666 103.068C286.769 103.112 286.879 103.135 286.99 103.136C287.214 103.13 287.428 103.037 287.584 102.876C287.74 102.714 287.826 102.498 287.824 102.274C287.835 102.158 287.821 102.042 287.784 101.932C287.747 101.822 287.688 101.721 287.61 101.636C287.532 101.55 287.436 101.482 287.33 101.435C287.224 101.388 287.109 101.364 286.994 101.364C286.878 101.364 286.763 101.388 286.657 101.435C286.551 101.482 286.456 101.55 286.377 101.636C286.299 101.721 286.24 101.822 286.203 101.932C286.166 102.042 286.152 102.158 286.163 102.274Z" fill="#263238"/>
<path d="M286.99 99.3812L288.838 100.216C288.945 99.9624 288.95 99.6779 288.852 99.4211C288.755 99.1643 288.562 98.9549 288.314 98.8365C288.192 98.7816 288.06 98.7522 287.926 98.7501C287.792 98.7479 287.659 98.7731 287.535 98.8241C287.411 98.8751 287.299 98.9508 287.205 99.0466C287.112 99.1423 287.038 99.2562 286.99 99.3812Z" fill="#263238"/>
<path d="M286.08 107.927L283.425 108.913C283.48 109.092 283.571 109.259 283.693 109.402C283.814 109.546 283.964 109.663 284.133 109.746C284.301 109.829 284.485 109.877 284.673 109.887C284.861 109.897 285.048 109.868 285.225 109.802C285.58 109.659 285.867 109.384 286.026 109.035C286.186 108.686 286.205 108.289 286.08 107.927Z" fill="#B16668"/>
<path d="M285.226 109.801C284.989 109.884 284.735 109.903 284.488 109.856C284.501 109.525 284.641 109.211 284.881 108.981C285.12 108.75 285.439 108.622 285.771 108.622C285.892 108.622 286.013 108.641 286.129 108.677C286.091 108.927 285.987 109.163 285.828 109.36C285.67 109.558 285.462 109.71 285.226 109.801Z" fill="#F28F8F"/>
<path d="M279.213 99.8784L281.137 99.1888C281.098 99.0609 281.032 98.9425 280.946 98.8408C280.859 98.7391 280.752 98.6563 280.632 98.5975C280.511 98.5387 280.38 98.5051 280.247 98.4989C280.113 98.4927 279.98 98.5139 279.854 98.5613C279.602 98.6606 279.396 98.851 279.277 99.0949C279.158 99.3388 279.136 99.6184 279.213 99.8784Z" fill="#263238"/>
<path d="M279.316 102.026C279.305 102.141 279.319 102.258 279.356 102.368C279.393 102.478 279.452 102.579 279.531 102.664C279.609 102.75 279.704 102.818 279.81 102.865C279.916 102.912 280.031 102.936 280.147 102.936C280.263 102.936 280.378 102.912 280.484 102.865C280.59 102.818 280.685 102.75 280.763 102.664C280.841 102.579 280.901 102.478 280.938 102.368C280.975 102.258 280.988 102.141 280.978 102.026C280.981 101.915 280.963 101.804 280.923 101.7C280.883 101.596 280.823 101.501 280.746 101.42C280.669 101.34 280.576 101.276 280.474 101.232C280.372 101.188 280.262 101.165 280.15 101.164C279.926 101.169 279.713 101.263 279.557 101.424C279.401 101.585 279.314 101.801 279.316 102.026Z" fill="#263238"/>
<path d="M284.012 99.8764L283.709 106.529L280.337 105.64L284.012 99.8764Z" fill="#F28F8F"/>
<path d="M298.971 98.0652C298.945 99.1325 298.764 100.19 298.434 101.205C298.221 100.875 297.961 100.578 297.661 100.324C295.966 98.917 294.039 97.8148 291.967 97.0667C287.189 95.228 281.625 94.9387 277.144 96.5089C277.219 95.5955 277.419 94.6967 277.736 93.8369C279.364 89.5948 282.652 87.3773 287.906 87.9214C294.063 88.5618 299.144 91.9775 298.971 98.0652Z" fill="url(#paint22_linear_473_7608)"/>
<path d="M287.702 94.3192C286.275 93.8371 282.627 93.5548 281.558 93.8922C281.064 93.486 280.632 93.0105 280.275 92.4805C279.779 91.6886 279.944 90.69 280.413 90.4903C280.882 90.2906 280.917 90.8966 282.73 91.7987C282.491 91.2185 282.438 90.5785 282.579 89.9669C282.875 89.2301 283.503 90.5523 284.847 91.3993C286.192 92.2464 287.53 92.6871 287.702 94.3192Z" fill="#263238"/>
<path d="M24.1992 272.679C18.401 266.702 14.9882 242.379 20.6486 237.62H49.4467C55.1001 242.365 51.6943 266.695 45.896 272.679L45.7375 272.845L45.5375 273.037C45.379 273.196 45.1997 273.354 45.0136 273.513L44.8757 273.623L44.4413 273.953C44.2015 274.13 43.9505 274.291 43.6898 274.435C38.9189 277.224 31.1764 277.224 26.4054 274.435C26.1425 274.291 25.8892 274.13 25.647 273.953C25.5022 273.85 25.3781 273.747 25.2403 273.637L25.0679 273.506C24.8886 273.354 24.7232 273.203 24.5646 273.051L24.3371 272.824L24.1992 272.679Z" fill="#455A64"/>
<path d="M46.9429 235.713C53.5134 239.542 53.5134 245.753 46.9429 249.589C40.3725 253.425 29.7068 253.418 23.1502 249.589C16.5936 245.76 16.5798 239.542 23.1502 235.713C29.7206 231.884 40.3725 231.884 46.9429 235.713Z" fill="#455A64"/>
<g opacity="0.1">
<path opacity="0.1" d="M46.9439 235.712C53.5143 239.541 53.5143 245.753 46.9439 249.589C40.3735 253.424 29.7078 253.418 23.1512 249.589C16.5945 245.76 16.5807 239.541 23.1512 235.712C29.7216 231.883 40.3735 231.883 46.9439 235.712Z" fill="white"/>
</g>
<path d="M43.7865 237.558C48.6126 240.368 48.6126 244.934 43.7865 247.743C38.9604 250.553 31.1352 250.56 26.309 247.743C21.4829 244.927 21.4829 240.368 26.309 237.558C31.1352 234.748 38.9604 234.742 43.7865 237.558Z" fill="#263238"/>
<path d="M26.3097 242.393C31.1358 239.576 38.961 239.576 43.7871 242.393C44.9572 243.033 45.9498 243.954 46.6759 245.072C45.9474 246.186 44.9552 247.103 43.7871 247.743C38.961 250.56 31.1358 250.56 26.3097 247.743C25.1416 247.103 24.1494 246.186 23.4209 245.072C24.147 243.954 25.1396 243.033 26.3097 242.393Z" fill="#F5F5F5"/>
<path d="M51.0046 190.414L39.4978 198.278L50.3841 194.146C50.2858 197.056 49.5517 199.91 48.2331 202.506C48.2331 202.506 41.0421 205.991 37.133 209.668L46.7094 206.7C47.0095 208.367 46.9078 210.08 46.4129 211.7C46.3509 211.92 46.2819 212.147 46.213 212.389C45.7028 213.917 44.9789 216.81 43.7517 220.239C42.7082 223.24 41.3831 226.136 39.7943 228.889C39.0018 230.239 38.1221 231.536 37.1606 232.773L36.9813 233.007C35.2025 231.822 33.364 230.675 31.4658 229.563C30.3282 226.671 29.1078 219.785 28.8872 214.275C28.053 192.927 44.903 181.957 58.0577 178.803C58.0577 178.803 53.2453 184.023 51.0046 190.414Z" fill="url(#paint23_linear_473_7608)"/>
<path opacity="0.3" d="M51.0046 190.414L39.4978 198.278L50.3841 194.146C50.2858 197.056 49.5517 199.91 48.2331 202.506C48.2331 202.506 41.0421 205.991 37.133 209.668L46.7094 206.7C47.0095 208.367 46.9078 210.08 46.4129 211.7C46.3509 211.92 46.2819 212.147 46.213 212.389C45.7028 213.917 44.9789 216.81 43.7517 220.239C42.7082 223.24 41.3831 226.136 39.7943 228.889C39.0018 230.239 38.1221 231.536 37.1606 232.773L36.9813 233.007C35.2025 231.822 33.364 230.675 31.4658 229.563C30.3282 226.671 29.1078 219.785 28.8872 214.275C28.053 192.927 44.903 181.957 58.0577 178.803C58.0577 178.803 53.2453 184.023 51.0046 190.414Z" fill="black"/>
<path d="M41.8096 190.655C40.6385 191.7 39.6299 192.914 38.8169 194.256C38.0153 195.605 37.3102 197.009 36.7069 198.457C35.519 201.356 34.6542 204.377 34.128 207.465C33.0048 213.632 33.3592 219.978 35.1623 225.983C35.1861 226.06 35.178 226.144 35.1399 226.216C35.1017 226.287 35.0366 226.341 34.9589 226.365C34.8812 226.389 34.7972 226.381 34.7254 226.342C34.6537 226.304 34.6 226.239 34.5762 226.162C32.8507 220.05 32.6002 213.616 33.8453 207.389C34.43 204.292 35.355 201.269 36.6035 198.375C37.229 196.931 37.9572 195.534 38.7825 194.194C39.6123 192.873 40.6323 191.68 41.8096 190.655Z" fill="#FAFAFA"/>
<path d="M0 201.48C0.261989 201.811 4.58481 207.279 10.9208 217.856L21.9519 219.977L13.7544 221.162L17.9325 228.241L28.7706 230.831L20.2076 231.953C20.2076 231.953 22.3242 240.327 28.3155 243.977C31.6249 245.995 33.2589 246.332 34.2999 245.402C34.9894 244.755 35.3134 240.775 36.0097 237.242C36.7061 233.709 36.9336 227.924 33.7897 220.845C32.9345 218.95 31.8107 217.187 30.4528 215.611C22.6621 206.397 7.54253 201.604 0 201.48Z" fill="url(#paint24_linear_473_7608)"/>
<path opacity="0.15" d="M0 201.48C0.261989 201.811 4.58481 207.279 10.9208 217.856L21.9519 219.977L13.7544 221.162L17.9325 228.241L28.7706 230.831L20.2076 231.953C20.2076 231.953 22.3242 240.327 28.3155 243.977C31.6249 245.995 33.2589 246.332 34.2999 245.402C34.9894 244.755 35.3134 240.775 36.0097 237.242C36.7061 233.709 36.9336 227.924 33.7897 220.845C32.9345 218.95 31.8107 217.187 30.4528 215.611C22.6621 206.397 7.54253 201.604 0 201.48Z" fill="black"/>
<path opacity="0.1" d="M31.4663 224.488C32.6539 227.444 33.4153 230.553 33.7277 233.723C33.9529 237.726 33.9345 241.739 33.6725 245.74C33.9026 245.661 34.1156 245.54 34.2999 245.382C34.9894 244.734 35.3134 240.754 36.0097 237.221C36.7061 233.688 36.9336 227.904 33.7897 220.824C32.9345 218.929 31.8107 217.166 30.4528 215.591C22.6621 206.363 7.54253 201.57 0 201.446C11.5206 203.698 23.7307 211.775 29.5979 220.907C30.3236 222.044 30.9488 223.242 31.4663 224.488Z" fill="black"/>
<path d="M68.7726 209.337C67.8404 209.282 66.9057 209.282 65.9734 209.337C62.3033 209.554 58.6743 210.224 55.1698 211.335C53.8737 211.741 52.5637 212.202 51.2745 212.712C50.6333 212.98 49.9921 213.263 49.3578 213.559C46.2241 214.98 43.349 216.911 40.8501 219.275C39.6879 220.409 38.6692 221.681 37.8165 223.062C37.7131 223.241 37.5959 223.42 37.4924 223.599C37.2236 224.068 36.9823 224.536 36.7547 224.977C34.6278 228.964 33.5507 233.427 33.6247 237.944C33.5626 241.126 34.4451 244.831 35.0036 245.444C35.0793 245.53 35.1676 245.604 35.2655 245.664C36.1411 246.291 37.6028 246.036 40.3812 244.679C45.9451 241.966 48.4822 234.446 48.4822 234.446L41.05 232.759L50.7919 231.381L55.0457 225.5L47.9444 223.806L57.8104 222.849C61.1845 218.135 64.8382 213.628 68.7519 209.351L68.7726 209.337Z" fill="url(#paint25_linear_473_7608)"/>
<path opacity="0.05" d="M65.9734 209.317C62.3033 209.533 58.6743 210.204 55.1698 211.314C53.8737 211.721 52.5637 212.182 51.2745 212.692C50.6333 212.96 49.9921 213.243 49.3578 213.539C46.2241 214.96 43.349 216.891 40.8501 219.255C39.6879 220.389 38.6692 221.661 37.8165 223.042C37.7131 223.221 37.5959 223.4 37.4924 223.579C37.2236 224.048 36.9823 224.516 36.7547 224.957C34.6278 228.944 33.5507 233.406 33.6247 237.924C33.5626 241.106 34.4451 244.81 35.0036 245.423C35.0793 245.51 35.1676 245.584 35.2655 245.644C35.4426 245.766 35.6416 245.852 35.8516 245.899C35.4586 240.94 38.5749 228.593 42.5254 223.662C46.6621 218.532 56.1282 211.266 68.7243 209.304C67.8079 209.253 66.8893 209.258 65.9734 209.317Z" fill="black"/>
<path d="M287.597 72.4139L289.776 68.3233L288.024 63.2686V60.1766L293.389 63.2686V66.3607L291.086 70.348C291.049 70.4095 290.993 70.4578 290.927 70.4857L287.597 72.4139Z" fill="url(#paint26_linear_473_7608)"/>
<path opacity="0.2" d="M287.597 72.4139L289.776 68.3233L288.024 63.2686V60.1766L293.389 63.2686V66.3607L291.086 70.348C291.049 70.4095 290.993 70.4578 290.927 70.4857L287.597 72.4139Z" fill="black"/>
<path d="M277.972 37.4712C278.007 36.9182 278.171 36.3811 278.451 35.9028C278.732 35.4245 279.12 35.0183 279.585 34.7166L280.888 33.966C281.387 33.7115 281.938 33.5788 282.498 33.5788C283.058 33.5788 283.609 33.7115 284.108 33.966L300.42 43.3247C300.885 43.6264 301.272 44.0328 301.551 44.5112C301.83 44.9896 301.993 45.5267 302.027 46.0794V68.1162C301.993 68.6687 301.83 69.2056 301.551 69.684C301.272 70.1623 300.885 70.5688 300.42 70.8708L299.11 71.6284C298.611 71.8796 298.059 72.0105 297.5 72.0105C296.941 72.0105 296.39 71.8796 295.89 71.6284L290.01 68.3297L287.707 72.3101C287.675 72.3687 287.627 72.4167 287.568 72.4479C287.509 72.4791 287.442 72.4923 287.376 72.4856C287.31 72.479 287.247 72.4529 287.195 72.4107C287.144 72.3684 287.106 72.3119 287.086 72.2481L284.653 65.2377L279.564 62.3178C279.101 62.0149 278.714 61.6082 278.435 61.1301C278.156 60.6519 277.993 60.1154 277.958 59.5632L277.972 37.4712Z" fill="url(#paint27_linear_473_7608)"/>
<path opacity="0.2" d="M302.027 68.1715C301.994 68.7241 301.831 69.2613 301.552 69.7397C301.273 70.2181 300.885 70.6244 300.421 70.9261L299.11 71.6836C298.656 71.9114 298.159 72.0403 297.652 72.0617C297.144 72.083 296.638 71.9964 296.166 71.8076C296.925 72.0968 297.504 71.6699 297.504 70.754V48.7171C297.486 48.1568 297.322 47.6108 297.028 47.1332L301.558 44.5232C301.847 45.0027 302.008 45.5479 302.027 46.1071V68.1715Z" fill="black"/>
<path opacity="0.5" d="M278.027 37.017C278.213 36.3284 278.834 36.1149 279.579 36.5419L295.898 45.9351C296.374 46.228 296.764 46.6414 297.028 47.1333L301.551 44.5234C301.285 44.0329 300.895 43.62 300.421 43.3251L284.108 33.9388C283.61 33.6876 283.06 33.5567 282.502 33.5567C281.944 33.5567 281.394 33.6876 280.895 33.9388L279.579 34.6963C279.176 34.9576 278.831 35.2982 278.564 35.6972C278.297 36.0962 278.115 36.5453 278.027 37.017Z" fill="white"/>
<path d="M285.46 61.4642H285.26C285.019 61.4311 284.791 61.338 284.596 61.1936C284.4 61.0492 284.245 60.8581 284.143 60.6378L281.247 54.495C281.153 54.3213 281.096 54.1303 281.078 53.9337C281.06 53.737 281.083 53.5388 281.145 53.3512C281.206 53.1636 281.306 52.9905 281.436 52.8424C281.567 52.6944 281.727 52.5746 281.906 52.4902C282.084 52.4059 282.278 52.3588 282.476 52.3519C282.674 52.3449 282.87 52.3783 283.055 52.4499C283.239 52.5215 283.406 52.6299 283.547 52.7684C283.688 52.9069 283.799 53.0726 283.874 53.2555L285.818 57.3874L292.492 49.6263C292.615 49.4776 292.767 49.3549 292.938 49.2655C293.11 49.176 293.297 49.1215 293.49 49.1052C293.682 49.0889 293.876 49.1111 294.06 49.1705C294.244 49.2299 294.414 49.3252 294.561 49.4511C294.707 49.5769 294.827 49.7306 294.914 49.9033C295 50.0759 295.051 50.2641 295.064 50.4567C295.077 50.6493 295.051 50.8426 294.988 51.0251C294.926 51.2077 294.827 51.376 294.698 51.52L286.563 60.9615C286.427 61.1207 286.258 61.2482 286.067 61.335C285.877 61.4219 285.669 61.466 285.46 61.4642Z" fill="#FAFAFA"/>
<defs>
<linearGradient id="paint0_linear_473_7608" x1="160.876" y1="255.876" x2="12.6113" y2="223.625" gradientUnits="userSpaceOnUse">
<stop offset="0.431134" stop-color="#008954"/>
<stop offset="0.809708" stop-color="#09B975"/>
</linearGradient>
<linearGradient id="paint1_linear_473_7608" x1="164.399" y1="259.939" x2="28.0174" y2="202.573" gradientUnits="userSpaceOnUse">
<stop offset="0.431134" stop-color="#008954"/>
<stop offset="0.809708" stop-color="#09B975"/>
</linearGradient>
<linearGradient id="paint2_linear_473_7608" x1="153.58" y1="246.166" x2="76.8271" y2="181.608" gradientUnits="userSpaceOnUse">
<stop offset="0.431134" stop-color="#008954"/>
<stop offset="0.809708" stop-color="#09B975"/>
</linearGradient>
<linearGradient id="paint3_linear_473_7608" x1="96.8456" y1="247.819" x2="67.4935" y2="225.188" gradientUnits="userSpaceOnUse">
<stop offset="0.431134" stop-color="#008954"/>
<stop offset="0.809708" stop-color="#09B975"/>
</linearGradient>
<linearGradient id="paint4_linear_473_7608" x1="153.58" y1="247.819" x2="102.247" y2="206.71" gradientUnits="userSpaceOnUse">
<stop offset="0.431134" stop-color="#008954"/>
<stop offset="0.809708" stop-color="#09B975"/>
</linearGradient>
<linearGradient id="paint5_linear_473_7608" x1="106.949" y1="121.94" x2="89.5838" y2="120.308" gradientUnits="userSpaceOnUse">
<stop offset="0.431134" stop-color="#008954"/>
<stop offset="0.809708" stop-color="#09B975"/>
</linearGradient>
<linearGradient id="paint6_linear_473_7608" x1="126.495" y1="110.646" x2="109.12" y2="109.012" gradientUnits="userSpaceOnUse">
<stop offset="0.431134" stop-color="#008954"/>
<stop offset="0.809708" stop-color="#09B975"/>
</linearGradient>
<linearGradient id="paint7_linear_473_7608" x1="164.4" y1="197.602" x2="159.167" y2="197.551" gradientUnits="userSpaceOnUse">
<stop offset="0.431134" stop-color="#008954"/>
<stop offset="0.809708" stop-color="#09B975"/>
</linearGradient>
<linearGradient id="paint8_linear_473_7608" x1="175.188" y1="266.143" x2="-7.05669" y2="222.744" gradientUnits="userSpaceOnUse">
<stop offset="0.431134" stop-color="#008954"/>
<stop offset="0.809708" stop-color="#09B975"/>
</linearGradient>
<linearGradient id="paint9_linear_473_7608" x1="175.188" y1="76.7915" x2="59.3751" y2="-20.6096" gradientUnits="userSpaceOnUse">
<stop offset="0.431134" stop-color="#008954"/>
<stop offset="0.809708" stop-color="#09B975"/>
</linearGradient>
<linearGradient id="paint10_linear_473_7608" x1="45.5104" y1="266.143" x2="40.36" y2="266.098" gradientUnits="userSpaceOnUse">
<stop offset="0.431134" stop-color="#008954"/>
<stop offset="0.809708" stop-color="#09B975"/>
</linearGradient>
<linearGradient id="paint11_linear_473_7608" x1="216.06" y1="198.139" x2="176.335" y2="164.731" gradientUnits="userSpaceOnUse">
<stop offset="0.431134" stop-color="#008954"/>
<stop offset="0.809708" stop-color="#09B975"/>
</linearGradient>
<linearGradient id="paint12_linear_473_7608" x1="216.06" y1="204.503" x2="209.104" y2="202.678" gradientUnits="userSpaceOnUse">
<stop offset="0.431134" stop-color="#008954"/>
<stop offset="0.809708" stop-color="#09B975"/>
</linearGradient>
<linearGradient id="paint13_linear_473_7608" x1="209.62" y1="164.851" x2="184.798" y2="143.976" gradientUnits="userSpaceOnUse">
<stop offset="0.431134" stop-color="#008954"/>
<stop offset="0.809708" stop-color="#09B975"/>
</linearGradient>
<linearGradient id="paint14_linear_473_7608" x1="209.62" y1="170.325" x2="203.641" y2="168.758" gradientUnits="userSpaceOnUse">
<stop offset="0.431134" stop-color="#008954"/>
<stop offset="0.809708" stop-color="#09B975"/>
</linearGradient>
<linearGradient id="paint15_linear_473_7608" x1="305.036" y1="237.349" x2="259.962" y2="228.89" gradientUnits="userSpaceOnUse">
<stop offset="0.431134" stop-color="#008954"/>
<stop offset="0.809708" stop-color="#09B975"/>
</linearGradient>
<linearGradient id="paint16_linear_473_7608" x1="303.695" y1="161.711" x2="263.606" y2="149.396" gradientUnits="userSpaceOnUse">
<stop offset="0.431134" stop-color="#008954"/>
<stop offset="0.809708" stop-color="#09B975"/>
</linearGradient>
<linearGradient id="paint17_linear_473_7608" x1="275.621" y1="142.841" x2="271.446" y2="135.294" gradientUnits="userSpaceOnUse">
<stop offset="0.431134" stop-color="#008954"/>
<stop offset="0.809708" stop-color="#09B975"/>
</linearGradient>
<linearGradient id="paint18_linear_473_7608" x1="275.346" y1="145.093" x2="270.84" y2="138.077" gradientUnits="userSpaceOnUse">
<stop offset="0.431134" stop-color="#008954"/>
<stop offset="0.809708" stop-color="#09B975"/>
</linearGradient>
<linearGradient id="paint19_linear_473_7608" x1="305.442" y1="109.497" x2="291.532" y2="94.9124" gradientUnits="userSpaceOnUse">
<stop offset="0.431134" stop-color="#008954"/>
<stop offset="0.809708" stop-color="#09B975"/>
</linearGradient>
<linearGradient id="paint20_linear_473_7608" x1="305.435" y1="109.524" x2="292.71" y2="95.0571" gradientUnits="userSpaceOnUse">
<stop offset="0.431134" stop-color="#008954"/>
<stop offset="0.809708" stop-color="#09B975"/>
</linearGradient>
<linearGradient id="paint21_linear_473_7608" x1="298.436" y1="102.274" x2="296.709" y2="101.804" gradientUnits="userSpaceOnUse">
<stop offset="0.431134" stop-color="#008954"/>
<stop offset="0.809708" stop-color="#09B975"/>
</linearGradient>
<linearGradient id="paint22_linear_473_7608" x1="298.976" y1="101.205" x2="279.058" y2="85.4239" gradientUnits="userSpaceOnUse">
<stop offset="0.431134" stop-color="#008954"/>
<stop offset="0.809708" stop-color="#09B975"/>
</linearGradient>
<linearGradient id="paint23_linear_473_7608" x1="58.0577" y1="233.007" x2="17.4653" y2="222.4" gradientUnits="userSpaceOnUse">
<stop offset="0.431134" stop-color="#008954"/>
<stop offset="0.809708" stop-color="#09B975"/>
</linearGradient>
<linearGradient id="paint24_linear_473_7608" x1="36.4442" y1="245.895" x2="-10.2765" y2="227.3" gradientUnits="userSpaceOnUse">
<stop offset="0.431134" stop-color="#008954"/>
<stop offset="0.809708" stop-color="#09B975"/>
</linearGradient>
<linearGradient id="paint25_linear_473_7608" x1="68.7726" y1="245.989" x2="25.8407" y2="226.039" gradientUnits="userSpaceOnUse">
<stop offset="0.431134" stop-color="#008954"/>
<stop offset="0.809708" stop-color="#09B975"/>
</linearGradient>
<linearGradient id="paint26_linear_473_7608" x1="293.389" y1="72.4139" x2="285.218" y2="70.5379" gradientUnits="userSpaceOnUse">
<stop offset="0.431134" stop-color="#008954"/>
<stop offset="0.809708" stop-color="#09B975"/>
</linearGradient>
<linearGradient id="paint27_linear_473_7608" x1="302.027" y1="72.4873" x2="269.236" y2="62.6483" gradientUnits="userSpaceOnUse">
<stop offset="0.431134" stop-color="#008954"/>
<stop offset="0.809708" stop-color="#09B975"/>
</linearGradient>
</defs>
</svg>
