<svg width="255" height="112" viewBox="0 0 255 112" fill="none" xmlns="http://www.w3.org/2000/svg">
<g clip-path="url(#clip0_390_6278)">
<path d="M130.726 105.01H90.3555V107.575H130.726V105.01Z" fill="#455A64"/>
<path d="M90.3555 107.657C90.3555 109.477 99.3727 110.967 110.541 110.967C121.709 110.967 130.726 109.477 130.726 107.657C130.726 105.837 121.709 104.348 110.541 104.348C99.3727 104.348 90.3555 105.837 90.3555 107.657Z" fill="#455A64"/>
<path d="M90.3555 105.011C90.3555 106.831 99.3727 108.32 110.541 108.32C121.709 108.32 130.726 106.831 130.726 105.011C130.726 103.191 121.709 101.701 110.541 101.701C99.3727 101.784 90.3555 103.191 90.3555 105.011Z" fill="#263238"/>
<path d="M107.149 105.011C107.149 105.59 108.638 106.003 110.541 106.003C112.361 106.003 113.933 105.59 113.933 105.011C113.933 104.431 112.444 104.018 110.541 104.018C108.721 104.018 107.149 104.514 107.149 105.011Z" fill="#455A64"/>
<path d="M71.6602 43.8748C71.6602 65.8803 89.5293 83.7494 111.535 83.7494C133.54 83.7494 151.409 65.8803 151.409 43.8748C151.409 21.8694 133.54 4.00029 111.535 4.00029C89.4465 3.91756 71.6602 21.7866 71.6602 43.8748Z" fill="#263238"/>
<path d="M76.6221 43.8751C76.6221 63.1506 92.2575 78.786 111.533 78.786C130.808 78.786 146.444 63.1506 146.444 43.8751C146.444 24.5996 130.808 8.96419 111.533 8.96419C92.2575 8.88146 76.6221 24.5996 76.6221 43.8751Z" fill="#A4DCFF"/>
<path d="M111.202 89.375C87.7075 89.375 68.5148 71.8369 66.5293 49.5005H69.7557C71.7411 70.0996 89.5275 86.2314 111.202 86.2314C132.877 86.2314 150.663 70.0996 152.648 49.5005H155.875C153.889 71.8369 134.614 89.375 111.202 89.375Z" fill="#263238"/>
<path d="M113.85 88.0513H107.149V104.928H113.85V88.0513Z" fill="#263238"/>
<path d="M66.4473 49.2523C66.4473 50.576 67.5227 51.7341 68.9291 51.7341H72.2382C73.5618 51.7341 74.72 50.6587 74.72 49.2523C74.72 47.9287 73.6445 46.7705 72.2382 46.7705H68.9291C67.6054 46.7705 66.4473 47.846 66.4473 49.2523Z" fill="#82A816"/>
<path d="M76.6221 43.8749C76.6221 33.0376 81.5857 23.2758 89.3621 16.9058L129.733 73.6567C124.438 76.883 118.234 78.7858 111.533 78.7858C92.2575 78.7858 76.6221 63.1503 76.6221 43.8749Z" fill="#BBE8FF"/>
<path d="M146.444 43.8751C146.444 49.7487 144.955 55.2915 142.39 60.1724L106.569 9.2951C108.224 9.04692 109.878 8.96419 111.533 8.96419C130.808 8.88146 146.444 24.5996 146.444 43.8751Z" fill="#BBE8FF"/>
<path d="M76.6221 43.8749C76.6221 39.7386 77.3666 35.7676 78.6903 32.0449L111.864 78.7858C111.781 78.7858 111.616 78.7858 111.533 78.7858C92.2575 78.7858 76.6221 63.1504 76.6221 43.8749Z" fill="#A4DCFF"/>
<path d="M124.686 56.8628C124.686 58.8483 126.34 60.5028 128.326 60.5028C130.311 60.5028 131.966 58.8483 131.966 56.8628V40.6483C131.966 38.6628 130.311 37.0083 128.326 37.0083C126.34 37.0083 124.686 38.6628 124.686 40.6483V56.8628Z" fill="url(#paint0_linear_390_6278)"/>
<path d="M135.442 56.5325H121.378V63.8125H135.442V56.5325Z" fill="#C4C4C4"/>
<path d="M137.84 50.6584H118.896V60.503H137.84V50.6584Z" fill="#D7D7D7"/>
<path d="M115.504 74.5665C115.504 70.0165 117.821 66.0456 121.378 63.7292H135.359C138.833 65.9629 141.15 69.9338 141.232 74.4011V74.5665V82.0947V105.837C141.232 108.402 139.164 110.553 136.517 110.553H120.137C117.572 110.553 115.422 108.485 115.422 105.837V82.922C115.422 82.6738 115.339 82.3429 115.339 82.0947V74.5665H115.504Z" fill="url(#paint1_linear_390_6278)"/>
<path d="M138.915 103.521C138.915 105.589 137.178 107.326 135.11 107.326H121.708C119.64 107.326 117.902 105.589 117.902 103.521V84.8247C117.902 84.5765 117.902 84.411 117.902 84.1629V81.4329H138.915V84.1629V103.521Z" fill="white" fill-opacity="0.3"/>
<path d="M128.327 98.9711C127.417 98.9711 126.673 98.2266 126.673 97.3166V63.812H130.065V97.3166C130.065 98.2266 129.32 98.9711 128.327 98.9711Z" fill="#D7D7D7"/>
<path d="M160.756 49.9968H151.159V59.2623H160.756V49.9968Z" fill="#455A64"/>
<path d="M147.934 61.4132C147.934 62.6541 148.926 63.6469 150.167 63.6469H161.004C162.245 63.6469 163.238 62.6541 163.238 61.4132V57.2768C163.238 56.0359 162.245 55.0432 161.004 55.0432H150.167C148.926 55.0432 147.934 56.0359 147.934 57.2768V61.4132Z" fill="#D7D7D7"/>
<path d="M145.452 67.2871C145.452 68.528 146.445 69.5207 147.686 69.5207H163.735C164.976 69.5207 165.969 68.528 165.969 67.2871V60.0071C165.969 58.7662 164.976 57.7734 163.735 57.7734H147.686C146.445 57.7734 145.452 58.7662 145.452 60.0071V67.2871Z" fill="#455A64"/>
<path d="M144.541 111.711H166.96C171.427 111.711 174.902 107.906 174.654 103.521L172.42 70.844C172.172 66.7904 168.78 63.6467 164.726 63.6467H147.023C142.969 63.6467 139.66 66.7904 139.329 70.7613L136.93 103.439C136.516 107.906 139.991 111.711 144.541 111.711Z" fill="#263238"/>
<path d="M148.512 101.619H162.824C165.637 101.619 167.953 99.2199 167.705 96.3244L166.381 75.3944C166.216 72.8299 164.065 70.7617 161.501 70.7617H150.167C147.602 70.7617 145.451 72.7472 145.286 75.3117L143.714 96.2417C143.383 99.1372 145.7 101.619 148.512 101.619Z" fill="#455A64"/>
<path d="M143.714 54.0508H144.624C144.541 52.3963 144.789 51.3208 145.203 50.9072C145.451 50.659 145.782 50.5763 146.361 50.4935C154.551 50.3281 164.975 50.4935 165.057 50.4935V49.5835C164.975 49.5835 154.468 49.4181 146.278 49.5835C145.782 49.5835 145.037 49.6663 144.541 50.2454C143.879 50.9072 143.631 52.1481 143.714 54.0508Z" fill="#D7D7D7"/>
<g opacity="0.3">
<path opacity="0.3" d="M165.969 61.5789H145.452V63.7298H165.969V61.5789Z" fill="black"/>
</g>
<g opacity="0.3">
<path opacity="0.3" d="M163.321 56.7805H147.934V57.7732H163.321V56.7805Z" fill="black"/>
</g>
<path d="M84.9613 75.1455C84.9613 76.3864 78.674 77.3791 70.8976 77.3791C63.1213 77.3791 56.834 76.3864 56.834 75.1455C56.834 73.9046 63.1213 72.9119 70.8976 72.9119C78.674 72.9119 84.9613 73.9046 84.9613 75.1455Z" fill="url(#paint2_linear_390_6278)"/>
<path d="M79.749 64.6389H73.71V94.9998H79.749V64.6389Z" fill="url(#paint3_linear_390_6278)"/>
<path d="M84.299 64.3081C84.299 64.8872 83.8026 65.3835 83.2235 65.3835H70.7317C70.1526 65.3835 69.6562 64.8872 69.6562 64.3081V63.6463C69.6562 63.0672 70.1526 62.5708 70.7317 62.5708H83.2235C83.8026 62.5708 84.299 63.0672 84.299 63.6463V64.3081Z" fill="#D7D7D7"/>
<path d="M84.2999 27.908C84.2999 28.4871 83.8036 28.9835 83.2245 28.9835H70.1536C69.5745 28.9835 69.0781 28.4871 69.0781 27.908V25.7571C69.0781 25.178 69.5745 24.6816 70.1536 24.6816H83.2245C83.8036 24.6816 84.2999 25.178 84.2999 25.7571V27.908Z" fill="#D7D7D7"/>
<path d="M86.2841 61.1643C86.2841 62.4052 85.2914 63.398 84.0505 63.398H69.4905C68.2496 63.398 67.2568 62.4052 67.2568 61.1643V27.908C67.2568 26.667 68.2496 25.6743 69.4905 25.6743H84.0505C85.2914 25.6743 86.2841 26.667 86.2841 27.908V61.1643Z" fill="url(#paint4_linear_390_6278)"/>
<path d="M87.443 28.0735H83.3066V28.5699H87.443V28.0735Z" fill="#D7D7D7"/>
<path d="M88.4354 28.3214C88.4354 28.7351 88.1045 29.066 87.6908 29.066C87.2772 29.066 86.9463 28.7351 86.9463 28.3214C86.9463 27.9078 87.2772 27.5769 87.6908 27.5769C88.1045 27.5769 88.4354 27.9078 88.4354 28.3214Z" fill="#D7D7D7"/>
<path d="M87.443 31.3826H83.3066V31.8789H87.443V31.3826Z" fill="#D7D7D7"/>
<path d="M88.4354 31.6305C88.4354 32.0442 88.1045 32.3751 87.6908 32.3751C87.2772 32.3751 86.9463 32.0442 86.9463 31.6305C86.9463 31.2169 87.2772 30.886 87.6908 30.886C88.1045 30.886 88.4354 31.2169 88.4354 31.6305Z" fill="#D7D7D7"/>
<path d="M87.443 34.6914H83.3066V35.1878H87.443V34.6914Z" fill="#D7D7D7"/>
<path d="M88.4354 34.9396C88.4354 35.3532 88.1045 35.6842 87.6908 35.6842C87.2772 35.6842 86.9463 35.3532 86.9463 34.9396C86.9463 34.526 87.2772 34.1951 87.6908 34.1951C88.1045 34.1951 88.4354 34.526 88.4354 34.9396Z" fill="#D7D7D7"/>
<path d="M87.443 38.0007H83.3066V38.4971H87.443V38.0007Z" fill="#D7D7D7"/>
<path d="M88.4354 38.2487C88.4354 38.6623 88.1045 38.9932 87.6908 38.9932C87.2772 38.9932 86.9463 38.6623 86.9463 38.2487C86.9463 37.8351 87.2772 37.5042 87.6908 37.5042C88.1045 37.5042 88.4354 37.8351 88.4354 38.2487Z" fill="#D7D7D7"/>
<path d="M87.443 41.3096H83.3066V41.8059H87.443V41.3096Z" fill="#D7D7D7"/>
<path d="M88.4354 41.558C88.4354 41.9717 88.1045 42.3026 87.6908 42.3026C87.2772 42.3026 86.9463 41.9717 86.9463 41.558C86.9463 41.1444 87.2772 40.8135 87.6908 40.8135C88.1045 40.8135 88.4354 41.1444 88.4354 41.558Z" fill="#D7D7D7"/>
<path d="M87.443 44.6187H83.3066V45.115H87.443V44.6187Z" fill="#D7D7D7"/>
<path d="M88.4354 44.8669C88.4354 45.2805 88.1045 45.6114 87.6908 45.6114C87.2772 45.6114 86.9463 45.2805 86.9463 44.8669C86.9463 44.4532 87.2772 44.1223 87.6908 44.1223C88.1045 44.1223 88.4354 44.4532 88.4354 44.8669Z" fill="#D7D7D7"/>
<path d="M87.443 47.928H83.3066V48.4243H87.443V47.928Z" fill="#D7D7D7"/>
<path d="M88.4354 48.1759C88.4354 48.5896 88.1045 48.9205 87.6908 48.9205C87.2772 48.9205 86.9463 48.5896 86.9463 48.1759C86.9463 47.7623 87.2772 47.4314 87.6908 47.4314C88.1045 47.4314 88.4354 47.7623 88.4354 48.1759Z" fill="#D7D7D7"/>
<path d="M87.443 51.2368H83.3066V51.7332H87.443V51.2368Z" fill="#D7D7D7"/>
<path d="M88.4354 51.4853C88.4354 51.8989 88.1045 52.2298 87.6908 52.2298C87.2772 52.2298 86.9463 51.8989 86.9463 51.4853C86.9463 51.0716 87.2772 50.7407 87.6908 50.7407C88.1045 50.7407 88.4354 51.0716 88.4354 51.4853Z" fill="#D7D7D7"/>
<path d="M87.443 54.5461H83.3066V55.0425H87.443V54.5461Z" fill="#D7D7D7"/>
<path d="M88.4354 54.7941C88.4354 55.2077 88.1045 55.5387 87.6908 55.5387C87.2772 55.5387 86.9463 55.2077 86.9463 54.7941C86.9463 54.3805 87.2772 54.0496 87.6908 54.0496C88.1045 54.0496 88.4354 54.3805 88.4354 54.7941Z" fill="#D7D7D7"/>
<path d="M87.443 57.8552H83.3066V58.3516H87.443V57.8552Z" fill="#D7D7D7"/>
<path d="M88.4354 58.1032C88.4354 58.5168 88.1045 58.8477 87.6908 58.8477C87.2772 58.8477 86.9463 58.5168 86.9463 58.1032C86.9463 57.6896 87.2772 57.3586 87.6908 57.3586C88.1045 57.3586 88.4354 57.6896 88.4354 58.1032Z" fill="#D7D7D7"/>
<path d="M87.443 61.1641H83.3066V61.6604H87.443V61.1641Z" fill="#D7D7D7"/>
<path d="M88.4354 61.4125C88.4354 61.8262 88.1045 62.1571 87.6908 62.1571C87.2772 62.1571 86.9463 61.8262 86.9463 61.4125C86.9463 60.9989 87.2772 60.668 87.6908 60.668C88.1045 60.668 88.4354 60.9989 88.4354 61.4125Z" fill="#D7D7D7"/>
<path d="M69.6569 28.0735H65.5205V28.5699H69.6569V28.0735Z" fill="#D7D7D7"/>
<path d="M64.5273 28.3217C64.5273 28.7353 64.8582 29.0662 65.2719 29.0662C65.6855 29.0662 66.0164 28.7353 66.0164 28.3217C66.0164 27.9081 65.6855 27.5771 65.2719 27.5771C64.8582 27.5771 64.5273 27.9081 64.5273 28.3217Z" fill="#D7D7D7"/>
<path d="M70.5664 28.3217C70.5664 28.7353 70.8973 29.0662 71.311 29.0662C71.7246 29.0662 72.0555 28.7353 72.0555 28.3217C72.0555 27.9081 71.7246 27.5771 71.311 27.5771C70.8973 27.5771 70.5664 27.9081 70.5664 28.3217Z" fill="#D7D7D7"/>
<path d="M76.0264 28.3217C76.0264 28.7353 76.3573 29.0662 76.7709 29.0662C77.1845 29.0662 77.5155 28.7353 77.5155 28.3217C77.5155 27.9081 77.1845 27.5771 76.7709 27.5771C76.3573 27.5771 76.0264 27.9081 76.0264 28.3217Z" fill="#D7D7D7"/>
<path d="M81.5693 28.3217C81.5693 28.7353 81.9002 29.0662 82.3139 29.0662C82.7275 29.0662 83.0584 28.7353 83.0584 28.3217C83.0584 27.9081 82.7275 27.5771 82.3139 27.5771C81.9002 27.5771 81.5693 27.9081 81.5693 28.3217Z" fill="#D7D7D7"/>
<path d="M70.5664 32.7062C70.5664 33.1199 70.8973 33.4508 71.311 33.4508C71.7246 33.4508 72.0555 33.1199 72.0555 32.7062C72.0555 32.2926 71.7246 31.9617 71.311 31.9617C70.8973 31.9617 70.5664 32.2926 70.5664 32.7062Z" fill="#D7D7D7"/>
<path d="M76.0264 32.7062C76.0264 33.1199 76.3573 33.4508 76.7709 33.4508C77.1845 33.4508 77.5155 33.1199 77.5155 32.7062C77.5155 32.2926 77.1845 31.9617 76.7709 31.9617C76.3573 31.9617 76.0264 32.2926 76.0264 32.7062Z" fill="#D7D7D7"/>
<path d="M81.5693 32.7062C81.5693 33.1199 81.9002 33.4508 82.3139 33.4508C82.7275 33.4508 83.0584 33.1199 83.0584 32.7062C83.0584 32.2926 82.7275 31.9617 82.3139 31.9617C81.9002 31.9617 81.5693 32.2926 81.5693 32.7062Z" fill="#D7D7D7"/>
<path d="M70.5664 37.1735C70.5664 37.5871 70.8973 37.918 71.311 37.918C71.7246 37.918 72.0555 37.5871 72.0555 37.1735C72.0555 36.7599 71.7246 36.429 71.311 36.429C70.8973 36.429 70.5664 36.7599 70.5664 37.1735Z" fill="#D7D7D7"/>
<path d="M76.0264 37.1735C76.0264 37.5871 76.3573 37.918 76.7709 37.918C77.1845 37.918 77.5155 37.5871 77.5155 37.1735C77.5155 36.7599 77.1845 36.429 76.7709 36.429C76.3573 36.429 76.0264 36.7599 76.0264 37.1735Z" fill="#D7D7D7"/>
<path d="M81.5693 37.1735C81.5693 37.5871 81.9002 37.918 82.3139 37.918C82.7275 37.918 83.0584 37.5871 83.0584 37.1735C83.0584 36.7599 82.7275 36.429 82.3139 36.429C81.9002 36.429 81.5693 36.7599 81.5693 37.1735Z" fill="#D7D7D7"/>
<path d="M70.5664 41.558C70.5664 41.9717 70.8973 42.3026 71.311 42.3026C71.7246 42.3026 72.0555 41.9717 72.0555 41.558C72.0555 41.1444 71.7246 40.8135 71.311 40.8135C70.8973 40.8135 70.5664 41.1444 70.5664 41.558Z" fill="#D7D7D7"/>
<path d="M76.0264 41.558C76.0264 41.9717 76.3573 42.3026 76.7709 42.3026C77.1845 42.3026 77.5155 41.9717 77.5155 41.558C77.5155 41.1444 77.1845 40.8135 76.7709 40.8135C76.3573 40.8135 76.0264 41.1444 76.0264 41.558Z" fill="#D7D7D7"/>
<path d="M81.5693 41.558C81.5693 41.9717 81.9002 42.3026 82.3139 42.3026C82.7275 42.3026 83.0584 41.9717 83.0584 41.558C83.0584 41.1444 82.7275 40.8135 82.3139 40.8135C81.9002 40.8135 81.5693 41.1444 81.5693 41.558Z" fill="#D7D7D7"/>
<path d="M70.5664 45.9425C70.5664 46.3562 70.8973 46.6871 71.311 46.6871C71.7246 46.6871 72.0555 46.3562 72.0555 45.9425C72.0555 45.5289 71.7246 45.198 71.311 45.198C70.8973 45.2807 70.5664 45.5289 70.5664 45.9425Z" fill="#D7D7D7"/>
<path d="M76.0264 45.9425C76.0264 46.3562 76.3573 46.6871 76.7709 46.6871C77.1845 46.6871 77.5155 46.3562 77.5155 45.9425C77.5155 45.5289 77.1845 45.198 76.7709 45.198C76.3573 45.2807 76.0264 45.5289 76.0264 45.9425Z" fill="#D7D7D7"/>
<path d="M81.5693 45.9425C81.5693 46.3562 81.9002 46.6871 82.3139 46.6871C82.7275 46.6871 83.0584 46.3562 83.0584 45.9425C83.0584 45.5289 82.7275 45.198 82.3139 45.198C81.9002 45.2807 81.5693 45.5289 81.5693 45.9425Z" fill="#D7D7D7"/>
<path d="M70.5664 50.4098C70.5664 50.8235 70.8973 51.1544 71.311 51.1544C71.7246 51.1544 72.0555 50.8235 72.0555 50.4098C72.0555 49.9962 71.7246 49.6653 71.311 49.6653C70.8973 49.6653 70.5664 49.9962 70.5664 50.4098Z" fill="#D7D7D7"/>
<path d="M76.0264 50.4098C76.0264 50.8235 76.3573 51.1544 76.7709 51.1544C77.1845 51.1544 77.5155 50.8235 77.5155 50.4098C77.5155 49.9962 77.1845 49.6653 76.7709 49.6653C76.3573 49.6653 76.0264 49.9962 76.0264 50.4098Z" fill="#D7D7D7"/>
<path d="M81.5693 50.4098C81.5693 50.8235 81.9002 51.1544 82.3139 51.1544C82.7275 51.1544 83.0584 50.8235 83.0584 50.4098C83.0584 49.9962 82.7275 49.6653 82.3139 49.6653C81.9002 49.6653 81.5693 49.9962 81.5693 50.4098Z" fill="#D7D7D7"/>
<path d="M70.5664 54.7944C70.5664 55.208 70.8973 55.5389 71.311 55.5389C71.7246 55.5389 72.0555 55.208 72.0555 54.7944C72.0555 54.3807 71.7246 54.0498 71.311 54.0498C70.8973 54.0498 70.5664 54.3807 70.5664 54.7944Z" fill="#D7D7D7"/>
<path d="M76.0264 54.7944C76.0264 55.208 76.3573 55.5389 76.7709 55.5389C77.1845 55.5389 77.5155 55.208 77.5155 54.7944C77.5155 54.3807 77.1845 54.0498 76.7709 54.0498C76.3573 54.0498 76.0264 54.3807 76.0264 54.7944Z" fill="#D7D7D7"/>
<path d="M81.5693 54.7944C81.5693 55.208 81.9002 55.5389 82.3139 55.5389C82.7275 55.5389 83.0584 55.208 83.0584 54.7944C83.0584 54.3807 82.7275 54.0498 82.3139 54.0498C81.9002 54.0498 81.5693 54.3807 81.5693 54.7944Z" fill="#D7D7D7"/>
<path d="M70.5664 59.1789C70.5664 59.5925 70.8973 59.9234 71.311 59.9234C71.7246 59.9234 72.0555 59.5925 72.0555 59.1789C72.0555 58.7652 71.7246 58.4343 71.311 58.4343C70.8973 58.5171 70.5664 58.848 70.5664 59.1789Z" fill="#D7D7D7"/>
<path d="M76.0264 59.1789C76.0264 59.5925 76.3573 59.9234 76.7709 59.9234C77.1845 59.9234 77.5155 59.5925 77.5155 59.1789C77.5155 58.7652 77.1845 58.4343 76.7709 58.4343C76.3573 58.5171 76.0264 58.848 76.0264 59.1789Z" fill="#D7D7D7"/>
<path d="M81.5693 59.1789C81.5693 59.5925 81.9002 59.9234 82.3139 59.9234C82.7275 59.9234 83.0584 59.5925 83.0584 59.1789C83.0584 58.7652 82.7275 58.4343 82.3139 58.4343C81.9002 58.5171 81.5693 58.848 81.5693 59.1789Z" fill="#D7D7D7"/>
<path d="M69.6569 31.3828H65.5205V31.8792H69.6569V31.3828Z" fill="#D7D7D7"/>
<path d="M64.5273 31.6308C64.5273 32.0444 64.8582 32.3753 65.2719 32.3753C65.6855 32.3753 66.0164 32.0444 66.0164 31.6308C66.0164 31.2171 65.6855 30.8862 65.2719 30.8862C64.8582 30.8862 64.5273 31.2171 64.5273 31.6308Z" fill="#D7D7D7"/>
<path d="M69.6569 34.6917H65.5205V35.188H69.6569V34.6917Z" fill="#D7D7D7"/>
<path d="M64.5273 34.9399C64.5273 35.3535 64.8582 35.6844 65.2719 35.6844C65.6855 35.6844 66.0164 35.3535 66.0164 34.9399C66.0164 34.5262 65.6855 34.1953 65.2719 34.1953C64.8582 34.1953 64.5273 34.5262 64.5273 34.9399Z" fill="#D7D7D7"/>
<path d="M69.6569 38.0007H65.5205V38.4971H69.6569V38.0007Z" fill="#D7D7D7"/>
<path d="M64.5273 38.2489C64.5273 38.6626 64.8582 38.9935 65.2719 38.9935C65.6855 38.9935 66.0164 38.6626 66.0164 38.2489C66.0164 37.8353 65.6855 37.5044 65.2719 37.5044C64.8582 37.5044 64.5273 37.8353 64.5273 38.2489Z" fill="#D7D7D7"/>
<path d="M69.6569 41.3101H65.5205V41.8064H69.6569V41.3101Z" fill="#D7D7D7"/>
<path d="M64.5273 41.558C64.5273 41.9717 64.8582 42.3026 65.2719 42.3026C65.6855 42.3026 66.0164 41.9717 66.0164 41.558C66.0164 41.1444 65.6855 40.8135 65.2719 40.8135C64.8582 40.8135 64.5273 41.1444 64.5273 41.558Z" fill="#D7D7D7"/>
<path d="M69.6569 44.6189H65.5205V45.1153H69.6569V44.6189Z" fill="#D7D7D7"/>
<path d="M64.5273 44.8671C64.5273 45.2807 64.8582 45.6116 65.2719 45.6116C65.6855 45.6116 66.0164 45.2807 66.0164 44.8671C66.0164 44.4535 65.6855 44.1226 65.2719 44.1226C64.8582 44.1226 64.5273 44.4535 64.5273 44.8671Z" fill="#D7D7D7"/>
<path d="M69.6569 47.9282H65.5205V48.4246H69.6569V47.9282Z" fill="#D7D7D7"/>
<path d="M64.5273 48.1762C64.5273 48.5898 64.8582 48.9207 65.2719 48.9207C65.6855 48.9207 66.0164 48.5898 66.0164 48.1762C66.0164 47.7626 65.6855 47.4316 65.2719 47.4316C64.8582 47.4316 64.5273 47.7626 64.5273 48.1762Z" fill="#D7D7D7"/>
<path d="M69.6569 51.2373H65.5205V51.7337H69.6569V51.2373Z" fill="#D7D7D7"/>
<path d="M64.5273 51.4853C64.5273 51.8989 64.8582 52.2298 65.2719 52.2298C65.6855 52.2298 66.0164 51.8989 66.0164 51.4853C66.0164 51.0716 65.6855 50.7407 65.2719 50.7407C64.8582 50.7407 64.5273 51.0716 64.5273 51.4853Z" fill="#D7D7D7"/>
<path d="M69.6569 54.5461H65.5205V55.0425H69.6569V54.5461Z" fill="#D7D7D7"/>
<path d="M64.5273 54.7944C64.5273 55.208 64.8582 55.5389 65.2719 55.5389C65.6855 55.5389 66.0164 55.208 66.0164 54.7944C66.0164 54.3807 65.6855 54.0498 65.2719 54.0498C64.8582 54.0498 64.5273 54.3807 64.5273 54.7944Z" fill="#D7D7D7"/>
<path d="M69.6569 57.8555H65.5205V58.3518H69.6569V57.8555Z" fill="#D7D7D7"/>
<path d="M64.5273 58.1034C64.5273 58.5171 64.8582 58.848 65.2719 58.848C65.6855 58.848 66.0164 58.5171 66.0164 58.1034C66.0164 57.6898 65.6855 57.3589 65.2719 57.3589C64.8582 57.3589 64.5273 57.6898 64.5273 58.1034Z" fill="#D7D7D7"/>
<path d="M69.6569 61.1643H65.5205V61.6607H69.6569V61.1643Z" fill="#D7D7D7"/>
<path d="M64.5273 61.4125C64.5273 61.8262 64.8582 62.1571 65.2719 62.1571C65.6855 62.1571 66.0164 61.8262 66.0164 61.4125C66.0164 60.9989 65.6855 60.668 65.2719 60.668C64.8582 60.668 64.5273 60.9989 64.5273 61.4125Z" fill="#D7D7D7"/>
<path opacity="0.2" d="M84.0504 63.3981C85.2913 63.3981 86.284 62.4053 86.284 61.1644V27.9081C86.284 27.4117 86.1186 26.9153 85.7876 26.5017C84.3813 33.8644 79.8313 52.8917 68.6631 63.2326C68.9113 63.3153 69.2422 63.3981 69.5731 63.3981H84.0504Z" fill="black"/>
<path d="M53.5249 36.5943L53.7731 36.5115L63.204 33.4506C63.5349 33.3679 63.7003 32.8715 63.5349 32.3752C63.3694 31.8788 62.9558 31.6306 62.6249 31.7134L53.194 34.857L52.6149 33.037L62.0458 29.9761C62.3767 29.8934 62.5422 29.397 62.3767 28.9006C62.2113 28.4043 61.7976 28.1561 61.5494 28.2388L48.3958 32.4579C48.0649 32.5406 47.8995 33.037 48.0649 33.5334C48.0649 33.6161 48.1476 33.7815 48.1476 33.8643L67.5886 93.9243C67.8367 94.5861 68.3331 94.9997 68.7467 94.8343L71.394 94.007L64.6104 72.7461C64.6104 72.4152 64.7758 72.0843 65.024 72.0015L65.2722 71.9188L74.7031 68.8579C75.034 68.7752 75.1995 68.2788 75.034 67.7825C74.8685 67.2861 74.4549 67.0379 74.2067 67.1206L64.7758 70.1815L64.1967 68.3615L73.6276 65.3006C73.9585 65.2179 74.124 64.7215 73.9585 64.2252C73.7931 63.7288 73.3794 63.4806 73.1313 63.5634L63.7004 66.6243L63.1213 64.8043L72.5522 61.7434C72.8831 61.6606 73.0485 61.1643 72.8831 60.6679C72.7176 60.1715 72.304 59.9234 71.9731 60.0061L62.5422 63.067L61.9631 61.247L71.394 58.1861C71.7249 58.1034 71.8904 57.607 71.7249 57.1106C71.5595 56.6143 71.1458 56.3661 70.8976 56.4488L61.2185 59.5925L60.6394 57.7725L70.0704 54.7115C70.4013 54.6288 70.5667 54.1325 70.4013 53.6361C70.2358 53.1397 69.8222 52.8915 69.574 52.9743L60.1431 56.0352L59.564 54.2152L68.9949 51.1543C69.3258 51.0715 69.4913 50.5752 69.3258 50.0788C69.1603 49.5825 68.7467 49.3343 68.4985 49.417L59.0676 52.4779L58.4886 50.6579L67.9195 47.597C68.2504 47.5143 68.4158 47.0179 68.2504 46.5215C68.0849 46.0252 67.6713 45.777 67.3404 45.8597L57.9094 48.9206L57.3303 47.1006L66.7613 44.0397C67.0922 43.957 67.2576 43.4606 67.0922 42.9643C66.9267 42.4679 66.5131 42.2197 66.2649 42.3025L56.834 45.3634L56.2549 43.5434L65.6858 40.4825C66.0167 40.3997 66.1822 39.9034 66.0167 39.407C65.8513 38.9106 65.4376 38.6625 65.1894 38.7452L55.7585 41.8061L55.1795 39.9861L64.6104 36.9252C64.9413 36.8425 65.1067 36.3461 64.9413 35.8497C64.7758 35.3534 64.3622 35.1052 64.114 35.1879L54.6831 38.2488L54.4349 38.3315C54.104 38.4143 53.6904 38.1661 53.5249 37.587C53.0286 37.2561 53.194 36.7597 53.5249 36.5943Z" fill="#263238"/>
<path d="M53.3597 35.3482L50.998 36.1108L52.5234 40.8342L54.8851 40.0716L53.3597 35.3482Z" fill="#263238"/>
<path d="M70.8976 77.3789C63.1213 77.3789 56.834 76.3862 56.834 75.1453V109.891C57.2476 111.049 63.3694 112.042 70.8976 112.042C78.4258 112.042 84.5476 111.132 84.9613 109.891V75.1453C84.9613 76.3862 78.674 77.3789 70.8976 77.3789Z" fill="url(#paint5_linear_390_6278)"/>
<path d="M171.064 21.7042L170.898 58.0214C170.898 60.0896 172.553 61.7442 174.621 61.7442H178.344C180.826 64.1433 185.458 69.7687 184.631 78.2896C183.556 89.706 173.049 111.794 188.519 111.381C203.907 111.96 193.648 89.706 192.656 78.3724C191.911 69.8514 196.627 64.226 199.108 61.9096H202.418C204.486 61.9096 206.14 60.2551 206.14 58.1869L206.306 21.8696C206.306 19.8014 204.651 18.1469 202.583 18.1469L174.704 17.9814C172.718 17.9814 171.064 19.636 171.064 21.7042Z" fill="url(#paint6_linear_390_6278)"/>
<path d="M202.086 53.6368C202.086 55.2086 200.762 56.4495 199.191 56.4495L177.847 56.3668C176.275 56.3668 175.034 55.0432 175.034 53.4714L175.2 25.5923C175.2 24.0204 176.523 22.7795 178.095 22.7795L199.439 22.8623C201.011 22.8623 202.251 24.1859 202.251 25.7577L202.086 53.6368Z" fill="#D7D7D7"/>
<path d="M200.437 26.4841L200.436 26.8977L203.579 26.9122L203.581 26.4986L200.437 26.4841Z" fill="white"/>
<path d="M204.32 26.7505C204.32 27.0814 204.072 27.3296 203.741 27.3296C203.41 27.3296 203.162 27.0814 203.162 26.7505C203.162 26.4196 203.41 26.1714 203.741 26.1714C204.072 26.1714 204.32 26.4196 204.32 26.7505Z" fill="white"/>
<path d="M203.576 29.3976H200.433V29.0667H203.576V29.3976Z" fill="white"/>
<path d="M204.32 29.2324C204.32 29.5633 204.072 29.8115 203.741 29.8115C203.41 29.8115 203.162 29.5633 203.162 29.2324C203.162 28.9015 203.41 28.6533 203.741 28.6533C204.072 28.6533 204.32 28.9015 204.32 29.2324Z" fill="white"/>
<path d="M203.576 31.9622H200.433V31.5486H203.576V31.9622Z" fill="white"/>
<path d="M204.32 31.7969C204.32 32.1278 204.072 32.376 203.741 32.376C203.41 32.376 203.162 32.1278 203.162 31.7969C203.162 31.466 203.41 31.2178 203.741 31.2178C204.072 31.2178 204.32 31.466 204.32 31.7969Z" fill="white"/>
<path d="M200.45 34.0148L200.449 34.4285L203.593 34.4381L203.594 34.0245L200.45 34.0148Z" fill="white"/>
<path d="M204.32 34.2788C204.32 34.6097 204.072 34.8579 203.741 34.8579C203.41 34.8579 203.162 34.6097 203.162 34.2788C203.162 33.9479 203.41 33.6997 203.741 33.6997C204.072 33.6997 204.32 33.9479 204.32 34.2788Z" fill="white"/>
<path d="M203.576 37.0086H200.433V36.595H203.576V37.0086Z" fill="white"/>
<path d="M204.32 36.7607C204.32 37.0916 204.072 37.3398 203.741 37.3398C203.41 37.3398 203.162 37.0916 203.162 36.7607C203.162 36.4298 203.41 36.1816 203.741 36.1816C204.072 36.2644 204.32 36.5126 204.32 36.7607Z" fill="white"/>
<path d="M200.433 39.1135L200.432 39.5271L203.575 39.5383L203.577 39.1247L200.433 39.1135Z" fill="white"/>
<path d="M204.32 39.3252C204.32 39.6561 204.072 39.9043 203.741 39.9043C203.41 39.9043 203.162 39.6561 203.162 39.3252C203.162 38.9943 203.41 38.7461 203.741 38.7461C204.072 38.7461 204.32 38.9943 204.32 39.3252Z" fill="white"/>
<path d="M203.576 42.055L200.433 41.9723V41.6414H203.576V42.055Z" fill="white"/>
<path d="M204.237 41.8071C204.237 42.138 203.989 42.3862 203.658 42.3862C203.327 42.3862 203.079 42.138 203.079 41.8071C203.079 41.4762 203.327 41.228 203.658 41.228C204.072 41.3108 204.237 41.5589 204.237 41.8071Z" fill="white"/>
<path d="M203.575 44.5369H200.349V44.1233L203.575 44.206V44.5369Z" fill="white"/>
<path d="M204.237 44.3716C204.237 44.7025 203.989 44.9507 203.658 44.9507C203.327 44.9507 203.079 44.7025 203.079 44.3716C203.079 44.0407 203.327 43.7925 203.658 43.7925C203.989 43.7925 204.237 44.0407 204.237 44.3716Z" fill="white"/>
<path d="M203.492 47.1014L200.349 47.0187V46.6877H203.492V47.1014Z" fill="white"/>
<path d="M204.237 46.8533C204.237 47.1842 203.989 47.4323 203.658 47.4323C203.327 47.4323 203.079 47.1842 203.079 46.8533C203.079 46.5224 203.327 46.2742 203.658 46.2742C203.989 46.3569 204.237 46.6051 204.237 46.8533Z" fill="white"/>
<path d="M203.492 49.5831H200.349V49.1694H203.492V49.5831Z" fill="white"/>
<path d="M204.237 49.418C204.237 49.7489 203.989 49.9971 203.658 49.9971C203.327 49.9971 203.079 49.7489 203.079 49.418C203.079 49.087 203.327 48.8389 203.658 48.8389C203.989 48.8389 204.237 49.087 204.237 49.418Z" fill="white"/>
<path d="M203.492 52.065H200.349V51.7341H203.492V52.065Z" fill="white"/>
<path d="M204.237 51.8996C204.237 52.2306 203.989 52.4787 203.658 52.4787C203.327 52.4787 203.079 52.2306 203.079 51.8996C203.079 51.5687 203.327 51.3206 203.658 51.3206C203.989 51.4033 204.237 51.6515 204.237 51.8996Z" fill="white"/>
<path d="M203.41 55.3741L200.763 53.7196L200.928 53.3887L203.575 55.0432L203.41 55.3741Z" fill="white"/>
<path d="M204.155 55.6224C203.99 55.8706 203.659 55.9533 203.411 55.7878C203.163 55.6224 203.08 55.2915 203.245 55.0433C203.411 54.7951 203.742 54.7124 203.99 54.8778C204.238 54.9606 204.321 55.3742 204.155 55.6224Z" fill="white"/>
<path d="M173.96 26.9159L177.104 26.9986V26.585H173.96V26.9159Z" fill="white"/>
<path d="M173.215 26.7505C173.215 27.0814 173.463 27.3296 173.794 27.3296C174.125 27.3296 174.373 27.0814 174.373 26.7505C174.373 26.4196 174.125 26.1714 173.794 26.1714C173.463 26.1714 173.215 26.4196 173.215 26.7505Z" fill="white"/>
<path d="M173.96 29.4803H177.104V29.0667H173.96V29.4803Z" fill="white"/>
<path d="M173.215 29.3149C173.215 29.6458 173.463 29.894 173.794 29.894C174.125 29.894 174.373 29.6458 174.373 29.3149C174.373 28.984 174.125 28.7358 173.794 28.7358C173.463 28.7358 173.215 28.984 173.215 29.3149Z" fill="white"/>
<path d="M173.96 31.9623H177.104V31.6313H173.96V31.9623Z" fill="white"/>
<path d="M173.215 31.7969C173.215 32.1278 173.463 32.376 173.794 32.376C174.125 32.376 174.373 32.1278 174.373 31.7969C174.373 31.466 174.125 31.2178 173.794 31.2178C173.463 31.2178 173.215 31.466 173.215 31.7969Z" fill="white"/>
<path d="M173.969 34.1286L173.968 34.5422L177.111 34.5551L177.113 34.1415L173.969 34.1286Z" fill="white"/>
<path d="M173.215 34.2788C173.215 34.6097 173.463 34.8579 173.794 34.8579C174.125 34.8579 174.373 34.6097 174.373 34.2788C174.373 33.9479 174.125 33.6997 173.794 33.6997C173.463 33.7824 173.215 34.0306 173.215 34.2788Z" fill="white"/>
<path d="M173.96 37.0086H177.104V36.6777H173.96V37.0086Z" fill="white"/>
<path d="M173.215 36.8433C173.215 37.1742 173.463 37.4223 173.794 37.4223C174.125 37.4223 174.373 37.1742 174.373 36.8433C174.373 36.5123 174.125 36.2642 173.794 36.2642C173.463 36.2642 173.215 36.5123 173.215 36.8433Z" fill="white"/>
<path d="M173.868 39.1442L173.866 39.5579L177.01 39.5724L177.012 39.1587L173.868 39.1442Z" fill="white"/>
<path d="M173.215 39.3252C173.215 39.6561 173.463 39.9043 173.794 39.9043C174.125 39.9043 174.373 39.6561 174.373 39.3252C174.373 38.9943 174.125 38.7461 173.794 38.7461C173.463 38.8288 173.215 39.077 173.215 39.3252Z" fill="white"/>
<path d="M173.9 41.6481L173.897 42.0618L177.041 42.0795L177.043 41.6659L173.9 41.6481Z" fill="white"/>
<path d="M173.132 41.8896C173.132 42.2205 173.38 42.4687 173.711 42.4687C174.042 42.4687 174.29 42.2205 174.29 41.8896C174.29 41.5587 174.042 41.3105 173.711 41.3105C173.38 41.3105 173.132 41.5587 173.132 41.8896Z" fill="white"/>
<path d="M173.876 44.6194H177.02V44.2058H173.876V44.6194Z" fill="white"/>
<path d="M173.132 44.3716C173.132 44.7025 173.38 44.9507 173.711 44.9507C174.042 44.9507 174.29 44.7025 174.29 44.3716C174.29 44.0407 174.042 43.7925 173.711 43.7925C173.38 43.8752 173.132 44.1234 173.132 44.3716Z" fill="white"/>
<path d="M173.876 47.1014H177.02V46.7705H173.876V47.1014Z" fill="white"/>
<path d="M173.132 46.936C173.132 47.2669 173.38 47.5151 173.711 47.5151C174.042 47.5151 174.29 47.2669 174.29 46.936C174.29 46.6051 174.042 46.3569 173.711 46.3569C173.38 46.3569 173.132 46.6051 173.132 46.936Z" fill="white"/>
<path d="M173.833 49.1765L173.831 49.5901L176.975 49.6062L176.977 49.1925L173.833 49.1765Z" fill="white"/>
<path d="M173.132 49.418C173.132 49.7489 173.38 49.9971 173.711 49.9971C174.042 49.9971 174.29 49.7489 174.29 49.418C174.29 49.087 174.042 48.8389 173.711 48.8389C173.38 48.9216 173.132 49.1698 173.132 49.418Z" fill="white"/>
<path d="M173.876 52.1478H177.02V51.8169L173.876 51.7341V52.1478Z" fill="white"/>
<path d="M173.132 51.9824C173.132 52.3133 173.38 52.5615 173.711 52.5615C174.042 52.5615 174.29 52.3133 174.29 51.9824C174.29 51.6515 174.042 51.4033 173.711 51.4033C173.38 51.4033 173.132 51.6515 173.132 51.9824Z" fill="white"/>
<path d="M174.041 55.6225L176.689 54.1334L176.441 53.8025L173.876 55.2916L174.041 55.6225Z" fill="white"/>
<path d="M173.38 55.7878C173.545 56.036 173.876 56.1187 174.125 56.036C174.373 55.8705 174.455 55.5396 174.29 55.2914C174.125 55.0432 173.794 54.9605 173.545 55.0432C173.297 55.2087 173.215 55.5396 173.38 55.7878Z" fill="white"/>
<path d="M175.281 21.7041L177.184 24.1859L176.936 24.4341L175.033 21.8696L175.281 21.7041Z" fill="white"/>
<path d="M174.702 21.2076C174.95 21.0421 175.281 21.0421 175.446 21.2903C175.612 21.5385 175.612 21.8694 175.364 22.0349C175.116 22.2003 174.785 22.2003 174.619 21.9521C174.454 21.704 174.454 21.3731 174.702 21.2076Z" fill="white"/>
<path d="M173.711 23.5244L176.69 24.5999L176.524 25.0135L173.546 23.8553L173.711 23.5244Z" fill="white"/>
<path d="M172.966 23.4415C173.049 23.1934 173.38 23.0279 173.711 23.1106C173.959 23.1934 174.125 23.5243 174.042 23.8552C173.959 24.1034 173.628 24.2688 173.297 24.1861C172.966 24.0206 172.884 23.6897 172.966 23.4415Z" fill="white"/>
<path d="M178.592 21.6215V24.7652H178.179L178.261 21.5388L178.592 21.6215Z" fill="white"/>
<path d="M178.428 20.877C178.759 20.877 179.007 21.1251 179.007 21.456C179.007 21.787 178.759 22.0351 178.428 22.0351C178.097 22.0351 177.849 21.787 177.849 21.456C177.849 21.1251 178.18 20.877 178.428 20.877Z" fill="white"/>
<path d="M180.795 21.6535L180.76 24.7969L181.173 24.8015L181.209 21.6582L180.795 21.6535Z" fill="white"/>
<path d="M180.991 20.877C181.322 20.877 181.57 21.1251 181.57 21.456C181.57 21.787 181.322 22.0351 180.991 22.0351C180.66 22.0351 180.412 21.787 180.412 21.456C180.412 21.1251 180.66 20.877 180.991 20.877Z" fill="white"/>
<path d="M183.286 21.6411L183.251 24.7844L183.665 24.789L183.699 21.6457L183.286 21.6411Z" fill="white"/>
<path d="M183.473 20.877C183.804 20.877 184.052 21.1251 184.052 21.456C184.052 21.787 183.804 22.0351 183.473 22.0351C183.142 22.0351 182.894 21.787 182.894 21.456C182.894 21.1251 183.142 20.877 183.473 20.877Z" fill="white"/>
<path d="M185.775 21.7078L185.738 24.8511L186.152 24.8558L186.188 21.7125L185.775 21.7078Z" fill="white"/>
<path d="M186.037 20.9597C186.368 20.9597 186.616 21.2079 186.616 21.5388C186.616 21.8697 186.368 22.1179 186.037 22.1179C185.706 22.1179 185.458 21.8697 185.458 21.5388C185.458 21.2079 185.706 20.9597 186.037 20.9597Z" fill="white"/>
<path d="M188.685 21.7041V24.8477H188.271L188.354 21.7041H188.685Z" fill="white"/>
<path d="M188.52 20.9597C188.85 20.9597 189.099 21.2079 189.099 21.5388C189.099 21.8697 188.85 22.1179 188.52 22.1179C188.189 22.1179 187.94 21.8697 187.94 21.5388C187.94 21.2079 188.189 20.9597 188.52 20.9597Z" fill="white"/>
<path d="M191.25 21.7041L191.167 24.8477H190.836V21.7041H191.25Z" fill="white"/>
<path d="M191.084 21.0425C191.415 21.0425 191.663 21.2907 191.663 21.6216C191.663 21.9525 191.415 22.2007 191.084 22.2007C190.753 22.2007 190.505 21.9525 190.505 21.6216C190.505 21.2079 190.753 21.0425 191.084 21.0425Z" fill="white"/>
<path d="M193.328 21.7463L193.291 24.8896L193.705 24.8945L193.742 21.7512L193.328 21.7463Z" fill="white"/>
<path d="M193.565 21.0425C193.896 21.0425 194.145 21.2907 194.145 21.6216C194.145 21.9525 193.896 22.2007 193.565 22.2007C193.235 22.2007 192.986 21.9525 192.986 21.6216C192.986 21.2907 193.235 21.0425 193.565 21.0425Z" fill="white"/>
<path d="M196.295 21.7871L196.213 24.9307H195.882V21.7871H196.295Z" fill="white"/>
<path d="M196.048 21.0425C196.379 21.0425 196.627 21.2907 196.627 21.6216C196.627 21.9525 196.379 22.2007 196.048 22.2007C195.717 22.2007 195.469 21.9525 195.469 21.6216C195.551 21.2907 195.8 21.0425 196.048 21.0425Z" fill="white"/>
<path d="M198.778 21.7871V25.0135L198.364 24.9307L198.447 21.7871H198.778Z" fill="white"/>
<path d="M198.612 21.125C198.943 21.125 199.191 21.3732 199.191 21.7041C199.191 22.035 198.943 22.2832 198.612 22.2832C198.281 22.2832 198.033 22.035 198.033 21.7041C198.033 21.3732 198.281 21.125 198.612 21.125Z" fill="white"/>
<path d="M201.233 21.7805L199.74 24.5469L200.104 24.7433L201.597 21.9769L201.233 21.7805Z" fill="white"/>
<path d="M201.756 21.2077C202.004 21.3732 202.087 21.7041 202.004 21.9523C201.839 22.2004 201.508 22.2832 201.26 22.2004C201.011 22.035 200.929 21.7041 201.011 21.4559C201.177 21.2077 201.508 21.0423 201.756 21.2077Z" fill="white"/>
<path d="M203.246 23.6898L200.847 25.6753L200.599 25.4271L203.08 23.3589L203.246 23.6898Z" fill="white"/>
<path d="M203.74 23.0279C203.906 23.2761 203.906 23.607 203.658 23.7724C203.41 23.9379 203.079 23.9379 202.913 23.6897C202.748 23.4415 202.748 23.1106 202.996 22.9452C203.161 22.7797 203.492 22.8624 203.74 23.0279Z" fill="white"/>
<path d="M176.276 57.6078V54.4641H175.862V57.6078H176.276Z" fill="white"/>
<path d="M176.109 58.3523C176.44 58.3523 176.688 58.1041 176.688 57.7732C176.688 57.4423 176.44 57.1941 176.109 57.1941C175.778 57.1941 175.53 57.4423 175.53 57.7732C175.53 58.1041 175.778 58.3523 176.109 58.3523Z" fill="white"/>
<path d="M178.757 57.6078V54.4641H178.426V57.6078H178.757Z" fill="white"/>
<path d="M178.592 58.3523C178.923 58.3523 179.171 58.1041 179.171 57.7732C179.171 57.4423 178.923 57.1941 178.592 57.1941C178.261 57.1941 178.013 57.4423 178.013 57.7732C178.013 58.1041 178.261 58.3523 178.592 58.3523Z" fill="white"/>
<path d="M180.931 54.4565L180.915 57.6001L181.329 57.6022L181.345 54.4586L180.931 54.4565Z" fill="white"/>
<path d="M181.073 58.3523C181.404 58.3523 181.652 58.1041 181.652 57.7732C181.652 57.4423 181.404 57.1941 181.073 57.1941C180.742 57.1941 180.494 57.4423 180.494 57.7732C180.577 58.1041 180.825 58.3523 181.073 58.3523Z" fill="white"/>
<path d="M183.804 57.6905V54.5469H183.473V57.6905H183.804Z" fill="white"/>
<path d="M183.639 58.3523C183.97 58.3523 184.218 58.1041 184.218 57.7732C184.218 57.4423 183.97 57.1941 183.639 57.1941C183.308 57.1941 183.06 57.4423 183.06 57.7732C183.06 58.1041 183.308 58.3523 183.639 58.3523Z" fill="white"/>
<path d="M186.369 57.6905V54.5469H185.955V57.6905H186.369Z" fill="white"/>
<path d="M186.121 58.435C186.452 58.435 186.7 58.1869 186.7 57.856C186.7 57.525 186.452 57.2769 186.121 57.2769C185.79 57.2769 185.542 57.525 185.542 57.856C185.625 58.1869 185.873 58.435 186.121 58.435Z" fill="white"/>
<path d="M188.85 57.6905V54.5469H188.52V57.6905H188.85Z" fill="white"/>
<path d="M188.685 58.435C189.015 58.435 189.264 58.1869 189.264 57.856C189.264 57.525 189.015 57.2769 188.685 57.2769C188.354 57.2769 188.105 57.525 188.105 57.856C188.105 58.1869 188.354 58.435 188.685 58.435Z" fill="white"/>
<path d="M191.415 57.6905V54.5469H191.001V57.6905H191.415Z" fill="white"/>
<path d="M191.166 58.435C191.497 58.435 191.745 58.1869 191.745 57.856C191.745 57.525 191.497 57.2769 191.166 57.2769C190.835 57.2769 190.587 57.525 190.587 57.856C190.67 58.1869 190.918 58.435 191.166 58.435Z" fill="white"/>
<path d="M193.897 57.6905V54.5469H193.566V57.6905H193.897Z" fill="white"/>
<path d="M193.731 58.435C194.062 58.435 194.311 58.1869 194.311 57.856C194.311 57.525 194.062 57.2769 193.731 57.2769C193.401 57.2769 193.152 57.525 193.152 57.856C193.152 58.1869 193.401 58.435 193.731 58.435Z" fill="white"/>
<path d="M196.461 57.6905V54.5469H196.048V57.6905H196.461Z" fill="white"/>
<path d="M196.214 58.435C196.545 58.435 196.793 58.1869 196.793 57.856C196.793 57.525 196.545 57.2769 196.214 57.2769C195.883 57.2769 195.635 57.525 195.635 57.856C195.717 58.1869 195.966 58.435 196.214 58.435Z" fill="white"/>
<path d="M198.943 57.7733V54.6296H198.612L198.529 57.7733H198.943Z" fill="white"/>
<path d="M198.778 58.435C199.109 58.435 199.357 58.1869 199.357 57.856C199.357 57.525 199.109 57.2769 198.778 57.2769C198.447 57.2769 198.199 57.525 198.199 57.856C198.199 58.1869 198.447 58.435 198.778 58.435Z" fill="white"/>
<path d="M202.087 57.4424L200.432 54.7952L200.102 55.0434L201.756 57.6906L202.087 57.4424Z" fill="white"/>
<path d="M202.335 58.187C202.583 58.0215 202.665 57.6906 202.5 57.4425C202.335 57.1943 202.004 57.1115 201.755 57.277C201.507 57.4425 201.425 57.7734 201.59 58.0215C201.755 58.2697 202.086 58.3524 202.335 58.187Z" fill="white"/>
<path d="M178.426 25.9233C178.426 26.3369 178.757 26.6678 179.17 26.6678C179.584 26.6678 179.915 26.3369 179.915 26.006C179.915 25.5924 179.584 25.2615 179.17 25.2615C178.757 25.2615 178.426 25.5097 178.426 25.9233Z" fill="white"/>
<path d="M183.803 25.9233C183.803 26.3369 184.134 26.6678 184.547 26.6678C184.961 26.6678 185.292 26.3369 185.292 25.9233C185.292 25.5096 184.961 25.1787 184.547 25.1787C184.134 25.2614 183.803 25.5923 183.803 25.9233Z" fill="white"/>
<path d="M189.264 26.006C189.264 26.4197 189.595 26.7506 190.008 26.7506C190.422 26.7506 190.753 26.4197 190.753 26.006C190.753 25.5924 190.422 25.2615 190.008 25.2615C189.512 25.2615 189.264 25.5924 189.264 26.006Z" fill="white"/>
<path d="M178.426 30.225C178.426 30.6387 178.757 30.9696 179.17 30.9696C179.584 30.9696 179.915 30.6387 179.915 30.225C179.915 29.8114 179.584 29.4805 179.17 29.4805C178.757 29.5632 178.426 29.8941 178.426 30.225Z" fill="white"/>
<path d="M183.803 30.3078C183.803 30.7214 184.134 31.0523 184.547 31.0523C184.961 31.0523 185.292 30.7214 185.292 30.3078C185.292 29.8941 184.961 29.5632 184.547 29.5632C184.134 29.5632 183.803 29.8941 183.803 30.3078Z" fill="white"/>
<path d="M189.181 30.3078C189.181 30.7214 189.512 31.0523 189.925 31.0523C190.339 31.0523 190.67 30.7214 190.67 30.3078C190.67 29.8941 190.339 29.5632 189.925 29.5632C189.512 29.5632 189.181 29.8941 189.181 30.3078Z" fill="white"/>
<path d="M178.344 34.6095C178.344 35.0232 178.675 35.3541 179.088 35.3541C179.502 35.3541 179.833 35.0232 179.833 34.6095C179.833 34.1959 179.502 33.865 179.088 33.865C178.675 33.865 178.344 34.1959 178.344 34.6095Z" fill="white"/>
<path d="M183.803 34.6096C183.803 35.0232 184.134 35.3541 184.547 35.3541C184.961 35.3541 185.292 35.0232 185.292 34.6923C185.292 34.2787 184.961 33.9478 184.547 33.9478C184.134 33.9478 183.803 34.2787 183.803 34.6096Z" fill="white"/>
<path d="M189.181 34.6923C189.181 35.1059 189.512 35.4368 189.925 35.4368C190.339 35.4368 190.67 35.1059 190.67 34.6923C190.67 34.2787 190.339 33.9478 189.925 33.9478C189.512 33.9478 189.181 34.2787 189.181 34.6923Z" fill="white"/>
<path d="M178.344 38.9113C178.344 39.3249 178.675 39.6558 179.088 39.6558C179.502 39.6558 179.833 39.3249 179.833 38.9113C179.833 38.4977 179.502 38.1667 179.088 38.1667C178.675 38.2495 178.344 38.4977 178.344 38.9113Z" fill="white"/>
<path d="M183.722 38.9943C183.722 39.4079 184.053 39.7388 184.383 39.7388C184.797 39.7388 185.128 39.4079 185.128 38.9943C185.128 38.5807 184.797 38.2498 184.383 38.2498C184.053 38.2498 183.722 38.5807 183.722 38.9943Z" fill="white"/>
<path d="M189.181 38.9943C189.181 39.4079 189.512 39.7388 189.925 39.7388C190.339 39.7388 190.67 39.4079 190.67 38.9943C190.67 38.5807 190.339 38.2498 189.925 38.2498C189.512 38.2498 189.181 38.5807 189.181 38.9943Z" fill="white"/>
<path d="M178.344 43.2961C178.344 43.7097 178.675 44.0406 179.088 44.0406C179.502 44.0406 179.833 43.7097 179.833 43.2961C179.833 42.8824 179.502 42.5515 179.088 42.5515C178.675 42.5515 178.344 42.8824 178.344 43.2961Z" fill="white"/>
<path d="M183.722 43.2961C183.722 43.7097 184.053 44.0406 184.466 44.0406C184.88 44.0406 185.211 43.7097 185.211 43.2961C185.211 42.8824 184.88 42.5515 184.466 42.5515C184.053 42.6342 183.722 42.8824 183.722 43.2961Z" fill="white"/>
<path d="M189.181 43.2961C189.181 43.7097 189.512 44.0406 189.925 44.0406C190.339 44.0406 190.67 43.7097 190.67 43.2961C190.67 42.8824 190.339 42.5515 189.925 42.5515C189.429 42.6342 189.181 42.9652 189.181 43.2961Z" fill="white"/>
<path d="M178.344 47.5976C178.344 48.0112 178.675 48.3421 179.088 48.3421C179.502 48.3421 179.833 48.0112 179.833 47.5976C179.833 47.1839 179.502 46.853 179.088 46.853C178.675 46.9358 178.344 47.1839 178.344 47.5976Z" fill="white"/>
<path d="M183.722 47.5976C183.722 48.0112 184.053 48.3421 184.466 48.3421C184.88 48.3421 185.211 48.0112 185.211 47.5976C185.211 47.1839 184.88 46.853 184.466 46.853C184.053 46.9358 183.722 47.2667 183.722 47.5976Z" fill="white"/>
<path d="M189.098 47.6806C189.098 48.0942 189.429 48.4251 189.842 48.4251C190.256 48.4251 190.587 48.0942 190.587 47.6806C190.587 47.2669 190.256 46.936 189.842 46.936C189.429 46.936 189.098 47.2669 189.098 47.6806Z" fill="white"/>
<path d="M178.262 51.9823C178.262 52.396 178.593 52.7269 179.006 52.7269C179.42 52.7269 179.751 52.396 179.751 51.9823C179.751 51.5687 179.42 51.2378 179.006 51.2378C178.593 51.2378 178.262 51.5687 178.262 51.9823Z" fill="white"/>
<path d="M183.722 51.9823C183.722 52.396 184.053 52.7269 184.466 52.7269C184.88 52.7269 185.211 52.396 185.211 51.9823C185.211 51.5687 184.88 51.2378 184.466 51.2378C184.053 51.2378 183.722 51.5687 183.722 51.9823Z" fill="white"/>
<path d="M189.098 51.9823C189.098 52.396 189.429 52.7269 189.842 52.7269C190.256 52.7269 190.587 52.396 190.587 51.9823C190.587 51.5687 190.256 51.2378 189.842 51.2378C189.429 51.3205 189.098 51.6514 189.098 51.9823Z" fill="white"/>
<path d="M194.145 26.0059C194.145 26.4195 194.475 26.7504 194.889 26.7504C195.303 26.7504 195.634 26.4195 195.634 26.0886C195.634 25.675 195.303 25.3441 194.889 25.3441C194.475 25.2613 194.145 25.5922 194.145 26.0059Z" fill="white"/>
<path d="M194.145 30.3078C194.145 30.7214 194.475 31.0523 194.889 31.0523C195.303 31.0523 195.634 30.7214 195.634 30.3078C195.634 29.8941 195.303 29.5632 194.889 29.5632C194.475 29.646 194.145 29.9769 194.145 30.3078Z" fill="white"/>
<path d="M194.145 34.6923C194.145 35.1059 194.475 35.4368 194.889 35.4368C195.303 35.4368 195.634 35.1059 195.634 34.6923C195.634 34.2787 195.303 33.9478 194.889 33.9478C194.475 33.9478 194.145 34.2787 194.145 34.6923Z" fill="white"/>
<path d="M194.145 38.9943C194.145 39.4079 194.475 39.7388 194.889 39.7388C195.303 39.7388 195.634 39.4079 195.634 38.9943C195.634 38.5807 195.303 38.2498 194.889 38.2498C194.475 38.3325 194.145 38.5807 194.145 38.9943Z" fill="white"/>
<path d="M194.062 43.3788C194.062 43.7925 194.392 44.1234 194.806 44.1234C195.22 44.1234 195.551 43.7925 195.551 43.3788C195.551 42.9652 195.22 42.6343 194.889 42.6343C194.392 42.6343 194.062 42.9652 194.062 43.3788Z" fill="white"/>
<path d="M194.062 47.6806C194.062 48.0942 194.392 48.4251 194.806 48.4251C195.22 48.4251 195.551 48.0942 195.551 47.6806C195.551 47.2669 195.22 46.936 194.806 46.936C194.392 46.936 194.062 47.2669 194.062 47.6806Z" fill="white"/>
<path d="M194.062 52.0651C194.062 52.4787 194.392 52.8096 194.806 52.8096C195.22 52.8096 195.551 52.4787 195.551 52.0651C195.551 51.6515 195.22 51.3206 194.889 51.3206C194.392 51.3206 194.062 51.6515 194.062 52.0651Z" fill="white"/>
<path d="M199.108 26.006C199.108 26.4197 199.439 26.7506 199.853 26.7506C200.267 26.7506 200.598 26.4197 200.598 26.006C200.598 25.5924 200.267 25.2615 199.853 25.2615C199.439 25.3442 199.108 25.6751 199.108 26.006Z" fill="white"/>
<path d="M199.108 30.3908C199.108 30.8044 199.439 31.1353 199.853 31.1353C200.267 31.1353 200.598 30.8044 200.598 30.3908C200.598 29.9771 200.267 29.6462 199.853 29.6462C199.439 29.6462 199.108 29.9771 199.108 30.3908Z" fill="white"/>
<path d="M199.108 34.6923C199.108 35.1059 199.439 35.4368 199.853 35.4368C200.267 35.4368 200.598 35.1059 200.598 34.6923C200.598 34.2787 200.267 33.9478 199.853 33.9478C199.439 34.0305 199.108 34.2787 199.108 34.6923Z" fill="white"/>
<path d="M199.108 38.9943C199.108 39.4079 199.439 39.7388 199.853 39.7388C200.267 39.7388 200.598 39.4079 200.598 38.9943C200.598 38.5807 200.267 38.2498 199.853 38.2498C199.357 38.3325 199.108 38.6634 199.108 38.9943Z" fill="white"/>
<path d="M199.025 43.3788C199.025 43.7925 199.356 44.1234 199.77 44.1234C200.184 44.1234 200.514 43.7925 200.514 43.3788C200.514 42.9652 200.184 42.6343 199.77 42.6343C199.356 42.6343 199.025 42.9652 199.025 43.3788Z" fill="white"/>
<path d="M199.025 47.6806C199.025 48.0942 199.356 48.4251 199.687 48.4251C200.101 48.4251 200.432 48.0942 200.432 47.6806C200.432 47.2669 200.101 46.936 199.687 46.936C199.356 47.0188 199.025 47.3497 199.025 47.6806Z" fill="white"/>
<path d="M199.025 52.0651C199.025 52.4787 199.356 52.8096 199.687 52.8096C200.101 52.8096 200.432 52.4787 200.432 52.0651C200.432 51.6515 200.101 51.3206 199.687 51.3206C199.356 51.3206 199.025 51.6515 199.025 52.0651Z" fill="white"/>
<path opacity="0.3" d="M192.655 78.3724C191.911 69.8515 196.626 64.2261 199.108 61.9097C192.076 61.2479 185.541 67.1215 189.76 86.9761C192.655 100.461 191.001 107.989 189.595 111.463C203.41 110.802 193.565 89.4579 192.655 78.3724Z" fill="black"/>
<path d="M1 112H255" stroke="#263238" stroke-linecap="round" stroke-linejoin="round"/>
</g>
<defs>
<linearGradient id="paint0_linear_390_6278" x1="131.966" y1="60.5028" x2="121.393" y2="58.9138" gradientUnits="userSpaceOnUse">
<stop offset="0.431134" stop-color="#008954"/>
<stop offset="0.809708" stop-color="#09B975"/>
</linearGradient>
<linearGradient id="paint1_linear_390_6278" x1="141.232" y1="110.553" x2="105.36" y2="100.93" gradientUnits="userSpaceOnUse">
<stop offset="0.431134" stop-color="#008954"/>
<stop offset="0.809708" stop-color="#09B975"/>
</linearGradient>
<linearGradient id="paint2_linear_390_6278" x1="84.9613" y1="77.3791" x2="80.9166" y2="65.0265" gradientUnits="userSpaceOnUse">
<stop offset="0.431134" stop-color="#008954"/>
<stop offset="0.809708" stop-color="#09B975"/>
</linearGradient>
<linearGradient id="paint3_linear_390_6278" x1="79.749" y1="94.9998" x2="70.8634" y2="94.1425" gradientUnits="userSpaceOnUse">
<stop offset="0.431134" stop-color="#008954"/>
<stop offset="0.809708" stop-color="#09B975"/>
</linearGradient>
<linearGradient id="paint4_linear_390_6278" x1="86.2841" y1="63.398" x2="59.6233" y2="56.8752" gradientUnits="userSpaceOnUse">
<stop offset="0.431134" stop-color="#008954"/>
<stop offset="0.809708" stop-color="#09B975"/>
</linearGradient>
<linearGradient id="paint5_linear_390_6278" x1="84.9613" y1="112.042" x2="48.2151" y2="98.4538" gradientUnits="userSpaceOnUse">
<stop offset="0.431134" stop-color="#008954"/>
<stop offset="0.809708" stop-color="#09B975"/>
</linearGradient>
<linearGradient id="paint6_linear_390_6278" x1="206.306" y1="111.392" x2="155.443" y2="102.04" gradientUnits="userSpaceOnUse">
<stop offset="0.431134" stop-color="#008954"/>
<stop offset="0.809708" stop-color="#09B975"/>
</linearGradient>
<clipPath id="clip0_390_6278">
<rect width="255" height="112" fill="white"/>
</clipPath>
</defs>
</svg>
