<svg width="255" height="112" viewBox="0 0 255 112" fill="none" xmlns="http://www.w3.org/2000/svg">
<g clip-path="url(#clip0_390_6274)">
<path d="M1 112H255" stroke="#263238" stroke-linecap="round" stroke-linejoin="round"/>
<path d="M156.257 26C156.257 26 156.969 38.3304 160.296 38.3304H177.906C181.233 38.3304 181.945 26 181.945 26H156.257Z" fill="#E6E6E6"/>
<path d="M161.396 29.0828H154.203V30.1103H161.396V29.0828Z" fill="#DBDBDB"/>
<path d="M159.34 29.5965C159.34 30.4477 158.65 31.1378 157.799 31.1378H154.716C153.865 31.1378 153.175 30.4477 153.175 29.5965C153.175 28.7452 153.865 28.0552 154.716 28.0552H157.799C158.65 28.0552 159.34 28.7452 159.34 29.5965Z" fill="#455A64"/>
<path d="M132.735 34.4768C132.735 34.4768 133.465 38.4768 134.923 38.4749H150.55C152.012 38.4749 152.735 34.4749 152.735 34.4749L132.735 34.4768Z" fill="#DBDBDB"/>
<path d="M128.414 61.3704H128V69.8508H128.414V61.3704Z" fill="url(#paint0_linear_390_6274)"/>
<path d="M128.414 72.1667H128V74.4453H128.414V72.1667Z" fill="url(#paint1_linear_390_6274)"/>
<path d="M192.735 39.1868H129.199V112.313H192.735V39.1868Z" fill="url(#paint2_linear_390_6274)"/>
<path d="M183.144 37.988H131.596V39.1868H183.144V37.988Z" fill="#263238"/>
<path opacity="0.2" d="M192.736 39.1868H185.543V112.313H192.736V39.1868Z" fill="black"/>
<path opacity="0.2" d="M129.2 51.1748L185.543 51.1748V50.5754L129.2 50.5754V51.1748Z" fill="black"/>
<path opacity="0.3" d="M148.516 46.7627H166.86V42.8643H148.516V46.7627Z" fill="black"/>
<path opacity="0.2" d="M129.45 106.523H185.922V105.724H129.45V106.523Z" fill="black"/>
<path d="M133.29 100.438H182.081C182.461 100.438 182.769 100.13 182.769 99.75V58.5326C182.769 58.1528 182.461 57.8449 182.081 57.8449L133.29 57.8449C132.91 57.8449 132.603 58.1528 132.603 58.5326V99.75C132.603 100.13 132.91 100.438 133.29 100.438Z" fill="#263238"/>
<path opacity="0.2" d="M142.84 55.1187L172.536 55.1187C172.912 55.1187 173.216 54.8145 173.216 54.4392V54.4144C173.216 54.0391 172.912 53.7349 172.536 53.7349L142.84 53.7349C142.465 53.7349 142.161 54.0391 142.161 54.4144V54.4392C142.161 54.8145 142.465 55.1187 142.84 55.1187Z" fill="#263238"/>
<path opacity="0.3" d="M179.616 93.8751V64.411C179.616 62.5257 178.088 60.9973 176.202 60.9973H139.165C137.28 60.9973 135.751 62.5257 135.751 64.411V93.8751C135.751 95.7605 137.28 97.2889 139.165 97.2889H176.202C178.088 97.2889 179.616 95.7605 179.616 93.8751Z" fill="white"/>
<path opacity="0.2" d="M179.616 79.4289V78.8572H135.751V79.4289H179.616Z" fill="white"/>
<path opacity="0.2" d="M179.616 89.0034V88.4316H135.751V89.0034H179.616Z" fill="white"/>
<path opacity="0.2" d="M179.616 69.8593V69.2876H135.751V69.8593H179.616Z" fill="white"/>
<path opacity="0.7" d="M145.321 44.8156C145.321 45.2017 145.206 45.5791 144.991 45.9001C144.777 46.221 144.472 46.4711 144.115 46.6187C143.758 46.7663 143.366 46.8047 142.987 46.729C142.608 46.6534 142.261 46.4672 141.988 46.1939C141.715 45.9205 141.53 45.5725 141.455 45.1937C141.38 44.8149 141.419 44.4224 141.568 44.066C141.716 43.7095 141.967 43.405 142.288 43.1911C142.61 42.9772 142.987 42.8634 143.373 42.8643C143.629 42.8643 143.883 42.9148 144.12 43.0129C144.356 43.111 144.571 43.2548 144.752 43.436C144.933 43.6173 145.076 43.8324 145.174 44.0691C145.271 44.3059 145.321 44.5595 145.321 44.8156Z" fill="#263238"/>
<path opacity="0.7" d="M139.215 44.8156C139.215 45.2015 139.101 45.5787 138.886 45.8996C138.672 46.2205 138.367 46.4706 138.011 46.6183C137.654 46.766 137.262 46.8046 136.883 46.7293C136.505 46.6541 136.157 46.4682 135.884 46.1953C135.611 45.9224 135.425 45.5747 135.35 45.1962C135.275 44.8177 135.313 44.4254 135.461 44.0688C135.609 43.7123 135.859 43.4075 136.18 43.1931C136.501 42.9787 136.878 42.8643 137.264 42.8643C137.52 42.8637 137.774 42.9138 138.011 43.0117C138.248 43.1095 138.463 43.2533 138.645 43.4346C138.826 43.6159 138.97 43.8312 139.068 44.0682C139.166 44.3052 139.216 44.5591 139.215 44.8156Z" fill="#263238"/>
<path opacity="0.7" d="M180.056 44.8156C180.056 45.2017 179.941 45.5791 179.727 45.9001C179.512 46.221 179.207 46.4711 178.85 46.6187C178.494 46.7663 178.101 46.8047 177.722 46.729C177.344 46.6534 176.996 46.4672 176.723 46.1939C176.451 45.9205 176.265 45.5725 176.19 45.1937C176.115 44.8149 176.155 44.4224 176.303 44.066C176.451 43.7095 176.702 43.405 177.024 43.1911C177.345 42.9772 177.723 42.8634 178.109 42.8643C178.365 42.8637 178.619 42.9138 178.856 43.0118C179.092 43.1097 179.307 43.2535 179.488 43.4348C179.669 43.6162 179.813 43.8315 179.91 44.0685C180.007 44.3055 180.057 44.5593 180.056 44.8156Z" fill="#263238"/>
<path opacity="0.7" d="M173.948 44.8156C173.948 45.2015 173.833 45.5787 173.619 45.8996C173.404 46.2205 173.099 46.4706 172.743 46.6183C172.386 46.766 171.994 46.8046 171.616 46.7293C171.237 46.6541 170.889 46.4682 170.616 46.1953C170.344 45.9224 170.158 45.5747 170.082 45.1962C170.007 44.8177 170.046 44.4254 170.193 44.0688C170.341 43.7123 170.591 43.4075 170.912 43.1931C171.233 42.9787 171.61 42.8643 171.996 42.8643C172.253 42.8637 172.507 42.9138 172.744 43.0117C172.981 43.1095 173.196 43.2533 173.377 43.4346C173.559 43.6159 173.702 43.8312 173.8 44.0682C173.898 44.3052 173.948 44.5591 173.948 44.8156Z" fill="#263238"/>
<path d="M63 10.6819H129.351V111.84H63V10.6819Z" fill="url(#paint3_linear_390_6274)"/>
<path d="M105 0H90.9485L71 112H85.0515L105 0Z" fill="#FAFAFA" fill-opacity="0.3"/>
<path d="M125 0H110.949L91 112H105.056L125 0Z" fill="#FAFAFA" fill-opacity="0.3"/>
<path d="M63 0H129V11H63V0Z" fill="#E0E0E0"/>
<path d="M99.9824 50.1398C99.9824 49.9742 100.117 49.8398 100.282 49.8398H101.858C102.024 49.8398 102.158 49.9742 102.158 50.1398V63.6802C102.158 63.8459 102.024 63.9802 101.858 63.9802H100.282C100.117 63.9802 99.9824 63.8459 99.9824 63.6802V50.1398Z" fill="white"/>
<path d="M96 0H97V112H96V0Z" fill="white"/>
<path d="M90.1934 50.1398C90.1934 49.9742 90.3277 49.8398 90.4934 49.8398H92.0688C92.2345 49.8398 92.3688 49.9742 92.3688 50.1398V63.6802C92.3688 63.8459 92.2345 63.9802 92.0688 63.9802H90.4934C90.3277 63.9802 90.1934 63.8459 90.1934 63.6802V50.1398Z" fill="white"/>
</g>
<defs>
<linearGradient id="paint0_linear_390_6274" x1="128.414" y1="69.8508" x2="127.799" y2="69.8362" gradientUnits="userSpaceOnUse">
<stop offset="0.431134" stop-color="#008954"/>
<stop offset="0.809708" stop-color="#09B975"/>
</linearGradient>
<linearGradient id="paint1_linear_390_6274" x1="128.414" y1="74.4453" x2="127.804" y2="74.3915" gradientUnits="userSpaceOnUse">
<stop offset="0.431134" stop-color="#008954"/>
<stop offset="0.809708" stop-color="#09B975"/>
</linearGradient>
<linearGradient id="paint2_linear_390_6274" x1="192.735" y1="112.313" x2="112.612" y2="78.5455" gradientUnits="userSpaceOnUse">
<stop offset="0.431134" stop-color="#008954"/>
<stop offset="0.809708" stop-color="#09B975"/>
</linearGradient>
<linearGradient id="paint3_linear_390_6274" x1="129.351" y1="111.84" x2="39.8732" y2="83.3718" gradientUnits="userSpaceOnUse">
<stop offset="0.431134" stop-color="#008954"/>
<stop offset="0.809708" stop-color="#09B975"/>
</linearGradient>
<clipPath id="clip0_390_6274">
<rect width="255" height="112" fill="white"/>
</clipPath>
</defs>
</svg>
