<svg width="255" height="112" viewBox="0 0 255 112" fill="none" xmlns="http://www.w3.org/2000/svg">
<g clip-path="url(#clip0_390_6276)">
<path d="M1 112H255" stroke="#263238" stroke-linecap="round" stroke-linejoin="round"/>
<path d="M125.862 37H72.3466C69.5841 37 67.3447 39.2342 67.3447 41.9903V83.9437C67.3447 86.6997 69.5841 88.9339 72.3466 88.9339H125.862C128.625 88.9339 130.864 86.6997 130.864 83.9437V41.9903C130.864 39.2342 128.625 37 125.862 37Z" fill="url(#paint0_linear_390_6276)"/>
<path d="M72.2429 59.3901L75.2988 82.4728H71.21L72.2429 59.3901Z" fill="#263238"/>
<path d="M198.545 37H145.029C142.267 37 140.027 39.2342 140.027 41.9903V83.9437C140.027 86.6997 142.267 88.9339 145.029 88.9339H198.545C201.307 88.9339 203.547 86.6997 203.547 83.9437V41.9903C203.547 39.2342 201.307 37 198.545 37Z" fill="url(#paint1_linear_390_6276)"/>
<path d="M189.386 37H135.87C133.108 37 130.868 39.2342 130.868 41.9903V83.9437C130.868 86.6997 133.108 88.9339 135.87 88.9339H189.386C192.148 88.9339 194.388 86.6997 194.388 83.9437V41.9903C194.388 39.2342 192.148 37 189.386 37Z" fill="url(#paint2_linear_390_6276)"/>
<path d="M190.552 55.9265C190.552 55.9265 180.042 52.3473 172.915 51.2227C165.787 50.0981 163.717 48.7896 163.717 48.7896C163.528 49.7163 163.403 50.655 163.344 51.599C163.344 52.5355 161.844 57.5856 160.905 62.8325C159.967 68.0793 159.028 73.5229 159.028 73.5229C159.028 73.5229 157.785 77.4911 157.639 78.8467C157.592 79.2743 156.178 80.7881 157.682 81.9084C159.186 83.0288 161.655 81.1986 161.655 81.1986C161.655 81.1986 168.787 82.6952 174.788 82.6952C178.747 82.6592 182.698 82.3463 186.613 81.7587C186.613 81.7587 188.675 83.0715 189.425 81.5749L190.179 80.0739C190.372 75.1692 192.052 67.8997 192.429 58.3382C192.515 56.461 194.491 55.9265 190.552 55.9265Z" fill="white"/>
<path d="M69.2377 57.0725H59.8684C58.2114 57.0725 56.8682 58.4127 56.8682 60.0658V108.673C56.8682 110.326 58.2114 111.666 59.8684 111.666H69.2377C70.8947 111.666 72.238 110.326 72.238 108.673V60.0658C72.238 58.4127 70.8947 57.0725 69.2377 57.0725Z" fill="url(#paint3_linear_390_6276)"/>
<path d="M61.3696 57.0725H52.0002C50.3433 57.0725 49 58.4127 49 60.0658V108.673C49 110.326 50.3433 111.666 52.0002 111.666H61.3696C63.0265 111.666 64.3698 110.326 64.3698 108.673V60.0658C64.3698 58.4127 63.0265 57.0725 61.3696 57.0725Z" fill="url(#paint4_linear_390_6276)"/>
<path d="M64.4727 87.3003L64.9013 110.126C64.9007 110.327 64.9399 110.526 65.0165 110.712C65.0931 110.898 65.2058 111.066 65.3479 111.209C65.49 111.351 65.6589 111.464 65.8448 111.541C66.0308 111.618 66.2301 111.657 66.4314 111.657H196.41L195.982 87.2832L64.4727 87.3003Z" fill="url(#paint5_linear_390_6276)"/>
<path fill-rule="evenodd" clip-rule="evenodd" d="M196.13 87.1331L196.564 111.807H66.4319C66.2109 111.807 65.9921 111.764 65.788 111.679C65.5838 111.595 65.3984 111.471 65.2423 111.315C65.0862 111.158 64.9625 110.973 64.8783 110.769C64.7944 110.566 64.7514 110.348 64.7518 110.128L64.3203 87.1502L196.13 87.1331ZM64.626 87.4502L65.0518 110.127C65.0513 110.308 65.0866 110.487 65.1557 110.655C65.2248 110.822 65.3263 110.974 65.4545 111.103C65.5827 111.231 65.735 111.333 65.9027 111.402C66.0704 111.471 66.2503 111.507 66.4319 111.507H196.258L195.835 87.4331L64.626 87.4502Z" fill="url(#paint6_linear_390_6276)"/>
<path d="M64.4727 89.8445V93.3766C72.089 93.2697 106.686 92.9148 115.164 92.9148C125.142 92.9148 143.623 93.569 148.201 93.569C152.778 93.569 193.243 93.8854 193.243 93.8854L193.299 90.9905L64.4727 89.8445Z" fill="#263238"/>
<path d="M129.156 82.5009C127.107 82.5009 75.7047 82.4026 74.0631 82.2016C72.7387 82.0348 66.854 82.1374 64.6338 82.1802V92.6397C73.3559 92.7466 154.855 93.6489 159.283 93.6489C163.997 93.6489 193.271 93.1015 193.271 93.1015V83.493C193.271 83.493 131.209 82.5009 129.156 82.5009Z" fill="url(#paint7_linear_390_6276)"/>
<path fill-rule="evenodd" clip-rule="evenodd" d="M69.6832 81.9624C71.5923 81.9523 73.4065 81.9679 74.0812 82.0528C74.175 82.0643 74.4628 82.0764 74.9332 82.0882C75.3996 82.1 76.0362 82.1113 76.8194 82.1223C78.3855 82.1442 80.5357 82.1645 83.0765 82.1833C88.1581 82.2207 94.8011 82.2519 101.457 82.2767C114.769 82.3264 128.132 82.351 129.156 82.351C130.184 82.351 146.215 82.5991 161.985 82.8471C169.872 82.9711 177.694 83.0951 183.544 83.1881L193.273 83.3431C193.273 83.3431 193.273 83.3431 193.271 83.4931L193.273 83.3431L193.421 83.3455V93.2488L193.274 93.2516L193.271 93.1016C193.274 93.2516 193.274 93.2516 193.274 93.2516L192.007 93.2751C191.197 93.2901 190.035 93.3115 188.626 93.3371C185.808 93.3884 182.001 93.4569 178.047 93.5253C170.14 93.6621 161.641 93.799 159.282 93.799C154.854 93.799 73.353 92.8967 64.6316 92.7898L64.4834 92.788V82.0332L64.6305 82.0303C65.7407 82.009 67.7678 81.9726 69.6832 81.9624ZM193.121 92.9544V83.6407L183.539 83.4881C177.689 83.3951 169.867 83.2711 161.981 83.147C146.207 82.899 130.181 82.651 129.156 82.651C128.131 82.651 114.768 82.6264 101.456 82.5767C94.7999 82.5519 88.1565 82.5207 83.0743 82.4833C80.5333 82.4645 78.3823 82.4442 76.8152 82.4223C76.0317 82.4113 75.3937 82.3999 74.9257 82.3881C74.4621 82.3765 74.1561 82.3643 74.0445 82.3506C73.3945 82.2687 71.6039 82.2522 69.6848 82.2624C67.8533 82.2721 65.919 82.3059 64.7834 82.3275V92.4916C74.2389 92.6065 154.88 93.499 159.282 93.499C161.638 93.499 170.133 93.3622 178.042 93.2253C181.996 93.1569 185.802 93.0885 188.62 93.0372C190.029 93.0115 191.191 92.9901 192.001 92.9752L193.121 92.9544Z" fill="url(#paint8_linear_390_6276)"/>
<path d="M201.999 57.0725H192.63C190.973 57.0725 189.63 58.4127 189.63 60.0658V108.673C189.63 110.326 190.973 111.666 192.63 111.666H201.999C203.656 111.666 205 110.326 205 108.673V60.0658C205 58.4127 203.656 57.0725 201.999 57.0725Z" fill="url(#paint9_linear_390_6276)"/>
<path d="M192.458 57.0725H183.089C181.432 57.0725 180.089 58.4127 180.089 60.0658V108.673C180.089 110.326 181.432 111.666 183.089 111.666H192.458C194.115 111.666 195.459 110.326 195.459 108.673V60.0658C195.459 58.4127 194.115 57.0725 192.458 57.0725Z" fill="url(#paint10_linear_390_6276)"/>
<path d="M147.839 76.55H106.174V111.666H147.877V76.6014C147.877 76.58 147.86 76.55 147.839 76.55ZM146.471 109.301H107.58V78.9148H146.428C146.454 78.9148 146.471 78.949 146.471 78.9875V109.301Z" fill="#263238"/>
<path d="M118.92 76.55H77.2549V111.666H118.958V76.6014C118.958 76.58 118.941 76.55 118.92 76.55ZM117.552 109.301H78.6607V78.9148H117.51C117.531 78.9148 117.548 78.949 117.548 78.9875L117.552 109.301Z" fill="#263238"/>
<path d="M76.2305 76.55H149.093C149.114 76.55 149.134 76.5582 149.148 76.5726C149.162 76.587 149.171 76.6066 149.171 76.627V79.6723H76.2305V76.5543V76.55Z" fill="white"/>
<path fill-rule="evenodd" clip-rule="evenodd" d="M75.7305 76.55C75.7305 76.2739 75.9543 76.05 76.2305 76.05H149.093C149.246 76.05 149.393 76.1105 149.501 76.2187C149.61 76.3269 149.671 76.4738 149.671 76.627V79.6723C149.671 79.9484 149.447 80.1723 149.171 80.1723H76.2305C75.9543 80.1723 75.7305 79.9484 75.7305 79.6723V76.55ZM76.7305 77.05V79.1723H148.671V77.05H76.7305Z" fill="#263238"/>
<path d="M117.509 76.55H149.093C149.113 76.55 149.133 76.5582 149.147 76.5726C149.162 76.587 149.17 76.6066 149.17 76.627V79.6723H117.509V76.5543V76.55Z" fill="#263238"/>
</g>
<defs>
<linearGradient id="paint0_linear_390_6276" x1="130.864" y1="88.934" x2="61.0915" y2="47.5403" gradientUnits="userSpaceOnUse">
<stop offset="0.431134" stop-color="#008954"/>
<stop offset="0.809708" stop-color="#09B975"/>
</linearGradient>
<linearGradient id="paint1_linear_390_6276" x1="203.547" y1="88.934" x2="133.774" y2="47.5403" gradientUnits="userSpaceOnUse">
<stop offset="0.431134" stop-color="#008954"/>
<stop offset="0.809708" stop-color="#09B975"/>
</linearGradient>
<linearGradient id="paint2_linear_390_6276" x1="194.388" y1="88.934" x2="124.615" y2="47.5403" gradientUnits="userSpaceOnUse">
<stop offset="0.431134" stop-color="#008954"/>
<stop offset="0.809708" stop-color="#09B975"/>
</linearGradient>
<linearGradient id="paint3_linear_390_6276" x1="72.238" y1="111.666" x2="49.8308" y2="108.606" gradientUnits="userSpaceOnUse">
<stop offset="0.431134" stop-color="#008954"/>
<stop offset="0.809708" stop-color="#09B975"/>
</linearGradient>
<linearGradient id="paint4_linear_390_6276" x1="64.3698" y1="111.666" x2="41.9626" y2="108.606" gradientUnits="userSpaceOnUse">
<stop offset="0.431134" stop-color="#008954"/>
<stop offset="0.809708" stop-color="#09B975"/>
</linearGradient>
<linearGradient id="paint5_linear_390_6276" x1="196.41" y1="111.657" x2="171.589" y2="46.4867" gradientUnits="userSpaceOnUse">
<stop offset="0.431134" stop-color="#008954"/>
<stop offset="0.809708" stop-color="#09B975"/>
</linearGradient>
<linearGradient id="paint6_linear_390_6276" x1="196.564" y1="111.807" x2="171.251" y2="46.0015" gradientUnits="userSpaceOnUse">
<stop offset="0.431134" stop-color="#008954"/>
<stop offset="0.809708" stop-color="#09B975"/>
</linearGradient>
<linearGradient id="paint7_linear_390_6276" x1="193.271" y1="93.6489" x2="186.954" y2="59.4885" gradientUnits="userSpaceOnUse">
<stop offset="0.431134" stop-color="#008954"/>
<stop offset="0.809708" stop-color="#09B975"/>
</linearGradient>
<linearGradient id="paint8_linear_390_6276" x1="193.421" y1="93.799" x2="186.797" y2="58.8058" gradientUnits="userSpaceOnUse">
<stop offset="0.431134" stop-color="#008954"/>
<stop offset="0.809708" stop-color="#09B975"/>
</linearGradient>
<linearGradient id="paint9_linear_390_6276" x1="205" y1="111.666" x2="182.592" y2="108.606" gradientUnits="userSpaceOnUse">
<stop offset="0.431134" stop-color="#008954"/>
<stop offset="0.809708" stop-color="#09B975"/>
</linearGradient>
<linearGradient id="paint10_linear_390_6276" x1="195.459" y1="111.666" x2="173.051" y2="108.606" gradientUnits="userSpaceOnUse">
<stop offset="0.431134" stop-color="#008954"/>
<stop offset="0.809708" stop-color="#09B975"/>
</linearGradient>
<clipPath id="clip0_390_6276">
<rect width="255" height="112" fill="white"/>
</clipPath>
</defs>
</svg>
