<svg width="248" height="276" viewBox="0 0 248 276" fill="none" xmlns="http://www.w3.org/2000/svg">
<path d="M193.149 268.786H65.3701V269.575H193.149V268.786Z" fill="#263238"/>
<path d="M239.773 274.766H111.994V275.556H239.773V274.766Z" fill="#263238"/>
<path d="M245.931 2.36957H62.2939V232.958H245.931V2.36957Z" fill="#FEFEFE"/>
<path d="M223.318 232.959L223.262 244.355H233.84V232.959H223.318Z" fill="#263238"/>
<path d="M237.031 225.398H73.4873V226.188H237.031V225.398Z" fill="#263238"/>
<path d="M70.2962 232.959L70.2402 244.355H80.8185V232.959H70.2962Z" fill="#263238"/>
<path d="M248 234.99H60.2217V0H248V234.99ZM64.3634 230.871H243.915V4.17509H64.3634V230.871Z" fill="url(#paint0_linear_473_7513)"/>
<path d="M243.915 129.879H64.3643V133.264H243.915V129.879Z" fill="#263238"/>
<path d="M243.915 4.17517H64.3643V61.8365H243.915V4.17517Z" fill="url(#paint1_linear_473_7513)"/>
<path d="M243.915 60.7643H64.3643V64.1495H243.915V60.7643Z" fill="#263238"/>
<path d="M150.389 55.066H67.3301V8.97076H150.389V55.066ZM68.0577 54.2761H149.606V9.76064H68.0577V54.2761Z" fill="#263238"/>
<path d="M240.781 55.066H151.789V8.97076H240.781V55.066ZM152.573 54.2761H239.998V9.76064H152.573V54.2761Z" fill="#263238"/>
<path d="M118.711 49.7625C118.711 51.1166 117.592 52.245 116.249 52.245C114.906 52.245 113.786 51.1166 113.786 49.7625C113.786 48.4084 114.906 47.28 116.249 47.28C117.592 47.28 118.711 48.4084 118.711 49.7625Z" fill="#263238"/>
<path d="M143.45 49.7625C143.45 51.1166 142.33 52.245 140.987 52.245C139.644 52.245 138.524 51.1166 138.524 49.7625C138.524 48.4084 139.644 47.28 140.987 47.28C142.33 47.28 143.45 48.4084 143.45 49.7625Z" fill="#263238"/>
<path d="M141.882 48.5777H116.359V50.6652H141.882V48.5777Z" fill="#263238"/>
<path d="M161.191 49.7625C161.191 51.1166 160.072 52.245 158.728 52.245C157.385 52.245 156.266 51.1166 156.266 49.7625C156.266 48.4084 157.385 47.28 158.728 47.28C160.072 47.28 161.191 48.4084 161.191 49.7625Z" fill="#263238"/>
<path d="M185.929 49.7625C185.929 51.1166 184.81 52.245 183.467 52.245C182.123 52.245 181.004 51.1166 181.004 49.7625C181.004 48.4084 182.123 47.28 183.467 47.28C184.81 47.28 185.929 48.4084 185.929 49.7625Z" fill="#263238"/>
<path d="M184.419 48.5777H158.896V50.6652H184.419V48.5777Z" fill="#263238"/>
<path d="M147.143 35.319H146.919V13.1459H71.8076V12.8638H147.143V35.319Z" fill="#263238"/>
<path d="M156.323 35.4883H156.043V13.0331H234.233V13.2588H156.323V35.4883Z" fill="#263238"/>
<path d="M9.29099 176.256L0.223876 176.313L0 142.404L9.06711 142.348V144.943L2.63058 145L2.79849 173.717L9.23502 173.661L9.29099 176.256Z" fill="#263238"/>
<path d="M8.25123 247.197L7.13184 68.3456L57.4487 62.0829C58.5681 61.8572 59.7435 62.5343 60.0793 63.8884L61.0868 234.221L8.25123 247.197Z" fill="url(#paint2_linear_473_7513)"/>
<path d="M59.3285 194.537L54.7949 196.229L54.9069 211.519L59.4404 209.714V209.77H60.9516L60.8397 194.48L59.3285 194.537Z" fill="#263238"/>
<path d="M58.6006 78.3676L54.123 80.1166L54.179 95.4064L58.7126 93.601V93.6574L60.2238 93.601L60.1678 78.3676H58.6006Z" fill="#263238"/>
<path d="M15.3349 143.984C15.3349 144.774 14.7193 145.394 13.9357 145.451C13.1521 145.451 12.5364 144.83 12.4805 144.04C12.4805 143.251 13.0961 142.63 13.8797 142.573C14.6633 142.517 15.3349 143.194 15.3349 143.984Z" fill="#263238"/>
<path d="M15.5032 175.015C15.5032 175.805 14.8876 176.425 14.104 176.482C13.3204 176.482 12.7047 175.861 12.6488 175.071C12.5928 174.282 13.2644 173.661 14.048 173.604C14.8876 173.604 15.5032 174.225 15.5032 175.015Z" fill="#263238"/>
<path d="M57.1439 82.8811C57.1439 83.7838 56.7521 84.5173 56.3044 84.5173C55.8566 84.5173 55.4648 83.7838 55.4648 82.8811C55.4648 81.9784 55.8566 81.2449 56.3044 81.2449C56.7521 81.2449 57.1439 81.9784 57.1439 82.8811Z" fill="white"/>
<path d="M57.2016 90.8928C57.2016 91.7955 56.8098 92.529 56.362 92.529C55.9142 92.529 55.5225 91.7955 55.5225 90.8928C55.5225 89.9901 55.9142 89.2566 56.362 89.2566C56.8098 89.2566 57.2016 89.9901 57.2016 90.8928Z" fill="white"/>
<path d="M57.8734 207.569C57.8734 208.472 57.4816 209.206 57.0339 209.206C56.5861 209.206 56.1943 208.472 56.1943 207.569C56.1943 206.667 56.5861 205.933 57.0339 205.933C57.4816 205.99 57.8734 206.667 57.8734 207.569Z" fill="white"/>
<path d="M57.8178 198.599C57.8178 199.501 57.426 200.235 56.9782 200.235C56.5305 200.235 56.1387 199.501 56.1387 198.599C56.1387 197.696 56.5305 196.962 56.9782 196.962C57.426 197.019 57.8178 197.696 57.8178 198.599Z" fill="white"/>
<path d="M12.817 241.139L11.8096 71.5971L12.0335 71.5407L56.8093 64.5446L56.9212 65.0524L12.3133 72.0485L13.3208 240.519L57.0332 229.912L57.1451 230.42L12.817 241.139Z" fill="#263238"/>
<path d="M238.992 95.1805H238.208V69.1145H76.0635V68.3246H238.992V95.1805Z" fill="#263238"/>
<path d="M244.42 61.3285H154.253V231.153H244.42V61.3285Z" fill="url(#paint3_linear_473_7513)"/>
<path d="M244.979 231.661H154.252V230.532H243.86L243.468 61.0465H244.587L244.979 231.661Z" fill="#263238"/>
<path d="M239.269 226.47H160.407V66.8013H239.213V226.47H239.269ZM160.911 225.906H238.709V67.2527H160.911V225.906Z" fill="#263238"/>
<path d="M169.028 124.293H165.949V161.7H169.028V124.293Z" fill="#263238"/>
<path d="M122.293 251.352C122.293 251.352 124.532 244.581 124.532 243.058C124.532 241.535 136.229 243.566 136.229 243.566C136.229 243.566 134.494 251.07 134.718 254.116C134.998 257.107 122.293 257.614 122.293 251.352Z" fill="#EBAFA4"/>
<path d="M136.229 263.651C134.494 265.175 125.762 264.385 119.326 264.893C113.113 265.4 101.136 264.159 101.136 264.159C101.136 264.159 100.8 263.031 100.856 261.959C100.912 261.395 101.024 260.83 101.36 260.435C102.367 259.194 121.005 251.126 121.789 250.675C122.516 250.167 124.251 251.69 126.266 253.157C128.281 254.681 135.221 253.157 135.221 253.157C135.221 253.157 136.453 257.219 136.733 260.379C136.9 261.846 136.845 263.144 136.229 263.651Z" fill="#263238"/>
<path d="M219.23 255.978C219.23 255.978 208.148 254.85 206.189 254.85C204.174 254.85 207.701 244.807 208.428 244.581C209.156 244.356 212.906 245.822 215.145 245.597C217.383 245.315 219.23 255.978 219.23 255.978Z" fill="#EBAFA4"/>
<path d="M93.0757 190.982C93.0757 190.982 117.199 173.436 118.71 172.646C120.221 171.912 125.314 156.227 125.314 156.227L137.236 161.249C137.236 161.249 130.128 176.934 126.154 180.939C122.18 184.945 97.2734 195.496 97.2734 195.496C97.2734 195.496 91.3406 194.48 93.0757 190.982Z" fill="#FFA8A7"/>
<path d="M129.009 131.12C126.043 129.371 125.035 124.576 122.293 120.344C119.55 116.056 111.322 113.574 107.125 116.056C102.871 118.539 98.1136 125.478 99.6807 132.87C100.52 136.875 102.423 140.148 104.718 142.743C104.718 142.743 106.285 146.805 107.74 147.313C108.356 147.539 108.86 147.2 109.252 146.749C112.89 149.231 116.416 150.19 117.591 149.683C120.054 148.667 121.845 145.169 121.845 145.169L128.561 146.918C130.8 142.404 135.278 133.885 135.278 133.885C135.278 133.885 132.031 132.869 129.009 131.12Z" fill="#FFA8A7"/>
<path d="M118.338 133.844C118.441 133.622 118.741 133.188 119.11 133.231C119.572 133.284 120.443 133.852 120.337 134.776C120.252 135.515 119.716 136.109 119.459 136.313" stroke="#F28F8F" stroke-width="0.5" stroke-linecap="round"/>
<path d="M169.25 205.595C169.25 205.595 155.37 232.507 155.538 241.704C155.65 248.305 160.519 252.311 163.765 253.213C167.011 254.116 205.295 255.019 207.59 256.091C209.884 257.219 212.683 248.248 210.612 244.92C208.541 241.591 176.135 237.416 176.135 237.416C176.135 237.416 193.821 208.19 194.213 201.645L169.25 205.595Z" fill="#263238"/>
<path d="M128.559 146.918C128.559 146.918 132.812 133.603 134.268 133.095C135.779 132.587 143.95 132.08 149.715 136.593C155.424 141.107 163.652 156.904 167.626 161.418C171.599 165.932 182.569 179.755 182.569 179.755C182.569 179.755 159.902 189.29 152.961 190.531C145.965 191.772 133.54 163.675 131.301 159.387C129.006 155.212 128.559 146.918 128.559 146.918Z" fill="#455A64"/>
<path d="M194.995 200.461C194.995 200.686 194.939 200.856 194.939 201.081C193.204 211.801 175.238 208.529 172.159 208.529C169.081 208.529 143.671 207.344 143.671 207.344C142.271 222.013 136.898 247.176 136.898 247.176C131.861 250.674 122.458 246.669 122.458 246.669C122.458 246.669 122.906 197.301 126.6 193.352C130.294 189.402 147.588 186.13 153.297 185.904C159.006 185.679 181.282 179.134 181.282 179.134C181.282 179.134 184.64 181.56 187.999 185.227C191.749 189.402 195.555 194.931 194.995 200.461Z" fill="#263238"/>
<path d="M129.177 146.072L121.229 163.618C121.229 163.618 127.722 170.163 134.438 169.147L141.658 152.56L129.177 146.072Z" fill="#455A64"/>
<path d="M122.907 158.371C122.907 158.371 127.161 163.9 137.851 166.383L135.836 171.179C135.836 171.179 124.363 169.148 120.389 162.659L122.907 158.371Z" fill="#263238"/>
<path d="M97.664 195.383C97.664 195.383 120.836 179.585 122.291 178.795C123.802 178.062 128.503 161.757 128.503 161.757L140.425 166.778C140.425 166.778 134.212 184.325 130.238 188.33C126.265 192.336 99.8468 201.138 99.8468 201.138C99.8468 201.138 95.9289 198.881 97.664 195.383Z" fill="#FFA8A7"/>
<path d="M238.707 264.554C238.316 264.723 237.812 264.836 237.308 264.893C235.797 265.118 221.86 256.881 219.902 256.373C217.887 255.865 217.887 250.618 216.935 249.828C215.928 249.095 213.969 247.797 213.969 245.033C213.969 245.033 219.678 241.027 220.965 241.027C222.196 241.027 229.416 248.531 229.416 248.531C229.416 248.531 238.875 257.84 239.603 261.056C240.051 263.313 239.547 264.159 238.707 264.554Z" fill="#263238"/>
<path d="M238.706 264.554C234.564 262.41 224.322 251.182 221.635 247.346C218.669 243.058 220.908 241.083 220.908 241.083C222.139 241.083 229.359 248.587 229.359 248.587C229.359 248.587 238.818 257.896 239.546 261.112C240.049 263.313 239.546 264.159 238.706 264.554Z" fill="#455A64"/>
<path d="M126.768 161.756C126.768 161.756 130.741 140.43 134.212 138.399C137.682 136.367 146.581 134.9 147.644 143.928C148.652 152.221 141.152 168.245 141.152 168.245C141.152 168.245 129.286 168.753 126.768 161.756Z" fill="#455A64"/>
<path d="M136.229 263.651C134.494 265.174 125.762 264.384 119.326 264.892C113.113 265.4 101.136 264.159 101.136 264.159C101.136 264.159 100.8 263.03 100.856 261.958C104.998 261.789 128.841 262.918 136.733 260.379C136.9 261.846 136.845 263.143 136.229 263.651Z" fill="#455A64"/>
<path d="M86.2461 194.65C86.3021 195.383 86.9737 195.891 87.6453 195.722L89.3244 195.327L88.5968 193.803L86.2461 194.65Z" fill="#263238"/>
<path d="M99.0628 212.76L95.5927 213.663C94.6972 213.889 93.8017 213.381 93.5778 212.478L93.0741 210.617L92.7942 209.545L93.0181 206.329L89.2681 195.27C88.9323 194.537 88.1487 194.198 87.3651 194.368L79.8652 196.342C79.0256 196.568 78.1301 196.06 77.9062 195.214L77.2346 192.562C77.0107 191.716 77.5145 190.813 78.41 190.587L94.4173 186.469C95.033 186.299 95.6487 186.638 95.8725 187.259L96.88 190.475C96.936 190.587 96.936 190.7 96.936 190.813C96.936 191.321 96.6002 191.829 96.0405 191.998C95.2009 192.224 94.6972 193.07 94.9211 193.916L98.1673 205.934L99.2307 207.513L99.6225 208.698L100.182 210.56C100.518 211.519 100.014 212.535 99.0628 212.76Z" fill="url(#paint4_linear_473_7513)"/>
<path d="M71.0758 194.819L63.4639 196.229V196.737L71.1877 195.27L71.0758 194.819Z" fill="#263238"/>
<path d="M63.1846 197.076V196.004L71.3002 194.48L71.5241 195.439L63.1846 197.076Z" fill="white"/>
<path d="M77.6254 192.506L76.1143 192.957L76.618 194.988L78.3531 194.819L77.6254 192.506Z" fill="url(#paint5_linear_473_7513)"/>
<path d="M76.2273 192.224L77.0109 195.722C77.0669 196.004 76.8989 196.286 76.6191 196.342L74.7161 196.85C73.8766 197.076 72.9811 196.963 72.1975 196.568L71.4139 196.173L70.9102 193.916L71.6378 193.183C72.1415 192.675 72.7572 192.336 73.4848 192.167L75.6676 191.716C75.8915 191.772 76.1713 191.942 76.2273 192.224Z" fill="#263238"/>
<path d="M87.8125 189.741L88.5961 192.223L95.5363 190.474L94.8087 187.992L87.8125 189.741Z" fill="#263238"/>
<path d="M75.7509 192.53L72.7695 193.029L72.7878 193.14L75.7691 192.641L75.7509 192.53Z" fill="white"/>
<path d="M75.9657 193.563L72.9844 194.062L73.0026 194.173L75.984 193.674L75.9657 193.563Z" fill="white"/>
<path d="M76.2574 194.572L73.2764 195.073L73.2947 195.184L76.2757 194.683L76.2574 194.572Z" fill="white"/>
<path d="M76.4664 195.585L73.4854 196.085L73.5037 196.196L76.4847 195.696L76.4664 195.585Z" fill="white"/>
<path d="M99.062 212.76L95.5919 213.663C94.6964 213.889 93.8008 213.381 93.577 212.478L93.0732 210.616L99.6217 208.755L100.181 210.616C100.517 211.519 100.014 212.535 99.062 212.76Z" fill="#263238"/>
<path d="M94.7913 187.093L78.6035 191.373L78.6603 191.591L94.8481 187.312L94.7913 187.093Z" fill="#263238"/>
<path d="M98.2809 195.27C98.2809 195.27 98.001 195.27 97.5533 195.326C97.1615 195.044 95.2585 193.803 95.0346 194.029C94.8108 194.254 95.3145 195.27 95.3145 195.27C95.3145 195.27 95.3145 195.27 95.3145 195.609C94.1951 195.778 92.9078 195.947 91.7324 196.173L87.8705 196.229C87.8705 196.229 84.9041 194.988 84.6243 195.721C84.4004 196.455 84.6243 196.737 85.6317 197.245C86.0795 197.47 86.5272 197.696 87.031 197.865C86.4153 198.26 86.6392 199.05 86.863 199.501C87.031 199.784 87.5347 199.953 87.9265 200.066C87.1429 200.404 87.3668 201.307 87.5907 201.758C87.7026 201.984 88.0384 202.153 88.3742 202.266C87.9265 202.661 88.1504 203.394 88.3183 203.789C88.5421 204.297 89.8295 204.41 89.8295 204.41C89.8295 204.41 90.1653 204.523 90.3332 204.523C92.572 205.031 99.904 201.138 99.904 201.138L98.2809 195.27Z" fill="#FFA8A7"/>
<path d="M127.497 158.258C127.497 158.258 132.646 164.295 143.224 163.618L141.097 169.147C141.097 169.147 131.135 170.389 126.153 162.603L127.497 158.258Z" fill="#263238"/>
<path d="M144.623 160.233L144.4 160.12C144.456 159.951 150.612 144.323 146.135 139.809C143.896 137.552 141.265 137.157 139.418 137.157C136.956 137.157 134.773 138.06 133.933 138.906C131.303 141.614 129.456 150.529 129.456 150.642L129.176 150.585C129.232 150.19 131.079 141.502 133.765 138.737C134.605 137.834 136.844 136.932 139.418 136.932C141.321 136.932 144.064 137.383 146.359 139.696C150.948 144.21 144.903 159.556 144.623 160.233Z" fill="#263238"/>
<path d="M129.288 145.451L127.385 142.574C127.385 142.574 131.359 132.813 130.855 131.008L134.325 133.264C134.381 133.264 130.183 144.774 129.288 145.451Z" fill="#263238"/>
<path d="M194.996 200.461C193.317 201.363 191.582 202.04 190.687 201.815C188.672 201.307 182.459 190.756 182.459 190.756L188.056 185.34C191.75 189.402 195.556 194.931 194.996 200.461Z" fill="white"/>
<path d="M188.627 186.013L184.062 190.667L184.262 190.865L188.826 186.211L188.627 186.013Z" fill="#263238"/>
<path d="M190.07 207.287C189.678 207.57 189.23 207.739 188.783 207.908C188.335 208.077 187.887 208.247 187.439 208.359C186.992 208.472 186.488 208.585 186.04 208.698C185.592 208.811 185.089 208.867 184.641 208.924C182.738 209.206 180.891 209.319 178.988 209.375C178.036 209.375 177.085 209.431 176.133 209.375L174.734 209.319H174.007L173.279 209.262C172.327 209.206 171.376 209.149 170.424 209.037C169.473 208.924 168.521 208.867 167.626 208.754C168.577 208.754 169.529 208.754 170.48 208.811C171.432 208.811 172.383 208.811 173.335 208.867C175.238 208.867 177.085 208.867 178.988 208.867C180.891 208.811 182.738 208.754 184.585 208.529L185.984 208.359C186.432 208.303 186.936 208.247 187.383 208.134C188.279 207.908 189.23 207.682 190.07 207.287Z" fill="white"/>
<path d="M131.302 239.785L130.742 239.729L132.869 202.435C132.981 200.968 134.1 199.727 135.556 199.501L178.82 193.521L178.876 194.085L135.612 200.066C134.38 200.235 133.485 201.25 133.429 202.492L131.302 239.785Z" fill="white"/>
<path d="M204.679 249.603C204.567 249.603 194.94 248.813 185.202 247.628C165.444 245.145 164.829 243.283 164.605 242.663C163.318 238.826 176.694 210.221 177.254 209.036L177.758 209.262C172.944 219.474 164.157 239.616 165.109 242.494C166.004 245.145 189.287 247.854 204.679 249.095V249.603Z" fill="white"/>
<path d="M113.112 254.568L115.463 257.727L116.974 257.219L115.015 253.665L113.112 254.568Z" fill="white"/>
<path d="M116.974 252.819L118.933 256.486L120.444 255.978L118.709 252.029L116.974 252.819Z" fill="white"/>
<path d="M109.53 262.015H109.25C109.418 259.363 107.067 257.445 107.067 257.445L107.235 257.219C107.347 257.276 109.698 259.194 109.53 262.015Z" fill="#455A64"/>
<path d="M230.034 261.507L229.754 261.451C229.754 261.394 230.09 259.815 231.489 258.46L231.657 258.63C230.37 259.984 230.034 261.507 230.034 261.507Z" fill="#455A64"/>
<path d="M222.534 257.558L223.877 254.116L225.109 255.075L223.821 258.235L222.534 257.558Z" fill="white"/>
<path d="M225.107 258.912L226.227 256.204L227.458 256.994L226.283 259.589L225.107 258.912Z" fill="white"/>
<path d="M105.668 133.772C105.668 133.772 107.291 136.48 109.25 135.521C111.265 134.506 111.713 133.49 113 134.28C114.231 135.013 114.735 135.295 115.743 137.27C116.75 139.301 115.966 137.778 115.966 137.778L118.205 136.537C118.205 136.537 115.966 135.013 117.198 132.757C118.429 130.5 121.172 132.249 121.675 134.506C122.179 136.762 123.69 136.537 124.922 136.537C126.153 136.537 125.929 135.013 127.384 135.013C128.839 135.013 130.631 132.757 129.847 131.008C129.119 129.258 126.601 126.72 125.369 125.253C124.138 123.729 122.459 119.046 122.459 119.046C122.459 119.046 107.067 130.33 105.668 133.772Z" fill="#263238"/>
<path d="M98.1128 195.27C97.777 195.27 97.2733 195.214 96.7696 194.932C96.0979 194.537 95.0345 194.085 94.9785 194.085L95.0905 193.803C95.1464 193.803 96.2099 194.255 96.8815 194.649C97.4412 194.988 98.1688 194.932 98.3367 194.932L101.247 192.675L118.15 181.278L122.292 178.795C122.572 178.062 126.434 168.245 127.497 164.69L127.777 164.747C126.713 168.471 122.628 178.852 122.572 178.965V179.021L118.318 181.56L101.415 192.957L98.4487 195.214H98.3927C98.4486 195.27 98.2807 195.27 98.1128 195.27Z" fill="#263238"/>
<path d="M123.186 119.949C123.186 119.949 119.212 113.404 110.481 113.912C106.003 114.194 101.47 117.918 99.5109 121.19C97.1602 125.14 97.7199 129.653 98.7273 134.111C98.8953 134.901 99.1751 135.747 99.5109 136.48C99.5109 136.537 120.668 127.735 123.186 119.949Z" fill="#455A64"/>
<path d="M106.509 133.264C106.509 133.264 98.7849 141.276 94.811 140.768C89.8297 140.148 98.2811 133.264 98.2811 133.264C98.2811 133.264 99.8483 131.177 106.509 133.264Z" fill="url(#paint6_linear_473_7513)"/>
<defs>
<linearGradient id="paint0_linear_473_7513" x1="248" y1="234.99" x2="5.56181" y2="141.019" gradientUnits="userSpaceOnUse">
<stop offset="0.431134" stop-color="#008954"/>
<stop offset="0.809708" stop-color="#09B975"/>
</linearGradient>
<linearGradient id="paint1_linear_473_7513" x1="243.915" y1="61.8365" x2="162.656" y2="-60.9002" gradientUnits="userSpaceOnUse">
<stop offset="0.431134" stop-color="#008954"/>
<stop offset="0.809708" stop-color="#09B975"/>
</linearGradient>
<linearGradient id="paint2_linear_473_7513" x1="61.0868" y1="247.197" x2="-17.47" y2="236.094" gradientUnits="userSpaceOnUse">
<stop offset="0.431134" stop-color="#008954"/>
<stop offset="0.809708" stop-color="#09B975"/>
</linearGradient>
<linearGradient id="paint3_linear_473_7513" x1="244.42" y1="231.153" x2="118.845" y2="198.812" gradientUnits="userSpaceOnUse">
<stop offset="0.431134" stop-color="#008954"/>
<stop offset="0.809708" stop-color="#09B975"/>
</linearGradient>
<linearGradient id="paint4_linear_473_7513" x1="100.286" y1="213.717" x2="70.9257" y2="201.66" gradientUnits="userSpaceOnUse">
<stop offset="0.431134" stop-color="#008954"/>
<stop offset="0.809708" stop-color="#09B975"/>
</linearGradient>
<linearGradient id="paint5_linear_473_7513" x1="78.3531" y1="194.988" x2="75.5623" y2="193.767" gradientUnits="userSpaceOnUse">
<stop offset="0.431134" stop-color="#008954"/>
<stop offset="0.809708" stop-color="#09B975"/>
</linearGradient>
<linearGradient id="paint6_linear_473_7513" x1="106.509" y1="140.791" x2="94.033" y2="131.294" gradientUnits="userSpaceOnUse">
<stop offset="0.431134" stop-color="#008954"/>
<stop offset="0.809708" stop-color="#09B975"/>
</linearGradient>
</defs>
</svg>
