<svg width="248" height="276" viewBox="0 0 248 276" fill="none" xmlns="http://www.w3.org/2000/svg">
<path d="M193.15 268.785H65.3706V269.575H193.15V268.785Z" fill="#263238"/>
<path d="M239.773 274.766H111.994V275.556H239.773V274.766Z" fill="#263238"/>
<path d="M245.931 2.36955H62.2939V232.958H245.931V2.36955Z" fill="#FEFEFE"/>
<path d="M223.318 232.959L223.262 244.355H233.84V232.959H223.318Z" fill="#263238"/>
<path d="M237.032 225.398H73.4878V226.188H237.032V225.398Z" fill="#263238"/>
<path d="M70.2962 232.959L70.2402 244.355H80.8185V232.959H70.2962Z" fill="#263238"/>
<path d="M248 234.99H60.2212V0H248V234.99ZM64.363 230.871H243.914V4.17509H64.363V230.871Z" fill="url(#paint0_linear_101_4167)"/>
<path d="M243.916 129.879H64.3647V133.264H243.916V129.879Z" fill="#263238"/>
<path d="M243.916 4.17519H64.3647V61.8365H243.916V4.17519Z" fill="url(#paint1_linear_101_4167)"/>
<path d="M243.916 60.7643H64.3647V64.1495H243.916V60.7643Z" fill="#263238"/>
<path d="M150.389 55.0659H67.3301V8.97073H150.389V55.0659ZM68.0577 54.2761H149.606V9.76061H68.0577V54.2761Z" fill="#263238"/>
<path d="M240.781 55.0659H151.789V8.97073H240.781V55.0659ZM152.573 54.2761H239.998V9.76061H152.573V54.2761Z" fill="#263238"/>
<path d="M118.711 49.7625C118.711 51.1166 117.592 52.245 116.249 52.245C114.906 52.245 113.786 51.1166 113.786 49.7625C113.786 48.4084 114.906 47.28 116.249 47.28C117.592 47.28 118.711 48.4084 118.711 49.7625Z" fill="#263238"/>
<path d="M143.45 49.7625C143.45 51.1166 142.33 52.245 140.987 52.245C139.644 52.245 138.524 51.1166 138.524 49.7625C138.524 48.4084 139.644 47.28 140.987 47.28C142.33 47.28 143.45 48.4084 143.45 49.7625Z" fill="#263238"/>
<path d="M141.882 48.5777H116.359V50.6652H141.882V48.5777Z" fill="#263238"/>
<path d="M161.19 49.7625C161.19 51.1166 160.071 52.245 158.728 52.245C157.385 52.245 156.265 51.1166 156.265 49.7625C156.265 48.4084 157.385 47.28 158.728 47.28C160.071 47.28 161.19 48.4084 161.19 49.7625Z" fill="#263238"/>
<path d="M185.929 49.7625C185.929 51.1166 184.809 52.245 183.466 52.245C182.123 52.245 181.003 51.1166 181.003 49.7625C181.003 48.4084 182.123 47.28 183.466 47.28C184.809 47.28 185.929 48.4084 185.929 49.7625Z" fill="#263238"/>
<path d="M184.418 48.5777H158.896V50.6652H184.418V48.5777Z" fill="#263238"/>
<path d="M147.143 35.3191H146.92V13.146H71.8081V12.8639H147.143V35.3191Z" fill="#263238"/>
<path d="M156.323 35.4883H156.043V13.0331H234.233V13.2588H156.323V35.4883Z" fill="#263238"/>
<path d="M9.29099 176.256L0.223876 176.313L0 142.404L9.06711 142.348V144.943L2.63058 145L2.79849 173.717L9.23502 173.661L9.29099 176.256Z" fill="#263238"/>
<path d="M8.25123 247.197L7.13184 68.3455L57.4487 62.0829C58.5681 61.8572 59.7435 62.5343 60.0793 63.8884L61.0868 234.221L8.25123 247.197Z" fill="url(#paint2_linear_101_4167)"/>
<path d="M59.3285 194.536L54.7949 196.229L54.9069 211.519L59.4404 209.713V209.77H60.9516L60.8397 194.48L59.3285 194.536Z" fill="#263238"/>
<path d="M58.6006 78.3676L54.123 80.1166L54.179 95.4064L58.7126 93.601V93.6574L60.2238 93.601L60.1678 78.3676H58.6006Z" fill="#263238"/>
<path d="M15.3349 143.984C15.3349 144.774 14.7193 145.394 13.9357 145.451C13.1521 145.451 12.5364 144.83 12.4805 144.04C12.4805 143.25 13.0961 142.63 13.8797 142.573C14.6633 142.517 15.3349 143.194 15.3349 143.984Z" fill="#263238"/>
<path d="M15.5032 175.015C15.5032 175.805 14.8876 176.425 14.104 176.482C13.3204 176.482 12.7047 175.861 12.6488 175.071C12.5928 174.282 13.2644 173.661 14.048 173.604C14.8876 173.604 15.5032 174.225 15.5032 175.015Z" fill="#263238"/>
<path d="M57.1439 82.8811C57.1439 83.7838 56.7521 84.5173 56.3044 84.5173C55.8566 84.5173 55.4648 83.7838 55.4648 82.8811C55.4648 81.9784 55.8566 81.2449 56.3044 81.2449C56.7521 81.2449 57.1439 81.9784 57.1439 82.8811Z" fill="white"/>
<path d="M57.2011 90.8928C57.2011 91.7955 56.8093 92.5289 56.3615 92.5289C55.9138 92.5289 55.522 91.7955 55.522 90.8928C55.522 89.99 55.9138 89.2566 56.3615 89.2566C56.8093 89.2566 57.2011 89.99 57.2011 90.8928Z" fill="white"/>
<path d="M57.8734 207.569C57.8734 208.472 57.4816 209.206 57.0339 209.206C56.5861 209.206 56.1943 208.472 56.1943 207.569C56.1943 206.667 56.5861 205.933 57.0339 205.933C57.4816 205.99 57.8734 206.667 57.8734 207.569Z" fill="white"/>
<path d="M57.8173 198.599C57.8173 199.501 57.4255 200.235 56.9777 200.235C56.53 200.235 56.1382 199.501 56.1382 198.599C56.1382 197.696 56.53 196.962 56.9777 196.962C57.4255 197.019 57.8173 197.696 57.8173 198.599Z" fill="white"/>
<path d="M12.8175 241.139L11.8101 71.5971L12.0339 71.5407L56.8098 64.5446L56.9217 65.0524L12.3138 72.0485L13.3212 240.519L57.0337 229.912L57.1456 230.42L12.8175 241.139Z" fill="#263238"/>
<path d="M238.991 95.1806H238.208V69.1145H76.063V68.3246H238.991V95.1806Z" fill="#263238"/>
<path d="M244.42 61.3285H154.252V231.153H244.42V61.3285Z" fill="url(#paint3_linear_101_4167)"/>
<path d="M244.979 231.661H154.252V230.532H243.86L243.468 61.0465H244.587L244.979 231.661Z" fill="#263238"/>
<path d="M239.268 226.47H160.407V66.8013H239.212V226.47H239.268ZM160.91 225.906H238.709V67.2527H160.91V225.906Z" fill="#263238"/>
<path d="M169.027 124.293H165.949V161.7H169.027V124.293Z" fill="#263238"/>
<path d="M122.292 251.352C122.292 251.352 124.531 244.581 124.531 243.058C124.531 241.535 136.228 243.566 136.228 243.566C136.228 243.566 134.493 251.07 134.717 254.116C134.997 257.107 122.292 257.614 122.292 251.352Z" fill="#EBAFA4"/>
<path d="M136.228 263.651C134.493 265.175 125.762 264.385 119.325 264.893C113.113 265.4 101.135 264.159 101.135 264.159C101.135 264.159 100.799 263.031 100.855 261.959C100.911 261.395 101.023 260.83 101.359 260.435C102.367 259.194 121.005 251.126 121.788 250.675C122.516 250.167 124.251 251.69 126.266 253.157C128.281 254.681 135.221 253.157 135.221 253.157C135.221 253.157 136.452 257.219 136.732 260.379C136.9 261.846 136.844 263.144 136.228 263.651Z" fill="#263238"/>
<path d="M219.23 255.978C219.23 255.978 208.148 254.85 206.189 254.85C204.174 254.85 207.701 244.807 208.428 244.581C209.156 244.355 212.906 245.822 215.145 245.597C217.383 245.315 219.23 255.978 219.23 255.978Z" fill="#EBAFA4"/>
<path d="M93.0762 190.982C93.0762 190.982 117.199 173.435 118.71 172.646C120.222 171.912 125.315 156.227 125.315 156.227L137.236 161.249C137.236 161.249 130.128 176.934 126.154 180.939C122.181 184.945 97.2739 195.496 97.2739 195.496C97.2739 195.496 91.3411 194.48 93.0762 190.982Z" fill="#EBAFA4"/>
<path d="M129.008 131.12C126.042 129.371 125.035 124.576 122.292 120.344C119.55 116.056 111.322 113.574 107.124 116.056C102.871 118.539 98.1131 125.478 99.6802 132.869C100.52 136.875 102.423 140.148 104.718 142.743C104.718 142.743 106.285 146.805 107.74 147.313C108.356 147.539 108.859 147.2 109.251 146.749C112.889 149.231 116.415 150.19 117.591 149.683C120.053 148.667 121.844 145.169 121.844 145.169L128.561 146.918C130.799 142.404 135.277 133.885 135.277 133.885C135.277 133.885 132.031 132.869 129.008 131.12Z" fill="#EBAFA4"/>
<path d="M169.251 205.595C169.251 205.595 155.37 232.507 155.538 241.704C155.65 248.305 160.519 252.311 163.766 253.213C167.012 254.116 205.295 255.019 207.59 256.091C209.885 257.219 212.683 248.248 210.612 244.92C208.542 241.591 176.135 237.416 176.135 237.416C176.135 237.416 193.821 208.19 194.213 201.645L169.251 205.595Z" fill="#263238"/>
<path d="M128.559 146.918C128.559 146.918 132.812 133.603 134.268 133.095C135.779 132.587 143.95 132.08 149.715 136.593C155.424 141.107 163.652 156.904 167.626 161.418C171.599 165.932 182.569 179.755 182.569 179.755C182.569 179.755 159.902 189.29 152.961 190.531C145.965 191.772 133.54 163.675 131.301 159.387C129.006 155.212 128.559 146.918 128.559 146.918Z" fill="#455A64"/>
<path d="M194.995 200.46C194.995 200.686 194.939 200.855 194.939 201.081C193.204 211.801 175.238 208.529 172.16 208.529C169.081 208.529 143.671 207.344 143.671 207.344C142.272 222.013 136.899 247.176 136.899 247.176C131.861 250.674 122.458 246.669 122.458 246.669C122.458 246.669 122.906 197.301 126.6 193.352C130.294 189.402 147.589 186.13 153.298 185.904C159.007 185.678 181.283 179.134 181.283 179.134C181.283 179.134 184.641 181.56 187.999 185.227C191.749 189.402 195.555 194.931 194.995 200.46Z" fill="#263238"/>
<path d="M129.177 146.072L121.229 163.618C121.229 163.618 127.722 170.163 134.438 169.147L141.658 152.56L129.177 146.072Z" fill="#455A64"/>
<path d="M122.908 158.371C122.908 158.371 127.161 163.9 137.852 166.383L135.837 171.179C135.837 171.179 124.363 169.147 120.389 162.659L122.908 158.371Z" fill="#263238"/>
<path d="M97.6635 195.383C97.6635 195.383 120.835 179.585 122.29 178.795C123.801 178.062 128.503 161.757 128.503 161.757L140.424 166.778C140.424 166.778 134.212 184.325 130.238 188.33C126.264 192.336 99.8463 201.138 99.8463 201.138C99.8463 201.138 95.9285 198.881 97.6635 195.383Z" fill="#EBAFA4"/>
<path d="M238.708 264.554C238.316 264.723 237.812 264.836 237.309 264.892C235.797 265.118 221.861 256.881 219.902 256.373C217.887 255.865 217.887 250.618 216.936 249.828C215.928 249.095 213.969 247.797 213.969 245.033C213.969 245.033 219.678 241.027 220.965 241.027C222.197 241.027 229.417 248.531 229.417 248.531C229.417 248.531 238.876 257.84 239.603 261.056C240.051 263.313 239.547 264.159 238.708 264.554Z" fill="#263238"/>
<path d="M238.707 264.554C234.565 262.41 224.323 251.182 221.636 247.346C218.67 243.058 220.909 241.083 220.909 241.083C222.14 241.083 229.36 248.587 229.36 248.587C229.36 248.587 238.819 257.896 239.547 261.112C240.05 263.313 239.547 264.159 238.707 264.554Z" fill="#455A64"/>
<path d="M126.768 161.756C126.768 161.756 130.742 140.43 134.212 138.398C137.682 136.367 146.581 134.9 147.645 143.928C148.652 152.221 141.152 168.245 141.152 168.245C141.152 168.245 129.287 168.752 126.768 161.756Z" fill="#455A64"/>
<path d="M136.228 263.651C134.493 265.174 125.762 264.384 119.325 264.892C113.113 265.4 101.135 264.159 101.135 264.159C101.135 264.159 100.799 263.03 100.855 261.958C104.997 261.789 128.84 262.918 136.732 260.379C136.9 261.846 136.844 263.143 136.228 263.651Z" fill="#455A64"/>
<path d="M86.2456 194.65C86.3016 195.383 86.9732 195.891 87.6449 195.722L89.3239 195.327L88.5963 193.803L86.2456 194.65Z" fill="#263238"/>
<path d="M99.0623 212.76L95.5922 213.663C94.6967 213.889 93.8012 213.381 93.5773 212.478L93.0736 210.617L92.7937 209.545L93.0176 206.329L89.2676 195.27C88.9318 194.537 88.1482 194.198 87.3647 194.368L79.8647 196.342C79.0251 196.568 78.1296 196.06 77.9057 195.214L77.2341 192.562C77.0102 191.716 77.514 190.813 78.4095 190.587L94.4168 186.469C95.0325 186.299 95.6482 186.638 95.8721 187.259L96.8795 190.475C96.9355 190.587 96.9355 190.7 96.9355 190.813C96.9355 191.321 96.5997 191.829 96.04 191.998C95.2004 192.224 94.6967 193.07 94.9206 193.916L98.1668 205.934L99.2302 207.513L99.622 208.698L100.182 210.56C100.518 211.519 100.014 212.535 99.0623 212.76Z" fill="url(#paint4_linear_101_4167)"/>
<path d="M71.0758 194.819L63.4639 196.229V196.737L71.1877 195.27L71.0758 194.819Z" fill="#263238"/>
<path d="M63.1846 197.076V196.004L71.3002 194.48L71.5241 195.439L63.1846 197.076Z" fill="white"/>
<path d="M77.6254 192.506L76.1143 192.957L76.618 194.988L78.3531 194.819L77.6254 192.506Z" fill="url(#paint5_linear_101_4167)"/>
<path d="M76.2278 192.224L77.0114 195.722C77.0673 196.004 76.8994 196.286 76.6196 196.342L74.7166 196.85C73.8771 197.076 72.9815 196.963 72.198 196.568L71.4144 196.173L70.9106 193.916L71.6383 193.183C72.142 192.675 72.7577 192.336 73.4853 192.167L75.6681 191.716C75.892 191.772 76.1718 191.941 76.2278 192.224Z" fill="#263238"/>
<path d="M87.8125 189.741L88.5961 192.223L95.5363 190.474L94.8087 187.992L87.8125 189.741Z" fill="#263238"/>
<path d="M75.7513 192.53L72.77 193.029L72.7883 193.14L75.7696 192.641L75.7513 192.53Z" fill="white"/>
<path d="M75.9652 193.563L72.9839 194.062L73.0022 194.173L75.9835 193.674L75.9652 193.563Z" fill="white"/>
<path d="M76.2569 194.572L73.2759 195.073L73.2942 195.184L76.2753 194.683L76.2569 194.572Z" fill="white"/>
<path d="M76.4669 195.585L73.4858 196.085L73.5042 196.196L76.4852 195.696L76.4669 195.585Z" fill="white"/>
<path d="M99.062 212.76L95.5919 213.663C94.6964 213.889 93.8008 213.381 93.577 212.478L93.0732 210.617L99.6217 208.755L100.181 210.617C100.517 211.519 100.014 212.535 99.062 212.76Z" fill="#263238"/>
<path d="M94.7913 187.093L78.6035 191.373L78.6603 191.591L94.8481 187.312L94.7913 187.093Z" fill="#263238"/>
<path d="M98.2814 195.27C98.2814 195.27 98.0015 195.27 97.5538 195.326C97.162 195.044 95.259 193.803 95.0351 194.029C94.8113 194.254 95.315 195.27 95.315 195.27C95.315 195.27 95.315 195.27 95.315 195.608C94.1956 195.778 92.9083 195.947 91.7329 196.173L87.871 196.229C87.871 196.229 84.9046 194.988 84.6247 195.721C84.4009 196.455 84.6248 196.737 85.6322 197.245C86.08 197.47 86.5277 197.696 87.0315 197.865C86.4158 198.26 86.6397 199.05 86.8635 199.501C87.0314 199.784 87.5352 199.953 87.927 200.066C87.1434 200.404 87.3673 201.307 87.5912 201.758C87.7031 201.984 88.0389 202.153 88.3747 202.266C87.927 202.661 88.1508 203.394 88.3188 203.789C88.5426 204.297 89.8299 204.41 89.8299 204.41C89.8299 204.41 90.1658 204.523 90.3337 204.523C92.5725 205.031 99.9045 201.138 99.9045 201.138L98.2814 195.27Z" fill="#EBAFA4"/>
<path d="M127.497 158.258C127.497 158.258 132.646 164.295 143.225 163.618L141.098 169.148C141.098 169.148 131.135 170.389 126.154 162.603L127.497 158.258Z" fill="#263238"/>
<path d="M144.623 160.233L144.4 160.12C144.456 159.951 150.612 144.323 146.135 139.809C143.896 137.552 141.265 137.157 139.418 137.157C136.956 137.157 134.773 138.06 133.933 138.906C131.303 141.614 129.456 150.529 129.456 150.642L129.176 150.585C129.232 150.19 131.079 141.502 133.765 138.737C134.605 137.834 136.844 136.932 139.418 136.932C141.321 136.932 144.064 137.383 146.359 139.696C150.948 144.21 144.903 159.556 144.623 160.233Z" fill="#263238"/>
<path d="M129.288 145.451L127.385 142.574C127.385 142.574 131.359 132.813 130.855 131.008L134.325 133.264C134.381 133.264 130.183 144.774 129.288 145.451Z" fill="#263238"/>
<path d="M194.996 200.461C193.317 201.363 191.582 202.04 190.687 201.815C188.672 201.307 182.459 190.756 182.459 190.756L188.056 185.34C191.75 189.402 195.556 194.931 194.996 200.461Z" fill="white"/>
<path d="M188.628 186.013L184.063 190.667L184.262 190.865L188.827 186.211L188.628 186.013Z" fill="#263238"/>
<path d="M190.069 207.287C189.678 207.57 189.23 207.739 188.782 207.908C188.334 208.077 187.887 208.247 187.439 208.359C186.991 208.472 186.487 208.585 186.04 208.698C185.592 208.811 185.088 208.867 184.64 208.924C182.737 209.206 180.89 209.319 178.987 209.375C178.036 209.375 177.084 209.431 176.133 209.375L174.734 209.319H174.006L173.278 209.262C172.327 209.206 171.375 209.149 170.424 209.036C169.472 208.924 168.521 208.867 167.625 208.754C168.577 208.754 169.528 208.754 170.48 208.811C171.431 208.811 172.383 208.811 173.334 208.867C175.237 208.867 177.084 208.867 178.987 208.867C180.89 208.811 182.737 208.754 184.584 208.529L185.984 208.359C186.431 208.303 186.935 208.247 187.383 208.134C188.278 207.908 189.23 207.682 190.069 207.287Z" fill="white"/>
<path d="M131.302 239.785L130.743 239.729L132.87 202.435C132.981 200.968 134.101 199.727 135.556 199.501L178.821 193.521L178.877 194.085L135.612 200.066C134.381 200.235 133.485 201.25 133.429 202.492L131.302 239.785Z" fill="white"/>
<path d="M204.679 249.602C204.567 249.602 194.94 248.813 185.202 247.628C165.444 245.145 164.829 243.283 164.605 242.663C163.318 238.826 176.694 210.221 177.254 209.036L177.758 209.262C172.944 219.474 164.157 239.616 165.109 242.494C166.004 245.145 189.287 247.853 204.679 249.095V249.602Z" fill="white"/>
<path d="M108.466 147.595C108.243 147.595 108.019 147.539 107.683 147.426C106.396 146.918 104.716 143.025 104.604 142.856L104.828 142.743C104.828 142.799 106.563 146.692 107.739 147.2C108.69 147.595 108.97 147.2 109.306 146.805C109.362 146.692 109.474 146.579 109.586 146.523L109.754 146.692C109.642 146.805 109.586 146.862 109.53 146.974C109.306 147.256 109.026 147.595 108.466 147.595Z" fill="#263238"/>
<path d="M113.112 254.568L115.463 257.727L116.974 257.219L115.015 253.665L113.112 254.568Z" fill="white"/>
<path d="M116.974 252.819L118.933 256.486L120.444 255.978L118.709 252.029L116.974 252.819Z" fill="white"/>
<path d="M109.53 262.015H109.25C109.418 259.363 107.067 257.445 107.067 257.445L107.235 257.219C107.347 257.276 109.698 259.194 109.53 262.015Z" fill="#455A64"/>
<path d="M230.033 261.507L229.753 261.451C229.753 261.394 230.089 259.815 231.489 258.46L231.656 258.63C230.369 259.984 230.033 261.507 230.033 261.507Z" fill="#455A64"/>
<path d="M222.534 257.558L223.877 254.116L225.109 255.075L223.821 258.235L222.534 257.558Z" fill="white"/>
<path d="M225.107 258.912L226.227 256.204L227.458 256.994L226.283 259.589L225.107 258.912Z" fill="white"/>
<path d="M105.668 133.772C105.668 133.772 107.291 136.48 109.25 135.521C111.265 134.506 111.713 133.49 113 134.28C114.231 135.013 114.735 135.295 115.743 137.27C116.75 139.301 115.966 137.778 115.966 137.778L118.205 136.537C118.205 136.537 115.966 135.013 117.198 132.756C118.429 130.5 121.172 132.249 121.675 134.506C122.179 136.762 123.69 136.537 124.922 136.537C126.153 136.537 125.929 135.013 127.384 135.013C128.839 135.013 130.631 132.757 129.847 131.007C129.119 129.258 126.601 126.72 125.369 125.253C124.138 123.729 122.459 119.046 122.459 119.046C122.459 119.046 107.067 130.33 105.668 133.772Z" fill="#263238"/>
<path d="M98.1123 195.27C97.7765 195.27 97.2728 195.214 96.7691 194.932C96.0974 194.537 95.034 194.085 94.978 194.085L95.09 193.803C95.1459 193.803 96.2094 194.255 96.881 194.649C97.4407 194.988 98.1683 194.932 98.3362 194.932L101.247 192.675L118.15 181.278L122.291 178.795C122.571 178.062 126.433 168.245 127.496 164.69L127.776 164.747C126.713 168.471 122.627 178.852 122.571 178.965V179.021L118.317 181.56L101.415 192.957L98.4482 195.214H98.3922C98.4482 195.27 98.2803 195.27 98.1123 195.27Z" fill="#263238"/>
<path d="M123.187 119.949C123.187 119.949 119.213 113.404 110.481 113.912C106.004 114.194 101.47 117.918 99.5114 121.19C97.1607 125.14 97.7204 129.653 98.7278 134.111C98.8957 134.901 99.1756 135.747 99.5114 136.48C99.5114 136.537 120.668 127.735 123.187 119.949Z" fill="#455A64"/>
<path d="M106.509 133.264C106.509 133.264 98.7849 141.276 94.811 140.768C89.8297 140.148 98.2811 133.264 98.2811 133.264C98.2811 133.264 99.8483 131.177 106.509 133.264Z" fill="url(#paint6_linear_101_4167)"/>
<defs>
<linearGradient id="paint0_linear_101_4167" x1="60.2212" y1="117.495" x2="248" y2="117.495" gradientUnits="userSpaceOnUse">
<stop stop-color="#D4FC79"/>
<stop offset="1" stop-color="#96E6A1"/>
</linearGradient>
<linearGradient id="paint1_linear_101_4167" x1="64.3647" y1="33.0058" x2="243.916" y2="33.0058" gradientUnits="userSpaceOnUse">
<stop stop-color="#D4FC79"/>
<stop offset="1" stop-color="#96E6A1"/>
</linearGradient>
<linearGradient id="paint2_linear_101_4167" x1="7.13184" y1="154.619" x2="61.0868" y2="154.619" gradientUnits="userSpaceOnUse">
<stop stop-color="#D4FC79"/>
<stop offset="1" stop-color="#96E6A1"/>
</linearGradient>
<linearGradient id="paint3_linear_101_4167" x1="154.252" y1="146.241" x2="244.42" y2="146.241" gradientUnits="userSpaceOnUse">
<stop stop-color="#D4FC79"/>
<stop offset="1" stop-color="#96E6A1"/>
</linearGradient>
<linearGradient id="paint4_linear_101_4167" x1="77.1812" y1="200.071" x2="100.286" y2="200.071" gradientUnits="userSpaceOnUse">
<stop stop-color="#D4FC79"/>
<stop offset="1" stop-color="#96E6A1"/>
</linearGradient>
<linearGradient id="paint5_linear_101_4167" x1="76.1143" y1="193.747" x2="78.3531" y2="193.747" gradientUnits="userSpaceOnUse">
<stop stop-color="#D4FC79"/>
<stop offset="1" stop-color="#96E6A1"/>
</linearGradient>
<linearGradient id="paint6_linear_101_4167" x1="93.2393" y1="136.564" x2="106.509" y2="136.564" gradientUnits="userSpaceOnUse">
<stop stop-color="#D4FC79"/>
<stop offset="1" stop-color="#96E6A1"/>
</linearGradient>
</defs>
</svg>
