<svg width="0" height="0" class="hidden">

    <symbol id="mebel" viewBox="0 0 161 116" fill="none" xmlns="http://www.w3.org/2000/svg">
        <path d="M29.7059 114H2V45.0953C2 41.5106 5.16639 38.3243 8.72857 38.3243H22.9773C26.5395 38.3243 29.7059 41.5106 29.7059 45.0953V114V114Z" stroke="#008954" stroke-width="4" stroke-miterlimit="10" stroke-linecap="round" stroke-linejoin="round"/>
        <path d="M140.529 38V14.4613C140.529 7.75134 136.268 2 130.458 2H92.1102C86.6873 2 82.0391 7.27207 82.0391 14.4613V59.5135" stroke="#008954" stroke-width="4" stroke-miterlimit="10" stroke-linecap="round" stroke-linejoin="round"/>
        <path d="M20.4707 37.5V14.1081C20.4707 7.58835 24.9558 2 31.0719 2H71.4381C77.1464 2 82.0393 7.12265 82.0393 14.1081V59.5135" stroke="#008954" stroke-width="4" stroke-miterlimit="10" stroke-linecap="round" stroke-linejoin="round"/>
        <path d="M159 114H131.294V45.0953C131.294 41.5106 134.46 38.3243 138.022 38.3243H152.271C155.833 38.3243 159 41.5106 159 45.0953V114Z" stroke="#008954" stroke-width="4" stroke-miterlimit="10" stroke-linecap="round" stroke-linejoin="round"/>
        <path d="M29.7061 59.5138H131.294" stroke="#008954" stroke-width="4" stroke-miterlimit="10" stroke-linecap="round" stroke-linejoin="round"/>
        <path d="M29.4746 114H131.524" stroke="#008954" stroke-width="4" stroke-miterlimit="10" stroke-linecap="round" stroke-linejoin="round"/>
        <path d="M30 81L131 80.9971" stroke="#008954" stroke-width="4" stroke-miterlimit="10" stroke-linecap="round" stroke-linejoin="round"/>
        <path d="M49.0996 43.2142H56.9496" stroke="#008954" stroke-width="4" stroke-miterlimit="10" stroke-linecap="round" stroke-linejoin="round"/>
        <path d="M104.049 43.2142H111.899" stroke="#008954" stroke-width="4" stroke-miterlimit="10" stroke-linecap="round" stroke-linejoin="round"/>
    </symbol>

    <symbol id="electronika" viewBox="0 0 159 117" fill="none" xmlns="http://www.w3.org/2000/svg">
        <path d="M128.449 2.17139H30.5547V62.1707H128.449V2.17139Z" stroke="#008954" stroke-width="4" stroke-miterlimit="10" stroke-linecap="round" stroke-linejoin="round"/>
        <path d="M71.3428 74.1709V62.1711" stroke="#008954" stroke-width="4" stroke-miterlimit="10" stroke-linecap="round" stroke-linejoin="round"/>
        <path d="M87.6572 62.1711V74.1709" stroke="#008954" stroke-width="4" stroke-miterlimit="10" stroke-linecap="round" stroke-linejoin="round"/>
        <path d="M157 74.1719H2V114.171H157V74.1719Z" stroke="#008954" stroke-width="4" stroke-miterlimit="10" stroke-linecap="round" stroke-linejoin="round"/>
        <path d="M63.1846 94.1711H157" stroke="#008954" stroke-width="4" stroke-miterlimit="10" stroke-linecap="round" stroke-linejoin="round"/>
        <path d="M46.8691 90.1726V98.1725" stroke="#008954" stroke-width="4" stroke-miterlimit="10" stroke-linecap="round" stroke-linejoin="round"/>
        <path d="M63.1846 74.1719V114.171" stroke="#008954" stroke-width="4" stroke-miterlimit="10" stroke-linecap="round" stroke-linejoin="round"/>
    </symbol>

    <symbol id="bytovaya" viewBox="0 0 158 118" fill="none" xmlns="http://www.w3.org/2000/svg">
        <path fill-rule="evenodd" clip-rule="evenodd" d="M2.01367 0.28125C0.909102 0.28125 0.0136719 1.17668 0.0136719 2.28125V33.0127V33.0131V115.989C0.0136719 117.093 0.909102 117.989 2.01367 117.989H155.987C157.092 117.989 157.987 117.093 157.987 115.989V33.0131V33.0127V2.28125C157.987 1.17668 157.092 0.28125 155.987 0.28125H2.01367ZM153.987 31.0127V4.28125H4.01367V31.0127H153.987ZM4.01367 35.0131H153.987V113.989H4.01367V35.0131ZM15.4109 57.5986C15.4109 56.4941 16.3064 55.5986 17.4109 55.5986H140.59C141.694 55.5986 142.59 56.4941 142.59 57.5986V100.623C142.59 101.728 141.694 102.623 140.59 102.623H17.4109C16.3064 102.623 15.4109 101.728 15.4109 100.623V57.5986ZM19.4109 59.5986V98.6232H138.59V59.5986H19.4109ZM35.8877 20.7937C37.6382 20.7937 39.0467 19.3793 39.0467 17.6473C39.0467 15.9154 37.6382 14.501 35.8877 14.501C34.1373 14.501 32.7288 15.9154 32.7288 17.6473C32.7288 19.3793 34.1373 20.7937 35.8877 20.7937ZM35.8877 23.7937C39.2892 23.7937 42.0467 21.0419 42.0467 17.6473C42.0467 14.2528 39.2892 11.501 35.8877 11.501C32.4862 11.501 29.7288 14.2528 29.7288 17.6473C29.7288 21.0419 32.4862 23.7937 35.8877 23.7937ZM66.7619 17.6473C66.7619 19.3793 65.3534 20.7937 63.603 20.7937C61.8525 20.7937 60.444 19.3793 60.444 17.6473C60.444 15.9154 61.8525 14.501 63.603 14.501C65.3534 14.501 66.7619 15.9154 66.7619 17.6473ZM69.7619 17.6473C69.7619 21.0419 67.0044 23.7937 63.603 23.7937C60.2015 23.7937 57.444 21.0419 57.444 17.6473C57.444 14.2528 60.2015 11.501 63.603 11.501C67.0044 11.501 69.7619 14.2528 69.7619 17.6473ZM91.3182 20.7937C93.0686 20.7937 94.4771 19.3793 94.4771 17.6473C94.4771 15.9154 93.0686 14.501 91.3182 14.501C89.5678 14.501 88.1592 15.9154 88.1592 17.6473C88.1592 19.3793 89.5678 20.7937 91.3182 20.7937ZM91.3182 23.7937C94.7197 23.7937 97.4771 21.0419 97.4771 17.6473C97.4771 14.2528 94.7197 11.501 91.3182 11.501C87.9167 11.501 85.1592 14.2528 85.1592 17.6473C85.1592 21.0419 87.9167 23.7937 91.3182 23.7937ZM122.193 17.6473C122.193 19.3793 120.784 20.7937 119.034 20.7937C117.283 20.7937 115.875 19.3793 115.875 17.6473C115.875 15.9154 117.283 14.501 119.034 14.501C120.784 14.501 122.193 15.9154 122.193 17.6473ZM125.193 17.6473C125.193 21.0419 122.435 23.7937 119.034 23.7937C115.632 23.7937 112.875 21.0419 112.875 17.6473C112.875 14.2528 115.632 11.501 119.034 11.501C122.435 11.501 125.193 14.2528 125.193 17.6473ZM14.0005 45C14.0005 43.3431 15.3436 42 17.0005 42H141C142.657 42 144 43.3431 144 45C144 46.6569 142.657 48 141 48H17.0005C15.3436 48 14.0005 46.6569 14.0005 45ZM122.113 91.4033H35.888V95.4033H122.113V91.4033Z" fill="#008954"/>
    </symbol>

    <symbol id="dlya_doma" viewBox="0 0 182 116" fill="none" xmlns="http://www.w3.org/2000/svg">
        <g clip-path="url(#clip0_4_6022)">
        <path fill-rule="evenodd" clip-rule="evenodd" d="M67.223 88.7994C83.2329 88.7994 96.5114 75.1791 96.5114 57.9994C96.5114 40.8198 83.2329 27.1994 67.223 27.1994C51.213 27.1994 37.9346 40.8198 37.9346 57.9994C37.9346 75.1791 51.213 88.7994 67.223 88.7994ZM67.223 92.7994C85.6076 92.7994 100.511 77.2189 100.511 57.9994C100.511 38.7799 85.6076 23.1994 67.223 23.1994C48.8383 23.1994 33.9346 38.7799 33.9346 57.9994C33.9346 77.2189 48.8383 92.7994 67.223 92.7994Z" fill="#008954"/>
        <path fill-rule="evenodd" clip-rule="evenodd" d="M103.729 96.0727C94.3794 105.926 81.4402 112 67.2228 112C38.9564 112 15.7422 87.9926 15.7422 58C15.7422 28.0074 38.9564 4 67.2228 4C95.4893 4 118.703 28.0074 118.703 58C118.703 61.7734 118.336 65.452 117.637 69H121.707C122.361 65.4384 122.703 61.761 122.703 58C122.703 25.9675 97.8639 0 67.2228 0C36.5817 0 11.7422 25.9675 11.7422 58C11.7422 90.0325 36.5817 116 67.2228 116C82.2142 116 95.8169 109.784 105.801 99.6831C105.025 98.5373 104.332 97.331 103.729 96.0727Z" fill="#008954"/>
        <path fill-rule="evenodd" clip-rule="evenodd" d="M159.918 72.9999H104.512V92.0856C104.512 100.922 111.675 108.086 120.512 108.086H143.918C152.755 108.086 159.918 100.922 159.918 92.0856V72.9999ZM104.512 68.9999H100.512V72.9999V92.0856C100.512 103.131 109.466 112.086 120.512 112.086H143.918C154.318 112.086 162.864 104.148 163.828 93.9999H164H174C178.419 93.9999 182 90.4181 182 85.9999V80.9999C182 76.5816 178.419 72.9999 174 72.9999H164H163.918V68.9999H159.918H104.512ZM174 76.9999H164V89.9999H174C176.209 89.9999 178 88.209 178 85.9999V80.9999C178 78.7907 176.209 76.9999 174 76.9999ZM170.259 112.086H94.1709V114.086C94.1709 115.19 95.0663 116.086 96.1709 116.086H168.259C169.363 116.086 170.259 115.19 170.259 114.086V112.086Z" fill="#008954"/>
        </g>
        <defs>
        <clipPath id="clip0_4_6022">
        <rect width="182" height="116" fill="white"/>
        </clipPath>
        </defs>
    </symbol>

    <symbol id="info" viewBox="0 0 116 116" fill="none" xmlns="http://www.w3.org/2000/svg">
        <rect width="116" height="116" fill="none"/>
        <path fill-rule="evenodd" clip-rule="evenodd" d="M4 58C4 28.1766 28.1766 4 58 4C87.8234 4 112 28.1766 112 58C112 87.8234 87.8234 112 58 112C28.1766 112 4 87.8234 4 58ZM58 0C25.9675 0 0 25.9675 0 58C0 90.0325 25.9675 116 58 116C90.0325 116 116 90.0325 116 58C116 25.9675 90.0325 0 58 0ZM61.8359 38.6836C60.957 37.7852 59.8828 37.3359 58.6133 37.3359C57.3633 37.3359 56.2988 37.7852 55.4199 38.6836C54.541 39.5625 54.1016 40.627 54.1016 41.877C54.1016 43.127 54.541 44.1914 55.4199 45.0703C56.2988 45.9492 57.3633 46.3887 58.6133 46.3887C59.8633 46.3887 60.9277 45.9492 61.8066 45.0703C62.7051 44.1914 63.1543 43.127 63.1543 41.877C63.1543 40.627 62.7148 39.5625 61.8359 38.6836ZM62.7148 72.3164V50.6074H51.2305V51.6914C52.5195 51.7695 53.3887 52.082 53.8379 52.6289C54.2871 53.1562 54.5117 54.3867 54.5117 56.3203V72.3164C54.5117 74.25 54.3164 75.4414 53.9258 75.8906C53.3398 76.5547 52.4414 76.9062 51.2305 76.9453V78H66.0254V76.9453C64.7168 76.8672 63.8379 76.5645 63.3887 76.0371C62.9395 75.4902 62.7148 74.25 62.7148 72.3164Z" fill="#008954"/>
    </symbol>

    <symbol id="search" viewBox="0 0 20 20" fill="none" xmlns="http://www.w3.org/2000/svg">
        <path d="M8.3636 1L8.36363 0.5H8.3636V1ZM15.7272 8.36359H16.2272V8.36356L15.7272 8.36359ZM13.924 13.2169C13.7287 13.0217 13.4121 13.0217 13.2169 13.2169C13.0216 13.4122 13.0216 13.7288 13.2169 13.924L13.924 13.2169ZM18.6464 19.3535C18.8416 19.5488 19.1582 19.5488 19.3535 19.3535C19.5487 19.1583 19.5487 18.8417 19.3535 18.6464L18.6464 19.3535ZM8.3636 0.5C6.80833 0.5 5.28798 0.961192 3.99482 1.82525L4.55039 2.65672C5.6791 1.90254 7.00611 1.5 8.3636 1.5V0.5ZM3.99482 1.82525C2.70166 2.68932 1.69376 3.91744 1.09858 5.35433L2.02246 5.73701C2.54195 4.48285 3.42168 3.41091 4.55039 2.65672L3.99482 1.82525ZM1.09858 5.35433C0.503407 6.79121 0.347682 8.37232 0.6511 9.89771L1.63189 9.70261C1.36705 8.37121 1.50297 6.99117 2.02246 5.73701L1.09858 5.35433ZM0.6511 9.89771C0.954519 11.4231 1.70345 12.8243 2.8032 13.924L3.5103 13.2169C2.55041 12.257 1.89672 11.034 1.63189 9.70261L0.6511 9.89771ZM2.8032 13.924C3.90294 15.0237 5.3041 15.7727 6.82949 16.0761L7.02458 15.0953C5.69317 14.8305 4.47019 14.1768 3.5103 13.2169L2.8032 13.924ZM6.82949 16.0761C8.35487 16.3795 9.93598 16.2238 11.3729 15.6286L10.9902 14.7047C9.73602 15.2242 8.35598 15.3601 7.02458 15.0953L6.82949 16.0761ZM11.3729 15.6286C12.8097 15.0334 14.0379 14.0255 14.9019 12.7324L14.0705 12.1768C13.3163 13.3055 12.2443 14.1852 10.9902 14.7047L11.3729 15.6286ZM14.9019 12.7324C15.766 11.4392 16.2272 9.91887 16.2272 8.36359H15.2272C15.2272 9.72108 14.8246 11.0481 14.0705 12.1768L14.9019 12.7324ZM16.2272 8.36356C16.2271 6.27806 15.3985 4.27801 13.9239 2.80333L13.2168 3.51044C14.5039 4.79759 15.2271 6.54331 15.2272 8.36363L16.2272 8.36356ZM13.9239 2.80333C12.4492 1.32866 10.4491 0.500133 8.36363 0.5L8.36357 1.5C10.1839 1.50012 11.9296 2.22328 13.2168 3.51044L13.9239 2.80333ZM13.2169 13.924L18.6464 19.3535L19.3535 18.6464L13.924 13.2169L13.2169 13.924Z" fill="black"/>
    </symbol>

     <symbol id="back" viewBox="0 0 6 11" fill="none" xmlns="http://www.w3.org/2000/svg">
        <path d="M5 1L1 5.5L5 10" stroke="#008954" stroke-width="2" stroke-linecap="round" stroke-linejoin="round"/>
    </symbol>

    <symbol id="left_p" viewBox="0 0 6 9" fill="none" xmlns="http://www.w3.org/2000/svg">
        <path d="M5 1L1 5.5L5 10" stroke="#adadad" stroke-linecap="round" stroke-linejoin="round"/>
    </symbol>

    <symbol id="right_p" viewBox="0 0 6 9" fill="none" xmlns="http://www.w3.org/2000/svg">
        <path d="M1 8.5L5 4.5L1 0.5" stroke="#adadad" stroke-linecap="round" stroke-linejoin="round"/>
    </symbol>

     <symbol id="star" viewBox="0 0 16 15" xmlns="http://www.w3.org/2000/svg">
        <path d="M7.54874 0.945683C7.72986 0.566122 8.27014 0.566122 8.45126 0.945683L10.1872 4.58374C10.2601 4.73649 10.4054 4.842 10.5732 4.86412L14.5696 5.39092C14.9866 5.44589 15.1535 5.95972 14.8485 6.24927L11.925 9.02451C11.8022 9.14104 11.7467 9.31176 11.7776 9.47818L12.5115 13.4418C12.5881 13.8553 12.151 14.1729 11.7813 13.9723L8.23851 12.0494C8.08975 11.9687 7.91025 11.9687 7.76149 12.0494L4.21865 13.9723C3.84902 14.1729 3.41193 13.8553 3.4885 13.4418L4.22245 9.47818C4.25327 9.31176 4.1978 9.14104 4.07504 9.02451L1.1515 6.24927C0.846484 5.95972 1.01344 5.44589 1.43039 5.39092L5.42684 4.86412C5.59464 4.842 5.73986 4.73649 5.81275 4.58374L7.54874 0.945683Z" />
    </symbol>

    <symbol id="voice" viewBox="0 0 30 30" fill="none" xmlns="http://www.w3.org/2000/svg">
        <path d="M20 15V7.50001C20 4.72875 17.7687 2.47375 15.0262 2.47375C14.9383 2.47428 14.8506 2.48477 14.765 2.505C13.4816 2.56723 12.2712 3.12045 11.3842 4.05019C10.4973 4.97994 10.0017 6.21506 10 7.50001V15C10 17.7575 12.2425 20 15 20C17.7575 20 20 17.7575 20 15ZM12.5 15V7.50001C12.5 6.12126 13.6212 5.00001 15 5.00001C15.0683 5.00003 15.1366 4.99375 15.2038 4.98126C16.485 5.07501 17.5 6.16876 17.5 7.50001V15C17.5 16.3788 16.3787 17.5 15 17.5C13.6212 17.5 12.5 16.3788 12.5 15Z" fill="#008954"/>
        <path d="M7.5 15H5C5 20.09 8.82625 24.295 13.75 24.9137V27.5H16.25V24.9137C21.1737 24.295 25 20.0912 25 15H22.5C22.5 19.1363 19.1362 22.5 15 22.5C10.8637 22.5 7.5 19.1363 7.5 15Z" fill="#008954"/>
    </symbol>

    <symbol id="check" viewBox="0 0 24 24" fill="none" xmlns="http://www.w3.org/2000/svg">
        <path d="M16.364 9.27246L10.9094 14.727L7.63672 12.2477" stroke="#008954" stroke-width="1.5" stroke-linecap="round" stroke-linejoin="round"/>
        <circle cx="12" cy="12" r="9.75" stroke="#008954" stroke-width="1.5"/>
    </symbol>

    <symbol id="truck" viewBox="0 0 24 24" fill="none" xmlns="http://www.w3.org/2000/svg">
        <path fill-rule="evenodd" clip-rule="evenodd" d="M2.46094 3.93164C1.49444 3.93164 0.710938 4.71514 0.710938 5.68164V16.2213C0.710938 17.1877 1.49444 17.9713 2.46094 17.9713H2.82876C2.82834 17.9894 2.82812 18.0076 2.82812 18.0258C2.82812 19.2918 3.85447 20.3182 5.12052 20.3182C6.38657 20.3182 7.41291 19.2918 7.41291 18.0258C7.41291 18.0076 7.4127 17.9894 7.41228 17.9713H15.7919H16.3917C16.3913 17.9894 16.3911 18.0076 16.3911 18.0259C16.3911 19.2919 17.4174 20.3183 18.6835 20.3183C19.9495 20.3183 20.9758 19.2919 20.9758 18.0259C20.9758 18.0209 20.9758 18.0159 20.9758 18.0109H21.5366C22.5031 18.0109 23.2866 17.2274 23.2866 16.2609V12.2741C23.2866 11.556 22.8479 10.9108 22.1801 10.6467L20.7771 10.092C20.7202 10.0695 20.6735 10.0269 20.6459 9.97233L19.6618 8.02655C19.3639 7.43766 18.7601 7.06641 18.1001 7.06641H16.5419V5.68164C16.5419 4.71514 15.7584 3.93164 14.7919 3.93164H2.46094ZM20.404 16.5109H21.5366C21.6747 16.5109 21.7866 16.399 21.7866 16.2609V12.2741C21.7866 12.1716 21.7239 12.0794 21.6285 12.0417L20.2255 11.4869C19.8273 11.3294 19.5007 11.0314 19.3074 10.6493L18.3232 8.70357C18.2807 8.61944 18.1944 8.56641 18.1001 8.56641H16.5419V16.4713H16.9987C17.4176 16.0176 18.0173 15.7335 18.6835 15.7335C19.3688 15.7335 19.9839 16.0342 20.404 16.5109ZM5.12052 15.7334C4.45436 15.7334 3.85456 16.0175 3.43573 16.4713H2.46094C2.32287 16.4713 2.21094 16.3593 2.21094 16.2213V5.68164C2.21094 5.54357 2.32287 5.43164 2.46094 5.43164H14.7919C14.93 5.43164 15.0419 5.54357 15.0419 5.68164V16.4713H6.80531C6.38648 16.0175 5.78668 15.7334 5.12052 15.7334ZM5.12052 18.8182C5.55815 18.8182 5.91291 18.4634 5.91291 18.0258C5.91291 17.5882 5.55815 17.2334 5.12052 17.2334C4.68289 17.2334 4.32812 17.5882 4.32812 18.0258C4.32812 18.4634 4.68289 18.8182 5.12052 18.8182ZM19.4758 18.0259C19.4758 18.4635 19.1211 18.8183 18.6835 18.8183C18.2458 18.8183 17.8911 18.4635 17.8911 18.0259C17.8911 17.5883 18.2458 17.2335 18.6835 17.2335C19.1211 17.2335 19.4758 17.5883 19.4758 18.0259Z" fill="#008954"/>
    </symbol>

    <symbol id="airplay" viewBox="0 0 24 24" fill="none" xmlns="http://www.w3.org/2000/svg">
        <path d="M5 17.5996H4C3.46957 17.5996 2.96086 17.3889 2.58579 17.0138C2.21071 16.6387 2 16.13 2 15.5996V5.59961C2 5.06918 2.21071 4.56047 2.58579 4.1854C2.96086 3.81032 3.46957 3.59961 4 3.59961H20C20.5304 3.59961 21.0391 3.81032 21.4142 4.1854C21.7893 4.56047 22 5.06918 22 5.59961V15.5996C22 16.13 21.7893 16.6387 21.4142 17.0138C21.0391 17.3889 20.5304 17.5996 20 17.5996H19" stroke="#008954" stroke-width="1.5" stroke-linecap="round" stroke-linejoin="round"/>
        <path d="M12 14.4004L17 20.4004H7L12 14.4004Z" stroke="#008954" stroke-width="1.5" stroke-linecap="round" stroke-linejoin="round"/>
    </symbol>

    <symbol id="reply" viewBox="0 0 17 10" fill="none" xmlns="http://www.w3.org/2000/svg">
        <path d="M4.66905 2V0L0 4.66667L4.66905 9.33333V7.33333L2.00102 4.66667L4.66905 2ZM8.6711 2.66667V0L4.00205 4.66667L8.6711 9.33333V6.6C12.0061 6.6 14.3407 7.66667 16.0082 10C15.3412 6.66667 13.3402 3.33333 8.6711 2.66667Z" fill="#8F8F8F"/>
    </symbol>

    <symbol id='pointer_b' viewBox="0 0 12 8" fill="none" xmlns="http://www.w3.org/2000/svg">
        <path d="M1 1.5L6 6.5L11 1.5" stroke="black" stroke-width="1.5" stroke-linecap="round" stroke-linejoin="round"/>
    </symbol>


    <symbol id='page_prev' viewBox="0 0 6 11" fill="none" xmlns="http://www.w3.org/2000/svg">
        <path d="M5 1L1 5.5L5 10" stroke="black" stroke-width="2" stroke-linecap="round" stroke-linejoin="round"/>
    </symbol>

    <symbol id='page_next' viewBox="0 0 6 11" fill="none" xmlns="http://www.w3.org/2000/svg">
        <path d="M1 1L5 5.5L1 10" stroke="black" stroke-width="2" stroke-linecap="round" stroke-linejoin="round"/>
    </symbol>

    <symbol id='close' viewBox="0 0 24 24" fill="none" xmlns="http://www.w3.org/2000/svg">
        <path d="M19 5L5 19" stroke="black" stroke-width="2" stroke-linecap="round" stroke-linejoin="round"/>
        <path d="M5 5L19 19" stroke="black" stroke-width="2" stroke-linecap="round" stroke-linejoin="round"/>
    </symbol>

    <symbol id='cats' viewBox="0 0 98 56" fill="none" xmlns="http://www.w3.org/2000/svg">
        <circle cx="4" cy="4" r="4" fill="#008954"/>
        <rect x="18" width="80" height="8" rx="4" fill="#008954"/>
        <circle cx="4" cy="28" r="4" fill="#008954"/>
        <rect x="18" y="24" width="80" height="8" rx="4" fill="#008954"/>
        <circle cx="4" cy="52" r="4" fill="#008954"/>
        <rect x="18" y="48" width="80" height="8" rx="4" fill="#008954"/>
    </symbol>

    <symbol id='clear' viewBox="0 0 50 38" fill="none" xmlns="http://www.w3.org/2000/svg">
        <path d="M24.9997 12.75L37.4997 25.25M43.7497 2.33331H16.6663L2.08301 19L16.6663 35.6666H43.7497C44.8547 35.6666 45.9145 35.2277 46.696 34.4463C47.4774 33.6649 47.9163 32.605 47.9163 31.5V6.49998C47.9163 5.39491 47.4774 4.3351 46.696 3.5537C45.9145 2.7723 44.8547 2.33331 43.7497 2.33331V2.33331ZM37.4997 12.75L24.9997 25.25L37.4997 12.75Z" stroke="black" stroke-width="4" stroke-linecap="round" stroke-linejoin="round"/>
    </symbol>


    <symbol id='union' viewBox="0 0 51 50" fill="none" xmlns="http://www.w3.org/2000/svg">
        <path fill-rule="evenodd" clip-rule="evenodd" d="M9.67197 5.60783C13.4481 2.53586 18.3593 0.523752 23.113 0.101194C29.5043 -0.466873 35.714 1.36692 40.8731 5.34612C41.9411 6.16985 44.2667 8.49543 45.0904 9.5634C48.7773 14.3437 50.6387 20.0544 50.4112 25.8886C50.2685 29.5496 49.4765 32.6843 47.8614 35.9794C45.8668 40.0487 42.9454 43.3712 39.1417 45.8965C36.9485 47.3525 33.6111 48.7786 31.0587 49.3506C28.9263 49.8283 27.8896 49.9365 25.4435 49.9365C22.9973 49.9365 21.9606 49.8283 19.8282 49.3506C16.4334 48.5899 12.6431 46.7556 9.84092 44.5172C8.73262 43.632 6.96123 41.8745 6.0582 40.7646C3.74541 37.9217 1.86328 34.0772 1.08594 30.6083C0.608204 28.4759 0.5 27.4393 0.5 24.9931C0.5 22.5469 0.608204 21.5103 1.08594 19.3779C1.84668 15.983 3.68096 12.1927 5.91933 9.39055C6.80459 8.28225 8.56201 6.51086 9.67197 5.60783ZM24.5645 11.6752V6.71301V2.68488L24.3763 2.68995C23.9857 2.70037 22.8761 2.99624 22.2188 3.26518C19.3606 4.43469 16.8858 7.01262 14.9656 10.8205C14.6655 11.4158 14.3026 12.2282 14.0822 12.7745C14.13 12.766 14.1789 12.7572 14.2287 12.748C16.8277 12.2664 19.4798 11.9562 22.3543 11.7973L24.5645 11.6752ZM36.8972 12.7915C36.7378 12.7664 36.5567 12.7363 36.3662 12.7029C33.4111 12.1853 31.4493 11.9585 28.5326 11.7973L26.3243 11.6753V7.45268V2.683L26.5355 2.68441C26.6518 2.68516 27.0214 2.75002 27.357 2.8284C30.2173 3.49722 32.9245 5.6793 34.9551 8.95308C35.5329 9.88447 36.4961 11.8218 36.8972 12.7915ZM5.862 14.1736C6.06592 13.8101 6.37992 13.3001 6.76986 12.7041C8.87141 9.4918 11.9035 6.79034 15.4468 4.97322C15.6528 4.86758 16.0423 4.69186 16.4656 4.50882C15.6419 5.42653 14.8462 6.45115 14.2138 7.41496C13.4766 8.5384 12.1887 11.1414 11.7736 12.3469L11.4709 13.2262L8.14824 13.7975C7.27179 13.9482 6.46626 14.0802 5.862 14.1736ZM45.1035 14.1857C44.4914 14.0918 43.6537 13.9548 42.7387 13.7975L39.416 13.2262L39.1133 12.3469C38.6982 11.1414 37.4103 8.5384 36.6731 7.41496C36.0292 6.4336 35.2159 5.38919 34.3762 4.45879C38.3717 6.19605 41.8289 9.09675 44.1889 12.7041C44.5831 13.3068 44.8998 13.8214 45.1035 14.1857ZM24.5645 24.1142V18.7431V13.8548L23.9538 13.867C21.6382 13.9132 18.5748 14.2328 15.3871 14.7607C14.2511 14.9488 13.3097 15.1117 13.2949 15.1227C13.2803 15.1338 13.1457 15.6025 12.9958 16.1643C12.4638 18.1593 12.0402 20.9073 11.916 23.1699L11.8642 24.1142H17.9208H24.5645ZM39.0946 24.1142H32.9661H26.3243V19.0162V13.8534H26.7035C26.912 13.8534 27.8097 13.8975 28.6985 13.9513C30.82 14.0799 33.0319 14.3404 35.5716 14.7609C36.7076 14.9489 37.6491 15.1117 37.6638 15.1227C37.6785 15.1338 37.8131 15.6025 37.9629 16.1643C38.4949 18.1593 38.9185 20.9073 39.0427 23.1699L39.0946 24.1142ZM3.05124 24.1142L3.08097 23.9678C3.10453 23.8517 3.14875 23.3976 3.17926 22.9587C3.28976 21.3704 3.72481 19.3528 4.32997 17.6226C4.5168 17.0883 4.71545 16.6337 4.7714 16.6123C4.87854 16.5712 9.27702 15.7935 10.8114 15.5387C10.7696 15.7213 10.7149 15.9489 10.6553 16.1863C10.1788 18.083 9.81611 20.6099 9.66777 23.0644L9.60439 24.1142H5.85215H3.05124ZM47.9075 24.1142H45.0348H41.2825L41.2191 23.0644C41.0708 20.6099 40.7081 18.083 40.2316 16.1863C40.1626 15.9113 40.1107 15.7002 40.0739 15.5386C40.6766 15.6401 41.715 15.8178 42.8784 16.0191C44.6904 16.3325 46.2 16.6058 46.2331 16.6262C46.2663 16.6467 46.4453 17.0977 46.6309 17.6287C47.2339 19.3528 47.6692 21.3725 47.7795 22.9587C47.81 23.3976 47.8542 23.8516 47.8778 23.9678L47.9075 24.1142ZM10.6686 33.8588C10.1751 31.8755 9.81718 29.3951 9.66777 26.9218L9.60439 25.872H5.85215H3.03874L3.08097 26.0799C3.10453 26.1961 3.14875 26.6501 3.17926 27.089C3.28957 28.6752 3.72481 30.6949 4.32781 32.4191C4.51342 32.95 4.69245 33.401 4.72559 33.4215C4.82286 33.4816 9.13052 34.2166 10.8088 34.4728C10.7732 34.2981 10.7249 34.085 10.6686 33.8588ZM24.5645 36.1943V31.2431V25.872H17.9208H11.8608L11.916 26.8778C12.0402 29.1404 12.4638 31.8884 12.9958 33.8834C13.1457 34.4452 13.2803 34.9139 13.2949 34.925C13.3816 34.99 17.7098 35.6586 19.0485 35.8135C20.5352 35.9857 23.3873 36.1943 24.2552 36.1943H24.5645ZM39.0979 25.872L39.0427 26.8778C38.9185 29.1404 38.4949 31.8884 37.9629 33.8834C37.8131 34.4452 37.6785 34.9139 37.6638 34.925C37.5771 34.99 33.2489 35.6586 31.9103 35.8135C30.4235 35.9857 27.5714 36.1943 26.7035 36.1943H26.3243V31.0315V25.872H32.9661H39.0979ZM47.92 25.872L47.8778 26.0799C47.8542 26.1961 47.81 26.6501 47.7795 27.089C47.6692 28.6752 47.2339 30.6949 46.6309 32.4191C46.4453 32.95 46.2663 33.401 46.2331 33.4215C46.1344 33.4825 41.6973 34.2389 40.0758 34.4841C40.1116 34.3073 40.1608 34.0899 40.2184 33.8588C40.7118 31.8755 41.0697 29.3951 41.2191 26.9218L41.2825 25.872H45.0348H47.92ZM11.4709 36.76L8.17891 36.1964C7.07529 36.0075 6.32536 35.8787 5.81592 35.7942C6.19204 36.4462 6.91613 37.6003 7.28321 38.1083C9.38052 41.0113 12.2804 43.4727 15.543 45.1194C15.7531 45.2255 16.1385 45.3974 16.5538 45.575C15.6989 44.6327 14.8687 43.5694 14.2138 42.5712C13.4766 41.4478 12.1887 38.8447 11.7736 37.6393L11.4709 36.76ZM45.1603 35.7639C44.7895 36.4098 44.0484 37.5923 43.6755 38.1083C41.5782 41.0113 38.6783 43.4727 35.4157 45.1194C35.186 45.2354 34.7466 45.4302 34.2876 45.625C35.1586 44.6704 36.0066 43.5871 36.6731 42.5712C37.4104 41.4477 38.6982 38.8447 39.1134 37.6389L39.4162 36.7592L42.5617 36.2088C43.8106 35.9903 44.6273 35.8488 45.1603 35.7639ZM22.3917 38.1947C19.5783 38.0412 16.7737 37.7134 14.2755 37.246C14.1988 37.2317 14.1234 37.2178 14.051 37.2047C16.2007 42.6264 19.7298 46.337 23.5769 47.2119C23.974 47.3022 24.2239 47.4284 24.3806 47.3552C24.4625 47.3169 24.519 47.2242 24.5577 47.0433C24.5793 46.2957 24.5645 45.1138 24.5645 43.2743V38.3134L22.3917 38.1947ZM36.9134 37.1859C34.7897 42.5883 31.2259 46.3377 27.3818 47.2119C26.9848 47.3022 26.7349 47.4284 26.5781 47.3552C26.3321 47.2403 26.3156 46.6339 26.3201 44.6258C26.3205 44.5095 26.3208 44.3897 26.3211 44.2661C26.3225 43.7843 26.3243 43.231 26.3243 42.5962V38.3133L28.4952 38.1947C31.2573 38.0441 34.7561 37.628 36.8204 37.205C36.8528 37.1984 36.8838 37.192 36.9134 37.1859Z" fill="black"/>
    </symbol>

    <symbol id='caps' viewBox="0 0 51 50" fill="none" xmlns="http://www.w3.org/2000/svg">
        <path fill-rule="evenodd" clip-rule="evenodd" d="M23.2185 3.27188C23.5108 2.95966 23.8641 2.71076 24.2565 2.54061C24.6489 2.37045 25.072 2.28265 25.4997 2.28265C25.9274 2.28265 26.3506 2.37045 26.743 2.54061C27.1354 2.71076 27.4887 2.95966 27.781 3.27188L44.2813 24.4281C46.1563 26.4219 44.7376 29.6875 42.0001 29.6875H36.4372V32.8125C36.4372 33.6413 36.108 34.4362 35.5219 35.0222C34.9359 35.6083 34.141 35.9375 33.3122 35.9375H17.6872C16.8584 35.9375 16.0636 35.6083 15.4775 35.0222C14.8915 34.4362 14.5622 33.6413 14.5622 32.8125V29.6875H8.49949C5.76824 29.6875 4.34949 26.4219 6.21824 24.425L23.2185 3.27188ZM42.0032 26.5625L25.4997 5.40938L8.49949 26.5625H14.5622C15.391 26.5625 16.1859 26.8917 16.7719 27.4778C17.358 28.0639 17.6872 28.8587 17.6872 29.6875V32.8125H33.3122V29.6875C33.3122 28.8587 33.6415 28.0639 34.2275 27.4778C34.8136 26.8917 35.6084 26.5625 36.4372 26.5625H42.0032ZM14.5622 42.1875C14.5622 41.3587 14.8915 40.5639 15.4775 39.9778C16.0636 39.3917 16.8584 39.0625 17.6872 39.0625H33.3122C34.141 39.0625 34.9359 39.3917 35.5219 39.9778C36.108 40.5639 36.4372 41.3587 36.4372 42.1875V45.3125C36.4372 46.1413 36.108 46.9362 35.5219 47.5222C34.9359 48.1083 34.141 48.4375 33.3122 48.4375H17.6872C16.8584 48.4375 16.0636 48.1083 15.4775 47.5222C14.8915 46.9362 14.5622 46.1413 14.5622 45.3125V42.1875ZM33.3122 42.1875H17.6872V45.3125H33.3122V42.1875Z" fill="black"/>
    </symbol>

    <symbol id='map' viewBox="0 0 24 24" fill="none" xmlns="http://www.w3.org/2000/svg">
        <path d="M21 10C21 17 12 23 12 23C12 23 3 17 3 10C3 7.61305 3.94821 5.32387 5.63604 3.63604C7.32387 1.94821 9.61305 1 12 1C14.3869 1 16.6761 1.94821 18.364 3.63604C20.0518 5.32387 21 7.61305 21 10Z" stroke="#008954" stroke-width="2" stroke-linecap="round" stroke-linejoin="round"/>
    <path d="M12 13C13.6569 13 15 11.6569 15 10C15 8.34315 13.6569 7 12 7C10.3431 7 9 8.34315 9 10C9 11.6569 10.3431 13 12 13Z" stroke="#008954" stroke-width="2" stroke-linecap="round" stroke-linejoin="round"/>
    </symbol>


    <symbol id='clock' viewBox="0 0 24 24" fill="none" xmlns="http://www.w3.org/2000/svg">
        <path d="M12 22.0001C17.5228 22.0001 22 17.523 22 12.0001C22 6.47727 17.5228 2.00012 12 2.00012C6.47715 2.00012 2 6.47727 2 12.0001C2 17.523 6.47715 22.0001 12 22.0001Z" stroke="#008954" stroke-width="2" stroke-linecap="round" stroke-linejoin="round"/>
        <path d="M12 6V12L16 14" stroke="#008954" stroke-width="2" stroke-linecap="round" stroke-linejoin="round"/>
    </symbol>

    <symbol id='phone' viewBox="0 0 24 24" fill="none" xmlns="http://www.w3.org/2000/svg">
        <path d="M21.3881 16.4201V19.4201C21.3892 19.6986 21.3322 19.9743 21.2206 20.2294C21.1091 20.4846 20.9454 20.7137 20.7402 20.902C20.535 21.0902 20.2927 21.2336 20.0289 21.3228C19.765 21.412 19.4855 21.4452 19.2081 21.4201C16.131 21.0857 13.1751 20.0342 10.5781 18.3501C8.16194 16.8148 6.11345 14.7663 4.57812 12.3501C2.88809 9.7413 1.83636 6.77109 1.50812 3.6801C1.48313 3.40356 1.51599 3.12486 1.60462 2.86172C1.69324 2.59859 1.83569 2.35679 2.02288 2.15172C2.21008 1.94665 2.43792 1.78281 2.69191 1.67062C2.94589 1.55843 3.22046 1.50036 3.49812 1.5001H6.49812C6.98342 1.49532 7.45391 1.66718 7.82188 1.98363C8.18985 2.30008 8.43019 2.73954 8.49812 3.2201C8.62474 4.18016 8.85957 5.12282 9.19812 6.0301C9.33266 6.38802 9.36178 6.77701 9.28202 7.15098C9.20227 7.52494 9.01698 7.86821 8.74812 8.1401L7.47812 9.4101C8.90167 11.9136 10.9746 13.9865 13.4781 15.4101L14.7481 14.1401C15.02 13.8712 15.3633 13.6859 15.7372 13.6062C16.1112 13.5264 16.5002 13.5556 16.8581 13.6901C17.7654 14.0286 18.7081 14.2635 19.6681 14.3901C20.1539 14.4586 20.5975 14.7033 20.9146 15.0776C21.2318 15.4519 21.4003 15.9297 21.3881 16.4201Z" stroke="#008954" stroke-width="2" stroke-linecap="round" stroke-linejoin="round"/>
    </symbol>

    <symbol id='mail' viewBox="0 0 24 24" fill="none" xmlns="http://www.w3.org/2000/svg">
        <path d="M4 3.99988H20C21.1 3.99988 22 4.89988 22 5.99988V17.9999C22 19.0999 21.1 19.9999 20 19.9999H4C2.9 19.9999 2 19.0999 2 17.9999V5.99988C2 4.89988 2.9 3.99988 4 3.99988Z" stroke="#008954" stroke-width="2" stroke-linecap="round" stroke-linejoin="round"/>
        <path d="M22 6L12 13L2 6" stroke="#008954" stroke-width="2" stroke-linecap="round" stroke-linejoin="round"/>
    </symbol>


</svg>